M48
; #@! TF.GenerationSoftware,LibrePCB,LibrePCB,1.0.1-unstable
; #@! TF.CreationDate,2024-02-11T18:20:56
; #@! TF.ProjectId,d0-reader,9220702f-a48e-4216-8865-87f6ea8ca353,v2
; #@! TF.Part,Single
; #@! TF.SameCoordinates
; #@! TF.FileFunction,Plated,1,2,PTH
FMAT,2
METRIC,TZ
; #@! TA.AperFunction,ViaDrill
T1C0.3
; #@! TA.AperFunction,ComponentDrill
T2C0.9
; #@! TA.AperFunction,ComponentDrill
T3C1.5
%
G90
G05
M71
T1
X-12.938125Y-8.016875
X-10.16Y2.778125
X3.889375Y0.9525
X-16.66875Y11.191875
X3.01625Y11.43
X14.843125Y-9.525
X-17.065625Y-3.01625
X-12.779375Y15.795625
X7.858125Y-4.365625
X12.54125Y-14.843125
X-0.079375Y-0.3175
X2.778125Y-0.396875
X-15.71625Y2.69875
X6.6675Y-16.35125
X-4.1275Y-1.349375
X10.398125Y-15.39875
X2.2225Y-15.160625
X-12.938125Y-11.58875
X16.98625Y8.09625
X-10.080625Y-9.36625
X15.319375Y-14.605
X14.12875Y-0.079375
X16.1925Y-6.35
X9.286875Y-1.5875
X-10.63625Y-13.17625
X4.1275Y-3.96875
X17.145Y0.15875
X-15.5575Y13.731875
X-8.89Y-10.239375
X-17.145Y-8.810625
X-7.381875Y-12.938125
X4.92125Y-12.303125
X7.3025Y-11.58875
X13.0175Y8.175625
X-5.159375Y-8.969375
X-1.190625Y9.128125
X-14.2875Y-15.08125
X7.77875Y-0.238125
X-8.175625Y-14.366875
X-14.605Y7.62
X-13.096875Y9.286875
X-15.5575Y11.191875
X-9.128125Y-3.81
X3.571875Y-5.23875
X-1.190625Y6.0325
X-15.5575Y5.318125
X15.24Y8.5725
X11.90625Y-8.810625
X-5.3975Y2.936875
X11.668125Y-12.461875
X3.571875Y-11.191875
X-5.715Y-0.396875
X15.39875Y-2.143125
X0.873125Y-7.381875
X-11.350625Y-7.62
X13.49375Y-13.890625
X-10.16Y0.3175
X-0.396875Y-5.000625
X-6.0325Y-14.2875
X1.508125Y1.031875
X14.843125Y-6.429375
X1.825625Y8.969375
X1.905Y-1.42875
X14.843125Y-5.476875
X-0.873125Y2.301875
X2.54Y16.35125
X2.54Y14.366875
X-12.938125Y-10.398125
X10.715625Y16.113125
X8.5725Y-8.810625
X-1.27Y-15.5575
X-3.095625Y9.445625
X-15.875Y-0.238125
X-1.825625Y-11.90625
X-14.525625Y11.191875
X-11.7475Y12.461875
X3.413125Y-8.810625
X11.191875Y-5.3975
X-13.6525Y-0.238125
X1.349375Y-13.573125
X-8.89Y-13.731875
X-11.350625Y7.223125
X13.335Y13.255625
X-6.6675Y-6.35
X6.746875Y-0.238125
X3.175Y5.794375
X-16.35125Y-12.779375
X-4.445Y14.366875
X3.01625Y-13.414375
X9.286875Y-16.271875
X7.14375Y-6.746875
X8.810625Y1.5875
X1.190625Y4.524375
X-10.16Y-1.74625
X7.699375Y-16.35125
X-7.540625Y-2.2225
X5.3975Y-8.810625
X-12.85875Y-3.81
X1.825625Y-2.8575
X10.239375Y-10.95375
X12.85875Y0.79375
X15.478125Y13.335
X-11.43Y-16.1925
X-11.350625Y-14.049375
X-3.254375Y2.06375
X-1.508125Y-5.55625
X-1.74625Y-7.62
X-12.54125Y-0.9525
X-0.15875Y-3.889375
X-1.666875Y-14.366875
X-12.54125Y-1.74625
X-15.24Y-4.048125
X9.04875Y6.6675
X11.58875Y-15.001875
X5.23875Y-15.954375
X13.890625Y-12.85875
X-1.825625Y-10.715625
X-5.159375Y-10.398125
X-12.54125Y-2.54
X12.303125Y-3.095625
X-0.079375Y-9.921875
X15.5575Y9.8425
X-5.08Y8.5725
X15.71625Y-11.191875
X-0.396875Y-13.255625
X5.23875Y-10.95375
X-5.87375Y-3.095625
X13.414375Y9.921875
X-12.144375Y-12.85875
X3.254375Y-2.143125
X-10.63625Y-9.921875
X-1.905Y14.366875
X-7.540625Y16.03375
X-10.00125Y-13.81125
X-0.3175Y-7.223125
X-6.905625Y-16.271875
X17.145Y-11.1125
X8.73125Y5.3975
X-12.938125Y-9.2075
X-9.763125Y-11.1125
X14.843125Y-7.62
X6.6675Y16.03375
X-1.5875Y-3.095625
X-1.5875Y4.92125
X-10.00125Y-7.381875
X-10.95375Y5.476875
X8.810625Y4.1275
T2
X-3.175Y15.365
X-0.635Y15.365
X6.725Y1.905
X6.725Y3.935
X5.715Y12.825
X-4.445Y12.825
X-6.725Y1.905
X4.445Y15.365
X-5.715Y15.365
X-1.905Y12.825
X-6.725Y3.935
X0.635Y12.825
T3
X7.875Y9.525
X-7.875Y9.525
T0
M30
