G04 --- HEADER BEGIN --- *
G04 #@! TF.GenerationSoftware,LibrePCB,LibrePCB,1.0.1-unstable*
G04 #@! TF.CreationDate,2024-02-11T18:20:56*
G04 #@! TF.ProjectId,d0-reader,9220702f-a48e-4216-8865-87f6ea8ca353,v2*
G04 #@! TF.Part,Single*
G04 #@! TF.SameCoordinates*
G04 #@! TF.FileFunction,Legend,Top*
G04 #@! TF.FilePolarity,Positive*
%FSLAX66Y66*%
%MOMM*%
G01*
G75*
G04 --- HEADER END --- *
G04 --- APERTURE LIST BEGIN --- *
%ADD10C,0.2*%
%ADD11C,0.01*%
%ADD12C,0.1*%
%ADD13C,0.25*%
%ADD14C,0.15*%
%AMROUNDEDRECT15*20,1,0.96,-1.26,0.0,1.26,0.0,0.0*20,1,0.38,-1.55,0.0,1.55,0.0,0.0*1,1,0.58,-1.26,0.19*1,1,0.58,1.26,0.19*1,1,0.58,1.26,-0.19*1,1,0.58,-1.26,-0.19*%
%ADD15ROUNDEDRECT15*%
%ADD16C,1.2*%
%AMROUNDEDRECT17*20,1,0.9,-0.325,0.0,0.325,0.0,90.0*20,1,0.35,-0.6,0.0,0.6,0.0,90.0*1,1,0.55,-0.175,-0.325*1,1,0.55,-0.175,0.325*1,1,0.55,0.175,0.325*1,1,0.55,0.175,-0.325*%
%ADD17ROUNDEDRECT17*%
%ADD18C,1.8*%
%ADD19C,2.7*%
%ADD20C,3.2*%
%AMROUNDEDRECT21*20,1,2.0,-1.8,0.0,1.8,0.0,90.0*20,1,1.8,-1.9,0.0,1.9,0.0,90.0*1,1,0.2,-0.9,-1.8*1,1,0.2,-0.9,1.8*1,1,0.2,0.9,1.8*1,1,0.2,0.9,-1.8*%
%ADD21ROUNDEDRECT21*%
G04 --- APERTURE LIST END --- *
G04 --- BOARD BEGIN --- *
D10*
G04 #@! TO.C,J2*
X9646250Y7327500D02*
X15606250Y7327500D01*
X15606250Y927500D02*
X10746250Y927500D01*
D11*
G04 #@! TO.C,LOGO1*
G36*
X13998125Y-1728750D02*
X14418125Y-1728750D01*
X14418125Y-1928750D01*
X13998125Y-1928750D01*
X13998125Y-1728750D01*
G37*
G36*
X12838125Y-368750D02*
X13038125Y-368750D01*
X13038125Y51250D01*
X12838125Y51250D01*
X12838125Y-368750D01*
G37*
G36*
X12438125Y-368750D02*
X12638125Y-368750D01*
X12638125Y51250D01*
X12438125Y51250D01*
X12438125Y-368750D01*
G37*
G36*
X11878125Y-928750D02*
X11458125Y-928750D01*
X11458125Y-1128750D01*
X11878125Y-1128750D01*
X11878125Y-928750D01*
G37*
G36*
X12838125Y-2488750D02*
X13038125Y-2488750D01*
X13038125Y-2908750D01*
X12838125Y-2908750D01*
X12838125Y-2488750D01*
G37*
G36*
X12303125Y-581750D02*
X13573125Y-581750D01*
G02*
X13785125Y-793750I0J-212000D01*
G01*
X13785125Y-2063750D01*
G02*
X13573125Y-2275750I-212000J0D01*
G01*
X12303125Y-2275750D01*
G02*
X12091125Y-2063750I0J212000D01*
G01*
X12091125Y-963750D01*
X12306125Y-963750D01*
G03*
X12473125Y-1130750I167000J0D01*
G01*
G03*
X12640125Y-963750I0J167000D01*
G01*
G03*
X12473125Y-796750I-167000J0D01*
G01*
G03*
X12306125Y-963750I0J-167000D01*
G01*
X12091125Y-963750D01*
X12091125Y-793750D01*
G02*
X12303125Y-581750I212000J0D01*
G01*
G37*
G36*
X13998125Y-928750D02*
X14418125Y-928750D01*
X14418125Y-1128750D01*
X13998125Y-1128750D01*
X13998125Y-928750D01*
G37*
G36*
X13238125Y-368750D02*
X13438125Y-368750D01*
X13438125Y51250D01*
X13238125Y51250D01*
X13238125Y-368750D01*
G37*
G36*
X11878125Y-1328750D02*
X11458125Y-1328750D01*
X11458125Y-1528750D01*
X11878125Y-1528750D01*
X11878125Y-1328750D01*
G37*
G36*
X12438125Y-2488750D02*
X12638125Y-2488750D01*
X12638125Y-2908750D01*
X12438125Y-2908750D01*
X12438125Y-2488750D01*
G37*
G36*
X11878125Y-1728750D02*
X11458125Y-1728750D01*
X11458125Y-1928750D01*
X11878125Y-1928750D01*
X11878125Y-1728750D01*
G37*
G36*
X13238125Y-2488750D02*
X13438125Y-2488750D01*
X13438125Y-2908750D01*
X13238125Y-2908750D01*
X13238125Y-2488750D01*
G37*
G36*
X13998125Y-1328750D02*
X14418125Y-1328750D01*
X14418125Y-1528750D01*
X13998125Y-1528750D01*
X13998125Y-1328750D01*
G37*
D10*
X9244930Y-4413125D02*
X9244930Y-3413125D01*
X9578263Y-4127569D01*
X9911597Y-3413125D01*
X9911597Y-4413125D01*
X10788264Y-4413125D02*
X10788264Y-3889792D01*
X10740486Y-3794236D01*
X10644930Y-3746458D01*
X10454930Y-3746458D01*
X10359375Y-3794236D01*
X10788264Y-4365347D02*
X10692708Y-4413125D01*
X10454930Y-4413125D01*
X10359375Y-4365347D01*
X10311597Y-4269792D01*
X10311597Y-4175347D01*
X10359375Y-4079792D01*
X10454930Y-4032014D01*
X10692708Y-4032014D01*
X10788264Y-3984236D01*
X11664931Y-4413125D02*
X11664931Y-3413125D01*
X11664931Y-4365347D02*
X11569375Y-4413125D01*
X11378264Y-4413125D01*
X11283820Y-4365347D01*
X11236042Y-4317569D01*
X11188264Y-4223125D01*
X11188264Y-3936458D01*
X11236042Y-3842014D01*
X11283820Y-3794236D01*
X11378264Y-3746458D01*
X11569375Y-3746458D01*
X11664931Y-3794236D01*
X12493820Y-4365347D02*
X12398264Y-4413125D01*
X12208264Y-4413125D01*
X12112709Y-4365347D01*
X12064931Y-4269792D01*
X12064931Y-3889792D01*
X12112709Y-3794236D01*
X12208264Y-3746458D01*
X12398264Y-3746458D01*
X12493820Y-3794236D01*
X12541598Y-3889792D01*
X12541598Y-3984236D01*
X12064931Y-4079792D01*
X13741597Y-3413125D02*
X13979375Y-4413125D01*
X14170486Y-3698681D01*
X14360486Y-4413125D01*
X14598264Y-3413125D01*
X15046042Y-4413125D02*
X15046042Y-3746458D01*
X15046042Y-3413125D02*
X14998264Y-3460903D01*
X15046042Y-3508681D01*
X15093820Y-3460903D01*
X15046042Y-3413125D01*
X15046042Y-3508681D01*
X15493820Y-3746458D02*
X15874931Y-3746458D01*
X15637153Y-3413125D02*
X15637153Y-4269792D01*
X15683820Y-4365347D01*
X15779376Y-4413125D01*
X15874931Y-4413125D01*
X16274931Y-4413125D02*
X16274931Y-3413125D01*
X16703820Y-4413125D02*
X16703820Y-3889792D01*
X16656042Y-3794236D01*
X16560487Y-3746458D01*
X16418264Y-3746458D01*
X16322709Y-3794236D01*
X16274931Y-3842014D01*
X10264930Y-5893125D02*
X9788263Y-5893125D01*
X9788263Y-4893125D01*
X10712708Y-5893125D02*
X10712708Y-5226458D01*
X10712708Y-4893125D02*
X10664930Y-4940903D01*
X10712708Y-4988681D01*
X10760486Y-4940903D01*
X10712708Y-4893125D01*
X10712708Y-4988681D01*
X11160486Y-5893125D02*
X11160486Y-4893125D01*
X11160486Y-5274236D02*
X11256042Y-5226458D01*
X11446042Y-5226458D01*
X11541597Y-5274236D01*
X11589375Y-5322014D01*
X11637153Y-5416458D01*
X11637153Y-5703125D01*
X11589375Y-5797569D01*
X11541597Y-5845347D01*
X11446042Y-5893125D01*
X11256042Y-5893125D01*
X11160486Y-5845347D01*
X12037153Y-5893125D02*
X12037153Y-5226458D01*
X12037153Y-5416458D02*
X12084931Y-5322014D01*
X12132709Y-5274236D01*
X12227153Y-5226458D01*
X12322709Y-5226458D01*
X13151598Y-5845347D02*
X13056042Y-5893125D01*
X12866042Y-5893125D01*
X12770487Y-5845347D01*
X12722709Y-5749792D01*
X12722709Y-5369792D01*
X12770487Y-5274236D01*
X12866042Y-5226458D01*
X13056042Y-5226458D01*
X13151598Y-5274236D01*
X13199376Y-5369792D01*
X13199376Y-5464236D01*
X12722709Y-5559792D01*
X13599376Y-5893125D02*
X13599376Y-4893125D01*
X13980487Y-4893125D01*
X14076043Y-4940903D01*
X14122709Y-4988681D01*
X14170487Y-5083125D01*
X14170487Y-5226458D01*
X14122709Y-5322014D01*
X14076043Y-5369792D01*
X13980487Y-5416458D01*
X13599376Y-5416458D01*
X15189376Y-5797569D02*
X15141598Y-5845347D01*
X14999376Y-5893125D01*
X14903820Y-5893125D01*
X14760487Y-5845347D01*
X14666043Y-5749792D01*
X14618265Y-5655347D01*
X14570487Y-5464236D01*
X14570487Y-5322014D01*
X14618265Y-5130903D01*
X14666043Y-5036458D01*
X14760487Y-4940903D01*
X14903820Y-4893125D01*
X14999376Y-4893125D01*
X15141598Y-4940903D01*
X15189376Y-4988681D01*
X15922709Y-5369792D02*
X16066043Y-5416458D01*
X16112709Y-5464236D01*
X16160487Y-5559792D01*
X16160487Y-5703125D01*
X16112709Y-5797569D01*
X16066043Y-5845347D01*
X15970487Y-5893125D01*
X15589376Y-5893125D01*
X15589376Y-4893125D01*
X15922709Y-4893125D01*
X16018265Y-4940903D01*
X16066043Y-4988681D01*
X16112709Y-5083125D01*
X16112709Y-5178681D01*
X16066043Y-5274236D01*
X16018265Y-5322014D01*
X15922709Y-5369792D01*
X15589376Y-5369792D01*
D12*
G04 #@! TO.C,TP1*
X16625000Y-7620000D02*
G02*
X15125000Y-7620000I-750000J0D01*
G01*
G02*
X16625000Y-7620000I750000J0D01*
G01*
D10*
G04 #@! TO.C,S1*
X13503125Y14368125D02*
X11103125Y14368125D01*
X14503125Y9868125D02*
X15003125Y10368125D01*
X15003125Y12968125D01*
X14503125Y13468125D01*
X10103125Y13468125D02*
X9603125Y12968125D01*
X9603125Y10368125D01*
X10103125Y9868125D01*
X11103125Y8968125D02*
X13503125Y8968125D01*
G04 #@! TO.C,J1*
X-8075000Y-4175000D02*
X-8075000Y7650000D01*
X-8075000Y11350000D02*
X-8075000Y17075000D01*
X8075000Y17075000D01*
X8075000Y11350000D01*
X8075000Y-4175000D02*
X8075000Y7650000D01*
D12*
G04 #@! TO.C,TP2*
X16625000Y-9525000D02*
G02*
X15125000Y-9525000I-750000J0D01*
G01*
G02*
X16625000Y-9525000I750000J0D01*
G01*
D11*
G04 #@! TO.C,OSHW1*
G36*
X-4663460Y-11738260D02*
G03*
X-5020290Y-11738260I-178415J387635D01*
G01*
G02*
X-5010390Y-11763345I-8153J-17714D01*
G01*
X-5266216Y-12389902D01*
G02*
X-5291732Y-12400547I-18054J7371D01*
G01*
X-5430688Y-12342989D01*
G03*
X-5449078Y-12344854I-7462J-18017D01*
G01*
X-5754677Y-12551607D01*
G02*
X-5779393Y-12549245I-10927J16151D01*
G01*
X-6040495Y-12288143D01*
G02*
X-6042857Y-12263427I13789J13789D01*
G01*
X-5836104Y-11957828D01*
G03*
X-5834239Y-11939438I-16152J10928D01*
G01*
X-5959936Y-11635978D01*
G03*
X-5974258Y-11624294I-18015J-7463D01*
G01*
X-6336546Y-11554399D01*
G02*
X-6352352Y-11535252I3694J19147D01*
G01*
X-6352352Y-11165998D01*
G02*
X-6336546Y-11146851I19500J0D01*
G01*
X-5974258Y-11076956D01*
G03*
X-5959936Y-11065272I-3693J19147D01*
G01*
X-5834239Y-10761812D01*
G03*
X-5836104Y-10743422I-18017J7462D01*
G01*
X-6042857Y-10437823D01*
G02*
X-6040495Y-10413107I16151J10927D01*
G01*
X-5779393Y-10152005D01*
G02*
X-5754677Y-10149643I13789J-13789D01*
G01*
X-5449078Y-10356396D01*
G03*
X-5430688Y-10358261I10928J16152D01*
G01*
X-5127228Y-10232564D01*
G03*
X-5115544Y-10218242I-7463J18015D01*
G01*
X-5045649Y-9855954D01*
G02*
X-5026502Y-9840148I19147J-3694D01*
G01*
X-4657248Y-9840148D01*
G02*
X-4638101Y-9855954I0J-19500D01*
G01*
X-4568206Y-10218242D01*
G03*
X-4556522Y-10232564I19147J3693D01*
G01*
X-4253062Y-10358261D01*
G03*
X-4234672Y-10356396I7462J18017D01*
G01*
X-3929073Y-10149643D01*
G02*
X-3904357Y-10152005I10927J-16151D01*
G01*
X-3643255Y-10413107D01*
G02*
X-3640893Y-10437823I-13789J-13789D01*
G01*
X-3847646Y-10743422D01*
G03*
X-3849511Y-10761812I16152J-10928D01*
G01*
X-3723814Y-11065272D01*
G03*
X-3709492Y-11076956I18015J7463D01*
G01*
X-3347204Y-11146851D01*
G02*
X-3331398Y-11165998I-3694J-19147D01*
G01*
X-3331398Y-11535252D01*
G02*
X-3347204Y-11554399I-19500J0D01*
G01*
X-3709492Y-11624294D01*
G03*
X-3723814Y-11635978I3693J-19147D01*
G01*
X-3849511Y-11939438D01*
G03*
X-3847646Y-11957828I18017J-7462D01*
G01*
X-3640893Y-12263427D01*
G02*
X-3643255Y-12288143I-16151J-10927D01*
G01*
X-3904357Y-12549245D01*
G02*
X-3929073Y-12551607I-13789J13789D01*
G01*
X-4234672Y-12344854D01*
G03*
X-4253062Y-12342989I-10928J-16152D01*
G01*
X-4392018Y-12400547D01*
G02*
X-4417534Y-12389902I-7462J18016D01*
G01*
X-4673360Y-11763345D01*
G02*
X-4663460Y-11738260I18053J7371D01*
G01*
G37*
D10*
X-2429375Y-10623611D02*
X-2523819Y-10575833D01*
X-2571597Y-10528055D01*
X-2619375Y-10433611D01*
X-2619375Y-10146944D01*
X-2571597Y-10052500D01*
X-2523819Y-10004722D01*
X-2429375Y-9956944D01*
X-2286042Y-9956944D01*
X-2190486Y-10004722D01*
X-2142708Y-10052500D01*
X-2096042Y-10146944D01*
X-2096042Y-10433611D01*
X-2142708Y-10528055D01*
X-2190486Y-10575833D01*
X-2286042Y-10623611D01*
X-2429375Y-10623611D01*
X-1696042Y-9956944D02*
X-1696042Y-10956944D01*
X-1696042Y-10004722D02*
X-1600486Y-9956944D01*
X-1410486Y-9956944D01*
X-1314931Y-10004722D01*
X-1267153Y-10052500D01*
X-1219375Y-10146944D01*
X-1219375Y-10433611D01*
X-1267153Y-10528055D01*
X-1314931Y-10575833D01*
X-1410486Y-10623611D01*
X-1600486Y-10623611D01*
X-1696042Y-10575833D01*
X-390486Y-10575833D02*
X-486042Y-10623611D01*
X-676042Y-10623611D01*
X-771597Y-10575833D01*
X-819375Y-10480278D01*
X-819375Y-10100278D01*
X-771597Y-10004722D01*
X-676042Y-9956944D01*
X-486042Y-9956944D01*
X-390486Y-10004722D01*
X-342708Y-10100278D01*
X-342708Y-10194722D01*
X-819375Y-10290278D01*
X57292Y-9956944D02*
X57292Y-10623611D01*
X57292Y-10052500D02*
X105070Y-10004722D01*
X200625Y-9956944D01*
X342848Y-9956944D01*
X438403Y-10004722D01*
X486181Y-10100278D01*
X486181Y-10623611D01*
X1686180Y-10575833D02*
X1781736Y-10623611D01*
X1971736Y-10623611D01*
X2067291Y-10575833D01*
X2115069Y-10480278D01*
X2115069Y-10433611D01*
X2067291Y-10338055D01*
X1971736Y-10290278D01*
X1829513Y-10290278D01*
X1733958Y-10242500D01*
X1686180Y-10146944D01*
X1686180Y-10100278D01*
X1733958Y-10004722D01*
X1829513Y-9956944D01*
X1971736Y-9956944D01*
X2067291Y-10004722D01*
X2705069Y-10623611D02*
X2610625Y-10575833D01*
X2562847Y-10528055D01*
X2515069Y-10433611D01*
X2515069Y-10146944D01*
X2562847Y-10052500D01*
X2610625Y-10004722D01*
X2705069Y-9956944D01*
X2848402Y-9956944D01*
X2943958Y-10004722D01*
X2991736Y-10052500D01*
X3038402Y-10146944D01*
X3038402Y-10433611D01*
X2991736Y-10528055D01*
X2943958Y-10575833D01*
X2848402Y-10623611D01*
X2705069Y-10623611D01*
X3867291Y-9956944D02*
X3867291Y-10623611D01*
X3438402Y-9956944D02*
X3438402Y-10480278D01*
X3486180Y-10575833D01*
X3581735Y-10623611D01*
X3723958Y-10623611D01*
X3819513Y-10575833D01*
X3867291Y-10528055D01*
X4267291Y-10623611D02*
X4267291Y-9956944D01*
X4267291Y-10146944D02*
X4315069Y-10052500D01*
X4362847Y-10004722D01*
X4457291Y-9956944D01*
X4552847Y-9956944D01*
X5429514Y-10575833D02*
X5333958Y-10623611D01*
X5142847Y-10623611D01*
X5048403Y-10575833D01*
X5000625Y-10528055D01*
X4952847Y-10433611D01*
X4952847Y-10146944D01*
X5000625Y-10052500D01*
X5048403Y-10004722D01*
X5142847Y-9956944D01*
X5333958Y-9956944D01*
X5429514Y-10004722D01*
X6258403Y-10575833D02*
X6162847Y-10623611D01*
X5972847Y-10623611D01*
X5877292Y-10575833D01*
X5829514Y-10480278D01*
X5829514Y-10100278D01*
X5877292Y-10004722D01*
X5972847Y-9956944D01*
X6162847Y-9956944D01*
X6258403Y-10004722D01*
X6306181Y-10100278D01*
X6306181Y-10194722D01*
X5829514Y-10290278D01*
X-2619375Y-12601388D02*
X-2619375Y-11601388D01*
X-2190486Y-12601388D02*
X-2190486Y-12078055D01*
X-2238264Y-11982499D01*
X-2333819Y-11934721D01*
X-2476042Y-11934721D01*
X-2571597Y-11982499D01*
X-2619375Y-12030277D01*
X-1313819Y-12601388D02*
X-1313819Y-12078055D01*
X-1361597Y-11982499D01*
X-1457153Y-11934721D01*
X-1647153Y-11934721D01*
X-1742708Y-11982499D01*
X-1313819Y-12553610D02*
X-1409375Y-12601388D01*
X-1647153Y-12601388D01*
X-1742708Y-12553610D01*
X-1790486Y-12458055D01*
X-1790486Y-12363610D01*
X-1742708Y-12268055D01*
X-1647153Y-12220277D01*
X-1409375Y-12220277D01*
X-1313819Y-12172499D01*
X-913819Y-12601388D02*
X-913819Y-11934721D01*
X-913819Y-12124721D02*
X-866041Y-12030277D01*
X-818263Y-11982499D01*
X-723819Y-11934721D01*
X-628263Y-11934721D01*
X248404Y-12601388D02*
X248404Y-11601388D01*
X248404Y-12553610D02*
X152848Y-12601388D01*
X-38263Y-12601388D01*
X-132707Y-12553610D01*
X-180485Y-12505832D01*
X-228263Y-12411388D01*
X-228263Y-12124721D01*
X-180485Y-12030277D01*
X-132707Y-11982499D01*
X-38263Y-11934721D01*
X152848Y-11934721D01*
X248404Y-11982499D01*
X648404Y-11934721D02*
X838404Y-12601388D01*
X1029515Y-12124721D01*
X1219515Y-12601388D01*
X1410626Y-11934721D01*
X2287293Y-12601388D02*
X2287293Y-12078055D01*
X2239515Y-11982499D01*
X2143959Y-11934721D01*
X1953959Y-11934721D01*
X1858404Y-11982499D01*
X2287293Y-12553610D02*
X2191737Y-12601388D01*
X1953959Y-12601388D01*
X1858404Y-12553610D01*
X1810626Y-12458055D01*
X1810626Y-12363610D01*
X1858404Y-12268055D01*
X1953959Y-12220277D01*
X2191737Y-12220277D01*
X2287293Y-12172499D01*
X2687293Y-12601388D02*
X2687293Y-11934721D01*
X2687293Y-12124721D02*
X2735071Y-12030277D01*
X2782849Y-11982499D01*
X2877293Y-11934721D01*
X2972849Y-11934721D01*
X3801738Y-12553610D02*
X3706182Y-12601388D01*
X3516182Y-12601388D01*
X3420627Y-12553610D01*
X3372849Y-12458055D01*
X3372849Y-12078055D01*
X3420627Y-11982499D01*
X3516182Y-11934721D01*
X3706182Y-11934721D01*
X3801738Y-11982499D01*
X3849516Y-12078055D01*
X3849516Y-12172499D01*
X3372849Y-12268055D01*
G04 #@! TO.C,C17*
X-14358750Y6204375D02*
X-16258750Y6204375D01*
X-16258750Y11904375D01*
X-15158750Y13004375D01*
X-14358750Y13004375D01*
X-11358750Y6204375D02*
X-9458750Y6204375D01*
X-9458750Y11904375D01*
X-10558750Y13004375D01*
X-11358750Y13004375D01*
X-15398750Y11826875D02*
X-14128750Y11826875D01*
X-14763750Y12461875D02*
X-14763750Y11191875D01*
D13*
G04 #@! TD*
X-6647499Y-15910625D02*
X-6647499Y-14410625D01*
X-6647499Y-15838958D02*
X-6790832Y-15910625D01*
X-7077499Y-15910625D01*
X-7219166Y-15838958D01*
X-7290832Y-15767292D01*
X-7362499Y-15625625D01*
X-7362499Y-15195625D01*
X-7290832Y-15053958D01*
X-7219166Y-14982292D01*
X-7077499Y-14910625D01*
X-6790832Y-14910625D01*
X-6647499Y-14982292D01*
X-5740832Y-14410625D02*
X-5597499Y-14410625D01*
X-5454166Y-14482292D01*
X-5382499Y-14553958D01*
X-5312499Y-14695625D01*
X-5240832Y-14982292D01*
X-5240832Y-15338958D01*
X-5312499Y-15625625D01*
X-5382499Y-15767292D01*
X-5454166Y-15838958D01*
X-5597499Y-15910625D01*
X-5740832Y-15910625D01*
X-5882499Y-15838958D01*
X-5954166Y-15767292D01*
X-6025832Y-15625625D01*
X-6097499Y-15338958D01*
X-6097499Y-14982292D01*
X-6025832Y-14695625D01*
X-5954166Y-14553958D01*
X-5882499Y-14482292D01*
X-5740832Y-14410625D01*
X-4690832Y-15338958D02*
X-3547499Y-15338958D01*
X-2997499Y-15910625D02*
X-2997499Y-14910625D01*
X-2997499Y-15195625D02*
X-2925832Y-15053958D01*
X-2854166Y-14982292D01*
X-2712499Y-14910625D01*
X-2569166Y-14910625D01*
X-1375833Y-15838958D02*
X-1519166Y-15910625D01*
X-1804166Y-15910625D01*
X-1947499Y-15838958D01*
X-2019166Y-15695625D01*
X-2019166Y-15125625D01*
X-1947499Y-14982292D01*
X-1804166Y-14910625D01*
X-1519166Y-14910625D01*
X-1375833Y-14982292D01*
X-1304166Y-15125625D01*
X-1304166Y-15267292D01*
X-2019166Y-15410625D01*
X-39166Y-15910625D02*
X-39166Y-15125625D01*
X-110833Y-14982292D01*
X-254166Y-14910625D01*
X-539166Y-14910625D01*
X-682499Y-14982292D01*
X-39166Y-15838958D02*
X-182499Y-15910625D01*
X-539166Y-15910625D01*
X-682499Y-15838958D01*
X-754166Y-15695625D01*
X-754166Y-15553958D01*
X-682499Y-15410625D01*
X-539166Y-15338958D01*
X-182499Y-15338958D01*
X-39166Y-15267292D01*
X1225834Y-15910625D02*
X1225834Y-14410625D01*
X1225834Y-15838958D02*
X1082501Y-15910625D01*
X795834Y-15910625D01*
X654167Y-15838958D01*
X582501Y-15767292D01*
X510834Y-15625625D01*
X510834Y-15195625D01*
X582501Y-15053958D01*
X654167Y-14982292D01*
X795834Y-14910625D01*
X1082501Y-14910625D01*
X1225834Y-14982292D01*
X2419167Y-15838958D02*
X2275834Y-15910625D01*
X1990834Y-15910625D01*
X1847501Y-15838958D01*
X1775834Y-15695625D01*
X1775834Y-15125625D01*
X1847501Y-14982292D01*
X1990834Y-14910625D01*
X2275834Y-14910625D01*
X2419167Y-14982292D01*
X2490834Y-15125625D01*
X2490834Y-15267292D01*
X1775834Y-15410625D01*
X3040834Y-15910625D02*
X3040834Y-14910625D01*
X3040834Y-15195625D02*
X3112501Y-15053958D01*
X3184167Y-14982292D01*
X3325834Y-14910625D01*
X3469167Y-14910625D01*
X5169166Y-14910625D02*
X5525833Y-15910625D01*
X5884166Y-14910625D01*
X6505833Y-14553958D02*
X6577499Y-14482292D01*
X6719166Y-14410625D01*
X7077499Y-14410625D01*
X7219166Y-14482292D01*
X7290833Y-14553958D01*
X7362499Y-14695625D01*
X7362499Y-14838958D01*
X7290833Y-15053958D01*
X6434166Y-15910625D01*
X7362499Y-15910625D01*
D10*
X-7744887Y-5959931D02*
X-7744887Y-5009931D01*
X-7382831Y-5009931D01*
X-7292054Y-5055320D01*
X-7247720Y-5100709D01*
X-7202331Y-5190431D01*
X-7202331Y-5326598D01*
X-7247720Y-5417375D01*
X-7292054Y-5462764D01*
X-7382831Y-5507098D01*
X-7744887Y-5507098D01*
X-6586442Y-5009931D02*
X-6404887Y-5009931D01*
X-6315164Y-5055320D01*
X-6224387Y-5146098D01*
X-6178998Y-5326598D01*
X-6178998Y-5643264D01*
X-6224387Y-5823764D01*
X-6315164Y-5914542D01*
X-6404887Y-5959931D01*
X-6586442Y-5959931D01*
X-6676164Y-5914542D01*
X-6766942Y-5823764D01*
X-6812331Y-5643264D01*
X-6812331Y-5326598D01*
X-6766942Y-5146098D01*
X-6676164Y-5055320D01*
X-6586442Y-5009931D01*
X-5788998Y-5462764D02*
X-5472331Y-5462764D01*
X-5336165Y-5959931D02*
X-5788998Y-5959931D01*
X-5788998Y-5009931D01*
X-5336165Y-5009931D01*
X-3995666Y-5417375D02*
X-4085388Y-5371987D01*
X-4130777Y-5326598D01*
X-4176166Y-5235820D01*
X-4176166Y-5190431D01*
X-4130777Y-5100709D01*
X-4085388Y-5055320D01*
X-3995666Y-5009931D01*
X-3814110Y-5009931D01*
X-3723333Y-5055320D01*
X-3678999Y-5100709D01*
X-3633610Y-5190431D01*
X-3633610Y-5235820D01*
X-3678999Y-5326598D01*
X-3723333Y-5371987D01*
X-3814110Y-5417375D01*
X-3995666Y-5417375D01*
X-4085388Y-5462764D01*
X-4130777Y-5507098D01*
X-4176166Y-5597875D01*
X-4176166Y-5779431D01*
X-4130777Y-5869153D01*
X-4085388Y-5914542D01*
X-3995666Y-5959931D01*
X-3814110Y-5959931D01*
X-3723333Y-5914542D01*
X-3678999Y-5869153D01*
X-3633610Y-5779431D01*
X-3633610Y-5597875D01*
X-3678999Y-5507098D01*
X-3723333Y-5462764D01*
X-3814110Y-5417375D01*
X-3017721Y-5009931D02*
X-2926943Y-5009931D01*
X-2836166Y-5055320D01*
X-2790777Y-5100709D01*
X-2746443Y-5190431D01*
X-2701054Y-5371987D01*
X-2701054Y-5597875D01*
X-2746443Y-5779431D01*
X-2790777Y-5869153D01*
X-2836166Y-5914542D01*
X-2926943Y-5959931D01*
X-3017721Y-5959931D01*
X-3107443Y-5914542D01*
X-3152832Y-5869153D01*
X-3198221Y-5779431D01*
X-3243610Y-5597875D01*
X-3243610Y-5371987D01*
X-3198221Y-5190431D01*
X-3152832Y-5100709D01*
X-3107443Y-5055320D01*
X-3017721Y-5009931D01*
X-2265665Y-5100709D02*
X-2220276Y-5055320D01*
X-2130554Y-5009931D01*
X-1903610Y-5009931D01*
X-1813887Y-5055320D01*
X-1768498Y-5100709D01*
X-1723110Y-5190431D01*
X-1723110Y-5281209D01*
X-1768498Y-5417375D01*
X-2311054Y-5959931D01*
X-1723110Y-5959931D01*
X-1287721Y-5869153D02*
X-1242332Y-5914542D01*
X-1287721Y-5959931D01*
X-1333110Y-5914542D01*
X-1287721Y-5869153D01*
X-1287721Y-5959931D01*
X-852332Y-5009931D02*
X-264388Y-5009931D01*
X-581054Y-5371987D01*
X-444888Y-5371987D01*
X-355165Y-5417375D01*
X-309776Y-5462764D01*
X-264388Y-5552487D01*
X-264388Y-5779431D01*
X-309776Y-5869153D01*
X-355165Y-5914542D01*
X-444888Y-5959931D01*
X-716165Y-5959931D01*
X-806943Y-5914542D01*
X-852332Y-5869153D01*
X578445Y-5959931D02*
X578445Y-5462764D01*
X533056Y-5371987D01*
X442279Y-5326598D01*
X261779Y-5326598D01*
X171001Y-5371987D01*
X578445Y-5914542D02*
X487668Y-5959931D01*
X261779Y-5959931D01*
X171001Y-5914542D01*
X125612Y-5823764D01*
X125612Y-5734042D01*
X171001Y-5643264D01*
X261779Y-5597875D01*
X487668Y-5597875D01*
X578445Y-5552487D01*
X968445Y-5326598D02*
X1330501Y-5326598D01*
X1104612Y-5959931D02*
X1104612Y-5146098D01*
X1148945Y-5055320D01*
X1239723Y-5009931D01*
X1330501Y-5009931D01*
X3078444Y-5869153D02*
X3033056Y-5914542D01*
X2897944Y-5959931D01*
X2807167Y-5959931D01*
X2671000Y-5914542D01*
X2581278Y-5823764D01*
X2535889Y-5734042D01*
X2490500Y-5552487D01*
X2490500Y-5417375D01*
X2535889Y-5235820D01*
X2581278Y-5146098D01*
X2671000Y-5055320D01*
X2807167Y-5009931D01*
X2897944Y-5009931D01*
X3033056Y-5055320D01*
X3078444Y-5100709D01*
X3604611Y-5959931D02*
X3513833Y-5914542D01*
X3468444Y-5823764D01*
X3468444Y-5009931D01*
X4447444Y-5959931D02*
X4447444Y-5462764D01*
X4402055Y-5371987D01*
X4311278Y-5326598D01*
X4130778Y-5326598D01*
X4040000Y-5371987D01*
X4447444Y-5914542D02*
X4356667Y-5959931D01*
X4130778Y-5959931D01*
X4040000Y-5914542D01*
X3994611Y-5823764D01*
X3994611Y-5734042D01*
X4040000Y-5643264D01*
X4130778Y-5597875D01*
X4356667Y-5597875D01*
X4447444Y-5552487D01*
X4837444Y-5914542D02*
X4928222Y-5959931D01*
X5108722Y-5959931D01*
X5199500Y-5914542D01*
X5244888Y-5823764D01*
X5244888Y-5779431D01*
X5199500Y-5688653D01*
X5108722Y-5643264D01*
X4973611Y-5643264D01*
X4882833Y-5597875D01*
X4837444Y-5507098D01*
X4837444Y-5462764D01*
X4882833Y-5371987D01*
X4973611Y-5326598D01*
X5108722Y-5326598D01*
X5199500Y-5371987D01*
X5634888Y-5914542D02*
X5725666Y-5959931D01*
X5906166Y-5959931D01*
X5996944Y-5914542D01*
X6042332Y-5823764D01*
X6042332Y-5779431D01*
X5996944Y-5688653D01*
X5906166Y-5643264D01*
X5771055Y-5643264D01*
X5680277Y-5597875D01*
X5634888Y-5507098D01*
X5634888Y-5462764D01*
X5680277Y-5371987D01*
X5771055Y-5326598D01*
X5906166Y-5326598D01*
X5996944Y-5371987D01*
X7744887Y-5959931D02*
X7202331Y-5959931D01*
X7473609Y-5959931D02*
X7473609Y-5009931D01*
X7382831Y-5146098D01*
X7293109Y-5235820D01*
X7202331Y-5281209D01*
X-7339026Y-6898819D02*
X-7339026Y-7668319D01*
X-7293637Y-7758041D01*
X-7248248Y-7803430D01*
X-7158526Y-7848819D01*
X-6976970Y-7848819D01*
X-6886193Y-7803430D01*
X-6841859Y-7758041D01*
X-6796470Y-7668319D01*
X-6796470Y-6898819D01*
X-6406470Y-7803430D02*
X-6315692Y-7848819D01*
X-6135192Y-7848819D01*
X-6044414Y-7803430D01*
X-5999026Y-7712652D01*
X-5999026Y-7668319D01*
X-6044414Y-7577541D01*
X-6135192Y-7532152D01*
X-6270303Y-7532152D01*
X-6361081Y-7486763D01*
X-6406470Y-7395986D01*
X-6406470Y-7351652D01*
X-6361081Y-7260875D01*
X-6270303Y-7215486D01*
X-6135192Y-7215486D01*
X-6044414Y-7260875D01*
X-5201582Y-7803430D02*
X-5292359Y-7848819D01*
X-5472859Y-7848819D01*
X-5563637Y-7803430D01*
X-5609026Y-7712652D01*
X-5609026Y-7351652D01*
X-5563637Y-7260875D01*
X-5472859Y-7215486D01*
X-5292359Y-7215486D01*
X-5201582Y-7260875D01*
X-5156193Y-7351652D01*
X-5156193Y-7441375D01*
X-5609026Y-7532152D01*
X-3996194Y-7215486D02*
X-3634138Y-7215486D01*
X-3860027Y-7848819D02*
X-3860027Y-7034986D01*
X-3815694Y-6944208D01*
X-3724916Y-6898819D01*
X-3634138Y-6898819D01*
X-3107971Y-7848819D02*
X-3198749Y-7803430D01*
X-3244138Y-7712652D01*
X-3244138Y-6898819D01*
X-2310527Y-7803430D02*
X-2401304Y-7848819D01*
X-2581804Y-7848819D01*
X-2672582Y-7803430D01*
X-2717971Y-7712652D01*
X-2717971Y-7351652D01*
X-2672582Y-7260875D01*
X-2581804Y-7215486D01*
X-2401304Y-7215486D01*
X-2310527Y-7260875D01*
X-2265138Y-7351652D01*
X-2265138Y-7441375D01*
X-2717971Y-7532152D01*
X-1875138Y-7848819D02*
X-1377971Y-7215486D01*
X-1875138Y-7215486D02*
X-1377971Y-7848819D01*
X234861Y-7848819D02*
X-217972Y-7848819D01*
X-217972Y-6898819D01*
X715639Y-7577541D02*
X1167417Y-7577541D01*
X624861Y-7848819D02*
X941528Y-6898819D01*
X1258194Y-7848819D01*
X1648194Y-7848819D02*
X1648194Y-6898819D01*
X2190750Y-7848819D01*
X2190750Y-6898819D01*
X3803582Y-7803430D02*
X3712805Y-7848819D01*
X3531249Y-7848819D01*
X3441527Y-7803430D01*
X3396138Y-7758041D01*
X3350749Y-7668319D01*
X3350749Y-7395986D01*
X3396138Y-7306263D01*
X3441527Y-7260875D01*
X3531249Y-7215486D01*
X3712805Y-7215486D01*
X3803582Y-7260875D01*
X4646415Y-7848819D02*
X4646415Y-7351652D01*
X4601026Y-7260875D01*
X4510249Y-7215486D01*
X4329749Y-7215486D01*
X4238971Y-7260875D01*
X4646415Y-7803430D02*
X4555638Y-7848819D01*
X4329749Y-7848819D01*
X4238971Y-7803430D01*
X4193582Y-7712652D01*
X4193582Y-7622930D01*
X4238971Y-7532152D01*
X4329749Y-7486763D01*
X4555638Y-7486763D01*
X4646415Y-7441375D01*
X5036415Y-7848819D02*
X5036415Y-6898819D01*
X5036415Y-7260875D02*
X5127193Y-7215486D01*
X5307693Y-7215486D01*
X5398471Y-7260875D01*
X5443859Y-7306263D01*
X5489248Y-7395986D01*
X5489248Y-7668319D01*
X5443859Y-7758041D01*
X5398471Y-7803430D01*
X5307693Y-7848819D01*
X5127193Y-7848819D01*
X5036415Y-7803430D01*
X6015415Y-7848819D02*
X5924637Y-7803430D01*
X5879248Y-7712652D01*
X5879248Y-6898819D01*
X6812859Y-7803430D02*
X6722082Y-7848819D01*
X6541582Y-7848819D01*
X6450804Y-7803430D01*
X6405415Y-7712652D01*
X6405415Y-7351652D01*
X6450804Y-7260875D01*
X6541582Y-7215486D01*
X6722082Y-7215486D01*
X6812859Y-7260875D01*
X6858248Y-7351652D01*
X6858248Y-7441375D01*
X6405415Y-7532152D01*
X7293637Y-7758041D02*
X7339026Y-7803430D01*
X7293637Y-7848819D01*
X7248248Y-7803430D01*
X7293637Y-7758041D01*
X7293637Y-7848819D01*
X7293637Y-7486763D02*
X7248248Y-6944208D01*
X7293637Y-6898819D01*
X7339026Y-6944208D01*
X7293637Y-7486763D01*
X7293637Y-6898819D01*
D14*
G04 #@! TO.C,J2*
X14989889Y8442500D02*
X14989889Y7870944D01*
X14951667Y7757167D01*
X14875222Y7680722D01*
X14761444Y7642500D01*
X14685000Y7642500D01*
X15338111Y8366056D02*
X15376333Y8404278D01*
X15451889Y8442500D01*
X15643000Y8442500D01*
X15718556Y8404278D01*
X15756778Y8366056D01*
X15795000Y8290500D01*
X15795000Y8214056D01*
X15756778Y8099389D01*
X15299889Y7642500D01*
X15795000Y7642500D01*
G04 #@! TO.C,TP1*
X12419042Y-7223125D02*
X12875931Y-7223125D01*
X12647486Y-8023125D02*
X12647486Y-7223125D01*
X13185931Y-8023125D02*
X13185931Y-7223125D01*
X13490820Y-7223125D01*
X13567264Y-7261347D01*
X13604598Y-7299569D01*
X13642820Y-7375125D01*
X13642820Y-7489792D01*
X13604598Y-7566236D01*
X13567264Y-7604458D01*
X13490820Y-7641792D01*
X13185931Y-7641792D01*
X14409709Y-8023125D02*
X13952820Y-8023125D01*
X14181264Y-8023125D02*
X14181264Y-7223125D01*
X14104820Y-7337792D01*
X14029264Y-7413347D01*
X13952820Y-7451569D01*
G04 #@! TO.C,S1*
X15342486Y11309472D02*
X15457153Y11271250D01*
X15647375Y11271250D01*
X15723819Y11309472D01*
X15761153Y11347694D01*
X15799375Y11423250D01*
X15799375Y11499694D01*
X15761153Y11576139D01*
X15723819Y11614361D01*
X15647375Y11652583D01*
X15494486Y11689917D01*
X15418930Y11728139D01*
X15380708Y11766361D01*
X15342486Y11842806D01*
X15342486Y11919250D01*
X15380708Y11994806D01*
X15418930Y12033028D01*
X15494486Y12071250D01*
X15685597Y12071250D01*
X15799375Y12033028D01*
X16566264Y11271250D02*
X16109375Y11271250D01*
X16337819Y11271250D02*
X16337819Y12071250D01*
X16261375Y11956583D01*
X16185819Y11881028D01*
X16109375Y11842806D01*
D10*
G04 #@! TO.C,J1*
X-9543611Y-3175000D02*
X-9543611Y-3889444D01*
X-9591389Y-4031667D01*
X-9686944Y-4127222D01*
X-9829166Y-4175000D01*
X-9924722Y-4175000D01*
X-8572500Y-4175000D02*
X-9143611Y-4175000D01*
X-8858055Y-4175000D02*
X-8858055Y-3175000D01*
X-8953611Y-3318333D01*
X-9048055Y-3412778D01*
X-9143611Y-3460556D01*
D14*
G04 #@! TO.C,TP2*
X12399931Y-9048750D02*
X12856820Y-9048750D01*
X12628375Y-9848750D02*
X12628375Y-9048750D01*
X13166820Y-9848750D02*
X13166820Y-9048750D01*
X13471709Y-9048750D01*
X13548153Y-9086972D01*
X13585487Y-9125194D01*
X13623709Y-9200750D01*
X13623709Y-9315417D01*
X13585487Y-9391861D01*
X13548153Y-9430083D01*
X13471709Y-9467417D01*
X13166820Y-9467417D01*
X13971931Y-9125194D02*
X14010153Y-9086972D01*
X14085709Y-9048750D01*
X14276820Y-9048750D01*
X14352376Y-9086972D01*
X14390598Y-9125194D01*
X14428820Y-9200750D01*
X14428820Y-9277194D01*
X14390598Y-9391861D01*
X13933709Y-9848750D01*
X14428820Y-9848750D01*
D10*
G04 #@! TO.C,C17*
X-13568194Y14779931D02*
X-13615972Y14732153D01*
X-13758194Y14684375D01*
X-13853750Y14684375D01*
X-13997083Y14732153D01*
X-14091527Y14827708D01*
X-14139305Y14922153D01*
X-14187083Y15113264D01*
X-14187083Y15255486D01*
X-14139305Y15446597D01*
X-14091527Y15541042D01*
X-13997083Y15636597D01*
X-13853750Y15684375D01*
X-13758194Y15684375D01*
X-13615972Y15636597D01*
X-13568194Y15588819D01*
X-12597083Y14684375D02*
X-13168194Y14684375D01*
X-12882638Y14684375D02*
X-12882638Y15684375D01*
X-12978194Y15541042D01*
X-13072638Y15446597D01*
X-13168194Y15398819D01*
X-12197083Y15684375D02*
X-11530416Y15684375D01*
X-11959305Y14684375D01*
D14*
G04 #@! TO.C,J2*
X11193570Y7715097D02*
X11308237Y7676875D01*
X11498459Y7676875D01*
X11574903Y7715097D01*
X11612237Y7753319D01*
X11650459Y7828875D01*
X11650459Y7905319D01*
X11612237Y7981764D01*
X11574903Y8019986D01*
X11498459Y8058208D01*
X11345570Y8095542D01*
X11270014Y8133764D01*
X11231792Y8171986D01*
X11193570Y8248431D01*
X11193570Y8324875D01*
X11231792Y8400431D01*
X11270014Y8438653D01*
X11345570Y8476875D01*
X11536681Y8476875D01*
X11650459Y8438653D01*
X11960459Y8476875D02*
X12150681Y7676875D01*
X12303570Y8248431D01*
X12455570Y7676875D01*
X12645792Y8476875D01*
X12955792Y7676875D02*
X12955792Y8476875D01*
X13146014Y8476875D01*
X13260681Y8438653D01*
X13337125Y8362208D01*
X13374459Y8286653D01*
X13412681Y8133764D01*
X13412681Y8019986D01*
X13374459Y7867097D01*
X13337125Y7791542D01*
X13260681Y7715097D01*
X13146014Y7676875D01*
X12955792Y7676875D01*
D10*
G04 #@! TO.C,S1*
X11708625Y14849750D02*
X11665625Y14806750D01*
X11537625Y14763750D01*
X11451625Y14763750D01*
X11322625Y14806750D01*
X11237625Y14892750D01*
X11194625Y14977750D01*
X11151625Y15149750D01*
X11151625Y15277750D01*
X11194625Y15449750D01*
X11237625Y15534750D01*
X11322625Y15620750D01*
X11451625Y15663750D01*
X11537625Y15663750D01*
X11665625Y15620750D01*
X11708625Y15577750D01*
X12388625Y15234750D02*
X12088625Y15234750D01*
X12088625Y14763750D02*
X12088625Y15663750D01*
X12517625Y15663750D01*
X13411625Y15620750D02*
X13326625Y15663750D01*
X13197625Y15663750D01*
X13068625Y15620750D01*
X12983625Y15534750D01*
X12940625Y15449750D01*
X12897625Y15277750D01*
X12897625Y15149750D01*
X12940625Y14977750D01*
X12983625Y14892750D01*
X13068625Y14806750D01*
X13197625Y14763750D01*
X13283625Y14763750D01*
X13411625Y14806750D01*
X13454625Y14849750D01*
X13454625Y15149750D01*
X13283625Y15149750D01*
%LPC*%
D15*
G04 #@! TO.C,J2*
X15381250Y4127500D03*
X10971250Y4127500D03*
X10971250Y1587500D03*
X10971250Y5397500D03*
X15381250Y1587500D03*
X15381250Y2857500D03*
X10971250Y2857500D03*
X10971250Y6667500D03*
X15381250Y6667500D03*
X15381250Y5397500D03*
D16*
G04 #@! TO.C,TP1*
X15875000Y-7620000D03*
D17*
G04 #@! TO.C,S1*
X14153125Y8668125D03*
X10453125Y14668125D03*
X14153125Y14668125D03*
X10453125Y8668125D03*
D18*
G04 #@! TO.C,J1*
X635000Y12825000D03*
X-6725000Y3935000D03*
D19*
X-7875000Y9525000D03*
D18*
X-1905000Y12825000D03*
X-5715000Y15365000D03*
D19*
X7875000Y9525000D03*
D18*
X4445000Y15365000D03*
X-6725000Y1905000D03*
X-4445000Y12825000D03*
X5715000Y12825000D03*
X6725000Y3935000D03*
X6725000Y1905000D03*
X-635000Y15365000D03*
X-3175000Y15365000D03*
D20*
G04 #@! TD*
X5715000Y6475000D03*
X-5715000Y6475000D03*
D16*
G04 #@! TO.C,TP2*
X15875000Y-9525000D03*
D21*
G04 #@! TO.C,C17*
X-12858750Y6904375D03*
X-12858750Y12304375D03*
G04 --- BOARD END --- *
G04 #@! TF.MD5,ef2e851fed4371440072bd388cb0608b*
M02*
