G04 --- HEADER BEGIN --- *
G04 #@! TF.GenerationSoftware,LibrePCB,LibrePCB,1.0.1-unstable*
G04 #@! TF.CreationDate,2024-02-11T18:20:56*
G04 #@! TF.ProjectId,d0-reader,9220702f-a48e-4216-8865-87f6ea8ca353,v2*
G04 #@! TF.Part,Single*
G04 #@! TF.SameCoordinates*
G04 #@! TF.FileFunction,Soldermask,Bot*
G04 #@! TF.FilePolarity,Negative*
%FSLAX66Y66*%
%MOMM*%
G01*
G75*
G04 --- HEADER END --- *
G04 --- APERTURE LIST BEGIN --- *
%AMROUNDEDRECT10*20,1,0.95,-0.4,0.0,0.4,0.0,0.0*20,1,0.75,-0.5,0.0,0.5,0.0,0.0*1,1,0.2,-0.4,0.375*1,1,0.2,0.4,0.375*1,1,0.2,0.4,-0.375*1,1,0.2,-0.4,-0.375*%
%ADD10ROUNDEDRECT10*%
%AMROUNDEDRECT11*20,1,1.0,-0.425,0.0,0.425,0.0,0.0*20,1,0.8,-0.525,0.0,0.525,0.0,0.0*1,1,0.2,-0.425,0.4*1,1,0.2,0.425,0.4*1,1,0.2,0.425,-0.4*1,1,0.2,-0.425,-0.4*%
%ADD11ROUNDEDRECT11*%
%AMROUNDEDRECT12*20,1,1.2,-0.3,0.0,0.3,0.0,0.0*20,1,0.5,-0.65,0.0,0.65,0.0,0.0*1,1,0.7,-0.3,0.25*1,1,0.7,0.3,0.25*1,1,0.7,0.3,-0.25*1,1,0.7,-0.3,-0.25*%
%ADD12ROUNDEDRECT12*%
%AMROUNDEDRECT13*20,1,1.0,-0.425,0.0,0.425,0.0,90.0*20,1,0.8,-0.525,0.0,0.525,0.0,90.0*1,1,0.2,-0.4,-0.425*1,1,0.2,-0.4,0.425*1,1,0.2,0.4,0.425*1,1,0.2,0.4,-0.425*%
%ADD13ROUNDEDRECT13*%
%AMROUNDEDRECT14*20,1,0.95,-0.4,0.0,0.4,0.0,90.0*20,1,0.75,-0.5,0.0,0.5,0.0,90.0*1,1,0.2,-0.375,-0.4*1,1,0.2,-0.375,0.4*1,1,0.2,0.375,0.4*1,1,0.2,0.375,-0.4*%
%ADD14ROUNDEDRECT14*%
%AMROUNDEDRECT15*20,1,1.25,-0.8,0.0,0.8,0.0,90.0*20,1,1.05,-0.9,0.0,0.9,0.0,90.0*1,1,0.2,-0.525,-0.8*1,1,0.2,-0.525,0.8*1,1,0.2,0.525,0.8*1,1,0.2,0.525,-0.8*%
%ADD15ROUNDEDRECT15*%
%AMROUNDEDRECT16*20,1,1.0,-0.4,0.0,0.4,0.0,0.0*20,1,0.8,-0.5,0.0,0.5,0.0,0.0*1,1,0.2,-0.4,0.4*1,1,0.2,0.4,0.4*1,1,0.2,0.4,-0.4*1,1,0.2,-0.4,-0.4*%
%ADD16ROUNDEDRECT16*%
%AMOUTLINE17*4,1,22,-0.247251,-0.272493,-0.323181,-0.255163,-0.363279,-0.235853,-0.42417,-0.187294,-0.451918,-0.152498,-0.485709,-0.082328,-0.495612,-0.038941,-0.495612,0.038941,-0.485709,0.082328,-0.451918,0.152498,-0.42417,0.187294,-0.363279,0.235853,-0.323181,0.255163,-0.247251,0.272493,-0.225,0.275,0.4,0.275,0.459327,0.2555,0.5,0.175,0.5,-0.175,0.4805,-0.234327,0.4,-0.275,-0.225,-0.275,-0.247251,-0.272493,90.0*%
%ADD17OUTLINE17*%
%AMOUTLINE18*4,1,22,-0.247251,-0.272493,-0.323181,-0.255163,-0.363279,-0.235853,-0.42417,-0.187294,-0.451918,-0.152498,-0.485709,-0.082328,-0.495612,-0.038941,-0.495612,0.038941,-0.485709,0.082328,-0.451918,0.152498,-0.42417,0.187294,-0.363279,0.235853,-0.323181,0.255163,-0.247251,0.272493,-0.225,0.275,0.4,0.275,0.459327,0.2555,0.5,0.175,0.5,-0.175,0.4805,-0.234327,0.4,-0.275,-0.225,-0.275,-0.247251,-0.272493,0.0*%
%ADD18OUTLINE18*%
%AMOUTLINE19*4,1,22,-0.247251,-0.272493,-0.323181,-0.255163,-0.363279,-0.235853,-0.42417,-0.187294,-0.451918,-0.152498,-0.485709,-0.082328,-0.495612,-0.038941,-0.495612,0.038941,-0.485709,0.082328,-0.451918,0.152498,-0.42417,0.187294,-0.363279,0.235853,-0.323181,0.255163,-0.247251,0.272493,-0.225,0.275,0.4,0.275,0.459327,0.2555,0.5,0.175,0.5,-0.175,0.4805,-0.234327,0.4,-0.275,-0.225,-0.275,-0.247251,-0.272493,180.0*%
%ADD19OUTLINE19*%
%AMOUTLINE20*4,1,22,-0.247251,-0.272493,-0.323181,-0.255163,-0.363279,-0.235853,-0.42417,-0.187294,-0.451918,-0.152498,-0.485709,-0.082328,-0.495612,-0.038941,-0.495612,0.038941,-0.485709,0.082328,-0.451918,0.152498,-0.42417,0.187294,-0.363279,0.235853,-0.323181,0.255163,-0.247251,0.272493,-0.225,0.275,0.4,0.275,0.459327,0.2555,0.5,0.175,0.5,-0.175,0.4805,-0.234327,0.4,-0.275,-0.225,-0.275,-0.247251,-0.272493,270.0*%
%ADD20OUTLINE20*%
%AMROUNDEDRECT21*20,1,2.49,-1.145,0.0,1.145,0.0,0.0*20,1,2.29,-1.245,0.0,1.245,0.0,0.0*1,1,0.2,-1.145,1.145*1,1,0.2,1.145,1.145*1,1,0.2,1.145,-1.145*1,1,0.2,-1.145,-1.145*%
%ADD21ROUNDEDRECT21*%
%AMROUNDEDRECT22*20,1,0.4,-0.45,0.0,0.45,0.0,0.0*20,1,0.1,-0.6,0.0,0.6,0.0,0.0*1,1,0.3,-0.45,0.05*1,1,0.3,0.45,0.05*1,1,0.3,0.45,-0.05*1,1,0.3,-0.45,-0.05*%
%ADD22ROUNDEDRECT22*%
%AMROUNDEDRECT23*20,1,0.4,-0.45,0.0,0.45,0.0,90.0*20,1,0.1,-0.6,0.0,0.6,0.0,90.0*1,1,0.3,-0.05,-0.45*1,1,0.3,-0.05,0.45*1,1,0.3,0.05,0.45*1,1,0.3,0.05,-0.45*%
%ADD23ROUNDEDRECT23*%
%AMROUNDEDRECT24*20,1,1.3,-0.65,0.0,0.65,0.0,90.0*20,1,1.1,-0.75,0.0,0.75,0.0,90.0*1,1,0.2,-0.55,-0.65*1,1,0.2,-0.55,0.65*1,1,0.2,0.55,0.65*1,1,0.2,0.55,-0.65*%
%ADD24ROUNDEDRECT24*%
%AMROUNDEDRECT25*20,1,1.15,-0.625,0.0,0.625,0.0,0.0*20,1,0.95,-0.725,0.0,0.725,0.0,0.0*1,1,0.2,-0.625,0.475*1,1,0.2,0.625,0.475*1,1,0.2,0.625,-0.475*1,1,0.2,-0.625,-0.475*%
%ADD25ROUNDEDRECT25*%
%ADD26C,1.8*%
%ADD27C,2.7*%
%ADD28C,3.2*%
%AMROUNDEDRECT29*20,1,1.3,-1.7,0.0,1.7,0.0,0.0*20,1,1.1,-1.8,0.0,1.8,0.0,0.0*1,1,0.2,-1.7,0.55*1,1,0.2,1.7,0.55*1,1,0.2,1.7,-0.55*1,1,0.2,-1.7,-0.55*%
%ADD29ROUNDEDRECT29*%
%AMOUTLINE30*4,1,20,-0.230881,-0.236593,-0.300881,-0.217837,-0.345711,-0.191955,-0.396955,-0.140711,-0.422837,-0.095881,-0.441593,-0.025881,-0.441593,0.025881,-0.422837,0.095881,-0.396955,0.140711,-0.345711,0.191955,-0.300881,0.217837,-0.230881,0.236593,-0.205,0.24,0.345,0.24,0.404327,0.2205,0.445,0.14,0.445,-0.14,0.4255,-0.199327,0.345,-0.24,-0.205,-0.24,-0.230881,-0.236593,0.0*%
%ADD30OUTLINE30*%
%AMOUTLINE31*4,1,20,-0.230881,-0.236593,-0.300881,-0.217837,-0.345711,-0.191955,-0.396955,-0.140711,-0.422837,-0.095881,-0.441593,-0.025881,-0.441593,0.025881,-0.422837,0.095881,-0.396955,0.140711,-0.345711,0.191955,-0.300881,0.217837,-0.230881,0.236593,-0.205,0.24,0.345,0.24,0.404327,0.2205,0.445,0.14,0.445,-0.14,0.4255,-0.199327,0.345,-0.24,-0.205,-0.24,-0.230881,-0.236593,90.0*%
%ADD31OUTLINE31*%
%AMOUTLINE32*4,1,20,-0.230881,-0.236593,-0.300881,-0.217837,-0.345711,-0.191955,-0.396955,-0.140711,-0.422837,-0.095881,-0.441593,-0.025881,-0.441593,0.025881,-0.422837,0.095881,-0.396955,0.140711,-0.345711,0.191955,-0.300881,0.217837,-0.230881,0.236593,-0.205,0.24,0.345,0.24,0.404327,0.2205,0.445,0.14,0.445,-0.14,0.4255,-0.199327,0.345,-0.24,-0.205,-0.24,-0.230881,-0.236593,270.0*%
%ADD32OUTLINE32*%
%AMOUTLINE33*4,1,20,-0.230881,-0.236593,-0.300881,-0.217837,-0.345711,-0.191955,-0.396955,-0.140711,-0.422837,-0.095881,-0.441593,-0.025881,-0.441593,0.025881,-0.422837,0.095881,-0.396955,0.140711,-0.345711,0.191955,-0.300881,0.217837,-0.230881,0.236593,-0.205,0.24,0.345,0.24,0.404327,0.2205,0.445,0.14,0.445,-0.14,0.4255,-0.199327,0.345,-0.24,-0.205,-0.24,-0.230881,-0.236593,180.0*%
%ADD33OUTLINE33*%
%AMROUNDEDRECT34*20,1,2.7,-1.25,0.0,1.25,0.0,0.0*20,1,2.5,-1.35,0.0,1.35,0.0,0.0*1,1,0.2,-1.25,1.25*1,1,0.2,1.25,1.25*1,1,0.2,1.25,-1.25*1,1,0.2,-1.25,-1.25*%
%ADD34ROUNDEDRECT34*%
%AMROUNDEDRECT35*20,1,1.25,-0.8,0.0,0.8,0.0,0.0*20,1,1.05,-0.9,0.0,0.9,0.0,0.0*1,1,0.2,-0.8,0.525*1,1,0.2,0.8,0.525*1,1,0.2,0.8,-0.525*1,1,0.2,-0.8,-0.525*%
%ADD35ROUNDEDRECT35*%
G04 --- APERTURE LIST END --- *
G04 --- BOARD BEGIN --- *
D10*
G04 #@! TO.C,R18*
X238125Y-14703125D03*
X238125Y-16253125D03*
D11*
G04 #@! TO.C,C11*
X-2767500Y-5953125D03*
X-4217500Y-5953125D03*
D10*
G04 #@! TO.C,R7*
X-12858750Y-4940000D03*
X-12858750Y-6490000D03*
D11*
G04 #@! TO.C,C9*
X-2767500Y-3571875D03*
X-4217500Y-3571875D03*
D12*
G04 #@! TO.C,T1*
X1550000Y0D03*
X4950000Y0D03*
D13*
G04 #@! TO.C,C23*
X-16906875Y8561875D03*
X-16906875Y10011875D03*
D14*
G04 #@! TO.C,R17*
X-2717500Y-15478125D03*
X-4267500Y-15478125D03*
G04 #@! TO.C,R19*
X2003125Y-16192500D03*
X3553125Y-16192500D03*
D11*
G04 #@! TO.C,C7*
X9297500Y-15398750D03*
X7847500Y-15398750D03*
G04 #@! TO.C,C13*
X-15250625Y-12779375D03*
X-13800625Y-12779375D03*
G04 #@! TO.C,C8*
X-2767500Y-2381250D03*
X-4217500Y-2381250D03*
D15*
G04 #@! TO.C,C21*
X-11585000Y238125D03*
X-8735000Y238125D03*
D14*
G04 #@! TO.C,R21*
X3950000Y4524375D03*
X2400000Y4524375D03*
G04 #@! TO.C,R10*
X-2717500Y-7143750D03*
X-4267500Y-7143750D03*
D16*
G04 #@! TO.C,L1*
X-15240000Y-4965000D03*
X-15240000Y-6465000D03*
D15*
G04 #@! TO.C,C20*
X-11585000Y2381250D03*
X-8735000Y2381250D03*
D17*
G04 #@! TO.C,U4*
X-11896875Y10035000D03*
D18*
X-10681875Y8820000D03*
D19*
X-15511875Y8020000D03*
X-15511875Y6420000D03*
D17*
X-13496875Y10035000D03*
D20*
X-12696875Y5205000D03*
D18*
X-10681875Y8020000D03*
X-10681875Y6420000D03*
D20*
X-14296875Y5205000D03*
D19*
X-15511875Y8820000D03*
X-15511875Y7220000D03*
D20*
X-13496875Y5205000D03*
D17*
X-14296875Y10035000D03*
D20*
X-11896875Y5205000D03*
D17*
X-12696875Y10035000D03*
D18*
X-10681875Y7220000D03*
D21*
X-13096875Y7620000D03*
D14*
G04 #@! TO.C,R22*
X-11173125Y4048125D03*
X-9623125Y4048125D03*
D11*
G04 #@! TO.C,C2*
X6678125Y-15398750D03*
X5228125Y-15398750D03*
D22*
G04 #@! TO.C,U3*
X2208125Y-7163750D03*
D23*
X8608125Y-14063750D03*
D22*
X13508125Y-6663750D03*
X13508125Y-8663750D03*
X2208125Y-8663750D03*
X2208125Y-11663750D03*
D23*
X7608125Y-2763750D03*
X9608125Y-2763750D03*
X4108125Y-2763750D03*
X9608125Y-14063750D03*
D22*
X13508125Y-11163750D03*
X2208125Y-5663750D03*
X13508125Y-12163750D03*
X13508125Y-10663750D03*
D23*
X4108125Y-14063750D03*
D22*
X2208125Y-5163750D03*
X2208125Y-6663750D03*
D23*
X6608125Y-14063750D03*
D22*
X13508125Y-9663750D03*
X2208125Y-9163750D03*
X13508125Y-9163750D03*
X2208125Y-10163750D03*
X13508125Y-4663750D03*
D23*
X9108125Y-14063750D03*
X11108125Y-2763750D03*
X6108125Y-14063750D03*
X8108125Y-2763750D03*
D22*
X2208125Y-8163750D03*
D23*
X10608125Y-14063750D03*
D22*
X2208125Y-4663750D03*
D23*
X7108125Y-2763750D03*
D22*
X13508125Y-5663750D03*
X2208125Y-12163750D03*
D23*
X4608125Y-14063750D03*
X7608125Y-14063750D03*
X9108125Y-2763750D03*
X6108125Y-2763750D03*
D22*
X13508125Y-6163750D03*
D23*
X8608125Y-2763750D03*
D22*
X13508125Y-5163750D03*
X2208125Y-6163750D03*
X2208125Y-7663750D03*
D23*
X11108125Y-14063750D03*
X11608125Y-14063750D03*
X10108125Y-2763750D03*
X5108125Y-2763750D03*
X4608125Y-2763750D03*
X5108125Y-14063750D03*
X10108125Y-14063750D03*
D22*
X13508125Y-10163750D03*
D23*
X5608125Y-14063750D03*
X7108125Y-14063750D03*
D22*
X13508125Y-11663750D03*
D23*
X6608125Y-2763750D03*
D22*
X13508125Y-8163750D03*
D23*
X10608125Y-2763750D03*
D22*
X2208125Y-11163750D03*
X2208125Y-10663750D03*
X13508125Y-7163750D03*
X13508125Y-7663750D03*
X2208125Y-9663750D03*
D23*
X11608125Y-2763750D03*
X8108125Y-14063750D03*
X5608125Y-2763750D03*
D24*
G04 #@! TO.C,Y1*
X-5876250Y-6706250D03*
X-7776250Y-6706250D03*
X-7776250Y-4406250D03*
X-5876250Y-4406250D03*
D13*
G04 #@! TO.C,C6*
X793750Y-12234375D03*
X793750Y-10784375D03*
D14*
G04 #@! TO.C,R11*
X-4267500Y-8334375D03*
X-2717500Y-8334375D03*
D13*
G04 #@! TO.C,C14*
X-11668125Y-4990000D03*
X-11668125Y-6440000D03*
D14*
G04 #@! TO.C,R1*
X3950000Y3333750D03*
X2400000Y3333750D03*
G04 #@! TO.C,R2*
X3950000Y2143125D03*
X2400000Y2143125D03*
D25*
G04 #@! TO.C,C19*
X-9525000Y13019375D03*
X-9525000Y11269375D03*
D14*
G04 #@! TO.C,R20*
X-3632500Y3333750D03*
X-2082500Y3333750D03*
D13*
G04 #@! TO.C,C1*
X-396875Y-12234375D03*
X-396875Y-10784375D03*
D26*
G04 #@! TO.C,J1*
X635000Y12825000D03*
X-6725000Y3935000D03*
D27*
X-7875000Y9525000D03*
D26*
X-1905000Y12825000D03*
X-5715000Y15365000D03*
D27*
X7875000Y9525000D03*
D26*
X4445000Y15365000D03*
X-6725000Y1905000D03*
X-4445000Y12825000D03*
X5715000Y12825000D03*
X6725000Y3935000D03*
X6725000Y1905000D03*
X-635000Y15365000D03*
X-3175000Y15365000D03*
D28*
G04 #@! TD*
X5715000Y6475000D03*
X-5715000Y6475000D03*
D14*
G04 #@! TO.C,R16*
X-2717500Y-14287500D03*
X-4267500Y-14287500D03*
D29*
G04 #@! TO.C,L2*
X-14684375Y-1738125D03*
X-14684375Y1261875D03*
D14*
G04 #@! TO.C,R14*
X-4267500Y-11906250D03*
X-2717500Y-11906250D03*
D10*
G04 #@! TO.C,R23*
X-16748125Y3114375D03*
X-16748125Y4664375D03*
D15*
G04 #@! TO.C,C22*
X-11585000Y-1905000D03*
X-8735000Y-1905000D03*
G04 #@! TO.C,LED1*
X-1825000Y0D03*
X-4675000Y0D03*
D10*
G04 #@! TO.C,R8*
X-10477500Y-6490000D03*
X-10477500Y-4940000D03*
D11*
G04 #@! TO.C,C10*
X-2767500Y-4762500D03*
X-4217500Y-4762500D03*
G04 #@! TO.C,C4*
X10466875Y-1428750D03*
X11916875Y-1428750D03*
D13*
G04 #@! TO.C,C3*
X14763750Y-11181250D03*
X14763750Y-12631250D03*
D30*
G04 #@! TO.C,U1*
X-7880625Y-11489375D03*
D31*
X-10513125Y-8356875D03*
X-8513125Y-8356875D03*
D32*
X-10513125Y-12122375D03*
X-8513125Y-12122375D03*
D33*
X-11646125Y-11489375D03*
X-11646125Y-9989375D03*
D31*
X-9013125Y-8356875D03*
D33*
X-11646125Y-8989375D03*
D32*
X-11013125Y-12122375D03*
X-10013125Y-12122375D03*
D30*
X-7880625Y-9989375D03*
X-7880625Y-8989375D03*
D33*
X-11646125Y-10989375D03*
D32*
X-9513125Y-12122375D03*
D31*
X-11013125Y-8356875D03*
D33*
X-11646125Y-10489375D03*
D31*
X-9513125Y-8356875D03*
X-10013125Y-8356875D03*
D32*
X-9013125Y-12122375D03*
D33*
X-11646125Y-9489375D03*
D34*
X-9763125Y-10239375D03*
D30*
X-7880625Y-10489375D03*
X-7880625Y-9489375D03*
X-7880625Y-10989375D03*
D14*
G04 #@! TO.C,R3*
X-15300625Y-11588750D03*
X-13750625Y-11588750D03*
G04 #@! TO.C,R13*
X-2717500Y-10715625D03*
X-4267500Y-10715625D03*
G04 #@! TO.C,R12*
X-4267500Y-9525000D03*
X-2717500Y-9525000D03*
D13*
G04 #@! TO.C,C5*
X793750Y-4693750D03*
X793750Y-3243750D03*
G04 #@! TO.C,C15*
X-14049375Y-4990000D03*
X-14049375Y-6440000D03*
D10*
G04 #@! TO.C,R9*
X-9286875Y-4940000D03*
X-9286875Y-6490000D03*
D14*
G04 #@! TO.C,R5*
X-15300625Y-9207500D03*
X-13750625Y-9207500D03*
D13*
G04 #@! TO.C,C12*
X-6032500Y-8958750D03*
X-6032500Y-10408750D03*
D14*
G04 #@! TO.C,R6*
X-15300625Y-8016875D03*
X-13750625Y-8016875D03*
D10*
G04 #@! TO.C,R24*
X-16906875Y5971875D03*
X-16906875Y7521875D03*
D35*
G04 #@! TO.C,C18*
X-7540625Y11671875D03*
X-7540625Y14521875D03*
D14*
G04 #@! TO.C,R15*
X-4267500Y-13096875D03*
X-2717500Y-13096875D03*
G04 #@! TO.C,R4*
X-15300625Y-10398125D03*
X-13750625Y-10398125D03*
D11*
G04 #@! TO.C,C16*
X2550625Y15398750D03*
X1100625Y15398750D03*
G04 --- BOARD END --- *
G04 #@! TF.MD5,10fea7151d4f766a41ed92aa5fc3234c*
M02*
