G04 --- HEADER BEGIN --- *
G04 #@! TF.GenerationSoftware,LibrePCB,LibrePCB,1.0.1-unstable*
G04 #@! TF.CreationDate,2024-02-11T18:20:56*
G04 #@! TF.ProjectId,d0-reader,9220702f-a48e-4216-8865-87f6ea8ca353,v2*
G04 #@! TF.Part,Single*
G04 #@! TF.SameCoordinates*
G04 #@! TF.FileFunction,Copper,L1,Top*
G04 #@! TF.FilePolarity,Positive*
%FSLAX66Y66*%
%MOMM*%
G01*
G75*
G04 --- HEADER END --- *
G04 --- APERTURE LIST BEGIN --- *
G04 #@! TA.AperFunction,SMDPad,CuDef*
%AMROUNDEDRECT10*20,1,0.76,-1.26,0.0,1.26,0.0,0.0*20,1,0.38,-1.45,0.0,1.45,0.0,0.0*1,1,0.38,-1.26,0.19*1,1,0.38,1.26,0.19*1,1,0.38,1.26,-0.19*1,1,0.38,-1.26,-0.19*%
%ADD10ROUNDEDRECT10*%
G04 #@! TA.AperFunction,TestPad*
%ADD11C,1.0*%
G04 #@! TA.AperFunction,SMDPad,CuDef*
%AMROUNDEDRECT12*20,1,0.7,-0.325,0.0,0.325,0.0,90.0*20,1,0.35,-0.5,0.0,0.5,0.0,90.0*1,1,0.35,-0.175,-0.325*1,1,0.35,-0.175,0.325*1,1,0.35,0.175,0.325*1,1,0.35,0.175,-0.325*%
%ADD12ROUNDEDRECT12*%
G04 #@! TA.AperFunction,ComponentPad*
%ADD13C,1.6*%
%ADD14C,2.5*%
G04 #@! TA.AperFunction,SMDPad,CuDef*
%ADD15R,1.8X3.6*%
G04 #@! TA.AperFunction,ViaPad*
%ADD16C,0.7*%
G04 #@! TA.AperFunction,Conductor*
%ADD17C,0.2*%
%ADD18C,0.5*%
%ADD19C,0.3*%
%ADD20C,0.01*%
G04 #@! TD*
G04 --- APERTURE LIST END --- *
G04 --- BOARD BEGIN --- *
D10*
G04 #@! TO.N,N/C*
G04 #@! TO.C,J2*
G04 #@! TO.P,J2,6,6*
X15381250Y4127500D03*
G04 #@! TO.N,GND*
G04 #@! TO.P,J2,5,5*
X10971250Y4127500D03*
G04 #@! TO.P,J2,9,9*
X10971250Y1587500D03*
G04 #@! TO.P,J2,3,3*
X10971250Y5397500D03*
G04 #@! TO.N,!RST*
G04 #@! TO.P,J2,10,10*
X15381250Y1587500D03*
G04 #@! TO.N,N/C*
G04 #@! TO.P,J2,8,8*
X15381250Y2857500D03*
G04 #@! TO.P,J2,7,7*
X10971250Y2857500D03*
G04 #@! TO.N,3V3*
G04 #@! TO.P,J2,1,1*
X10971250Y6667500D03*
G04 #@! TO.N,SWDIO*
G04 #@! TO.P,J2,2,2*
X15381250Y6667500D03*
G04 #@! TO.N,SWCLK*
G04 #@! TO.P,J2,4,4*
X15381250Y5397500D03*
D11*
G04 #@! TO.N,TEST1*
G04 #@! TO.C,TP1*
G04 #@! TO.P,TP1,1,1*
X15875000Y-7620000D03*
D12*
G04 #@! TO.N,BUTTON*
G04 #@! TO.C,S1*
G04 #@! TO.P,S1,34,2*
X14153125Y8668125D03*
G04 #@! TO.N,GND*
G04 #@! TO.P,S1,12,1*
X10453125Y14668125D03*
G04 #@! TO.N,BUTTON*
G04 #@! TO.P,S1,34,2*
X14153125Y14668125D03*
G04 #@! TO.N,GND*
G04 #@! TO.P,S1,12,1*
X10453125Y8668125D03*
D13*
G04 #@! TO.N,TXN*
G04 #@! TO.C,J1*
G04 #@! TO.P,J1,5,TD-*
X635000Y12825000D03*
G04 #@! TO.N,N17*
G04 #@! TO.P,J1,13,LED_Yellow_A*
X-6725000Y3935000D03*
D14*
G04 #@! TO.N,GND*
G04 #@! TO.P,J1,SHIELD2,SHIELD*
X-7875000Y9525000D03*
D13*
G04 #@! TO.N,TXP*
G04 #@! TO.P,J1,7,TD+*
X-1905000Y12825000D03*
G04 #@! TO.N,RXP*
G04 #@! TO.P,J1,10,RD+*
X-5715000Y15365000D03*
D14*
G04 #@! TO.N,GND*
G04 #@! TO.P,J1,SHIELD1,SHIELD*
X7875000Y9525000D03*
D13*
G04 #@! TO.N,POE+*
G04 #@! TO.P,J1,2,PWR+*
X4445000Y15365000D03*
G04 #@! TO.N,N14*
G04 #@! TO.P,J1,14,LED_Yellow_C*
X-6725000Y1905000D03*
G04 #@! TO.N,RXN*
G04 #@! TO.P,J1,9,RD-*
X-4445000Y12825000D03*
G04 #@! TO.N,POE-*
G04 #@! TO.P,J1,1,PWR-*
X5715000Y12825000D03*
G04 #@! TO.N,N13*
G04 #@! TO.P,J1,11,LED_Green_C*
X6725000Y3935000D03*
G04 #@! TO.N,POWER_LED*
G04 #@! TO.P,J1,12,LED_Green_A*
X6725000Y1905000D03*
G04 #@! TO.N,N1*
G04 #@! TO.P,J1,6,TX_CT*
X-635000Y15365000D03*
G04 #@! TO.P,J1,8,RX_CT*
X-3175000Y15365000D03*
D11*
G04 #@! TO.N,TEST2*
G04 #@! TO.C,TP2*
G04 #@! TO.P,TP2,1,1*
X15875000Y-9525000D03*
D15*
G04 #@! TO.N,POE-*
G04 #@! TO.C,C17*
G04 #@! TO.P,C17,-,-*
X-12858750Y6904375D03*
G04 #@! TO.N,N5*
G04 #@! TO.P,C17,+,+*
X-12858750Y12304375D03*
D16*
G04 #@! TD.C*
G04 #@! TD.P*
G04 #@! TO.N,GND*
X8810625Y4127500D03*
X-10953750Y5476875D03*
G04 #@! TO.N,N17*
X-10001250Y-7381875D03*
X-1587500Y4921250D03*
D17*
X-10001250Y-7381875D02*
X-10001250Y-6350000D01*
X-1587500Y4921250D02*
X-1587500Y2063750D01*
X-10001250Y-6350000D02*
X-1587500Y2063750D01*
D16*
G04 #@! TO.N,GND*
X-1587500Y-3095625D03*
X6667500Y16033750D03*
G04 #@! TO.N,TEST1*
X14843125Y-7620000D03*
D17*
X14843125Y-7620000D02*
X15875000Y-7620000D01*
D16*
G04 #@! TO.N,GND*
X-9763125Y-11112500D03*
G04 #@! TO.N,RXN*
X-12938125Y-9207500D03*
D17*
X-3333750Y8651875D02*
X-5238750Y10556875D01*
X-3730625Y11430000D02*
X-3889375Y11588750D01*
X-3333750Y2936875D02*
X-3333750Y8651875D01*
X-12223750Y-8493125D02*
X-12223750Y-5953125D01*
X-3730625Y11191875D02*
X-3730625Y11430000D01*
X-4445000Y12825000D02*
X-4445000Y11747500D01*
X-12223750Y-5953125D02*
X-3333750Y2936875D01*
X-3889375Y11033125D02*
X-3730625Y11191875D01*
X-4286250Y11588750D02*
X-3889375Y11588750D01*
X-4286250Y11588750D02*
X-4445000Y11747500D01*
X-5238750Y10874375D02*
X-5080000Y11033125D01*
X-12223750Y-8493125D02*
X-12938125Y-9207500D01*
X-5238750Y10556875D02*
X-5238750Y10874375D01*
X-3889375Y11033125D02*
X-5080000Y11033125D01*
D16*
G04 #@! TO.N,GND*
X8731250Y5397500D03*
X17145000Y-11112500D03*
X-6905625Y-16271875D03*
G04 #@! TO.N,RMII_TXEN*
X-317500Y-7223125D03*
X-10001250Y-13811250D03*
D17*
X-1031875Y-6508750D02*
X-1666875Y-6508750D01*
X-4841875Y-9683750D02*
X-5873750Y-9683750D01*
X-1031875Y-6508750D02*
X-317500Y-7223125D01*
X-5873750Y-9683750D02*
X-10001250Y-13811250D01*
X-1666875Y-6508750D02*
X-4841875Y-9683750D01*
D16*
G04 #@! TO.N,GND*
X-7540625Y16033750D03*
X-1905000Y14366875D03*
X-10636250Y-9921875D03*
G04 #@! TO.N,RMII_TXD1*
X3254375Y-2143125D03*
X-12144375Y-12858750D03*
D17*
X-11826875Y-12541250D02*
X-12144375Y-12858750D01*
X3254375Y-2143125D02*
X3095625Y-2143125D01*
X-8731250Y-9366250D02*
X-9048750Y-9366250D01*
X-9048750Y-9366250D02*
X-11826875Y-12144375D01*
X-1508125Y-2143125D02*
X-8731250Y-9366250D01*
X-1508125Y-2143125D02*
X3095625Y-2143125D01*
X-11826875Y-12144375D02*
X-11826875Y-12541250D01*
D16*
G04 #@! TO.N,GND*
X13414375Y9921875D03*
X-5873750Y-3095625D03*
X5238750Y-10953750D03*
X-396875Y-13255625D03*
X15716250Y-11191875D03*
X-5080000Y8572500D03*
X15557500Y9842500D03*
G04 #@! TO.N,3V3*
X-79375Y-9921875D03*
X12303125Y-3095625D03*
X-12541250Y-2540000D03*
X-5159375Y-10398125D03*
X-1825625Y-10715625D03*
X13890625Y-12858750D03*
X5238750Y-15954375D03*
X11588750Y-15001875D03*
X9048750Y6667500D03*
X-15240000Y-4048125D03*
X-12541250Y-1746250D03*
X-1666875Y-14366875D03*
X-158750Y-3889375D03*
X-12541250Y-952500D03*
X-1746250Y-7620000D03*
D18*
X-12541250Y-2540000D02*
X-12541250Y-1746250D01*
X-158750Y-3889375D02*
X-79375Y-3889375D01*
D17*
X9048750Y6667500D02*
X10971250Y6667500D01*
D18*
X-15240000Y-4048125D02*
X-15240000Y-3413125D01*
X5238750Y-15954375D02*
X5238750Y-16033750D01*
X-4921250Y-10715625D02*
X-5159375Y-10398125D01*
X-12541250Y-1746250D02*
X-12541250Y-952500D01*
X6350000Y-9921875D02*
X8969375Y-9921875D01*
X4365625Y-9921875D02*
X-79375Y-9921875D01*
X13890625Y-12858750D02*
X13096875Y-12858750D01*
X1587500Y-14605000D02*
X-1666875Y-14605000D01*
X5238750Y-14366875D02*
X5238750Y-15954375D01*
X6350000Y-14366875D02*
X11588750Y-14366875D01*
X-1666875Y-14605000D02*
X-2301875Y-15240000D01*
X4365625Y-9921875D02*
X4365625Y-8413750D01*
X11588750Y-15001875D02*
X11588750Y-14366875D01*
X-12541250Y-1746250D02*
X-13573125Y-1746250D01*
X1825625Y-14366875D02*
X1587500Y-14605000D01*
X6350000Y-14366875D02*
X6350000Y-9921875D01*
X5238750Y-14366875D02*
X1825625Y-14366875D01*
X-11906250Y-15240000D02*
X-15240000Y-11906250D01*
X-1666875Y-14366875D02*
X-1666875Y-14605000D01*
X4365625Y-8413750D02*
X-158750Y-3889375D01*
X-1746250Y-8255000D02*
X-79375Y-9921875D01*
X12303125Y-3095625D02*
X12303125Y-6588125D01*
X-15240000Y-3413125D02*
X-13573125Y-1746250D01*
X-1825625Y-10715625D02*
X-873125Y-10715625D01*
X11588750Y-14366875D02*
X13096875Y-12858750D01*
X4365625Y-9921875D02*
X6350000Y-9921875D01*
X6350000Y-14366875D02*
X5238750Y-14366875D01*
X-15240000Y-4048125D02*
X-15240000Y-11906250D01*
X-1746250Y-7620000D02*
X-1746250Y-8255000D01*
X-1825625Y-10715625D02*
X-4921250Y-10715625D01*
X-11906250Y-15240000D02*
X-2301875Y-15240000D01*
X-873125Y-10715625D02*
X-79375Y-9921875D01*
X8969375Y-9921875D02*
X12303125Y-6588125D01*
D16*
G04 #@! TO.N,GND*
X-1508125Y-5556250D03*
X-3254375Y2063750D03*
X-11350625Y-14049375D03*
X-11430000Y-16192500D03*
X15478125Y13335000D03*
G04 #@! TO.N,SWDIO*
X12858750Y793750D03*
D17*
X12858750Y793750D02*
X12858750Y5873750D01*
X12858750Y5873750D02*
X13652500Y6667500D01*
X15381250Y6667500D02*
X13652500Y6667500D01*
D16*
G04 #@! TO.N,GND*
X10239375Y-10953750D03*
X1825625Y-2857500D03*
X-12858750Y-3810000D03*
X5397500Y-8810625D03*
X-7540625Y-2222500D03*
X7699375Y-16351250D03*
X-10160000Y-1746250D03*
X1190625Y4524375D03*
X8810625Y1587500D03*
X7143750Y-6746875D03*
G04 #@! TO.N,!RST*
X9286875Y-16271875D03*
D17*
X15381250Y1587500D02*
X15381250Y-696875D01*
X17065625Y-10160000D02*
X16430625Y-10795000D01*
X15381250Y-696875D02*
X17065625Y-2381250D01*
X9286875Y-16271875D02*
X12461875Y-16271875D01*
X17065625Y-2381250D02*
X17065625Y-10160000D01*
X16430625Y-12303125D02*
X12461875Y-16271875D01*
X16430625Y-10795000D02*
X16430625Y-12303125D01*
D16*
G04 #@! TO.N,GND*
X3016250Y-13414375D03*
X-4445000Y14366875D03*
X-16351250Y-12779375D03*
X3175000Y5794375D03*
G04 #@! TO.N,POWER_LED*
X6746875Y-238125D03*
D17*
X6725000Y-216250D02*
X6746875Y-238125D01*
X6725000Y1905000D02*
X6725000Y-216250D01*
D16*
G04 #@! TO.N,GND*
X-6667500Y-6350000D03*
X13335000Y13255625D03*
G04 #@! TO.N,POE-*
X-11350625Y7223125D03*
D19*
X-11350625Y7223125D02*
X-12857500Y7223125D01*
X-12857500Y7223125D02*
X-12858750Y6904375D01*
D16*
G04 #@! TO.N,!LAN_RST*
X-8890000Y-13731875D03*
X1349375Y-13573125D03*
D17*
X952500Y-13970000D02*
X1349375Y-13573125D01*
X-8890000Y-13731875D02*
X-6905625Y-13731875D01*
X-1270000Y-13573125D02*
X-873125Y-13970000D01*
X-8890000Y-13731875D02*
X-8890000Y-13731875D01*
X-873125Y-13970000D02*
X952500Y-13970000D01*
X-6746875Y-13573125D02*
X-1270000Y-13573125D01*
X-6905625Y-13731875D02*
X-6746875Y-13573125D01*
D16*
G04 #@! TO.N,GND*
X-13652500Y-238125D03*
X11191875Y-5397500D03*
X3413125Y-8810625D03*
G04 #@! TO.N,N5*
X-11747500Y12461875D03*
D19*
X-11747500Y12461875D02*
X-12857500Y12461875D01*
X-12857500Y12461875D02*
X-12858750Y12304375D01*
D16*
G04 #@! TO.N,GND*
X-14525625Y11191875D03*
X-1825625Y-11906250D03*
X-15875000Y-238125D03*
X-3095625Y9445625D03*
X-1270000Y-15557500D03*
X8572500Y-8810625D03*
X10715625Y16113125D03*
G04 #@! TO.N,TXP*
X-12938125Y-10398125D03*
D17*
X-1508125Y11588750D02*
X-1031875Y12065000D01*
X-158750Y1746250D02*
X-158750Y10398125D01*
X-1508125Y11191875D02*
X-1508125Y11588750D01*
X-12938125Y-10398125D02*
X-10556875Y-8016875D01*
X-1031875Y12065000D02*
X-1031875Y12382500D01*
X-8255000Y-6508750D02*
X-9763125Y-8016875D01*
X-1031875Y12382500D02*
X-1474375Y12825000D01*
X-714375Y10953750D02*
X-1270000Y10953750D01*
X-9763125Y-8016875D02*
X-10556875Y-8016875D01*
X-1474375Y12825000D02*
X-1905000Y12825000D01*
X-1270000Y10953750D02*
X-1508125Y11191875D01*
X-158750Y1746250D02*
X-8255000Y-6350000D01*
X-8255000Y-6350000D02*
X-8255000Y-6508750D01*
X-158750Y10398125D02*
X-714375Y10953750D01*
D16*
G04 #@! TO.N,GND*
X2540000Y14366875D03*
X2540000Y16351250D03*
X-873125Y2301875D03*
G04 #@! TO.N,IR_TX*
X14843125Y-5476875D03*
X1905000Y-1428750D03*
D17*
X11826875Y-793750D02*
X14843125Y-3810000D01*
X1905000Y-1428750D02*
X8334375Y-1428750D01*
X8969375Y-793750D02*
X11826875Y-793750D01*
X8334375Y-1428750D02*
X8969375Y-793750D01*
X14843125Y-5476875D02*
X14843125Y-3810000D01*
D16*
G04 #@! TO.N,GND*
X1825625Y8969375D03*
G04 #@! TO.N,IR_RX*
X14843125Y-6429375D03*
X1508125Y1031875D03*
D17*
X15716250Y-5556250D02*
X14843125Y-6429375D01*
X4524375Y-952500D02*
X8016875Y-952500D01*
X1508125Y1031875D02*
X2540000Y1031875D01*
X8731250Y-238125D02*
X12144375Y-238125D01*
X12144375Y-238125D02*
X15716250Y-3810000D01*
X8016875Y-952500D02*
X8731250Y-238125D01*
X2540000Y1031875D02*
X4524375Y-952500D01*
X15716250Y-3810000D02*
X15716250Y-5556250D01*
D16*
G04 #@! TO.N,GND*
X-6032500Y-14287500D03*
X-396875Y-5000625D03*
X-10160000Y317500D03*
X13493750Y-13890625D03*
G04 #@! TO.N,N1*
X-11350625Y-7620000D03*
D17*
X-11350625Y-6985000D02*
X-2301875Y2063750D01*
X-2301875Y10636250D02*
X-3175000Y11509375D01*
X-3175000Y11509375D02*
X-3175000Y15365000D01*
X-11350625Y-7620000D02*
X-11350625Y-6985000D01*
X-2301875Y2063750D02*
X-2301875Y10636250D01*
D16*
G04 #@! TO.N,GND*
X873125Y-7381875D03*
X15398750Y-2143125D03*
X-5715000Y-396875D03*
X3571875Y-11191875D03*
X11668125Y-12461875D03*
X-5397500Y2936875D03*
X11906250Y-8810625D03*
G04 #@! TO.N,BUTTON*
X15240000Y8572500D03*
D17*
X14128750Y8651875D02*
X14153125Y14668125D01*
X14128750Y8651875D02*
X14129679Y8652181D01*
X14128750Y8651875D02*
X14128750Y8572500D01*
X14129679Y8652181D02*
X14129056Y8652181D01*
X14128750Y8572500D02*
X15240000Y8572500D01*
X14128750Y8651875D02*
X14129056Y8652181D01*
X14128750Y8651875D02*
X14129679Y8652181D01*
D16*
G04 #@! TO.N,GND*
X-15557500Y5318125D03*
X-1190625Y6032500D03*
X3571875Y-5238750D03*
X-9128125Y-3810000D03*
X-15557500Y11191875D03*
X-13096875Y9286875D03*
X-14605000Y7620000D03*
X-8175625Y-14366875D03*
X7778750Y-238125D03*
X-14287500Y-15081250D03*
X-1190625Y9128125D03*
X-5159375Y-8969375D03*
X13017500Y8175625D03*
X7302500Y-11588750D03*
G04 #@! TO.N,RMII_MDC*
X4921250Y-12303125D03*
X-7381875Y-12938125D03*
D17*
X-7381875Y-12938125D02*
X-1508125Y-12938125D01*
X4921250Y-12303125D02*
X-873125Y-12303125D01*
X-1508125Y-12938125D02*
X-873125Y-12303125D01*
D16*
G04 #@! TO.N,GND*
X-17145000Y-8810625D03*
X-8890000Y-10239375D03*
X-15557500Y13731875D03*
X17145000Y158750D03*
G04 #@! TO.N,RMII_TXD0*
X4127500Y-3968750D03*
X-10636250Y-13176250D03*
D17*
X-10636250Y-13176250D02*
X-10636250Y-13017500D01*
X1666875Y-4048125D02*
X793750Y-3175000D01*
X-793750Y-3175000D02*
X-793750Y-3175000D01*
X3492500Y-3968750D02*
X4127500Y-3968750D01*
X2381250Y-3333750D02*
X2619375Y-3333750D01*
X2222500Y-3492500D02*
X2222500Y-3889375D01*
X2222500Y-3889375D02*
X2063750Y-4048125D01*
X2778125Y-4365625D02*
X2936875Y-4524375D01*
X793750Y-3175000D02*
X-793750Y-3175000D01*
X2619375Y-3333750D02*
X2778125Y-3492500D01*
X3333750Y-4127500D02*
X3333750Y-4365625D01*
X2778125Y-3492500D02*
X2778125Y-4365625D01*
X3333750Y-4365625D02*
X3175000Y-4524375D01*
X3333750Y-4127500D02*
X3492500Y-3968750D01*
X-793750Y-3175000D02*
X-10636250Y-13017500D01*
X2063750Y-4048125D02*
X1666875Y-4048125D01*
X2936875Y-4524375D02*
X3175000Y-4524375D01*
X2381250Y-3333750D02*
X2222500Y-3492500D01*
D16*
G04 #@! TO.N,GND*
X9286875Y-1587500D03*
X16192500Y-6350000D03*
G04 #@! TO.N,SWCLK*
X14128750Y-79375D03*
D17*
X15381250Y5397500D02*
X13811250Y5397500D01*
X13493750Y555625D02*
X14128750Y-79375D01*
X13493750Y5080000D02*
X13493750Y555625D01*
X13493750Y5080000D02*
X13811250Y5397500D01*
D16*
G04 #@! TO.N,GND*
X15319375Y-14605000D03*
X-10080625Y-9366250D03*
X16986250Y8096250D03*
D17*
X5953125Y-16589375D02*
X4445000Y-16589375D01*
D16*
G04 #@! TO.N,TXN*
X-12938125Y-11588750D03*
D17*
X-7778750Y-6746875D02*
X-9525000Y-8493125D01*
X-12303125Y-10953750D02*
X-12303125Y-10477500D01*
X396875Y1746250D02*
X396875Y12586875D01*
X396875Y1746250D02*
X-7778750Y-6429375D01*
X-9525000Y-8493125D02*
X-10318750Y-8493125D01*
X-12938125Y-11588750D02*
X-12303125Y-10953750D01*
X-7778750Y-6429375D02*
X-7778750Y-6746875D01*
X-10318750Y-8493125D02*
X-12303125Y-10477500D01*
X396875Y12586875D02*
X635000Y12825000D01*
D16*
G04 #@! TO.N,GND*
X2222500Y-15160625D03*
X10398125Y-15398750D03*
X-4127500Y-1349375D03*
X6667500Y-16351250D03*
X-15716250Y2698750D03*
X2778125Y-396875D03*
X-79375Y-317500D03*
X12541250Y-14843125D03*
X7858125Y-4365625D03*
X-12779375Y15795625D03*
X-17065625Y-3016250D03*
G04 #@! TO.N,TEST2*
X14843125Y-9525000D03*
D17*
X14843125Y-9525000D02*
X15875000Y-9525000D01*
D16*
G04 #@! TO.N,GND*
X3016250Y11430000D03*
X-16668750Y11191875D03*
X3889375Y952500D03*
X-10160000Y2778125D03*
G04 #@! TO.N,RXP*
X-12938125Y-8016875D03*
D17*
X-5715000Y15365000D02*
X-5715000Y10318750D01*
X-5715000Y10318750D02*
X-3810000Y8413750D01*
X-3810000Y3095625D02*
X-3810000Y8413750D01*
X-12938125Y-8016875D02*
X-12938125Y-6032500D01*
X-3810000Y3095625D02*
X-12938125Y-6032500D01*
D20*
G04 #@! TA.AperFunction,Conductor*
G04 #@! TO.N,GND*
G36*
X-17700000Y-9992527D02*
X-17699930Y-9996266D01*
X-17681197Y-10496932D01*
X-17680638Y-10504389D01*
X-17625379Y-10994828D01*
X-17624265Y-11002223D01*
X-17532508Y-11487167D01*
X-17530844Y-11494458D01*
X-17403104Y-11971192D01*
X-17400899Y-11978338D01*
X-17237896Y-12444171D01*
X-17235164Y-12451132D01*
X-17037798Y-12903502D01*
X-17034554Y-12910239D01*
X-16803939Y-13346583D01*
X-16800199Y-13353060D01*
X-16537614Y-13770960D01*
X-16533402Y-13777138D01*
X-16240319Y-14174253D01*
X-16235656Y-14180100D01*
X-15913742Y-14554170D01*
X-15908656Y-14559652D01*
X-15559652Y-14908656D01*
X-15554170Y-14913742D01*
X-15180100Y-15235656D01*
X-15174253Y-15240319D01*
X-14777138Y-15533402D01*
X-14770960Y-15537614D01*
X-14353060Y-15800199D01*
X-14346583Y-15803939D01*
X-13910239Y-16034554D01*
X-13903502Y-16037798D01*
X-13451132Y-16235164D01*
X-13444171Y-16237896D01*
X-12978335Y-16400900D01*
X-12971188Y-16403105D01*
X-12494459Y-16530843D01*
X-12487169Y-16532507D01*
X-12002223Y-16624265D01*
X-11994828Y-16625379D01*
X-11504389Y-16680638D01*
X-11496932Y-16681197D01*
X-10996266Y-16699930D01*
X-10992527Y-16700000D01*
X4865222Y-16700000D01*
X4924549Y-16680500D01*
X4960738Y-16629605D01*
X4959676Y-16567164D01*
X4911694Y-16511456D01*
X4874864Y-16492126D01*
X4864980Y-16485303D01*
X4756744Y-16389415D01*
X4748784Y-16380430D01*
X4666638Y-16261420D01*
X4661060Y-16250792D01*
X4609781Y-16115582D01*
X4606909Y-16103929D01*
X4589479Y-15960379D01*
X4589479Y-15948371D01*
X4606909Y-15804821D01*
X4609781Y-15793168D01*
X4661060Y-15657958D01*
X4666639Y-15647327D01*
X4671050Y-15640937D01*
X4688750Y-15584133D01*
X4688750Y-15016874D01*
X4669250Y-14957547D01*
X4588751Y-14916875D01*
X2094863Y-14916875D01*
X2024153Y-14946164D01*
X1977328Y-14992989D01*
X1975371Y-14993638D01*
X1970990Y-14998067D01*
X1867700Y-15077324D01*
X1856445Y-15083822D01*
X1768703Y-15120166D01*
X1735903Y-15133752D01*
X1723358Y-15137114D01*
X1713290Y-15138439D01*
X1713288Y-15138439D01*
X1590756Y-15154571D01*
X1584219Y-15155000D01*
X-1397637Y-15155000D01*
X-1468347Y-15184289D01*
X-1912047Y-15627989D01*
X-1914004Y-15628638D01*
X-1918385Y-15633067D01*
X-2021675Y-15712324D01*
X-2032930Y-15718822D01*
X-2120672Y-15755166D01*
X-2153472Y-15768752D01*
X-2166017Y-15772114D01*
X-2176085Y-15773439D01*
X-2176087Y-15773439D01*
X-2298619Y-15789571D01*
X-2305156Y-15790000D01*
X-11902980Y-15790000D01*
X-11909489Y-15789574D01*
X-12042109Y-15772115D01*
X-12054651Y-15768754D01*
X-12175196Y-15718822D01*
X-12186450Y-15712324D01*
X-12292563Y-15630901D01*
X-12297472Y-15626596D01*
X-15626596Y-12297472D01*
X-15630901Y-12292563D01*
X-15712324Y-12186450D01*
X-15718822Y-12175196D01*
X-15768754Y-12054651D01*
X-15772115Y-12042109D01*
X-15789573Y-11909495D01*
X-15790000Y-11902976D01*
X-15790000Y-4418367D01*
X-15807700Y-4361563D01*
X-15812111Y-4355173D01*
X-15817690Y-4344542D01*
X-15868969Y-4209332D01*
X-15871841Y-4197679D01*
X-15889271Y-4054129D01*
X-15889271Y-4042121D01*
X-15871841Y-3898571D01*
X-15868969Y-3886918D01*
X-15817690Y-3751708D01*
X-15812111Y-3741077D01*
X-15807700Y-3734687D01*
X-15790000Y-3677883D01*
X-15790000Y-3416406D01*
X-15789571Y-3409869D01*
X-15782273Y-3354435D01*
X-15772115Y-3277273D01*
X-15768751Y-3264717D01*
X-15746145Y-3210143D01*
X-15718822Y-3144180D01*
X-15712324Y-3132925D01*
X-15630901Y-3026812D01*
X-15626596Y-3021903D01*
X-13964347Y-1359654D01*
X-13959438Y-1355349D01*
X-13853325Y-1273926D01*
X-13842071Y-1267428D01*
X-13754819Y-1231286D01*
X-13754819Y4804375D01*
X-13762632Y4804990D01*
X-13843681Y4817827D01*
X-13858468Y4822631D01*
X-13928076Y4858098D01*
X-13940649Y4867233D01*
X-13995892Y4922476D01*
X-14005027Y4935049D01*
X-14040494Y5004657D01*
X-14045298Y5019444D01*
X-14058135Y5100493D01*
X-14058750Y5108306D01*
X-14058750Y8700444D01*
X-14058135Y8708257D01*
X-14045298Y8789306D01*
X-14040494Y8804093D01*
X-14005027Y8873701D01*
X-13995892Y8886274D01*
X-13940649Y8941517D01*
X-13928076Y8950652D01*
X-13858468Y8986119D01*
X-13843681Y8990923D01*
X-13762632Y9003760D01*
X-13754819Y9004375D01*
X-13754819Y10204375D01*
X-13762632Y10204990D01*
X-13843681Y10217827D01*
X-13858468Y10222631D01*
X-13928076Y10258098D01*
X-13940649Y10267233D01*
X-13995892Y10322476D01*
X-14005027Y10335049D01*
X-14040494Y10404657D01*
X-14045298Y10419444D01*
X-14058135Y10500493D01*
X-14058750Y10508306D01*
X-14058750Y14100444D01*
X-14058135Y14108257D01*
X-14045298Y14189306D01*
X-14040494Y14204093D01*
X-14005027Y14273701D01*
X-13995892Y14286274D01*
X-13940649Y14341517D01*
X-13928076Y14350652D01*
X-13858468Y14386119D01*
X-13843681Y14390923D01*
X-13762632Y14403760D01*
X-13754819Y14404375D01*
X-11962681Y14404375D01*
X-11954868Y14403760D01*
X-11873819Y14390923D01*
X-11859032Y14386119D01*
X-11789424Y14350652D01*
X-11776851Y14341517D01*
X-11721608Y14286274D01*
X-11712473Y14273701D01*
X-11677006Y14204093D01*
X-11672202Y14189306D01*
X-11659365Y14108257D01*
X-11658750Y14100444D01*
X-11658750Y13182916D01*
X-11639250Y13123589D01*
X-11582682Y13085823D01*
X-11522885Y13071085D01*
X-11511649Y13066824D01*
X-11383613Y12999626D01*
X-11373730Y12992803D01*
X-11265494Y12896915D01*
X-11257534Y12887930D01*
X-11175388Y12768920D01*
X-11169810Y12758292D01*
X-11118531Y12623082D01*
X-11115659Y12611429D01*
X-11098229Y12467879D01*
X-11098229Y12455871D01*
X-11115659Y12312321D01*
X-11118531Y12300668D01*
X-11169810Y12165458D01*
X-11175388Y12154830D01*
X-11257534Y12035820D01*
X-11265494Y12026835D01*
X-11373730Y11930947D01*
X-11383613Y11924124D01*
X-11511649Y11856926D01*
X-11522885Y11852665D01*
X-11582682Y11837927D01*
X-11635618Y11804796D01*
X-11658750Y11740834D01*
X-11658750Y10508306D01*
X-11659365Y10500493D01*
X-11672202Y10419444D01*
X-11677006Y10404657D01*
X-11712473Y10335049D01*
X-11721608Y10322476D01*
X-11776851Y10267233D01*
X-11789424Y10258098D01*
X-11859032Y10222631D01*
X-11873819Y10217827D01*
X-11954868Y10204990D01*
X-11962681Y10204375D01*
X-13754819Y10204375D01*
X-13754819Y9004375D01*
X-11962681Y9004375D01*
X-11954868Y9003760D01*
X-11873819Y8990923D01*
X-11859032Y8986119D01*
X-11789424Y8950652D01*
X-11776851Y8941517D01*
X-11721608Y8886274D01*
X-11712473Y8873701D01*
X-11677006Y8804093D01*
X-11672202Y8789306D01*
X-11659365Y8708257D01*
X-11658750Y8700444D01*
X-11658750Y7939390D01*
X-11639250Y7880063D01*
X-11588355Y7843874D01*
X-11534819Y7842297D01*
X-11434849Y7866938D01*
X-11422922Y7868386D01*
X-11278328Y7868386D01*
X-11266399Y7866937D01*
X-11126010Y7832335D01*
X-11114774Y7828074D01*
X-10986738Y7760876D01*
X-10976855Y7754053D01*
X-10868619Y7658165D01*
X-10860659Y7649180D01*
X-10778513Y7530170D01*
X-10772935Y7519542D01*
X-10721656Y7384332D01*
X-10718784Y7372679D01*
X-10701354Y7229129D01*
X-10701354Y7217121D01*
X-10718784Y7073571D01*
X-10721656Y7061918D01*
X-10772935Y6926708D01*
X-10778513Y6916080D01*
X-10860659Y6797070D01*
X-10868619Y6788085D01*
X-10976855Y6692197D01*
X-10986738Y6685374D01*
X-11114774Y6618176D01*
X-11126010Y6613915D01*
X-11266399Y6579313D01*
X-11278328Y6577864D01*
X-11422922Y6577864D01*
X-11434849Y6579312D01*
X-11534819Y6603953D01*
X-11597089Y6599218D01*
X-11644407Y6558463D01*
X-11658750Y6506860D01*
X-11658750Y5108306D01*
X-11659365Y5100493D01*
X-11672202Y5019444D01*
X-11677006Y5004657D01*
X-11712473Y4935049D01*
X-11721608Y4922476D01*
X-11776851Y4867233D01*
X-11789424Y4858098D01*
X-11859032Y4822631D01*
X-11873819Y4817827D01*
X-11954868Y4804990D01*
X-11962681Y4804375D01*
X-13754819Y4804375D01*
X-13754819Y-1231286D01*
X-13721526Y-1217496D01*
X-13708984Y-1214135D01*
X-13576364Y-1196676D01*
X-13569855Y-1196250D01*
X-13274529Y-1196250D01*
X-13215202Y-1176750D01*
X-13179013Y-1125855D01*
X-13175259Y-1084197D01*
X-13190521Y-958504D01*
X-13190521Y-946496D01*
X-13173091Y-802946D01*
X-13170219Y-791293D01*
X-13118940Y-656083D01*
X-13113362Y-645455D01*
X-13031216Y-526445D01*
X-13023256Y-517460D01*
X-12915020Y-421572D01*
X-12905137Y-414749D01*
X-12777101Y-347551D01*
X-12765865Y-343290D01*
X-12625476Y-308688D01*
X-12613547Y-307239D01*
X-12468953Y-307239D01*
X-12457024Y-308688D01*
X-12316635Y-343290D01*
X-12305399Y-347551D01*
X-12177363Y-414749D01*
X-12167480Y-421572D01*
X-12059244Y-517460D01*
X-12051284Y-526445D01*
X-11969138Y-645455D01*
X-11963560Y-656083D01*
X-11912281Y-791293D01*
X-11909409Y-802946D01*
X-11891979Y-946496D01*
X-11891979Y-958504D01*
X-11909409Y-1102054D01*
X-11912281Y-1113707D01*
X-11963560Y-1248917D01*
X-11969139Y-1259548D01*
X-11973550Y-1265938D01*
X-11991250Y-1322742D01*
X-11991250Y-1376008D01*
X-11973550Y-1432812D01*
X-11969139Y-1439202D01*
X-11963560Y-1449833D01*
X-11912281Y-1585043D01*
X-11909409Y-1596696D01*
X-11891979Y-1740246D01*
X-11891979Y-1752254D01*
X-11909409Y-1895804D01*
X-11912281Y-1907457D01*
X-11963560Y-2042667D01*
X-11969139Y-2053298D01*
X-11973550Y-2059688D01*
X-11991250Y-2116492D01*
X-11991250Y-2169758D01*
X-11973550Y-2226562D01*
X-11969139Y-2232952D01*
X-11963560Y-2243583D01*
X-11912281Y-2378793D01*
X-11909409Y-2390446D01*
X-11891979Y-2533996D01*
X-11891979Y-2546004D01*
X-11909409Y-2689554D01*
X-11912281Y-2701207D01*
X-11963560Y-2836417D01*
X-11969138Y-2847045D01*
X-12051284Y-2966055D01*
X-12059244Y-2975040D01*
X-12167480Y-3070928D01*
X-12177363Y-3077751D01*
X-12305399Y-3144949D01*
X-12316635Y-3149210D01*
X-12457024Y-3183812D01*
X-12468953Y-3185261D01*
X-12613547Y-3185261D01*
X-12625476Y-3183812D01*
X-12765865Y-3149210D01*
X-12777101Y-3144949D01*
X-12905137Y-3077751D01*
X-12915020Y-3070928D01*
X-13023256Y-2975040D01*
X-13031216Y-2966055D01*
X-13113362Y-2847045D01*
X-13118940Y-2836417D01*
X-13170219Y-2701207D01*
X-13173091Y-2689554D01*
X-13190521Y-2546004D01*
X-13190521Y-2533996D01*
X-13175259Y-2408303D01*
X-13187466Y-2347058D01*
X-13233627Y-2304997D01*
X-13274529Y-2296250D01*
X-13303886Y-2296250D01*
X-13374596Y-2325539D01*
X-14658881Y-3609824D01*
X-14687043Y-3665563D01*
X-14670471Y-3737337D01*
X-14667889Y-3741078D01*
X-14662310Y-3751708D01*
X-14611031Y-3886918D01*
X-14608159Y-3898571D01*
X-14590729Y-4042121D01*
X-14590729Y-4054129D01*
X-14608159Y-4197679D01*
X-14611031Y-4209332D01*
X-14662310Y-4344542D01*
X-14667889Y-4355173D01*
X-14672300Y-4361563D01*
X-14690000Y-4418367D01*
X-14690000Y-11637011D01*
X-14660711Y-11707721D01*
X-13010422Y-13358010D01*
X-13010422Y-12234011D01*
X-13022351Y-12232562D01*
X-13162740Y-12197960D01*
X-13173976Y-12193699D01*
X-13302012Y-12126501D01*
X-13311895Y-12119678D01*
X-13420131Y-12023790D01*
X-13428091Y-12014805D01*
X-13510237Y-11895795D01*
X-13515815Y-11885167D01*
X-13567094Y-11749957D01*
X-13569966Y-11738304D01*
X-13587396Y-11594754D01*
X-13587396Y-11582746D01*
X-13569966Y-11439196D01*
X-13567094Y-11427543D01*
X-13515815Y-11292333D01*
X-13510237Y-11281705D01*
X-13428091Y-11162695D01*
X-13420131Y-11153710D01*
X-13323709Y-11068288D01*
X-13292233Y-11014351D01*
X-13298895Y-10952258D01*
X-13323709Y-10918588D01*
X-13420131Y-10833165D01*
X-13428091Y-10824180D01*
X-13510237Y-10705170D01*
X-13515815Y-10694542D01*
X-13567094Y-10559332D01*
X-13569966Y-10547679D01*
X-13587396Y-10404129D01*
X-13587396Y-10392121D01*
X-13569966Y-10248571D01*
X-13567094Y-10236918D01*
X-13515815Y-10101708D01*
X-13510237Y-10091080D01*
X-13428091Y-9972070D01*
X-13420131Y-9963085D01*
X-13323709Y-9877663D01*
X-13292233Y-9823726D01*
X-13298895Y-9761633D01*
X-13323709Y-9727963D01*
X-13420131Y-9642540D01*
X-13428091Y-9633555D01*
X-13510237Y-9514545D01*
X-13515815Y-9503917D01*
X-13567094Y-9368707D01*
X-13569966Y-9357054D01*
X-13587396Y-9213504D01*
X-13587396Y-9201496D01*
X-13569966Y-9057946D01*
X-13567094Y-9046293D01*
X-13515815Y-8911083D01*
X-13510237Y-8900455D01*
X-13428091Y-8781445D01*
X-13420131Y-8772460D01*
X-13323709Y-8687038D01*
X-13292233Y-8633101D01*
X-13298895Y-8571008D01*
X-13323709Y-8537338D01*
X-13420131Y-8451915D01*
X-13428091Y-8442930D01*
X-13510237Y-8323920D01*
X-13515815Y-8313292D01*
X-13567094Y-8178082D01*
X-13569966Y-8166429D01*
X-13587396Y-8022879D01*
X-13587396Y-8010871D01*
X-13569966Y-7867321D01*
X-13567094Y-7855668D01*
X-13515815Y-7720458D01*
X-13510237Y-7709830D01*
X-13428091Y-7590820D01*
X-13420131Y-7581835D01*
X-13371812Y-7539028D01*
X-13338125Y-7464178D01*
X-13338125Y-6036431D01*
X-13337510Y-6028618D01*
X-13334430Y-6009170D01*
X-13333199Y-5993527D01*
X-13333199Y-5977795D01*
X-13330767Y-5962440D01*
X-13325906Y-5947479D01*
X-13322243Y-5932221D01*
X-13319780Y-5916667D01*
X-13314976Y-5901884D01*
X-13307827Y-5887855D01*
X-13301821Y-5873354D01*
X-13296958Y-5858388D01*
X-13289900Y-5844535D01*
X-13280651Y-5831805D01*
X-13272452Y-5818426D01*
X-13265302Y-5804394D01*
X-13256169Y-5791823D01*
X-13245035Y-5780689D01*
X-13234844Y-5768757D01*
X-13223275Y-5752834D01*
X-13218190Y-5746880D01*
X-9069526Y-1598216D01*
X-9069526Y8548606D01*
X-9073143Y8549216D01*
X-9074909Y8550628D01*
X-9126426Y8610947D01*
X-9131029Y8617283D01*
X-9254006Y8817963D01*
X-9257564Y8824945D01*
X-9347633Y9042392D01*
X-9350056Y9049847D01*
X-9405001Y9278712D01*
X-9406225Y9286436D01*
X-9424692Y9521086D01*
X-9424692Y9528914D01*
X-9406225Y9763564D01*
X-9405001Y9771288D01*
X-9350056Y10000153D01*
X-9347633Y10007608D01*
X-9257564Y10225055D01*
X-9254006Y10232037D01*
X-9131029Y10432717D01*
X-9126426Y10439053D01*
X-9079136Y10494423D01*
X-9067543Y10501473D01*
X-9063891Y10501148D01*
X-9062014Y10499875D01*
X-8856470Y10294331D01*
X-8957532Y10150000D01*
X-9049616Y9952525D01*
X-9106010Y9742060D01*
X-9125000Y9525000D01*
X-9106010Y9307940D01*
X-9049616Y9097475D01*
X-8957532Y8900000D01*
X-8856470Y8755669D01*
X-9057414Y8554725D01*
X-9069526Y8548606D01*
X-9069526Y-1598216D01*
X-7878914Y-407604D01*
X-7878914Y7975308D01*
X-8113564Y7993775D01*
X-8121288Y7994999D01*
X-8350153Y8049944D01*
X-8357608Y8052367D01*
X-8575055Y8142436D01*
X-8582037Y8145994D01*
X-8782717Y8268971D01*
X-8789053Y8273574D01*
X-8844423Y8320864D01*
X-8851473Y8332457D01*
X-8851148Y8336109D01*
X-8849875Y8337986D01*
X-8644331Y8543530D01*
X-8644331Y10506470D01*
X-8845275Y10707414D01*
X-8851394Y10719526D01*
X-8850784Y10723143D01*
X-8849372Y10724909D01*
X-8789053Y10776426D01*
X-8782717Y10781029D01*
X-8582037Y10904006D01*
X-8575055Y10907564D01*
X-8357608Y10997633D01*
X-8350153Y11000056D01*
X-8121288Y11055001D01*
X-8113564Y11056225D01*
X-7878914Y11074692D01*
X-7871086Y11074692D01*
X-7636436Y11056225D01*
X-7628712Y11055001D01*
X-7399847Y11000056D01*
X-7392392Y10997633D01*
X-7174945Y10907564D01*
X-7167963Y10904006D01*
X-6967283Y10781029D01*
X-6960947Y10776426D01*
X-6905577Y10729136D01*
X-6898527Y10717543D01*
X-6898852Y10713891D01*
X-6900125Y10712014D01*
X-7105669Y10506470D01*
X-7250000Y10607532D01*
X-7447475Y10699616D01*
X-7657940Y10756010D01*
X-7875000Y10775000D01*
X-8092060Y10756010D01*
X-8302525Y10699616D01*
X-8500000Y10607532D01*
X-8644331Y10506470D01*
X-8644331Y8543530D01*
X-8500000Y8442468D01*
X-8302525Y8350384D01*
X-8092060Y8293990D01*
X-7875000Y8275000D01*
X-7657940Y8293990D01*
X-7447475Y8350384D01*
X-7250000Y8442468D01*
X-7105669Y8543530D01*
X-6904725Y8342586D01*
X-6898606Y8330474D01*
X-6899216Y8326857D01*
X-6900628Y8325091D01*
X-6960947Y8273574D01*
X-6967283Y8268971D01*
X-7167963Y8145994D01*
X-7174945Y8142436D01*
X-7392392Y8052367D01*
X-7399847Y8049944D01*
X-7628712Y7994999D01*
X-7636436Y7993775D01*
X-7871086Y7975308D01*
X-7878914Y7975308D01*
X-7878914Y-407604D01*
X-6821914Y649396D01*
X-6793752Y705135D01*
X-6804150Y766713D01*
X-6849054Y810114D01*
X-6883397Y819678D01*
X-6922519Y823303D01*
X-6931568Y824995D01*
X-7117917Y878015D01*
X-7126511Y881345D01*
X-7299934Y967699D01*
X-7307764Y972547D01*
X-7462371Y1089300D01*
X-7469184Y1095512D01*
X-7599705Y1238686D01*
X-7605251Y1246030D01*
X-7707250Y1410764D01*
X-7711348Y1418994D01*
X-7781335Y1599654D01*
X-7783859Y1608522D01*
X-7819459Y1798961D01*
X-7820308Y1808126D01*
X-7820308Y2001874D01*
X-7819459Y2011039D01*
X-7783859Y2201478D01*
X-7781335Y2210346D01*
X-7711348Y2391006D01*
X-7707250Y2399236D01*
X-7605251Y2563970D01*
X-7599705Y2571314D01*
X-7469184Y2714488D01*
X-7462371Y2720700D01*
X-7304128Y2840199D01*
X-7268535Y2891513D01*
X-7270327Y2953937D01*
X-7304128Y2999801D01*
X-7462371Y3119300D01*
X-7469184Y3125512D01*
X-7599705Y3268686D01*
X-7605251Y3276030D01*
X-7707250Y3440764D01*
X-7711348Y3448994D01*
X-7781335Y3629654D01*
X-7783859Y3638522D01*
X-7819459Y3828961D01*
X-7820308Y3838126D01*
X-7820308Y4031874D01*
X-7819459Y4041039D01*
X-7783859Y4231478D01*
X-7781335Y4240346D01*
X-7711348Y4421006D01*
X-7707250Y4429236D01*
X-7605251Y4593970D01*
X-7599705Y4601314D01*
X-7469184Y4744488D01*
X-7462371Y4750700D01*
X-7307764Y4867453D01*
X-7299934Y4872301D01*
X-7126511Y4958655D01*
X-7117917Y4961985D01*
X-6988221Y4998887D01*
X-6936495Y5033879D01*
X-6915615Y5092735D01*
X-6944877Y5165779D01*
X-7072825Y5293727D01*
X-7077490Y5299110D01*
X-7227116Y5498988D01*
X-7230965Y5504977D01*
X-7350629Y5724123D01*
X-7353585Y5730596D01*
X-7440840Y5964538D01*
X-7442845Y5971364D01*
X-7495920Y6215344D01*
X-7496934Y6222399D01*
X-7514745Y6471435D01*
X-7514745Y6478565D01*
X-7496934Y6727601D01*
X-7495920Y6734656D01*
X-7442845Y6978636D01*
X-7440840Y6985462D01*
X-7353585Y7219404D01*
X-7350629Y7225877D01*
X-7230965Y7445023D01*
X-7227116Y7451012D01*
X-7077490Y7650890D01*
X-7072825Y7656273D01*
X-6896273Y7832825D01*
X-6890890Y7837490D01*
X-6691012Y7987116D01*
X-6685023Y7990965D01*
X-6682457Y7992366D01*
X-6682457Y8548527D01*
X-6686109Y8548852D01*
X-6687986Y8550125D01*
X-6893530Y8755669D01*
X-6792468Y8900000D01*
X-6700384Y9097475D01*
X-6643990Y9307940D01*
X-6625000Y9525000D01*
X-6643990Y9742060D01*
X-6700384Y9952525D01*
X-6792468Y10150000D01*
X-6893530Y10294331D01*
X-6692586Y10495275D01*
X-6680474Y10501394D01*
X-6676857Y10500784D01*
X-6675091Y10499372D01*
X-6623574Y10439053D01*
X-6618971Y10432717D01*
X-6495994Y10232037D01*
X-6492436Y10225055D01*
X-6402367Y10007608D01*
X-6399944Y10000153D01*
X-6344999Y9771288D01*
X-6343775Y9763564D01*
X-6325308Y9528914D01*
X-6325308Y9521086D01*
X-6343775Y9286436D01*
X-6344999Y9278712D01*
X-6399944Y9049847D01*
X-6402367Y9042392D01*
X-6492436Y8824945D01*
X-6495994Y8817963D01*
X-6618971Y8617283D01*
X-6623574Y8610947D01*
X-6670864Y8555577D01*
X-6682457Y8548527D01*
X-6682457Y7992366D01*
X-6465877Y8110629D01*
X-6459404Y8113585D01*
X-6225462Y8200840D01*
X-6218636Y8202845D01*
X-5974656Y8255920D01*
X-5967601Y8256934D01*
X-5718565Y8274745D01*
X-5711435Y8274745D01*
X-5462399Y8256934D01*
X-5455344Y8255920D01*
X-5211364Y8202845D01*
X-5204538Y8200840D01*
X-4970596Y8113585D01*
X-4964123Y8110629D01*
X-4744977Y7990965D01*
X-4738988Y7987116D01*
X-4539110Y7837490D01*
X-4533727Y7832825D01*
X-4380709Y7679807D01*
X-4324970Y7651645D01*
X-4263392Y7662043D01*
X-4219991Y7706947D01*
X-4210000Y7750517D01*
X-4210000Y8206644D01*
X-4239289Y8277354D01*
X-5995065Y10033130D01*
X-6000155Y10039089D01*
X-6011718Y10055005D01*
X-6021909Y10066938D01*
X-6033044Y10078073D01*
X-6042177Y10090644D01*
X-6049328Y10104678D01*
X-6057527Y10118057D01*
X-6066776Y10130787D01*
X-6073834Y10144639D01*
X-6078697Y10159606D01*
X-6084702Y10174104D01*
X-6091852Y10188136D01*
X-6096654Y10202915D01*
X-6099116Y10218462D01*
X-6102780Y10233722D01*
X-6107643Y10248688D01*
X-6110075Y10264045D01*
X-6110075Y10279783D01*
X-6111306Y10295426D01*
X-6114385Y10314868D01*
X-6115000Y10322681D01*
X-6115000Y14278676D01*
X-6134500Y14338003D01*
X-6170426Y14368192D01*
X-6289945Y14427704D01*
X-6297758Y14432542D01*
X-6452371Y14549300D01*
X-6459184Y14555512D01*
X-6589705Y14698686D01*
X-6595251Y14706030D01*
X-6697250Y14870764D01*
X-6701348Y14878994D01*
X-6771335Y15059654D01*
X-6773859Y15068522D01*
X-6809459Y15258961D01*
X-6810308Y15268126D01*
X-6810308Y15461874D01*
X-6809459Y15471039D01*
X-6773859Y15661478D01*
X-6771335Y15670346D01*
X-6701348Y15851006D01*
X-6697250Y15859236D01*
X-6595251Y16023970D01*
X-6589705Y16031314D01*
X-6459184Y16174488D01*
X-6452371Y16180700D01*
X-6297764Y16297453D01*
X-6289934Y16302301D01*
X-6116511Y16388655D01*
X-6107917Y16391985D01*
X-5921568Y16445005D01*
X-5912519Y16446697D01*
X-5719608Y16464573D01*
X-5710392Y16464573D01*
X-5517481Y16446697D01*
X-5508432Y16445005D01*
X-5322083Y16391985D01*
X-5313489Y16388655D01*
X-5140066Y16302301D01*
X-5132236Y16297453D01*
X-4977629Y16180700D01*
X-4970816Y16174488D01*
X-4840295Y16031314D01*
X-4834749Y16023970D01*
X-4732750Y15859236D01*
X-4728652Y15851006D01*
X-4658665Y15670346D01*
X-4656141Y15661478D01*
X-4620541Y15471039D01*
X-4619692Y15461874D01*
X-4619692Y15268126D01*
X-4620541Y15258961D01*
X-4656141Y15068522D01*
X-4658665Y15059654D01*
X-4728652Y14878994D01*
X-4732750Y14870764D01*
X-4834749Y14706030D01*
X-4840295Y14698686D01*
X-4970816Y14555512D01*
X-4977629Y14549300D01*
X-5132242Y14432542D01*
X-5140055Y14427704D01*
X-5259574Y14368192D01*
X-5303990Y14324292D01*
X-5315000Y14278676D01*
X-5315000Y13741368D01*
X-5295500Y13682041D01*
X-5244605Y13645852D01*
X-5154738Y13661567D01*
X-5027764Y13757453D01*
X-5019934Y13762301D01*
X-4846511Y13848655D01*
X-4837917Y13851985D01*
X-4651568Y13905005D01*
X-4642519Y13906697D01*
X-4449608Y13924573D01*
X-4440392Y13924573D01*
X-4247481Y13906697D01*
X-4238432Y13905005D01*
X-4052083Y13851985D01*
X-4043489Y13848655D01*
X-3870066Y13762301D01*
X-3862236Y13757453D01*
X-3735262Y13661567D01*
X-3676166Y13641376D01*
X-3616616Y13660182D01*
X-3575000Y13741368D01*
X-3575000Y14278676D01*
X-3594500Y14338003D01*
X-3630426Y14368192D01*
X-3749945Y14427704D01*
X-3757758Y14432542D01*
X-3912371Y14549300D01*
X-3919184Y14555512D01*
X-4049705Y14698686D01*
X-4055251Y14706030D01*
X-4157250Y14870764D01*
X-4161348Y14878994D01*
X-4231335Y15059654D01*
X-4233859Y15068522D01*
X-4269459Y15258961D01*
X-4270308Y15268126D01*
X-4270308Y15461874D01*
X-4269459Y15471039D01*
X-4233859Y15661478D01*
X-4231335Y15670346D01*
X-4161348Y15851006D01*
X-4157250Y15859236D01*
X-4055251Y16023970D01*
X-4049705Y16031314D01*
X-3919184Y16174488D01*
X-3912371Y16180700D01*
X-3757764Y16297453D01*
X-3749934Y16302301D01*
X-3576511Y16388655D01*
X-3567917Y16391985D01*
X-3381568Y16445005D01*
X-3372519Y16446697D01*
X-3179608Y16464573D01*
X-3170392Y16464573D01*
X-2977481Y16446697D01*
X-2968432Y16445005D01*
X-2782083Y16391985D01*
X-2773489Y16388655D01*
X-2600066Y16302301D01*
X-2592236Y16297453D01*
X-2437629Y16180700D01*
X-2430816Y16174488D01*
X-2300295Y16031314D01*
X-2294749Y16023970D01*
X-2192750Y15859236D01*
X-2188652Y15851006D01*
X-2118665Y15670346D01*
X-2116141Y15661478D01*
X-2080541Y15471039D01*
X-2079692Y15461874D01*
X-2079692Y15268126D01*
X-2080541Y15258961D01*
X-2116141Y15068522D01*
X-2118665Y15059654D01*
X-2188652Y14878994D01*
X-2192750Y14870764D01*
X-2294749Y14706030D01*
X-2300295Y14698686D01*
X-2430816Y14555512D01*
X-2437629Y14549300D01*
X-2592242Y14432542D01*
X-2600055Y14427704D01*
X-2719574Y14368192D01*
X-2763990Y14324292D01*
X-2775000Y14278676D01*
X-2775000Y13741368D01*
X-2755500Y13682041D01*
X-2704605Y13645852D01*
X-2614738Y13661567D01*
X-2487764Y13757453D01*
X-2479934Y13762301D01*
X-2306511Y13848655D01*
X-2297917Y13851985D01*
X-2111568Y13905005D01*
X-2102519Y13906697D01*
X-1909608Y13924573D01*
X-1900392Y13924573D01*
X-1707481Y13906697D01*
X-1698432Y13905005D01*
X-1512083Y13851985D01*
X-1503489Y13848655D01*
X-1330066Y13762301D01*
X-1322236Y13757453D01*
X-1167629Y13640700D01*
X-1160816Y13634488D01*
X-1030295Y13491314D01*
X-1024749Y13483970D01*
X-922750Y13319236D01*
X-918652Y13311006D01*
X-848665Y13130346D01*
X-846141Y13121478D01*
X-810541Y12931039D01*
X-809692Y12921874D01*
X-809692Y12767423D01*
X-780403Y12696713D01*
X-751810Y12668120D01*
X-746725Y12662166D01*
X-735156Y12646243D01*
X-724965Y12634311D01*
X-713835Y12623181D01*
X-704694Y12610599D01*
X-697551Y12596580D01*
X-689351Y12583197D01*
X-680097Y12570460D01*
X-673041Y12556613D01*
X-668177Y12541642D01*
X-662172Y12527144D01*
X-655023Y12513114D01*
X-650221Y12498335D01*
X-647759Y12482788D01*
X-644095Y12467528D01*
X-639608Y12453719D01*
X-639608Y14265427D01*
X-832519Y14283303D01*
X-841568Y14284995D01*
X-1027917Y14338015D01*
X-1036511Y14341345D01*
X-1209934Y14427699D01*
X-1217764Y14432547D01*
X-1372371Y14549300D01*
X-1379184Y14555512D01*
X-1509705Y14698686D01*
X-1515251Y14706030D01*
X-1617250Y14870764D01*
X-1621348Y14878994D01*
X-1691335Y15059654D01*
X-1693859Y15068522D01*
X-1729459Y15258961D01*
X-1730308Y15268126D01*
X-1730308Y15461874D01*
X-1729459Y15471039D01*
X-1693859Y15661478D01*
X-1691335Y15670346D01*
X-1621348Y15851006D01*
X-1617250Y15859236D01*
X-1515251Y16023970D01*
X-1509705Y16031314D01*
X-1379184Y16174488D01*
X-1372371Y16180700D01*
X-1217764Y16297453D01*
X-1209934Y16302301D01*
X-1036511Y16388655D01*
X-1027917Y16391985D01*
X-841568Y16445005D01*
X-832519Y16446697D01*
X-639608Y16464573D01*
X-630392Y16464573D01*
X-437481Y16446697D01*
X-428432Y16445005D01*
X-242083Y16391985D01*
X-233489Y16388655D01*
X-60066Y16302301D01*
X-52236Y16297453D01*
X102371Y16180700D01*
X109184Y16174488D01*
X239705Y16031314D01*
X245251Y16023970D01*
X347250Y15859236D01*
X351348Y15851006D01*
X421335Y15670346D01*
X423859Y15661478D01*
X459459Y15471039D01*
X460308Y15461874D01*
X460308Y15268126D01*
X459459Y15258961D01*
X423859Y15068522D01*
X421335Y15059654D01*
X351348Y14878994D01*
X347250Y14870764D01*
X245251Y14706030D01*
X239705Y14698686D01*
X109184Y14555512D01*
X102371Y14549300D01*
X-52236Y14432547D01*
X-60066Y14427699D01*
X-233489Y14341345D01*
X-242083Y14338015D01*
X-428432Y14284995D01*
X-437481Y14283303D01*
X-630392Y14265427D01*
X-639608Y14265427D01*
X-639608Y12453719D01*
X-639232Y12452562D01*
X-636800Y12437205D01*
X-636800Y12421467D01*
X-635569Y12405824D01*
X-632490Y12386382D01*
X-631875Y12378569D01*
X-631875Y12068931D01*
X-632490Y12061118D01*
X-635568Y12041683D01*
X-636799Y12026040D01*
X-636799Y12010295D01*
X-639231Y11994938D01*
X-644096Y11979965D01*
X-647759Y11964709D01*
X-650221Y11949165D01*
X-655026Y11934379D01*
X-662168Y11920362D01*
X-668174Y11905864D01*
X-673040Y11890888D01*
X-680098Y11877036D01*
X-689350Y11864302D01*
X-697550Y11850922D01*
X-704698Y11836894D01*
X-713831Y11824323D01*
X-724965Y11813189D01*
X-735155Y11801258D01*
X-746723Y11785336D01*
X-751811Y11779379D01*
X-1006731Y11524459D01*
X-1034893Y11468720D01*
X-1024495Y11407142D01*
X-979591Y11363741D01*
X-936021Y11353750D01*
X-718306Y11353750D01*
X-710491Y11353135D01*
X-691056Y11350057D01*
X-675414Y11348826D01*
X-659670Y11348826D01*
X-644313Y11346394D01*
X-629340Y11341529D01*
X-614084Y11337866D01*
X-598540Y11335404D01*
X-583754Y11330599D01*
X-569737Y11323457D01*
X-555239Y11317451D01*
X-540263Y11312585D01*
X-526411Y11305527D01*
X-513677Y11296275D01*
X-500297Y11288075D01*
X-486269Y11280927D01*
X-473698Y11271794D01*
X-462564Y11260660D01*
X-450633Y11250470D01*
X-434711Y11238902D01*
X-428754Y11233814D01*
X-173834Y10978894D01*
X-118095Y10950732D01*
X-56517Y10961130D01*
X-13116Y11006034D01*
X-3125Y11049604D01*
X-3125Y11884559D01*
X-42861Y11964360D01*
X-102371Y12009300D01*
X-109184Y12015512D01*
X-239705Y12158686D01*
X-245251Y12166030D01*
X-347250Y12330764D01*
X-351348Y12338994D01*
X-421335Y12519654D01*
X-423859Y12528522D01*
X-459459Y12718961D01*
X-460308Y12728126D01*
X-460308Y12921874D01*
X-459459Y12931039D01*
X-423859Y13121478D01*
X-421335Y13130346D01*
X-351348Y13311006D01*
X-347250Y13319236D01*
X-245251Y13483970D01*
X-239705Y13491314D01*
X-109184Y13634488D01*
X-102371Y13640700D01*
X52236Y13757453D01*
X60066Y13762301D01*
X233489Y13848655D01*
X242083Y13851985D01*
X428432Y13905005D01*
X437481Y13906697D01*
X630392Y13924573D01*
X639608Y13924573D01*
X832519Y13906697D01*
X841568Y13905005D01*
X1027917Y13851985D01*
X1036511Y13848655D01*
X1209934Y13762301D01*
X1217764Y13757453D01*
X1372371Y13640700D01*
X1379184Y13634488D01*
X1509705Y13491314D01*
X1515251Y13483970D01*
X1617250Y13319236D01*
X1621348Y13311006D01*
X1691335Y13130346D01*
X1693859Y13121478D01*
X1729459Y12931039D01*
X1730308Y12921874D01*
X1730308Y12728126D01*
X1729459Y12718961D01*
X1693859Y12528522D01*
X1691335Y12519654D01*
X1621348Y12338994D01*
X1617250Y12330764D01*
X1515251Y12166030D01*
X1509705Y12158686D01*
X1379184Y12015512D01*
X1372371Y12009300D01*
X1217764Y11892547D01*
X1209934Y11887699D01*
X1036511Y11801345D01*
X1027917Y11798015D01*
X869508Y11752944D01*
X817782Y11717952D01*
X796875Y11656762D01*
X796875Y1750181D01*
X796260Y1742368D01*
X793182Y1722933D01*
X791951Y1707290D01*
X791951Y1691550D01*
X789517Y1676186D01*
X784655Y1661222D01*
X780991Y1645962D01*
X778529Y1630415D01*
X773727Y1615636D01*
X766580Y1601610D01*
X760575Y1587112D01*
X755710Y1572139D01*
X748653Y1558289D01*
X739399Y1545552D01*
X731200Y1532173D01*
X724054Y1518147D01*
X714915Y1505569D01*
X703788Y1494442D01*
X693597Y1482510D01*
X682026Y1466583D01*
X676941Y1460630D01*
X-7349461Y-6565772D01*
X-7378750Y-6636482D01*
X-7378750Y-6742944D01*
X-7379365Y-6750759D01*
X-7382443Y-6770194D01*
X-7383674Y-6785836D01*
X-7383674Y-6801575D01*
X-7386108Y-6816939D01*
X-7390970Y-6831903D01*
X-7394634Y-6847163D01*
X-7397096Y-6862710D01*
X-7401898Y-6877489D01*
X-7409045Y-6891515D01*
X-7415050Y-6906013D01*
X-7419915Y-6920986D01*
X-7426972Y-6934836D01*
X-7436226Y-6947573D01*
X-7444425Y-6960952D01*
X-7451571Y-6974978D01*
X-7460710Y-6987556D01*
X-7471837Y-6998683D01*
X-7482028Y-7010615D01*
X-7493599Y-7026542D01*
X-7498684Y-7032495D01*
X-9239380Y-8773191D01*
X-9245333Y-8778276D01*
X-9261260Y-8789847D01*
X-9273192Y-8800038D01*
X-9284319Y-8811165D01*
X-9296897Y-8820304D01*
X-9310923Y-8827450D01*
X-9324284Y-8835636D01*
X-9325997Y-8836880D01*
X-9333960Y-8847914D01*
X-9343167Y-8850257D01*
X-9343404Y-8849528D01*
X-9365862Y-8856825D01*
X-9380360Y-8862830D01*
X-9394386Y-8869977D01*
X-9409165Y-8874779D01*
X-9424712Y-8877241D01*
X-9439972Y-8880905D01*
X-9454936Y-8885767D01*
X-9470300Y-8888201D01*
X-9486040Y-8888201D01*
X-9501683Y-8889432D01*
X-9521118Y-8892510D01*
X-9528931Y-8893125D01*
X-10111644Y-8893125D01*
X-10182354Y-8922414D01*
X-11873836Y-10613896D01*
X-11903125Y-10684606D01*
X-11903125Y-10949819D01*
X-11903740Y-10957632D01*
X-11906819Y-10977074D01*
X-11908050Y-10992717D01*
X-11908050Y-11008454D01*
X-11910481Y-11023807D01*
X-11915345Y-11038774D01*
X-11919009Y-11054038D01*
X-11921471Y-11069583D01*
X-11926274Y-11084366D01*
X-11933421Y-11098393D01*
X-11939426Y-11112891D01*
X-11944290Y-11127861D01*
X-11951345Y-11141708D01*
X-11960600Y-11154445D01*
X-11968800Y-11167828D01*
X-11975944Y-11181849D01*
X-11985085Y-11194431D01*
X-11996215Y-11205561D01*
X-12006406Y-11217493D01*
X-12017975Y-11233416D01*
X-12023060Y-11239370D01*
X-12262825Y-11479135D01*
X-12291385Y-11561897D01*
X-12288854Y-11582744D01*
X-12288854Y-11594754D01*
X-12306284Y-11738304D01*
X-12309156Y-11749957D01*
X-12350254Y-11858322D01*
X-12351452Y-11884965D01*
X-12370142Y-11901777D01*
X-12448159Y-12014805D01*
X-12456119Y-12023790D01*
X-12564355Y-12119678D01*
X-12574238Y-12126501D01*
X-12702274Y-12193699D01*
X-12713510Y-12197960D01*
X-12853899Y-12232562D01*
X-12865828Y-12234011D01*
X-13010422Y-12234011D01*
X-13010422Y-13358010D01*
X-11707721Y-14660711D01*
X-11637011Y-14690000D01*
X-2571113Y-14690000D01*
X-2500403Y-14660711D01*
X-2339360Y-14499668D01*
X-2310800Y-14416904D01*
X-2316146Y-14372878D01*
X-2316146Y-14360871D01*
X-2298716Y-14217321D01*
X-2295844Y-14205669D01*
X-2259024Y-14108584D01*
X-2256219Y-14046198D01*
X-2290974Y-13994312D01*
X-2352525Y-13973125D01*
X-6539768Y-13973125D01*
X-6610478Y-14002414D01*
X-6620005Y-14011941D01*
X-6625958Y-14017026D01*
X-6641885Y-14028597D01*
X-6653817Y-14038788D01*
X-6664944Y-14049915D01*
X-6677522Y-14059054D01*
X-6691548Y-14066200D01*
X-6704927Y-14074399D01*
X-6717664Y-14083653D01*
X-6731514Y-14090710D01*
X-6746487Y-14095575D01*
X-6760985Y-14101580D01*
X-6775011Y-14108727D01*
X-6789790Y-14113529D01*
X-6805337Y-14115991D01*
X-6820597Y-14119655D01*
X-6835561Y-14124517D01*
X-6850925Y-14126951D01*
X-6866665Y-14126951D01*
X-6882308Y-14128182D01*
X-6901743Y-14131260D01*
X-6909556Y-14131875D01*
X-8331946Y-14131875D01*
X-8402733Y-14163734D01*
X-8403468Y-14162905D01*
X-8406129Y-14165262D01*
X-8406797Y-14165563D01*
X-8407996Y-14166917D01*
X-8516230Y-14262803D01*
X-8526113Y-14269626D01*
X-8654149Y-14336824D01*
X-8665385Y-14341085D01*
X-8805774Y-14375687D01*
X-8817703Y-14377136D01*
X-8962297Y-14377136D01*
X-8974226Y-14375687D01*
X-9114615Y-14341085D01*
X-9125851Y-14336824D01*
X-9253887Y-14269626D01*
X-9263770Y-14262803D01*
X-9343794Y-14191908D01*
X-9401132Y-14167162D01*
X-9461970Y-14181260D01*
X-9492404Y-14209953D01*
X-9511281Y-14237301D01*
X-9519244Y-14246290D01*
X-9627480Y-14342178D01*
X-9637363Y-14349001D01*
X-9765399Y-14416199D01*
X-9776635Y-14420460D01*
X-9917024Y-14455062D01*
X-9928953Y-14456511D01*
X-10073547Y-14456511D01*
X-10085476Y-14455062D01*
X-10225865Y-14420460D01*
X-10237101Y-14416199D01*
X-10365137Y-14349001D01*
X-10375020Y-14342178D01*
X-10483256Y-14246290D01*
X-10491216Y-14237305D01*
X-10573362Y-14118295D01*
X-10578940Y-14107667D01*
X-10630219Y-13972457D01*
X-10633091Y-13960804D01*
X-10639691Y-13906445D01*
X-10666200Y-13849901D01*
X-10715030Y-13821405D01*
X-10860865Y-13785460D01*
X-10872101Y-13781199D01*
X-11000137Y-13714001D01*
X-11010020Y-13707178D01*
X-11118256Y-13611290D01*
X-11126216Y-13602305D01*
X-11208362Y-13483295D01*
X-11213940Y-13472667D01*
X-11265219Y-13337457D01*
X-11268091Y-13325804D01*
X-11285521Y-13182254D01*
X-11285521Y-13170246D01*
X-11268091Y-13026696D01*
X-11265219Y-13015043D01*
X-11213940Y-12879833D01*
X-11208362Y-12869205D01*
X-11126216Y-12750195D01*
X-11118256Y-12741210D01*
X-11010020Y-12645322D01*
X-11000137Y-12638499D01*
X-10872101Y-12571301D01*
X-10860865Y-12567040D01*
X-10742761Y-12537930D01*
X-10695982Y-12511547D01*
X-1079370Y-2894935D01*
X-1073416Y-2889850D01*
X-1057493Y-2878281D01*
X-1045561Y-2868090D01*
X-1034431Y-2856960D01*
X-1021849Y-2847819D01*
X-1007830Y-2840676D01*
X-994447Y-2832476D01*
X-981710Y-2823222D01*
X-967863Y-2816166D01*
X-952892Y-2811302D01*
X-938394Y-2805297D01*
X-924364Y-2798148D01*
X-909585Y-2793346D01*
X-894038Y-2790884D01*
X-878778Y-2787220D01*
X-863812Y-2782357D01*
X-848455Y-2779925D01*
X-832717Y-2779925D01*
X-817074Y-2778694D01*
X-797632Y-2775615D01*
X-789819Y-2775000D01*
X789819Y-2775000D01*
X797634Y-2775615D01*
X817069Y-2778693D01*
X832711Y-2779924D01*
X848450Y-2779924D01*
X863814Y-2782358D01*
X878778Y-2787220D01*
X894038Y-2790884D01*
X909585Y-2793346D01*
X924364Y-2798148D01*
X938390Y-2805295D01*
X952888Y-2811300D01*
X967861Y-2816165D01*
X981711Y-2823222D01*
X994448Y-2832476D01*
X1007827Y-2840675D01*
X1021853Y-2847821D01*
X1034431Y-2856960D01*
X1045558Y-2868087D01*
X1057490Y-2878278D01*
X1073417Y-2889849D01*
X1079370Y-2894934D01*
X1660593Y-3476157D01*
X1716332Y-3504319D01*
X1777910Y-3493921D01*
X1824436Y-3428955D01*
X1827424Y-3429926D01*
X1834720Y-3407472D01*
X1838384Y-3392212D01*
X1840846Y-3376665D01*
X1845648Y-3361886D01*
X1852795Y-3347860D01*
X1858800Y-3333362D01*
X1863665Y-3318389D01*
X1870722Y-3304539D01*
X1879976Y-3291802D01*
X1888175Y-3278423D01*
X1895321Y-3264397D01*
X1904460Y-3251819D01*
X1915587Y-3240692D01*
X1925778Y-3228760D01*
X1937349Y-3212833D01*
X1942434Y-3206880D01*
X2095630Y-3053684D01*
X2101583Y-3048599D01*
X2117510Y-3037028D01*
X2129442Y-3026837D01*
X2140569Y-3015710D01*
X2153147Y-3006571D01*
X2167173Y-2999425D01*
X2180552Y-2991226D01*
X2193289Y-2981972D01*
X2207139Y-2974915D01*
X2222112Y-2970050D01*
X2236610Y-2964045D01*
X2250636Y-2956898D01*
X2265415Y-2952096D01*
X2280962Y-2949634D01*
X2296222Y-2945970D01*
X2311186Y-2941108D01*
X2326550Y-2938674D01*
X2342289Y-2938674D01*
X2357931Y-2937443D01*
X2377366Y-2934365D01*
X2385181Y-2933750D01*
X2615443Y-2933750D01*
X2623258Y-2934365D01*
X2642693Y-2937443D01*
X2658335Y-2938674D01*
X2674079Y-2938674D01*
X2689436Y-2941106D01*
X2704409Y-2945971D01*
X2719665Y-2949634D01*
X2735209Y-2952096D01*
X2749995Y-2956901D01*
X2764012Y-2964043D01*
X2778510Y-2970049D01*
X2793487Y-2974915D01*
X2807338Y-2981973D01*
X2820075Y-2991227D01*
X2833457Y-2999427D01*
X2847476Y-3006570D01*
X2860051Y-3015706D01*
X2871179Y-3026834D01*
X2883111Y-3037025D01*
X2899041Y-3048599D01*
X2904995Y-3053684D01*
X3058191Y-3206880D01*
X3063276Y-3212833D01*
X3074847Y-3228760D01*
X3085038Y-3240692D01*
X3096165Y-3251819D01*
X3105304Y-3264397D01*
X3112450Y-3278423D01*
X3120649Y-3291802D01*
X3129903Y-3304539D01*
X3136960Y-3318389D01*
X3141825Y-3333362D01*
X3147830Y-3347860D01*
X3154977Y-3361886D01*
X3159779Y-3376665D01*
X3162241Y-3392212D01*
X3165905Y-3407472D01*
X3170767Y-3422436D01*
X3173201Y-3437800D01*
X3173201Y-3453540D01*
X3174432Y-3469183D01*
X3177510Y-3488618D01*
X3178125Y-3496431D01*
X3178125Y-3518199D01*
X3197625Y-3577526D01*
X3248520Y-3613715D01*
X3309651Y-3608490D01*
X3310904Y-3612347D01*
X3333362Y-3605050D01*
X3347860Y-3599045D01*
X3361886Y-3591898D01*
X3376665Y-3587096D01*
X3392212Y-3584634D01*
X3407472Y-3580970D01*
X3422436Y-3576108D01*
X3437800Y-3573674D01*
X3453539Y-3573674D01*
X3469181Y-3572443D01*
X3488616Y-3569365D01*
X3496431Y-3568750D01*
X3569446Y-3568750D01*
X3640233Y-3536891D01*
X3640968Y-3537720D01*
X3643629Y-3535363D01*
X3644297Y-3535062D01*
X3645496Y-3533708D01*
X3753730Y-3437822D01*
X3763613Y-3430999D01*
X3891649Y-3363801D01*
X3902885Y-3359540D01*
X4043274Y-3324938D01*
X4055203Y-3323489D01*
X4199797Y-3323489D01*
X4211726Y-3324938D01*
X4352115Y-3359540D01*
X4363351Y-3363801D01*
X4491387Y-3430999D01*
X4501270Y-3437822D01*
X4609506Y-3533710D01*
X4617466Y-3542695D01*
X4699612Y-3661705D01*
X4705190Y-3672333D01*
X4756469Y-3807543D01*
X4759341Y-3819196D01*
X4776771Y-3962746D01*
X4776771Y-3974754D01*
X4759341Y-4118304D01*
X4756469Y-4129957D01*
X4705190Y-4265167D01*
X4699612Y-4275795D01*
X4617466Y-4394805D01*
X4609506Y-4403790D01*
X4501270Y-4499678D01*
X4491387Y-4506501D01*
X4363351Y-4573699D01*
X4352115Y-4577960D01*
X4211726Y-4612562D01*
X4199797Y-4614011D01*
X4055203Y-4614011D01*
X4043274Y-4612562D01*
X3902885Y-4577960D01*
X3891649Y-4573699D01*
X3808404Y-4530009D01*
X3746810Y-4519705D01*
X3681032Y-4559775D01*
X3676273Y-4566325D01*
X3668073Y-4579707D01*
X3660930Y-4593726D01*
X3651794Y-4606301D01*
X3640666Y-4617429D01*
X3630475Y-4629361D01*
X3618901Y-4645291D01*
X3613816Y-4651245D01*
X3460620Y-4804441D01*
X3454666Y-4809526D01*
X3438736Y-4821100D01*
X3426804Y-4831291D01*
X3415676Y-4842419D01*
X3403101Y-4851555D01*
X3389082Y-4858698D01*
X3375700Y-4866898D01*
X3362963Y-4876152D01*
X3349112Y-4883210D01*
X3334135Y-4888076D01*
X3319637Y-4894082D01*
X3305620Y-4901224D01*
X3290834Y-4906029D01*
X3275290Y-4908491D01*
X3260034Y-4912154D01*
X3245061Y-4917019D01*
X3229704Y-4919451D01*
X3213959Y-4919451D01*
X3198316Y-4920682D01*
X3178881Y-4923760D01*
X3171068Y-4924375D01*
X2940806Y-4924375D01*
X2932993Y-4923760D01*
X2913558Y-4920682D01*
X2897915Y-4919451D01*
X2882175Y-4919451D01*
X2866811Y-4917017D01*
X2851847Y-4912155D01*
X2836587Y-4908491D01*
X2821040Y-4906029D01*
X2806261Y-4901227D01*
X2792235Y-4894080D01*
X2777737Y-4888075D01*
X2762764Y-4883210D01*
X2748914Y-4876153D01*
X2736177Y-4866899D01*
X2722798Y-4858700D01*
X2708772Y-4851554D01*
X2696194Y-4842415D01*
X2685067Y-4831288D01*
X2673135Y-4821097D01*
X2657208Y-4809526D01*
X2651255Y-4804441D01*
X2498059Y-4651245D01*
X2492974Y-4645291D01*
X2481400Y-4629361D01*
X2471209Y-4617429D01*
X2460081Y-4606301D01*
X2450945Y-4593726D01*
X2443802Y-4579707D01*
X2435602Y-4566325D01*
X2426348Y-4553588D01*
X2419290Y-4539737D01*
X2414424Y-4524760D01*
X2408418Y-4510262D01*
X2401276Y-4496245D01*
X2396471Y-4481458D01*
X2395240Y-4473686D01*
X2366700Y-4418140D01*
X2310771Y-4390357D01*
X2251074Y-4400228D01*
X2237862Y-4406960D01*
X2222885Y-4411826D01*
X2208387Y-4417832D01*
X2194370Y-4424974D01*
X2179584Y-4429779D01*
X2164040Y-4432241D01*
X2148784Y-4435904D01*
X2133811Y-4440769D01*
X2118454Y-4443201D01*
X2102709Y-4443201D01*
X2087066Y-4444432D01*
X2067631Y-4447510D01*
X2059818Y-4448125D01*
X1670806Y-4448125D01*
X1662993Y-4447510D01*
X1643551Y-4444431D01*
X1627908Y-4443200D01*
X1612170Y-4443200D01*
X1596813Y-4440768D01*
X1581846Y-4435905D01*
X1566591Y-4432242D01*
X1551040Y-4429779D01*
X1536260Y-4424976D01*
X1522231Y-4417828D01*
X1507733Y-4411823D01*
X1492762Y-4406959D01*
X1478911Y-4399901D01*
X1466178Y-4390650D01*
X1452796Y-4382450D01*
X1438773Y-4375305D01*
X1426198Y-4366169D01*
X1415066Y-4355037D01*
X1403134Y-4344846D01*
X1387207Y-4333275D01*
X1381254Y-4328190D01*
X657353Y-3604289D01*
X586643Y-3575000D01*
X557003Y-3575000D01*
X497676Y-3594500D01*
X461487Y-3645395D01*
X463503Y-3710461D01*
X470158Y-3728008D01*
X492948Y-3763256D01*
X4753614Y-8023922D01*
X4754263Y-8025879D01*
X4758692Y-8030260D01*
X4837949Y-8133550D01*
X4844447Y-8144805D01*
X4894376Y-8265344D01*
X4897740Y-8277900D01*
X4915196Y-8410494D01*
X4915625Y-8417031D01*
X4915625Y-9271876D01*
X4935125Y-9331203D01*
X5015624Y-9371875D01*
X8700136Y-9371875D01*
X8770846Y-9342586D01*
X11723836Y-6389596D01*
X11753125Y-6318886D01*
X11753125Y-3465867D01*
X11735425Y-3409063D01*
X11731014Y-3402673D01*
X11725435Y-3392042D01*
X11674156Y-3256832D01*
X11671284Y-3245179D01*
X11653854Y-3101629D01*
X11653854Y-3089621D01*
X11671284Y-2946071D01*
X11674156Y-2934418D01*
X11725435Y-2799208D01*
X11731013Y-2788580D01*
X11813159Y-2669570D01*
X11821119Y-2660585D01*
X11929355Y-2564697D01*
X11939238Y-2557874D01*
X12067274Y-2490676D01*
X12078510Y-2486415D01*
X12218899Y-2451813D01*
X12230828Y-2450364D01*
X12375422Y-2450364D01*
X12387351Y-2451813D01*
X12527740Y-2486415D01*
X12538976Y-2490676D01*
X12667012Y-2557874D01*
X12676895Y-2564697D01*
X12785131Y-2660585D01*
X12793091Y-2669570D01*
X12875237Y-2788580D01*
X12880815Y-2799208D01*
X12932094Y-2934418D01*
X12934966Y-2946071D01*
X12952396Y-3089621D01*
X12952396Y-3101629D01*
X12934966Y-3245179D01*
X12932094Y-3256832D01*
X12880815Y-3392042D01*
X12875236Y-3402673D01*
X12870825Y-3409063D01*
X12853125Y-3465867D01*
X12853125Y-6584844D01*
X12852696Y-6591379D01*
X12850959Y-6604575D01*
X12850959Y-6604577D01*
X12835240Y-6723984D01*
X12831879Y-6736526D01*
X12781947Y-6857071D01*
X12775449Y-6868325D01*
X12694026Y-6974438D01*
X12689721Y-6979347D01*
X9360597Y-10308471D01*
X9355688Y-10312776D01*
X9249575Y-10394199D01*
X9238321Y-10400697D01*
X9117776Y-10450629D01*
X9105234Y-10453990D01*
X8972614Y-10471449D01*
X8966105Y-10471875D01*
X6999999Y-10471875D01*
X6940672Y-10491375D01*
X6900000Y-10571874D01*
X6900000Y-13716876D01*
X6919500Y-13776203D01*
X6999999Y-13816875D01*
X11319510Y-13816875D01*
X11390220Y-13787586D01*
X12705652Y-12472154D01*
X12710561Y-12467849D01*
X12816674Y-12386426D01*
X12827928Y-12379928D01*
X12948473Y-12329996D01*
X12961015Y-12326635D01*
X13093635Y-12309176D01*
X13100144Y-12308750D01*
X13525429Y-12308750D01*
X13571901Y-12297296D01*
X13654774Y-12253801D01*
X13666010Y-12249540D01*
X13806399Y-12214938D01*
X13818328Y-12213489D01*
X13962922Y-12213489D01*
X13974851Y-12214938D01*
X14115240Y-12249540D01*
X14126476Y-12253801D01*
X14254512Y-12320999D01*
X14264395Y-12327822D01*
X14372631Y-12423710D01*
X14380591Y-12432695D01*
X14462737Y-12551705D01*
X14468315Y-12562333D01*
X14519594Y-12697543D01*
X14522466Y-12709196D01*
X14539896Y-12852746D01*
X14539896Y-12864754D01*
X14522466Y-13008304D01*
X14519594Y-13019957D01*
X14468315Y-13155167D01*
X14462737Y-13165795D01*
X14380591Y-13284805D01*
X14372631Y-13293790D01*
X14264395Y-13389678D01*
X14254512Y-13396501D01*
X14126476Y-13463699D01*
X14115240Y-13467960D01*
X13974851Y-13502562D01*
X13962922Y-13504011D01*
X13818328Y-13504011D01*
X13806399Y-13502562D01*
X13666010Y-13467960D01*
X13654774Y-13463699D01*
X13571901Y-13420204D01*
X13525429Y-13408750D01*
X13366113Y-13408750D01*
X13295403Y-13438039D01*
X12169868Y-14563574D01*
X12141706Y-14619313D01*
X12158283Y-14691093D01*
X12160860Y-14694826D01*
X12166440Y-14705458D01*
X12217719Y-14840668D01*
X12220591Y-14852321D01*
X12238021Y-14995871D01*
X12238021Y-15007879D01*
X12220591Y-15151429D01*
X12217719Y-15163082D01*
X12166440Y-15298292D01*
X12160862Y-15308920D01*
X12078716Y-15427930D01*
X12070756Y-15436915D01*
X11962520Y-15532803D01*
X11952637Y-15539626D01*
X11824601Y-15606824D01*
X11813365Y-15611085D01*
X11672976Y-15645687D01*
X11661047Y-15647136D01*
X11516453Y-15647136D01*
X11504524Y-15645687D01*
X11364135Y-15611085D01*
X11352899Y-15606824D01*
X11224863Y-15539626D01*
X11214980Y-15532803D01*
X11106744Y-15436915D01*
X11098784Y-15427930D01*
X11016638Y-15308920D01*
X11011060Y-15298292D01*
X10959781Y-15163082D01*
X10956909Y-15151429D01*
X10939108Y-15004821D01*
X10912599Y-14948276D01*
X10839838Y-14916875D01*
X5888749Y-14916875D01*
X5829422Y-14936375D01*
X5788750Y-15016874D01*
X5788750Y-15584133D01*
X5806450Y-15640937D01*
X5810861Y-15647327D01*
X5816440Y-15657958D01*
X5867719Y-15793168D01*
X5870591Y-15804821D01*
X5888021Y-15948371D01*
X5888021Y-15960379D01*
X5870591Y-16103929D01*
X5867719Y-16115582D01*
X5816440Y-16250792D01*
X5810862Y-16261420D01*
X5728716Y-16380430D01*
X5720756Y-16389415D01*
X5612520Y-16485303D01*
X5602636Y-16492126D01*
X5565806Y-16511456D01*
X5522337Y-16556294D01*
X5513945Y-16618177D01*
X5543903Y-16672971D01*
X5612278Y-16700000D01*
X8614262Y-16700000D01*
X8673589Y-16680500D01*
X8709778Y-16629605D01*
X8707763Y-16564540D01*
X8657906Y-16433079D01*
X8655034Y-16421429D01*
X8637604Y-16277879D01*
X8637604Y-16265871D01*
X8655034Y-16122321D01*
X8657906Y-16110668D01*
X8709185Y-15975458D01*
X8714763Y-15964830D01*
X8796909Y-15845820D01*
X8804869Y-15836835D01*
X8913105Y-15740947D01*
X8922988Y-15734124D01*
X9051024Y-15666926D01*
X9062260Y-15662665D01*
X9202649Y-15628063D01*
X9214578Y-15626614D01*
X9359172Y-15626614D01*
X9371101Y-15628063D01*
X9511490Y-15662665D01*
X9522726Y-15666926D01*
X9650762Y-15734124D01*
X9660645Y-15740947D01*
X9768879Y-15836833D01*
X9770078Y-15838187D01*
X9770746Y-15838488D01*
X9773407Y-15840845D01*
X9774142Y-15840016D01*
X9844929Y-15871875D01*
X12254768Y-15871875D01*
X12325478Y-15842586D01*
X16001336Y-12166728D01*
X16030625Y-12096018D01*
X16030625Y-10798931D01*
X16031240Y-10791118D01*
X16034318Y-10771683D01*
X16035549Y-10756040D01*
X16035549Y-10740295D01*
X16037981Y-10724938D01*
X16042846Y-10709965D01*
X16046509Y-10694709D01*
X16048971Y-10679165D01*
X16053776Y-10664379D01*
X16060918Y-10650362D01*
X16066924Y-10635864D01*
X16071790Y-10620888D01*
X16078848Y-10607036D01*
X16088100Y-10594302D01*
X16096300Y-10580922D01*
X16103448Y-10566894D01*
X16112581Y-10554323D01*
X16123715Y-10543189D01*
X16133905Y-10531258D01*
X16145473Y-10515336D01*
X16150561Y-10509379D01*
X16203373Y-10456567D01*
X16231535Y-10400828D01*
X16221137Y-10339250D01*
X16176233Y-10295849D01*
X16111871Y-10288043D01*
X15963743Y-10319529D01*
X15953385Y-10320618D01*
X15796615Y-10320618D01*
X15786255Y-10319529D01*
X15632912Y-10286935D01*
X15622999Y-10283714D01*
X15479791Y-10219953D01*
X15470757Y-10214737D01*
X15343934Y-10122595D01*
X15336190Y-10115622D01*
X15314395Y-10091417D01*
X15260206Y-10060377D01*
X15193611Y-10069785D01*
X15078980Y-10129947D01*
X15067740Y-10134210D01*
X14927351Y-10168812D01*
X14915422Y-10170261D01*
X14770828Y-10170261D01*
X14758899Y-10168812D01*
X14618510Y-10134210D01*
X14607274Y-10129949D01*
X14479238Y-10062751D01*
X14469355Y-10055928D01*
X14361119Y-9960040D01*
X14353159Y-9951055D01*
X14271013Y-9832045D01*
X14265435Y-9821417D01*
X14214156Y-9686207D01*
X14211284Y-9674554D01*
X14193854Y-9531004D01*
X14193854Y-9518996D01*
X14211284Y-9375446D01*
X14214156Y-9363793D01*
X14265435Y-9228583D01*
X14271013Y-9217955D01*
X14353159Y-9098945D01*
X14361119Y-9089960D01*
X14469355Y-8994072D01*
X14479238Y-8987249D01*
X14607274Y-8920051D01*
X14618510Y-8915790D01*
X14758899Y-8881188D01*
X14770828Y-8879739D01*
X14915422Y-8879739D01*
X14927351Y-8881188D01*
X15067740Y-8915790D01*
X15078980Y-8920053D01*
X15193611Y-8980215D01*
X15255204Y-8990519D01*
X15314395Y-8958583D01*
X15336190Y-8934378D01*
X15343934Y-8927405D01*
X15470757Y-8835263D01*
X15479791Y-8830047D01*
X15622999Y-8766286D01*
X15632912Y-8763065D01*
X15786255Y-8730471D01*
X15796615Y-8729382D01*
X15953385Y-8729382D01*
X15963745Y-8730471D01*
X16117088Y-8763065D01*
X16127001Y-8766286D01*
X16270209Y-8830047D01*
X16279243Y-8835263D01*
X16406066Y-8927405D01*
X16413808Y-8934375D01*
X16491312Y-9020452D01*
X16545501Y-9051492D01*
X16607539Y-9044330D01*
X16653231Y-9001760D01*
X16665625Y-8953539D01*
X16665625Y-8191461D01*
X16646125Y-8132134D01*
X16595230Y-8095945D01*
X16532789Y-8097007D01*
X16491312Y-8124548D01*
X16413808Y-8210625D01*
X16406066Y-8217595D01*
X16279243Y-8309737D01*
X16270209Y-8314953D01*
X16127001Y-8378714D01*
X16117088Y-8381935D01*
X15963745Y-8414529D01*
X15953385Y-8415618D01*
X15796615Y-8415618D01*
X15786255Y-8414529D01*
X15632912Y-8381935D01*
X15622999Y-8378714D01*
X15479791Y-8314953D01*
X15470757Y-8309737D01*
X15343934Y-8217595D01*
X15336190Y-8210622D01*
X15314395Y-8186417D01*
X15260206Y-8155377D01*
X15193611Y-8164785D01*
X15078980Y-8224947D01*
X15067740Y-8229210D01*
X14927351Y-8263812D01*
X14915422Y-8265261D01*
X14770828Y-8265261D01*
X14758899Y-8263812D01*
X14618510Y-8229210D01*
X14607274Y-8224949D01*
X14479238Y-8157751D01*
X14469355Y-8150928D01*
X14361119Y-8055040D01*
X14353159Y-8046055D01*
X14271013Y-7927045D01*
X14265435Y-7916417D01*
X14214156Y-7781207D01*
X14211284Y-7769554D01*
X14193854Y-7626004D01*
X14193854Y-7613996D01*
X14211284Y-7470446D01*
X14214156Y-7458793D01*
X14265435Y-7323583D01*
X14271013Y-7312955D01*
X14353159Y-7193945D01*
X14361119Y-7184960D01*
X14457541Y-7099537D01*
X14489017Y-7045600D01*
X14482355Y-6983506D01*
X14457541Y-6949837D01*
X14361119Y-6864415D01*
X14353159Y-6855430D01*
X14271013Y-6736420D01*
X14265435Y-6725792D01*
X14214156Y-6590582D01*
X14211284Y-6578929D01*
X14193854Y-6435379D01*
X14193854Y-6423371D01*
X14211284Y-6279821D01*
X14214156Y-6268168D01*
X14265435Y-6132958D01*
X14271013Y-6122330D01*
X14348596Y-6009931D01*
X14366249Y-5950028D01*
X14348596Y-5896319D01*
X14271013Y-5783920D01*
X14265435Y-5773292D01*
X14214156Y-5638082D01*
X14211284Y-5626429D01*
X14193854Y-5482879D01*
X14193854Y-5470871D01*
X14211284Y-5327321D01*
X14214156Y-5315668D01*
X14265435Y-5180458D01*
X14271013Y-5169830D01*
X14353159Y-5050820D01*
X14361119Y-5041835D01*
X14409438Y-4999028D01*
X14443125Y-4924178D01*
X14443125Y-4017106D01*
X14413836Y-3946396D01*
X11690479Y-1223039D01*
X11619769Y-1193750D01*
X9176481Y-1193750D01*
X9105771Y-1223039D01*
X8619995Y-1708815D01*
X8614042Y-1713900D01*
X8598115Y-1725471D01*
X8586183Y-1735662D01*
X8575051Y-1746794D01*
X8562476Y-1755930D01*
X8548453Y-1763075D01*
X8535071Y-1771275D01*
X8522337Y-1780527D01*
X8508487Y-1787584D01*
X8493517Y-1792448D01*
X8479019Y-1798453D01*
X8464987Y-1805603D01*
X8450212Y-1810404D01*
X8434652Y-1812868D01*
X8419394Y-1816531D01*
X8404433Y-1821392D01*
X8389078Y-1823824D01*
X8373347Y-1823824D01*
X8357704Y-1825055D01*
X8338256Y-1828135D01*
X8330443Y-1828750D01*
X3970128Y-1828750D01*
X3910801Y-1848250D01*
X3874612Y-1899145D01*
X3876628Y-1964210D01*
X3883343Y-1981914D01*
X3886216Y-1993571D01*
X3903646Y-2137121D01*
X3903646Y-2149129D01*
X3886216Y-2292679D01*
X3883344Y-2304332D01*
X3832065Y-2439542D01*
X3826487Y-2450170D01*
X3744341Y-2569180D01*
X3736381Y-2578165D01*
X3628145Y-2674053D01*
X3618262Y-2680876D01*
X3490226Y-2748074D01*
X3478990Y-2752335D01*
X3338601Y-2786937D01*
X3326672Y-2788386D01*
X3182078Y-2788386D01*
X3170149Y-2786937D01*
X3029760Y-2752335D01*
X3018524Y-2748074D01*
X2890488Y-2680876D01*
X2880605Y-2674053D01*
X2772371Y-2578167D01*
X2771172Y-2576813D01*
X2770504Y-2576512D01*
X2767843Y-2574155D01*
X2767108Y-2574984D01*
X2696321Y-2543125D01*
X-1301018Y-2543125D01*
X-1371728Y-2572414D01*
X-8445629Y-9646315D01*
X-8451582Y-9651400D01*
X-8467509Y-9662971D01*
X-8479441Y-9673162D01*
X-8490573Y-9684294D01*
X-8503148Y-9693430D01*
X-8517171Y-9700575D01*
X-8530553Y-9708775D01*
X-8543286Y-9718026D01*
X-8557137Y-9725084D01*
X-8572108Y-9729948D01*
X-8586606Y-9735953D01*
X-8600635Y-9743101D01*
X-8615415Y-9747904D01*
X-8630966Y-9750367D01*
X-8646221Y-9754030D01*
X-8661188Y-9758893D01*
X-8676545Y-9761325D01*
X-8692283Y-9761325D01*
X-8707926Y-9762556D01*
X-8727368Y-9765635D01*
X-8735181Y-9766250D01*
X-8841644Y-9766250D01*
X-8912354Y-9795539D01*
X-11397586Y-12280771D01*
X-11426875Y-12351481D01*
X-11426875Y-12537318D01*
X-11427490Y-12545131D01*
X-11430569Y-12564573D01*
X-11431800Y-12580216D01*
X-11431800Y-12595953D01*
X-11434232Y-12611310D01*
X-11439095Y-12626277D01*
X-11442758Y-12641533D01*
X-11445221Y-12657084D01*
X-11450024Y-12671863D01*
X-11457171Y-12685890D01*
X-11463178Y-12700392D01*
X-11468042Y-12715363D01*
X-11475097Y-12729210D01*
X-11481984Y-12738689D01*
X-11500352Y-12809518D01*
X-11495104Y-12852744D01*
X-11495104Y-12864754D01*
X-11512534Y-13008304D01*
X-11515406Y-13019957D01*
X-11566685Y-13155167D01*
X-11572263Y-13165795D01*
X-11654409Y-13284805D01*
X-11662369Y-13293790D01*
X-11770605Y-13389678D01*
X-11780488Y-13396501D01*
X-11908524Y-13463699D01*
X-11919760Y-13467960D01*
X-12060149Y-13502562D01*
X-12072078Y-13504011D01*
X-12216672Y-13504011D01*
X-12228601Y-13502562D01*
X-12368990Y-13467960D01*
X-12380226Y-13463699D01*
X-12508262Y-13396501D01*
X-12518145Y-13389678D01*
X-12626381Y-13293790D01*
X-12634341Y-13284805D01*
X-12716487Y-13165795D01*
X-12722065Y-13155167D01*
X-12773344Y-13019957D01*
X-12776216Y-13008304D01*
X-12793646Y-12864754D01*
X-12793646Y-12852746D01*
X-12776216Y-12709196D01*
X-12773344Y-12697543D01*
X-12722065Y-12562333D01*
X-12716487Y-12551705D01*
X-12634341Y-12432695D01*
X-12626381Y-12423710D01*
X-12518145Y-12327822D01*
X-12508262Y-12320999D01*
X-12380226Y-12253801D01*
X-12368990Y-12249540D01*
X-12302284Y-12233099D01*
X-12249347Y-12199968D01*
X-12226524Y-12143845D01*
X-12226261Y-12140496D01*
X-12223179Y-12121039D01*
X-12221948Y-12105396D01*
X-12221948Y-12089671D01*
X-12219515Y-12074312D01*
X-12214657Y-12059358D01*
X-12210994Y-12044103D01*
X-12208529Y-12028540D01*
X-12203726Y-12013760D01*
X-12198744Y-12003982D01*
X-12193448Y-11969788D01*
X-12175852Y-11952560D01*
X-12169401Y-11943681D01*
X-12161202Y-11930302D01*
X-12154053Y-11916272D01*
X-12144915Y-11903694D01*
X-12133785Y-11892564D01*
X-12123594Y-11880631D01*
X-12112031Y-11864715D01*
X-12106940Y-11858755D01*
X-9334369Y-9086184D01*
X-9328415Y-9081099D01*
X-9312492Y-9069530D01*
X-9300560Y-9059339D01*
X-9289427Y-9048206D01*
X-9276856Y-9039073D01*
X-9262826Y-9031924D01*
X-9249459Y-9023734D01*
X-9247749Y-9022492D01*
X-9239790Y-9011462D01*
X-9230584Y-9009120D01*
X-9230347Y-9009848D01*
X-9207895Y-9002553D01*
X-9193397Y-8996548D01*
X-9179363Y-8989397D01*
X-9164588Y-8984596D01*
X-9149035Y-8982133D01*
X-9133777Y-8978470D01*
X-9118806Y-8973606D01*
X-9103452Y-8971174D01*
X-9087711Y-8971174D01*
X-9072069Y-8969943D01*
X-9052634Y-8966865D01*
X-9044819Y-8966250D01*
X-8938357Y-8966250D01*
X-8867647Y-8936961D01*
X-1793745Y-1863059D01*
X-1787792Y-1857974D01*
X-1771865Y-1846403D01*
X-1759933Y-1836212D01*
X-1748806Y-1825085D01*
X-1736228Y-1815946D01*
X-1722202Y-1808800D01*
X-1708823Y-1800601D01*
X-1696086Y-1791347D01*
X-1682236Y-1784290D01*
X-1667263Y-1779425D01*
X-1652765Y-1773420D01*
X-1638739Y-1766273D01*
X-1623960Y-1761471D01*
X-1608413Y-1759009D01*
X-1593153Y-1755345D01*
X-1578189Y-1750483D01*
X-1562825Y-1748049D01*
X-1547086Y-1748049D01*
X-1531444Y-1746818D01*
X-1512009Y-1743740D01*
X-1504194Y-1743125D01*
X1189247Y-1743125D01*
X1248574Y-1723625D01*
X1284763Y-1672730D01*
X1282747Y-1607665D01*
X1276032Y-1589961D01*
X1273159Y-1578304D01*
X1255729Y-1434754D01*
X1255729Y-1422746D01*
X1273159Y-1279196D01*
X1276031Y-1267543D01*
X1327310Y-1132333D01*
X1332888Y-1121705D01*
X1415031Y-1002699D01*
X1422994Y-993710D01*
X1531230Y-897822D01*
X1541113Y-890999D01*
X1669149Y-823801D01*
X1680385Y-819540D01*
X1820774Y-784938D01*
X1832703Y-783489D01*
X1977297Y-783489D01*
X1989226Y-784938D01*
X2129615Y-819540D01*
X2140851Y-823801D01*
X2268887Y-890999D01*
X2278770Y-897822D01*
X2387004Y-993708D01*
X2388203Y-995062D01*
X2388871Y-995363D01*
X2391532Y-997720D01*
X2392267Y-996891D01*
X2463054Y-1028750D01*
X3793520Y-1028750D01*
X3852847Y-1009250D01*
X3889036Y-958355D01*
X3887974Y-895914D01*
X3864230Y-858041D01*
X2403603Y602586D01*
X2332893Y631875D01*
X2066179Y631875D01*
X1995392Y600016D01*
X1994657Y600845D01*
X1991996Y598488D01*
X1991328Y598187D01*
X1990129Y596833D01*
X1881895Y500947D01*
X1872012Y494124D01*
X1743976Y426926D01*
X1732740Y422665D01*
X1592351Y388063D01*
X1580422Y386614D01*
X1435828Y386614D01*
X1423899Y388063D01*
X1283510Y422665D01*
X1272274Y426926D01*
X1144238Y494124D01*
X1134355Y500947D01*
X1026119Y596835D01*
X1018159Y605820D01*
X936013Y724830D01*
X930435Y735458D01*
X879156Y870668D01*
X876284Y882321D01*
X858854Y1025871D01*
X858854Y1037879D01*
X876284Y1181429D01*
X879156Y1193082D01*
X930435Y1328292D01*
X936013Y1338920D01*
X1018159Y1457930D01*
X1026119Y1466915D01*
X1134355Y1562803D01*
X1144238Y1569626D01*
X1272274Y1636824D01*
X1283510Y1641085D01*
X1423899Y1675687D01*
X1435828Y1677136D01*
X1580422Y1677136D01*
X1592351Y1675687D01*
X1732740Y1641085D01*
X1743976Y1636824D01*
X1872012Y1569626D01*
X1881895Y1562803D01*
X1990129Y1466917D01*
X1991328Y1465563D01*
X1991996Y1465262D01*
X1994657Y1462905D01*
X1995392Y1463734D01*
X2066179Y1431875D01*
X2536068Y1431875D01*
X2543883Y1431260D01*
X2563318Y1428182D01*
X2578960Y1426951D01*
X2594704Y1426951D01*
X2610061Y1424519D01*
X2625034Y1419654D01*
X2640290Y1415991D01*
X2655834Y1413529D01*
X2670620Y1408724D01*
X2684637Y1401582D01*
X2699135Y1395576D01*
X2714111Y1390710D01*
X2727963Y1383652D01*
X2740697Y1374400D01*
X2754077Y1366200D01*
X2768105Y1359052D01*
X2780676Y1349919D01*
X2791810Y1338785D01*
X2803741Y1328595D01*
X2819663Y1317027D01*
X2825620Y1311939D01*
X4660770Y-523211D01*
X4731480Y-552500D01*
X6031122Y-552500D01*
X6090449Y-533000D01*
X6126638Y-482105D01*
X6124622Y-417040D01*
X6117907Y-399336D01*
X6115034Y-387679D01*
X6097604Y-244129D01*
X6097604Y-232121D01*
X6115034Y-88571D01*
X6117906Y-76918D01*
X6169185Y58292D01*
X6174763Y68920D01*
X6256909Y187930D01*
X6264869Y196915D01*
X6291313Y220342D01*
X6325000Y295192D01*
X6325000Y818676D01*
X6305500Y878003D01*
X6269574Y908192D01*
X6150055Y967704D01*
X6142242Y972542D01*
X5987629Y1089300D01*
X5980816Y1095512D01*
X5850295Y1238686D01*
X5844749Y1246030D01*
X5742750Y1410764D01*
X5738652Y1418994D01*
X5668665Y1599654D01*
X5666141Y1608522D01*
X5630541Y1798961D01*
X5629692Y1808126D01*
X5629692Y2001874D01*
X5630541Y2011039D01*
X5666141Y2201478D01*
X5668665Y2210346D01*
X5738652Y2391006D01*
X5742750Y2399236D01*
X5844749Y2563970D01*
X5850295Y2571314D01*
X5980816Y2714488D01*
X5987629Y2720700D01*
X6145872Y2840199D01*
X6181465Y2891513D01*
X6179673Y2953937D01*
X6145872Y2999801D01*
X5987629Y3119300D01*
X5980816Y3125512D01*
X5850295Y3268686D01*
X5844749Y3276030D01*
X5742750Y3440764D01*
X5738652Y3448994D01*
X5668665Y3629654D01*
X5666141Y3638522D01*
X5630541Y3828961D01*
X5629692Y3838126D01*
X5629692Y4031874D01*
X5630541Y4041039D01*
X5666141Y4231478D01*
X5668665Y4240346D01*
X5738652Y4421006D01*
X5742750Y4429236D01*
X5800566Y4522613D01*
X5815218Y4583320D01*
X5790998Y4640881D01*
X5715545Y4675255D01*
X5711435Y4675255D01*
X5462399Y4693066D01*
X5455344Y4694080D01*
X5211364Y4747155D01*
X5204538Y4749160D01*
X4970596Y4836415D01*
X4964123Y4839371D01*
X4744977Y4959035D01*
X4738988Y4962884D01*
X4539110Y5112510D01*
X4533727Y5117175D01*
X4357175Y5293727D01*
X4352510Y5299110D01*
X4202884Y5498988D01*
X4199035Y5504977D01*
X4079371Y5724123D01*
X4076415Y5730596D01*
X3989160Y5964538D01*
X3987155Y5971364D01*
X3934080Y6215344D01*
X3933066Y6222399D01*
X3915255Y6471435D01*
X3915255Y6478565D01*
X3933066Y6727601D01*
X3934080Y6734656D01*
X3987155Y6978636D01*
X3989160Y6985462D01*
X4076415Y7219404D01*
X4079371Y7225877D01*
X4199035Y7445023D01*
X4202884Y7451012D01*
X4352510Y7650890D01*
X4357175Y7656273D01*
X4440392Y7739490D01*
X4440392Y14265427D01*
X4247481Y14283303D01*
X4238432Y14284995D01*
X4052083Y14338015D01*
X4043489Y14341345D01*
X3870066Y14427699D01*
X3862236Y14432547D01*
X3707629Y14549300D01*
X3700816Y14555512D01*
X3570295Y14698686D01*
X3564749Y14706030D01*
X3462750Y14870764D01*
X3458652Y14878994D01*
X3388665Y15059654D01*
X3386141Y15068522D01*
X3350541Y15258961D01*
X3349692Y15268126D01*
X3349692Y15461874D01*
X3350541Y15471039D01*
X3386141Y15661478D01*
X3388665Y15670346D01*
X3458652Y15851006D01*
X3462750Y15859236D01*
X3564749Y16023970D01*
X3570295Y16031314D01*
X3700816Y16174488D01*
X3707629Y16180700D01*
X3862236Y16297453D01*
X3870066Y16302301D01*
X4043489Y16388655D01*
X4052083Y16391985D01*
X4238432Y16445005D01*
X4247481Y16446697D01*
X4440392Y16464573D01*
X4449608Y16464573D01*
X4642519Y16446697D01*
X4651568Y16445005D01*
X4837917Y16391985D01*
X4846511Y16388655D01*
X5019934Y16302301D01*
X5027764Y16297453D01*
X5182371Y16180700D01*
X5189184Y16174488D01*
X5319705Y16031314D01*
X5325251Y16023970D01*
X5427250Y15859236D01*
X5431348Y15851006D01*
X5501335Y15670346D01*
X5503859Y15661478D01*
X5539459Y15471039D01*
X5540308Y15461874D01*
X5540308Y15268126D01*
X5539459Y15258961D01*
X5503859Y15068522D01*
X5501335Y15059654D01*
X5431348Y14878994D01*
X5427250Y14870764D01*
X5325251Y14706030D01*
X5319705Y14698686D01*
X5189184Y14555512D01*
X5182371Y14549300D01*
X5027764Y14432547D01*
X5019934Y14427699D01*
X4846511Y14341345D01*
X4837917Y14338015D01*
X4651568Y14284995D01*
X4642519Y14283303D01*
X4449608Y14265427D01*
X4440392Y14265427D01*
X4440392Y7739490D01*
X4533727Y7832825D01*
X4539110Y7837490D01*
X4738988Y7987116D01*
X4744977Y7990965D01*
X4964123Y8110629D01*
X4970596Y8113585D01*
X5204538Y8200840D01*
X5211364Y8202845D01*
X5455344Y8255920D01*
X5462399Y8256934D01*
X5710392Y8274670D01*
X5710392Y11725427D01*
X5517481Y11743303D01*
X5508432Y11744995D01*
X5322083Y11798015D01*
X5313489Y11801345D01*
X5140066Y11887699D01*
X5132236Y11892547D01*
X4977629Y12009300D01*
X4970816Y12015512D01*
X4840295Y12158686D01*
X4834749Y12166030D01*
X4732750Y12330764D01*
X4728652Y12338994D01*
X4658665Y12519654D01*
X4656141Y12528522D01*
X4620541Y12718961D01*
X4619692Y12728126D01*
X4619692Y12921874D01*
X4620541Y12931039D01*
X4656141Y13121478D01*
X4658665Y13130346D01*
X4728652Y13311006D01*
X4732750Y13319236D01*
X4834749Y13483970D01*
X4840295Y13491314D01*
X4970816Y13634488D01*
X4977629Y13640700D01*
X5132236Y13757453D01*
X5140066Y13762301D01*
X5313489Y13848655D01*
X5322083Y13851985D01*
X5508432Y13905005D01*
X5517481Y13906697D01*
X5710392Y13924573D01*
X5719608Y13924573D01*
X5912519Y13906697D01*
X5921568Y13905005D01*
X6107917Y13851985D01*
X6116511Y13848655D01*
X6289934Y13762301D01*
X6297764Y13757453D01*
X6452371Y13640700D01*
X6459184Y13634488D01*
X6589705Y13491314D01*
X6595251Y13483970D01*
X6697250Y13319236D01*
X6701348Y13311006D01*
X6771335Y13130346D01*
X6773859Y13121478D01*
X6809459Y12931039D01*
X6810308Y12921874D01*
X6810308Y12728126D01*
X6809459Y12718961D01*
X6773859Y12528522D01*
X6771335Y12519654D01*
X6701348Y12338994D01*
X6697250Y12330764D01*
X6595251Y12166030D01*
X6589705Y12158686D01*
X6459184Y12015512D01*
X6452371Y12009300D01*
X6297764Y11892547D01*
X6289934Y11887699D01*
X6116511Y11801345D01*
X6107917Y11798015D01*
X5921568Y11744995D01*
X5912519Y11743303D01*
X5719608Y11725427D01*
X5710392Y11725427D01*
X5710392Y8274670D01*
X5711435Y8274745D01*
X5718565Y8274745D01*
X5967601Y8256934D01*
X5974656Y8255920D01*
X6218636Y8202845D01*
X6225462Y8200840D01*
X6459404Y8113585D01*
X6465877Y8110629D01*
X6680474Y7993448D01*
X6680474Y8548606D01*
X6676857Y8549216D01*
X6675091Y8550628D01*
X6623574Y8610947D01*
X6618971Y8617283D01*
X6495994Y8817963D01*
X6492436Y8824945D01*
X6402367Y9042392D01*
X6399944Y9049847D01*
X6344999Y9278712D01*
X6343775Y9286436D01*
X6325308Y9521086D01*
X6325308Y9528914D01*
X6343775Y9763564D01*
X6344999Y9771288D01*
X6399944Y10000153D01*
X6402367Y10007608D01*
X6492436Y10225055D01*
X6495994Y10232037D01*
X6618971Y10432717D01*
X6623574Y10439053D01*
X6670864Y10494423D01*
X6682457Y10501473D01*
X6686109Y10501148D01*
X6687986Y10499875D01*
X6893530Y10294331D01*
X6792468Y10150000D01*
X6700384Y9952525D01*
X6643990Y9742060D01*
X6625000Y9525000D01*
X6643990Y9307940D01*
X6700384Y9097475D01*
X6792468Y8900000D01*
X6893530Y8755669D01*
X6692586Y8554725D01*
X6680474Y8548606D01*
X6680474Y7993448D01*
X6685023Y7990965D01*
X6691012Y7987116D01*
X6890890Y7837490D01*
X6896273Y7832825D01*
X7072825Y7656273D01*
X7077490Y7650890D01*
X7227116Y7451012D01*
X7230965Y7445023D01*
X7350629Y7225877D01*
X7353585Y7219404D01*
X7440840Y6985462D01*
X7442845Y6978636D01*
X7495920Y6734656D01*
X7496934Y6727601D01*
X7514745Y6478565D01*
X7514745Y6471435D01*
X7496934Y6222399D01*
X7495920Y6215344D01*
X7442845Y5971364D01*
X7440840Y5964538D01*
X7353585Y5730596D01*
X7350629Y5724123D01*
X7230965Y5504977D01*
X7227116Y5498988D01*
X7077490Y5299110D01*
X7072825Y5293727D01*
X6944877Y5165779D01*
X6916715Y5110040D01*
X6927113Y5048462D01*
X6988221Y4998887D01*
X7117917Y4961985D01*
X7126511Y4958655D01*
X7299934Y4872301D01*
X7307764Y4867453D01*
X7462371Y4750700D01*
X7469184Y4744488D01*
X7599705Y4601314D01*
X7605251Y4593970D01*
X7707250Y4429236D01*
X7711348Y4421006D01*
X7781335Y4240346D01*
X7783859Y4231478D01*
X7819459Y4041039D01*
X7820308Y4031874D01*
X7820308Y3838126D01*
X7819459Y3828961D01*
X7783859Y3638522D01*
X7781335Y3629654D01*
X7711348Y3448994D01*
X7707250Y3440764D01*
X7605251Y3276030D01*
X7599705Y3268686D01*
X7469184Y3125512D01*
X7462371Y3119300D01*
X7304128Y2999801D01*
X7268535Y2948487D01*
X7270327Y2886063D01*
X7304128Y2840199D01*
X7462371Y2720700D01*
X7469184Y2714488D01*
X7599705Y2571314D01*
X7605251Y2563970D01*
X7707250Y2399236D01*
X7711348Y2391006D01*
X7781335Y2210346D01*
X7783859Y2201478D01*
X7819459Y2011039D01*
X7820308Y2001874D01*
X7820308Y1808126D01*
X7819459Y1798961D01*
X7783859Y1608522D01*
X7781335Y1599654D01*
X7711348Y1418994D01*
X7707250Y1410764D01*
X7605251Y1246030D01*
X7599705Y1238686D01*
X7469184Y1095512D01*
X7462371Y1089300D01*
X7307758Y972542D01*
X7299945Y967704D01*
X7180426Y908192D01*
X7136010Y864292D01*
X7125000Y818676D01*
X7125000Y333951D01*
X7158687Y259101D01*
X7228881Y196915D01*
X7236841Y187930D01*
X7318987Y68920D01*
X7324565Y58292D01*
X7375844Y-76918D01*
X7378716Y-88571D01*
X7396146Y-232121D01*
X7396146Y-244129D01*
X7378716Y-387679D01*
X7375843Y-399336D01*
X7369128Y-417040D01*
X7366322Y-479426D01*
X7401076Y-531312D01*
X7462628Y-552500D01*
X7809767Y-552500D01*
X7871086Y-527100D01*
X7871086Y7975308D01*
X7636436Y7993775D01*
X7628712Y7994999D01*
X7399847Y8049944D01*
X7392392Y8052367D01*
X7174945Y8142436D01*
X7167963Y8145994D01*
X6967283Y8268971D01*
X6960947Y8273574D01*
X6905577Y8320864D01*
X6898527Y8332457D01*
X6898852Y8336109D01*
X6900125Y8337986D01*
X7105669Y8543530D01*
X7105669Y10506470D01*
X6904725Y10707414D01*
X6898606Y10719526D01*
X6899216Y10723143D01*
X6900628Y10724909D01*
X6960947Y10776426D01*
X6967283Y10781029D01*
X7167963Y10904006D01*
X7174945Y10907564D01*
X7392392Y10997633D01*
X7399847Y11000056D01*
X7628712Y11055001D01*
X7636436Y11056225D01*
X7871086Y11074692D01*
X7878914Y11074692D01*
X8113564Y11056225D01*
X8121288Y11055001D01*
X8350153Y11000056D01*
X8357608Y10997633D01*
X8575055Y10907564D01*
X8582037Y10904006D01*
X8782717Y10781029D01*
X8789053Y10776426D01*
X8844423Y10729136D01*
X8851473Y10717543D01*
X8851148Y10713891D01*
X8849875Y10712014D01*
X8644331Y10506470D01*
X8500000Y10607532D01*
X8302525Y10699616D01*
X8092060Y10756010D01*
X7875000Y10775000D01*
X7657940Y10756010D01*
X7447475Y10699616D01*
X7250000Y10607532D01*
X7105669Y10506470D01*
X7105669Y8543530D01*
X7250000Y8442468D01*
X7447475Y8350384D01*
X7657940Y8293990D01*
X7875000Y8275000D01*
X8092060Y8293990D01*
X8302525Y8350384D01*
X8500000Y8442468D01*
X8644331Y8543530D01*
X8845275Y8342586D01*
X8851394Y8330474D01*
X8850784Y8326857D01*
X8849372Y8325091D01*
X8789053Y8273574D01*
X8782717Y8268971D01*
X8582037Y8145994D01*
X8575055Y8142436D01*
X8357608Y8052367D01*
X8350153Y8049944D01*
X8121288Y7994999D01*
X8113564Y7993775D01*
X7878914Y7975308D01*
X7871086Y7975308D01*
X7871086Y-527100D01*
X7880477Y-523211D01*
X8445629Y41941D01*
X8451583Y47026D01*
X8467513Y58600D01*
X8479445Y68791D01*
X8490573Y79919D01*
X8503148Y89055D01*
X8517167Y96198D01*
X8530549Y104398D01*
X8543286Y113652D01*
X8557137Y120710D01*
X8572114Y125576D01*
X8586612Y131582D01*
X8600629Y138724D01*
X8615415Y143529D01*
X8630959Y145991D01*
X8646215Y149654D01*
X8661188Y154519D01*
X8676545Y156951D01*
X8692289Y156951D01*
X8707931Y158182D01*
X8727366Y161260D01*
X8735181Y161875D01*
X9714520Y161875D01*
X9714520Y907500D01*
X9708011Y907926D01*
X9590923Y923341D01*
X9578376Y926703D01*
X9472304Y970640D01*
X9461051Y977137D01*
X9369968Y1047028D01*
X9360778Y1056218D01*
X9290887Y1147301D01*
X9284390Y1158554D01*
X9240453Y1264626D01*
X9237091Y1277173D01*
X9221676Y1394261D01*
X9221250Y1400770D01*
X9221250Y1421482D01*
X9222816Y1426247D01*
X9245078Y1437495D01*
X9521250Y1437495D01*
X9521250Y1397500D01*
X9535713Y1324790D01*
X9576900Y1263150D01*
X9638540Y1221963D01*
X9711250Y1207500D01*
X10821245Y1207500D01*
X10821245Y923513D01*
X10819679Y918748D01*
X10797417Y907500D01*
X9714520Y907500D01*
X9714520Y161875D01*
X12140443Y161875D01*
X12148256Y161260D01*
X12167685Y158183D01*
X12183328Y156952D01*
X12199079Y156952D01*
X12214436Y154520D01*
X12229415Y149653D01*
X12244671Y145990D01*
X12260208Y143529D01*
X12274991Y138726D01*
X12289013Y131581D01*
X12303511Y125576D01*
X12318492Y120709D01*
X12332336Y113655D01*
X12345078Y104397D01*
X12358458Y96198D01*
X12372473Y89057D01*
X12385053Y79917D01*
X12396181Y68789D01*
X12408113Y58598D01*
X12424040Y47026D01*
X12429994Y41941D01*
X15996315Y-3524380D01*
X16001400Y-3530334D01*
X16012969Y-3546257D01*
X16023160Y-3558189D01*
X16034290Y-3569319D01*
X16043431Y-3581901D01*
X16050574Y-3595920D01*
X16058774Y-3609303D01*
X16068029Y-3622040D01*
X16075084Y-3635887D01*
X16079948Y-3650857D01*
X16085953Y-3665355D01*
X16093103Y-3679387D01*
X16097904Y-3694162D01*
X16100368Y-3709722D01*
X16104031Y-3724980D01*
X16108892Y-3739941D01*
X16111324Y-3755296D01*
X16111324Y-3771027D01*
X16112555Y-3786670D01*
X16115635Y-3806118D01*
X16116250Y-3813931D01*
X16116250Y-5552319D01*
X16115635Y-5560132D01*
X16112556Y-5579574D01*
X16111325Y-5595217D01*
X16111325Y-5610955D01*
X16108893Y-5626312D01*
X16104030Y-5641278D01*
X16100366Y-5656538D01*
X16097904Y-5672085D01*
X16093102Y-5686864D01*
X16085952Y-5700896D01*
X16079947Y-5715394D01*
X16075084Y-5730361D01*
X16068026Y-5744213D01*
X16058777Y-5756943D01*
X16050578Y-5770322D01*
X16043427Y-5784356D01*
X16034294Y-5796927D01*
X16023160Y-5808061D01*
X16012969Y-5819993D01*
X16001400Y-5835916D01*
X15996315Y-5841870D01*
X15518425Y-6319760D01*
X15489865Y-6402522D01*
X15492396Y-6423369D01*
X15492396Y-6435379D01*
X15474966Y-6578929D01*
X15472094Y-6590582D01*
X15420815Y-6725792D01*
X15415234Y-6736425D01*
X15400831Y-6757292D01*
X15383177Y-6817194D01*
X15404505Y-6875889D01*
X15456496Y-6910485D01*
X15523801Y-6905452D01*
X15622999Y-6861286D01*
X15632912Y-6858065D01*
X15786255Y-6825471D01*
X15796615Y-6824382D01*
X15953385Y-6824382D01*
X15963745Y-6825471D01*
X16117088Y-6858065D01*
X16127001Y-6861286D01*
X16270209Y-6925047D01*
X16279243Y-6930263D01*
X16406066Y-7022405D01*
X16413808Y-7029375D01*
X16491312Y-7115452D01*
X16545501Y-7146492D01*
X16607539Y-7139330D01*
X16653231Y-7096760D01*
X16665625Y-7048539D01*
X16665625Y-2588357D01*
X16636336Y-2517647D01*
X15101184Y-982495D01*
X15096099Y-976542D01*
X15084528Y-960615D01*
X15074337Y-948683D01*
X15063210Y-937556D01*
X15054071Y-924978D01*
X15046925Y-910952D01*
X15038726Y-897573D01*
X15029472Y-884836D01*
X15022415Y-870986D01*
X15017550Y-856013D01*
X15011545Y-841515D01*
X15004398Y-827489D01*
X14999596Y-812710D01*
X14997134Y-797163D01*
X14993470Y-781903D01*
X14988608Y-766939D01*
X14986174Y-751575D01*
X14986174Y-735836D01*
X14984943Y-720194D01*
X14981865Y-700759D01*
X14981250Y-692944D01*
X14981250Y807501D01*
X14961750Y866828D01*
X14881251Y907500D01*
X14124520Y907500D01*
X14118011Y907926D01*
X14006801Y922567D01*
X13945436Y910977D01*
X13902914Y865241D01*
X13893750Y823423D01*
X13893750Y762731D01*
X13923039Y692021D01*
X14019885Y595175D01*
X14090595Y565886D01*
X14201047Y565886D01*
X14212976Y564437D01*
X14353365Y529835D01*
X14364601Y525574D01*
X14492637Y458376D01*
X14502520Y451553D01*
X14610756Y355665D01*
X14618716Y346680D01*
X14700862Y227670D01*
X14706440Y217042D01*
X14757719Y81832D01*
X14760591Y70179D01*
X14778021Y-73371D01*
X14778021Y-85379D01*
X14760591Y-228929D01*
X14757719Y-240582D01*
X14706440Y-375792D01*
X14700862Y-386420D01*
X14618716Y-505430D01*
X14610756Y-514415D01*
X14502520Y-610303D01*
X14492637Y-617126D01*
X14364601Y-684324D01*
X14353365Y-688585D01*
X14212976Y-723187D01*
X14201047Y-724636D01*
X14056453Y-724636D01*
X14044524Y-723187D01*
X13904135Y-688585D01*
X13892899Y-684324D01*
X13764863Y-617126D01*
X13754980Y-610303D01*
X13646744Y-514415D01*
X13638784Y-505430D01*
X13556638Y-386420D01*
X13551060Y-375792D01*
X13499781Y-240582D01*
X13496909Y-228929D01*
X13479479Y-85379D01*
X13479479Y-73369D01*
X13482010Y-52522D01*
X13453450Y30240D01*
X13277981Y205709D01*
X13222242Y233871D01*
X13160800Y223544D01*
X13094605Y188803D01*
X13083365Y184540D01*
X12942976Y149938D01*
X12931047Y148489D01*
X12786453Y148489D01*
X12774524Y149938D01*
X12634135Y184540D01*
X12622899Y188801D01*
X12494863Y255999D01*
X12484980Y262822D01*
X12376744Y358710D01*
X12368784Y367695D01*
X12286638Y486705D01*
X12281060Y497333D01*
X12229781Y632543D01*
X12226909Y644196D01*
X12209479Y787746D01*
X12209479Y805804D01*
X12206892Y805804D01*
X12196748Y856695D01*
X12150585Y898754D01*
X12109686Y907500D01*
X11137268Y907500D01*
X11132503Y909066D01*
X11121255Y931328D01*
X11121255Y1207500D01*
X12231250Y1207500D01*
X12303960Y1221963D01*
X12365600Y1263150D01*
X12406787Y1324790D01*
X12421250Y1397500D01*
X12421250Y1777500D01*
X12406787Y1850210D01*
X12365600Y1911850D01*
X12303960Y1953037D01*
X12231250Y1967500D01*
X9711250Y1967500D01*
X9638540Y1953037D01*
X9576900Y1911850D01*
X9535713Y1850210D01*
X9521250Y1777500D01*
X9521250Y1737505D01*
X9237263Y1737505D01*
X9232498Y1739071D01*
X9221250Y1761333D01*
X9221250Y1774229D01*
X9221676Y1780739D01*
X9237091Y1897827D01*
X9240453Y1910374D01*
X9284390Y2016446D01*
X9290887Y2027699D01*
X9360778Y2118782D01*
X9369968Y2127972D01*
X9389769Y2143166D01*
X9424965Y2194752D01*
X9422693Y2257160D01*
X9389769Y2301834D01*
X9369968Y2317028D01*
X9360778Y2326218D01*
X9290887Y2417301D01*
X9284390Y2428554D01*
X9240453Y2534626D01*
X9237091Y2547173D01*
X9221676Y2664261D01*
X9221250Y2670770D01*
X9221250Y3044230D01*
X9221676Y3050739D01*
X9237091Y3167827D01*
X9240453Y3180374D01*
X9284390Y3286446D01*
X9290887Y3297699D01*
X9360778Y3388782D01*
X9369968Y3397972D01*
X9389769Y3413166D01*
X9424965Y3464752D01*
X9422693Y3527160D01*
X9389769Y3571834D01*
X9369968Y3587028D01*
X9360778Y3596218D01*
X9290887Y3687301D01*
X9284390Y3698554D01*
X9240453Y3804626D01*
X9237091Y3817173D01*
X9221676Y3934261D01*
X9221250Y3940770D01*
X9221250Y3961482D01*
X9222816Y3966247D01*
X9237263Y3973546D01*
X9237263Y4277505D01*
X9232498Y4279071D01*
X9221250Y4301333D01*
X9221250Y4314230D01*
X9221676Y4320739D01*
X9237091Y4437827D01*
X9240453Y4450374D01*
X9284390Y4556446D01*
X9290887Y4567699D01*
X9360778Y4658782D01*
X9369968Y4667972D01*
X9389769Y4683166D01*
X9424965Y4734752D01*
X9422693Y4797160D01*
X9389769Y4841834D01*
X9369968Y4857028D01*
X9360778Y4866218D01*
X9290887Y4957301D01*
X9284390Y4968554D01*
X9240453Y5074626D01*
X9237091Y5087173D01*
X9221676Y5204261D01*
X9221250Y5210770D01*
X9221250Y5231482D01*
X9222816Y5236247D01*
X9245078Y5247495D01*
X9521250Y5247495D01*
X9521250Y5207500D01*
X9535713Y5134790D01*
X9576900Y5073150D01*
X9638540Y5031963D01*
X9711250Y5017500D01*
X10821245Y5017500D01*
X10821245Y4507500D01*
X9711250Y4507500D01*
X9638540Y4493037D01*
X9576900Y4451850D01*
X9535713Y4390210D01*
X9521250Y4317500D01*
X9521250Y4277505D01*
X9237263Y4277505D01*
X9237263Y3973546D01*
X9245078Y3977495D01*
X9521250Y3977495D01*
X9521250Y3937500D01*
X9535713Y3864790D01*
X9576900Y3803150D01*
X9638540Y3761963D01*
X9711250Y3747500D01*
X12231250Y3747500D01*
X12303960Y3761963D01*
X12365600Y3803150D01*
X12406787Y3864790D01*
X12421250Y3937500D01*
X12421250Y4317500D01*
X12406787Y4390210D01*
X12365600Y4451850D01*
X12303960Y4493037D01*
X12231250Y4507500D01*
X11121255Y4507500D01*
X11121255Y5017500D01*
X12231250Y5017500D01*
X12303960Y5031963D01*
X12365600Y5073150D01*
X12406787Y5134790D01*
X12421250Y5207500D01*
X12421250Y5587500D01*
X12406787Y5660210D01*
X12365600Y5721850D01*
X12303960Y5763037D01*
X12231250Y5777500D01*
X9711250Y5777500D01*
X9638540Y5763037D01*
X9576900Y5721850D01*
X9535713Y5660210D01*
X9521250Y5587500D01*
X9521250Y5547505D01*
X9237263Y5547505D01*
X9232498Y5549071D01*
X9221250Y5571333D01*
X9221250Y5584230D01*
X9221676Y5590739D01*
X9237091Y5707827D01*
X9240453Y5720374D01*
X9284390Y5826446D01*
X9290887Y5837699D01*
X9330148Y5888864D01*
X9350794Y5947802D01*
X9332447Y6007496D01*
X9282263Y6044665D01*
X9226883Y6046833D01*
X9132976Y6023688D01*
X9121047Y6022239D01*
X8976453Y6022239D01*
X8964524Y6023688D01*
X8824135Y6058290D01*
X8812899Y6062551D01*
X8684863Y6129749D01*
X8674980Y6136572D01*
X8566744Y6232460D01*
X8558784Y6241445D01*
X8476638Y6360455D01*
X8471060Y6371083D01*
X8419781Y6506293D01*
X8416909Y6517946D01*
X8399479Y6661496D01*
X8399479Y6673504D01*
X8416909Y6817054D01*
X8419781Y6828707D01*
X8471060Y6963917D01*
X8476638Y6974545D01*
X8558784Y7093555D01*
X8566744Y7102540D01*
X8674980Y7198428D01*
X8684863Y7205251D01*
X8812899Y7272449D01*
X8824135Y7276710D01*
X8964524Y7311312D01*
X8976453Y7312761D01*
X9067543Y7312761D01*
X9067543Y8548527D01*
X9063891Y8548852D01*
X9062014Y8550125D01*
X8856470Y8755669D01*
X8957532Y8900000D01*
X9049616Y9097475D01*
X9106010Y9307940D01*
X9125000Y9525000D01*
X9106010Y9742060D01*
X9049616Y9952525D01*
X8957532Y10150000D01*
X8856470Y10294331D01*
X9057414Y10495275D01*
X9069526Y10501394D01*
X9073143Y10500784D01*
X9074909Y10499372D01*
X9126426Y10439053D01*
X9131029Y10432717D01*
X9254006Y10232037D01*
X9257564Y10225055D01*
X9347633Y10007608D01*
X9350056Y10000153D01*
X9405001Y9771288D01*
X9406225Y9763564D01*
X9424692Y9528914D01*
X9424692Y9521086D01*
X9406225Y9286436D01*
X9405001Y9278712D01*
X9350056Y9049847D01*
X9347633Y9042392D01*
X9257564Y8824945D01*
X9254006Y8817963D01*
X9131029Y8617283D01*
X9126426Y8610947D01*
X9079136Y8555577D01*
X9067543Y8548527D01*
X9067543Y7312761D01*
X9121047Y7312761D01*
X9132976Y7311312D01*
X9273365Y7276710D01*
X9284605Y7272447D01*
X9328576Y7249370D01*
X9390170Y7239066D01*
X9435923Y7258581D01*
X9461051Y7277863D01*
X9472304Y7284360D01*
X9578376Y7328297D01*
X9590923Y7331659D01*
X9708011Y7347074D01*
X9714520Y7347500D01*
X10279533Y7347500D01*
X10279533Y7868247D01*
X10274886Y7868551D01*
X10161680Y7883455D01*
X10149133Y7886817D01*
X10046680Y7929255D01*
X10035425Y7935753D01*
X9947449Y8003259D01*
X9938259Y8012449D01*
X9870753Y8100425D01*
X9864255Y8111680D01*
X9821817Y8214133D01*
X9818455Y8226680D01*
X9803551Y8339886D01*
X9803125Y8346395D01*
X9803125Y8502107D01*
X9804691Y8506872D01*
X9819138Y8514171D01*
X9819138Y8818130D01*
X9814373Y8819696D01*
X9803125Y8841958D01*
X9803125Y8989855D01*
X9803551Y8996364D01*
X9818455Y9109570D01*
X9821817Y9122117D01*
X9864255Y9224570D01*
X9870753Y9235825D01*
X9938259Y9323801D01*
X9947449Y9332991D01*
X10035425Y9400497D01*
X10046680Y9406995D01*
X10149133Y9449433D01*
X10161680Y9452795D01*
X10274886Y9467699D01*
X10279533Y9468003D01*
X10279533Y13868247D01*
X10274886Y13868551D01*
X10161680Y13883455D01*
X10149133Y13886817D01*
X10046680Y13929255D01*
X10035425Y13935753D01*
X9947449Y14003259D01*
X9938259Y14012449D01*
X9870753Y14100425D01*
X9864255Y14111680D01*
X9821817Y14214133D01*
X9818455Y14226680D01*
X9803551Y14339886D01*
X9803125Y14346395D01*
X9803125Y14502107D01*
X9804691Y14506872D01*
X9819138Y14514171D01*
X9819138Y14818130D01*
X9814373Y14819696D01*
X9803125Y14841958D01*
X9803125Y14989855D01*
X9803551Y14996364D01*
X9818455Y15109570D01*
X9821817Y15122117D01*
X9864255Y15224570D01*
X9870753Y15235825D01*
X9938259Y15323801D01*
X9947449Y15332991D01*
X10035425Y15400497D01*
X10046680Y15406995D01*
X10149133Y15449433D01*
X10161680Y15452795D01*
X10274886Y15467699D01*
X10281395Y15468125D01*
X10287107Y15468125D01*
X10291872Y15466559D01*
X10303120Y15444297D01*
X10303120Y15168125D01*
X10278125Y15168125D01*
X10211155Y15154804D01*
X10154381Y15116869D01*
X10116446Y15060095D01*
X10103125Y14993125D01*
X10103125Y14818130D01*
X9819138Y14818130D01*
X9819138Y14514171D01*
X9826953Y14518120D01*
X10103125Y14518120D01*
X10103125Y14343125D01*
X10116446Y14276155D01*
X10154381Y14219381D01*
X10211155Y14181446D01*
X10278125Y14168125D01*
X10303120Y14168125D01*
X10303120Y13884138D01*
X10301554Y13879373D01*
X10279533Y13868247D01*
X10279533Y9468003D01*
X10281395Y9468125D01*
X10287107Y9468125D01*
X10291872Y9466559D01*
X10303120Y9444297D01*
X10303120Y9168125D01*
X10278125Y9168125D01*
X10211155Y9154804D01*
X10154381Y9116869D01*
X10116446Y9060095D01*
X10103125Y8993125D01*
X10103125Y8818130D01*
X9819138Y8818130D01*
X9819138Y8514171D01*
X9826953Y8518120D01*
X10103125Y8518120D01*
X10103125Y8343125D01*
X10116446Y8276155D01*
X10154381Y8219381D01*
X10211155Y8181446D01*
X10278125Y8168125D01*
X10303120Y8168125D01*
X10303120Y7884138D01*
X10301554Y7879373D01*
X10279533Y7868247D01*
X10279533Y7347500D01*
X10619143Y7347500D01*
X10619143Y7868125D01*
X10614378Y7869691D01*
X10603130Y7891953D01*
X10603130Y8168125D01*
X10628125Y8168125D01*
X10695095Y8181446D01*
X10751869Y8219381D01*
X10789804Y8276155D01*
X10803125Y8343125D01*
X10803125Y8518120D01*
X10803125Y8818130D01*
X10803125Y8993125D01*
X10789804Y9060095D01*
X10751869Y9116869D01*
X10695095Y9154804D01*
X10628125Y9168125D01*
X10603130Y9168125D01*
X10603130Y9452112D01*
X10604696Y9456877D01*
X10619143Y9464176D01*
X10619143Y13868125D01*
X10614378Y13869691D01*
X10603130Y13891953D01*
X10603130Y14168125D01*
X10628125Y14168125D01*
X10695095Y14181446D01*
X10751869Y14219381D01*
X10789804Y14276155D01*
X10803125Y14343125D01*
X10803125Y14518120D01*
X10803125Y14818130D01*
X10803125Y14993125D01*
X10789804Y15060095D01*
X10751869Y15116869D01*
X10695095Y15154804D01*
X10628125Y15168125D01*
X10603130Y15168125D01*
X10603130Y15452112D01*
X10604696Y15456877D01*
X10626717Y15468003D01*
X10631364Y15467699D01*
X10744570Y15452795D01*
X10757117Y15449433D01*
X10859570Y15406995D01*
X10870825Y15400497D01*
X10958801Y15332991D01*
X10967991Y15323801D01*
X11035497Y15235825D01*
X11041995Y15224570D01*
X11084433Y15122117D01*
X11087795Y15109570D01*
X11102699Y14996364D01*
X11103125Y14989855D01*
X11103125Y14834143D01*
X11101559Y14829378D01*
X11079297Y14818130D01*
X10803125Y14818130D01*
X10803125Y14518120D01*
X11087112Y14518120D01*
X11091877Y14516554D01*
X11103125Y14494292D01*
X11103125Y14346395D01*
X11102699Y14339886D01*
X11087795Y14226680D01*
X11084433Y14214133D01*
X11041995Y14111680D01*
X11035497Y14100425D01*
X10967991Y14012449D01*
X10958801Y14003259D01*
X10870825Y13935753D01*
X10859570Y13929255D01*
X10757117Y13886817D01*
X10744570Y13883455D01*
X10631364Y13868551D01*
X10624855Y13868125D01*
X10619143Y13868125D01*
X10619143Y9464176D01*
X10626717Y9468003D01*
X10631364Y9467699D01*
X10744570Y9452795D01*
X10757117Y9449433D01*
X10859570Y9406995D01*
X10870825Y9400497D01*
X10958801Y9332991D01*
X10967991Y9323801D01*
X11035497Y9235825D01*
X11041995Y9224570D01*
X11084433Y9122117D01*
X11087795Y9109570D01*
X11102699Y8996364D01*
X11103125Y8989855D01*
X11103125Y8834143D01*
X11101559Y8829378D01*
X11079297Y8818130D01*
X10803125Y8818130D01*
X10803125Y8518120D01*
X11087112Y8518120D01*
X11091877Y8516554D01*
X11103125Y8494292D01*
X11103125Y8346395D01*
X11102699Y8339886D01*
X11087795Y8226680D01*
X11084433Y8214133D01*
X11041995Y8111680D01*
X11035497Y8100425D01*
X10967991Y8012449D01*
X10958801Y8003259D01*
X10870825Y7935753D01*
X10859570Y7929255D01*
X10757117Y7886817D01*
X10744570Y7883455D01*
X10631364Y7868551D01*
X10624855Y7868125D01*
X10619143Y7868125D01*
X10619143Y7347500D01*
X12227980Y7347500D01*
X12234489Y7347074D01*
X12351577Y7331659D01*
X12364124Y7328297D01*
X12470196Y7284360D01*
X12481449Y7277863D01*
X12572532Y7207972D01*
X12581722Y7198782D01*
X12651613Y7107699D01*
X12658110Y7096446D01*
X12702047Y6990374D01*
X12705409Y6977827D01*
X12720824Y6860739D01*
X12721250Y6854230D01*
X12721250Y6543355D01*
X12740750Y6484028D01*
X12791645Y6447839D01*
X12854086Y6448901D01*
X12891959Y6472645D01*
X13366880Y6947566D01*
X13372833Y6952651D01*
X13388760Y6964222D01*
X13400692Y6974413D01*
X13411819Y6985540D01*
X13424397Y6994679D01*
X13438423Y7001825D01*
X13451802Y7010024D01*
X13464539Y7019278D01*
X13478389Y7026335D01*
X13493362Y7031200D01*
X13507860Y7037205D01*
X13521886Y7044352D01*
X13536665Y7049154D01*
X13552212Y7051616D01*
X13567472Y7055280D01*
X13582436Y7060142D01*
X13597800Y7062576D01*
X13613539Y7062576D01*
X13629182Y7063807D01*
X13633103Y7064428D01*
X13692939Y7105538D01*
X13696898Y7102500D01*
X13770778Y7198782D01*
X13779968Y7207972D01*
X13871051Y7277863D01*
X13882304Y7284360D01*
X13981395Y7325405D01*
X13981395Y7868125D01*
X13974886Y7868551D01*
X13861680Y7883455D01*
X13849133Y7886817D01*
X13746680Y7929255D01*
X13735425Y7935753D01*
X13647449Y8003259D01*
X13638259Y8012449D01*
X13570753Y8100425D01*
X13564255Y8111680D01*
X13521817Y8214133D01*
X13518455Y8226680D01*
X13503551Y8339886D01*
X13503125Y8346395D01*
X13503125Y8989855D01*
X13503551Y8996364D01*
X13518455Y9109570D01*
X13521817Y9122117D01*
X13564255Y9224570D01*
X13570753Y9235825D01*
X13638259Y9323801D01*
X13647450Y9332992D01*
X13692845Y9367825D01*
X13731967Y9446754D01*
X13749908Y13874920D01*
X13710785Y13954660D01*
X13647449Y14003259D01*
X13638259Y14012449D01*
X13570753Y14100425D01*
X13564255Y14111680D01*
X13521817Y14214133D01*
X13518455Y14226680D01*
X13503551Y14339886D01*
X13503125Y14346395D01*
X13503125Y14989855D01*
X13503551Y14996364D01*
X13518455Y15109570D01*
X13521817Y15122117D01*
X13564255Y15224570D01*
X13570753Y15235825D01*
X13638259Y15323801D01*
X13647449Y15332991D01*
X13735425Y15400497D01*
X13746680Y15406995D01*
X13849133Y15449433D01*
X13861680Y15452795D01*
X13974886Y15467699D01*
X13981395Y15468125D01*
X14324855Y15468125D01*
X14331364Y15467699D01*
X14444570Y15452795D01*
X14457117Y15449433D01*
X14559570Y15406995D01*
X14570825Y15400497D01*
X14658801Y15332991D01*
X14667991Y15323801D01*
X14735497Y15235825D01*
X14741995Y15224570D01*
X14784433Y15122117D01*
X14787795Y15109570D01*
X14802699Y14996364D01*
X14803125Y14989855D01*
X14803125Y14346395D01*
X14802699Y14339886D01*
X14787795Y14226680D01*
X14784433Y14214133D01*
X14741995Y14111680D01*
X14735497Y14100425D01*
X14667991Y14012449D01*
X14658804Y14003262D01*
X14589019Y13949714D01*
X14549897Y13870784D01*
X14532107Y9479926D01*
X14571230Y9400186D01*
X14658801Y9332991D01*
X14667991Y9323801D01*
X14735497Y9235825D01*
X14741994Y9224572D01*
X14762939Y9174007D01*
X14803659Y9126659D01*
X14864529Y9112701D01*
X14901798Y9123731D01*
X15004149Y9177449D01*
X15015385Y9181710D01*
X15155774Y9216312D01*
X15167703Y9217761D01*
X15312297Y9217761D01*
X15324226Y9216312D01*
X15464615Y9181710D01*
X15475851Y9177449D01*
X15603887Y9110251D01*
X15613770Y9103428D01*
X15722006Y9007540D01*
X15729966Y8998555D01*
X15812112Y8879545D01*
X15817690Y8868917D01*
X15868969Y8733707D01*
X15871841Y8722054D01*
X15889271Y8578504D01*
X15889271Y8566496D01*
X15871841Y8422946D01*
X15868969Y8411293D01*
X15817690Y8276083D01*
X15812112Y8265455D01*
X15729966Y8146445D01*
X15722006Y8137460D01*
X15613770Y8041572D01*
X15603887Y8034749D01*
X15475851Y7967551D01*
X15464615Y7963290D01*
X15324226Y7928688D01*
X15312297Y7927239D01*
X15167703Y7927239D01*
X15155774Y7928688D01*
X15015385Y7963290D01*
X15004149Y7967551D01*
X14876113Y8034749D01*
X14866230Y8041572D01*
X14841842Y8063178D01*
X14784504Y8087924D01*
X14723666Y8073828D01*
X14696194Y8049204D01*
X14667991Y8012449D01*
X14658801Y8003259D01*
X14570825Y7935753D01*
X14559570Y7929255D01*
X14457117Y7886817D01*
X14444570Y7883455D01*
X14331364Y7868551D01*
X14324855Y7868125D01*
X13981395Y7868125D01*
X13981395Y7325405D01*
X13988376Y7328297D01*
X14000923Y7331659D01*
X14118011Y7347074D01*
X14124520Y7347500D01*
X16637980Y7347500D01*
X16644489Y7347074D01*
X16761577Y7331659D01*
X16774124Y7328297D01*
X16880196Y7284360D01*
X16891449Y7277863D01*
X16982532Y7207972D01*
X16991722Y7198782D01*
X17061613Y7107699D01*
X17068110Y7096446D01*
X17112047Y6990374D01*
X17115409Y6977827D01*
X17130824Y6860739D01*
X17131250Y6854230D01*
X17131250Y6480770D01*
X17130824Y6474261D01*
X17115409Y6357173D01*
X17112047Y6344626D01*
X17068110Y6238554D01*
X17061613Y6227301D01*
X16991722Y6136218D01*
X16982532Y6127028D01*
X16962731Y6111834D01*
X16927535Y6060248D01*
X16929807Y5997840D01*
X16962731Y5953166D01*
X16982532Y5937972D01*
X16991722Y5928782D01*
X17061613Y5837699D01*
X17068110Y5826446D01*
X17112047Y5720374D01*
X17115409Y5707827D01*
X17130824Y5590739D01*
X17131250Y5584230D01*
X17131250Y5210770D01*
X17130824Y5204261D01*
X17115409Y5087173D01*
X17112047Y5074626D01*
X17068110Y4968554D01*
X17061613Y4957301D01*
X16991722Y4866218D01*
X16982532Y4857028D01*
X16962731Y4841834D01*
X16927535Y4790248D01*
X16929807Y4727840D01*
X16962731Y4683166D01*
X16982532Y4667972D01*
X16991722Y4658782D01*
X17061613Y4567699D01*
X17068110Y4556446D01*
X17112047Y4450374D01*
X17115409Y4437827D01*
X17130824Y4320739D01*
X17131250Y4314230D01*
X17131250Y3940770D01*
X17130824Y3934261D01*
X17115409Y3817173D01*
X17112047Y3804626D01*
X17068110Y3698554D01*
X17061613Y3687301D01*
X16991722Y3596218D01*
X16982532Y3587028D01*
X16962731Y3571834D01*
X16927535Y3520248D01*
X16929807Y3457840D01*
X16962731Y3413166D01*
X16982532Y3397972D01*
X16991722Y3388782D01*
X17061613Y3297699D01*
X17068110Y3286446D01*
X17112047Y3180374D01*
X17115409Y3167827D01*
X17130824Y3050739D01*
X17131250Y3044230D01*
X17131250Y2670770D01*
X17130824Y2664261D01*
X17115409Y2547173D01*
X17112047Y2534626D01*
X17068110Y2428554D01*
X17061613Y2417301D01*
X16991722Y2326218D01*
X16982532Y2317028D01*
X16962731Y2301834D01*
X16927535Y2250248D01*
X16929807Y2187840D01*
X16962731Y2143166D01*
X16982532Y2127972D01*
X16991722Y2118782D01*
X17061613Y2027699D01*
X17068110Y2016446D01*
X17112047Y1910374D01*
X17115409Y1897827D01*
X17130824Y1780739D01*
X17131250Y1774229D01*
X17131250Y1400770D01*
X17130824Y1394261D01*
X17115409Y1277173D01*
X17112047Y1264626D01*
X17068110Y1158554D01*
X17061613Y1147301D01*
X16991722Y1056218D01*
X16982532Y1047028D01*
X16891449Y977137D01*
X16880196Y970640D01*
X16774124Y926703D01*
X16761577Y923341D01*
X16644489Y907926D01*
X16637980Y907500D01*
X15881249Y907500D01*
X15821922Y888000D01*
X15781250Y807501D01*
X15781250Y-489768D01*
X15810539Y-560478D01*
X17345690Y-2095629D01*
X17350775Y-2101582D01*
X17362346Y-2117509D01*
X17372537Y-2129441D01*
X17383669Y-2140573D01*
X17392805Y-2153148D01*
X17399950Y-2167171D01*
X17408150Y-2180553D01*
X17417401Y-2193286D01*
X17424459Y-2207137D01*
X17429323Y-2222108D01*
X17435328Y-2236606D01*
X17442476Y-2250635D01*
X17447279Y-2265415D01*
X17449742Y-2280966D01*
X17453405Y-2296221D01*
X17458268Y-2311188D01*
X17460700Y-2326545D01*
X17460700Y-2342283D01*
X17461931Y-2357926D01*
X17465010Y-2377368D01*
X17465625Y-2385181D01*
X17465625Y-10156069D01*
X17465010Y-10163882D01*
X17461931Y-10183324D01*
X17460700Y-10198967D01*
X17460700Y-10214704D01*
X17458269Y-10230057D01*
X17453405Y-10245024D01*
X17449741Y-10260288D01*
X17447279Y-10275833D01*
X17442476Y-10290616D01*
X17435329Y-10304643D01*
X17429324Y-10319141D01*
X17424460Y-10334111D01*
X17417405Y-10347958D01*
X17408150Y-10360695D01*
X17399950Y-10374078D01*
X17392806Y-10388099D01*
X17383665Y-10400681D01*
X17372535Y-10411811D01*
X17362344Y-10423743D01*
X17350775Y-10439666D01*
X17345690Y-10445620D01*
X16859914Y-10931396D01*
X16830625Y-11002106D01*
X16830625Y-12299193D01*
X16830010Y-12307008D01*
X16826932Y-12326443D01*
X16825701Y-12342085D01*
X16825701Y-12357829D01*
X16823269Y-12373186D01*
X16818404Y-12388159D01*
X16814741Y-12403415D01*
X16812279Y-12418959D01*
X16807474Y-12433745D01*
X16800332Y-12447762D01*
X16794326Y-12462260D01*
X16789460Y-12477237D01*
X16782402Y-12491088D01*
X16773148Y-12503825D01*
X16764948Y-12517207D01*
X16757805Y-12531226D01*
X16748669Y-12543801D01*
X16737541Y-12554929D01*
X16727350Y-12566861D01*
X16715776Y-12582791D01*
X16710691Y-12588745D01*
X13165385Y-16134051D01*
X13137223Y-16189790D01*
X13147621Y-16251368D01*
X13192525Y-16294769D01*
X13269123Y-16299148D01*
X13444171Y-16237896D01*
X13451132Y-16235164D01*
X13903502Y-16037798D01*
X13910239Y-16034554D01*
X14346583Y-15803939D01*
X14353060Y-15800199D01*
X14770960Y-15537614D01*
X14777138Y-15533402D01*
X15174253Y-15240319D01*
X15180100Y-15235656D01*
X15554170Y-14913742D01*
X15559652Y-14908656D01*
X15908656Y-14559652D01*
X15913742Y-14554170D01*
X16235656Y-14180100D01*
X16240319Y-14174253D01*
X16533402Y-13777138D01*
X16537614Y-13770960D01*
X16800199Y-13353060D01*
X16803939Y-13346583D01*
X17034554Y-12910239D01*
X17037798Y-12903502D01*
X17235164Y-12451132D01*
X17237896Y-12444171D01*
X17400900Y-11978335D01*
X17403105Y-11971188D01*
X17530843Y-11494459D01*
X17532507Y-11487169D01*
X17624265Y-11002223D01*
X17625379Y-10994828D01*
X17680638Y-10504389D01*
X17681197Y-10496932D01*
X17699930Y-9996266D01*
X17700000Y-9992527D01*
X17700000Y9992527D01*
X17699930Y9996266D01*
X17681197Y10496932D01*
X17680638Y10504389D01*
X17625379Y10994828D01*
X17624265Y11002223D01*
X17532508Y11487167D01*
X17530844Y11494458D01*
X17403104Y11971192D01*
X17400899Y11978338D01*
X17237896Y12444171D01*
X17235164Y12451132D01*
X17037798Y12903502D01*
X17034554Y12910239D01*
X16803939Y13346583D01*
X16800199Y13353060D01*
X16537614Y13770960D01*
X16533402Y13777138D01*
X16240319Y14174253D01*
X16235656Y14180100D01*
X15913742Y14554170D01*
X15908656Y14559652D01*
X15559652Y14908656D01*
X15554170Y14913742D01*
X15180100Y15235656D01*
X15174253Y15240319D01*
X14777138Y15533402D01*
X14770960Y15537614D01*
X14353060Y15800199D01*
X14346583Y15803939D01*
X13910239Y16034554D01*
X13903502Y16037798D01*
X13451132Y16235164D01*
X13444171Y16237896D01*
X12978335Y16400900D01*
X12971188Y16403105D01*
X12494459Y16530843D01*
X12487169Y16532507D01*
X12002223Y16624265D01*
X11994828Y16625379D01*
X11504389Y16680638D01*
X11496932Y16681197D01*
X10996266Y16699930D01*
X10992527Y16700000D01*
X-10992527Y16700000D01*
X-10996266Y16699930D01*
X-11496932Y16681197D01*
X-11504389Y16680638D01*
X-11994828Y16625379D01*
X-12002223Y16624265D01*
X-12487167Y16532508D01*
X-12494458Y16530844D01*
X-12971192Y16403104D01*
X-12978338Y16400899D01*
X-13444171Y16237896D01*
X-13451132Y16235164D01*
X-13903502Y16037798D01*
X-13910239Y16034554D01*
X-14346583Y15803939D01*
X-14353060Y15800199D01*
X-14770960Y15537614D01*
X-14777138Y15533402D01*
X-15174253Y15240319D01*
X-15180100Y15235656D01*
X-15554170Y14913742D01*
X-15559652Y14908656D01*
X-15908656Y14559652D01*
X-15913742Y14554170D01*
X-16235656Y14180100D01*
X-16240319Y14174253D01*
X-16533402Y13777138D01*
X-16537614Y13770960D01*
X-16800199Y13353060D01*
X-16803939Y13346583D01*
X-17034554Y12910239D01*
X-17037798Y12903502D01*
X-17235164Y12451132D01*
X-17237896Y12444171D01*
X-17400900Y11978335D01*
X-17403105Y11971188D01*
X-17530843Y11494459D01*
X-17532507Y11487169D01*
X-17624265Y11002223D01*
X-17625379Y10994828D01*
X-17680638Y10504389D01*
X-17681197Y10496932D01*
X-17699930Y9996266D01*
X-17700000Y9992527D01*
X-17700000Y-9992527D01*
G37*
G36*
X-11823750Y-6656293D02*
X-11804250Y-6715620D01*
X-11753355Y-6751809D01*
X-11690914Y-6750747D01*
X-11642851Y-6715073D01*
X-11635773Y-6705331D01*
X-11630690Y-6699380D01*
X-2731164Y2200146D01*
X-2701875Y2270856D01*
X-2701875Y10429143D01*
X-2731164Y10499853D01*
X-3235619Y11004308D01*
X-3291358Y11032470D01*
X-3352936Y11022072D01*
X-3387234Y10992370D01*
X-3388105Y10991171D01*
X-3396300Y10977798D01*
X-3403446Y10963772D01*
X-3412585Y10951194D01*
X-3423712Y10940067D01*
X-3433903Y10928135D01*
X-3445474Y10912208D01*
X-3450559Y10906255D01*
X-3603755Y10753059D01*
X-3609708Y10747974D01*
X-3625635Y10736403D01*
X-3637567Y10726212D01*
X-3648694Y10715085D01*
X-3661272Y10705946D01*
X-3675298Y10698800D01*
X-3688677Y10690601D01*
X-3701414Y10681347D01*
X-3715264Y10674290D01*
X-3730237Y10669425D01*
X-3744735Y10663420D01*
X-3758761Y10656273D01*
X-3773540Y10651471D01*
X-3789087Y10649009D01*
X-3804347Y10645345D01*
X-3819311Y10640483D01*
X-3834675Y10638049D01*
X-3850415Y10638049D01*
X-3866058Y10636818D01*
X-3885493Y10633740D01*
X-3893306Y10633125D01*
X-4507896Y10633125D01*
X-4567223Y10613625D01*
X-4603412Y10562730D01*
X-4602350Y10500289D01*
X-4578606Y10462416D01*
X-3053685Y8937495D01*
X-3048600Y8931541D01*
X-3037031Y8915618D01*
X-3026840Y8903686D01*
X-3015710Y8892556D01*
X-3006569Y8879974D01*
X-2999426Y8865955D01*
X-2991226Y8852572D01*
X-2981971Y8839835D01*
X-2974916Y8825988D01*
X-2970052Y8811018D01*
X-2964047Y8796520D01*
X-2956897Y8782488D01*
X-2952096Y8767713D01*
X-2949632Y8752153D01*
X-2945969Y8736895D01*
X-2941108Y8721934D01*
X-2938676Y8706579D01*
X-2938676Y8690848D01*
X-2937445Y8675205D01*
X-2934365Y8655757D01*
X-2933750Y8647944D01*
X-2933750Y2940806D01*
X-2934365Y2932993D01*
X-2937443Y2913558D01*
X-2938674Y2897915D01*
X-2938674Y2882175D01*
X-2941108Y2866811D01*
X-2945970Y2851847D01*
X-2949634Y2836587D01*
X-2952096Y2821040D01*
X-2956898Y2806261D01*
X-2964045Y2792235D01*
X-2970050Y2777737D01*
X-2974915Y2762764D01*
X-2981972Y2748914D01*
X-2991226Y2736177D01*
X-2999425Y2722798D01*
X-3006571Y2708772D01*
X-3015710Y2696194D01*
X-3026837Y2685067D01*
X-3037028Y2673135D01*
X-3048599Y2657208D01*
X-3053684Y2651255D01*
X-11794461Y-6089522D01*
X-11823750Y-6160232D01*
X-11823750Y-6656293D01*
G37*
G36*
X-10007591Y-12982103D02*
X-10005812Y-13021005D01*
X-10002961Y-13032572D01*
X-9999935Y-13031826D01*
X-9978687Y-13077271D01*
X-9923832Y-13107119D01*
X-9861966Y-13098602D01*
X-9835145Y-13079459D01*
X-6159370Y-9403684D01*
X-6153416Y-9398599D01*
X-6137486Y-9387025D01*
X-6125554Y-9376834D01*
X-6114426Y-9365706D01*
X-6101851Y-9356570D01*
X-6087832Y-9349427D01*
X-6074450Y-9341227D01*
X-6061713Y-9331973D01*
X-6047862Y-9324915D01*
X-6032885Y-9320049D01*
X-6018387Y-9314043D01*
X-6004370Y-9306901D01*
X-5989584Y-9302096D01*
X-5974040Y-9299634D01*
X-5958784Y-9295971D01*
X-5943811Y-9291106D01*
X-5928454Y-9288674D01*
X-5912710Y-9288674D01*
X-5897068Y-9287443D01*
X-5877633Y-9284365D01*
X-5869818Y-9283750D01*
X-5048982Y-9283750D01*
X-4978272Y-9254461D01*
X-1952495Y-6228684D01*
X-1946542Y-6223599D01*
X-1930615Y-6212028D01*
X-1918683Y-6201837D01*
X-1907556Y-6190710D01*
X-1894978Y-6181571D01*
X-1880952Y-6174425D01*
X-1867573Y-6166226D01*
X-1854836Y-6156972D01*
X-1840986Y-6149915D01*
X-1826013Y-6145050D01*
X-1811515Y-6139045D01*
X-1797489Y-6131898D01*
X-1782710Y-6127096D01*
X-1767163Y-6124634D01*
X-1751903Y-6120970D01*
X-1736939Y-6116108D01*
X-1721575Y-6113674D01*
X-1705836Y-6113674D01*
X-1690194Y-6112443D01*
X-1670759Y-6109365D01*
X-1662944Y-6108750D01*
X-1035806Y-6108750D01*
X-1027991Y-6109365D01*
X-1008556Y-6112443D01*
X-992914Y-6113674D01*
X-977170Y-6113674D01*
X-961813Y-6116106D01*
X-946840Y-6120971D01*
X-931584Y-6124634D01*
X-916040Y-6127096D01*
X-901254Y-6131901D01*
X-887237Y-6139043D01*
X-872739Y-6145049D01*
X-857762Y-6149915D01*
X-843911Y-6156973D01*
X-831174Y-6166227D01*
X-817792Y-6174427D01*
X-803773Y-6181570D01*
X-791198Y-6190706D01*
X-780070Y-6201834D01*
X-768138Y-6212025D01*
X-752208Y-6223599D01*
X-746254Y-6228684D01*
X-426363Y-6548575D01*
X-355653Y-6577864D01*
X-245203Y-6577864D01*
X-233274Y-6579313D01*
X-92885Y-6613915D01*
X-81649Y-6618176D01*
X46387Y-6685374D01*
X56270Y-6692197D01*
X164506Y-6788085D01*
X172466Y-6797070D01*
X254612Y-6916080D01*
X260190Y-6926708D01*
X311469Y-7061918D01*
X314341Y-7073571D01*
X331771Y-7217121D01*
X331771Y-7229129D01*
X314341Y-7372679D01*
X311469Y-7384332D01*
X260190Y-7519542D01*
X254612Y-7530170D01*
X172466Y-7649180D01*
X164506Y-7658165D01*
X56270Y-7754053D01*
X46387Y-7760876D01*
X-81649Y-7828074D01*
X-92885Y-7832335D01*
X-233274Y-7866937D01*
X-245203Y-7868386D01*
X-389797Y-7868386D01*
X-401726Y-7866937D01*
X-542115Y-7832335D01*
X-553351Y-7828074D01*
X-681387Y-7760876D01*
X-691270Y-7754053D01*
X-799506Y-7658165D01*
X-807466Y-7649180D01*
X-889612Y-7530170D01*
X-895190Y-7519542D01*
X-916839Y-7462458D01*
X-956110Y-7413901D01*
X-980321Y-7407574D01*
X-956244Y-7368842D01*
X-954140Y-7333153D01*
X-966771Y-7229129D01*
X-966771Y-7217119D01*
X-964240Y-7196272D01*
X-992800Y-7113510D01*
X-1168271Y-6938039D01*
X-1238981Y-6908750D01*
X-1312813Y-6908750D01*
X-1372140Y-6928250D01*
X-1408329Y-6979145D01*
X-1407267Y-7041586D01*
X-1375483Y-7083339D01*
X-1377008Y-7085060D01*
X-1264244Y-7184960D01*
X-1256284Y-7193945D01*
X-1174138Y-7312955D01*
X-1168560Y-7323583D01*
X-1146911Y-7380667D01*
X-1107640Y-7429224D01*
X-1083429Y-7435551D01*
X-1107506Y-7474283D01*
X-1109610Y-7509972D01*
X-1096979Y-7613996D01*
X-1096979Y-7626004D01*
X-1114409Y-7769554D01*
X-1117281Y-7781207D01*
X-1168560Y-7916417D01*
X-1174138Y-7927046D01*
X-1176718Y-7930783D01*
X-1194372Y-7990685D01*
X-1165131Y-8058300D01*
X51203Y-9274634D01*
X97981Y-9301017D01*
X145242Y-9312666D01*
X156476Y-9316926D01*
X239349Y-9360421D01*
X285821Y-9371875D01*
X3715626Y-9371875D01*
X3774953Y-9352375D01*
X3815625Y-9271876D01*
X3815625Y-8682988D01*
X3786336Y-8612278D01*
X-289326Y-4536616D01*
X-336105Y-4510233D01*
X-383365Y-4498585D01*
X-394601Y-4494324D01*
X-522637Y-4427126D01*
X-532520Y-4420303D01*
X-640756Y-4324415D01*
X-648716Y-4315430D01*
X-730862Y-4196420D01*
X-736440Y-4185792D01*
X-787719Y-4050582D01*
X-790591Y-4038929D01*
X-798470Y-3974041D01*
X-824980Y-3917497D01*
X-879866Y-3887706D01*
X-941723Y-3896288D01*
X-968450Y-3915385D01*
X-9979429Y-12926364D01*
X-10007591Y-12982103D01*
G37*
G36*
X-9601250Y-6829178D02*
X-9567563Y-6904028D01*
X-9519244Y-6946835D01*
X-9511279Y-6955826D01*
X-9479995Y-7001148D01*
X-9430245Y-7038896D01*
X-9367802Y-7039767D01*
X-9326988Y-7015052D01*
X-8679365Y-6367429D01*
X-8652621Y-6302863D01*
X-8651307Y-6303071D01*
X-8650440Y-6297598D01*
X-8650076Y-6296719D01*
X-8650076Y-6295300D01*
X-8647642Y-6279936D01*
X-8642780Y-6264972D01*
X-8639116Y-6249712D01*
X-8636654Y-6234165D01*
X-8631852Y-6219386D01*
X-8624705Y-6205360D01*
X-8618700Y-6190862D01*
X-8613835Y-6175889D01*
X-8606778Y-6162039D01*
X-8597524Y-6149302D01*
X-8589325Y-6135923D01*
X-8582179Y-6121897D01*
X-8573040Y-6109319D01*
X-8561913Y-6098192D01*
X-8551722Y-6086260D01*
X-8540151Y-6070333D01*
X-8535066Y-6064380D01*
X-588039Y1882647D01*
X-558750Y1953357D01*
X-558750Y10191019D01*
X-588039Y10261729D01*
X-850771Y10524461D01*
X-921481Y10553750D01*
X-1266068Y10553750D01*
X-1273881Y10554365D01*
X-1293316Y10557443D01*
X-1308959Y10558674D01*
X-1324704Y10558674D01*
X-1340061Y10561106D01*
X-1355034Y10565971D01*
X-1370290Y10569634D01*
X-1385834Y10572096D01*
X-1400620Y10576901D01*
X-1414637Y10584043D01*
X-1429135Y10590049D01*
X-1444112Y10594915D01*
X-1457963Y10601973D01*
X-1470700Y10611227D01*
X-1484082Y10619427D01*
X-1498101Y10626570D01*
X-1510676Y10635706D01*
X-1521804Y10646834D01*
X-1533736Y10657025D01*
X-1549666Y10668599D01*
X-1555620Y10673684D01*
X-1765529Y10883593D01*
X-1821268Y10911755D01*
X-1882846Y10901357D01*
X-1926247Y10856453D01*
X-1925416Y10775017D01*
X-1927457Y10774354D01*
X-1925343Y10767847D01*
X-1925339Y10767486D01*
X-1925025Y10766870D01*
X-1920221Y10752085D01*
X-1917759Y10736538D01*
X-1914095Y10721278D01*
X-1909233Y10706314D01*
X-1906799Y10690950D01*
X-1906799Y10675211D01*
X-1905568Y10659569D01*
X-1902490Y10640134D01*
X-1901875Y10632319D01*
X-1901875Y5635975D01*
X-1882375Y5576648D01*
X-1831480Y5540459D01*
X-1777945Y5538882D01*
X-1671726Y5565062D01*
X-1659797Y5566511D01*
X-1515203Y5566511D01*
X-1503274Y5565062D01*
X-1362885Y5530460D01*
X-1351649Y5526199D01*
X-1223613Y5459001D01*
X-1213730Y5452178D01*
X-1105494Y5356290D01*
X-1097534Y5347305D01*
X-1015388Y5228295D01*
X-1009810Y5217667D01*
X-958531Y5082457D01*
X-955659Y5070804D01*
X-938229Y4927254D01*
X-938229Y4915246D01*
X-955659Y4771696D01*
X-958531Y4760043D01*
X-1009810Y4624833D01*
X-1015388Y4614205D01*
X-1097534Y4495195D01*
X-1105494Y4486210D01*
X-1153813Y4443403D01*
X-1187500Y4368553D01*
X-1187500Y2067681D01*
X-1188115Y2059868D01*
X-1191194Y2040426D01*
X-1192425Y2024783D01*
X-1192425Y2009046D01*
X-1194856Y1993693D01*
X-1199720Y1978726D01*
X-1203384Y1963462D01*
X-1205846Y1947917D01*
X-1210649Y1933134D01*
X-1217796Y1919107D01*
X-1223801Y1904609D01*
X-1228665Y1889639D01*
X-1235720Y1875792D01*
X-1244975Y1863055D01*
X-1253175Y1849672D01*
X-1260319Y1835651D01*
X-1269460Y1823069D01*
X-1280590Y1811939D01*
X-1290781Y1800007D01*
X-1302350Y1784084D01*
X-1307435Y1778130D01*
X-9571961Y-6486396D01*
X-9601250Y-6557106D01*
X-9601250Y-6829178D01*
G37*
G36*
X-7896345Y-12299608D02*
X-7885947Y-12361186D01*
X-7841043Y-12404587D01*
X-7751001Y-12403124D01*
X-7617726Y-12333176D01*
X-7606490Y-12328915D01*
X-7466101Y-12294313D01*
X-7454172Y-12292864D01*
X-7309578Y-12292864D01*
X-7297649Y-12294313D01*
X-7157260Y-12328915D01*
X-7146024Y-12333176D01*
X-7017988Y-12400374D01*
X-7008105Y-12407197D01*
X-6899871Y-12503083D01*
X-6898672Y-12504437D01*
X-6898004Y-12504738D01*
X-6895343Y-12507095D01*
X-6894608Y-12506266D01*
X-6823821Y-12538125D01*
X-1715231Y-12538125D01*
X-1644521Y-12508836D01*
X-1158745Y-12023060D01*
X-1152791Y-12017975D01*
X-1136868Y-12006406D01*
X-1124936Y-11996215D01*
X-1113806Y-11985085D01*
X-1101224Y-11975944D01*
X-1087205Y-11968801D01*
X-1073822Y-11960601D01*
X-1061085Y-11951347D01*
X-1047238Y-11944291D01*
X-1032267Y-11939427D01*
X-1017769Y-11933422D01*
X-1003739Y-11926273D01*
X-988960Y-11921471D01*
X-973413Y-11919009D01*
X-958153Y-11915345D01*
X-943187Y-11910482D01*
X-927830Y-11908050D01*
X-912092Y-11908050D01*
X-896449Y-11906819D01*
X-877007Y-11903740D01*
X-869194Y-11903125D01*
X4363196Y-11903125D01*
X4433983Y-11871266D01*
X4434718Y-11872095D01*
X4437379Y-11869738D01*
X4438047Y-11869437D01*
X4439246Y-11868083D01*
X4547480Y-11772197D01*
X4557363Y-11765374D01*
X4685399Y-11698176D01*
X4696635Y-11693915D01*
X4837024Y-11659313D01*
X4848953Y-11657864D01*
X4993547Y-11657864D01*
X5005476Y-11659313D01*
X5145865Y-11693915D01*
X5157101Y-11698176D01*
X5285137Y-11765374D01*
X5295020Y-11772197D01*
X5403256Y-11868085D01*
X5411216Y-11877070D01*
X5493362Y-11996080D01*
X5498940Y-12006708D01*
X5550219Y-12141918D01*
X5553091Y-12153571D01*
X5570521Y-12297121D01*
X5570521Y-12309129D01*
X5553091Y-12452679D01*
X5550219Y-12464332D01*
X5498940Y-12599542D01*
X5493362Y-12610170D01*
X5411216Y-12729180D01*
X5403256Y-12738165D01*
X5295020Y-12834053D01*
X5285137Y-12840876D01*
X5157101Y-12908074D01*
X5145865Y-12912335D01*
X5005476Y-12946937D01*
X4993547Y-12948386D01*
X4848953Y-12948386D01*
X4837024Y-12946937D01*
X4696635Y-12912335D01*
X4685399Y-12908074D01*
X4557363Y-12840876D01*
X4547480Y-12834053D01*
X4439246Y-12738167D01*
X4438047Y-12736813D01*
X4437379Y-12736512D01*
X4434718Y-12734155D01*
X4433983Y-12734984D01*
X4363196Y-12703125D01*
X-666019Y-12703125D01*
X-736729Y-12732414D01*
X-1082432Y-13078117D01*
X-1110594Y-13133856D01*
X-1100196Y-13195434D01*
X-1070523Y-13229711D01*
X-1069318Y-13230587D01*
X-1055916Y-13238802D01*
X-1041901Y-13245943D01*
X-1029321Y-13255083D01*
X-1018193Y-13266211D01*
X-1006261Y-13276402D01*
X-990334Y-13287974D01*
X-984380Y-13293059D01*
X-736728Y-13540711D01*
X-666018Y-13570000D01*
X611163Y-13570000D01*
X670490Y-13550500D01*
X710433Y-13482055D01*
X717534Y-13423571D01*
X720406Y-13411918D01*
X771685Y-13276708D01*
X777263Y-13266080D01*
X859409Y-13147070D01*
X867369Y-13138085D01*
X975605Y-13042197D01*
X985488Y-13035374D01*
X1113524Y-12968176D01*
X1124760Y-12963915D01*
X1265149Y-12929313D01*
X1277078Y-12927864D01*
X1421672Y-12927864D01*
X1433601Y-12929313D01*
X1573990Y-12963915D01*
X1585226Y-12968176D01*
X1713262Y-13035374D01*
X1723145Y-13042197D01*
X1831381Y-13138085D01*
X1839341Y-13147070D01*
X1921487Y-13266080D01*
X1927065Y-13276708D01*
X1978344Y-13411918D01*
X1981216Y-13423571D01*
X1998646Y-13567121D01*
X1998646Y-13579129D01*
X1983384Y-13704822D01*
X1995591Y-13766067D01*
X2041752Y-13808128D01*
X2082654Y-13816875D01*
X5700001Y-13816875D01*
X5759328Y-13797375D01*
X5800000Y-13716876D01*
X5800000Y-10571874D01*
X5780500Y-10512547D01*
X5700001Y-10471875D01*
X285821Y-10471875D01*
X239349Y-10483329D01*
X156471Y-10526826D01*
X145246Y-10531083D01*
X97979Y-10542734D01*
X51201Y-10569117D01*
X-481903Y-11102221D01*
X-486812Y-11106526D01*
X-592925Y-11187949D01*
X-604179Y-11194447D01*
X-724724Y-11244379D01*
X-737266Y-11247740D01*
X-869886Y-11265199D01*
X-876395Y-11265625D01*
X-1460429Y-11265625D01*
X-1506901Y-11277079D01*
X-1589774Y-11320574D01*
X-1601010Y-11324835D01*
X-1741399Y-11359437D01*
X-1753328Y-11360886D01*
X-1897922Y-11360886D01*
X-1909851Y-11359437D01*
X-2050240Y-11324835D01*
X-2061476Y-11320574D01*
X-2144349Y-11277079D01*
X-2190821Y-11265625D01*
X-4917979Y-11265625D01*
X-4924490Y-11265198D01*
X-4954029Y-11261310D01*
X-4965979Y-11260461D01*
X-4992477Y-11260169D01*
X-5005347Y-11258330D01*
X-5024007Y-11253110D01*
X-5037896Y-11250268D01*
X-5057099Y-11247740D01*
X-5069658Y-11244375D01*
X-5094139Y-11234234D01*
X-5105467Y-11230318D01*
X-5130992Y-11223177D01*
X-5142940Y-11218074D01*
X-5159615Y-11208201D01*
X-5172292Y-11201863D01*
X-5190192Y-11194448D01*
X-5201448Y-11187950D01*
X-5222472Y-11171818D01*
X-5232396Y-11165108D01*
X-5255210Y-11151599D01*
X-5265427Y-11143580D01*
X-5278984Y-11129721D01*
X-5289591Y-11120316D01*
X-5304956Y-11108526D01*
X-5314148Y-11099334D01*
X-5330277Y-11078314D01*
X-5338129Y-11069261D01*
X-5358957Y-11047970D01*
X-5363214Y-11043007D01*
X-5378283Y-11022915D01*
X-5411810Y-10994370D01*
X-5523262Y-10935876D01*
X-5533145Y-10929053D01*
X-5641381Y-10833165D01*
X-5649341Y-10824180D01*
X-5731487Y-10705170D01*
X-5737065Y-10694542D01*
X-5788344Y-10559332D01*
X-5791216Y-10547679D01*
X-5807689Y-10412011D01*
X-5834198Y-10355467D01*
X-5889084Y-10325677D01*
X-5950941Y-10334258D01*
X-5977669Y-10353355D01*
X-7868183Y-12243869D01*
X-7896345Y-12299608D01*
G37*
G36*
X-6181465Y2948487D02*
X-6179673Y2886063D01*
X-6145872Y2840199D01*
X-5987629Y2720700D01*
X-5980816Y2714488D01*
X-5850295Y2571314D01*
X-5844749Y2563970D01*
X-5742750Y2399236D01*
X-5738652Y2391006D01*
X-5668665Y2210346D01*
X-5666141Y2201478D01*
X-5638585Y2054066D01*
X-5608516Y1999332D01*
X-5551838Y1973111D01*
X-5469579Y2001731D01*
X-4239289Y3232021D01*
X-4210000Y3302731D01*
X-4210000Y5199483D01*
X-4229500Y5258810D01*
X-4280395Y5294999D01*
X-4342836Y5293937D01*
X-4380709Y5270193D01*
X-4533727Y5117175D01*
X-4539110Y5112510D01*
X-4738988Y4962884D01*
X-4744977Y4959035D01*
X-4964123Y4839371D01*
X-4970596Y4836415D01*
X-5204538Y4749160D01*
X-5211364Y4747155D01*
X-5455344Y4694080D01*
X-5462399Y4693066D01*
X-5711435Y4675255D01*
X-5715545Y4675255D01*
X-5774872Y4655755D01*
X-5811061Y4604860D01*
X-5800566Y4522613D01*
X-5742750Y4429236D01*
X-5738652Y4421006D01*
X-5668665Y4240346D01*
X-5666141Y4231478D01*
X-5630541Y4041039D01*
X-5629692Y4031874D01*
X-5629692Y3838126D01*
X-5630541Y3828961D01*
X-5666141Y3638522D01*
X-5668665Y3629654D01*
X-5738652Y3448994D01*
X-5742750Y3440764D01*
X-5844749Y3276030D01*
X-5850295Y3268686D01*
X-5980816Y3125512D01*
X-5987629Y3119300D01*
X-6145872Y2999801D01*
X-6181465Y2948487D01*
G37*
G04 --- BOARD END --- *
G04 #@! TF.MD5,2787fd57002bcd55f282391aba74c0b1*
M02*
