ISO-10303-21;
HEADER;
FILE_DESCRIPTION(('STEP AP214'),'1');
FILE_NAME('ECS-2033_ECS','2024-08-21T01:13:04',(''),(''),'','','');
FILE_SCHEMA(('AUTOMOTIVE_DESIGN'));
ENDSEC;
DATA;
#1=SHAPE_DEFINITION_REPRESENTATION(#2,#3);
#2=PRODUCT_DEFINITION_SHAPE('',$,#4);
#3=SHAPE_REPRESENTATION('',(#164,#210,#322,#480,#624,#768,#19),#11);
#4=PRODUCT_DEFINITION('design','example product_definition',#6,#5);
#5=PRODUCT_DEFINITION_CONTEXT('3D Mechanical Parts',#10,'design');
#6=PRODUCT_DEFINITION_FORMATION('1.0','first version',#8);
#7=APPLICATION_PROTOCOL_DEFINITION('international standard','automotive_design',2003,#10);
#8=PRODUCT('product','part','',(#9));
#9=PRODUCT_CONTEXT('3D Mechanical Parts',#10,'mechanical');
#10=APPLICATION_CONTEXT('Core Data for Automotive Mechanical Design Process');
#11=(GEOMETRIC_REPRESENTATION_CONTEXT(3) GLOBAL_UNCERTAINTY_ASSIGNED_CONTEXT((#12)) GLOBAL_UNIT_ASSIGNED_CONTEXT((#13,#14,#18)) REPRESENTATION_CONTEXT('ID1','3D'));
#12=UNCERTAINTY_MEASURE_WITH_UNIT(LENGTH_MEASURE(1.E-005),#13,'DISTANCE_ACCURACY_VALUE','Maximum model space distance between geometric entities at asserted connectivities');
#13=(LENGTH_UNIT() NAMED_UNIT(*) SI_UNIT(.MILLI.,.METRE.));
#14=(CONVERSION_BASED_UNIT('degree',#16) NAMED_UNIT(#15) PLANE_ANGLE_UNIT());
#15=DIMENSIONAL_EXPONENTS(0.,0.,0.,0.,0.,0.,0.);
#16=MEASURE_WITH_UNIT(PLANE_ANGLE_MEASURE(0.01745329252),#17);
#17=(NAMED_UNIT(*) PLANE_ANGLE_UNIT() SI_UNIT($,.RADIAN.));
#18=(NAMED_UNIT(*) SI_UNIT($,.STERADIAN.) SOLID_ANGLE_UNIT());
#19=AXIS2_PLACEMENT_3D('',#20,#21,#22);
#20=CARTESIAN_POINT('',(0.0,0.0,0.0));
#21=DIRECTION('',(0.0,0.0,1.0));
#22=DIRECTION('',(1.0,0.0,0.0));
#23=MECHANICAL_DESIGN_GEOMETRIC_PRESENTATION_REPRESENTATION($,(#207,#208,#209,#212,#245,#268,#288,#302,#312,#324,#366,#406,#422,#436,#448,#460,#470,#482,#516,#552,#566,#580,#592,#604,#614,#626,#662,#696,#710,#724,#736,#748,#758,#770,#804,#840,#854,#868,#880,#892,#902),#11);
#24=PRODUCT_CATEGORY_RELATIONSHIP('','',#25,#26);
#25=PRODUCT_CATEGORY('part','');
#26=PRODUCT_RELATED_PRODUCT_CATEGORY('','',(#8));
#27=PRESENTATION_STYLE_ASSIGNMENT((#28,#33));
#28=SURFACE_STYLE_USAGE(.BOTH.,#29);
#29=SURFACE_SIDE_STYLE('',(#30));
#30=SURFACE_STYLE_FILL_AREA(#31);
#31=FILL_AREA_STYLE('',(#32));
#32=FILL_AREA_STYLE_COLOUR('',#34);
#33=CURVE_STYLE('',#35,POSITIVE_LENGTH_MEASURE(0.1),#34);
#34=COLOUR_RGB('Aluminum',0.725,0.725,0.725);
#35=DRAUGHTING_PRE_DEFINED_CURVE_FONT('continuous');
#36=PRESENTATION_STYLE_ASSIGNMENT((#37,#42));
#37=SURFACE_STYLE_USAGE(.BOTH.,#38);
#38=SURFACE_SIDE_STYLE('',(#39));
#39=SURFACE_STYLE_FILL_AREA(#40);
#40=FILL_AREA_STYLE('',(#41));
#41=FILL_AREA_STYLE_COLOUR('',#43);
#42=CURVE_STYLE('',#35,POSITIVE_LENGTH_MEASURE(0.1),#43);
#43=COLOUR_RGB('Black',0.196,0.196,0.196);
#44=PRESENTATION_STYLE_ASSIGNMENT((#45,#50));
#45=SURFACE_STYLE_USAGE(.BOTH.,#46);
#46=SURFACE_SIDE_STYLE('',(#47));
#47=SURFACE_STYLE_FILL_AREA(#48);
#48=FILL_AREA_STYLE('',(#49));
#49=FILL_AREA_STYLE_COLOUR('',#51);
#50=CURVE_STYLE('',#35,POSITIVE_LENGTH_MEASURE(0.1),#51);
#51=COLOUR_RGB('Pin1',0.588,0.588,0.588);
#52=PRESENTATION_STYLE_ASSIGNMENT((#53,#58));
#53=SURFACE_STYLE_USAGE(.BOTH.,#54);
#54=SURFACE_SIDE_STYLE('',(#55));
#55=SURFACE_STYLE_FILL_AREA(#56);
#56=FILL_AREA_STYLE('',(#57));
#57=FILL_AREA_STYLE_COLOUR('',#59);
#58=CURVE_STYLE('',#35,POSITIVE_LENGTH_MEASURE(0.1),#59);
#59=COLOUR_RGB('HeatTab',0.588,0.588,0.588);
#60=PRESENTATION_STYLE_ASSIGNMENT((#61,#66));
#61=SURFACE_STYLE_USAGE(.BOTH.,#62);
#62=SURFACE_SIDE_STYLE('',(#63));
#63=SURFACE_STYLE_FILL_AREA(#64);
#64=FILL_AREA_STYLE('',(#65));
#65=FILL_AREA_STYLE_COLOUR('',#67);
#66=CURVE_STYLE('',#35,POSITIVE_LENGTH_MEASURE(0.1),#67);
#67=COLOUR_RGB('Gold',0.843,0.686,0.0);
#68=PRESENTATION_STYLE_ASSIGNMENT((#69,#74));
#69=SURFACE_STYLE_USAGE(.BOTH.,#70);
#70=SURFACE_SIDE_STYLE('',(#71));
#71=SURFACE_STYLE_FILL_AREA(#72);
#72=FILL_AREA_STYLE('',(#73));
#73=FILL_AREA_STYLE_COLOUR('',#75);
#74=CURVE_STYLE('',#35,POSITIVE_LENGTH_MEASURE(0.1),#75);
#75=COLOUR_RGB('Brown',0.459,0.345,0.176);
#76=PRESENTATION_STYLE_ASSIGNMENT((#77,#82));
#77=SURFACE_STYLE_USAGE(.BOTH.,#78);
#78=SURFACE_SIDE_STYLE('',(#79));
#79=SURFACE_STYLE_FILL_AREA(#80);
#80=FILL_AREA_STYLE('',(#81));
#81=FILL_AREA_STYLE_COLOUR('',#83);
#82=CURVE_STYLE('',#35,POSITIVE_LENGTH_MEASURE(0.1),#83);
#83=COLOUR_RGB('Tan',0.784,0.686,0.51);
#84=PRESENTATION_STYLE_ASSIGNMENT((#85,#90));
#85=SURFACE_STYLE_USAGE(.BOTH.,#86);
#86=SURFACE_SIDE_STYLE('',(#87));
#87=SURFACE_STYLE_FILL_AREA(#88);
#88=FILL_AREA_STYLE('',(#89));
#89=FILL_AREA_STYLE_COLOUR('',#91);
#90=CURVE_STYLE('',#35,POSITIVE_LENGTH_MEASURE(0.1),#91);
#91=COLOUR_RGB('Gray',0.431,0.431,0.431);
#92=PRESENTATION_STYLE_ASSIGNMENT((#93,#98));
#93=SURFACE_STYLE_USAGE(.BOTH.,#94);
#94=SURFACE_SIDE_STYLE('',(#95));
#95=SURFACE_STYLE_FILL_AREA(#96);
#96=FILL_AREA_STYLE('',(#97));
#97=FILL_AREA_STYLE_COLOUR('',#99);
#98=CURVE_STYLE('',#35,POSITIVE_LENGTH_MEASURE(0.1),#99);
#99=COLOUR_RGB('Red',0.6,0.0,0.0);
#100=PRESENTATION_STYLE_ASSIGNMENT((#101,#106));
#101=SURFACE_STYLE_USAGE(.BOTH.,#102);
#102=SURFACE_SIDE_STYLE('',(#103));
#103=SURFACE_STYLE_FILL_AREA(#104);
#104=FILL_AREA_STYLE('',(#105));
#105=FILL_AREA_STYLE_COLOUR('',#107);
#106=CURVE_STYLE('',#35,POSITIVE_LENGTH_MEASURE(0.1),#107);
#107=COLOUR_RGB('Blue',0.157,0.157,0.588);
#108=PRESENTATION_STYLE_ASSIGNMENT((#109,#114));
#109=SURFACE_STYLE_USAGE(.BOTH.,#110);
#110=SURFACE_SIDE_STYLE('',(#111));
#111=SURFACE_STYLE_FILL_AREA(#112);
#112=FILL_AREA_STYLE('',(#113));
#113=FILL_AREA_STYLE_COLOUR('',#115);
#114=CURVE_STYLE('',#35,POSITIVE_LENGTH_MEASURE(0.1),#115);
#115=COLOUR_RGB('Maroon',0.294,0.0,0.0);
#116=PRESENTATION_STYLE_ASSIGNMENT((#117,#122));
#117=SURFACE_STYLE_USAGE(.BOTH.,#118);
#118=SURFACE_SIDE_STYLE('',(#119));
#119=SURFACE_STYLE_FILL_AREA(#120);
#120=FILL_AREA_STYLE('',(#121));
#121=FILL_AREA_STYLE_COLOUR('',#123);
#122=CURVE_STYLE('',#35,POSITIVE_LENGTH_MEASURE(0.1),#123);
#123=COLOUR_RGB('Green',0.0,0.294,0.0);
#124=PRESENTATION_STYLE_ASSIGNMENT((#125,#130));
#125=SURFACE_STYLE_USAGE(.BOTH.,#126);
#126=SURFACE_SIDE_STYLE('',(#127));
#127=SURFACE_STYLE_FILL_AREA(#128);
#128=FILL_AREA_STYLE('',(#129));
#129=FILL_AREA_STYLE_COLOUR('',#131);
#130=CURVE_STYLE('',#35,POSITIVE_LENGTH_MEASURE(0.1),#131);
#131=COLOUR_RGB('Pin1Wrap',0.98,0.706,0.176);
#132=PRESENTATION_STYLE_ASSIGNMENT((#133,#138));
#133=SURFACE_STYLE_USAGE(.BOTH.,#134);
#134=SURFACE_SIDE_STYLE('',(#135));
#135=SURFACE_STYLE_FILL_AREA(#136);
#136=FILL_AREA_STYLE('',(#137));
#137=FILL_AREA_STYLE_COLOUR('',#139);
#138=CURVE_STYLE('',#35,POSITIVE_LENGTH_MEASURE(0.1),#139);
#139=COLOUR_RGB('Pin1Rad',0.588,0.588,0.588);
#140=PRESENTATION_STYLE_ASSIGNMENT((#141,#146));
#141=SURFACE_STYLE_USAGE(.BOTH.,#142);
#142=SURFACE_SIDE_STYLE('',(#143));
#143=SURFACE_STYLE_FILL_AREA(#144);
#144=FILL_AREA_STYLE('',(#145));
#145=FILL_AREA_STYLE_COLOUR('',#147);
#146=CURVE_STYLE('',#35,POSITIVE_LENGTH_MEASURE(0.1),#147);
#147=COLOUR_RGB('Pin1Axial',0.98,0.706,0.176);
#148=PRESENTATION_STYLE_ASSIGNMENT((#149,#154));
#149=SURFACE_STYLE_USAGE(.BOTH.,#150);
#150=SURFACE_SIDE_STYLE('',(#151));
#151=SURFACE_STYLE_FILL_AREA(#152);
#152=FILL_AREA_STYLE('',(#153));
#153=FILL_AREA_STYLE_COLOUR('',#155);
#154=CURVE_STYLE('',#35,POSITIVE_LENGTH_MEASURE(0.1),#155);
#155=COLOUR_RGB('Pin1Tant',0.459,0.345,0.176);
#156=PRESENTATION_STYLE_ASSIGNMENT((#157,#162));
#157=SURFACE_STYLE_USAGE(.BOTH.,#158);
#158=SURFACE_SIDE_STYLE('',(#159));
#159=SURFACE_STYLE_FILL_AREA(#160);
#160=FILL_AREA_STYLE('',(#161));
#161=FILL_AREA_STYLE_COLOUR('',#163);
#162=CURVE_STYLE('',#35,POSITIVE_LENGTH_MEASURE(0.1),#163);
#163=COLOUR_RGB('Shroud',0.235,0.235,0.235);
#164=MANIFOLD_SOLID_BREP($,#165);
#165=CLOSED_SHELL('',(#166,#167,#168));
#166=ADVANCED_FACE($,(#172,#171),#189,.T.);
#167=ADVANCED_FACE($,(#173),#169,.F.);
#168=ADVANCED_FACE($,(#174),#170,.T.);
#169=PLANE($,#194);
#170=PLANE($,#195);
#171=FACE_BOUND($,#176,.T.);
#172=FACE_OUTER_BOUND($,#175,.T.);
#173=FACE_OUTER_BOUND($,#177,.T.);
#174=FACE_OUTER_BOUND($,#178,.T.);
#175=EDGE_LOOP($,(#185));
#176=EDGE_LOOP($,(#186));
#177=EDGE_LOOP($,(#187));
#178=EDGE_LOOP($,(#188));
#179=CIRCLE($,#192,0.050165);
#180=CIRCLE($,#193,0.050165);
#181=VERTEX_POINT('',#204);
#182=VERTEX_POINT('',#206);
#183=EDGE_CURVE($,#181,#181,#179,.T.);
#184=EDGE_CURVE($,#182,#182,#180,.T.);
#185=ORIENTED_EDGE($,*,*,#183,.F.);
#186=ORIENTED_EDGE($,*,*,#184,.F.);
#187=ORIENTED_EDGE($,*,*,#184,.T.);
#188=ORIENTED_EDGE($,*,*,#183,.T.);
#189=CYLINDRICAL_SURFACE($,#191,0.050165);
#190=AXIS2_PLACEMENT_3D('placement',#202,#196,#197);
#191=AXIS2_PLACEMENT_3D($,#203,#198,#199);
#192=AXIS2_PLACEMENT_3D($,#205,#198,#199);
#193=AXIS2_PLACEMENT_3D($,#203,#200,#199);
#194=AXIS2_PLACEMENT_3D($,#203,#198,#201);
#195=AXIS2_PLACEMENT_3D($,#205,#198,#201);
#196=DIRECTION('axis',(0.,1.,0.));
#197=DIRECTION('refdir',(1.,0.,0.));
#198=DIRECTION('',(0.,0.,1.));
#199=DIRECTION('',(1.,0.,0.));
#200=DIRECTION('',(0.,0.,-1.));
#201=DIRECTION('',(0.,1.,0.));
#202=CARTESIAN_POINT('',(0.,0.,0.));
#203=CARTESIAN_POINT('',(-0.803,0.925,0.991));
#204=CARTESIAN_POINT('',(-0.853,0.925,0.993));
#205=CARTESIAN_POINT('',(-0.803,0.925,0.993));
#206=CARTESIAN_POINT('',(-0.853,0.925,0.991));
#207=STYLED_ITEM('color',(#44),#166);
#208=STYLED_ITEM('color',(#44),#167);
#209=STYLED_ITEM('color',(#44),#168);
#210=MANIFOLD_SOLID_BREP($,#211);
#211=CLOSED_SHELL('',(#213,#246,#269,#289,#303,#313));
#212=STYLED_ITEM('',(#36),#213);
#213=ADVANCED_FACE('',(#218),#214,.T.);
#214=PLANE('',#215);
#215=AXIS2_PLACEMENT_3D('',#216,#217,#198);
#216=CARTESIAN_POINT('',(-1.003,-1.295,0.051));
#217=DIRECTION('',(0.0,-1.0,0.0));
#218=FACE_OUTER_BOUND('',#219,.T.);
#219=EDGE_LOOP('',(#220,#228,#235,#241));
#220=ORIENTED_EDGE('',*,*,#221,.F.);
#221=EDGE_CURVE('',#222,#224,#225,.T.);
#222=VERTEX_POINT('',#223);
#223=CARTESIAN_POINT('',(1.003,-1.295,0.051));
#224=VERTEX_POINT('',#216);
#225=LINE('',#223,#226);
#226=VECTOR('',#227,2.0066);
#227=DIRECTION('',(-1.0,0.0,0.0));
#228=ORIENTED_EDGE('',*,*,#229,.F.);
#229=EDGE_CURVE('',#230,#222,#232,.T.);
#230=VERTEX_POINT('',#231);
#231=CARTESIAN_POINT('',(1.003,-1.295,0.991));
#232=LINE('',#231,#233);
#233=VECTOR('',#234,0.9397746);
#234=DIRECTION('',(0.0,0.0,-1.0));
#235=ORIENTED_EDGE('',*,*,#236,.F.);
#236=EDGE_CURVE('',#237,#230,#239,.T.);
#237=VERTEX_POINT('',#238);
#238=CARTESIAN_POINT('',(-1.003,-1.295,0.991));
#239=LINE('',#238,#240);
#240=VECTOR('',#22,2.0066);
#241=ORIENTED_EDGE('',*,*,#242,.F.);
#242=EDGE_CURVE('',#224,#237,#243,.T.);
#243=LINE('',#216,#244);
#244=VECTOR('',#21,0.9397746);
#245=STYLED_ITEM('',(#36),#246);
#246=ADVANCED_FACE('',(#249),#247,.T.);
#247=PLANE('',#248);
#248=AXIS2_PLACEMENT_3D('',#223,#22,#198);
#249=FACE_OUTER_BOUND('',#250,.T.);
#250=EDGE_LOOP('',(#251,#257,#262,#267));
#251=ORIENTED_EDGE('',*,*,#252,.F.);
#252=EDGE_CURVE('',#253,#222,#255,.T.);
#253=VERTEX_POINT('',#254);
#254=CARTESIAN_POINT('',(1.003,1.295,0.051));
#255=LINE('',#254,#256);
#256=VECTOR('',#217,2.5908);
#257=ORIENTED_EDGE('',*,*,#258,.F.);
#258=EDGE_CURVE('',#259,#253,#261,.T.);
#259=VERTEX_POINT('',#260);
#260=CARTESIAN_POINT('',(1.003,1.295,0.991));
#261=LINE('',#260,#233);
#262=ORIENTED_EDGE('',*,*,#263,.F.);
#263=EDGE_CURVE('',#230,#259,#264,.T.);
#264=LINE('',#231,#265);
#265=VECTOR('',#266,2.5908);
#266=DIRECTION('',(0.0,1.0,0.0));
#267=ORIENTED_EDGE('',*,*,#229,.T.);
#268=STYLED_ITEM('',(#36),#269);
#269=ADVANCED_FACE('',(#272),#270,.T.);
#270=PLANE('',#271);
#271=AXIS2_PLACEMENT_3D('',#254,#266,#198);
#272=FACE_OUTER_BOUND('',#273,.T.);
#273=EDGE_LOOP('',(#274,#279,#284,#287));
#274=ORIENTED_EDGE('',*,*,#275,.F.);
#275=EDGE_CURVE('',#276,#253,#278,.T.);
#276=VERTEX_POINT('',#277);
#277=CARTESIAN_POINT('',(-1.003,1.295,0.051));
#278=LINE('',#277,#240);
#279=ORIENTED_EDGE('',*,*,#280,.F.);
#280=EDGE_CURVE('',#281,#276,#283,.T.);
#281=VERTEX_POINT('',#282);
#282=CARTESIAN_POINT('',(-1.003,1.295,0.991));
#283=LINE('',#282,#233);
#284=ORIENTED_EDGE('',*,*,#285,.F.);
#285=EDGE_CURVE('',#259,#281,#286,.T.);
#286=LINE('',#260,#226);
#287=ORIENTED_EDGE('',*,*,#258,.T.);
#288=STYLED_ITEM('',(#36),#289);
#289=ADVANCED_FACE('',(#292),#290,.T.);
#290=PLANE('',#291);
#291=AXIS2_PLACEMENT_3D('',#277,#227,#198);
#292=FACE_OUTER_BOUND('',#293,.T.);
#293=EDGE_LOOP('',(#294,#297,#298,#301));
#294=ORIENTED_EDGE('',*,*,#295,.F.);
#295=EDGE_CURVE('',#224,#276,#296,.T.);
#296=LINE('',#216,#265);
#297=ORIENTED_EDGE('',*,*,#242,.T.);
#298=ORIENTED_EDGE('',*,*,#299,.F.);
#299=EDGE_CURVE('',#281,#237,#300,.T.);
#300=LINE('',#282,#256);
#301=ORIENTED_EDGE('',*,*,#280,.T.);
#302=STYLED_ITEM('',(#36),#303);
#303=ADVANCED_FACE('',(#306),#304,.T.);
#304=PLANE('',#305);
#305=AXIS2_PLACEMENT_3D('',#277,#234,#201);
#306=FACE_OUTER_BOUND('',#307,.T.);
#307=EDGE_LOOP('',(#308,#309,#310,#311));
#308=ORIENTED_EDGE('',*,*,#275,.T.);
#309=ORIENTED_EDGE('',*,*,#252,.T.);
#310=ORIENTED_EDGE('',*,*,#221,.T.);
#311=ORIENTED_EDGE('',*,*,#295,.T.);
#312=STYLED_ITEM('',(#36),#313);
#313=ADVANCED_FACE('',(#316),#314,.T.);
#314=PLANE('',#315);
#315=AXIS2_PLACEMENT_3D('',#238,#21,#201);
#316=FACE_OUTER_BOUND('',#317,.T.);
#317=EDGE_LOOP('',(#318,#319,#320,#321));
#318=ORIENTED_EDGE('',*,*,#236,.T.);
#319=ORIENTED_EDGE('',*,*,#263,.T.);
#320=ORIENTED_EDGE('',*,*,#285,.T.);
#321=ORIENTED_EDGE('',*,*,#299,.T.);
#322=MANIFOLD_SOLID_BREP($,#323);
#323=CLOSED_SHELL('',(#325,#367,#407,#423,#437,#449,#461,#471));
#324=STYLED_ITEM('',(#27),#325);
#325=ADVANCED_FACE('',(#329),#326,.T.);
#326=PLANE('',#327);
#327=AXIS2_PLACEMENT_3D('',#328,#266,#198);
#328=CARTESIAN_POINT('',(1.054,-0.481,0.0));
#329=FACE_OUTER_BOUND('',#330,.T.);
#330=EDGE_LOOP('',(#331,#338,#344,#350,#356,#362));
#331=ORIENTED_EDGE('',*,*,#332,.F.);
#332=EDGE_CURVE('',#333,#335,#336,.T.);
#333=VERTEX_POINT('',#334);
#334=CARTESIAN_POINT('',(0.319,-0.481,0.0));
#335=VERTEX_POINT('',#328);
#336=LINE('',#334,#337);
#337=VECTOR('',#22,0.735500053);
#338=ORIENTED_EDGE('',*,*,#339,.F.);
#339=EDGE_CURVE('',#340,#333,#342,.T.);
#340=VERTEX_POINT('',#341);
#341=CARTESIAN_POINT('',(0.319,-0.481,0.051));
#342=LINE('',#341,#343);
#343=VECTOR('',#234,0.0508);
#344=ORIENTED_EDGE('',*,*,#345,.F.);
#345=EDGE_CURVE('',#346,#340,#348,.T.);
#346=VERTEX_POINT('',#347);
#347=CARTESIAN_POINT('',(1.003,-0.481,0.051));
#348=LINE('',#347,#349);
#349=VECTOR('',#227,0.684700053);
#350=ORIENTED_EDGE('',*,*,#351,.F.);
#351=EDGE_CURVE('',#352,#346,#354,.T.);
#352=VERTEX_POINT('',#353);
#353=CARTESIAN_POINT('',(1.003,-0.481,0.381));
#354=LINE('',#353,#355);
#355=VECTOR('',#234,0.3302);
#356=ORIENTED_EDGE('',*,*,#357,.F.);
#357=EDGE_CURVE('',#358,#352,#360,.T.);
#358=VERTEX_POINT('',#359);
#359=CARTESIAN_POINT('',(1.054,-0.481,0.381));
#360=LINE('',#359,#361);
#361=VECTOR('',#227,0.0508);
#362=ORIENTED_EDGE('',*,*,#363,.F.);
#363=EDGE_CURVE('',#335,#358,#364,.T.);
#364=LINE('',#328,#365);
#365=VECTOR('',#21,0.381);
#366=STYLED_ITEM('',(#27),#367);
#367=ADVANCED_FACE('',(#371),#368,.T.);
#368=PLANE('',#369);
#369=AXIS2_PLACEMENT_3D('',#370,#217,#198);
#370=CARTESIAN_POINT('',(0.319,-1.295,0.0));
#371=FACE_OUTER_BOUND('',#372,.T.);
#372=EDGE_LOOP('',(#373,#380,#386,#392,#396,#402));
#373=ORIENTED_EDGE('',*,*,#374,.F.);
#374=EDGE_CURVE('',#375,#377,#378,.T.);
#375=VERTEX_POINT('',#376);
#376=CARTESIAN_POINT('',(1.054,-1.295,0.0));
#377=VERTEX_POINT('',#370);
#378=LINE('',#376,#379);
#379=VECTOR('',#227,0.735500053);
#380=ORIENTED_EDGE('',*,*,#381,.F.);
#381=EDGE_CURVE('',#382,#375,#384,.T.);
#382=VERTEX_POINT('',#383);
#383=CARTESIAN_POINT('',(1.054,-1.295,0.381));
#384=LINE('',#383,#385);
#385=VECTOR('',#234,0.381);
#386=ORIENTED_EDGE('',*,*,#387,.F.);
#387=EDGE_CURVE('',#388,#382,#390,.T.);
#388=VERTEX_POINT('',#389);
#389=CARTESIAN_POINT('',(1.003,-1.295,0.381));
#390=LINE('',#389,#391);
#391=VECTOR('',#22,0.0508);
#392=ORIENTED_EDGE('',*,*,#393,.F.);
#393=EDGE_CURVE('',#222,#388,#394,.T.);
#394=LINE('',#223,#395);
#395=VECTOR('',#21,0.3302);
#396=ORIENTED_EDGE('',*,*,#397,.F.);
#397=EDGE_CURVE('',#398,#222,#400,.T.);
#398=VERTEX_POINT('',#399);
#399=CARTESIAN_POINT('',(0.319,-1.295,0.051));
#400=LINE('',#399,#401);
#401=VECTOR('',#22,0.684700053);
#402=ORIENTED_EDGE('',*,*,#403,.F.);
#403=EDGE_CURVE('',#377,#398,#404,.T.);
#404=LINE('',#370,#405);
#405=VECTOR('',#21,0.0508);
#406=STYLED_ITEM('',(#27),#407);
#407=ADVANCED_FACE('',(#410),#408,.T.);
#408=PLANE('',#409);
#409=AXIS2_PLACEMENT_3D('',#359,#21,#201);
#410=FACE_OUTER_BOUND('',#411,.T.);
#411=EDGE_LOOP('',(#412,#413,#417,#418));
#412=ORIENTED_EDGE('',*,*,#357,.T.);
#413=ORIENTED_EDGE('',*,*,#414,.F.);
#414=EDGE_CURVE('',#388,#352,#415,.T.);
#415=LINE('',#389,#416);
#416=VECTOR('',#266,0.814899945);
#417=ORIENTED_EDGE('',*,*,#387,.T.);
#418=ORIENTED_EDGE('',*,*,#419,.F.);
#419=EDGE_CURVE('',#358,#382,#420,.T.);
#420=LINE('',#359,#421);
#421=VECTOR('',#217,0.814899945);
#422=STYLED_ITEM('',(#27),#423);
#423=ADVANCED_FACE('',(#426),#424,.T.);
#424=PLANE('',#425);
#425=AXIS2_PLACEMENT_3D('',#347,#21,#201);
#426=FACE_OUTER_BOUND('',#427,.T.);
#427=EDGE_LOOP('',(#428,#429,#432,#433));
#428=ORIENTED_EDGE('',*,*,#345,.T.);
#429=ORIENTED_EDGE('',*,*,#430,.F.);
#430=EDGE_CURVE('',#398,#340,#431,.T.);
#431=LINE('',#399,#416);
#432=ORIENTED_EDGE('',*,*,#397,.T.);
#433=ORIENTED_EDGE('',*,*,#434,.F.);
#434=EDGE_CURVE('',#346,#222,#435,.T.);
#435=LINE('',#347,#421);
#436=STYLED_ITEM('',(#27),#437);
#437=ADVANCED_FACE('',(#440),#438,.T.);
#438=PLANE('',#439);
#439=AXIS2_PLACEMENT_3D('',#376,#22,#198);
#440=FACE_OUTER_BOUND('',#441,.T.);
#441=EDGE_LOOP('',(#442,#445,#446,#447));
#442=ORIENTED_EDGE('',*,*,#443,.F.);
#443=EDGE_CURVE('',#335,#375,#444,.T.);
#444=LINE('',#328,#421);
#445=ORIENTED_EDGE('',*,*,#363,.T.);
#446=ORIENTED_EDGE('',*,*,#419,.T.);
#447=ORIENTED_EDGE('',*,*,#381,.T.);
#448=STYLED_ITEM('',(#27),#449);
#449=ADVANCED_FACE('',(#452),#450,.T.);
#450=PLANE('',#451);
#451=AXIS2_PLACEMENT_3D('',#334,#227,#198);
#452=FACE_OUTER_BOUND('',#453,.T.);
#453=EDGE_LOOP('',(#454,#457,#458,#459));
#454=ORIENTED_EDGE('',*,*,#455,.F.);
#455=EDGE_CURVE('',#377,#333,#456,.T.);
#456=LINE('',#370,#416);
#457=ORIENTED_EDGE('',*,*,#403,.T.);
#458=ORIENTED_EDGE('',*,*,#430,.T.);
#459=ORIENTED_EDGE('',*,*,#339,.T.);
#460=STYLED_ITEM('',(#27),#461);
#461=ADVANCED_FACE('',(#464),#462,.T.);
#462=PLANE('',#463);
#463=AXIS2_PLACEMENT_3D('',#347,#227,#198);
#464=FACE_OUTER_BOUND('',#465,.T.);
#465=EDGE_LOOP('',(#466,#467,#468,#469));
#466=ORIENTED_EDGE('',*,*,#434,.T.);
#467=ORIENTED_EDGE('',*,*,#393,.T.);
#468=ORIENTED_EDGE('',*,*,#414,.T.);
#469=ORIENTED_EDGE('',*,*,#351,.T.);
#470=STYLED_ITEM('',(#27),#471);
#471=ADVANCED_FACE('',(#474),#472,.T.);
#472=PLANE('',#473);
#473=AXIS2_PLACEMENT_3D('',#376,#234,#201);
#474=FACE_OUTER_BOUND('',#475,.T.);
#475=EDGE_LOOP('',(#476,#477,#478,#479));
#476=ORIENTED_EDGE('',*,*,#374,.T.);
#477=ORIENTED_EDGE('',*,*,#455,.T.);
#478=ORIENTED_EDGE('',*,*,#332,.T.);
#479=ORIENTED_EDGE('',*,*,#443,.T.);
#480=MANIFOLD_SOLID_BREP($,#481);
#481=CLOSED_SHELL('',(#483,#517,#553,#567,#581,#593,#605,#615));
#482=STYLED_ITEM('',(#27),#483);
#483=ADVANCED_FACE('',(#487),#484,.T.);
#484=PLANE('',#485);
#485=AXIS2_PLACEMENT_3D('',#486,#266,#198);
#486=CARTESIAN_POINT('',(1.054,1.295,0.0));
#487=FACE_OUTER_BOUND('',#488,.T.);
#488=EDGE_LOOP('',(#489,#495,#500,#503,#508,#513));
#489=ORIENTED_EDGE('',*,*,#490,.F.);
#490=EDGE_CURVE('',#491,#493,#494,.T.);
#491=VERTEX_POINT('',#492);
#492=CARTESIAN_POINT('',(0.319,1.295,0.0));
#493=VERTEX_POINT('',#486);
#494=LINE('',#492,#337);
#495=ORIENTED_EDGE('',*,*,#496,.F.);
#496=EDGE_CURVE('',#497,#491,#499,.T.);
#497=VERTEX_POINT('',#498);
#498=CARTESIAN_POINT('',(0.319,1.295,0.051));
#499=LINE('',#498,#343);
#500=ORIENTED_EDGE('',*,*,#501,.F.);
#501=EDGE_CURVE('',#253,#497,#502,.T.);
#502=LINE('',#254,#349);
#503=ORIENTED_EDGE('',*,*,#504,.F.);
#504=EDGE_CURVE('',#505,#253,#507,.T.);
#505=VERTEX_POINT('',#506);
#506=CARTESIAN_POINT('',(1.003,1.295,0.381));
#507=LINE('',#506,#355);
#508=ORIENTED_EDGE('',*,*,#509,.F.);
#509=EDGE_CURVE('',#510,#505,#512,.T.);
#510=VERTEX_POINT('',#511);
#511=CARTESIAN_POINT('',(1.054,1.295,0.381));
#512=LINE('',#511,#361);
#513=ORIENTED_EDGE('',*,*,#514,.F.);
#514=EDGE_CURVE('',#493,#510,#515,.T.);
#515=LINE('',#486,#365);
#516=STYLED_ITEM('',(#27),#517);
#517=ADVANCED_FACE('',(#521),#518,.T.);
#518=PLANE('',#519);
#519=AXIS2_PLACEMENT_3D('',#520,#217,#198);
#520=CARTESIAN_POINT('',(0.319,0.481,0.0));
#521=FACE_OUTER_BOUND('',#522,.T.);
#522=EDGE_LOOP('',(#523,#529,#534,#539,#544,#549));
#523=ORIENTED_EDGE('',*,*,#524,.F.);
#524=EDGE_CURVE('',#525,#527,#528,.T.);
#525=VERTEX_POINT('',#526);
#526=CARTESIAN_POINT('',(1.054,0.481,0.0));
#527=VERTEX_POINT('',#520);
#528=LINE('',#526,#379);
#529=ORIENTED_EDGE('',*,*,#530,.F.);
#530=EDGE_CURVE('',#531,#525,#533,.T.);
#531=VERTEX_POINT('',#532);
#532=CARTESIAN_POINT('',(1.054,0.481,0.381));
#533=LINE('',#532,#385);
#534=ORIENTED_EDGE('',*,*,#535,.F.);
#535=EDGE_CURVE('',#536,#531,#538,.T.);
#536=VERTEX_POINT('',#537);
#537=CARTESIAN_POINT('',(1.003,0.481,0.381));
#538=LINE('',#537,#391);
#539=ORIENTED_EDGE('',*,*,#540,.F.);
#540=EDGE_CURVE('',#541,#536,#543,.T.);
#541=VERTEX_POINT('',#542);
#542=CARTESIAN_POINT('',(1.003,0.481,0.051));
#543=LINE('',#542,#395);
#544=ORIENTED_EDGE('',*,*,#545,.F.);
#545=EDGE_CURVE('',#546,#541,#548,.T.);
#546=VERTEX_POINT('',#547);
#547=CARTESIAN_POINT('',(0.319,0.481,0.051));
#548=LINE('',#547,#401);
#549=ORIENTED_EDGE('',*,*,#550,.F.);
#550=EDGE_CURVE('',#527,#546,#551,.T.);
#551=LINE('',#520,#405);
#552=STYLED_ITEM('',(#27),#553);
#553=ADVANCED_FACE('',(#556),#554,.T.);
#554=PLANE('',#555);
#555=AXIS2_PLACEMENT_3D('',#511,#21,#201);
#556=FACE_OUTER_BOUND('',#557,.T.);
#557=EDGE_LOOP('',(#558,#559,#562,#563));
#558=ORIENTED_EDGE('',*,*,#509,.T.);
#559=ORIENTED_EDGE('',*,*,#560,.F.);
#560=EDGE_CURVE('',#536,#505,#561,.T.);
#561=LINE('',#537,#416);
#562=ORIENTED_EDGE('',*,*,#535,.T.);
#563=ORIENTED_EDGE('',*,*,#564,.F.);
#564=EDGE_CURVE('',#510,#531,#565,.T.);
#565=LINE('',#511,#421);
#566=STYLED_ITEM('',(#27),#567);
#567=ADVANCED_FACE('',(#570),#568,.T.);
#568=PLANE('',#569);
#569=AXIS2_PLACEMENT_3D('',#254,#21,#201);
#570=FACE_OUTER_BOUND('',#571,.T.);
#571=EDGE_LOOP('',(#572,#573,#576,#577));
#572=ORIENTED_EDGE('',*,*,#501,.T.);
#573=ORIENTED_EDGE('',*,*,#574,.F.);
#574=EDGE_CURVE('',#546,#497,#575,.T.);
#575=LINE('',#547,#416);
#576=ORIENTED_EDGE('',*,*,#545,.T.);
#577=ORIENTED_EDGE('',*,*,#578,.F.);
#578=EDGE_CURVE('',#253,#541,#579,.T.);
#579=LINE('',#254,#421);
#580=STYLED_ITEM('',(#27),#581);
#581=ADVANCED_FACE('',(#584),#582,.T.);
#582=PLANE('',#583);
#583=AXIS2_PLACEMENT_3D('',#526,#22,#198);
#584=FACE_OUTER_BOUND('',#585,.T.);
#585=EDGE_LOOP('',(#586,#589,#590,#591));
#586=ORIENTED_EDGE('',*,*,#587,.F.);
#587=EDGE_CURVE('',#493,#525,#588,.T.);
#588=LINE('',#486,#421);
#589=ORIENTED_EDGE('',*,*,#514,.T.);
#590=ORIENTED_EDGE('',*,*,#564,.T.);
#591=ORIENTED_EDGE('',*,*,#530,.T.);
#592=STYLED_ITEM('',(#27),#593);
#593=ADVANCED_FACE('',(#596),#594,.T.);
#594=PLANE('',#595);
#595=AXIS2_PLACEMENT_3D('',#492,#227,#198);
#596=FACE_OUTER_BOUND('',#597,.T.);
#597=EDGE_LOOP('',(#598,#601,#602,#603));
#598=ORIENTED_EDGE('',*,*,#599,.F.);
#599=EDGE_CURVE('',#527,#491,#600,.T.);
#600=LINE('',#520,#416);
#601=ORIENTED_EDGE('',*,*,#550,.T.);
#602=ORIENTED_EDGE('',*,*,#574,.T.);
#603=ORIENTED_EDGE('',*,*,#496,.T.);
#604=STYLED_ITEM('',(#27),#605);
#605=ADVANCED_FACE('',(#608),#606,.T.);
#606=PLANE('',#607);
#607=AXIS2_PLACEMENT_3D('',#254,#227,#198);
#608=FACE_OUTER_BOUND('',#609,.T.);
#609=EDGE_LOOP('',(#610,#611,#612,#613));
#610=ORIENTED_EDGE('',*,*,#578,.T.);
#611=ORIENTED_EDGE('',*,*,#540,.T.);
#612=ORIENTED_EDGE('',*,*,#560,.T.);
#613=ORIENTED_EDGE('',*,*,#504,.T.);
#614=STYLED_ITEM('',(#27),#615);
#615=ADVANCED_FACE('',(#618),#616,.T.);
#616=PLANE('',#617);
#617=AXIS2_PLACEMENT_3D('',#526,#234,#201);
#618=FACE_OUTER_BOUND('',#619,.T.);
#619=EDGE_LOOP('',(#620,#621,#622,#623));
#620=ORIENTED_EDGE('',*,*,#524,.T.);
#621=ORIENTED_EDGE('',*,*,#599,.T.);
#622=ORIENTED_EDGE('',*,*,#490,.T.);
#623=ORIENTED_EDGE('',*,*,#587,.T.);
#624=MANIFOLD_SOLID_BREP($,#625);
#625=CLOSED_SHELL('',(#627,#663,#697,#711,#725,#737,#749,#759));
#626=STYLED_ITEM('',(#27),#627);
#627=ADVANCED_FACE('',(#631),#628,.T.);
#628=PLANE('',#629);
#629=AXIS2_PLACEMENT_3D('',#630,#217,#198);
#630=CARTESIAN_POINT('',(-1.054,0.481,0.0));
#631=FACE_OUTER_BOUND('',#632,.T.);
#632=EDGE_LOOP('',(#633,#639,#644,#649,#654,#659));
#633=ORIENTED_EDGE('',*,*,#634,.F.);
#634=EDGE_CURVE('',#635,#637,#638,.T.);
#635=VERTEX_POINT('',#636);
#636=CARTESIAN_POINT('',(-0.319,0.481,0.0));
#637=VERTEX_POINT('',#630);
#638=LINE('',#636,#379);
#639=ORIENTED_EDGE('',*,*,#640,.F.);
#640=EDGE_CURVE('',#641,#635,#643,.T.);
#641=VERTEX_POINT('',#642);
#642=CARTESIAN_POINT('',(-0.319,0.481,0.051));
#643=LINE('',#642,#343);
#644=ORIENTED_EDGE('',*,*,#645,.F.);
#645=EDGE_CURVE('',#646,#641,#648,.T.);
#646=VERTEX_POINT('',#647);
#647=CARTESIAN_POINT('',(-1.003,0.481,0.051));
#648=LINE('',#647,#401);
#649=ORIENTED_EDGE('',*,*,#650,.F.);
#650=EDGE_CURVE('',#651,#646,#653,.T.);
#651=VERTEX_POINT('',#652);
#652=CARTESIAN_POINT('',(-1.003,0.481,0.381));
#653=LINE('',#652,#355);
#654=ORIENTED_EDGE('',*,*,#655,.F.);
#655=EDGE_CURVE('',#656,#651,#658,.T.);
#656=VERTEX_POINT('',#657);
#657=CARTESIAN_POINT('',(-1.054,0.481,0.381));
#658=LINE('',#657,#391);
#659=ORIENTED_EDGE('',*,*,#660,.F.);
#660=EDGE_CURVE('',#637,#656,#661,.T.);
#661=LINE('',#630,#365);
#662=STYLED_ITEM('',(#27),#663);
#663=ADVANCED_FACE('',(#667),#664,.T.);
#664=PLANE('',#665);
#665=AXIS2_PLACEMENT_3D('',#666,#266,#198);
#666=CARTESIAN_POINT('',(-0.319,1.295,0.0));
#667=FACE_OUTER_BOUND('',#668,.T.);
#668=EDGE_LOOP('',(#669,#675,#680,#685,#688,#693));
#669=ORIENTED_EDGE('',*,*,#670,.F.);
#670=EDGE_CURVE('',#671,#673,#674,.T.);
#671=VERTEX_POINT('',#672);
#672=CARTESIAN_POINT('',(-1.054,1.295,0.0));
#673=VERTEX_POINT('',#666);
#674=LINE('',#672,#337);
#675=ORIENTED_EDGE('',*,*,#676,.F.);
#676=EDGE_CURVE('',#677,#671,#679,.T.);
#677=VERTEX_POINT('',#678);
#678=CARTESIAN_POINT('',(-1.054,1.295,0.381));
#679=LINE('',#678,#385);
#680=ORIENTED_EDGE('',*,*,#681,.F.);
#681=EDGE_CURVE('',#682,#677,#684,.T.);
#682=VERTEX_POINT('',#683);
#683=CARTESIAN_POINT('',(-1.003,1.295,0.381));
#684=LINE('',#683,#361);
#685=ORIENTED_EDGE('',*,*,#686,.F.);
#686=EDGE_CURVE('',#276,#682,#687,.T.);
#687=LINE('',#277,#395);
#688=ORIENTED_EDGE('',*,*,#689,.F.);
#689=EDGE_CURVE('',#690,#276,#692,.T.);
#690=VERTEX_POINT('',#691);
#691=CARTESIAN_POINT('',(-0.319,1.295,0.051));
#692=LINE('',#691,#349);
#693=ORIENTED_EDGE('',*,*,#694,.F.);
#694=EDGE_CURVE('',#673,#690,#695,.T.);
#695=LINE('',#666,#405);
#696=STYLED_ITEM('',(#27),#697);
#697=ADVANCED_FACE('',(#700),#698,.T.);
#698=PLANE('',#699);
#699=AXIS2_PLACEMENT_3D('',#657,#21,#201);
#700=FACE_OUTER_BOUND('',#701,.T.);
#701=EDGE_LOOP('',(#702,#703,#706,#707));
#702=ORIENTED_EDGE('',*,*,#655,.T.);
#703=ORIENTED_EDGE('',*,*,#704,.F.);
#704=EDGE_CURVE('',#682,#651,#705,.T.);
#705=LINE('',#683,#421);
#706=ORIENTED_EDGE('',*,*,#681,.T.);
#707=ORIENTED_EDGE('',*,*,#708,.F.);
#708=EDGE_CURVE('',#656,#677,#709,.T.);
#709=LINE('',#657,#416);
#710=STYLED_ITEM('',(#27),#711);
#711=ADVANCED_FACE('',(#714),#712,.T.);
#712=PLANE('',#713);
#713=AXIS2_PLACEMENT_3D('',#647,#21,#201);
#714=FACE_OUTER_BOUND('',#715,.T.);
#715=EDGE_LOOP('',(#716,#717,#720,#721));
#716=ORIENTED_EDGE('',*,*,#645,.T.);
#717=ORIENTED_EDGE('',*,*,#718,.F.);
#718=EDGE_CURVE('',#690,#641,#719,.T.);
#719=LINE('',#691,#421);
#720=ORIENTED_EDGE('',*,*,#689,.T.);
#721=ORIENTED_EDGE('',*,*,#722,.F.);
#722=EDGE_CURVE('',#646,#276,#723,.T.);
#723=LINE('',#647,#416);
#724=STYLED_ITEM('',(#27),#725);
#725=ADVANCED_FACE('',(#728),#726,.T.);
#726=PLANE('',#727);
#727=AXIS2_PLACEMENT_3D('',#672,#227,#198);
#728=FACE_OUTER_BOUND('',#729,.T.);
#729=EDGE_LOOP('',(#730,#733,#734,#735));
#730=ORIENTED_EDGE('',*,*,#731,.F.);
#731=EDGE_CURVE('',#637,#671,#732,.T.);
#732=LINE('',#630,#416);
#733=ORIENTED_EDGE('',*,*,#660,.T.);
#734=ORIENTED_EDGE('',*,*,#708,.T.);
#735=ORIENTED_EDGE('',*,*,#676,.T.);
#736=STYLED_ITEM('',(#27),#737);
#737=ADVANCED_FACE('',(#740),#738,.T.);
#738=PLANE('',#739);
#739=AXIS2_PLACEMENT_3D('',#636,#22,#198);
#740=FACE_OUTER_BOUND('',#741,.T.);
#741=EDGE_LOOP('',(#742,#745,#746,#747));
#742=ORIENTED_EDGE('',*,*,#743,.F.);
#743=EDGE_CURVE('',#673,#635,#744,.T.);
#744=LINE('',#666,#421);
#745=ORIENTED_EDGE('',*,*,#694,.T.);
#746=ORIENTED_EDGE('',*,*,#718,.T.);
#747=ORIENTED_EDGE('',*,*,#640,.T.);
#748=STYLED_ITEM('',(#27),#749);
#749=ADVANCED_FACE('',(#752),#750,.T.);
#750=PLANE('',#751);
#751=AXIS2_PLACEMENT_3D('',#647,#22,#198);
#752=FACE_OUTER_BOUND('',#753,.T.);
#753=EDGE_LOOP('',(#754,#755,#756,#757));
#754=ORIENTED_EDGE('',*,*,#722,.T.);
#755=ORIENTED_EDGE('',*,*,#686,.T.);
#756=ORIENTED_EDGE('',*,*,#704,.T.);
#757=ORIENTED_EDGE('',*,*,#650,.T.);
#758=STYLED_ITEM('',(#27),#759);
#759=ADVANCED_FACE('',(#762),#760,.T.);
#760=PLANE('',#761);
#761=AXIS2_PLACEMENT_3D('',#672,#234,#201);
#762=FACE_OUTER_BOUND('',#763,.T.);
#763=EDGE_LOOP('',(#764,#765,#766,#767));
#764=ORIENTED_EDGE('',*,*,#670,.T.);
#765=ORIENTED_EDGE('',*,*,#743,.T.);
#766=ORIENTED_EDGE('',*,*,#634,.T.);
#767=ORIENTED_EDGE('',*,*,#731,.T.);
#768=MANIFOLD_SOLID_BREP($,#769);
#769=CLOSED_SHELL('',(#771,#805,#841,#855,#869,#881,#893,#903));
#770=STYLED_ITEM('',(#27),#771);
#771=ADVANCED_FACE('',(#775),#772,.T.);
#772=PLANE('',#773);
#773=AXIS2_PLACEMENT_3D('',#774,#217,#198);
#774=CARTESIAN_POINT('',(-1.054,-1.295,0.0));
#775=FACE_OUTER_BOUND('',#776,.T.);
#776=EDGE_LOOP('',(#777,#783,#788,#791,#796,#801));
#777=ORIENTED_EDGE('',*,*,#778,.F.);
#778=EDGE_CURVE('',#779,#781,#782,.T.);
#779=VERTEX_POINT('',#780);
#780=CARTESIAN_POINT('',(-0.319,-1.295,0.0));
#781=VERTEX_POINT('',#774);
#782=LINE('',#780,#379);
#783=ORIENTED_EDGE('',*,*,#784,.F.);
#784=EDGE_CURVE('',#785,#779,#787,.T.);
#785=VERTEX_POINT('',#786);
#786=CARTESIAN_POINT('',(-0.319,-1.295,0.051));
#787=LINE('',#786,#343);
#788=ORIENTED_EDGE('',*,*,#789,.F.);
#789=EDGE_CURVE('',#224,#785,#790,.T.);
#790=LINE('',#216,#401);
#791=ORIENTED_EDGE('',*,*,#792,.F.);
#792=EDGE_CURVE('',#793,#224,#795,.T.);
#793=VERTEX_POINT('',#794);
#794=CARTESIAN_POINT('',(-1.003,-1.295,0.381));
#795=LINE('',#794,#355);
#796=ORIENTED_EDGE('',*,*,#797,.F.);
#797=EDGE_CURVE('',#798,#793,#800,.T.);
#798=VERTEX_POINT('',#799);
#799=CARTESIAN_POINT('',(-1.054,-1.295,0.381));
#800=LINE('',#799,#391);
#801=ORIENTED_EDGE('',*,*,#802,.F.);
#802=EDGE_CURVE('',#781,#798,#803,.T.);
#803=LINE('',#774,#365);
#804=STYLED_ITEM('',(#27),#805);
#805=ADVANCED_FACE('',(#809),#806,.T.);
#806=PLANE('',#807);
#807=AXIS2_PLACEMENT_3D('',#808,#266,#198);
#808=CARTESIAN_POINT('',(-0.319,-0.481,0.0));
#809=FACE_OUTER_BOUND('',#810,.T.);
#810=EDGE_LOOP('',(#811,#817,#822,#827,#832,#837));
#811=ORIENTED_EDGE('',*,*,#812,.F.);
#812=EDGE_CURVE('',#813,#815,#816,.T.);
#813=VERTEX_POINT('',#814);
#814=CARTESIAN_POINT('',(-1.054,-0.481,0.0));
#815=VERTEX_POINT('',#808);
#816=LINE('',#814,#337);
#817=ORIENTED_EDGE('',*,*,#818,.F.);
#818=EDGE_CURVE('',#819,#813,#821,.T.);
#819=VERTEX_POINT('',#820);
#820=CARTESIAN_POINT('',(-1.054,-0.481,0.381));
#821=LINE('',#820,#385);
#822=ORIENTED_EDGE('',*,*,#823,.F.);
#823=EDGE_CURVE('',#824,#819,#826,.T.);
#824=VERTEX_POINT('',#825);
#825=CARTESIAN_POINT('',(-1.003,-0.481,0.381));
#826=LINE('',#825,#361);
#827=ORIENTED_EDGE('',*,*,#828,.F.);
#828=EDGE_CURVE('',#829,#824,#831,.T.);
#829=VERTEX_POINT('',#830);
#830=CARTESIAN_POINT('',(-1.003,-0.481,0.051));
#831=LINE('',#830,#395);
#832=ORIENTED_EDGE('',*,*,#833,.F.);
#833=EDGE_CURVE('',#834,#829,#836,.T.);
#834=VERTEX_POINT('',#835);
#835=CARTESIAN_POINT('',(-0.319,-0.481,0.051));
#836=LINE('',#835,#349);
#837=ORIENTED_EDGE('',*,*,#838,.F.);
#838=EDGE_CURVE('',#815,#834,#839,.T.);
#839=LINE('',#808,#405);
#840=STYLED_ITEM('',(#27),#841);
#841=ADVANCED_FACE('',(#844),#842,.T.);
#842=PLANE('',#843);
#843=AXIS2_PLACEMENT_3D('',#799,#21,#201);
#844=FACE_OUTER_BOUND('',#845,.T.);
#845=EDGE_LOOP('',(#846,#847,#850,#851));
#846=ORIENTED_EDGE('',*,*,#797,.T.);
#847=ORIENTED_EDGE('',*,*,#848,.F.);
#848=EDGE_CURVE('',#824,#793,#849,.T.);
#849=LINE('',#825,#421);
#850=ORIENTED_EDGE('',*,*,#823,.T.);
#851=ORIENTED_EDGE('',*,*,#852,.F.);
#852=EDGE_CURVE('',#798,#819,#853,.T.);
#853=LINE('',#799,#416);
#854=STYLED_ITEM('',(#27),#855);
#855=ADVANCED_FACE('',(#858),#856,.T.);
#856=PLANE('',#857);
#857=AXIS2_PLACEMENT_3D('',#216,#21,#201);
#858=FACE_OUTER_BOUND('',#859,.T.);
#859=EDGE_LOOP('',(#860,#861,#864,#865));
#860=ORIENTED_EDGE('',*,*,#789,.T.);
#861=ORIENTED_EDGE('',*,*,#862,.F.);
#862=EDGE_CURVE('',#834,#785,#863,.T.);
#863=LINE('',#835,#421);
#864=ORIENTED_EDGE('',*,*,#833,.T.);
#865=ORIENTED_EDGE('',*,*,#866,.F.);
#866=EDGE_CURVE('',#224,#829,#867,.T.);
#867=LINE('',#216,#416);
#868=STYLED_ITEM('',(#27),#869);
#869=ADVANCED_FACE('',(#872),#870,.T.);
#870=PLANE('',#871);
#871=AXIS2_PLACEMENT_3D('',#814,#227,#198);
#872=FACE_OUTER_BOUND('',#873,.T.);
#873=EDGE_LOOP('',(#874,#877,#878,#879));
#874=ORIENTED_EDGE('',*,*,#875,.F.);
#875=EDGE_CURVE('',#781,#813,#876,.T.);
#876=LINE('',#774,#416);
#877=ORIENTED_EDGE('',*,*,#802,.T.);
#878=ORIENTED_EDGE('',*,*,#852,.T.);
#879=ORIENTED_EDGE('',*,*,#818,.T.);
#880=STYLED_ITEM('',(#27),#881);
#881=ADVANCED_FACE('',(#884),#882,.T.);
#882=PLANE('',#883);
#883=AXIS2_PLACEMENT_3D('',#780,#22,#198);
#884=FACE_OUTER_BOUND('',#885,.T.);
#885=EDGE_LOOP('',(#886,#889,#890,#891));
#886=ORIENTED_EDGE('',*,*,#887,.F.);
#887=EDGE_CURVE('',#815,#779,#888,.T.);
#888=LINE('',#808,#421);
#889=ORIENTED_EDGE('',*,*,#838,.T.);
#890=ORIENTED_EDGE('',*,*,#862,.T.);
#891=ORIENTED_EDGE('',*,*,#784,.T.);
#892=STYLED_ITEM('',(#27),#893);
#893=ADVANCED_FACE('',(#896),#894,.T.);
#894=PLANE('',#895);
#895=AXIS2_PLACEMENT_3D('',#216,#22,#198);
#896=FACE_OUTER_BOUND('',#897,.T.);
#897=EDGE_LOOP('',(#898,#899,#900,#901));
#898=ORIENTED_EDGE('',*,*,#866,.T.);
#899=ORIENTED_EDGE('',*,*,#828,.T.);
#900=ORIENTED_EDGE('',*,*,#848,.T.);
#901=ORIENTED_EDGE('',*,*,#792,.T.);
#902=STYLED_ITEM('',(#27),#903);
#903=ADVANCED_FACE('',(#906),#904,.T.);
#904=PLANE('',#905);
#905=AXIS2_PLACEMENT_3D('',#814,#234,#201);
#906=FACE_OUTER_BOUND('',#907,.T.);
#907=EDGE_LOOP('',(#908,#909,#910,#911));
#908=ORIENTED_EDGE('',*,*,#812,.T.);
#909=ORIENTED_EDGE('',*,*,#887,.T.);
#910=ORIENTED_EDGE('',*,*,#778,.T.);
#911=ORIENTED_EDGE('',*,*,#875,.T.);
ENDSEC;
END-ISO-10303-21;
