G04 --- HEADER BEGIN --- *
G04 #@! TF.GenerationSoftware,LibrePCB,LibrePCB,1.0.1-unstable*
G04 #@! TF.CreationDate,2023-09-17T23:29:36*
G04 #@! TF.ProjectId,d0-reader,9220702f-a48e-4216-8865-87f6ea8ca353,v1*
G04 #@! TF.Part,Single*
G04 #@! TF.SameCoordinates*
G04 #@! TF.FileFunction,Legend,Bot*
G04 #@! TF.FilePolarity,Positive*
%FSLAX66Y66*%
%MOMM*%
G01*
G75*
G04 --- HEADER END --- *
G04 --- APERTURE LIST BEGIN --- *
%ADD10C,0.15*%
%ADD11C,0.2*%
%ADD12C,0.1524*%
%ADD13C,0.25*%
%ADD14C,0.01*%
%ADD15C,0.254*%
%AMROUNDEDRECT16*20,1,0.95,-0.4,0.0,0.4,0.0,90.0*20,1,0.75,-0.5,0.0,0.5,0.0,90.0*1,1,0.2,-0.375,-0.4*1,1,0.2,-0.375,0.4*1,1,0.2,0.375,0.4*1,1,0.2,0.375,-0.4*%
%ADD16ROUNDEDRECT16*%
%AMROUNDEDRECT17*20,1,1.0,-0.425,0.0,0.425,0.0,0.0*20,1,0.8,-0.525,0.0,0.525,0.0,0.0*1,1,0.2,-0.425,0.4*1,1,0.2,0.425,0.4*1,1,0.2,0.425,-0.4*1,1,0.2,-0.425,-0.4*%
%ADD17ROUNDEDRECT17*%
%AMROUNDEDRECT18*20,1,0.95,-0.4,0.0,0.4,0.0,0.0*20,1,0.75,-0.5,0.0,0.5,0.0,0.0*1,1,0.2,-0.4,0.375*1,1,0.2,0.4,0.375*1,1,0.2,0.4,-0.375*1,1,0.2,-0.4,-0.375*%
%ADD18ROUNDEDRECT18*%
%AMROUNDEDRECT19*20,1,1.0,-0.425,0.0,0.425,0.0,90.0*20,1,0.8,-0.525,0.0,0.525,0.0,90.0*1,1,0.2,-0.4,-0.425*1,1,0.2,-0.4,0.425*1,1,0.2,0.4,0.425*1,1,0.2,0.4,-0.425*%
%ADD19ROUNDEDRECT19*%
%AMROUNDEDRECT20*20,1,1.6,-0.7,0.0,0.7,0.0,0.0*20,1,1.4,-0.8,0.0,0.8,0.0,0.0*1,1,0.2,-0.7,0.7*1,1,0.2,0.7,0.7*1,1,0.2,0.7,-0.7*1,1,0.2,-0.7,-0.7*%
%ADD20ROUNDEDRECT20*%
%ADD21C,1.6*%
%AMROUNDEDRECT22*20,1,1.2,-0.7,0.0,0.7,0.0,0.0*20,1,1.0,-0.8,0.0,0.8,0.0,0.0*1,1,0.2,-0.7,0.5*1,1,0.2,0.7,0.5*1,1,0.2,0.7,-0.5*1,1,0.2,-0.7,-0.5*%
%ADD22ROUNDEDRECT22*%
%AMOUTLINE23*4,1,14,-0.859327,-2.0305,-0.9,-1.95,-0.9,1.95,-0.8805,2.009327,-0.8,2.05,0.1,2.05,0.170711,2.020711,0.870711,1.320711,0.9,1.25,0.9,-1.25,0.870711,-1.320711,0.170711,-2.020711,0.1,-2.05,-0.8,-2.05,-0.859327,-2.0305,180.0*%
%ADD23OUTLINE23*%
%AMOUTLINE24*4,1,14,-0.859327,-2.0305,-0.9,-1.95,-0.9,1.95,-0.8805,2.009327,-0.8,2.05,0.1,2.05,0.170711,2.020711,0.870711,1.320711,0.9,1.25,0.9,-1.25,0.870711,-1.320711,0.170711,-2.020711,0.1,-2.05,-0.8,-2.05,-0.859327,-2.0305,0.0*%
%ADD24OUTLINE24*%
%AMROUNDEDRECT25*20,1,1.4,-0.6,0.0,0.6,0.0,0.0*20,1,1.2,-0.7,0.0,0.7,0.0,0.0*1,1,0.2,-0.6,0.6*1,1,0.2,0.6,0.6*1,1,0.2,0.6,-0.6*1,1,0.2,-0.6,-0.6*%
%ADD25ROUNDEDRECT25*%
%ADD26R,0.8X1.0*%
%AMROUNDEDRECT27*20,1,0.65,-0.3,0.0,0.3,0.0,90.0*20,1,0.45,-0.4,0.0,0.4,0.0,90.0*1,1,0.2,-0.225,-0.3*1,1,0.2,-0.225,0.3*1,1,0.2,0.225,0.3*1,1,0.2,0.225,-0.3*%
%ADD27ROUNDEDRECT27*%
%AMROUNDEDRECT28*20,1,0.4,-0.45,0.0,0.45,0.0,0.0*20,1,0.1,-0.6,0.0,0.6,0.0,0.0*1,1,0.3,-0.45,0.05*1,1,0.3,0.45,0.05*1,1,0.3,0.45,-0.05*1,1,0.3,-0.45,-0.05*%
%ADD28ROUNDEDRECT28*%
%AMROUNDEDRECT29*20,1,0.4,-0.45,0.0,0.45,0.0,90.0*20,1,0.1,-0.6,0.0,0.6,0.0,90.0*1,1,0.3,-0.05,-0.45*1,1,0.3,-0.05,0.45*1,1,0.3,0.05,0.45*1,1,0.3,0.05,-0.45*%
%ADD29ROUNDEDRECT29*%
%AMROUNDEDRECT30*20,1,1.3,-0.65,0.0,0.65,0.0,90.0*20,1,1.1,-0.75,0.0,0.75,0.0,90.0*1,1,0.2,-0.55,-0.65*1,1,0.2,-0.55,0.65*1,1,0.2,0.55,0.65*1,1,0.2,0.55,-0.65*%
%ADD30ROUNDEDRECT30*%
%AMROUNDEDRECT31*20,1,1.15,-0.625,0.0,0.625,0.0,0.0*20,1,0.95,-0.725,0.0,0.725,0.0,0.0*1,1,0.2,-0.625,0.475*1,1,0.2,0.625,0.475*1,1,0.2,0.625,-0.475*1,1,0.2,-0.625,-0.475*%
%ADD31ROUNDEDRECT31*%
%AMROUNDEDRECT32*20,1,0.65,-0.3,0.0,0.3,0.0,0.0*20,1,0.45,-0.4,0.0,0.4,0.0,0.0*1,1,0.2,-0.3,0.225*1,1,0.2,0.3,0.225*1,1,0.2,0.3,-0.225*1,1,0.2,-0.3,-0.225*%
%ADD32ROUNDEDRECT32*%
%ADD33O,2.2X4.3*%
%ADD34C,3.45*%
%AMOUTLINE35*4,1,20,-0.230881,-0.236593,-0.300881,-0.217837,-0.345711,-0.191955,-0.396955,-0.140711,-0.422837,-0.095881,-0.441593,-0.025881,-0.441593,0.025881,-0.422837,0.095881,-0.396955,0.140711,-0.345711,0.191955,-0.300881,0.217837,-0.230881,0.236593,-0.205,0.24,0.345,0.24,0.404327,0.2205,0.445,0.14,0.445,-0.14,0.4255,-0.199327,0.345,-0.24,-0.205,-0.24,-0.230881,-0.236593,0.0*%
%ADD35OUTLINE35*%
%AMOUTLINE36*4,1,20,-0.230881,-0.236593,-0.300881,-0.217837,-0.345711,-0.191955,-0.396955,-0.140711,-0.422837,-0.095881,-0.441593,-0.025881,-0.441593,0.025881,-0.422837,0.095881,-0.396955,0.140711,-0.345711,0.191955,-0.300881,0.217837,-0.230881,0.236593,-0.205,0.24,0.345,0.24,0.404327,0.2205,0.445,0.14,0.445,-0.14,0.4255,-0.199327,0.345,-0.24,-0.205,-0.24,-0.230881,-0.236593,90.0*%
%ADD36OUTLINE36*%
%AMOUTLINE37*4,1,20,-0.230881,-0.236593,-0.300881,-0.217837,-0.345711,-0.191955,-0.396955,-0.140711,-0.422837,-0.095881,-0.441593,-0.025881,-0.441593,0.025881,-0.422837,0.095881,-0.396955,0.140711,-0.345711,0.191955,-0.300881,0.217837,-0.230881,0.236593,-0.205,0.24,0.345,0.24,0.404327,0.2205,0.445,0.14,0.445,-0.14,0.4255,-0.199327,0.345,-0.24,-0.205,-0.24,-0.230881,-0.236593,270.0*%
%ADD37OUTLINE37*%
%AMOUTLINE38*4,1,20,-0.230881,-0.236593,-0.300881,-0.217837,-0.345711,-0.191955,-0.396955,-0.140711,-0.422837,-0.095881,-0.441593,-0.025881,-0.441593,0.025881,-0.422837,0.095881,-0.396955,0.140711,-0.345711,0.191955,-0.300881,0.217837,-0.230881,0.236593,-0.205,0.24,0.345,0.24,0.404327,0.2205,0.445,0.14,0.445,-0.14,0.4255,-0.199327,0.345,-0.24,-0.205,-0.24,-0.230881,-0.236593,180.0*%
%ADD38OUTLINE38*%
%AMROUNDEDRECT39*20,1,2.7,-1.25,0.0,1.25,0.0,0.0*20,1,2.5,-1.35,0.0,1.35,0.0,0.0*1,1,0.2,-1.25,1.25*1,1,0.2,1.25,1.25*1,1,0.2,1.25,-1.25*1,1,0.2,-1.25,-1.25*%
%ADD39ROUNDEDRECT39*%
%AMROUNDEDRECT40*20,1,0.8,-0.55,0.0,0.55,0.0,90.0*20,1,0.6,-0.65,0.0,0.65,0.0,90.0*1,1,0.2,-0.3,-0.55*1,1,0.2,-0.3,0.55*1,1,0.2,0.3,0.55*1,1,0.2,0.3,-0.55*%
%ADD40ROUNDEDRECT40*%
%AMROUNDEDRECT41*20,1,1.15,-0.625,0.0,0.625,0.0,90.0*20,1,0.95,-0.725,0.0,0.725,0.0,90.0*1,1,0.2,-0.475,-0.625*1,1,0.2,-0.475,0.625*1,1,0.2,0.475,0.625*1,1,0.2,0.475,-0.625*%
%ADD41ROUNDEDRECT41*%
G04 --- APERTURE LIST END --- *
G04 --- BOARD BEGIN --- *
D10*
G04 #@! TO.C,R21*
X-3667500Y-15400000D02*
X-3317500Y-15400000D01*
X-3667500Y-16350000D02*
X-3317500Y-16350000D01*
G04 #@! TO.C,C14*
X-5790000Y-7303750D02*
X-5640000Y-7303750D01*
X-5790000Y-8253750D02*
X-5640000Y-8253750D01*
G04 #@! TO.C,R4*
X-12381250Y-6286875D02*
X-12381250Y-5936875D01*
X-11431250Y-6286875D02*
X-11431250Y-5936875D01*
G04 #@! TO.C,C8*
X-2303125Y-4528750D02*
X-2303125Y-4678750D01*
X-3253125Y-4528750D02*
X-3253125Y-4678750D01*
D11*
G04 #@! TO.C,T1*
X4850000Y1200000D02*
G03*
X1650000Y1200000I-1600000J-1200004D01*
G01*
X1650000Y960000D01*
X4850000Y-1200000D02*
G02*
X1650000Y-1200000I-1600000J1200004D01*
G01*
X1650000Y-960000D01*
D12*
G04 #@! TO.C,Q1*
X-6959600Y2692400D02*
X-7772400Y2692400D01*
X-7772400Y-152400D02*
X-6959600Y-152400D01*
X-6959600Y-152400D02*
X-6959600Y406400D01*
X-6959600Y2133600D02*
X-6959600Y2692400D01*
D10*
G04 #@! TO.C,R20*
X-3667500Y-14288750D02*
X-3317500Y-14288750D01*
X-3667500Y-15238750D02*
X-3317500Y-15238750D01*
G04 #@! TO.C,R11*
X-3317500Y-17620000D02*
X-3667500Y-17620000D01*
X-3317500Y-16670000D02*
X-3667500Y-16670000D01*
D11*
G04 #@! TO.C,L3*
X12736250Y6880000D02*
X12336250Y7280000D01*
X8936250Y7280000D01*
X8536250Y6880000D01*
X8536250Y3280000D02*
X8936250Y2880000D01*
X12336250Y2880000D01*
X12736250Y3280000D01*
D10*
G04 #@! TO.C,C7*
X7703750Y-17305000D02*
X7853750Y-17305000D01*
X7703750Y-18255000D02*
X7853750Y-18255000D01*
G04 #@! TO.C,C17*
X-12466250Y-14286250D02*
X-12616250Y-14286250D01*
X-12466250Y-13336250D02*
X-12616250Y-13336250D01*
G04 #@! TO.C,C9*
X-1033125Y-4370000D02*
X-1033125Y-4520000D01*
X-1983125Y-4370000D02*
X-1983125Y-4520000D01*
D13*
G04 #@! TO.C,LED2*
X-9875000Y8650000D02*
X-13325000Y8650000D01*
X-13325000Y9900000D01*
X-12825000Y10400000D02*
X-9875000Y10400000D01*
D14*
G36*
X-13175000Y10400000D02*
G02*
X-13475000Y10400000I-150000J0D01*
G01*
G02*
X-13175000Y10400000I150000J0D01*
G01*
G37*
D10*
G04 #@! TO.C,R10*
X8253750Y-2047500D02*
X8253750Y-2397500D01*
X7303750Y-2047500D02*
X7303750Y-2397500D01*
G04 #@! TO.C,R23*
X-3350000Y-6510000D02*
X-3000000Y-6510000D01*
X-3350000Y-7460000D02*
X-3000000Y-7460000D01*
G04 #@! TO.C,L1*
X-8891250Y-5936875D02*
X-8891250Y-6286875D01*
X-9841250Y-5936875D02*
X-9841250Y-6286875D01*
D11*
G04 #@! TO.C,JP1*
X-823750Y-19135625D02*
X2176250Y-19135625D01*
X2176250Y-17535625D01*
X-823750Y-17535625D01*
G04 #@! TO.C,D2*
X7777500Y7831250D02*
X8002500Y7831250D01*
X8002500Y9631250D01*
X7777500Y9631250D01*
X6827500Y7831250D02*
X6602500Y7831250D01*
X6602500Y9631250D01*
X6827500Y9631250D01*
D14*
G36*
X8461250Y7207500D02*
G02*
X7861250Y7207500I-300000J0D01*
G01*
G02*
X8461250Y7207500I300000J0D01*
G01*
G37*
D10*
G04 #@! TO.C,C2*
X5243125Y-17305000D02*
X5393125Y-17305000D01*
X5243125Y-18255000D02*
X5393125Y-18255000D01*
D11*
G04 #@! TO.C,U3*
X12323125Y-14895000D02*
X12323125Y-15895000D01*
X11323125Y-15895000D01*
X11323125Y-16845000D01*
X2123125Y-14895000D02*
X2123125Y-15895000D01*
X3123125Y-15895000D01*
X12323125Y-6695000D02*
X12323125Y-5695000D01*
X11323125Y-5695000D01*
X2123125Y-6695000D02*
X2123125Y-5695000D01*
X3123125Y-5695000D01*
D13*
G04 #@! TO.C,C15*
X6147500Y8606250D02*
X6147500Y8856250D01*
X4647500Y8606250D02*
X4647500Y8856250D01*
D10*
G04 #@! TO.C,C6*
X713125Y-13895000D02*
X713125Y-14045000D01*
X-236875Y-13895000D02*
X-236875Y-14045000D01*
G04 #@! TO.C,R15*
X-3000000Y-8730000D02*
X-3350000Y-8730000D01*
X-3000000Y-7780000D02*
X-3350000Y-7780000D01*
G04 #@! TO.C,C18*
X-11111250Y-6186875D02*
X-11111250Y-6036875D01*
X-10161250Y-6186875D02*
X-10161250Y-6036875D01*
G04 #@! TO.C,R1*
X-1445000Y3015000D02*
X-1095000Y3015000D01*
X-1445000Y2065000D02*
X-1095000Y2065000D01*
G04 #@! TO.C,R2*
X1445000Y2065000D02*
X1095000Y2065000D01*
X1445000Y3015000D02*
X1095000Y3015000D01*
G04 #@! TO.C,R9*
X10335000Y-19525000D02*
X9985000Y-19525000D01*
X10335000Y-18575000D02*
X9985000Y-18575000D01*
G04 #@! TO.C,C1*
X-556875Y-13895000D02*
X-556875Y-14045000D01*
X-1506875Y-13895000D02*
X-1506875Y-14045000D01*
G04 #@! TO.C,R24*
X-3667500Y-13018750D02*
X-3317500Y-13018750D01*
X-3667500Y-13968750D02*
X-3317500Y-13968750D01*
G04 #@! TO.C,R19*
X-380625Y-8730000D02*
X-730625Y-8730000D01*
X-380625Y-7780000D02*
X-730625Y-7780000D01*
D11*
G04 #@! TO.C,D1*
X3757500Y6825000D02*
X3757500Y7050000D01*
X1957500Y7050000D01*
X1957500Y6825000D01*
X3757500Y5875000D02*
X3757500Y5650000D01*
X1957500Y5650000D01*
X1957500Y5875000D01*
D14*
G36*
X4681250Y7208750D02*
G02*
X4081250Y7208750I-300000J0D01*
G01*
G02*
X4681250Y7208750I300000J0D01*
G01*
G37*
D10*
G04 #@! TO.C,R3*
X-9685000Y1445000D02*
X-9685000Y1095000D01*
X-10635000Y1445000D02*
X-10635000Y1095000D01*
D11*
G04 #@! TO.C,LED1*
X-1650000Y1200000D02*
G03*
X-4850000Y1200000I-1600000J-1200004D01*
G01*
X-4850000Y960000D01*
X-1650000Y-1200000D02*
G02*
X-4850000Y-1200000I-1600000J1200004D01*
G01*
X-4850000Y-960000D01*
D10*
G04 #@! TO.C,C10*
X-5790000Y-6192500D02*
X-5640000Y-6192500D01*
X-5790000Y-7142500D02*
X-5640000Y-7142500D01*
G04 #@! TO.C,C4*
X10631875Y-3650000D02*
X10481875Y-3650000D01*
X10631875Y-2700000D02*
X10481875Y-2700000D01*
G04 #@! TO.C,C3*
X12616250Y-17937500D02*
X12466250Y-17937500D01*
X12616250Y-16987500D02*
X12466250Y-16987500D01*
D11*
G04 #@! TO.C,U1*
X-10355000Y-12336250D02*
X-10355000Y-12736250D01*
X-9955000Y-12736250D01*
X-6155000Y-8936250D02*
X-6155000Y-8536250D01*
X-6555000Y-8536250D01*
X-6555000Y-12736250D02*
X-6155000Y-12736250D01*
X-6155000Y-12336250D01*
X-9955000Y-8536250D02*
X-10355000Y-8536250D01*
X-10355000Y-8936250D01*
D14*
G36*
X-9755000Y-8073750D02*
G02*
X-10255000Y-8073750I-250000J0D01*
G01*
G02*
X-9755000Y-8073750I250000J0D01*
G01*
G37*
D10*
G04 #@! TO.C,R6*
X-12366250Y-13016250D02*
X-12716250Y-13016250D01*
X-12366250Y-12066250D02*
X-12716250Y-12066250D01*
D14*
G04 #@! TO.C,LOGO2*
G36*
X-9145625Y3940625D02*
X-9145625Y3520625D01*
X-8945625Y3520625D01*
X-8945625Y3940625D01*
X-9145625Y3940625D01*
G37*
G36*
X-10505625Y5100625D02*
X-10505625Y4900625D01*
X-10925625Y4900625D01*
X-10925625Y5100625D01*
X-10505625Y5100625D01*
G37*
G36*
X-10505625Y5500625D02*
X-10505625Y5300625D01*
X-10925625Y5300625D01*
X-10925625Y5500625D01*
X-10505625Y5500625D01*
G37*
G36*
X-9945625Y6060625D02*
X-9945625Y6480625D01*
X-9745625Y6480625D01*
X-9745625Y6060625D01*
X-9945625Y6060625D01*
G37*
G36*
X-8385625Y5100625D02*
X-8385625Y4900625D01*
X-7965625Y4900625D01*
X-7965625Y5100625D01*
X-8385625Y5100625D01*
G37*
G36*
X-10292625Y5635625D02*
X-10292625Y4365625D01*
G03*
X-10080625Y4153625I212000J0D01*
G01*
X-8810625Y4153625D01*
G03*
X-8598625Y4365625I0J212000D01*
G01*
X-8598625Y5635625D01*
G03*
X-8810625Y5847625I-212000J0D01*
G01*
X-9910625Y5847625D01*
X-9910625Y5632625D01*
G02*
X-9743625Y5465625I0J-167000D01*
G01*
G02*
X-9910625Y5298625I-167000J0D01*
G01*
G02*
X-10077625Y5465625I0J167000D01*
G01*
G02*
X-9910625Y5632625I167000J0D01*
G01*
X-9910625Y5847625D01*
X-10080625Y5847625D01*
G03*
X-10292625Y5635625I0J-212000D01*
G01*
G37*
G36*
X-9945625Y3940625D02*
X-9945625Y3520625D01*
X-9745625Y3520625D01*
X-9745625Y3940625D01*
X-9945625Y3940625D01*
G37*
G36*
X-10505625Y4700625D02*
X-10505625Y4500625D01*
X-10925625Y4500625D01*
X-10925625Y4700625D01*
X-10505625Y4700625D01*
G37*
G36*
X-9545625Y6060625D02*
X-9545625Y6480625D01*
X-9345625Y6480625D01*
X-9345625Y6060625D01*
X-9545625Y6060625D01*
G37*
G36*
X-8385625Y5500625D02*
X-8385625Y5300625D01*
X-7965625Y5300625D01*
X-7965625Y5500625D01*
X-8385625Y5500625D01*
G37*
G36*
X-9145625Y6060625D02*
X-9145625Y6480625D01*
X-8945625Y6480625D01*
X-8945625Y6060625D01*
X-9145625Y6060625D01*
G37*
G36*
X-8385625Y4700625D02*
X-8385625Y4500625D01*
X-7965625Y4500625D01*
X-7965625Y4700625D01*
X-8385625Y4700625D01*
G37*
G36*
X-9545625Y3940625D02*
X-9545625Y3520625D01*
X-9345625Y3520625D01*
X-9345625Y3940625D01*
X-9545625Y3940625D01*
G37*
D10*
X-12614000Y7907929D02*
X-13414000Y7907929D01*
X-12842444Y7641262D01*
X-13414000Y7374596D01*
X-12614000Y7374596D01*
X-12614000Y6683263D02*
X-13032667Y6683263D01*
X-13109111Y6721485D01*
X-13147333Y6797929D01*
X-13147333Y6949929D01*
X-13109111Y7026374D01*
X-12652222Y6683263D02*
X-12614000Y6759707D01*
X-12614000Y6949929D01*
X-12652222Y7026374D01*
X-12728667Y7064596D01*
X-12804222Y7064596D01*
X-12880667Y7026374D01*
X-12918889Y6949929D01*
X-12918889Y6759707D01*
X-12957111Y6683263D01*
X-12614000Y5991930D02*
X-13414000Y5991930D01*
X-12652222Y5991930D02*
X-12614000Y6068374D01*
X-12614000Y6221263D01*
X-12652222Y6296819D01*
X-12690444Y6335041D01*
X-12766000Y6373263D01*
X-12995333Y6373263D01*
X-13070889Y6335041D01*
X-13109111Y6296819D01*
X-13147333Y6221263D01*
X-13147333Y6068374D01*
X-13109111Y5991930D01*
X-12652222Y5338819D02*
X-12614000Y5415263D01*
X-12614000Y5567263D01*
X-12652222Y5643708D01*
X-12728667Y5681930D01*
X-13032667Y5681930D01*
X-13109111Y5643708D01*
X-13147333Y5567263D01*
X-13147333Y5415263D01*
X-13109111Y5338819D01*
X-13032667Y5300597D01*
X-12957111Y5300597D01*
X-12880667Y5681930D01*
X-13414000Y4360598D02*
X-12614000Y4170376D01*
X-13185556Y4017487D01*
X-12614000Y3865487D01*
X-13414000Y3675265D01*
X-12614000Y3327043D02*
X-13147333Y3327043D01*
X-13414000Y3327043D02*
X-13375778Y3365265D01*
X-13337556Y3327043D01*
X-13375778Y3288821D01*
X-13414000Y3327043D01*
X-13337556Y3327043D01*
X-13147333Y2978821D02*
X-13147333Y2673932D01*
X-13414000Y2864154D02*
X-12728667Y2864154D01*
X-12652222Y2826821D01*
X-12614000Y2750377D01*
X-12614000Y2673932D01*
X-12614000Y2363932D02*
X-13414000Y2363932D01*
X-12614000Y2020821D02*
X-13032667Y2020821D01*
X-13109111Y2059043D01*
X-13147333Y2135488D01*
X-13147333Y2249265D01*
X-13109111Y2325710D01*
X-13070889Y2363932D01*
X-11430000Y7096930D02*
X-11430000Y7478263D01*
X-12230000Y7478263D01*
X-11430000Y6748708D02*
X-11963333Y6748708D01*
X-12230000Y6748708D02*
X-12191778Y6786930D01*
X-12153556Y6748708D01*
X-12191778Y6710486D01*
X-12230000Y6748708D01*
X-12153556Y6748708D01*
X-11430000Y6400486D02*
X-12230000Y6400486D01*
X-11925111Y6400486D02*
X-11963333Y6324042D01*
X-11963333Y6172042D01*
X-11925111Y6095597D01*
X-11886889Y6057375D01*
X-11811333Y6019153D01*
X-11582000Y6019153D01*
X-11506444Y6057375D01*
X-11468222Y6095597D01*
X-11430000Y6172042D01*
X-11430000Y6324042D01*
X-11468222Y6400486D01*
X-11430000Y5709153D02*
X-11963333Y5709153D01*
X-11811333Y5709153D02*
X-11886889Y5670931D01*
X-11925111Y5632709D01*
X-11963333Y5557153D01*
X-11963333Y5480709D01*
X-11468222Y4827598D02*
X-11430000Y4904042D01*
X-11430000Y5056042D01*
X-11468222Y5132487D01*
X-11544667Y5170709D01*
X-11848667Y5170709D01*
X-11925111Y5132487D01*
X-11963333Y5056042D01*
X-11963333Y4904042D01*
X-11925111Y4827598D01*
X-11848667Y4789376D01*
X-11773111Y4789376D01*
X-11696667Y5170709D01*
X-11430000Y4479376D02*
X-12230000Y4479376D01*
X-12230000Y4174487D01*
X-12191778Y4098043D01*
X-12153556Y4060709D01*
X-12078000Y4022487D01*
X-11963333Y4022487D01*
X-11886889Y4060709D01*
X-11848667Y4098043D01*
X-11811333Y4174487D01*
X-11811333Y4479376D01*
X-11506444Y3217376D02*
X-11468222Y3255598D01*
X-11430000Y3369376D01*
X-11430000Y3445820D01*
X-11468222Y3560487D01*
X-11544667Y3636043D01*
X-11620222Y3674265D01*
X-11773111Y3712487D01*
X-11886889Y3712487D01*
X-12039778Y3674265D01*
X-12115333Y3636043D01*
X-12191778Y3560487D01*
X-12230000Y3445820D01*
X-12230000Y3369376D01*
X-12191778Y3255598D01*
X-12153556Y3217376D01*
X-11848667Y2640709D02*
X-11811333Y2526043D01*
X-11773111Y2488709D01*
X-11696667Y2450487D01*
X-11582000Y2450487D01*
X-11506444Y2488709D01*
X-11468222Y2526043D01*
X-11430000Y2602487D01*
X-11430000Y2907376D01*
X-12230000Y2907376D01*
X-12230000Y2640709D01*
X-12191778Y2564265D01*
X-12153556Y2526043D01*
X-12078000Y2488709D01*
X-12001556Y2488709D01*
X-11925111Y2526043D01*
X-11886889Y2564265D01*
X-11848667Y2640709D01*
X-11848667Y2907376D01*
G04 #@! TO.C,R22*
X-3317500Y-10317500D02*
X-3667500Y-10317500D01*
X-3317500Y-9367500D02*
X-3667500Y-9367500D01*
G04 #@! TO.C,R14*
X-618750Y-11111250D02*
X-968750Y-11111250D01*
X-618750Y-10161250D02*
X-968750Y-10161250D01*
D15*
G04 #@! TO.C,U2*
X7673000Y4348250D02*
X7673000Y5494250D01*
X5027000Y5494250D01*
X5027000Y4348250D01*
X7673000Y4348250D01*
D14*
G36*
X7493000Y4721250D02*
G02*
X7112000Y4721250I-190500J0D01*
G01*
G02*
X7493000Y4721250I190500J0D01*
G01*
G37*
D10*
G04 #@! TO.C,C5*
X713125Y-6275000D02*
X713125Y-6425000D01*
X-236875Y-6275000D02*
X-236875Y-6425000D01*
G04 #@! TO.C,C19*
X-13651250Y-6186875D02*
X-13651250Y-6036875D01*
X-12701250Y-6186875D02*
X-12701250Y-6036875D01*
G04 #@! TO.C,R25*
X-8571250Y-6286875D02*
X-8571250Y-5936875D01*
X-7621250Y-6286875D02*
X-7621250Y-5936875D01*
G04 #@! TO.C,R8*
X-12366250Y-10476250D02*
X-12716250Y-10476250D01*
X-12366250Y-9526250D02*
X-12716250Y-9526250D01*
G04 #@! TO.C,C12*
X8021250Y2380000D02*
X8171250Y2380000D01*
X8021250Y1430000D02*
X8171250Y1430000D01*
G04 #@! TO.C,C13*
X-3567500Y-10478750D02*
X-3417500Y-10478750D01*
X-3567500Y-11428750D02*
X-3417500Y-11428750D01*
G04 #@! TO.C,R7*
X-12366250Y-9206250D02*
X-12716250Y-9206250D01*
X-12366250Y-8256250D02*
X-12716250Y-8256250D01*
D13*
G04 #@! TO.C,C27*
X10761250Y9322500D02*
X10511250Y9322500D01*
X10761250Y7822500D02*
X10511250Y7822500D01*
D10*
G04 #@! TO.C,R18*
X-3317500Y-12698750D02*
X-3667500Y-12698750D01*
X-3317500Y-11748750D02*
X-3667500Y-11748750D01*
G04 #@! TO.C,R5*
X-12366250Y-11746250D02*
X-12716250Y-11746250D01*
X-12366250Y-10796250D02*
X-12716250Y-10796250D01*
G04 #@! TO.C,C11*
X12066250Y-3885000D02*
X12066250Y-3735000D01*
X13016250Y-3885000D02*
X13016250Y-3735000D01*
D11*
G04 #@! TD*
X-1349375Y-18494375D02*
X-4127500Y-18494375D01*
X-11112500Y-8731250D02*
X-10953750Y-8890000D01*
X-10953750Y-12700000D01*
X-4127500Y-18494375D02*
X-4127500Y-17859375D01*
X-4286250Y-18176875D01*
X-4127500Y-17859375D02*
X-3968750Y-18176875D01*
D10*
G04 #@! TO.C,R21*
X-4046195Y-19694375D02*
X-3779528Y-19313042D01*
X-3589306Y-19694375D02*
X-3589306Y-18894375D01*
X-3894195Y-18894375D01*
X-3970639Y-18932597D01*
X-4007973Y-18970819D01*
X-4046195Y-19046375D01*
X-4046195Y-19161042D01*
X-4007973Y-19237486D01*
X-3970639Y-19275708D01*
X-3894195Y-19313042D01*
X-3589306Y-19313042D01*
X-4394417Y-18970819D02*
X-4432639Y-18932597D01*
X-4508195Y-18894375D01*
X-4699306Y-18894375D01*
X-4774862Y-18932597D01*
X-4813084Y-18970819D01*
X-4851306Y-19046375D01*
X-4851306Y-19122819D01*
X-4813084Y-19237486D01*
X-4356195Y-19694375D01*
X-4851306Y-19694375D01*
X-5618195Y-19694375D02*
X-5161306Y-19694375D01*
X-5389750Y-19694375D02*
X-5389750Y-18894375D01*
X-5313306Y-19009042D01*
X-5237750Y-19084597D01*
X-5161306Y-19122819D01*
G04 #@! TO.C,C14*
X-4991444Y-11377181D02*
X-4953222Y-11338959D01*
X-4915000Y-11225181D01*
X-4915000Y-11148737D01*
X-4953222Y-11034070D01*
X-5029667Y-10958514D01*
X-5105222Y-10920292D01*
X-5258111Y-10882070D01*
X-5371889Y-10882070D01*
X-5524778Y-10920292D01*
X-5600333Y-10958514D01*
X-5676778Y-11034070D01*
X-5715000Y-11148737D01*
X-5715000Y-11225181D01*
X-5676778Y-11338959D01*
X-5638556Y-11377181D01*
X-4915000Y-12144070D02*
X-4915000Y-11687181D01*
X-4915000Y-11915625D02*
X-5715000Y-11915625D01*
X-5600333Y-11839181D01*
X-5524778Y-11763625D01*
X-5486556Y-11687181D01*
X-5448333Y-12835403D02*
X-4915000Y-12835403D01*
X-5753222Y-12644292D02*
X-5181667Y-12454070D01*
X-5181667Y-12949181D01*
G04 #@! TO.C,R4*
X-12531875Y-1254639D02*
X-12913208Y-987972D01*
X-12531875Y-797750D02*
X-13331875Y-797750D01*
X-13331875Y-1102639D01*
X-13293653Y-1179083D01*
X-13255431Y-1216417D01*
X-13179875Y-1254639D01*
X-13065208Y-1254639D01*
X-12988764Y-1216417D01*
X-12950542Y-1179083D01*
X-12913208Y-1102639D01*
X-12913208Y-797750D01*
X-13065208Y-1945972D02*
X-12531875Y-1945972D01*
X-13370097Y-1754861D02*
X-12798542Y-1564639D01*
X-12798542Y-2059750D01*
D11*
G04 #@! TO.C,C8*
X-454306Y-1887639D02*
X-406528Y-1839861D01*
X-358750Y-1697639D01*
X-358750Y-1602083D01*
X-406528Y-1458750D01*
X-502083Y-1364306D01*
X-596528Y-1316528D01*
X-787639Y-1268750D01*
X-929861Y-1268750D01*
X-1120972Y-1316528D01*
X-1215417Y-1364306D01*
X-1310972Y-1458750D01*
X-1358750Y-1602083D01*
X-1358750Y-1697639D01*
X-1310972Y-1839861D01*
X-1263194Y-1887639D01*
X-929861Y-2477639D02*
X-977639Y-2383195D01*
X-1025417Y-2335417D01*
X-1120972Y-2287639D01*
X-1168750Y-2287639D01*
X-1263194Y-2335417D01*
X-1310972Y-2383195D01*
X-1358750Y-2477639D01*
X-1358750Y-2668750D01*
X-1310972Y-2764306D01*
X-1263194Y-2810972D01*
X-1168750Y-2858750D01*
X-1120972Y-2858750D01*
X-1025417Y-2810972D01*
X-977639Y-2764306D01*
X-929861Y-2668750D01*
X-929861Y-2477639D01*
X-882083Y-2383195D01*
X-835417Y-2335417D01*
X-739861Y-2287639D01*
X-548750Y-2287639D01*
X-454306Y-2335417D01*
X-406528Y-2383195D01*
X-358750Y-2477639D01*
X-358750Y-2668750D01*
X-406528Y-2764306D01*
X-454306Y-2810972D01*
X-548750Y-2858750D01*
X-739861Y-2858750D01*
X-835417Y-2810972D01*
X-882083Y-2764306D01*
X-929861Y-2668750D01*
G04 #@! TO.C,T1*
X4338611Y3332500D02*
X3767500Y3332500D01*
X4053055Y2332500D02*
X4053055Y3332500D01*
X2796389Y2332500D02*
X3367500Y2332500D01*
X3081944Y2332500D02*
X3081944Y3332500D01*
X3177500Y3189167D01*
X3271944Y3094722D01*
X3367500Y3046944D01*
G04 #@! TO.C,Q1*
X-5666042Y2047569D02*
X-5570487Y2095347D01*
X-5474931Y2190903D01*
X-5332709Y2333125D01*
X-5237154Y2380903D01*
X-5141598Y2380903D01*
X-5189376Y2143125D02*
X-5094931Y2190903D01*
X-4999376Y2286458D01*
X-4951598Y2476458D01*
X-4951598Y2809792D01*
X-4999376Y2999792D01*
X-5094931Y3095347D01*
X-5189376Y3143125D01*
X-5380487Y3143125D01*
X-5474931Y3095347D01*
X-5570487Y2999792D01*
X-5618265Y2809792D01*
X-5618265Y2476458D01*
X-5570487Y2286458D01*
X-5474931Y2190903D01*
X-5380487Y2143125D01*
X-5189376Y2143125D01*
X-6637153Y2143125D02*
X-6066042Y2143125D01*
X-6351598Y2143125D02*
X-6351598Y3143125D01*
X-6256042Y2999792D01*
X-6161598Y2905347D01*
X-6066042Y2857569D01*
D10*
G04 #@! TO.C,R20*
X-6427445Y-19694375D02*
X-6160778Y-19313042D01*
X-5970556Y-19694375D02*
X-5970556Y-18894375D01*
X-6275445Y-18894375D01*
X-6351889Y-18932597D01*
X-6389223Y-18970819D01*
X-6427445Y-19046375D01*
X-6427445Y-19161042D01*
X-6389223Y-19237486D01*
X-6351889Y-19275708D01*
X-6275445Y-19313042D01*
X-5970556Y-19313042D01*
X-6775667Y-18970819D02*
X-6813889Y-18932597D01*
X-6889445Y-18894375D01*
X-7080556Y-18894375D01*
X-7156112Y-18932597D01*
X-7194334Y-18970819D01*
X-7232556Y-19046375D01*
X-7232556Y-19122819D01*
X-7194334Y-19237486D01*
X-6737445Y-19694375D01*
X-7232556Y-19694375D01*
X-7732778Y-18894375D02*
X-7809223Y-18894375D01*
X-7885667Y-18932597D01*
X-7923889Y-18970819D01*
X-7961223Y-19046375D01*
X-7999445Y-19199264D01*
X-7999445Y-19389486D01*
X-7961223Y-19542375D01*
X-7923889Y-19617931D01*
X-7885667Y-19656153D01*
X-7809223Y-19694375D01*
X-7732778Y-19694375D01*
X-7657223Y-19656153D01*
X-7619000Y-19617931D01*
X-7580778Y-19542375D01*
X-7542556Y-19389486D01*
X-7542556Y-19199264D01*
X-7580778Y-19046375D01*
X-7619000Y-18970819D01*
X-7657223Y-18932597D01*
X-7732778Y-18894375D01*
G04 #@! TO.C,R11*
X-1763431Y-19685000D02*
X-1496764Y-19303667D01*
X-1306542Y-19685000D02*
X-1306542Y-18885000D01*
X-1611431Y-18885000D01*
X-1687875Y-18923222D01*
X-1725209Y-18961444D01*
X-1763431Y-19037000D01*
X-1763431Y-19151667D01*
X-1725209Y-19228111D01*
X-1687875Y-19266333D01*
X-1611431Y-19303667D01*
X-1306542Y-19303667D01*
X-2530320Y-19685000D02*
X-2073431Y-19685000D01*
X-2301875Y-19685000D02*
X-2301875Y-18885000D01*
X-2225431Y-18999667D01*
X-2149875Y-19075222D01*
X-2073431Y-19113444D01*
X-3297209Y-19685000D02*
X-2840320Y-19685000D01*
X-3068764Y-19685000D02*
X-3068764Y-18885000D01*
X-2992320Y-18999667D01*
X-2916764Y-19075222D01*
X-2840320Y-19113444D01*
D11*
G04 #@! TO.C,L3*
X11859861Y1540000D02*
X12336528Y1540000D01*
X12336528Y2540000D01*
X11459861Y2540000D02*
X10840972Y2540000D01*
X11174305Y2158889D01*
X11030972Y2158889D01*
X10936528Y2111111D01*
X10888750Y2063333D01*
X10840972Y1968889D01*
X10840972Y1730000D01*
X10888750Y1635556D01*
X10936528Y1587778D01*
X11030972Y1540000D01*
X11316528Y1540000D01*
X11412083Y1587778D01*
X11459861Y1635556D01*
G04 #@! TO.C,C7*
X8002639Y-19557569D02*
X8050417Y-19605347D01*
X8192639Y-19653125D01*
X8288195Y-19653125D01*
X8431528Y-19605347D01*
X8525972Y-19509792D01*
X8573750Y-19415347D01*
X8621528Y-19224236D01*
X8621528Y-19082014D01*
X8573750Y-18890903D01*
X8525972Y-18796458D01*
X8431528Y-18700903D01*
X8288195Y-18653125D01*
X8192639Y-18653125D01*
X8050417Y-18700903D01*
X8002639Y-18748681D01*
X7602639Y-18653125D02*
X6935972Y-18653125D01*
X7364861Y-19653125D01*
G04 #@! TO.C,C17*
X-11673056Y-19580069D02*
X-11625278Y-19627847D01*
X-11483056Y-19675625D01*
X-11387500Y-19675625D01*
X-11244167Y-19627847D01*
X-11149723Y-19532292D01*
X-11101945Y-19437847D01*
X-11054167Y-19246736D01*
X-11054167Y-19104514D01*
X-11101945Y-18913403D01*
X-11149723Y-18818958D01*
X-11244167Y-18723403D01*
X-11387500Y-18675625D01*
X-11483056Y-18675625D01*
X-11625278Y-18723403D01*
X-11673056Y-18771181D01*
X-12644167Y-19675625D02*
X-12073056Y-19675625D01*
X-12358612Y-19675625D02*
X-12358612Y-18675625D01*
X-12263056Y-18818958D01*
X-12168612Y-18913403D01*
X-12073056Y-18961181D01*
X-13044167Y-18675625D02*
X-13710834Y-18675625D01*
X-13281945Y-19675625D01*
G04 #@! TO.C,C9*
X1053819Y-1887639D02*
X1101597Y-1839861D01*
X1149375Y-1697639D01*
X1149375Y-1602083D01*
X1101597Y-1458750D01*
X1006042Y-1364306D01*
X911597Y-1316528D01*
X720486Y-1268750D01*
X578264Y-1268750D01*
X387153Y-1316528D01*
X292708Y-1364306D01*
X197153Y-1458750D01*
X149375Y-1602083D01*
X149375Y-1697639D01*
X197153Y-1839861D01*
X244931Y-1887639D01*
X1149375Y-2383195D02*
X1149375Y-2573195D01*
X1101597Y-2668750D01*
X1053819Y-2716528D01*
X911597Y-2810972D01*
X720486Y-2858750D01*
X339375Y-2858750D01*
X244931Y-2810972D01*
X197153Y-2764306D01*
X149375Y-2668750D01*
X149375Y-2477639D01*
X197153Y-2383195D01*
X244931Y-2335417D01*
X339375Y-2287639D01*
X578264Y-2287639D01*
X672708Y-2335417D01*
X720486Y-2383195D01*
X768264Y-2477639D01*
X768264Y-2668750D01*
X720486Y-2764306D01*
X672708Y-2810972D01*
X578264Y-2858750D01*
G04 #@! TO.C,LED2*
X-6315625Y9084375D02*
X-5838958Y9084375D01*
X-5838958Y10084375D01*
X-6715625Y9607708D02*
X-7048958Y9607708D01*
X-7192292Y9084375D02*
X-6715625Y9084375D01*
X-6715625Y10084375D01*
X-7192292Y10084375D01*
X-7592292Y9084375D02*
X-7592292Y10084375D01*
X-7830070Y10084375D01*
X-7973403Y10036597D01*
X-8068959Y9941042D01*
X-8115625Y9846597D01*
X-8163403Y9655486D01*
X-8163403Y9513264D01*
X-8115625Y9322153D01*
X-8068959Y9227708D01*
X-7973403Y9132153D01*
X-7830070Y9084375D01*
X-7592292Y9084375D01*
X-8611181Y9988819D02*
X-8658959Y10036597D01*
X-8753403Y10084375D01*
X-8992292Y10084375D01*
X-9086736Y10036597D01*
X-9134514Y9988819D01*
X-9182292Y9894375D01*
X-9182292Y9798819D01*
X-9134514Y9655486D01*
X-8563403Y9084375D01*
X-9182292Y9084375D01*
G04 #@! TO.C,R10*
X6896250Y-1536945D02*
X6419583Y-1203612D01*
X6896250Y-965834D02*
X5896250Y-965834D01*
X5896250Y-1346945D01*
X5944028Y-1442501D01*
X5991806Y-1489167D01*
X6086250Y-1536945D01*
X6229583Y-1536945D01*
X6325139Y-1489167D01*
X6372917Y-1442501D01*
X6419583Y-1346945D01*
X6419583Y-965834D01*
X6896250Y-2508056D02*
X6896250Y-1936945D01*
X6896250Y-2222501D02*
X5896250Y-2222501D01*
X6039583Y-2126945D01*
X6134028Y-2032501D01*
X6181806Y-1936945D01*
X5896250Y-3145834D02*
X5896250Y-3241389D01*
X5944028Y-3336945D01*
X5991806Y-3384723D01*
X6086250Y-3431389D01*
X6277361Y-3479167D01*
X6515139Y-3479167D01*
X6706250Y-3431389D01*
X6800694Y-3384723D01*
X6848472Y-3336945D01*
X6896250Y-3241389D01*
X6896250Y-3145834D01*
X6848472Y-3051389D01*
X6800694Y-3003612D01*
X6706250Y-2955834D01*
X6515139Y-2908056D01*
X6277361Y-2908056D01*
X6086250Y-2955834D01*
X5991806Y-3003612D01*
X5944028Y-3051389D01*
X5896250Y-3145834D01*
D10*
G04 #@! TO.C,R23*
X-5376459Y-15249375D02*
X-5109792Y-14868042D01*
X-4919570Y-15249375D02*
X-4919570Y-14449375D01*
X-5224459Y-14449375D01*
X-5300903Y-14487597D01*
X-5338237Y-14525819D01*
X-5376459Y-14601375D01*
X-5376459Y-14716042D01*
X-5338237Y-14792486D01*
X-5300903Y-14830708D01*
X-5224459Y-14868042D01*
X-4919570Y-14868042D01*
X-5724681Y-14525819D02*
X-5762903Y-14487597D01*
X-5838459Y-14449375D01*
X-6029570Y-14449375D01*
X-6105126Y-14487597D01*
X-6143348Y-14525819D01*
X-6181570Y-14601375D01*
X-6181570Y-14677819D01*
X-6143348Y-14792486D01*
X-5686459Y-15249375D01*
X-6181570Y-15249375D01*
X-6491570Y-14449375D02*
X-6986681Y-14449375D01*
X-6720014Y-14754264D01*
X-6834681Y-14754264D01*
X-6910237Y-14792486D01*
X-6948459Y-14830708D01*
X-6986681Y-14906264D01*
X-6986681Y-15097375D01*
X-6948459Y-15172931D01*
X-6910237Y-15211153D01*
X-6834681Y-15249375D01*
X-6606237Y-15249375D01*
X-6529792Y-15211153D01*
X-6491570Y-15172931D01*
G04 #@! TO.C,L1*
X-11280625Y-1235972D02*
X-11280625Y-854639D01*
X-12080625Y-854639D01*
X-11280625Y-2002861D02*
X-11280625Y-1545972D01*
X-11280625Y-1774416D02*
X-12080625Y-1774416D01*
X-11965958Y-1697972D01*
X-11890403Y-1622416D01*
X-11852181Y-1545972D01*
D11*
G04 #@! TO.C,JP1*
X2571875Y-17713820D02*
X3286319Y-17713820D01*
X3428542Y-17666042D01*
X3524097Y-17570487D01*
X3571875Y-17428265D01*
X3571875Y-17332709D01*
X3571875Y-18113820D02*
X2571875Y-18113820D01*
X2571875Y-18494931D01*
X2619653Y-18590487D01*
X2667431Y-18637153D01*
X2761875Y-18684931D01*
X2905208Y-18684931D01*
X3000764Y-18637153D01*
X3048542Y-18590487D01*
X3095208Y-18494931D01*
X3095208Y-18113820D01*
X3571875Y-19656042D02*
X3571875Y-19084931D01*
X3571875Y-19370487D02*
X2571875Y-19370487D01*
X2715208Y-19274931D01*
X2809653Y-19180487D01*
X2857431Y-19084931D01*
G04 #@! TO.C,D2*
X9923125Y9683750D02*
X9923125Y10683750D01*
X9685347Y10683750D01*
X9542014Y10635972D01*
X9446458Y10540417D01*
X9399792Y10445972D01*
X9352014Y10254861D01*
X9352014Y10112639D01*
X9399792Y9921528D01*
X9446458Y9827083D01*
X9542014Y9731528D01*
X9685347Y9683750D01*
X9923125Y9683750D01*
X8904236Y10588194D02*
X8856458Y10635972D01*
X8762014Y10683750D01*
X8523125Y10683750D01*
X8428681Y10635972D01*
X8380903Y10588194D01*
X8333125Y10493750D01*
X8333125Y10398194D01*
X8380903Y10254861D01*
X8952014Y9683750D01*
X8333125Y9683750D01*
G04 #@! TO.C,C2*
X5518125Y-19487569D02*
X5565903Y-19535347D01*
X5708125Y-19583125D01*
X5803681Y-19583125D01*
X5947014Y-19535347D01*
X6041458Y-19439792D01*
X6089236Y-19345347D01*
X6137014Y-19154236D01*
X6137014Y-19012014D01*
X6089236Y-18820903D01*
X6041458Y-18726458D01*
X5947014Y-18630903D01*
X5803681Y-18583125D01*
X5708125Y-18583125D01*
X5565903Y-18630903D01*
X5518125Y-18678681D01*
X5070347Y-18678681D02*
X5022569Y-18630903D01*
X4928125Y-18583125D01*
X4689236Y-18583125D01*
X4594792Y-18630903D01*
X4547014Y-18678681D01*
X4499236Y-18773125D01*
X4499236Y-18868681D01*
X4547014Y-19012014D01*
X5118125Y-19583125D01*
X4499236Y-19583125D01*
G04 #@! TO.C,U3*
X3032500Y-4238750D02*
X3032500Y-5048750D01*
X2984722Y-5143194D01*
X2936944Y-5190972D01*
X2842500Y-5238750D01*
X2651389Y-5238750D01*
X2555833Y-5190972D01*
X2509167Y-5143194D01*
X2461389Y-5048750D01*
X2461389Y-4238750D01*
X2061389Y-4238750D02*
X1442500Y-4238750D01*
X1775833Y-4619861D01*
X1632500Y-4619861D01*
X1538056Y-4667639D01*
X1490278Y-4715417D01*
X1442500Y-4809861D01*
X1442500Y-5048750D01*
X1490278Y-5143194D01*
X1538056Y-5190972D01*
X1632500Y-5238750D01*
X1918056Y-5238750D01*
X2013611Y-5190972D01*
X2061389Y-5143194D01*
G04 #@! TO.C,Y1*
X-5943819Y-1190208D02*
X-5943819Y-1666875D01*
X-5610486Y-666875D02*
X-5943819Y-1190208D01*
X-6277153Y-666875D01*
X-7248264Y-1666875D02*
X-6677153Y-1666875D01*
X-6962709Y-1666875D02*
X-6962709Y-666875D01*
X-6867153Y-810208D01*
X-6772709Y-904653D01*
X-6677153Y-952431D01*
G04 #@! TO.C,C15*
X3753541Y9779306D02*
X3801319Y9731528D01*
X3943541Y9683750D01*
X4039097Y9683750D01*
X4182430Y9731528D01*
X4276874Y9827083D01*
X4324652Y9921528D01*
X4372430Y10112639D01*
X4372430Y10254861D01*
X4324652Y10445972D01*
X4276874Y10540417D01*
X4182430Y10635972D01*
X4039097Y10683750D01*
X3943541Y10683750D01*
X3801319Y10635972D01*
X3753541Y10588194D01*
X2782430Y9683750D02*
X3353541Y9683750D01*
X3067985Y9683750D02*
X3067985Y10683750D01*
X3163541Y10540417D01*
X3257985Y10445972D01*
X3353541Y10398194D01*
X1859097Y10683750D02*
X2334652Y10683750D01*
X2382430Y10207083D01*
X2334652Y10254861D01*
X2239097Y10302639D01*
X2001319Y10302639D01*
X1905763Y10254861D01*
X1859097Y10207083D01*
X1811319Y10112639D01*
X1811319Y9873750D01*
X1859097Y9779306D01*
X1905763Y9731528D01*
X2001319Y9683750D01*
X2239097Y9683750D01*
X2334652Y9731528D01*
X2382430Y9779306D01*
G04 #@! TO.C,C6*
X688819Y-16095764D02*
X736597Y-16047986D01*
X784375Y-15905764D01*
X784375Y-15810208D01*
X736597Y-15666875D01*
X641042Y-15572431D01*
X546597Y-15524653D01*
X355486Y-15476875D01*
X213264Y-15476875D01*
X22153Y-15524653D01*
X-72292Y-15572431D01*
X-167847Y-15666875D01*
X-215625Y-15810208D01*
X-215625Y-15905764D01*
X-167847Y-16047986D01*
X-120069Y-16095764D01*
X-215625Y-16972431D02*
X-215625Y-16781320D01*
X-167847Y-16685764D01*
X-120069Y-16639097D01*
X22153Y-16543542D01*
X213264Y-16495764D01*
X594375Y-16495764D01*
X688819Y-16543542D01*
X736597Y-16591320D01*
X784375Y-16685764D01*
X784375Y-16876875D01*
X736597Y-16972431D01*
X688819Y-17019097D01*
X594375Y-17066875D01*
X355486Y-17066875D01*
X261042Y-17019097D01*
X213264Y-16972431D01*
X165486Y-16876875D01*
X165486Y-16685764D01*
X213264Y-16591320D01*
X261042Y-16543542D01*
X355486Y-16495764D01*
D10*
G04 #@! TO.C,R15*
X-5335306Y-16271875D02*
X-5068639Y-15890542D01*
X-4878417Y-16271875D02*
X-4878417Y-15471875D01*
X-5183306Y-15471875D01*
X-5259750Y-15510097D01*
X-5297084Y-15548319D01*
X-5335306Y-15623875D01*
X-5335306Y-15738542D01*
X-5297084Y-15814986D01*
X-5259750Y-15853208D01*
X-5183306Y-15890542D01*
X-4878417Y-15890542D01*
X-6102195Y-16271875D02*
X-5645306Y-16271875D01*
X-5873750Y-16271875D02*
X-5873750Y-15471875D01*
X-5797306Y-15586542D01*
X-5721750Y-15662097D01*
X-5645306Y-15700319D01*
X-6830862Y-15471875D02*
X-6450417Y-15471875D01*
X-6412195Y-15853208D01*
X-6450417Y-15814986D01*
X-6526862Y-15776764D01*
X-6717084Y-15776764D01*
X-6793528Y-15814986D01*
X-6830862Y-15853208D01*
X-6869084Y-15928764D01*
X-6869084Y-16119875D01*
X-6830862Y-16195431D01*
X-6793528Y-16233653D01*
X-6717084Y-16271875D01*
X-6526862Y-16271875D01*
X-6450417Y-16233653D01*
X-6412195Y-16195431D01*
G04 #@! TO.C,C18*
X-11893944Y-3052542D02*
X-11855722Y-3014320D01*
X-11817500Y-2900542D01*
X-11817500Y-2824098D01*
X-11855722Y-2709431D01*
X-11932167Y-2633875D01*
X-12007722Y-2595653D01*
X-12160611Y-2557431D01*
X-12274389Y-2557431D01*
X-12427278Y-2595653D01*
X-12502833Y-2633875D01*
X-12579278Y-2709431D01*
X-12617500Y-2824098D01*
X-12617500Y-2900542D01*
X-12579278Y-3014320D01*
X-12541056Y-3052542D01*
X-11817500Y-3819431D02*
X-11817500Y-3362542D01*
X-11817500Y-3590986D02*
X-12617500Y-3590986D01*
X-12502833Y-3514542D01*
X-12427278Y-3438986D01*
X-12389056Y-3362542D01*
X-12274389Y-4281431D02*
X-12312611Y-4205875D01*
X-12350833Y-4167653D01*
X-12427278Y-4129431D01*
X-12465500Y-4129431D01*
X-12541056Y-4167653D01*
X-12579278Y-4205875D01*
X-12617500Y-4281431D01*
X-12617500Y-4434320D01*
X-12579278Y-4510764D01*
X-12541056Y-4548098D01*
X-12465500Y-4586320D01*
X-12427278Y-4586320D01*
X-12350833Y-4548098D01*
X-12312611Y-4510764D01*
X-12274389Y-4434320D01*
X-12274389Y-4281431D01*
X-12236167Y-4205875D01*
X-12198833Y-4167653D01*
X-12122389Y-4129431D01*
X-11969500Y-4129431D01*
X-11893944Y-4167653D01*
X-11855722Y-4205875D01*
X-11817500Y-4281431D01*
X-11817500Y-4434320D01*
X-11855722Y-4510764D01*
X-11893944Y-4548098D01*
X-11969500Y-4586320D01*
X-12122389Y-4586320D01*
X-12198833Y-4548098D01*
X-12236167Y-4510764D01*
X-12274389Y-4434320D01*
D11*
G04 #@! TO.C,R1*
X-1540000Y4318125D02*
X-2016667Y4651458D01*
X-1540000Y4889236D02*
X-2540000Y4889236D01*
X-2540000Y4508125D01*
X-2492222Y4412569D01*
X-2444444Y4365903D01*
X-2350000Y4318125D01*
X-2206667Y4318125D01*
X-2111111Y4365903D01*
X-2063333Y4412569D01*
X-2016667Y4508125D01*
X-2016667Y4889236D01*
X-1540000Y3347014D02*
X-1540000Y3918125D01*
X-1540000Y3632569D02*
X-2540000Y3632569D01*
X-2396667Y3728125D01*
X-2302222Y3822569D01*
X-2254444Y3918125D01*
G04 #@! TO.C,R2*
X2143125Y4360764D02*
X1666458Y4694097D01*
X2143125Y4931875D02*
X1143125Y4931875D01*
X1143125Y4550764D01*
X1190903Y4455208D01*
X1238681Y4408542D01*
X1333125Y4360764D01*
X1476458Y4360764D01*
X1572014Y4408542D01*
X1619792Y4455208D01*
X1666458Y4550764D01*
X1666458Y4931875D01*
X1238681Y3912986D02*
X1190903Y3865208D01*
X1143125Y3770764D01*
X1143125Y3531875D01*
X1190903Y3437431D01*
X1238681Y3389653D01*
X1333125Y3341875D01*
X1428681Y3341875D01*
X1572014Y3389653D01*
X2143125Y3960764D01*
X2143125Y3341875D01*
G04 #@! TO.C,R9*
X10360000Y-18326250D02*
X10693333Y-17849583D01*
X10931111Y-18326250D02*
X10931111Y-17326250D01*
X10550000Y-17326250D01*
X10454444Y-17374028D01*
X10407778Y-17421806D01*
X10360000Y-17516250D01*
X10360000Y-17659583D01*
X10407778Y-17755139D01*
X10454444Y-17802917D01*
X10550000Y-17849583D01*
X10931111Y-17849583D01*
X9864444Y-18326250D02*
X9674444Y-18326250D01*
X9578889Y-18278472D01*
X9531111Y-18230694D01*
X9436667Y-18088472D01*
X9388889Y-17897361D01*
X9388889Y-17516250D01*
X9436667Y-17421806D01*
X9483333Y-17374028D01*
X9578889Y-17326250D01*
X9770000Y-17326250D01*
X9864444Y-17374028D01*
X9912222Y-17421806D01*
X9960000Y-17516250D01*
X9960000Y-17755139D01*
X9912222Y-17849583D01*
X9864444Y-17897361D01*
X9770000Y-17945139D01*
X9578889Y-17945139D01*
X9483333Y-17897361D01*
X9436667Y-17849583D01*
X9388889Y-17755139D01*
G04 #@! TO.C,C1*
X-819306Y-16175139D02*
X-771528Y-16127361D01*
X-723750Y-15985139D01*
X-723750Y-15889583D01*
X-771528Y-15746250D01*
X-867083Y-15651806D01*
X-961528Y-15604028D01*
X-1152639Y-15556250D01*
X-1294861Y-15556250D01*
X-1485972Y-15604028D01*
X-1580417Y-15651806D01*
X-1675972Y-15746250D01*
X-1723750Y-15889583D01*
X-1723750Y-15985139D01*
X-1675972Y-16127361D01*
X-1628194Y-16175139D01*
X-723750Y-17146250D02*
X-723750Y-16575139D01*
X-723750Y-16860695D02*
X-1723750Y-16860695D01*
X-1580417Y-16765139D01*
X-1485972Y-16670695D01*
X-1438194Y-16575139D01*
D10*
G04 #@! TO.C,R24*
X-8948334Y-19694375D02*
X-8681667Y-19313042D01*
X-8491445Y-19694375D02*
X-8491445Y-18894375D01*
X-8796334Y-18894375D01*
X-8872778Y-18932597D01*
X-8910112Y-18970819D01*
X-8948334Y-19046375D01*
X-8948334Y-19161042D01*
X-8910112Y-19237486D01*
X-8872778Y-19275708D01*
X-8796334Y-19313042D01*
X-8491445Y-19313042D01*
X-9296556Y-18970819D02*
X-9334778Y-18932597D01*
X-9410334Y-18894375D01*
X-9601445Y-18894375D01*
X-9677001Y-18932597D01*
X-9715223Y-18970819D01*
X-9753445Y-19046375D01*
X-9753445Y-19122819D01*
X-9715223Y-19237486D01*
X-9258334Y-19694375D01*
X-9753445Y-19694375D01*
X-10444778Y-19161042D02*
X-10444778Y-19694375D01*
X-10253667Y-18856153D02*
X-10063445Y-19427708D01*
X-10558556Y-19427708D01*
G04 #@! TO.C,R19*
X220944Y-9833125D02*
X487611Y-9451792D01*
X677833Y-9833125D02*
X677833Y-9033125D01*
X372944Y-9033125D01*
X296500Y-9071347D01*
X259166Y-9109569D01*
X220944Y-9185125D01*
X220944Y-9299792D01*
X259166Y-9376236D01*
X296500Y-9414458D01*
X372944Y-9451792D01*
X677833Y-9451792D01*
X-545945Y-9833125D02*
X-89056Y-9833125D01*
X-317500Y-9833125D02*
X-317500Y-9033125D01*
X-241056Y-9147792D01*
X-165500Y-9223347D01*
X-89056Y-9261569D01*
X-932389Y-9833125D02*
X-1084389Y-9833125D01*
X-1160834Y-9794903D01*
X-1199056Y-9756681D01*
X-1274612Y-9642903D01*
X-1312834Y-9490014D01*
X-1312834Y-9185125D01*
X-1274612Y-9109569D01*
X-1237278Y-9071347D01*
X-1160834Y-9033125D01*
X-1007945Y-9033125D01*
X-932389Y-9071347D01*
X-894167Y-9109569D01*
X-855945Y-9185125D01*
X-855945Y-9376236D01*
X-894167Y-9451792D01*
X-932389Y-9490014D01*
X-1007945Y-9528236D01*
X-1160834Y-9528236D01*
X-1237278Y-9490014D01*
X-1274612Y-9451792D01*
X-1312834Y-9376236D01*
D11*
G04 #@! TO.C,D1*
X3628611Y7461250D02*
X3628611Y8461250D01*
X3390833Y8461250D01*
X3247500Y8413472D01*
X3151944Y8317917D01*
X3105278Y8223472D01*
X3057500Y8032361D01*
X3057500Y7890139D01*
X3105278Y7699028D01*
X3151944Y7604583D01*
X3247500Y7509028D01*
X3390833Y7461250D01*
X3628611Y7461250D01*
X2086389Y7461250D02*
X2657500Y7461250D01*
X2371944Y7461250D02*
X2371944Y8461250D01*
X2467500Y8317917D01*
X2561944Y8223472D01*
X2657500Y8175694D01*
D10*
G04 #@! TO.C,R3*
X-9766250Y-619639D02*
X-10147583Y-352972D01*
X-9766250Y-162750D02*
X-10566250Y-162750D01*
X-10566250Y-467639D01*
X-10528028Y-544083D01*
X-10489806Y-581417D01*
X-10414250Y-619639D01*
X-10299583Y-619639D01*
X-10223139Y-581417D01*
X-10184917Y-544083D01*
X-10147583Y-467639D01*
X-10147583Y-162750D01*
X-10566250Y-929639D02*
X-10566250Y-1424750D01*
X-10261361Y-1158083D01*
X-10261361Y-1272750D01*
X-10223139Y-1348306D01*
X-10184917Y-1386528D01*
X-10109361Y-1424750D01*
X-9918250Y-1424750D01*
X-9842694Y-1386528D01*
X-9804472Y-1348306D01*
X-9766250Y-1272750D01*
X-9766250Y-1044306D01*
X-9804472Y-967861D01*
X-9842694Y-929639D01*
D11*
G04 #@! TO.C,LED1*
X-3043750Y5217986D02*
X-3043750Y5694653D01*
X-4043750Y5694653D01*
X-3567083Y4817986D02*
X-3567083Y4484653D01*
X-3043750Y4341319D02*
X-3043750Y4817986D01*
X-4043750Y4817986D01*
X-4043750Y4341319D01*
X-3043750Y3941319D02*
X-4043750Y3941319D01*
X-4043750Y3703541D01*
X-3995972Y3560208D01*
X-3900417Y3464652D01*
X-3805972Y3417986D01*
X-3614861Y3370208D01*
X-3472639Y3370208D01*
X-3281528Y3417986D01*
X-3187083Y3464652D01*
X-3091528Y3560208D01*
X-3043750Y3703541D01*
X-3043750Y3941319D01*
X-3043750Y2399097D02*
X-3043750Y2970208D01*
X-3043750Y2684652D02*
X-4043750Y2684652D01*
X-3900417Y2780208D01*
X-3805972Y2874652D01*
X-3758194Y2970208D01*
D10*
G04 #@! TO.C,C10*
X-4991444Y-8935667D02*
X-4953222Y-8897445D01*
X-4915000Y-8783667D01*
X-4915000Y-8707223D01*
X-4953222Y-8592556D01*
X-5029667Y-8517000D01*
X-5105222Y-8478778D01*
X-5258111Y-8440556D01*
X-5371889Y-8440556D01*
X-5524778Y-8478778D01*
X-5600333Y-8517000D01*
X-5676778Y-8592556D01*
X-5715000Y-8707223D01*
X-5715000Y-8783667D01*
X-5676778Y-8897445D01*
X-5638556Y-8935667D01*
X-4915000Y-9702556D02*
X-4915000Y-9245667D01*
X-4915000Y-9474111D02*
X-5715000Y-9474111D01*
X-5600333Y-9397667D01*
X-5524778Y-9322111D01*
X-5486556Y-9245667D01*
X-5715000Y-10202778D02*
X-5715000Y-10279223D01*
X-5676778Y-10355667D01*
X-5638556Y-10393889D01*
X-5563000Y-10431223D01*
X-5410111Y-10469445D01*
X-5219889Y-10469445D01*
X-5067000Y-10431223D01*
X-4991444Y-10393889D01*
X-4953222Y-10355667D01*
X-4915000Y-10279223D01*
X-4915000Y-10202778D01*
X-4953222Y-10127223D01*
X-4991444Y-10089000D01*
X-5067000Y-10050778D01*
X-5219889Y-10012556D01*
X-5410111Y-10012556D01*
X-5563000Y-10050778D01*
X-5638556Y-10089000D01*
X-5676778Y-10127223D01*
X-5715000Y-10202778D01*
D11*
G04 #@! TO.C,C4*
X10756875Y-2196944D02*
X10804653Y-2244722D01*
X10946875Y-2292500D01*
X11042431Y-2292500D01*
X11185764Y-2244722D01*
X11280208Y-2149167D01*
X11327986Y-2054722D01*
X11375764Y-1863611D01*
X11375764Y-1721389D01*
X11327986Y-1530278D01*
X11280208Y-1435833D01*
X11185764Y-1340278D01*
X11042431Y-1292500D01*
X10946875Y-1292500D01*
X10804653Y-1340278D01*
X10756875Y-1388056D01*
X9880208Y-1625833D02*
X9880208Y-2292500D01*
X10119097Y-1244722D02*
X10356875Y-1959167D01*
X9737986Y-1959167D01*
G04 #@! TO.C,C3*
X13556944Y-15665625D02*
X13604722Y-15617847D01*
X13652500Y-15475625D01*
X13652500Y-15380069D01*
X13604722Y-15236736D01*
X13509167Y-15142292D01*
X13414722Y-15094514D01*
X13223611Y-15046736D01*
X13081389Y-15046736D01*
X12890278Y-15094514D01*
X12795833Y-15142292D01*
X12700278Y-15236736D01*
X12652500Y-15380069D01*
X12652500Y-15475625D01*
X12700278Y-15617847D01*
X12748056Y-15665625D01*
X12652500Y-16065625D02*
X12652500Y-16684514D01*
X13033611Y-16351181D01*
X13033611Y-16494514D01*
X13081389Y-16588958D01*
X13129167Y-16636736D01*
X13223611Y-16684514D01*
X13462500Y-16684514D01*
X13556944Y-16636736D01*
X13604722Y-16588958D01*
X13652500Y-16494514D01*
X13652500Y-16208958D01*
X13604722Y-16113403D01*
X13556944Y-16065625D01*
G04 #@! TO.C,U1*
X-5817014Y-13176250D02*
X-5817014Y-13986250D01*
X-5864792Y-14080694D01*
X-5912570Y-14128472D01*
X-6007014Y-14176250D01*
X-6198125Y-14176250D01*
X-6293681Y-14128472D01*
X-6340347Y-14080694D01*
X-6388125Y-13986250D01*
X-6388125Y-13176250D01*
X-7359236Y-14176250D02*
X-6788125Y-14176250D01*
X-7073681Y-14176250D02*
X-7073681Y-13176250D01*
X-6978125Y-13319583D01*
X-6883681Y-13414028D01*
X-6788125Y-13461806D01*
G04 #@! TO.C,R6*
X-12341250Y-18246875D02*
X-12007917Y-17770208D01*
X-11770139Y-18246875D02*
X-11770139Y-17246875D01*
X-12151250Y-17246875D01*
X-12246806Y-17294653D01*
X-12293472Y-17342431D01*
X-12341250Y-17436875D01*
X-12341250Y-17580208D01*
X-12293472Y-17675764D01*
X-12246806Y-17723542D01*
X-12151250Y-17770208D01*
X-11770139Y-17770208D01*
X-13217917Y-17246875D02*
X-13026806Y-17246875D01*
X-12931250Y-17294653D01*
X-12884583Y-17342431D01*
X-12789028Y-17484653D01*
X-12741250Y-17675764D01*
X-12741250Y-18056875D01*
X-12789028Y-18151319D01*
X-12836806Y-18199097D01*
X-12931250Y-18246875D01*
X-13122361Y-18246875D01*
X-13217917Y-18199097D01*
X-13264583Y-18151319D01*
X-13312361Y-18056875D01*
X-13312361Y-17817986D01*
X-13264583Y-17723542D01*
X-13217917Y-17675764D01*
X-13122361Y-17627986D01*
X-12931250Y-17627986D01*
X-12836806Y-17675764D01*
X-12789028Y-17723542D01*
X-12741250Y-17817986D01*
D10*
G04 #@! TO.C,R22*
X-5376459Y-17373750D02*
X-5109792Y-16992417D01*
X-4919570Y-17373750D02*
X-4919570Y-16573750D01*
X-5224459Y-16573750D01*
X-5300903Y-16611972D01*
X-5338237Y-16650194D01*
X-5376459Y-16725750D01*
X-5376459Y-16840417D01*
X-5338237Y-16916861D01*
X-5300903Y-16955083D01*
X-5224459Y-16992417D01*
X-4919570Y-16992417D01*
X-5724681Y-16650194D02*
X-5762903Y-16611972D01*
X-5838459Y-16573750D01*
X-6029570Y-16573750D01*
X-6105126Y-16611972D01*
X-6143348Y-16650194D01*
X-6181570Y-16725750D01*
X-6181570Y-16802194D01*
X-6143348Y-16916861D01*
X-5686459Y-17373750D01*
X-6181570Y-17373750D01*
X-6529792Y-16650194D02*
X-6568014Y-16611972D01*
X-6643570Y-16573750D01*
X-6834681Y-16573750D01*
X-6910237Y-16611972D01*
X-6948459Y-16650194D01*
X-6986681Y-16725750D01*
X-6986681Y-16802194D01*
X-6948459Y-16916861D01*
X-6491570Y-17373750D01*
X-6986681Y-17373750D01*
G04 #@! TO.C,R14*
X160680Y-12223750D02*
X427347Y-11842417D01*
X617569Y-12223750D02*
X617569Y-11423750D01*
X312680Y-11423750D01*
X236236Y-11461972D01*
X198902Y-11500194D01*
X160680Y-11575750D01*
X160680Y-11690417D01*
X198902Y-11766861D01*
X236236Y-11805083D01*
X312680Y-11842417D01*
X617569Y-11842417D01*
X-606209Y-12223750D02*
X-149320Y-12223750D01*
X-377764Y-12223750D02*
X-377764Y-11423750D01*
X-301320Y-11538417D01*
X-225764Y-11613972D01*
X-149320Y-11652194D01*
X-1297542Y-11690417D02*
X-1297542Y-12223750D01*
X-1106431Y-11385528D02*
X-916209Y-11957083D01*
X-1411320Y-11957083D01*
D11*
G04 #@! TO.C,U2*
X4605000Y5206875D02*
X4605000Y4396875D01*
X4557222Y4302431D01*
X4509444Y4254653D01*
X4415000Y4206875D01*
X4223889Y4206875D01*
X4128333Y4254653D01*
X4081667Y4302431D01*
X4033889Y4396875D01*
X4033889Y5206875D01*
X3586111Y5111319D02*
X3538333Y5159097D01*
X3443889Y5206875D01*
X3205000Y5206875D01*
X3110556Y5159097D01*
X3062778Y5111319D01*
X3015000Y5016875D01*
X3015000Y4921319D01*
X3062778Y4777986D01*
X3633889Y4206875D01*
X3015000Y4206875D01*
D10*
G04 #@! TO.C,C5*
X549181Y-3991611D02*
X587403Y-3953389D01*
X625625Y-3839611D01*
X625625Y-3763167D01*
X587403Y-3648500D01*
X510958Y-3572944D01*
X435403Y-3534722D01*
X282514Y-3496500D01*
X168736Y-3496500D01*
X15847Y-3534722D01*
X-59708Y-3572944D01*
X-136153Y-3648500D01*
X-174375Y-3763167D01*
X-174375Y-3839611D01*
X-136153Y-3953389D01*
X-97931Y-3991611D01*
X-174375Y-4720278D02*
X-174375Y-4339833D01*
X206958Y-4301611D01*
X168736Y-4339833D01*
X130514Y-4416278D01*
X130514Y-4606500D01*
X168736Y-4682944D01*
X206958Y-4720278D01*
X282514Y-4758500D01*
X473625Y-4758500D01*
X549181Y-4720278D01*
X587403Y-4682944D01*
X625625Y-4606500D01*
X625625Y-4416278D01*
X587403Y-4339833D01*
X549181Y-4301611D01*
G04 #@! TO.C,C19*
X-13005194Y-3052542D02*
X-12966972Y-3014320D01*
X-12928750Y-2900542D01*
X-12928750Y-2824098D01*
X-12966972Y-2709431D01*
X-13043417Y-2633875D01*
X-13118972Y-2595653D01*
X-13271861Y-2557431D01*
X-13385639Y-2557431D01*
X-13538528Y-2595653D01*
X-13614083Y-2633875D01*
X-13690528Y-2709431D01*
X-13728750Y-2824098D01*
X-13728750Y-2900542D01*
X-13690528Y-3014320D01*
X-13652306Y-3052542D01*
X-12928750Y-3819431D02*
X-12928750Y-3362542D01*
X-12928750Y-3590986D02*
X-13728750Y-3590986D01*
X-13614083Y-3514542D01*
X-13538528Y-3438986D01*
X-13500306Y-3362542D01*
X-12928750Y-4205875D02*
X-12928750Y-4357875D01*
X-12966972Y-4434320D01*
X-13005194Y-4472542D01*
X-13118972Y-4548098D01*
X-13271861Y-4586320D01*
X-13576750Y-4586320D01*
X-13652306Y-4548098D01*
X-13690528Y-4510764D01*
X-13728750Y-4434320D01*
X-13728750Y-4281431D01*
X-13690528Y-4205875D01*
X-13652306Y-4167653D01*
X-13576750Y-4129431D01*
X-13385639Y-4129431D01*
X-13310083Y-4167653D01*
X-13271861Y-4205875D01*
X-13233639Y-4281431D01*
X-13233639Y-4434320D01*
X-13271861Y-4510764D01*
X-13310083Y-4548098D01*
X-13385639Y-4586320D01*
G04 #@! TO.C,R25*
X-10706250Y-3093695D02*
X-11087583Y-2827028D01*
X-10706250Y-2636806D02*
X-11506250Y-2636806D01*
X-11506250Y-2941695D01*
X-11468028Y-3018139D01*
X-11429806Y-3055473D01*
X-11354250Y-3093695D01*
X-11239583Y-3093695D01*
X-11163139Y-3055473D01*
X-11124917Y-3018139D01*
X-11087583Y-2941695D01*
X-11087583Y-2636806D01*
X-11429806Y-3441917D02*
X-11468028Y-3480139D01*
X-11506250Y-3555695D01*
X-11506250Y-3746806D01*
X-11468028Y-3822362D01*
X-11429806Y-3860584D01*
X-11354250Y-3898806D01*
X-11277806Y-3898806D01*
X-11163139Y-3860584D01*
X-10706250Y-3403695D01*
X-10706250Y-3898806D01*
X-11506250Y-4627473D02*
X-11506250Y-4247028D01*
X-11124917Y-4208806D01*
X-11163139Y-4247028D01*
X-11201361Y-4323473D01*
X-11201361Y-4513695D01*
X-11163139Y-4590139D01*
X-11124917Y-4627473D01*
X-11049361Y-4665695D01*
X-10858250Y-4665695D01*
X-10782694Y-4627473D01*
X-10744472Y-4590139D01*
X-10706250Y-4513695D01*
X-10706250Y-4323473D01*
X-10744472Y-4247028D01*
X-10782694Y-4208806D01*
D11*
G04 #@! TO.C,R8*
X-12341250Y-15548125D02*
X-12007917Y-15071458D01*
X-11770139Y-15548125D02*
X-11770139Y-14548125D01*
X-12151250Y-14548125D01*
X-12246806Y-14595903D01*
X-12293472Y-14643681D01*
X-12341250Y-14738125D01*
X-12341250Y-14881458D01*
X-12293472Y-14977014D01*
X-12246806Y-15024792D01*
X-12151250Y-15071458D01*
X-11770139Y-15071458D01*
X-12931250Y-14977014D02*
X-12836806Y-14929236D01*
X-12789028Y-14881458D01*
X-12741250Y-14785903D01*
X-12741250Y-14738125D01*
X-12789028Y-14643681D01*
X-12836806Y-14595903D01*
X-12931250Y-14548125D01*
X-13122361Y-14548125D01*
X-13217917Y-14595903D01*
X-13264583Y-14643681D01*
X-13312361Y-14738125D01*
X-13312361Y-14785903D01*
X-13264583Y-14881458D01*
X-13217917Y-14929236D01*
X-13122361Y-14977014D01*
X-12931250Y-14977014D01*
X-12836806Y-15024792D01*
X-12789028Y-15071458D01*
X-12741250Y-15167014D01*
X-12741250Y-15358125D01*
X-12789028Y-15452569D01*
X-12836806Y-15500347D01*
X-12931250Y-15548125D01*
X-13122361Y-15548125D01*
X-13217917Y-15500347D01*
X-13264583Y-15452569D01*
X-13312361Y-15358125D01*
X-13312361Y-15167014D01*
X-13264583Y-15071458D01*
X-13217917Y-15024792D01*
X-13122361Y-14977014D01*
G04 #@! TO.C,C12*
X8781805Y118056D02*
X8829583Y70278D01*
X8971805Y22500D01*
X9067361Y22500D01*
X9210694Y70278D01*
X9305138Y165833D01*
X9352916Y260278D01*
X9400694Y451389D01*
X9400694Y593611D01*
X9352916Y784722D01*
X9305138Y879167D01*
X9210694Y974722D01*
X9067361Y1022500D01*
X8971805Y1022500D01*
X8829583Y974722D01*
X8781805Y926944D01*
X7810694Y22500D02*
X8381805Y22500D01*
X8096249Y22500D02*
X8096249Y1022500D01*
X8191805Y879167D01*
X8286249Y784722D01*
X8381805Y736944D01*
X7362916Y926944D02*
X7315138Y974722D01*
X7220694Y1022500D01*
X6981805Y1022500D01*
X6887361Y974722D01*
X6839583Y926944D01*
X6791805Y832500D01*
X6791805Y736944D01*
X6839583Y593611D01*
X7410694Y22500D01*
X6791805Y22500D01*
D10*
G04 #@! TO.C,C13*
X-8034056Y-18427306D02*
X-7995834Y-18465528D01*
X-7882056Y-18503750D01*
X-7805612Y-18503750D01*
X-7690945Y-18465528D01*
X-7615389Y-18389083D01*
X-7577167Y-18313528D01*
X-7538945Y-18160639D01*
X-7538945Y-18046861D01*
X-7577167Y-17893972D01*
X-7615389Y-17818417D01*
X-7690945Y-17741972D01*
X-7805612Y-17703750D01*
X-7882056Y-17703750D01*
X-7995834Y-17741972D01*
X-8034056Y-17780194D01*
X-8800945Y-18503750D02*
X-8344056Y-18503750D01*
X-8572500Y-18503750D02*
X-8572500Y-17703750D01*
X-8496056Y-17818417D01*
X-8420500Y-17893972D01*
X-8344056Y-17932194D01*
X-9110945Y-17703750D02*
X-9606056Y-17703750D01*
X-9339389Y-18008639D01*
X-9454056Y-18008639D01*
X-9529612Y-18046861D01*
X-9567834Y-18085083D01*
X-9606056Y-18160639D01*
X-9606056Y-18351750D01*
X-9567834Y-18427306D01*
X-9529612Y-18465528D01*
X-9454056Y-18503750D01*
X-9225612Y-18503750D01*
X-9149167Y-18465528D01*
X-9110945Y-18427306D01*
D11*
G04 #@! TO.C,R7*
X-10001250Y-13633472D02*
X-10477917Y-13300139D01*
X-10001250Y-13062361D02*
X-11001250Y-13062361D01*
X-11001250Y-13443472D01*
X-10953472Y-13539028D01*
X-10905694Y-13585694D01*
X-10811250Y-13633472D01*
X-10667917Y-13633472D01*
X-10572361Y-13585694D01*
X-10524583Y-13539028D01*
X-10477917Y-13443472D01*
X-10477917Y-13062361D01*
X-11001250Y-14033472D02*
X-11001250Y-14700139D01*
X-10001250Y-14271250D01*
G04 #@! TO.C,C27*
X12798333Y9775556D02*
X12846111Y9727778D01*
X12988333Y9680000D01*
X13083889Y9680000D01*
X13227222Y9727778D01*
X13321666Y9823333D01*
X13369444Y9917778D01*
X13417222Y10108889D01*
X13417222Y10251111D01*
X13369444Y10442222D01*
X13321666Y10536667D01*
X13227222Y10632222D01*
X13083889Y10680000D01*
X12988333Y10680000D01*
X12846111Y10632222D01*
X12798333Y10584444D01*
X12350555Y10584444D02*
X12302777Y10632222D01*
X12208333Y10680000D01*
X11969444Y10680000D01*
X11875000Y10632222D01*
X11827222Y10584444D01*
X11779444Y10490000D01*
X11779444Y10394444D01*
X11827222Y10251111D01*
X12398333Y9680000D01*
X11779444Y9680000D01*
X11379444Y10680000D02*
X10712777Y10680000D01*
X11141666Y9680000D01*
D10*
G04 #@! TO.C,R18*
X-5414681Y-18494375D02*
X-5148014Y-18113042D01*
X-4957792Y-18494375D02*
X-4957792Y-17694375D01*
X-5262681Y-17694375D01*
X-5339125Y-17732597D01*
X-5376459Y-17770819D01*
X-5414681Y-17846375D01*
X-5414681Y-17961042D01*
X-5376459Y-18037486D01*
X-5339125Y-18075708D01*
X-5262681Y-18113042D01*
X-4957792Y-18113042D01*
X-6181570Y-18494375D02*
X-5724681Y-18494375D01*
X-5953125Y-18494375D02*
X-5953125Y-17694375D01*
X-5876681Y-17809042D01*
X-5801125Y-17884597D01*
X-5724681Y-17922819D01*
X-6643570Y-18037486D02*
X-6568014Y-17999264D01*
X-6529792Y-17961042D01*
X-6491570Y-17884597D01*
X-6491570Y-17846375D01*
X-6529792Y-17770819D01*
X-6568014Y-17732597D01*
X-6643570Y-17694375D01*
X-6796459Y-17694375D01*
X-6872903Y-17732597D01*
X-6910237Y-17770819D01*
X-6948459Y-17846375D01*
X-6948459Y-17884597D01*
X-6910237Y-17961042D01*
X-6872903Y-17999264D01*
X-6796459Y-18037486D01*
X-6643570Y-18037486D01*
X-6568014Y-18075708D01*
X-6529792Y-18113042D01*
X-6491570Y-18189486D01*
X-6491570Y-18342375D01*
X-6529792Y-18417931D01*
X-6568014Y-18456153D01*
X-6643570Y-18494375D01*
X-6796459Y-18494375D01*
X-6872903Y-18456153D01*
X-6910237Y-18417931D01*
X-6948459Y-18342375D01*
X-6948459Y-18189486D01*
X-6910237Y-18113042D01*
X-6872903Y-18075708D01*
X-6796459Y-18037486D01*
D11*
G04 #@! TO.C,R5*
X-12341250Y-16897500D02*
X-12007917Y-16420833D01*
X-11770139Y-16897500D02*
X-11770139Y-15897500D01*
X-12151250Y-15897500D01*
X-12246806Y-15945278D01*
X-12293472Y-15993056D01*
X-12341250Y-16087500D01*
X-12341250Y-16230833D01*
X-12293472Y-16326389D01*
X-12246806Y-16374167D01*
X-12151250Y-16420833D01*
X-11770139Y-16420833D01*
X-13264583Y-15897500D02*
X-12789028Y-15897500D01*
X-12741250Y-16374167D01*
X-12789028Y-16326389D01*
X-12884583Y-16278611D01*
X-13122361Y-16278611D01*
X-13217917Y-16326389D01*
X-13264583Y-16374167D01*
X-13312361Y-16468611D01*
X-13312361Y-16707500D01*
X-13264583Y-16801944D01*
X-13217917Y-16849722D01*
X-13122361Y-16897500D01*
X-12884583Y-16897500D01*
X-12789028Y-16849722D01*
X-12741250Y-16801944D01*
G04 #@! TO.C,C11*
X12978819Y-290834D02*
X13026597Y-243056D01*
X13074375Y-100834D01*
X13074375Y-5278D01*
X13026597Y138055D01*
X12931042Y232499D01*
X12836597Y280277D01*
X12645486Y328055D01*
X12503264Y328055D01*
X12312153Y280277D01*
X12217708Y232499D01*
X12122153Y138055D01*
X12074375Y-5278D01*
X12074375Y-100834D01*
X12122153Y-243056D01*
X12169931Y-290834D01*
X13074375Y-1261945D02*
X13074375Y-690834D01*
X13074375Y-976390D02*
X12074375Y-976390D01*
X12217708Y-880834D01*
X12312153Y-786390D01*
X12359931Y-690834D01*
X13074375Y-2233056D02*
X13074375Y-1661945D01*
X13074375Y-1947501D02*
X12074375Y-1947501D01*
X12217708Y-1851945D01*
X12312153Y-1757501D01*
X12359931Y-1661945D01*
%LPC*%
D16*
G04 #@! TO.C,R21*
X-2717500Y-15875000D03*
X-4267500Y-15875000D03*
D17*
G04 #@! TO.C,C14*
X-4990000Y-7778750D03*
X-6440000Y-7778750D03*
D18*
G04 #@! TO.C,R4*
X-11906250Y-5336875D03*
X-11906250Y-6886875D03*
D19*
G04 #@! TO.C,C8*
X-2778125Y-5328750D03*
X-2778125Y-3878750D03*
D20*
G04 #@! TO.C,T1*
X1980000Y0D03*
D21*
X4520000Y0D03*
D22*
G04 #@! TO.C,Q1*
X-8720000Y2220000D03*
X-6520000Y1270000D03*
X-8720000Y320000D03*
D16*
G04 #@! TO.C,R20*
X-2717500Y-14763750D03*
X-4267500Y-14763750D03*
G04 #@! TO.C,R11*
X-4267500Y-17145000D03*
X-2717500Y-17145000D03*
D23*
G04 #@! TO.C,L3*
X9186250Y5080000D03*
D24*
X12086250Y5080000D03*
D17*
G04 #@! TO.C,C7*
X8503750Y-17780000D03*
X7053750Y-17780000D03*
G04 #@! TO.C,C17*
X-13266250Y-13811250D03*
X-11816250Y-13811250D03*
D19*
G04 #@! TO.C,C9*
X-1508125Y-5170000D03*
X-1508125Y-3720000D03*
D25*
G04 #@! TO.C,LED2*
X-10350000Y9525000D03*
X-12450000Y9525000D03*
D18*
G04 #@! TO.C,R10*
X7778750Y-2997500D03*
X7778750Y-1447500D03*
D16*
G04 #@! TO.C,R23*
X-2400000Y-6985000D03*
X-3950000Y-6985000D03*
D18*
G04 #@! TO.C,L1*
X-9366250Y-6886875D03*
X-9366250Y-5336875D03*
D26*
G04 #@! TO.C,JP1*
X1476250Y-18335625D03*
X476250Y-18335625D03*
X-523750Y-18335625D03*
D14*
G36*
X1876250Y-17835625D02*
X-923750Y-17835625D01*
X-923750Y-18835625D01*
X1876250Y-18835625D01*
X1876250Y-17835625D01*
G37*
D27*
G04 #@! TO.C,D2*
X7302500Y7676250D03*
X7302500Y9786250D03*
D17*
G04 #@! TO.C,C2*
X6043125Y-17780000D03*
X4593125Y-17780000D03*
D28*
G04 #@! TO.C,U3*
X1573125Y-9545000D03*
D29*
X7973125Y-16445000D03*
D28*
X12873125Y-9045000D03*
X12873125Y-11045000D03*
X1573125Y-11045000D03*
X1573125Y-14045000D03*
D29*
X6973125Y-5145000D03*
X8973125Y-5145000D03*
X3473125Y-5145000D03*
X8973125Y-16445000D03*
D28*
X12873125Y-13545000D03*
X1573125Y-8045000D03*
X12873125Y-14545000D03*
X12873125Y-13045000D03*
D29*
X3473125Y-16445000D03*
D28*
X1573125Y-7545000D03*
X1573125Y-9045000D03*
D29*
X5973125Y-16445000D03*
D28*
X12873125Y-12045000D03*
X1573125Y-11545000D03*
X12873125Y-11545000D03*
X1573125Y-12545000D03*
X12873125Y-7045000D03*
D29*
X8473125Y-16445000D03*
X10473125Y-5145000D03*
X5473125Y-16445000D03*
X7473125Y-5145000D03*
D28*
X1573125Y-10545000D03*
D29*
X9973125Y-16445000D03*
D28*
X1573125Y-7045000D03*
D29*
X6473125Y-5145000D03*
D28*
X12873125Y-8045000D03*
X1573125Y-14545000D03*
D29*
X3973125Y-16445000D03*
X6973125Y-16445000D03*
X8473125Y-5145000D03*
X5473125Y-5145000D03*
D28*
X12873125Y-8545000D03*
D29*
X7973125Y-5145000D03*
D28*
X12873125Y-7545000D03*
X1573125Y-8545000D03*
X1573125Y-10045000D03*
D29*
X10473125Y-16445000D03*
X10973125Y-16445000D03*
X9473125Y-5145000D03*
X4473125Y-5145000D03*
X3973125Y-5145000D03*
X4473125Y-16445000D03*
X9473125Y-16445000D03*
D28*
X12873125Y-12545000D03*
D29*
X4973125Y-16445000D03*
X6473125Y-16445000D03*
D28*
X12873125Y-14045000D03*
D29*
X5973125Y-5145000D03*
D28*
X12873125Y-10545000D03*
D29*
X9973125Y-5145000D03*
D28*
X1573125Y-13545000D03*
X1573125Y-13045000D03*
X12873125Y-9545000D03*
X12873125Y-10045000D03*
X1573125Y-12045000D03*
D29*
X10973125Y-5145000D03*
X7473125Y-16445000D03*
X4973125Y-5145000D03*
D30*
G04 #@! TO.C,Y1*
X-4130000Y-5277500D03*
X-6030000Y-5277500D03*
X-6030000Y-2977500D03*
X-4130000Y-2977500D03*
D31*
G04 #@! TO.C,C15*
X5397500Y7856250D03*
X5397500Y9606250D03*
D19*
G04 #@! TO.C,C6*
X238125Y-14695000D03*
X238125Y-13245000D03*
D16*
G04 #@! TO.C,R15*
X-3950000Y-8255000D03*
X-2400000Y-8255000D03*
D19*
G04 #@! TO.C,C18*
X-10636250Y-5386875D03*
X-10636250Y-6836875D03*
D16*
G04 #@! TO.C,R1*
X-495000Y2540000D03*
X-2045000Y2540000D03*
G04 #@! TO.C,R2*
X495000Y2540000D03*
X2045000Y2540000D03*
G04 #@! TO.C,R9*
X9385000Y-19050000D03*
X10935000Y-19050000D03*
D19*
G04 #@! TO.C,C1*
X-1031875Y-14695000D03*
X-1031875Y-13245000D03*
D16*
G04 #@! TO.C,R24*
X-2717500Y-13493750D03*
X-4267500Y-13493750D03*
G04 #@! TO.C,R19*
X-1330625Y-8255000D03*
X219375Y-8255000D03*
D32*
G04 #@! TO.C,D1*
X3912500Y6350000D03*
X1802500Y6350000D03*
D18*
G04 #@! TO.C,R3*
X-10160000Y495000D03*
X-10160000Y2045000D03*
D20*
G04 #@! TO.C,LED1*
X-4520000Y0D03*
D21*
X-1980000Y0D03*
D33*
G04 #@! TO.C,J1*
X-6500000Y5940000D03*
X-200000Y5940000D03*
D34*
G04 #@! TD*
X-8720000Y-2965000D03*
X-8720000Y-15665000D03*
D17*
G04 #@! TO.C,C10*
X-4990000Y-6667500D03*
X-6440000Y-6667500D03*
G04 #@! TO.C,C4*
X9831875Y-3175000D03*
X11281875Y-3175000D03*
G04 #@! TO.C,C3*
X11816250Y-17462500D03*
X13266250Y-17462500D03*
D35*
G04 #@! TO.C,U1*
X-6372500Y-11886250D03*
D36*
X-9005000Y-8753750D03*
X-7005000Y-8753750D03*
D37*
X-9005000Y-12519250D03*
X-7005000Y-12519250D03*
D38*
X-10138000Y-11886250D03*
X-10138000Y-10386250D03*
D36*
X-7505000Y-8753750D03*
D38*
X-10138000Y-9386250D03*
D37*
X-9505000Y-12519250D03*
X-8505000Y-12519250D03*
D35*
X-6372500Y-10386250D03*
X-6372500Y-9386250D03*
D38*
X-10138000Y-11386250D03*
D37*
X-8005000Y-12519250D03*
D36*
X-9505000Y-8753750D03*
D38*
X-10138000Y-10886250D03*
D36*
X-8005000Y-8753750D03*
X-8505000Y-8753750D03*
D37*
X-7505000Y-12519250D03*
D38*
X-10138000Y-9886250D03*
D39*
X-8255000Y-10636250D03*
D35*
X-6372500Y-10886250D03*
X-6372500Y-9886250D03*
X-6372500Y-11386250D03*
D16*
G04 #@! TO.C,R6*
X-13316250Y-12541250D03*
X-11766250Y-12541250D03*
G04 #@! TO.C,R22*
X-4267500Y-9842500D03*
X-2717500Y-9842500D03*
G04 #@! TO.C,R14*
X-1568750Y-10636250D03*
X-18750Y-10636250D03*
D40*
G04 #@! TO.C,U2*
X6350000Y6321250D03*
X6350000Y3521250D03*
X7300000Y6321250D03*
X7300000Y3521250D03*
X5400000Y3521250D03*
X5400000Y6321250D03*
D19*
G04 #@! TO.C,C5*
X238125Y-7075000D03*
X238125Y-5625000D03*
G04 #@! TO.C,C19*
X-13176250Y-5386875D03*
X-13176250Y-6836875D03*
D18*
G04 #@! TO.C,R25*
X-8096250Y-5336875D03*
X-8096250Y-6886875D03*
D16*
G04 #@! TO.C,R8*
X-13316250Y-10001250D03*
X-11766250Y-10001250D03*
D17*
G04 #@! TO.C,C12*
X8821250Y1905000D03*
X7371250Y1905000D03*
G04 #@! TO.C,C13*
X-2767500Y-10953750D03*
X-4217500Y-10953750D03*
D16*
G04 #@! TO.C,R7*
X-13316250Y-8731250D03*
X-11766250Y-8731250D03*
D41*
G04 #@! TO.C,C27*
X11511250Y8572500D03*
X9761250Y8572500D03*
D16*
G04 #@! TO.C,R18*
X-4267500Y-12223750D03*
X-2717500Y-12223750D03*
G04 #@! TO.C,R5*
X-13316250Y-11271250D03*
X-11766250Y-11271250D03*
D19*
G04 #@! TO.C,C11*
X12541250Y-3085000D03*
X12541250Y-4535000D03*
G04 --- BOARD END --- *
G04 #@! TF.MD5,599643a96d9b8ef9d6eafea0452001ca*
M02*
