G04 --- HEADER BEGIN --- *
G04 #@! TF.GenerationSoftware,LibrePCB,LibrePCB,1.0.1-unstable*
G04 #@! TF.CreationDate,2023-09-17T23:29:36*
G04 #@! TF.ProjectId,d0-reader,9220702f-a48e-4216-8865-87f6ea8ca353,v1*
G04 #@! TF.Part,Single*
G04 #@! TF.SameCoordinates*
G04 #@! TF.FileFunction,Copper,L4,Bot*
G04 #@! TF.FilePolarity,Positive*
%FSLAX66Y66*%
%MOMM*%
G01*
G75*
G04 --- HEADER END --- *
G04 --- APERTURE LIST BEGIN --- *
G04 #@! TA.AperFunction,SMDPad,CuDef*
%ADD10R,0.75X0.8*%
%ADD11R,0.85X0.8*%
%ADD12R,0.8X0.75*%
%ADD13R,0.8X0.85*%
G04 #@! TA.AperFunction,ComponentPad*
%ADD14R,1.4X1.4*%
%ADD15C,1.4*%
G04 #@! TA.AperFunction,SMDPad,CuDef*
%ADD16R,1.4X1.0*%
%AMOUTLINE17*4,1,6,-0.8,1.95,0.1,1.95,0.8,1.25,0.8,-1.25,0.1,-1.95,-0.8,-1.95,-0.8,1.95,180.0*%
%ADD17OUTLINE17*%
%AMOUTLINE18*4,1,6,-0.8,1.95,0.1,1.95,0.8,1.25,0.8,-1.25,0.1,-1.95,-0.8,-1.95,-0.8,1.95,0.0*%
%ADD18OUTLINE18*%
%ADD19R,1.2X1.2*%
G04 #@! TA.AperFunction,TestPad*
%ADD20R,0.8X1.0*%
G04 #@! TA.AperFunction,SMDPad,CuDef*
%ADD21R,0.45X0.6*%
%AMROUNDEDRECT22*20,1,0.2,-0.45,0.0,0.45,0.0,0.0*20,1,0.1,-0.5,0.0,0.5,0.0,0.0*1,1,0.1,-0.45,0.05*1,1,0.1,0.45,0.05*1,1,0.1,0.45,-0.05*1,1,0.1,-0.45,-0.05*%
%ADD22ROUNDEDRECT22*%
%AMROUNDEDRECT23*20,1,0.2,-0.45,0.0,0.45,0.0,90.0*20,1,0.1,-0.5,0.0,0.5,0.0,90.0*1,1,0.1,-0.05,-0.45*1,1,0.1,-0.05,0.45*1,1,0.1,0.05,0.45*1,1,0.1,0.05,-0.45*%
%ADD23ROUNDEDRECT23*%
%ADD24R,1.1X1.3*%
%ADD25R,1.25X0.95*%
%ADD26R,0.6X0.45*%
G04 #@! TA.AperFunction,ComponentPad*
%ADD27O,2.0X4.1*%
G04 #@! TA.AperFunction,SMDPad,CuDef*
%AMOUTLINE28*4,1,9,-0.275,-0.121244,-0.326244,-0.07,-0.345,0.0,-0.326244,0.07,-0.275,0.121244,-0.205,0.14,0.345,0.14,0.345,-0.14,-0.205,-0.14,-0.275,-0.121244,0.0*%
%ADD28OUTLINE28*%
%AMOUTLINE29*4,1,9,-0.275,-0.121244,-0.326244,-0.07,-0.345,0.0,-0.326244,0.07,-0.275,0.121244,-0.205,0.14,0.345,0.14,0.345,-0.14,-0.205,-0.14,-0.275,-0.121244,90.0*%
%ADD29OUTLINE29*%
%AMOUTLINE30*4,1,9,-0.275,-0.121244,-0.326244,-0.07,-0.345,0.0,-0.326244,0.07,-0.275,0.121244,-0.205,0.14,0.345,0.14,0.345,-0.14,-0.205,-0.14,-0.275,-0.121244,270.0*%
%ADD30OUTLINE30*%
%AMOUTLINE31*4,1,9,-0.275,-0.121244,-0.326244,-0.07,-0.345,0.0,-0.326244,0.07,-0.275,0.121244,-0.205,0.14,0.345,0.14,0.345,-0.14,-0.205,-0.14,-0.275,-0.121244,180.0*%
%ADD31OUTLINE31*%
%ADD32R,2.5X2.5*%
%ADD33R,0.6X1.1*%
%ADD34R,0.95X1.25*%
G04 #@! TA.AperFunction,ViaPad*
%ADD35C,0.7*%
G04 #@! TA.AperFunction,Conductor*
%ADD36C,0.2*%
%ADD37C,0.3*%
%ADD38C,0.6*%
%ADD39C,0.01*%
G04 #@! TD*
G04 --- APERTURE LIST END --- *
G04 --- BOARD BEGIN --- *
D10*
G04 #@! TO.N,3V3*
G04 #@! TO.C,R21*
G04 #@! TO.P,R21,2,2*
X-2717500Y-15875000D03*
G04 #@! TO.N,N25*
G04 #@! TO.P,R21,1,1*
X-4267500Y-15875000D03*
D11*
G04 #@! TO.N,GND*
G04 #@! TO.C,C14*
G04 #@! TO.P,C14,2,2*
X-4990000Y-7778750D03*
G04 #@! TO.N,N22*
G04 #@! TO.P,C14,1,1*
X-6440000Y-7778750D03*
D12*
G04 #@! TO.N,GND*
G04 #@! TO.C,R4*
G04 #@! TO.P,R4,2,2*
X-11906250Y-5336875D03*
G04 #@! TO.N,N23*
G04 #@! TO.P,R4,1,1*
X-11906250Y-6886875D03*
D13*
G04 #@! TO.N,GND*
G04 #@! TO.C,C8*
G04 #@! TO.P,C8,2,2*
X-2778125Y-5328750D03*
G04 #@! TO.N,N4*
G04 #@! TO.P,C8,1,1*
X-2778125Y-3878750D03*
D14*
G04 #@! TO.N,IR_RX*
G04 #@! TO.C,T1*
G04 #@! TO.P,T1,C,C*
X1980000Y0D03*
D15*
G04 #@! TO.N,GND*
G04 #@! TO.P,T1,A,E*
X4520000Y0D03*
D16*
G04 #@! TO.C,Q1*
G04 #@! TO.P,Q1,2,S*
X-8720000Y2220000D03*
G04 #@! TO.N,N1*
G04 #@! TO.P,Q1,3,D*
X-6520000Y1270000D03*
G04 #@! TO.N,IR_TX*
G04 #@! TO.P,Q1,1,G*
X-8720000Y320000D03*
D10*
G04 #@! TO.N,3V3*
G04 #@! TO.C,R20*
G04 #@! TO.P,R20,2,2*
X-2717500Y-14763750D03*
G04 #@! TO.N,RMII_MDIO*
G04 #@! TO.P,R20,1,1*
X-4267500Y-14763750D03*
G04 #@! TO.N,N25*
G04 #@! TO.C,R11*
G04 #@! TO.P,R11,2,2*
X-4267500Y-17145000D03*
G04 #@! TO.N,RMII_REFCLK*
G04 #@! TO.P,R11,1,1*
X-2717500Y-17145000D03*
D17*
G04 #@! TO.N,N5*
G04 #@! TO.C,L3*
G04 #@! TO.P,L3,1,1*
X9186250Y5080000D03*
D18*
G04 #@! TO.N,3V3*
G04 #@! TO.P,L3,2,2*
X12086250Y5080000D03*
D11*
G04 #@! TO.N,!RST*
G04 #@! TO.C,C7*
G04 #@! TO.P,C7,2,2*
X8503750Y-17780000D03*
G04 #@! TO.N,GND*
G04 #@! TO.P,C7,1,1*
X7053750Y-17780000D03*
G04 #@! TO.C,C17*
G04 #@! TO.P,C17,2,2*
X-13266250Y-13811250D03*
G04 #@! TO.N,N20*
G04 #@! TO.P,C17,1,1*
X-11816250Y-13811250D03*
D13*
G04 #@! TO.N,GND*
G04 #@! TO.C,C9*
G04 #@! TO.P,C9,2,2*
X-1508125Y-5170000D03*
G04 #@! TO.N,N6*
G04 #@! TO.P,C9,1,1*
X-1508125Y-3720000D03*
D19*
G04 #@! TO.N,STATUS_LED*
G04 #@! TO.C,LED2*
G04 #@! TO.P,LED2,A,A*
X-10350000Y9525000D03*
G04 #@! TO.N,GND*
G04 #@! TO.P,LED2,C,C*
X-12450000Y9525000D03*
D12*
G04 #@! TO.N,N13*
G04 #@! TO.C,R10*
G04 #@! TO.P,R10,2,2*
X7778750Y-2997500D03*
G04 #@! TO.N,GND*
G04 #@! TO.P,R10,1,1*
X7778750Y-1447500D03*
D10*
G04 #@! TO.N,3V3*
G04 #@! TO.C,R23*
G04 #@! TO.P,R23,2,2*
X-2400000Y-6985000D03*
G04 #@! TO.N,N35*
G04 #@! TO.P,R23,1,1*
X-3950000Y-6985000D03*
D12*
G04 #@! TO.N,N20*
G04 #@! TO.C,L1*
G04 #@! TO.P,L1,2,2*
X-9366250Y-6886875D03*
G04 #@! TO.N,3V3*
G04 #@! TO.P,L1,1,1*
X-9366250Y-5336875D03*
D20*
G04 #@! TO.N,!RST*
G04 #@! TO.C,JP1*
G04 #@! TO.P,JP1,1,1*
X1476250Y-18335625D03*
G04 #@! TO.N,N8*
G04 #@! TO.P,JP1,2,2*
X476250Y-18335625D03*
G04 #@! TO.N,!LAN_RST*
G04 #@! TO.P,JP1,3,3*
X-523750Y-18335625D03*
D21*
G04 #@! TO.N,N5*
G04 #@! TO.C,D2*
G04 #@! TO.P,D2,C,C*
X7302500Y7676250D03*
G04 #@! TO.N,GND*
G04 #@! TO.P,D2,A,A*
X7302500Y9786250D03*
D11*
G04 #@! TO.C,C2*
G04 #@! TO.P,C2,2,2*
X6043125Y-17780000D03*
G04 #@! TO.N,3V3*
G04 #@! TO.P,C2,1,1*
X4593125Y-17780000D03*
D22*
G04 #@! TO.N,N/C*
G04 #@! TO.C,U3*
G04 #@! TO.P,U3,27,PB1*
X1573125Y-9545000D03*
D23*
G04 #@! TO.N,!RST*
G04 #@! TO.P,U3,7,NRST*
X7973125Y-16445000D03*
D22*
G04 #@! TO.N,N/C*
G04 #@! TO.P,U3,53,PC12*
X12873125Y-9045000D03*
G04 #@! TO.P,U3,57,PB5*
X12873125Y-11045000D03*
G04 #@! TO.N,RMII_RXD0*
G04 #@! TO.P,U3,24,PC4*
X1573125Y-11045000D03*
G04 #@! TO.N,GND*
G04 #@! TO.P,U3,18,VSS*
X1573125Y-14045000D03*
D23*
G04 #@! TO.N,N/C*
G04 #@! TO.P,U3,40,PC9*
X6973125Y-5145000D03*
G04 #@! TO.P,U3,44,PA11*
X8973125Y-5145000D03*
G04 #@! TO.N,RMII_TXD0*
G04 #@! TO.P,U3,33,PB12*
X3473125Y-5145000D03*
G04 #@! TO.N,N/C*
G04 #@! TO.P,U3,5,PD0-OSC_IN*
X8973125Y-16445000D03*
D22*
G04 #@! TO.P,U3,62,PB9*
X12873125Y-13545000D03*
G04 #@! TO.N,RMII_TXEN*
G04 #@! TO.P,U3,30,PB11*
X1573125Y-8045000D03*
G04 #@! TO.N,3V3*
G04 #@! TO.P,U3,64,VDD*
X12873125Y-14545000D03*
G04 #@! TO.N,N/C*
G04 #@! TO.P,U3,61,PB8*
X12873125Y-13045000D03*
D23*
G04 #@! TO.N,RMII_MDIO*
G04 #@! TO.P,U3,16,PA2*
X3473125Y-16445000D03*
D22*
G04 #@! TO.N,GND*
G04 #@! TO.P,U3,31,VSS*
X1573125Y-7545000D03*
G04 #@! TO.N,N/C*
G04 #@! TO.P,U3,28,PB2*
X1573125Y-9045000D03*
D23*
G04 #@! TO.P,U3,11,PC3*
X5973125Y-16445000D03*
D22*
G04 #@! TO.P,U3,59,PB7*
X12873125Y-12045000D03*
G04 #@! TO.N,RMII_CRS_DV*
G04 #@! TO.P,U3,23,PA7*
X1573125Y-11545000D03*
G04 #@! TO.N,N/C*
G04 #@! TO.P,U3,58,PB6*
X12873125Y-11545000D03*
G04 #@! TO.P,U3,21,PA5*
X1573125Y-12545000D03*
G04 #@! TO.N,SWCLK*
G04 #@! TO.P,U3,49,PA14*
X12873125Y-7045000D03*
D23*
G04 #@! TO.N,N/C*
G04 #@! TO.P,U3,6,PD1-OSC_OUT*
X8473125Y-16445000D03*
G04 #@! TO.N,GND*
G04 #@! TO.P,U3,47,VSS*
X10473125Y-5145000D03*
G04 #@! TO.P,U3,12,VSSA*
X5473125Y-16445000D03*
G04 #@! TO.N,N/C*
G04 #@! TO.P,U3,41,PA8*
X7473125Y-5145000D03*
D22*
G04 #@! TO.N,RMII_RXD1*
G04 #@! TO.P,U3,25,PC5*
X1573125Y-10545000D03*
D23*
G04 #@! TO.N,N/C*
G04 #@! TO.P,U3,3,PC14-OSC32_IN*
X9973125Y-16445000D03*
D22*
G04 #@! TO.N,3V3*
G04 #@! TO.P,U3,32,VDD*
X1573125Y-7045000D03*
D23*
G04 #@! TO.N,N/C*
G04 #@! TO.P,U3,39,PC8*
X6473125Y-5145000D03*
D22*
G04 #@! TO.N,IR_TX*
G04 #@! TO.P,U3,51,PC10*
X12873125Y-8045000D03*
G04 #@! TO.N,!LAN_RST*
G04 #@! TO.P,U3,17,PA3*
X1573125Y-14545000D03*
D23*
G04 #@! TO.N,RMII_REFCLK*
G04 #@! TO.P,U3,15,PA1*
X3973125Y-16445000D03*
G04 #@! TO.N,RMII_MDC*
G04 #@! TO.P,U3,9,PC1*
X6973125Y-16445000D03*
G04 #@! TO.N,N/C*
G04 #@! TO.P,U3,43,PA10*
X8473125Y-5145000D03*
G04 #@! TO.N,TEST2*
G04 #@! TO.P,U3,37,PC6*
X5473125Y-5145000D03*
D22*
G04 #@! TO.N,IR_RX*
G04 #@! TO.P,U3,52,PC11*
X12873125Y-8545000D03*
D23*
G04 #@! TO.N,N/C*
G04 #@! TO.P,U3,42,PA9*
X7973125Y-5145000D03*
D22*
G04 #@! TO.P,U3,50,PA15*
X12873125Y-7545000D03*
G04 #@! TO.N,RMII_RXER*
G04 #@! TO.P,U3,29,PB10*
X1573125Y-8545000D03*
G04 #@! TO.N,N/C*
G04 #@! TO.P,U3,26,PB0*
X1573125Y-10045000D03*
D23*
G04 #@! TO.P,U3,2,PC13-TAMPER-RTC*
X10473125Y-16445000D03*
G04 #@! TO.N,3V3*
G04 #@! TO.P,U3,1,VBAT*
X10973125Y-16445000D03*
G04 #@! TO.N,N/C*
G04 #@! TO.P,U3,45,PA12*
X9473125Y-5145000D03*
G04 #@! TO.N,STATUS_LED*
G04 #@! TO.P,U3,35,PB14*
X4473125Y-5145000D03*
G04 #@! TO.N,RMII_TXD1*
G04 #@! TO.P,U3,34,PB13*
X3973125Y-5145000D03*
G04 #@! TO.N,N/C*
G04 #@! TO.P,U3,14,PA0-WKUP*
X4473125Y-16445000D03*
G04 #@! TO.P,U3,4,PC15-OSC32_OUT*
X9473125Y-16445000D03*
D22*
G04 #@! TO.N,GND*
G04 #@! TO.P,U3,60,BOOT0*
X12873125Y-12545000D03*
D23*
G04 #@! TO.N,3V3*
G04 #@! TO.P,U3,13,VDDA*
X4973125Y-16445000D03*
G04 #@! TO.N,N/C*
G04 #@! TO.P,U3,10,PC2*
X6473125Y-16445000D03*
D22*
G04 #@! TO.N,GND*
G04 #@! TO.P,U3,63,VSS*
X12873125Y-14045000D03*
D23*
G04 #@! TO.N,N/C*
G04 #@! TO.P,U3,38,PC7*
X5973125Y-5145000D03*
D22*
G04 #@! TO.P,U3,56,PB4*
X12873125Y-10545000D03*
D23*
G04 #@! TO.N,SWDIO*
G04 #@! TO.P,U3,46,PA13*
X9973125Y-5145000D03*
D22*
G04 #@! TO.N,3V3*
G04 #@! TO.P,U3,19,VDD*
X1573125Y-13545000D03*
G04 #@! TO.N,N/C*
G04 #@! TO.P,U3,20,PA4*
X1573125Y-13045000D03*
G04 #@! TO.P,U3,54,PD2*
X12873125Y-9545000D03*
G04 #@! TO.P,U3,55,PB3*
X12873125Y-10045000D03*
G04 #@! TO.P,U3,22,PA6*
X1573125Y-12045000D03*
D23*
G04 #@! TO.N,3V3*
G04 #@! TO.P,U3,48,VDD*
X10973125Y-5145000D03*
G04 #@! TO.N,N/C*
G04 #@! TO.P,U3,8,PC0*
X7473125Y-16445000D03*
G04 #@! TO.N,TEST1*
G04 #@! TO.P,U3,36,PB15*
X4973125Y-5145000D03*
D24*
G04 #@! TO.N,GND*
G04 #@! TO.C,Y1*
G04 #@! TO.P,Y1,2,GND*
X-4130000Y-5277500D03*
G04 #@! TO.N,N4*
G04 #@! TO.P,Y1,3,2*
X-6030000Y-5277500D03*
G04 #@! TO.N,GND*
G04 #@! TO.P,Y1,4,GND*
X-6030000Y-2977500D03*
G04 #@! TO.N,N6*
G04 #@! TO.P,Y1,1,1*
X-4130000Y-2977500D03*
D25*
G04 #@! TO.N,N2*
G04 #@! TO.C,C15*
G04 #@! TO.P,C15,1,1*
X5397500Y7856250D03*
G04 #@! TO.N,GND*
G04 #@! TO.P,C15,2,2*
X5397500Y9606250D03*
D13*
G04 #@! TO.C,C6*
G04 #@! TO.P,C6,2,2*
X238125Y-14695000D03*
G04 #@! TO.N,3V3*
G04 #@! TO.P,C6,1,1*
X238125Y-13245000D03*
D10*
G04 #@! TO.N,N35*
G04 #@! TO.C,R15*
G04 #@! TO.P,R15,2,2*
X-3950000Y-8255000D03*
G04 #@! TO.N,RMII_RXD1*
G04 #@! TO.P,R15,1,1*
X-2400000Y-8255000D03*
D13*
G04 #@! TO.N,GND*
G04 #@! TO.C,C18*
G04 #@! TO.P,C18,2,2*
X-10636250Y-5386875D03*
G04 #@! TO.N,N20*
G04 #@! TO.P,C18,1,1*
X-10636250Y-6836875D03*
D10*
G04 #@! TO.N,3V3*
G04 #@! TO.C,R1*
G04 #@! TO.P,R1,2,2*
X-495000Y2540000D03*
G04 #@! TO.N,N7*
G04 #@! TO.P,R1,1,1*
X-2045000Y2540000D03*
G04 #@! TO.N,3V3*
G04 #@! TO.C,R2*
G04 #@! TO.P,R2,2,2*
X495000Y2540000D03*
G04 #@! TO.N,IR_RX*
G04 #@! TO.P,R2,1,1*
X2045000Y2540000D03*
G04 #@! TO.N,N11*
G04 #@! TO.C,R9*
G04 #@! TO.P,R9,2,2*
X9385000Y-19050000D03*
G04 #@! TO.N,GND*
G04 #@! TO.P,R9,1,1*
X10935000Y-19050000D03*
D13*
G04 #@! TO.C,C1*
G04 #@! TO.P,C1,2,2*
X-1031875Y-14695000D03*
G04 #@! TO.N,3V3*
G04 #@! TO.P,C1,1,1*
X-1031875Y-13245000D03*
D10*
G04 #@! TO.C,R24*
G04 #@! TO.P,R24,2,2*
X-2717500Y-13493750D03*
G04 #@! TO.N,N16*
G04 #@! TO.P,R24,1,1*
X-4267500Y-13493750D03*
G04 #@! TO.N,N18*
G04 #@! TO.C,R19*
G04 #@! TO.P,R19,2,2*
X-1330625Y-8255000D03*
G04 #@! TO.N,RMII_RXER*
G04 #@! TO.P,R19,1,1*
X219375Y-8255000D03*
D26*
G04 #@! TO.N,N2*
G04 #@! TO.C,D1*
G04 #@! TO.P,D1,C,C*
X3912500Y6350000D03*
G04 #@! TO.N,VIN*
G04 #@! TO.P,D1,A,A*
X1802500Y6350000D03*
D12*
G04 #@! TO.N,IR_TX*
G04 #@! TO.C,R3*
G04 #@! TO.P,R3,2,2*
X-10160000Y495000D03*
G04 #@! TO.N,GND*
G04 #@! TO.P,R3,1,1*
X-10160000Y2045000D03*
D14*
G04 #@! TO.N,N1*
G04 #@! TO.C,LED1*
G04 #@! TO.P,LED1,C,C*
X-4520000Y0D03*
D15*
G04 #@! TO.N,N7*
G04 #@! TO.P,LED1,A,A*
X-1980000Y0D03*
D27*
G04 #@! TO.N,GND*
G04 #@! TO.C,J1*
G04 #@! TO.P,J1,2,2*
X-6500000Y5940000D03*
G04 #@! TO.N,VIN*
G04 #@! TO.P,J1,1,1*
X-200000Y5940000D03*
D11*
G04 #@! TO.N,GND*
G04 #@! TO.C,C10*
G04 #@! TO.P,C10,2,2*
X-4990000Y-6667500D03*
G04 #@! TO.N,N22*
G04 #@! TO.P,C10,1,1*
X-6440000Y-6667500D03*
G04 #@! TO.N,GND*
G04 #@! TO.C,C4*
G04 #@! TO.P,C4,2,2*
X9831875Y-3175000D03*
G04 #@! TO.N,3V3*
G04 #@! TO.P,C4,1,1*
X11281875Y-3175000D03*
G04 #@! TO.N,GND*
G04 #@! TO.C,C3*
G04 #@! TO.P,C3,2,2*
X11816250Y-17462500D03*
G04 #@! TO.N,3V3*
G04 #@! TO.P,C3,1,1*
X13266250Y-17462500D03*
D28*
G04 #@! TO.N,RMII_MDIO*
G04 #@! TO.C,U1*
G04 #@! TO.P,U1,12,MDIO*
X-6372500Y-11886250D03*
D29*
G04 #@! TO.N,N24*
G04 #@! TO.P,U1,2,LED2/!INTSEL*
X-9005000Y-8753750D03*
G04 #@! TO.N,N22*
G04 #@! TO.P,U1,6,VDDCR*
X-7005000Y-8753750D03*
D30*
G04 #@! TO.N,RMII_TXD0*
G04 #@! TO.P,U1,17,TXD0*
X-9005000Y-12519250D03*
G04 #@! TO.N,RMII_MDC*
G04 #@! TO.P,U1,13,MDC*
X-7005000Y-12519250D03*
D31*
G04 #@! TO.N,N20*
G04 #@! TO.P,U1,19,VDD1A*
X-10138000Y-11886250D03*
G04 #@! TO.N,RXN*
G04 #@! TO.P,U1,22,RXN*
X-10138000Y-10386250D03*
D29*
G04 #@! TO.N,N4*
G04 #@! TO.P,U1,5,XTAL1/CLKIN*
X-7505000Y-8753750D03*
D31*
G04 #@! TO.N,N23*
G04 #@! TO.P,U1,24,RBIAS*
X-10138000Y-9386250D03*
D30*
G04 #@! TO.N,RMII_TXD1*
G04 #@! TO.P,U1,18,TXD1*
X-9505000Y-12519250D03*
G04 #@! TO.N,RMII_TXEN*
G04 #@! TO.P,U1,16,TXEN*
X-8505000Y-12519250D03*
D28*
G04 #@! TO.N,3V3*
G04 #@! TO.P,U1,9,VDDIO*
X-6372500Y-10386250D03*
G04 #@! TO.N,N35*
G04 #@! TO.P,U1,7,RXD1/MODE1*
X-6372500Y-9386250D03*
D31*
G04 #@! TO.N,TXN*
G04 #@! TO.P,U1,20,TXN*
X-10138000Y-11386250D03*
D30*
G04 #@! TO.N,N8*
G04 #@! TO.P,U1,15,!RST*
X-8005000Y-12519250D03*
D29*
G04 #@! TO.N,N20*
G04 #@! TO.P,U1,1,VDD2A*
X-9505000Y-8753750D03*
D31*
G04 #@! TO.N,TXP*
G04 #@! TO.P,U1,21,TXP*
X-10138000Y-10886250D03*
D29*
G04 #@! TO.N,N10*
G04 #@! TO.P,U1,4,XTAL2*
X-8005000Y-8753750D03*
G04 #@! TO.N,N12*
G04 #@! TO.P,U1,3,LED1/REGOFF*
X-8505000Y-8753750D03*
D30*
G04 #@! TO.N,N25*
G04 #@! TO.P,U1,14,!INT/REFCLKO*
X-7505000Y-12519250D03*
D31*
G04 #@! TO.N,RXP*
G04 #@! TO.P,U1,23,RXP*
X-10138000Y-9886250D03*
D32*
G04 #@! TO.N,GND*
G04 #@! TO.P,U1,EPAD,VSS*
X-8255000Y-10636250D03*
D28*
G04 #@! TO.N,N18*
G04 #@! TO.P,U1,10,RXER/PHYAD0*
X-6372500Y-10886250D03*
G04 #@! TO.N,N15*
G04 #@! TO.P,U1,8,RXD0/MODE0*
X-6372500Y-9886250D03*
G04 #@! TO.N,N16*
G04 #@! TO.P,U1,11,CRS_DV/MODE2*
X-6372500Y-11386250D03*
D10*
G04 #@! TO.N,N20*
G04 #@! TO.C,R6*
G04 #@! TO.P,R6,2,2*
X-13316250Y-12541250D03*
G04 #@! TO.N,TXN*
G04 #@! TO.P,R6,1,1*
X-11766250Y-12541250D03*
G04 #@! TO.N,3V3*
G04 #@! TO.C,R22*
G04 #@! TO.P,R22,2,2*
X-4267500Y-9842500D03*
G04 #@! TO.N,N15*
G04 #@! TO.P,R22,1,1*
X-2717500Y-9842500D03*
G04 #@! TO.C,R14*
G04 #@! TO.P,R14,2,2*
X-1568750Y-10636250D03*
G04 #@! TO.N,RMII_RXD0*
G04 #@! TO.P,R14,1,1*
X-18750Y-10636250D03*
D33*
G04 #@! TO.N,N2*
G04 #@! TO.C,U2*
G04 #@! TO.P,U2,5,VIN*
X6350000Y6321250D03*
G04 #@! TO.N,GND*
G04 #@! TO.P,U2,2,GND*
X6350000Y3521250D03*
G04 #@! TO.N,N5*
G04 #@! TO.P,U2,6,SW*
X7300000Y6321250D03*
G04 #@! TO.N,N3*
G04 #@! TO.P,U2,1,CB*
X7300000Y3521250D03*
G04 #@! TO.N,3V3*
G04 #@! TO.P,U2,3,FB*
X5400000Y3521250D03*
G04 #@! TO.N,N2*
G04 #@! TO.P,U2,4,!SHDN*
X5400000Y6321250D03*
D13*
G04 #@! TO.N,GND*
G04 #@! TO.C,C5*
G04 #@! TO.P,C5,2,2*
X238125Y-7075000D03*
G04 #@! TO.N,3V3*
G04 #@! TO.P,C5,1,1*
X238125Y-5625000D03*
G04 #@! TO.N,GND*
G04 #@! TO.C,C19*
G04 #@! TO.P,C19,2,2*
X-13176250Y-5386875D03*
G04 #@! TO.N,N20*
G04 #@! TO.P,C19,1,1*
X-13176250Y-6836875D03*
D12*
G04 #@! TO.N,N6*
G04 #@! TO.C,R25*
G04 #@! TO.P,R25,2,2*
X-8096250Y-5336875D03*
G04 #@! TO.N,N10*
G04 #@! TO.P,R25,1,1*
X-8096250Y-6886875D03*
D10*
G04 #@! TO.N,N20*
G04 #@! TO.C,R8*
G04 #@! TO.P,R8,2,2*
X-13316250Y-10001250D03*
G04 #@! TO.N,RXN*
G04 #@! TO.P,R8,1,1*
X-11766250Y-10001250D03*
D11*
G04 #@! TO.N,N5*
G04 #@! TO.C,C12*
G04 #@! TO.P,C12,2,2*
X8821250Y1905000D03*
G04 #@! TO.N,N3*
G04 #@! TO.P,C12,1,1*
X7371250Y1905000D03*
G04 #@! TO.N,GND*
G04 #@! TO.C,C13*
G04 #@! TO.P,C13,2,2*
X-2767500Y-10953750D03*
G04 #@! TO.N,3V3*
G04 #@! TO.P,C13,1,1*
X-4217500Y-10953750D03*
D10*
G04 #@! TO.N,N20*
G04 #@! TO.C,R7*
G04 #@! TO.P,R7,2,2*
X-13316250Y-8731250D03*
G04 #@! TO.N,RXP*
G04 #@! TO.P,R7,1,1*
X-11766250Y-8731250D03*
D34*
G04 #@! TO.N,3V3*
G04 #@! TO.C,C27*
G04 #@! TO.P,C27,1,1*
X11511250Y8572500D03*
G04 #@! TO.N,GND*
G04 #@! TO.P,C27,2,2*
X9761250Y8572500D03*
D10*
G04 #@! TO.N,N16*
G04 #@! TO.C,R18*
G04 #@! TO.P,R18,2,2*
X-4267500Y-12223750D03*
G04 #@! TO.N,RMII_CRS_DV*
G04 #@! TO.P,R18,1,1*
X-2717500Y-12223750D03*
G04 #@! TO.N,N20*
G04 #@! TO.C,R5*
G04 #@! TO.P,R5,2,2*
X-13316250Y-11271250D03*
G04 #@! TO.N,TXP*
G04 #@! TO.P,R5,1,1*
X-11766250Y-11271250D03*
D13*
G04 #@! TO.N,GND*
G04 #@! TO.C,C11*
G04 #@! TO.P,C11,2,2*
X12541250Y-3085000D03*
G04 #@! TO.N,N20*
G04 #@! TO.P,C11,1,1*
X12541250Y-4535000D03*
D35*
G04 #@! TD.C*
G04 #@! TD.P*
G04 #@! TO.N,GND*
X6588125Y-3889375D03*
X-7858125Y-10874375D03*
X9842500Y-1587500D03*
D36*
X10473125Y-3816179D02*
X9831875Y-3175000D01*
X9831875Y-3175000D02*
X9842500Y-1587500D01*
X10473125Y-5145000D02*
X10473125Y-3816179D01*
D35*
X6350000Y2540000D03*
X4603750Y5238750D03*
G04 #@! TO.N,N11*
X8413750Y-19050000D03*
D36*
X9385000Y-19050000D02*
X8413750Y-19050000D01*
D35*
G04 #@! TO.N,IR_RX*
X10715625Y-15001875D03*
D36*
X11854375Y-8545000D02*
X10715625Y-9683750D01*
D37*
X1980000Y0D02*
X1980000Y2475000D01*
D36*
X10715625Y-15001875D02*
X10715625Y-9683750D01*
X12873125Y-8545000D02*
X11854375Y-8545000D01*
D37*
X1980000Y2475000D02*
X2045000Y2540000D01*
D36*
G04 #@! TO.N,N4*
X-3026875Y-4127500D02*
X-2778125Y-3878750D01*
X-6030000Y-5277500D02*
X-5238750Y-4445000D01*
X-7302500Y-7461250D02*
X-7302500Y-6508750D01*
X-6667500Y-5238750D02*
X-6068750Y-5238750D01*
X-7302500Y-5873750D02*
X-6667500Y-5238750D01*
X-7302500Y-6508750D02*
X-7302500Y-5873750D01*
X-4921250Y-4445000D02*
X-4603750Y-4127500D01*
X-4603750Y-4127500D02*
X-3026875Y-4127500D01*
X-7505000Y-7663750D02*
X-7302500Y-7461250D01*
X-7505000Y-8753750D02*
X-7505000Y-7663750D01*
X-5238750Y-4445000D02*
X-4921250Y-4445000D01*
X-6068750Y-5238750D02*
X-6030000Y-5277500D01*
D35*
G04 #@! TO.N,GND*
X10160000Y10318750D03*
X6350000Y1746250D03*
X-8651875Y-10160000D03*
X-11906250Y-4445000D03*
D36*
X-11906250Y-5336875D02*
X-10636250Y-5386875D01*
X-11906250Y-5336875D02*
X-13176250Y-5386875D01*
X-11906250Y-5336875D02*
X-11906250Y-4445000D01*
D35*
G04 #@! TO.N,3V3*
X13176250Y8572500D03*
D38*
X13176250Y8572500D02*
X11511250Y8572500D01*
X11511250Y5655000D02*
X12086250Y5080000D01*
X11511250Y8572500D02*
X11511250Y5655000D01*
X11511250Y8572500D02*
X11511250Y8572500D01*
D36*
G04 #@! TO.N,RMII_RXD1*
X-2381250Y-8731250D02*
X-2381250Y-8273750D01*
X-2381250Y-8273750D02*
X-2400000Y-8255000D01*
X396875Y-9842500D02*
X-1270000Y-9842500D01*
X1573125Y-10545000D02*
X1099375Y-10545000D01*
X1099375Y-10545000D02*
X396875Y-9842500D01*
X-1270000Y-9842500D02*
X-2381250Y-8731250D01*
D35*
G04 #@! TO.N,!LAN_RST*
X1587500Y-16033750D03*
X-1508125Y-18097500D03*
D36*
X1573125Y-14545000D02*
X1573125Y-15810000D01*
X-1508125Y-18097500D02*
X-1270000Y-18335625D01*
X-523750Y-18335625D02*
X-1270000Y-18335625D01*
X1573125Y-15810000D02*
X1587500Y-16033750D01*
D35*
G04 #@! TO.N,GND*
X11906250Y-18573750D03*
D36*
X11588750Y-12858750D02*
X11906250Y-12541250D01*
X11822500Y-17456250D02*
X11816250Y-17462500D01*
X12873125Y-14045000D02*
X11822500Y-14045000D01*
X11588750Y-13811250D02*
X11588750Y-12858750D01*
X11822500Y-14045000D02*
X11822500Y-17456250D01*
X11816250Y-18483750D02*
X11906250Y-18573750D01*
X11816250Y-17462500D02*
X11816250Y-18483750D01*
X11822500Y-14045000D02*
X11588750Y-13811250D01*
X11906250Y-12541250D02*
X12869375Y-12541250D01*
X12869375Y-12541250D02*
X12873125Y-12545000D01*
D35*
G04 #@! TO.N,RMII_TXEN*
X-8651875Y-13414375D03*
X2857500Y-12858750D03*
D36*
X2857500Y-12858750D02*
X2857500Y-8255000D01*
X-8505000Y-12519250D02*
X-8505000Y-13267500D01*
X1573125Y-8045000D02*
X2647500Y-8045000D01*
X-8505000Y-13267500D02*
X-8651875Y-13414375D01*
X2647500Y-8045000D02*
X2857500Y-8255000D01*
D35*
G04 #@! TO.N,3V3*
X-10636250Y-4445000D03*
D36*
X-10258125Y-4445000D02*
X-9366250Y-5336875D01*
X-10636250Y-4445000D02*
X-10258125Y-4445000D01*
D35*
G04 #@! TO.N,IR_TX*
X9207500Y-15001875D03*
X-6032500Y-714375D03*
D36*
X12873125Y-8045000D02*
X11322500Y-8045000D01*
X-6826250Y-714375D02*
X-7858125Y317500D01*
X-8720000Y320000D02*
X-9985000Y320000D01*
X11322500Y-8045000D02*
X9207500Y-10160000D01*
X-8717500Y317500D02*
X-8720000Y320000D01*
X-7858125Y317500D02*
X-8717500Y317500D01*
X-9985000Y320000D02*
X-10160000Y495000D01*
X-6032500Y-714375D02*
X-6826250Y-714375D01*
X9207500Y-15001875D02*
X9207500Y-10160000D01*
D35*
G04 #@! TO.N,GND*
X-12541250Y7778750D03*
D36*
X-12450000Y7870000D02*
X-12541250Y7778750D01*
X-12450000Y9525000D02*
X-12450000Y7870000D01*
D35*
G04 #@! TO.N,N8*
X-2460625Y-18811875D03*
X-7381875Y-13890625D03*
D36*
X317500Y-19446875D02*
X476250Y-19288125D01*
X-7381875Y-13890625D02*
X-8005000Y-13267500D01*
X476250Y-18335625D02*
X476250Y-19288125D01*
X317500Y-19446875D02*
X-1825625Y-19446875D01*
X-1825625Y-19446875D02*
X-2460625Y-18811875D01*
X-8005000Y-12519250D02*
X-8005000Y-13267500D01*
D35*
G04 #@! TO.N,GND*
X-13017500Y-2778125D03*
X-6191250Y-16430625D03*
G04 #@! TO.N,!RST*
X5556250Y1111250D03*
X5556250Y-3413125D03*
X7937500Y-6667500D03*
D36*
X1476250Y-18335625D02*
X2540000Y-18335625D01*
X7937500Y-6667500D02*
X8413750Y-7143750D01*
X6757500Y-19526250D02*
X8503750Y-17780000D01*
X2540000Y-18335625D02*
X3730625Y-19526250D01*
X7461250Y-10001250D02*
X8413750Y-9048750D01*
X7973125Y-17170000D02*
X8503750Y-17780000D01*
X7973125Y-13450000D02*
X7461250Y-12938125D01*
X7973125Y-16445000D02*
X7973125Y-13450000D01*
X5556250Y1111250D02*
X5556250Y-3413125D01*
X3730625Y-19526250D02*
X6757500Y-19526250D01*
X7461250Y-12938125D02*
X7461250Y-10001250D01*
X8413750Y-9048750D02*
X8413750Y-7143750D01*
X7973125Y-16445000D02*
X7973125Y-17170000D01*
D35*
G04 #@! TO.N,GND*
X6032500Y-18732500D03*
D36*
X5794375Y-17303750D02*
X5794375Y-17531250D01*
X6032500Y-17780000D02*
X6043125Y-17780000D01*
X5473125Y-16445000D02*
X5473125Y-16982500D01*
X5473125Y-16982500D02*
X5794375Y-17303750D01*
X5794375Y-17531250D02*
X6043125Y-17780000D01*
X6032500Y-17780000D02*
X7053750Y-17780000D01*
X6032500Y-17780000D02*
X6032500Y-18732500D01*
G04 #@! TO.N,N10*
X-8005000Y-6973125D02*
X-8096250Y-6905625D01*
X-8096250Y-6886875D02*
X-8096250Y-6905625D01*
X-8005000Y-8753750D02*
X-8005000Y-6973125D01*
D35*
G04 #@! TO.N,3V3*
X10636250Y-17780000D03*
D36*
X10973125Y-17443125D02*
X10636250Y-17780000D01*
X10973125Y-16445000D02*
X10973125Y-17443125D01*
D35*
G04 #@! TO.N,RMII_MDC*
X4683125Y-15319375D03*
X-5238750Y-14922500D03*
D36*
X6973125Y-15863125D02*
X6429375Y-15319375D01*
X4683125Y-15319375D02*
X6429375Y-15319375D01*
X-7005000Y-12759375D02*
X-6191250Y-13573125D01*
X6973125Y-16445000D02*
X6973125Y-15863125D01*
X-6191250Y-13970000D02*
X-6191250Y-13573125D01*
X-7005000Y-12519250D02*
X-7005000Y-12759375D01*
X-6191250Y-13970000D02*
X-5238750Y-14922500D01*
D35*
G04 #@! TO.N,GND*
X-6508750Y-1587500D03*
D36*
X-6030000Y-2977500D02*
X-6030000Y-1590000D01*
X-6030000Y-1590000D02*
X-6508750Y-1587500D01*
D35*
G04 #@! TO.N,N24*
X-9604375Y-7858125D03*
D36*
X-9005000Y-8753750D02*
X-9005000Y-8378125D01*
X-9005000Y-8378125D02*
X-9525000Y-7858125D01*
X-9604375Y-7858125D02*
X-9525000Y-7858125D01*
D35*
G04 #@! TO.N,GND*
X158750Y-16113125D03*
X-952500Y-16113125D03*
D36*
X-952500Y-16113125D02*
X-952500Y-14774375D01*
X1573125Y-14045000D02*
X888125Y-14045000D01*
X888125Y-14045000D02*
X238125Y-14695000D01*
X238125Y-14695000D02*
X-1031875Y-14695000D01*
X158750Y-16113125D02*
X158750Y-14774375D01*
X158750Y-14774375D02*
X238125Y-14695000D01*
X-952500Y-14774375D02*
X-1031875Y-14695000D01*
G04 #@! TO.N,N23*
X-10138000Y-8991375D02*
X-11191875Y-7937500D01*
X-10138000Y-9386250D02*
X-10138000Y-8991375D01*
X-11906250Y-6886875D02*
X-11906250Y-7223125D01*
X-11906250Y-7223125D02*
X-11191875Y-7937500D01*
D35*
G04 #@! TO.N,GND*
X-10160000Y3016250D03*
D37*
X-8895000Y2045000D02*
X-8720000Y2220000D01*
X-10160000Y2045000D02*
X-8895000Y2045000D01*
X-10160000Y2045000D02*
X-10160000Y3016250D01*
D35*
G04 #@! TO.N,N12*
X-8651875Y-7778750D03*
X7302500Y-14128750D03*
X6508750Y-6667500D03*
D36*
X6985000Y-6667500D02*
X7937500Y-7620000D01*
X-8505000Y-7925625D02*
X-8651875Y-7778750D01*
X7302500Y-14128750D02*
X6985000Y-13811250D01*
X6985000Y-9842500D02*
X6985000Y-13811250D01*
X6508750Y-6667500D02*
X6985000Y-6667500D01*
X7937500Y-7620000D02*
X7937500Y-8890000D01*
X-8505000Y-8753750D02*
X-8505000Y-7925625D01*
X7937500Y-8890000D02*
X6985000Y-9842500D01*
D35*
G04 #@! TO.N,3V3*
X4603750Y-18732500D03*
D36*
X4683125Y-17690000D02*
X4593125Y-17780000D01*
X4973125Y-17013750D02*
X4603750Y-17383125D01*
X4603750Y-17790625D02*
X4593125Y-17780000D01*
X4973125Y-16445000D02*
X4973125Y-17013750D01*
X4593125Y-17780000D02*
X4683125Y-17690000D01*
X4593125Y-17780000D02*
X4603750Y-17383125D01*
X4603750Y-18732500D02*
X4603750Y-17790625D01*
D35*
G04 #@! TO.N,GND*
X-635000Y-4603750D03*
X-3175000Y-6191250D03*
D36*
X-4990000Y-6667500D02*
X-4990000Y-6138476D01*
X238125Y-7075000D02*
X-68750Y-7075000D01*
X-635000Y-4603750D02*
X-635000Y-4783750D01*
X-2778125Y-5328750D02*
X-2778125Y-6032500D01*
X-624375Y-5170000D02*
X-635000Y-5159375D01*
X-3016250Y-6032500D02*
X-2778125Y-6032500D01*
X238125Y-7075000D02*
X708125Y-7545000D01*
X-2698750Y-5170000D02*
X-2778125Y-5328750D01*
X-635000Y-4783750D02*
X-624375Y-5170000D01*
X-4990000Y-6138476D02*
X-4130000Y-5277500D01*
X-1508125Y-5170000D02*
X-624375Y-5170000D01*
X-1508125Y-5170000D02*
X-1508125Y-5170000D01*
X-2778125Y-5328750D02*
X-4130000Y-5277500D01*
X1573125Y-7545000D02*
X708125Y-7545000D01*
X-635000Y-5159375D02*
X-635000Y-7075000D01*
X-635000Y-7075000D02*
X238125Y-7075000D01*
X-1508125Y-5170000D02*
X-2698750Y-5170000D01*
X-4990000Y-6667500D02*
X-4990000Y-7778750D01*
X-3175000Y-6191250D02*
X-3016250Y-6032500D01*
D35*
X12541250Y-19288125D03*
G04 #@! TO.N,3V3*
X4603750Y3492500D03*
D38*
X5400000Y3521250D02*
X4632500Y3521250D01*
X4632500Y3521250D02*
X4603750Y3492500D01*
D35*
G04 #@! TO.N,GND*
X-7858125Y-10160000D03*
G04 #@! TO.N,3V3*
X317500Y-4603750D03*
D36*
X1031875Y-5873750D02*
X1031875Y-6985000D01*
X1091875Y-7045000D02*
X1031875Y-6985000D01*
X238125Y-4683125D02*
X317500Y-4603750D01*
X476250Y-5625000D02*
X783125Y-5625000D01*
X238125Y-5625000D02*
X238125Y-4683125D01*
X1573125Y-7045000D02*
X1091875Y-7045000D01*
X783125Y-5625000D02*
X1031875Y-5873750D01*
X476250Y-5625000D02*
X238125Y-5625000D01*
D38*
G04 #@! TO.N,N3*
X7300000Y1976250D02*
X7371250Y1905000D01*
X7300000Y3521250D02*
X7300000Y1976250D01*
D37*
G04 #@! TO.N,N7*
X-1980000Y2475000D02*
X-2045000Y2540000D01*
X-1980000Y0D02*
X-1980000Y2475000D01*
D36*
G04 #@! TO.N,N35*
X-4267500Y-8572500D02*
X-3950000Y-8255000D01*
X-6372500Y-9386250D02*
X-5735000Y-9386250D01*
X-5735000Y-9386250D02*
X-4921250Y-8572500D01*
X-3950000Y-8255000D02*
X-3950000Y-6985000D01*
X-4921250Y-8572500D02*
X-4267500Y-8572500D01*
D35*
G04 #@! TO.N,RXP*
X7143750Y-8731250D03*
X5715000Y-8255000D03*
X-11033125Y-9048750D03*
D36*
X5715000Y-8255000D02*
X6667500Y-8255000D01*
X-11033125Y-9445625D02*
X-11033125Y-9048750D01*
X-11350625Y-8731250D02*
X-11033125Y-9048750D01*
X7143750Y-8731250D02*
X6667500Y-8255000D01*
X-10592500Y-9886250D02*
X-11033125Y-9445625D01*
X-11033125Y-9048750D02*
X-11033125Y-9048750D01*
X-10138000Y-9886250D02*
X-10592500Y-9886250D01*
X-11766250Y-8731250D02*
X-11350625Y-8731250D01*
D35*
G04 #@! TO.N,GND*
X6350000Y-10001250D03*
X-8334375Y9525000D03*
G04 #@! TO.N,TEST1*
X1905000Y4286250D03*
D36*
X3016250Y3175000D02*
X1905000Y4286250D01*
X4973125Y-5145000D02*
X4973125Y-4496875D01*
X3016250Y-2540000D02*
X3016250Y3175000D01*
X4973125Y-4496875D02*
X3016250Y-2540000D01*
D35*
G04 #@! TO.N,SWDIO*
X10636250Y793750D03*
D36*
X9683750Y-4127500D02*
X9207500Y-4127500D01*
X8890000Y-952500D02*
X10636250Y793750D01*
X9973125Y-4416875D02*
X9683750Y-4127500D01*
X9207500Y-4127500D02*
X8890000Y-3810000D01*
X9973125Y-5145000D02*
X9973125Y-4416875D01*
X8890000Y-3810000D02*
X8890000Y-952500D01*
D35*
G04 #@! TO.N,GND*
X8175625Y-12223750D03*
X12541250Y-1587500D03*
D36*
X12541250Y-1587500D02*
X12541250Y-3085000D01*
G04 #@! TO.N,N22*
X-6440000Y-7778750D02*
X-6826250Y-8096250D01*
X-7005000Y-8275000D02*
X-6826250Y-8096250D01*
X-7005000Y-8753750D02*
X-7005000Y-8433750D01*
X-7005000Y-8433750D02*
X-7005000Y-8275000D01*
X-6440000Y-7778750D02*
X-6440000Y-6667500D01*
D38*
G04 #@! TO.N,N2*
X5400000Y6350000D02*
X5400000Y6321250D01*
X5400000Y7853750D02*
X5397500Y7856250D01*
X5400000Y6321250D02*
X6350000Y6321250D01*
X3912500Y6350000D02*
X5400000Y6350000D01*
X5400000Y6321250D02*
X5400000Y7853750D01*
D35*
G04 #@! TO.N,RMII_TXD0*
X-9683750Y-13493750D03*
X3492500Y-11747500D03*
D36*
X-9005000Y-12519250D02*
X-9005000Y-12894375D01*
X-9005000Y-12894375D02*
X-9604375Y-13493750D01*
X3473125Y-11569375D02*
X3492500Y-11747500D01*
X-9683750Y-13493750D02*
X-9604375Y-13493750D01*
X3473125Y-5145000D02*
X3473125Y-11569375D01*
D35*
G04 #@! TO.N,GND*
X9604375Y-17938750D03*
G04 #@! TO.N,3V3*
X13176250Y-18573750D03*
D36*
X13221250Y-18528750D02*
X13176250Y-18573750D01*
X12873125Y-14545000D02*
X12873125Y-15005625D01*
X13221250Y-15353750D02*
X13266250Y-17462500D01*
X13221250Y-15353750D02*
X12873125Y-15005625D01*
X13221250Y-15353750D02*
X13221250Y-18528750D01*
D35*
G04 #@! TO.N,GND*
X13255625Y10318750D03*
X2063750Y-5080000D03*
X7699375Y238125D03*
X-11747500Y-2698750D03*
D38*
G04 #@! TO.N,N5*
X9186250Y1905000D02*
X9186250Y5080000D01*
X7300000Y6350000D02*
X9186250Y6350000D01*
X7300000Y6350000D02*
X7300000Y6321250D01*
X8821250Y1905000D02*
X9186250Y1905000D01*
X9186250Y6350000D02*
X9186250Y5080000D01*
X7300000Y7673750D02*
X7302500Y7676250D01*
X7300000Y6350000D02*
X7300000Y7673750D01*
D35*
G04 #@! TO.N,3V3*
X11271250Y-1587500D03*
D36*
X10973125Y-5145000D02*
X10973125Y-3483679D01*
X10973125Y-3483679D02*
X11281875Y-3175000D01*
X11281875Y-3175000D02*
X11271250Y-1587500D01*
D35*
G04 #@! TO.N,RXN*
X4762500Y-8572500D03*
X-11112500Y-10239375D03*
X7143750Y-7778750D03*
D36*
X-11112500Y-10001250D02*
X-11112500Y-10239375D01*
X6826250Y-7461250D02*
X7143750Y-7778750D01*
X5397500Y-7461250D02*
X6826250Y-7461250D01*
X-10727500Y-10386250D02*
X-11112500Y-10001250D01*
X4762500Y-8096250D02*
X5397500Y-7461250D01*
X4762500Y-8572500D02*
X4762500Y-8096250D01*
X-10138000Y-10386250D02*
X-10727500Y-10386250D01*
X-11766250Y-10001250D02*
X-11112500Y-10001250D01*
G04 #@! TO.N,RMII_RXER*
X845625Y-8545000D02*
X555625Y-8255000D01*
X1573125Y-8545000D02*
X845625Y-8545000D01*
X219375Y-8255000D02*
X555625Y-8255000D01*
D35*
G04 #@! TO.N,GND*
X6350000Y10318750D03*
X-13017500Y3651250D03*
D37*
G04 #@! TO.N,N1*
X-6520000Y1270000D02*
X-5790000Y1270000D01*
X-5790000Y1270000D02*
X-4520000Y0D01*
D35*
G04 #@! TO.N,GND*
X317500Y0D03*
G04 #@! TO.N,RMII_TXD1*
X-10636250Y-13811250D03*
X4127500Y-11112500D03*
D36*
X-9741125Y-12519250D02*
X-10636250Y-13414375D01*
X3973125Y-10958125D02*
X4127500Y-11112500D01*
X-9505000Y-12519250D02*
X-9741125Y-12519250D01*
X3973125Y-5145000D02*
X3973125Y-10958125D01*
X-10636250Y-13811250D02*
X-10636250Y-13414375D01*
D35*
G04 #@! TO.N,N13*
X7778750Y-3968750D03*
D36*
X7778750Y-2997500D02*
X7778750Y-3968750D01*
D35*
G04 #@! TO.N,GND*
X3413125Y-18097500D03*
G04 #@! TO.N,TXP*
X5873750Y-11588750D03*
X5476875Y-9921875D03*
X-11112500Y-11112500D03*
D36*
X-11766250Y-11271250D02*
X-11112500Y-11271250D01*
X5476875Y-9921875D02*
X5476875Y-11191875D01*
X5476875Y-11191875D02*
X5873750Y-11588750D01*
X-10727500Y-10886250D02*
X-11112500Y-11271250D01*
X-11112500Y-11271250D02*
X-11112500Y-11112500D01*
X-10138000Y-10886250D02*
X-10727500Y-10886250D01*
D35*
G04 #@! TO.N,GND*
X6826250Y-1428750D03*
D36*
X6845000Y-1447500D02*
X6826250Y-1428750D01*
D35*
X4921250Y-12938125D03*
X-1746250Y-11588750D03*
D36*
X-1746250Y-11588750D02*
X-2132500Y-11588750D01*
X-2132500Y-11588750D02*
X-2767500Y-10953750D01*
D35*
G04 #@! TO.N,RMII_MDIO*
X-5238750Y-13890625D03*
X3413125Y-13811250D03*
D36*
X-6372500Y-11886250D02*
X-6372500Y-12201250D01*
X-4365625Y-14763750D02*
X-5238750Y-13890625D01*
X-5238750Y-13890625D02*
X-5238750Y-13335000D01*
X3473125Y-13871250D02*
X3413125Y-13811250D01*
X-4267500Y-14763750D02*
X-4365625Y-14763750D01*
X-6372500Y-12201250D02*
X-5238750Y-13335000D01*
X3473125Y-16445000D02*
X3473125Y-13871250D01*
D35*
G04 #@! TO.N,3V3*
X0Y1587500D03*
D37*
X0Y2540000D02*
X-495000Y2540000D01*
X0Y2540000D02*
X495000Y2540000D01*
X0Y2540000D02*
X0Y1587500D01*
D35*
G04 #@! TO.N,TXN*
X-10953750Y-12223750D03*
D36*
X-11766250Y-12541250D02*
X-11271250Y-12541250D01*
X-10138000Y-11386250D02*
X-10513125Y-11386250D01*
X-10513125Y-11386250D02*
X-10795000Y-11668125D01*
X-10953750Y-12223750D02*
X-11271250Y-12541250D01*
X-10795000Y-11668125D02*
X-10795000Y-12065000D01*
X-10953750Y-12223750D02*
X-10795000Y-12065000D01*
D35*
G04 #@! TO.N,TEST2*
X3492500Y4524375D03*
D36*
X5473125Y-5145000D02*
X5473125Y-4282500D01*
X3492500Y-2301875D02*
X3492500Y4206875D01*
X5473125Y-4282500D02*
X3492500Y-2301875D01*
X3492500Y4206875D02*
X3492500Y4524375D01*
D35*
G04 #@! TO.N,STATUS_LED*
X-10398125Y8255000D03*
X-476250Y-1190625D03*
D36*
X1508125Y-1666875D02*
X0Y-1666875D01*
X4473125Y-4631875D02*
X1508125Y-1666875D01*
X-10398125Y9476875D02*
X-10350000Y9525000D01*
X4473125Y-5145000D02*
X4473125Y-4631875D01*
X0Y-1666875D02*
X-476250Y-1190625D01*
X-10398125Y8255000D02*
X-10398125Y9476875D01*
D35*
G04 #@! TO.N,SWCLK*
X10636250Y1905000D03*
D36*
X13335000Y-6032500D02*
X13335000Y-793750D01*
X12873125Y-6494375D02*
X13335000Y-6032500D01*
X12873125Y-7045000D02*
X12873125Y-6494375D01*
X13335000Y-793750D02*
X10636250Y1905000D01*
D38*
G04 #@! TO.N,VIN*
X210000Y6350000D02*
X-200000Y5940000D01*
X1802500Y6350000D02*
X210000Y6350000D01*
D35*
G04 #@! TO.N,GND*
X-3095625Y5953125D03*
X1190625Y-3651250D03*
D36*
G04 #@! TO.N,N25*
X-4286250Y-15875000D02*
X-5238750Y-15875000D01*
X-4286250Y-15875000D02*
X-4286250Y-17126250D01*
X-5238750Y-15875000D02*
X-6746875Y-14366875D01*
X-4286250Y-17126250D02*
X-4267500Y-17145000D01*
X-4286250Y-15875000D02*
X-4267500Y-15875000D01*
X-7505000Y-12519250D02*
X-7505000Y-12894375D01*
X-7505000Y-12894375D02*
X-6746875Y-13652500D01*
X-6746875Y-13652500D02*
X-6746875Y-14366875D01*
G04 #@! TO.N,N16*
X-4286250Y-12223750D02*
X-4921250Y-12223750D01*
X-4286250Y-12223750D02*
X-4267500Y-12223750D01*
X-5758750Y-11386250D02*
X-4921250Y-12223750D01*
X-6372500Y-11386250D02*
X-5758750Y-11386250D01*
X-4286250Y-12223750D02*
X-4286250Y-13475000D01*
X-4286250Y-13475000D02*
X-4267500Y-13493750D01*
G04 #@! TO.N,RMII_CRS_DV*
X1573125Y-11545000D02*
X-750000Y-11545000D01*
X-2717500Y-12223750D02*
X-1428750Y-12223750D01*
X-750000Y-11545000D02*
X-1428750Y-12223750D01*
D35*
G04 #@! TO.N,GND*
X11985625Y-555625D03*
X2460625Y-19288125D03*
X-11588750Y-16113125D03*
G04 #@! TO.N,3V3*
X-1905000Y-16113125D03*
X317500Y-12223750D03*
X-476250Y-12223750D03*
D36*
X-2143125Y-15875000D02*
X-1905000Y-16113125D01*
X1573125Y-13545000D02*
X538125Y-13545000D01*
X-2717500Y-13493750D02*
X-2063750Y-13493750D01*
X-6372500Y-10386250D02*
X-5465000Y-10386250D01*
X-2717500Y-14922500D02*
X-2717500Y-15875000D01*
X-2717500Y-14922500D02*
X-2717500Y-14763750D01*
X-4286250Y-9842500D02*
X-4286250Y-10885000D01*
X-3492500Y-11588750D02*
X-3492500Y-12718750D01*
X-1815000Y-13245000D02*
X-2063750Y-13493750D01*
X-2717500Y-13493750D02*
X-2717500Y-14763750D01*
X-4217500Y-10953750D02*
X-4286250Y-10885000D01*
X-1031875Y-13245000D02*
X238125Y-13245000D01*
X-4217500Y-10953750D02*
X-4127500Y-10953750D01*
X317500Y-12223750D02*
X317500Y-13165625D01*
X538125Y-13545000D02*
X238125Y-13245000D01*
X-1031875Y-13245000D02*
X-1815000Y-13245000D01*
X-5465000Y-10386250D02*
X-4921250Y-9842500D01*
X-4286250Y-9842500D02*
X-4267500Y-9842500D01*
X317500Y-12223750D02*
X-476250Y-12223750D01*
X317500Y-13165625D02*
X238125Y-13245000D01*
X-4217500Y-10953750D02*
X-4217500Y-10953750D01*
X-2717500Y-15875000D02*
X-2143125Y-15875000D01*
X-952500Y-13165625D02*
X-1031875Y-13245000D01*
X-4286250Y-9842500D02*
X-4921250Y-9842500D01*
X-2717500Y-13493750D02*
X-3492500Y-12718750D01*
X-4127500Y-10953750D02*
X-3492500Y-11588750D01*
D35*
G04 #@! TO.N,GND*
X2619375Y-16510000D03*
G04 #@! TO.N,3V3*
X-2063750Y-6191250D03*
D36*
X-2400000Y-6985000D02*
X-2400000Y-6686250D01*
X-2400000Y-6686250D02*
X-2063750Y-6191250D01*
D35*
G04 #@! TO.N,GND*
X-13335000Y-19288125D03*
G04 #@! TO.N,N20*
X8413750Y-10318750D03*
X-10556875Y-7620000D03*
D36*
X-13316250Y-10001250D02*
X-13316250Y-8731250D01*
X-13316250Y-12541250D02*
X-13316250Y-12541250D01*
X-13316250Y-12541250D02*
X-13316250Y-11271250D01*
X-10556875Y-7620000D02*
X-10556875Y-6905625D01*
X-11816250Y-13811250D02*
X-11588750Y-13811250D01*
X-10138000Y-12360500D02*
X-11588750Y-13811250D01*
X8413750Y-10318750D02*
X8413750Y-9842500D01*
X-9661250Y-8753750D02*
X-10556875Y-7858125D01*
X-12858750Y-12541250D02*
X-12541250Y-12858750D01*
X-10636250Y-6836875D02*
X-10556875Y-6886875D01*
X12541250Y-4535000D02*
X12541250Y-5715000D01*
X-10636250Y-6836875D02*
X-10636250Y-6826250D01*
X-11271250Y-6191250D02*
X-12530625Y-6191250D01*
X-13176250Y-6836875D02*
X-13176250Y-8591250D01*
X-9505000Y-8753750D02*
X-9661250Y-8753750D01*
X-12541250Y-12858750D02*
X-12541250Y-13652500D01*
X-9366250Y-6886875D02*
X-10556875Y-6886875D01*
X12541250Y-5715000D02*
X8413750Y-9842500D01*
X-13316250Y-11271250D02*
X-13316250Y-11271250D01*
X-10636250Y-6836875D02*
X-10556875Y-6905625D01*
X-13176250Y-8591250D02*
X-13316250Y-8731250D01*
X-11816250Y-13811250D02*
X-12382500Y-13811250D01*
X-10556875Y-7620000D02*
X-10556875Y-7858125D01*
X-10138000Y-11886250D02*
X-10138000Y-12360500D01*
X-10636250Y-6836875D02*
X-10636250Y-6836875D01*
X-12530625Y-6191250D02*
X-13176250Y-6836875D01*
X-13316250Y-12541250D02*
X-12858750Y-12541250D01*
X-12541250Y-13652500D02*
X-12382500Y-13811250D01*
X-10636250Y-6826250D02*
X-11271250Y-6191250D01*
X-13316250Y-11271250D02*
X-13316250Y-10001250D01*
D35*
G04 #@! TO.N,GND*
X13176250Y1587500D03*
G04 #@! TO.N,N18*
X-952500Y-9207500D03*
X-5238750Y-10953750D03*
D36*
X-1330625Y-8829375D02*
X-952500Y-9207500D01*
X-6372500Y-10886250D02*
X-5306250Y-10886250D01*
X-5306250Y-10886250D02*
X-5238750Y-10953750D01*
X-1330625Y-8255000D02*
X-1330625Y-8829375D01*
G04 #@! TO.N,RMII_RXD0*
X1573125Y-11045000D02*
X390000Y-11045000D01*
X390000Y-11045000D02*
X-18750Y-10636250D01*
D35*
G04 #@! TO.N,GND*
X-13335000Y-14763750D03*
D36*
X-13335000Y-14763750D02*
X-13335000Y-13880000D01*
X-13335000Y-13880000D02*
X-13266250Y-13811250D01*
D35*
X793750Y8651875D03*
X8890000Y10318750D03*
X3016250Y10239375D03*
X-8651875Y-10874375D03*
D36*
G04 #@! TO.N,N6*
X-6905625Y-4127500D02*
X-8096250Y-5336875D01*
X-5080000Y-3651250D02*
X-4803750Y-3651250D01*
X-5556250Y-4127500D02*
X-5080000Y-3651250D01*
X-5556250Y-4127500D02*
X-6905625Y-4127500D01*
X-4803750Y-3651250D02*
X-4130000Y-2977500D01*
X-2250625Y-2977500D02*
X-1508125Y-3720000D01*
X-4130000Y-2977500D02*
X-2250625Y-2977500D01*
D35*
G04 #@! TO.N,GND*
X-4683125Y-19050000D03*
D36*
G04 #@! TO.N,RMII_REFCLK*
X3651250Y-17303750D02*
X-2558750Y-17303750D01*
X-2558750Y-17303750D02*
X-2717500Y-17145000D01*
X3973125Y-16445000D02*
X3973125Y-16981875D01*
X3973125Y-16981875D02*
X3651250Y-17303750D01*
G04 #@! TO.N,N15*
X-6372500Y-9886250D02*
X-5600000Y-9886250D01*
X-2698750Y-9842500D02*
X-2362500Y-9842500D01*
X-2698750Y-9207500D02*
X-2698750Y-9842500D01*
X-2857500Y-9048750D02*
X-2698750Y-9207500D01*
X-5600000Y-9886250D02*
X-4762500Y-9048750D01*
X-4762500Y-9048750D02*
X-2857500Y-9048750D01*
X-2698750Y-9842500D02*
X-2717500Y-9842500D01*
X-2362500Y-9842500D02*
X-1568750Y-10636250D01*
D39*
G04 #@! TA.AperFunction,Conductor*
G04 #@! TO.N,GND*
G36*
X-13700000Y-19600001D02*
X-13680500Y-19659328D01*
X-13600001Y-19700000D01*
X-2379604Y-19700000D01*
X-2320277Y-19680500D01*
X-2284088Y-19629605D01*
X-2285150Y-19567164D01*
X-2308894Y-19529291D01*
X-2351760Y-19486425D01*
X-2422470Y-19457136D01*
X-2532922Y-19457136D01*
X-2544851Y-19455687D01*
X-2685240Y-19421085D01*
X-2696476Y-19416824D01*
X-2824512Y-19349626D01*
X-2834395Y-19342803D01*
X-2942631Y-19246915D01*
X-2950591Y-19237930D01*
X-3032737Y-19118920D01*
X-3038315Y-19108292D01*
X-3089594Y-18973082D01*
X-3092466Y-18961429D01*
X-3109896Y-18817879D01*
X-3109896Y-18805871D01*
X-3092466Y-18662321D01*
X-3089594Y-18650668D01*
X-3038315Y-18515458D01*
X-3032737Y-18504830D01*
X-2950591Y-18385820D01*
X-2942631Y-18376835D01*
X-2834395Y-18280947D01*
X-2824512Y-18274124D01*
X-2696476Y-18206926D01*
X-2685240Y-18202665D01*
X-2544851Y-18168063D01*
X-2532922Y-18166614D01*
X-2388328Y-18166614D01*
X-2376399Y-18168063D01*
X-2281326Y-18191496D01*
X-2219057Y-18186761D01*
X-2171739Y-18146005D01*
X-2158253Y-18097485D01*
X-2158125Y-18097500D01*
X-2158023Y-18096658D01*
X-2157396Y-18094403D01*
X-2157396Y-18091496D01*
X-2139237Y-17941945D01*
X-2142333Y-17941569D01*
X-2146067Y-17891558D01*
X-2186757Y-17844185D01*
X-2254120Y-17831002D01*
X-2338618Y-17844385D01*
X-2346431Y-17845000D01*
X-3088569Y-17845000D01*
X-3096382Y-17844385D01*
X-3177431Y-17831548D01*
X-3192218Y-17826744D01*
X-3261826Y-17791277D01*
X-3274399Y-17782142D01*
X-3329642Y-17726899D01*
X-3338777Y-17714326D01*
X-3374244Y-17644718D01*
X-3379048Y-17629931D01*
X-3391885Y-17548882D01*
X-3392500Y-17541069D01*
X-3392500Y-16748931D01*
X-3391885Y-16741118D01*
X-3379048Y-16660069D01*
X-3374244Y-16645282D01*
X-3338779Y-16575678D01*
X-3333765Y-16568777D01*
X-3314670Y-16509318D01*
X-3333765Y-16451223D01*
X-3338779Y-16444322D01*
X-3374244Y-16374718D01*
X-3379048Y-16359931D01*
X-3391885Y-16278882D01*
X-3392500Y-16271069D01*
X-3392500Y-15478931D01*
X-3391885Y-15471118D01*
X-3379048Y-15390069D01*
X-3374245Y-15375285D01*
X-3368889Y-15364774D01*
X-3368889Y-15273976D01*
X-3374245Y-15263465D01*
X-3379048Y-15248681D01*
X-3391885Y-15167632D01*
X-3392500Y-15159819D01*
X-3392500Y-14367681D01*
X-3391885Y-14359868D01*
X-3379048Y-14278819D01*
X-3374244Y-14264032D01*
X-3338779Y-14194428D01*
X-3333765Y-14187527D01*
X-3314670Y-14128068D01*
X-3333765Y-14069973D01*
X-3338779Y-14063072D01*
X-3374244Y-13993468D01*
X-3379048Y-13978681D01*
X-3391885Y-13897632D01*
X-3392500Y-13889819D01*
X-3392500Y-13425856D01*
X-3421789Y-13355146D01*
X-3421791Y-13355144D01*
X-3477530Y-13326982D01*
X-3539108Y-13337380D01*
X-3582509Y-13382284D01*
X-3592500Y-13425854D01*
X-3592500Y-13889819D01*
X-3593115Y-13897632D01*
X-3605952Y-13978681D01*
X-3610756Y-13993468D01*
X-3646221Y-14063072D01*
X-3651235Y-14069973D01*
X-3670330Y-14129432D01*
X-3651235Y-14187527D01*
X-3646221Y-14194428D01*
X-3610756Y-14264032D01*
X-3605952Y-14278819D01*
X-3593115Y-14359868D01*
X-3592500Y-14367681D01*
X-3592500Y-15159819D01*
X-3593115Y-15167632D01*
X-3605952Y-15248681D01*
X-3610755Y-15263465D01*
X-3616111Y-15273976D01*
X-3616111Y-15364774D01*
X-3610755Y-15375285D01*
X-3605952Y-15390069D01*
X-3593115Y-15471118D01*
X-3592500Y-15478931D01*
X-3592500Y-16271069D01*
X-3593115Y-16278882D01*
X-3605952Y-16359931D01*
X-3610756Y-16374718D01*
X-3646221Y-16444322D01*
X-3651235Y-16451223D01*
X-3670330Y-16510682D01*
X-3651235Y-16568777D01*
X-3646221Y-16575678D01*
X-3610756Y-16645282D01*
X-3605952Y-16660069D01*
X-3593115Y-16741118D01*
X-3592500Y-16748931D01*
X-3592500Y-17541069D01*
X-3593115Y-17548882D01*
X-3605952Y-17629931D01*
X-3610756Y-17644718D01*
X-3646223Y-17714326D01*
X-3655358Y-17726899D01*
X-3710601Y-17782142D01*
X-3723174Y-17791277D01*
X-3792782Y-17826744D01*
X-3807569Y-17831548D01*
X-3888618Y-17844385D01*
X-3896431Y-17845000D01*
X-4638569Y-17845000D01*
X-4646382Y-17844385D01*
X-4727431Y-17831548D01*
X-4742218Y-17826744D01*
X-4811826Y-17791277D01*
X-4824399Y-17782142D01*
X-4879642Y-17726899D01*
X-4888777Y-17714326D01*
X-4924244Y-17644718D01*
X-4929048Y-17629931D01*
X-4941885Y-17548882D01*
X-4942500Y-17541069D01*
X-4942500Y-16748931D01*
X-4941885Y-16741118D01*
X-4929048Y-16660069D01*
X-4924244Y-16645282D01*
X-4888779Y-16575678D01*
X-4883765Y-16568777D01*
X-4864670Y-16509318D01*
X-4883765Y-16451223D01*
X-4888779Y-16444322D01*
X-4924244Y-16374718D01*
X-4929049Y-16359929D01*
X-4929139Y-16359360D01*
X-4929397Y-16358858D01*
X-4931480Y-16352447D01*
X-4932517Y-16352784D01*
X-4957677Y-16303812D01*
X-5027907Y-16275000D01*
X-5234819Y-16275000D01*
X-5242632Y-16274385D01*
X-5262074Y-16271306D01*
X-5277717Y-16270075D01*
X-5293455Y-16270075D01*
X-5308812Y-16267643D01*
X-5323778Y-16262780D01*
X-5339038Y-16259116D01*
X-5354585Y-16256654D01*
X-5369364Y-16251852D01*
X-5383396Y-16244702D01*
X-5397894Y-16238697D01*
X-5412861Y-16233834D01*
X-5426713Y-16226776D01*
X-5439443Y-16217527D01*
X-5452822Y-16209328D01*
X-5466856Y-16202177D01*
X-5479427Y-16193044D01*
X-5490561Y-16181910D01*
X-5502493Y-16171719D01*
X-5518416Y-16160150D01*
X-5524370Y-16155065D01*
X-6736022Y-14943413D01*
X-6791761Y-14915251D01*
X-6853339Y-14925649D01*
X-6896740Y-14970553D01*
X-6900426Y-15049069D01*
X-6874225Y-15119316D01*
X-6872216Y-15126156D01*
X-6815354Y-15387551D01*
X-6814339Y-15394613D01*
X-6795255Y-15661435D01*
X-6795255Y-15668565D01*
X-6814339Y-15935387D01*
X-6815354Y-15942449D01*
X-6872216Y-16203844D01*
X-6874225Y-16210685D01*
X-6967709Y-16461325D01*
X-6970671Y-16467812D01*
X-7098875Y-16702598D01*
X-7102729Y-16708595D01*
X-7263041Y-16922748D01*
X-7267706Y-16928131D01*
X-7456869Y-17117294D01*
X-7462252Y-17121959D01*
X-7676405Y-17282271D01*
X-7682402Y-17286125D01*
X-7917188Y-17414329D01*
X-7923675Y-17417291D01*
X-8174315Y-17510775D01*
X-8181156Y-17512784D01*
X-8442551Y-17569646D01*
X-8449613Y-17570661D01*
X-8716435Y-17589745D01*
X-8723565Y-17589745D01*
X-8990387Y-17570661D01*
X-8997449Y-17569646D01*
X-9258844Y-17512784D01*
X-9265685Y-17510775D01*
X-9516325Y-17417291D01*
X-9522812Y-17414329D01*
X-9757598Y-17286125D01*
X-9763595Y-17282271D01*
X-9977748Y-17121959D01*
X-9983131Y-17117294D01*
X-10172294Y-16928131D01*
X-10176959Y-16922748D01*
X-10337271Y-16708595D01*
X-10341125Y-16702598D01*
X-10469329Y-16467812D01*
X-10472291Y-16461325D01*
X-10565775Y-16210685D01*
X-10567784Y-16203844D01*
X-10624646Y-15942449D01*
X-10625661Y-15935387D01*
X-10644745Y-15668565D01*
X-10644745Y-15661435D01*
X-10625661Y-15394613D01*
X-10624646Y-15387551D01*
X-10567784Y-15126156D01*
X-10565775Y-15119315D01*
X-10472291Y-14868675D01*
X-10469329Y-14862188D01*
X-10341125Y-14627402D01*
X-10337276Y-14621412D01*
X-10303651Y-14576495D01*
X-10283708Y-14517315D01*
X-10302764Y-14457844D01*
X-10353386Y-14421275D01*
X-10407635Y-14419474D01*
X-10552024Y-14455062D01*
X-10563953Y-14456511D01*
X-10708547Y-14456511D01*
X-10720476Y-14455062D01*
X-10860865Y-14420460D01*
X-10872101Y-14416199D01*
X-11000140Y-14348999D01*
X-11001354Y-14348161D01*
X-11002226Y-14347904D01*
X-11005492Y-14346190D01*
X-11005834Y-14346841D01*
X-11061257Y-14330508D01*
X-11119951Y-14351836D01*
X-11139087Y-14375122D01*
X-11140346Y-14374207D01*
X-11154108Y-14393149D01*
X-11209351Y-14448392D01*
X-11221924Y-14457527D01*
X-11291532Y-14492994D01*
X-11306319Y-14497798D01*
X-11387368Y-14510635D01*
X-11395181Y-14511250D01*
X-12237319Y-14511250D01*
X-12245132Y-14510635D01*
X-12326181Y-14497798D01*
X-12340968Y-14492994D01*
X-12410576Y-14457527D01*
X-12423149Y-14448392D01*
X-12470540Y-14401001D01*
X-12526279Y-14372839D01*
X-12611960Y-14401001D01*
X-12659351Y-14448392D01*
X-12671924Y-14457527D01*
X-12741532Y-14492994D01*
X-12756319Y-14497798D01*
X-12837368Y-14510635D01*
X-12845181Y-14511250D01*
X-13100232Y-14511250D01*
X-13104997Y-14509684D01*
X-13116245Y-14487422D01*
X-13116245Y-14211250D01*
X-12841250Y-14211250D01*
X-12841250Y-13411250D01*
X-13691250Y-13411250D01*
X-13691250Y-14211250D01*
X-13416255Y-14211250D01*
X-13416255Y-14495237D01*
X-13417821Y-14500002D01*
X-13440083Y-14511250D01*
X-13600001Y-14511250D01*
X-13659328Y-14530750D01*
X-13700000Y-14611249D01*
X-13700000Y-19600001D01*
G37*
G36*
X-13700000Y-4564391D02*
X-13680500Y-4623718D01*
X-13629605Y-4659907D01*
X-13584360Y-4663159D01*
X-13580137Y-4662490D01*
X-13572319Y-4661875D01*
X-13342268Y-4661875D01*
X-13337503Y-4663441D01*
X-13326255Y-4685703D01*
X-13326255Y-4961875D01*
X-13576250Y-4961875D01*
X-13576250Y-5811875D01*
X-13046069Y-5811875D01*
X-13046069Y8625000D01*
X-13053882Y8625615D01*
X-13134931Y8638452D01*
X-13149718Y8643256D01*
X-13219326Y8678723D01*
X-13231899Y8687858D01*
X-13287142Y8743101D01*
X-13296277Y8755674D01*
X-13331744Y8825282D01*
X-13336548Y8840069D01*
X-13349385Y8921118D01*
X-13350000Y8928931D01*
X-13350000Y9358982D01*
X-13348434Y9363747D01*
X-13333987Y9371046D01*
X-13333987Y9675005D01*
X-13338752Y9676571D01*
X-13350000Y9698833D01*
X-13350000Y10121069D01*
X-13349385Y10128882D01*
X-13336548Y10209931D01*
X-13331744Y10224718D01*
X-13296277Y10294326D01*
X-13287142Y10306899D01*
X-13231899Y10362142D01*
X-13219326Y10371277D01*
X-13149718Y10406744D01*
X-13134931Y10411548D01*
X-13053882Y10424385D01*
X-13046069Y10425000D01*
X-12616018Y10425000D01*
X-12611253Y10423434D01*
X-12600005Y10401172D01*
X-12600005Y10125000D01*
X-13050000Y10125000D01*
X-13050000Y9675005D01*
X-13333987Y9675005D01*
X-13333987Y9371046D01*
X-13326172Y9374995D01*
X-13050000Y9374995D01*
X-13050000Y8925000D01*
X-12600005Y8925000D01*
X-12600005Y8641013D01*
X-12601571Y8636248D01*
X-12623833Y8625000D01*
X-13046069Y8625000D01*
X-13046069Y-5811875D01*
X-12776250Y-5811875D01*
X-12776250Y-5536880D01*
X-12776250Y-5236870D01*
X-12776250Y-4961875D01*
X-13026245Y-4961875D01*
X-13026245Y-4677888D01*
X-13024679Y-4673123D01*
X-13002417Y-4661875D01*
X-12780181Y-4661875D01*
X-12772368Y-4662490D01*
X-12691319Y-4675327D01*
X-12676532Y-4680131D01*
X-12606928Y-4715596D01*
X-12600027Y-4720610D01*
X-12540568Y-4739705D01*
X-12482473Y-4720610D01*
X-12475572Y-4715596D01*
X-12405968Y-4680131D01*
X-12391181Y-4675327D01*
X-12310132Y-4662490D01*
X-12302319Y-4661875D01*
X-12283982Y-4661875D01*
X-12283982Y8625000D01*
X-12288747Y8626566D01*
X-12299995Y8648828D01*
X-12299995Y8925000D01*
X-11850000Y8925000D01*
X-11850000Y9374995D01*
X-11850000Y9675005D01*
X-11850000Y10125000D01*
X-12299995Y10125000D01*
X-12299995Y10408987D01*
X-12298429Y10413752D01*
X-12276167Y10425000D01*
X-11853931Y10425000D01*
X-11846118Y10424385D01*
X-11765069Y10411548D01*
X-11750282Y10406744D01*
X-11680674Y10371277D01*
X-11668101Y10362142D01*
X-11612858Y10306899D01*
X-11603723Y10294326D01*
X-11568256Y10224718D01*
X-11563452Y10209931D01*
X-11550615Y10128882D01*
X-11550000Y10121069D01*
X-11550000Y9691018D01*
X-11551566Y9686253D01*
X-11573828Y9675005D01*
X-11850000Y9675005D01*
X-11850000Y9374995D01*
X-11566013Y9374995D01*
X-11561248Y9373429D01*
X-11550000Y9351167D01*
X-11550000Y8928931D01*
X-11550615Y8921118D01*
X-11563452Y8840069D01*
X-11568256Y8825282D01*
X-11603723Y8755674D01*
X-11612858Y8743101D01*
X-11668101Y8687858D01*
X-11680674Y8678723D01*
X-11750282Y8643256D01*
X-11765069Y8638452D01*
X-11846118Y8625615D01*
X-11853931Y8625000D01*
X-12283982Y8625000D01*
X-12283982Y-4661875D01*
X-12072268Y-4661875D01*
X-12067503Y-4663441D01*
X-12056255Y-4685703D01*
X-12056255Y-4961875D01*
X-12306250Y-4961875D01*
X-12306250Y-5186870D01*
X-12392685Y-5186870D01*
X-12452012Y-5206370D01*
X-12459106Y-5216169D01*
X-12500078Y-5236870D01*
X-12776250Y-5236870D01*
X-12776250Y-5536880D01*
X-12689815Y-5536880D01*
X-12630488Y-5517380D01*
X-12623394Y-5507581D01*
X-12582422Y-5486880D01*
X-12306250Y-5486880D01*
X-12306250Y-5711875D01*
X-11506250Y-5711875D01*
X-11506250Y-5486880D01*
X-11222263Y-5486880D01*
X-11212729Y-5490014D01*
X-11176608Y-5526135D01*
X-11131513Y-5536880D01*
X-11036250Y-5536880D01*
X-11036250Y-5811875D01*
X-10236250Y-5811875D01*
X-10236250Y-4961875D01*
X-11036250Y-4961875D01*
X-11036250Y-5236870D01*
X-11320237Y-5236870D01*
X-11329771Y-5233736D01*
X-11365892Y-5197615D01*
X-11410987Y-5186870D01*
X-11506250Y-5186870D01*
X-11506250Y-4961875D01*
X-11756245Y-4961875D01*
X-11756245Y-4677888D01*
X-11754679Y-4673123D01*
X-11732417Y-4661875D01*
X-11510181Y-4661875D01*
X-11502368Y-4662490D01*
X-11421316Y-4675327D01*
X-11400649Y-4682042D01*
X-11338200Y-4681829D01*
X-11288055Y-4644607D01*
X-11270479Y-4574883D01*
X-11285521Y-4451004D01*
X-11285521Y-4438996D01*
X-11268091Y-4295446D01*
X-11265219Y-4283793D01*
X-11213940Y-4148583D01*
X-11208362Y-4137955D01*
X-11126216Y-4018945D01*
X-11118256Y-4009960D01*
X-11010020Y-3914072D01*
X-11000137Y-3907249D01*
X-10872101Y-3840051D01*
X-10860865Y-3835790D01*
X-10720476Y-3801188D01*
X-10708547Y-3799739D01*
X-10601989Y-3799739D01*
X-10542662Y-3780239D01*
X-10506473Y-3729344D01*
X-10508295Y-3664794D01*
X-10565775Y-3510684D01*
X-10567784Y-3503844D01*
X-10624646Y-3242449D01*
X-10625661Y-3235387D01*
X-10644745Y-2968565D01*
X-10644745Y-2961435D01*
X-10625661Y-2694613D01*
X-10624646Y-2687551D01*
X-10567784Y-2426156D01*
X-10565775Y-2419315D01*
X-10472291Y-2168675D01*
X-10469329Y-2162188D01*
X-10341125Y-1927402D01*
X-10337271Y-1921405D01*
X-10176959Y-1707252D01*
X-10172294Y-1701869D01*
X-9983131Y-1512706D01*
X-9977748Y-1508041D01*
X-9763595Y-1347729D01*
X-9757598Y-1343875D01*
X-9522812Y-1215671D01*
X-9516325Y-1212709D01*
X-9265685Y-1119225D01*
X-9258844Y-1117216D01*
X-8997449Y-1060354D01*
X-8990387Y-1059339D01*
X-8723565Y-1040255D01*
X-8716435Y-1040255D01*
X-8449613Y-1059339D01*
X-8442551Y-1060354D01*
X-8181156Y-1117216D01*
X-8174315Y-1119225D01*
X-7923675Y-1212709D01*
X-7917188Y-1215671D01*
X-7682402Y-1343875D01*
X-7676405Y-1347729D01*
X-7462252Y-1508041D01*
X-7456869Y-1512706D01*
X-7267706Y-1701869D01*
X-7263041Y-1707252D01*
X-7102729Y-1921405D01*
X-7098878Y-1927396D01*
X-6985721Y-2134627D01*
X-6940174Y-2177351D01*
X-6878160Y-2184722D01*
X-6823957Y-2149912D01*
X-6822705Y-2151164D01*
X-6761899Y-2090358D01*
X-6749326Y-2081223D01*
X-6679718Y-2045756D01*
X-6664931Y-2040952D01*
X-6583882Y-2028115D01*
X-6576069Y-2027500D01*
X-6196018Y-2027500D01*
X-6191253Y-2029066D01*
X-6180005Y-2051328D01*
X-6180005Y-2327500D01*
X-6580000Y-2327500D01*
X-6580000Y-3627500D01*
X-6104797Y-3627500D01*
X-6104797Y-1359636D01*
X-6116726Y-1358187D01*
X-6257115Y-1323585D01*
X-6268351Y-1319324D01*
X-6396387Y-1252126D01*
X-6406270Y-1245303D01*
X-6514504Y-1149417D01*
X-6515703Y-1148063D01*
X-6516371Y-1147762D01*
X-6519032Y-1145405D01*
X-6519767Y-1146234D01*
X-6590554Y-1114375D01*
X-6822319Y-1114375D01*
X-6830132Y-1113760D01*
X-6849574Y-1110681D01*
X-6865217Y-1109450D01*
X-6880955Y-1109450D01*
X-6896312Y-1107018D01*
X-6911278Y-1102155D01*
X-6926538Y-1098491D01*
X-6942085Y-1096029D01*
X-6956864Y-1091227D01*
X-6970896Y-1084077D01*
X-6985394Y-1078072D01*
X-7000361Y-1073209D01*
X-7014213Y-1066151D01*
X-7026943Y-1056902D01*
X-7040322Y-1048703D01*
X-7054356Y-1041552D01*
X-7066928Y-1032418D01*
X-7078064Y-1021283D01*
X-7089992Y-1011096D01*
X-7105911Y-999529D01*
X-7111870Y-994440D01*
X-7692925Y-413386D01*
X-7748664Y-385224D01*
X-7831723Y-412524D01*
X-7831731Y-412514D01*
X-7831763Y-412537D01*
X-7834345Y-413386D01*
X-7838101Y-417142D01*
X-7850674Y-426277D01*
X-7920282Y-461744D01*
X-7935069Y-466548D01*
X-8016118Y-479385D01*
X-8023931Y-480000D01*
X-9416069Y-480000D01*
X-9423882Y-479385D01*
X-9504931Y-466548D01*
X-9519718Y-461744D01*
X-9589326Y-426277D01*
X-9601899Y-417142D01*
X-9657142Y-361899D01*
X-9666277Y-349326D01*
X-9701744Y-279718D01*
X-9706549Y-264929D01*
X-9706639Y-264360D01*
X-9706897Y-263858D01*
X-9708980Y-257447D01*
X-9710017Y-257784D01*
X-9735177Y-208812D01*
X-9805407Y-180000D01*
X-10556069Y-180000D01*
X-10563882Y-179385D01*
X-10644931Y-166548D01*
X-10659718Y-161744D01*
X-10729326Y-126277D01*
X-10741899Y-117142D01*
X-10797142Y-61899D01*
X-10806277Y-49326D01*
X-10841744Y20282D01*
X-10846548Y35069D01*
X-10859385Y116118D01*
X-10860000Y123931D01*
X-10860000Y866069D01*
X-10859385Y873882D01*
X-10846548Y954931D01*
X-10841744Y969718D01*
X-10806277Y1039326D01*
X-10797142Y1051899D01*
X-10741899Y1107142D01*
X-10729326Y1116277D01*
X-10659718Y1151744D01*
X-10644931Y1156548D01*
X-10563882Y1169385D01*
X-10556069Y1170000D01*
X-10556069Y1370000D01*
X-10563882Y1370615D01*
X-10644931Y1383452D01*
X-10659718Y1388256D01*
X-10729326Y1423723D01*
X-10741899Y1432858D01*
X-10797142Y1488101D01*
X-10806277Y1500674D01*
X-10841744Y1570282D01*
X-10846548Y1585069D01*
X-10859385Y1666118D01*
X-10860000Y1673931D01*
X-10860000Y1878982D01*
X-10858434Y1883747D01*
X-10843987Y1891046D01*
X-10843987Y2195005D01*
X-10848752Y2196571D01*
X-10860000Y2218833D01*
X-10860000Y2416069D01*
X-10859385Y2423882D01*
X-10846548Y2504931D01*
X-10841744Y2519718D01*
X-10806277Y2589326D01*
X-10797142Y2601899D01*
X-10741899Y2657142D01*
X-10729326Y2666277D01*
X-10659718Y2701744D01*
X-10644931Y2706548D01*
X-10563882Y2719385D01*
X-10556069Y2720000D01*
X-10470422Y2720000D01*
X-10470422Y7609739D01*
X-10482351Y7611188D01*
X-10622740Y7645790D01*
X-10633976Y7650051D01*
X-10762012Y7717249D01*
X-10771895Y7724072D01*
X-10880131Y7819960D01*
X-10888091Y7828945D01*
X-10970237Y7947955D01*
X-10975815Y7958583D01*
X-11027094Y8093793D01*
X-11029966Y8105446D01*
X-11047396Y8248996D01*
X-11047396Y8261004D01*
X-11029966Y8404554D01*
X-11027093Y8416211D01*
X-10990131Y8513669D01*
X-10987325Y8576056D01*
X-11022080Y8627941D01*
X-11043017Y8639071D01*
X-11042705Y8639683D01*
X-11119326Y8678723D01*
X-11131899Y8687858D01*
X-11187142Y8743101D01*
X-11196277Y8755674D01*
X-11231744Y8825282D01*
X-11236548Y8840069D01*
X-11249385Y8921118D01*
X-11250000Y8928931D01*
X-11250000Y10121069D01*
X-11249385Y10128882D01*
X-11236548Y10209931D01*
X-11231744Y10224718D01*
X-11196277Y10294326D01*
X-11187142Y10306899D01*
X-11131899Y10362142D01*
X-11119326Y10371277D01*
X-11049718Y10406744D01*
X-11034931Y10411548D01*
X-10953882Y10424385D01*
X-10946069Y10425000D01*
X-9753931Y10425000D01*
X-9746118Y10424385D01*
X-9665069Y10411548D01*
X-9650282Y10406744D01*
X-9580674Y10371277D01*
X-9568101Y10362142D01*
X-9512858Y10306899D01*
X-9503723Y10294326D01*
X-9468256Y10224718D01*
X-9463452Y10209931D01*
X-9450615Y10128882D01*
X-9450000Y10121069D01*
X-9450000Y8928931D01*
X-9450615Y8921118D01*
X-9463452Y8840069D01*
X-9468256Y8825282D01*
X-9503723Y8755674D01*
X-9512858Y8743101D01*
X-9568101Y8687858D01*
X-9580674Y8678723D01*
X-9650282Y8643256D01*
X-9665068Y8638452D01*
X-9721302Y8629545D01*
X-9776848Y8601004D01*
X-9804630Y8545074D01*
X-9799159Y8495317D01*
X-9769156Y8416207D01*
X-9766284Y8404554D01*
X-9748854Y8261004D01*
X-9748854Y8248996D01*
X-9766284Y8105446D01*
X-9769156Y8093793D01*
X-9820435Y7958583D01*
X-9826013Y7947955D01*
X-9908159Y7828945D01*
X-9916119Y7819960D01*
X-10024355Y7724072D01*
X-10034238Y7717249D01*
X-10162274Y7650051D01*
X-10173510Y7645790D01*
X-10313899Y7611188D01*
X-10325828Y7609739D01*
X-10470422Y7609739D01*
X-10470422Y2720000D01*
X-10326018Y2720000D01*
X-10321253Y2718434D01*
X-10310005Y2696172D01*
X-10310005Y2420000D01*
X-10560000Y2420000D01*
X-10560000Y2195005D01*
X-10843987Y2195005D01*
X-10843987Y1891046D01*
X-10836172Y1894995D01*
X-10560000Y1894995D01*
X-10560000Y1670000D01*
X-10310005Y1670000D01*
X-10310005Y1386013D01*
X-10311571Y1381248D01*
X-10333833Y1370000D01*
X-10556069Y1370000D01*
X-10556069Y1170000D01*
X-9993982Y1170000D01*
X-9993982Y1370000D01*
X-9998747Y1371566D01*
X-10009995Y1393828D01*
X-10009995Y1670000D01*
X-9760000Y1670000D01*
X-9760000Y2420000D01*
X-10009995Y2420000D01*
X-10009995Y2703987D01*
X-10008429Y2708752D01*
X-9986167Y2720000D01*
X-9805407Y2720000D01*
X-9746080Y2739500D01*
X-9710535Y2797952D01*
X-9708980Y2797447D01*
X-9706843Y2804025D01*
X-9706639Y2804360D01*
X-9706549Y2804929D01*
X-9701744Y2819718D01*
X-9666277Y2889326D01*
X-9657142Y2901899D01*
X-9601899Y2957142D01*
X-9589326Y2966277D01*
X-9519718Y3001744D01*
X-9504931Y3006548D01*
X-9423882Y3019385D01*
X-9416069Y3020000D01*
X-8886018Y3020000D01*
X-8881253Y3018434D01*
X-8870005Y2996172D01*
X-8870005Y2720000D01*
X-9420000Y2720000D01*
X-9420000Y1720000D01*
X-8870005Y1720000D01*
X-8870005Y1436013D01*
X-8871571Y1431248D01*
X-8893833Y1420000D01*
X-9416069Y1420000D01*
X-9423882Y1420615D01*
X-9504934Y1433452D01*
X-9506469Y1433951D01*
X-9507277Y1433823D01*
X-9512705Y1434683D01*
X-9512984Y1432921D01*
X-9581047Y1422158D01*
X-9583664Y1427295D01*
X-9660282Y1388256D01*
X-9675069Y1383452D01*
X-9756118Y1370615D01*
X-9763931Y1370000D01*
X-9993982Y1370000D01*
X-9993982Y1170000D01*
X-9763931Y1170000D01*
X-9756118Y1169385D01*
X-9675069Y1156548D01*
X-9660282Y1151744D01*
X-9583664Y1112705D01*
X-9581047Y1117842D01*
X-9512984Y1107079D01*
X-9512705Y1105317D01*
X-9507277Y1106177D01*
X-9506469Y1106049D01*
X-9504934Y1106548D01*
X-9423882Y1119385D01*
X-9416069Y1120000D01*
X-8553982Y1120000D01*
X-8553982Y1420000D01*
X-8558747Y1421566D01*
X-8569995Y1443828D01*
X-8569995Y1720000D01*
X-8020000Y1720000D01*
X-8020000Y2069995D01*
X-8020000Y2370005D01*
X-8020000Y2720000D01*
X-8569995Y2720000D01*
X-8569995Y3003987D01*
X-8568429Y3008752D01*
X-8546167Y3020000D01*
X-8023931Y3020000D01*
X-8016118Y3019385D01*
X-7935069Y3006548D01*
X-7920282Y3001744D01*
X-7850674Y2966277D01*
X-7838101Y2957142D01*
X-7782858Y2901899D01*
X-7773723Y2889326D01*
X-7738256Y2819718D01*
X-7733452Y2804931D01*
X-7720615Y2723882D01*
X-7720000Y2716069D01*
X-7720000Y2386018D01*
X-7721566Y2381253D01*
X-7743828Y2370005D01*
X-8020000Y2370005D01*
X-8020000Y2069995D01*
X-7736013Y2069995D01*
X-7731248Y2068429D01*
X-7720000Y2046167D01*
X-7720000Y1723931D01*
X-7720615Y1716118D01*
X-7733452Y1635069D01*
X-7738256Y1620282D01*
X-7773723Y1550674D01*
X-7782858Y1538101D01*
X-7838101Y1482858D01*
X-7850674Y1473723D01*
X-7920282Y1438256D01*
X-7935069Y1433452D01*
X-8016118Y1420615D01*
X-8023931Y1420000D01*
X-8553982Y1420000D01*
X-8553982Y1120000D01*
X-8023931Y1120000D01*
X-8016118Y1119385D01*
X-7935069Y1106548D01*
X-7920282Y1101744D01*
X-7850674Y1066277D01*
X-7838101Y1057142D01*
X-7782858Y1001899D01*
X-7773723Y989326D01*
X-7738256Y919718D01*
X-7733452Y904931D01*
X-7720615Y823882D01*
X-7720000Y816069D01*
X-7720000Y755951D01*
X-7700500Y696624D01*
X-7665400Y666851D01*
X-7664246Y666263D01*
X-7602532Y656704D01*
X-7547182Y685622D01*
X-7519156Y763209D01*
X-7520000Y773933D01*
X-7520000Y1766069D01*
X-7519385Y1773882D01*
X-7506548Y1854931D01*
X-7501744Y1869718D01*
X-7466277Y1939326D01*
X-7457142Y1951899D01*
X-7401899Y2007142D01*
X-7389326Y2016277D01*
X-7319718Y2051744D01*
X-7304931Y2056548D01*
X-7223882Y2069385D01*
X-7216069Y2070000D01*
X-6659697Y2070000D01*
X-6659697Y3603972D01*
X-6721388Y3609369D01*
X-6729960Y3610880D01*
X-6940418Y3667272D01*
X-6948577Y3670243D01*
X-7146040Y3762320D01*
X-7153581Y3766674D01*
X-7332049Y3891638D01*
X-7338709Y3897227D01*
X-7492773Y4051291D01*
X-7498362Y4057951D01*
X-7623326Y4236419D01*
X-7627680Y4243960D01*
X-7719757Y4441423D01*
X-7722728Y4449582D01*
X-7779120Y4660038D01*
X-7780631Y4668613D01*
X-7799808Y4887809D01*
X-7800000Y4892194D01*
X-7800000Y5773982D01*
X-7798434Y5778747D01*
X-7783987Y5786046D01*
X-7783987Y6090005D01*
X-7788752Y6091571D01*
X-7800000Y6113833D01*
X-7800000Y6987806D01*
X-7799808Y6992191D01*
X-7780631Y7211387D01*
X-7779120Y7219962D01*
X-7722728Y7430418D01*
X-7719757Y7438577D01*
X-7627680Y7636040D01*
X-7623326Y7643581D01*
X-7498362Y7822049D01*
X-7492773Y7828709D01*
X-7338709Y7982773D01*
X-7332049Y7988362D01*
X-7153581Y8113326D01*
X-7146040Y8117680D01*
X-6948577Y8209757D01*
X-6940418Y8212728D01*
X-6729960Y8269120D01*
X-6721388Y8270631D01*
X-6665958Y8275480D01*
X-6652746Y8272383D01*
X-6650519Y8269768D01*
X-6650005Y8267150D01*
X-6650005Y7975226D01*
X-6695090Y7970785D01*
X-6882683Y7913880D01*
X-7055570Y7821470D01*
X-7207107Y7697107D01*
X-7331470Y7545570D01*
X-7423880Y7372683D01*
X-7480785Y7185090D01*
X-7500000Y6990000D01*
X-7500000Y6090005D01*
X-7783987Y6090005D01*
X-7783987Y5786046D01*
X-7776172Y5789995D01*
X-7500000Y5789995D01*
X-7500000Y4890000D01*
X-7480785Y4694910D01*
X-7423880Y4507317D01*
X-7331470Y4334430D01*
X-7207107Y4182893D01*
X-7055570Y4058530D01*
X-6882683Y3966120D01*
X-6695090Y3909215D01*
X-6650005Y3904774D01*
X-6650005Y3619137D01*
X-6654242Y3606247D01*
X-6657042Y3604256D01*
X-6659697Y3603972D01*
X-6659697Y2070000D01*
X-6334042Y2070000D01*
X-6334042Y3604520D01*
X-6347254Y3607617D01*
X-6349481Y3610232D01*
X-6349995Y3612850D01*
X-6349995Y3904774D01*
X-6304910Y3909215D01*
X-6117317Y3966120D01*
X-5944430Y4058530D01*
X-5792893Y4182893D01*
X-5668530Y4334430D01*
X-5576120Y4507317D01*
X-5519215Y4694910D01*
X-5500000Y4890000D01*
X-5500000Y5789995D01*
X-5500000Y6090005D01*
X-5500000Y6990000D01*
X-5519215Y7185090D01*
X-5576120Y7372683D01*
X-5668530Y7545570D01*
X-5792893Y7697107D01*
X-5944430Y7821470D01*
X-6117317Y7913880D01*
X-6304910Y7970785D01*
X-6349995Y7975226D01*
X-6349995Y8260863D01*
X-6345758Y8273753D01*
X-6342958Y8275744D01*
X-6340303Y8276028D01*
X-6278612Y8270631D01*
X-6270040Y8269120D01*
X-6059582Y8212728D01*
X-6051423Y8209757D01*
X-5853960Y8117680D01*
X-5846419Y8113326D01*
X-5667951Y7988362D01*
X-5661291Y7982773D01*
X-5507227Y7828709D01*
X-5501638Y7822049D01*
X-5376674Y7643581D01*
X-5372320Y7636040D01*
X-5280243Y7438577D01*
X-5277272Y7430418D01*
X-5220880Y7219962D01*
X-5219369Y7211387D01*
X-5200192Y6992191D01*
X-5200000Y6987806D01*
X-5200000Y6106018D01*
X-5201566Y6101253D01*
X-5223828Y6090005D01*
X-5500000Y6090005D01*
X-5500000Y5789995D01*
X-5216013Y5789995D01*
X-5211248Y5788429D01*
X-5200000Y5766167D01*
X-5200000Y4892194D01*
X-5200192Y4887809D01*
X-5219369Y4668613D01*
X-5220880Y4660038D01*
X-5277272Y4449582D01*
X-5280243Y4441423D01*
X-5372320Y4243960D01*
X-5376674Y4236419D01*
X-5501638Y4057951D01*
X-5507227Y4051291D01*
X-5661291Y3897227D01*
X-5667951Y3891638D01*
X-5846419Y3766674D01*
X-5853960Y3762320D01*
X-6051423Y3670243D01*
X-6059582Y3667272D01*
X-6270040Y3610880D01*
X-6278612Y3609369D01*
X-6334042Y3604520D01*
X-6334042Y2070000D01*
X-5823931Y2070000D01*
X-5816118Y2069385D01*
X-5735069Y2056548D01*
X-5720282Y2051744D01*
X-5650674Y2016277D01*
X-5638101Y2007142D01*
X-5582858Y1951899D01*
X-5573723Y1939326D01*
X-5538256Y1869718D01*
X-5533452Y1854931D01*
X-5520615Y1773882D01*
X-5520000Y1766069D01*
X-5520000Y1674334D01*
X-5479926Y1594279D01*
X-5474665Y1590341D01*
X-5469272Y1585668D01*
X-4912893Y1029289D01*
X-4842183Y1000000D01*
X-3823931Y1000000D01*
X-3816118Y999385D01*
X-3735069Y986548D01*
X-3720282Y981744D01*
X-3650674Y946277D01*
X-3638101Y937142D01*
X-3582858Y881899D01*
X-3573723Y869326D01*
X-3538256Y799718D01*
X-3533452Y784931D01*
X-3520615Y703882D01*
X-3520000Y696069D01*
X-3520000Y-696069D01*
X-3520615Y-703882D01*
X-3533452Y-784931D01*
X-3538256Y-799718D01*
X-3573723Y-869326D01*
X-3582858Y-881899D01*
X-3638101Y-937142D01*
X-3650674Y-946277D01*
X-3720282Y-981744D01*
X-3735069Y-986548D01*
X-3816118Y-999385D01*
X-3823931Y-1000000D01*
X-5216069Y-1000000D01*
X-5223882Y-999385D01*
X-5304931Y-986548D01*
X-5319719Y-981743D01*
X-5326245Y-978418D01*
X-5387958Y-968856D01*
X-5455354Y-1017550D01*
X-5456954Y-1016445D01*
X-5460067Y-1020955D01*
X-5460190Y-1021044D01*
X-5460385Y-1021416D01*
X-5542534Y-1140430D01*
X-5550494Y-1149415D01*
X-5658730Y-1245303D01*
X-5668613Y-1252126D01*
X-5796649Y-1319324D01*
X-5807885Y-1323585D01*
X-5948274Y-1358187D01*
X-5960203Y-1359636D01*
X-6104797Y-1359636D01*
X-6104797Y-3627500D01*
X-5480000Y-3627500D01*
X-5480000Y-3127505D01*
X-5480000Y-2827495D01*
X-5480000Y-2327500D01*
X-5879995Y-2327500D01*
X-5879995Y-2043513D01*
X-5878429Y-2038748D01*
X-5856167Y-2027500D01*
X-5483931Y-2027500D01*
X-5476118Y-2028115D01*
X-5395069Y-2040952D01*
X-5380282Y-2045756D01*
X-5310674Y-2081223D01*
X-5298101Y-2090358D01*
X-5242858Y-2145601D01*
X-5233723Y-2158174D01*
X-5198256Y-2227782D01*
X-5193452Y-2242569D01*
X-5180615Y-2323618D01*
X-5180000Y-2331431D01*
X-5180000Y-2811482D01*
X-5181566Y-2816247D01*
X-5203828Y-2827495D01*
X-5480000Y-2827495D01*
X-5480000Y-3127505D01*
X-5196013Y-3127505D01*
X-5191248Y-3129071D01*
X-5179923Y-3151486D01*
X-5160500Y-3210578D01*
X-5080001Y-3251250D01*
X-5079999Y-3251250D01*
X-5020672Y-3231750D01*
X-4980000Y-3151251D01*
X-4980000Y-2331431D01*
X-4979385Y-2323618D01*
X-4966548Y-2242569D01*
X-4961744Y-2227782D01*
X-4926277Y-2158174D01*
X-4917142Y-2145601D01*
X-4861899Y-2090358D01*
X-4849326Y-2081223D01*
X-4779718Y-2045756D01*
X-4764931Y-2040952D01*
X-4683882Y-2028115D01*
X-4676069Y-2027500D01*
X-3583931Y-2027500D01*
X-3576118Y-2028115D01*
X-3495069Y-2040952D01*
X-3480282Y-2045756D01*
X-3410674Y-2081223D01*
X-3398101Y-2090358D01*
X-3342858Y-2145601D01*
X-3333723Y-2158174D01*
X-3298256Y-2227782D01*
X-3293452Y-2242569D01*
X-3280615Y-2323618D01*
X-3280000Y-2331431D01*
X-3280000Y-2477501D01*
X-3260500Y-2536828D01*
X-3180001Y-2577500D01*
X-2254556Y-2577500D01*
X-2246741Y-2578115D01*
X-2227306Y-2581193D01*
X-2211664Y-2582424D01*
X-2195920Y-2582424D01*
X-2180563Y-2584856D01*
X-2165590Y-2589721D01*
X-2150334Y-2593384D01*
X-2134790Y-2595846D01*
X-2120004Y-2600651D01*
X-2105987Y-2607793D01*
X-2091489Y-2613799D01*
X-2076513Y-2618665D01*
X-2062661Y-2625723D01*
X-2049927Y-2634975D01*
X-2036547Y-2643175D01*
X-2022519Y-2650323D01*
X-2009948Y-2659456D01*
X-1998814Y-2670590D01*
X-1986883Y-2680780D01*
X-1984894Y-2682225D01*
X-1984894Y-999518D01*
X-2170197Y-981267D01*
X-2179794Y-979358D01*
X-2357977Y-925308D01*
X-2367021Y-921561D01*
X-2531236Y-833787D01*
X-2539368Y-828353D01*
X-2683309Y-710224D01*
X-2690224Y-703309D01*
X-2808353Y-559368D01*
X-2813787Y-551236D01*
X-2901561Y-387021D01*
X-2905308Y-377977D01*
X-2959358Y-199794D01*
X-2961267Y-190197D01*
X-2979518Y-4894D01*
X-2979518Y4894D01*
X-2961267Y190197D01*
X-2959358Y199794D01*
X-2905308Y377977D01*
X-2901561Y387021D01*
X-2813787Y551236D01*
X-2808353Y559368D01*
X-2690224Y703309D01*
X-2683309Y710224D01*
X-2539368Y828353D01*
X-2531236Y833787D01*
X-2482860Y859644D01*
X-2439730Y904808D01*
X-2430000Y947835D01*
X-2430000Y1756451D01*
X-2449500Y1815778D01*
X-2499096Y1851555D01*
X-2519715Y1858255D01*
X-2589326Y1893723D01*
X-2601899Y1902858D01*
X-2657142Y1958101D01*
X-2666277Y1970674D01*
X-2701744Y2040282D01*
X-2706548Y2055069D01*
X-2719385Y2136118D01*
X-2720000Y2143931D01*
X-2720000Y2936069D01*
X-2719385Y2943882D01*
X-2706548Y3024931D01*
X-2701744Y3039718D01*
X-2666277Y3109326D01*
X-2657142Y3121899D01*
X-2601899Y3177142D01*
X-2589326Y3186277D01*
X-2519718Y3221744D01*
X-2504931Y3226548D01*
X-2423882Y3239385D01*
X-2416069Y3240000D01*
X-1673931Y3240000D01*
X-1666118Y3239385D01*
X-1585069Y3226548D01*
X-1570282Y3221744D01*
X-1500674Y3186277D01*
X-1488101Y3177142D01*
X-1432858Y3121899D01*
X-1423723Y3109326D01*
X-1388256Y3039718D01*
X-1383452Y3024931D01*
X-1370615Y2943882D01*
X-1370000Y2936069D01*
X-1370000Y2143931D01*
X-1370615Y2136118D01*
X-1383452Y2055069D01*
X-1388256Y2040282D01*
X-1423723Y1970674D01*
X-1432858Y1958101D01*
X-1488099Y1902860D01*
X-1488779Y1902366D01*
X-1488972Y1901987D01*
X-1493664Y1897295D01*
X-1492140Y1895771D01*
X-1530000Y1821465D01*
X-1530000Y947835D01*
X-1510500Y888508D01*
X-1477140Y859644D01*
X-1428764Y833787D01*
X-1420632Y828353D01*
X-1276691Y710224D01*
X-1269776Y703309D01*
X-1151647Y559368D01*
X-1146213Y551236D01*
X-1058439Y387021D01*
X-1054692Y377977D01*
X-1000642Y199794D01*
X-998733Y190197D01*
X-980482Y4894D01*
X-980482Y-4894D01*
X-998733Y-190197D01*
X-1000642Y-199794D01*
X-1054692Y-377977D01*
X-1058439Y-387021D01*
X-1146213Y-551236D01*
X-1151647Y-559368D01*
X-1269776Y-703309D01*
X-1276691Y-710224D01*
X-1420632Y-828353D01*
X-1428764Y-833787D01*
X-1592979Y-921561D01*
X-1602023Y-925308D01*
X-1780206Y-979358D01*
X-1789803Y-981267D01*
X-1975106Y-999518D01*
X-1984894Y-999518D01*
X-1984894Y-2682225D01*
X-1970961Y-2692348D01*
X-1965004Y-2697436D01*
X-1696729Y-2965711D01*
X-1626019Y-2995000D01*
X-1112056Y-2995000D01*
X-1104243Y-2995615D01*
X-1023194Y-3008452D01*
X-1008407Y-3013256D01*
X-938799Y-3048723D01*
X-926226Y-3057858D01*
X-870983Y-3113101D01*
X-861848Y-3125674D01*
X-826381Y-3195282D01*
X-821577Y-3210069D01*
X-808740Y-3291118D01*
X-808125Y-3298931D01*
X-808125Y-4141069D01*
X-808740Y-4148882D01*
X-821577Y-4229931D01*
X-826381Y-4244718D01*
X-861848Y-4314326D01*
X-870983Y-4326899D01*
X-918374Y-4374290D01*
X-946536Y-4430029D01*
X-918374Y-4515710D01*
X-870983Y-4563101D01*
X-861848Y-4575674D01*
X-826381Y-4645282D01*
X-821577Y-4660069D01*
X-808740Y-4741118D01*
X-808125Y-4748931D01*
X-808125Y-5003982D01*
X-809691Y-5008747D01*
X-831953Y-5019995D01*
X-1108125Y-5019995D01*
X-1108125Y-4745000D01*
X-1908125Y-4745000D01*
X-1908125Y-5595000D01*
X-1108125Y-5595000D01*
X-1108125Y-5320005D01*
X-824138Y-5320005D01*
X-819373Y-5321571D01*
X-808125Y-5343833D01*
X-808125Y-5591069D01*
X-808740Y-5598882D01*
X-821577Y-5679931D01*
X-826381Y-5694718D01*
X-861848Y-5764326D01*
X-870983Y-5776899D01*
X-926226Y-5832142D01*
X-938799Y-5841277D01*
X-1008407Y-5876744D01*
X-1023194Y-5881548D01*
X-1104243Y-5894385D01*
X-1112056Y-5895000D01*
X-1341123Y-5895000D01*
X-1400450Y-5914500D01*
X-1436639Y-5965395D01*
X-1434828Y-6023820D01*
X-1436230Y-6024166D01*
X-1431909Y-6041696D01*
X-1414479Y-6185246D01*
X-1414479Y-6197254D01*
X-1431909Y-6340804D01*
X-1434781Y-6352457D01*
X-1486060Y-6487667D01*
X-1491638Y-6498295D01*
X-1573784Y-6617305D01*
X-1581748Y-6626294D01*
X-1691312Y-6723359D01*
X-1725000Y-6798209D01*
X-1725000Y-7381069D01*
X-1725615Y-7388884D01*
X-1733609Y-7439359D01*
X-1723629Y-7501006D01*
X-1679022Y-7544711D01*
X-1634841Y-7555000D01*
X-959556Y-7555000D01*
X-951743Y-7555615D01*
X-870694Y-7568452D01*
X-855907Y-7573256D01*
X-786299Y-7608723D01*
X-773726Y-7617858D01*
X-718483Y-7673101D01*
X-709348Y-7685674D01*
X-673881Y-7755282D01*
X-669077Y-7770069D01*
X-656240Y-7851118D01*
X-655625Y-7858931D01*
X-655625Y-8574127D01*
X-636125Y-8633454D01*
X-600347Y-8663569D01*
X-600345Y-8663570D01*
X-538560Y-8672660D01*
X-483431Y-8643323D01*
X-455625Y-8574128D01*
X-455625Y-7858931D01*
X-455010Y-7851118D01*
X-442173Y-7770069D01*
X-437370Y-7755285D01*
X-423993Y-7729032D01*
X-423993Y-7638234D01*
X-443620Y-7599715D01*
X-448423Y-7584931D01*
X-461260Y-7503882D01*
X-461875Y-7496069D01*
X-461875Y-7241018D01*
X-460309Y-7236253D01*
X-438047Y-7225005D01*
X-161875Y-7225005D01*
X-161875Y-7500000D01*
X638125Y-7500000D01*
X638125Y-6650000D01*
X-161875Y-6650000D01*
X-161875Y-6924995D01*
X-445862Y-6924995D01*
X-450627Y-6923429D01*
X-461875Y-6901167D01*
X-461875Y-6653931D01*
X-461260Y-6646118D01*
X-448423Y-6565069D01*
X-443619Y-6550282D01*
X-408152Y-6480674D01*
X-399017Y-6468101D01*
X-351626Y-6420710D01*
X-323464Y-6364971D01*
X-351626Y-6279290D01*
X-399017Y-6231899D01*
X-408152Y-6219326D01*
X-443619Y-6149718D01*
X-448423Y-6134931D01*
X-461260Y-6053882D01*
X-461875Y-6046069D01*
X-461875Y-5203931D01*
X-461260Y-5196118D01*
X-448423Y-5115069D01*
X-443619Y-5100282D01*
X-408152Y-5030674D01*
X-399017Y-5018101D01*
X-343774Y-4962858D01*
X-324832Y-4949096D01*
X-326284Y-4947097D01*
X-290563Y-4911135D01*
X-286467Y-4830880D01*
X-311469Y-4764956D01*
X-314341Y-4753304D01*
X-331771Y-4609754D01*
X-331771Y-4597746D01*
X-314341Y-4454196D01*
X-311469Y-4442543D01*
X-260190Y-4307333D01*
X-254612Y-4296705D01*
X-172466Y-4177695D01*
X-164506Y-4168710D01*
X-56270Y-4072822D01*
X-46387Y-4065999D01*
X81649Y-3998801D01*
X92885Y-3994540D01*
X233274Y-3959938D01*
X245203Y-3958489D01*
X389797Y-3958489D01*
X401726Y-3959938D01*
X542115Y-3994540D01*
X553351Y-3998801D01*
X681387Y-4065999D01*
X691270Y-4072822D01*
X799506Y-4168710D01*
X807466Y-4177695D01*
X889612Y-4296705D01*
X895190Y-4307333D01*
X946469Y-4442543D01*
X949341Y-4454196D01*
X966771Y-4597746D01*
X966771Y-4609754D01*
X949341Y-4753304D01*
X946469Y-4764957D01*
X895189Y-4900169D01*
X889612Y-4910795D01*
X884872Y-4917662D01*
X867219Y-4977565D01*
X882670Y-5022726D01*
X880830Y-5023664D01*
X919869Y-5100282D01*
X924673Y-5115069D01*
X937510Y-5196117D01*
X938293Y-5206066D01*
X979193Y-5279112D01*
X983812Y-5282469D01*
X997206Y-5290677D01*
X1011223Y-5297819D01*
X1023805Y-5306960D01*
X1034933Y-5318088D01*
X1046865Y-5328279D01*
X1062792Y-5339850D01*
X1068745Y-5344935D01*
X1311940Y-5588130D01*
X1317025Y-5594084D01*
X1328594Y-5610007D01*
X1338785Y-5621939D01*
X1349915Y-5633069D01*
X1359056Y-5645651D01*
X1366199Y-5659670D01*
X1374399Y-5673053D01*
X1383654Y-5685790D01*
X1390709Y-5699637D01*
X1395573Y-5714607D01*
X1401578Y-5729105D01*
X1408728Y-5743137D01*
X1413529Y-5757912D01*
X1415993Y-5773472D01*
X1419656Y-5788730D01*
X1424517Y-5803691D01*
X1426949Y-5819046D01*
X1426949Y-5834777D01*
X1428180Y-5850420D01*
X1431260Y-5869868D01*
X1431875Y-5877681D01*
X1431875Y-6545001D01*
X1451375Y-6604328D01*
X1531874Y-6645000D01*
X2019194Y-6645000D01*
X2027007Y-6645615D01*
X2123510Y-6660899D01*
X2138291Y-6665702D01*
X2221840Y-6708272D01*
X2234414Y-6717408D01*
X2300717Y-6783711D01*
X2309853Y-6796285D01*
X2352423Y-6879834D01*
X2357226Y-6894615D01*
X2372510Y-6991118D01*
X2373125Y-6998931D01*
X2373125Y-7091069D01*
X2372510Y-7098882D01*
X2357226Y-7195385D01*
X2352423Y-7210166D01*
X2332330Y-7249601D01*
X2332330Y-7340399D01*
X2352423Y-7379834D01*
X2353926Y-7384461D01*
X2352613Y-7392574D01*
X2351497Y-7393667D01*
X2345797Y-7394995D01*
X2219809Y-7394995D01*
X2174410Y-7405894D01*
X2138291Y-7424298D01*
X2123507Y-7429101D01*
X2027007Y-7444385D01*
X2019194Y-7445000D01*
X1095806Y-7445000D01*
X1087993Y-7444385D01*
X1068545Y-7441305D01*
X1052902Y-7440074D01*
X1033024Y-7440074D01*
X973697Y-7459574D01*
X934257Y-7524427D01*
X931340Y-7542841D01*
X941317Y-7604489D01*
X985923Y-7648195D01*
X1045750Y-7657255D01*
X1119243Y-7645615D01*
X1123125Y-7645309D01*
X1127056Y-7645000D01*
X2643568Y-7645000D01*
X2651383Y-7645615D01*
X2670818Y-7648693D01*
X2686460Y-7649924D01*
X2702205Y-7649924D01*
X2717560Y-7652356D01*
X2732533Y-7657221D01*
X2747790Y-7660884D01*
X2763337Y-7663347D01*
X2778112Y-7668147D01*
X2792142Y-7675296D01*
X2806640Y-7681301D01*
X2821614Y-7686166D01*
X2835464Y-7693223D01*
X2848202Y-7702478D01*
X2861581Y-7710676D01*
X2875600Y-7717819D01*
X2888176Y-7726956D01*
X2899307Y-7738087D01*
X2911236Y-7748276D01*
X2914345Y-7750535D01*
X2973803Y-7769633D01*
X3032997Y-7749732D01*
X3073125Y-7669636D01*
X3073125Y-4698931D01*
X3073740Y-4691118D01*
X3089024Y-4594615D01*
X3093827Y-4579834D01*
X3136397Y-4496285D01*
X3145533Y-4483711D01*
X3211836Y-4417408D01*
X3224410Y-4408272D01*
X3307959Y-4365702D01*
X3322740Y-4360899D01*
X3399726Y-4348706D01*
X3455272Y-4320165D01*
X3483055Y-4264236D01*
X3454793Y-4179228D01*
X1371729Y-2096164D01*
X1301019Y-2066875D01*
X3931Y-2066875D01*
X-3882Y-2066260D01*
X-23330Y-2063180D01*
X-38973Y-2061949D01*
X-54705Y-2061949D01*
X-70060Y-2059517D01*
X-85021Y-2054656D01*
X-100279Y-2050993D01*
X-115833Y-2048530D01*
X-130616Y-2043726D01*
X-144645Y-2036577D01*
X-159146Y-2030571D01*
X-174112Y-2025708D01*
X-187965Y-2018650D01*
X-200695Y-2009401D01*
X-214074Y-2001202D01*
X-228106Y-1994052D01*
X-240677Y-1984919D01*
X-251811Y-1973785D01*
X-263743Y-1963594D01*
X-279666Y-1952025D01*
X-285620Y-1946940D01*
X-367385Y-1865175D01*
X-438095Y-1835886D01*
X-548547Y-1835886D01*
X-560476Y-1834437D01*
X-700865Y-1799835D01*
X-712101Y-1795574D01*
X-840137Y-1728376D01*
X-850020Y-1721553D01*
X-958256Y-1625665D01*
X-966216Y-1616680D01*
X-1048362Y-1497670D01*
X-1053940Y-1487042D01*
X-1105219Y-1351832D01*
X-1108091Y-1340179D01*
X-1125521Y-1196629D01*
X-1125521Y-1184621D01*
X-1108091Y-1041071D01*
X-1105219Y-1029418D01*
X-1053940Y-894208D01*
X-1048362Y-883580D01*
X-966216Y-764570D01*
X-958256Y-755585D01*
X-850020Y-659697D01*
X-840137Y-652874D01*
X-712101Y-585676D01*
X-700865Y-581415D01*
X-560476Y-546813D01*
X-548547Y-545364D01*
X-403953Y-545364D01*
X-392024Y-546813D01*
X-251635Y-581415D01*
X-240399Y-585676D01*
X-112363Y-652874D01*
X-102480Y-659697D01*
X-72297Y-686436D01*
X-72297Y942239D01*
X-84226Y943688D01*
X-224615Y978290D01*
X-235851Y982551D01*
X-363887Y1049749D01*
X-373770Y1056572D01*
X-482006Y1152460D01*
X-489966Y1161445D01*
X-572112Y1280455D01*
X-577690Y1291083D01*
X-628969Y1426293D01*
X-631841Y1437946D01*
X-649271Y1581496D01*
X-649271Y1593504D01*
X-632946Y1727947D01*
X-645153Y1789192D01*
X-691314Y1831252D01*
X-732216Y1840000D01*
X-866069Y1840000D01*
X-873882Y1840615D01*
X-954931Y1853452D01*
X-969718Y1858256D01*
X-1039326Y1893723D01*
X-1051899Y1902858D01*
X-1107142Y1958101D01*
X-1116277Y1970674D01*
X-1151744Y2040282D01*
X-1156548Y2055069D01*
X-1169385Y2136118D01*
X-1170000Y2143931D01*
X-1170000Y2936069D01*
X-1169385Y2943882D01*
X-1156548Y3024931D01*
X-1151744Y3039718D01*
X-1116277Y3109326D01*
X-1107142Y3121899D01*
X-1051899Y3177142D01*
X-1039326Y3186277D01*
X-969718Y3221744D01*
X-954931Y3226548D01*
X-873882Y3239385D01*
X-866069Y3240000D01*
X-204355Y3240000D01*
X-204355Y3590381D01*
X-421387Y3609369D01*
X-429962Y3610880D01*
X-640418Y3667272D01*
X-648577Y3670243D01*
X-846040Y3762320D01*
X-853581Y3766674D01*
X-1032049Y3891638D01*
X-1038709Y3897227D01*
X-1192773Y4051291D01*
X-1198362Y4057951D01*
X-1323326Y4236419D01*
X-1327680Y4243960D01*
X-1419757Y4441423D01*
X-1422728Y4449582D01*
X-1479120Y4660038D01*
X-1480631Y4668613D01*
X-1499808Y4887809D01*
X-1500000Y4892194D01*
X-1500000Y6987806D01*
X-1499808Y6992191D01*
X-1480631Y7211387D01*
X-1479120Y7219962D01*
X-1422728Y7430418D01*
X-1419757Y7438577D01*
X-1327680Y7636040D01*
X-1323326Y7643581D01*
X-1198362Y7822049D01*
X-1192773Y7828709D01*
X-1038709Y7982773D01*
X-1032049Y7988362D01*
X-853581Y8113326D01*
X-846040Y8117680D01*
X-648577Y8209757D01*
X-640418Y8212728D01*
X-429962Y8269120D01*
X-421387Y8270631D01*
X-204355Y8289619D01*
X-195645Y8289619D01*
X21387Y8270631D01*
X29962Y8269120D01*
X240418Y8212728D01*
X248577Y8209757D01*
X446040Y8117680D01*
X453581Y8113326D01*
X632049Y7988362D01*
X638709Y7982773D01*
X792773Y7828709D01*
X798362Y7822049D01*
X923326Y7643581D01*
X927680Y7636040D01*
X1019757Y7438577D01*
X1022728Y7430418D01*
X1079120Y7219962D01*
X1080631Y7211386D01*
X1095513Y7041284D01*
X1120109Y6983882D01*
X1195131Y6950000D01*
X1799472Y6950000D01*
X1805504Y6949635D01*
X1940088Y6933294D01*
X1951741Y6930422D01*
X2081334Y6881274D01*
X2081632Y6882061D01*
X2103315Y6874871D01*
X2187432Y6861548D01*
X2202218Y6856744D01*
X2271826Y6821277D01*
X2284399Y6812142D01*
X2339642Y6756899D01*
X2348777Y6744326D01*
X2384244Y6674718D01*
X2389048Y6659931D01*
X2401885Y6578882D01*
X2402500Y6571069D01*
X2402500Y6128931D01*
X2401885Y6121118D01*
X2389048Y6040069D01*
X2384244Y6025282D01*
X2348777Y5955674D01*
X2339642Y5943101D01*
X2284399Y5887858D01*
X2271826Y5878723D01*
X2202218Y5843256D01*
X2187432Y5838452D01*
X2103315Y5825129D01*
X2081632Y5817939D01*
X2081334Y5818726D01*
X1951741Y5769578D01*
X1940088Y5766706D01*
X1805504Y5750365D01*
X1799472Y5750000D01*
X1199999Y5750000D01*
X1140672Y5730500D01*
X1100000Y5650001D01*
X1100000Y4892194D01*
X1099808Y4887809D01*
X1080631Y4668613D01*
X1079120Y4660038D01*
X1022728Y4449582D01*
X1019757Y4441423D01*
X927680Y4243960D01*
X923326Y4236419D01*
X798362Y4057951D01*
X792773Y4051291D01*
X638709Y3897227D01*
X632049Y3891638D01*
X453581Y3766674D01*
X446040Y3762320D01*
X248577Y3670243D01*
X240418Y3667272D01*
X29962Y3610880D01*
X21387Y3609369D01*
X-195645Y3590381D01*
X-204355Y3590381D01*
X-204355Y3240000D01*
X-123931Y3240000D01*
X-116118Y3239385D01*
X-35071Y3226549D01*
X-30902Y3225194D01*
X30902Y3225194D01*
X35071Y3226549D01*
X116118Y3239385D01*
X123931Y3240000D01*
X866069Y3240000D01*
X873882Y3239385D01*
X954931Y3226548D01*
X969718Y3221744D01*
X1039326Y3186277D01*
X1051899Y3177142D01*
X1107142Y3121899D01*
X1116277Y3109326D01*
X1151744Y3039718D01*
X1156548Y3024931D01*
X1169385Y2943882D01*
X1170000Y2936069D01*
X1170000Y2143931D01*
X1169385Y2136118D01*
X1156548Y2055069D01*
X1151744Y2040282D01*
X1116277Y1970674D01*
X1107142Y1958101D01*
X1051899Y1902858D01*
X1039326Y1893723D01*
X969718Y1858256D01*
X954931Y1853452D01*
X873882Y1840615D01*
X866069Y1840000D01*
X732216Y1840000D01*
X672889Y1820500D01*
X636700Y1769605D01*
X632946Y1727947D01*
X649271Y1593504D01*
X649271Y1581496D01*
X631841Y1437946D01*
X628969Y1426293D01*
X577690Y1291083D01*
X572112Y1280455D01*
X489966Y1161445D01*
X482006Y1152460D01*
X373770Y1056572D01*
X363887Y1049749D01*
X235851Y982551D01*
X224615Y978290D01*
X84226Y943688D01*
X72297Y942239D01*
X-72297Y942239D01*
X-72297Y-686436D01*
X5756Y-755585D01*
X13716Y-764570D01*
X95862Y-883580D01*
X101440Y-894208D01*
X152719Y-1029418D01*
X155591Y-1041071D01*
X172330Y-1178930D01*
X198839Y-1235474D01*
X271600Y-1266875D01*
X1504193Y-1266875D01*
X1512006Y-1267490D01*
X1531460Y-1270571D01*
X1547103Y-1271802D01*
X1562828Y-1271802D01*
X1578183Y-1274234D01*
X1593138Y-1279093D01*
X1608396Y-1282756D01*
X1623962Y-1285221D01*
X1638737Y-1290022D01*
X1652775Y-1297175D01*
X1667273Y-1303180D01*
X1682237Y-1308042D01*
X1696088Y-1315099D01*
X1708817Y-1324348D01*
X1722199Y-1332548D01*
X1736226Y-1339695D01*
X1748801Y-1348831D01*
X1759936Y-1359966D01*
X1771869Y-1370157D01*
X1787790Y-1381724D01*
X1793743Y-1386808D01*
X2445541Y-2038606D01*
X2501280Y-2066768D01*
X2562858Y-2056370D01*
X2606259Y-2011466D01*
X2616250Y-1967896D01*
X2616250Y-1099999D01*
X2596750Y-1040672D01*
X2516251Y-1000000D01*
X1283931Y-1000000D01*
X1276118Y-999385D01*
X1195069Y-986548D01*
X1180282Y-981744D01*
X1110674Y-946277D01*
X1098101Y-937142D01*
X1042858Y-881899D01*
X1033723Y-869326D01*
X998256Y-799718D01*
X993452Y-784931D01*
X980615Y-703882D01*
X980000Y-696069D01*
X980000Y696069D01*
X980615Y703882D01*
X993452Y784931D01*
X998256Y799718D01*
X1033723Y869326D01*
X1042858Y881899D01*
X1098101Y937142D01*
X1110674Y946277D01*
X1180282Y981744D01*
X1195069Y986548D01*
X1276118Y999385D01*
X1283931Y1000000D01*
X1430001Y1000000D01*
X1489328Y1019500D01*
X1530000Y1099999D01*
X1530000Y1821465D01*
X1492140Y1895771D01*
X1493664Y1897295D01*
X1488972Y1901987D01*
X1488779Y1902366D01*
X1488099Y1902860D01*
X1432858Y1958101D01*
X1423723Y1970674D01*
X1388256Y2040282D01*
X1383452Y2055069D01*
X1370615Y2136118D01*
X1370000Y2143931D01*
X1370000Y2936069D01*
X1370615Y2943882D01*
X1383452Y3024931D01*
X1388256Y3039718D01*
X1423723Y3109326D01*
X1432858Y3121899D01*
X1488101Y3177142D01*
X1500674Y3186277D01*
X1570282Y3221744D01*
X1585069Y3226548D01*
X1666118Y3239385D01*
X1673931Y3240000D01*
X2144146Y3240000D01*
X2203473Y3259500D01*
X2239662Y3310395D01*
X2238600Y3372836D01*
X2214856Y3410709D01*
X2013865Y3611700D01*
X1943155Y3640989D01*
X1832703Y3640989D01*
X1820774Y3642438D01*
X1680385Y3677040D01*
X1669149Y3681301D01*
X1541113Y3748499D01*
X1531230Y3755322D01*
X1422994Y3851210D01*
X1415034Y3860195D01*
X1332888Y3979205D01*
X1327310Y3989833D01*
X1276031Y4125043D01*
X1273159Y4136696D01*
X1255729Y4280246D01*
X1255729Y4292254D01*
X1273159Y4435804D01*
X1276031Y4447457D01*
X1327310Y4582667D01*
X1332888Y4593295D01*
X1415034Y4712305D01*
X1422994Y4721290D01*
X1531230Y4817178D01*
X1541113Y4824001D01*
X1669149Y4891199D01*
X1680385Y4895460D01*
X1820774Y4930062D01*
X1832703Y4931511D01*
X1977297Y4931511D01*
X1989226Y4930062D01*
X2129615Y4895460D01*
X2140851Y4891199D01*
X2268887Y4824001D01*
X2278770Y4817178D01*
X2387006Y4721290D01*
X2394966Y4712305D01*
X2477112Y4593295D01*
X2482690Y4582667D01*
X2533969Y4447457D01*
X2536841Y4435804D01*
X2554271Y4292254D01*
X2554271Y4280244D01*
X2551740Y4259397D01*
X2580300Y4176635D01*
X2921791Y3835144D01*
X2977530Y3806982D01*
X3039108Y3817380D01*
X3082509Y3862284D01*
X3092500Y3905854D01*
X3092500Y3971678D01*
X3058813Y4046528D01*
X3010494Y4089335D01*
X3002534Y4098320D01*
X2920388Y4217330D01*
X2914810Y4227958D01*
X2863531Y4363168D01*
X2860659Y4374821D01*
X2843229Y4518371D01*
X2843229Y4530379D01*
X2860659Y4673929D01*
X2863531Y4685582D01*
X2914810Y4820792D01*
X2920388Y4831420D01*
X3002534Y4950430D01*
X3010494Y4959415D01*
X3118730Y5055303D01*
X3128613Y5062126D01*
X3256649Y5129324D01*
X3267885Y5133585D01*
X3408274Y5168187D01*
X3420203Y5169636D01*
X3564797Y5169636D01*
X3576726Y5168187D01*
X3717115Y5133585D01*
X3728351Y5129324D01*
X3856387Y5062126D01*
X3866270Y5055303D01*
X3974506Y4959415D01*
X3982466Y4950430D01*
X4064612Y4831420D01*
X4070190Y4820792D01*
X4121469Y4685582D01*
X4124341Y4673929D01*
X4141771Y4530379D01*
X4141771Y4518371D01*
X4124341Y4374821D01*
X4121469Y4363168D01*
X4070190Y4227958D01*
X4064612Y4217330D01*
X3982466Y4098320D01*
X3974506Y4089335D01*
X3926187Y4046528D01*
X3892500Y3971678D01*
X3892500Y3918878D01*
X3912000Y3859551D01*
X3962895Y3823362D01*
X4025336Y3824424D01*
X4074797Y3862072D01*
X4113784Y3918555D01*
X4121744Y3927540D01*
X4229980Y4023428D01*
X4239863Y4030251D01*
X4367899Y4097449D01*
X4379135Y4101710D01*
X4519524Y4136312D01*
X4531453Y4137761D01*
X4676047Y4137761D01*
X4687974Y4136313D01*
X4711013Y4130634D01*
X4773283Y4135369D01*
X4824045Y4182329D01*
X4853723Y4240576D01*
X4862858Y4253149D01*
X4918101Y4308392D01*
X4930674Y4317527D01*
X5000282Y4352994D01*
X5015069Y4357798D01*
X5096118Y4370635D01*
X5103931Y4371250D01*
X5696069Y4371250D01*
X5703882Y4370635D01*
X5784931Y4357798D01*
X5799715Y4352995D01*
X5829601Y4337767D01*
X5920399Y4337767D01*
X5950285Y4352995D01*
X5965069Y4357798D01*
X6046118Y4370635D01*
X6053931Y4371250D01*
X6183982Y4371250D01*
X6188747Y4369684D01*
X6199995Y4347422D01*
X6199995Y4071250D01*
X6050000Y4071250D01*
X6050000Y2971250D01*
X6199995Y2971250D01*
X6199995Y2687263D01*
X6198429Y2682498D01*
X6176167Y2671250D01*
X6053931Y2671250D01*
X6046118Y2671865D01*
X5965069Y2684702D01*
X5950285Y2689505D01*
X5920399Y2704733D01*
X5829601Y2704733D01*
X5799715Y2689505D01*
X5784931Y2684702D01*
X5703882Y2671865D01*
X5696069Y2671250D01*
X5103931Y2671250D01*
X5096118Y2671865D01*
X5015069Y2684702D01*
X5000282Y2689506D01*
X4930674Y2724973D01*
X4918101Y2734108D01*
X4862858Y2789351D01*
X4853725Y2801922D01*
X4850074Y2809087D01*
X4805765Y2853095D01*
X4737043Y2860781D01*
X4687976Y2848688D01*
X4676047Y2847239D01*
X4531453Y2847239D01*
X4519524Y2848688D01*
X4379135Y2883290D01*
X4367899Y2887551D01*
X4239863Y2954749D01*
X4229980Y2961572D01*
X4121744Y3057460D01*
X4113784Y3066445D01*
X4074797Y3122928D01*
X4025047Y3160676D01*
X3962604Y3161548D01*
X3911819Y3125203D01*
X3892500Y3066122D01*
X3892500Y959861D01*
X3912000Y900534D01*
X3962895Y864345D01*
X4039638Y871670D01*
X4132979Y921561D01*
X4142023Y925308D01*
X4320206Y979358D01*
X4329803Y981267D01*
X4515106Y999518D01*
X4524894Y999518D01*
X4710197Y981267D01*
X4719794Y979358D01*
X4783220Y960118D01*
X4845653Y961556D01*
X4895058Y999755D01*
X4911518Y1067865D01*
X4906979Y1105246D01*
X4906979Y1117254D01*
X4924409Y1260804D01*
X4927281Y1272457D01*
X4978560Y1407667D01*
X4984138Y1418295D01*
X5066284Y1537305D01*
X5074244Y1546290D01*
X5182480Y1642178D01*
X5192363Y1649001D01*
X5320399Y1716199D01*
X5331635Y1720460D01*
X5472024Y1755062D01*
X5483953Y1756511D01*
X5628547Y1756511D01*
X5640476Y1755062D01*
X5780865Y1720460D01*
X5792101Y1716199D01*
X5920137Y1649001D01*
X5930020Y1642178D01*
X6038256Y1546290D01*
X6046216Y1537305D01*
X6128362Y1418295D01*
X6133940Y1407667D01*
X6185219Y1272457D01*
X6188091Y1260804D01*
X6205521Y1117254D01*
X6205521Y1105246D01*
X6188091Y961696D01*
X6185219Y950043D01*
X6133940Y814833D01*
X6128362Y804205D01*
X6046216Y685195D01*
X6038256Y676210D01*
X5989937Y633403D01*
X5956250Y558553D01*
X5956250Y-2860428D01*
X5989937Y-2935278D01*
X6038256Y-2978085D01*
X6046216Y-2987070D01*
X6128362Y-3106080D01*
X6133940Y-3116708D01*
X6185219Y-3251918D01*
X6188091Y-3263571D01*
X6205521Y-3407121D01*
X6205521Y-3419129D01*
X6188091Y-3562679D01*
X6185219Y-3574332D01*
X6133940Y-3709542D01*
X6128362Y-3720170D01*
X6046216Y-3839180D01*
X6038256Y-3848165D01*
X5930020Y-3944053D01*
X5920130Y-3950880D01*
X5874723Y-3974712D01*
X5831253Y-4019549D01*
X5832016Y-4100093D01*
X5829527Y-4100902D01*
X5836823Y-4123357D01*
X5842828Y-4137855D01*
X5849978Y-4151887D01*
X5854779Y-4166662D01*
X5857243Y-4182222D01*
X5860906Y-4197480D01*
X5865767Y-4212441D01*
X5868199Y-4227796D01*
X5868199Y-4243527D01*
X5869425Y-4259140D01*
X5869658Y-4260614D01*
X5898182Y-4316169D01*
X5968431Y-4345000D01*
X6019194Y-4345000D01*
X6027007Y-4345615D01*
X6123510Y-4360899D01*
X6138291Y-4365702D01*
X6177726Y-4385795D01*
X6268524Y-4385795D01*
X6307959Y-4365702D01*
X6322740Y-4360899D01*
X6419243Y-4345615D01*
X6427056Y-4345000D01*
X6519194Y-4345000D01*
X6527007Y-4345615D01*
X6623510Y-4360899D01*
X6638291Y-4365702D01*
X6677726Y-4385795D01*
X6768524Y-4385795D01*
X6807959Y-4365702D01*
X6822740Y-4360899D01*
X6919243Y-4345615D01*
X6927056Y-4345000D01*
X6950181Y-4345000D01*
X6950181Y1205000D01*
X6942368Y1205615D01*
X6861319Y1218452D01*
X6846532Y1223256D01*
X6776924Y1258723D01*
X6764351Y1267858D01*
X6709108Y1323101D01*
X6699973Y1335674D01*
X6664506Y1405282D01*
X6659702Y1420069D01*
X6646865Y1501118D01*
X6646250Y1508931D01*
X6646250Y2301069D01*
X6646865Y2308882D01*
X6659702Y2389931D01*
X6664506Y2404718D01*
X6689101Y2452988D01*
X6700000Y2498386D01*
X6700000Y2571251D01*
X6680500Y2630578D01*
X6600001Y2671250D01*
X6516018Y2671250D01*
X6511253Y2672816D01*
X6500005Y2695078D01*
X6500005Y2971250D01*
X6650000Y2971250D01*
X6650000Y4071250D01*
X6500005Y4071250D01*
X6500005Y4355237D01*
X6501571Y4360002D01*
X6523833Y4371250D01*
X6646069Y4371250D01*
X6653882Y4370635D01*
X6734931Y4357798D01*
X6749715Y4352995D01*
X6779601Y4337767D01*
X6870399Y4337767D01*
X6900285Y4352995D01*
X6915069Y4357798D01*
X6996118Y4370635D01*
X7003931Y4371250D01*
X7596069Y4371250D01*
X7603882Y4370635D01*
X7684931Y4357798D01*
X7699718Y4352994D01*
X7769326Y4317527D01*
X7781899Y4308392D01*
X7837142Y4253149D01*
X7846277Y4240576D01*
X7881744Y4170968D01*
X7886548Y4156181D01*
X7887483Y4150279D01*
X7916024Y4094733D01*
X7971953Y4066950D01*
X8033459Y4077767D01*
X8076553Y4122965D01*
X8086250Y4165922D01*
X8086250Y5650001D01*
X8066750Y5709328D01*
X7986251Y5750000D01*
X7979893Y5750000D01*
X7920566Y5730500D01*
X7884788Y5680901D01*
X7881744Y5671533D01*
X7846277Y5601924D01*
X7837142Y5589351D01*
X7781899Y5534108D01*
X7769326Y5524973D01*
X7699718Y5489506D01*
X7684931Y5484702D01*
X7603882Y5471865D01*
X7596069Y5471250D01*
X7003931Y5471250D01*
X6996118Y5471865D01*
X6915069Y5484702D01*
X6900285Y5489505D01*
X6870399Y5504733D01*
X6779601Y5504733D01*
X6749715Y5489505D01*
X6734931Y5484702D01*
X6653882Y5471865D01*
X6646069Y5471250D01*
X6053931Y5471250D01*
X6046118Y5471865D01*
X5965069Y5484702D01*
X5950285Y5489505D01*
X5920399Y5504733D01*
X5829601Y5504733D01*
X5799715Y5489505D01*
X5784931Y5484702D01*
X5703882Y5471865D01*
X5696069Y5471250D01*
X5103931Y5471250D01*
X5096118Y5471865D01*
X5015069Y5484702D01*
X5000282Y5489506D01*
X4930674Y5524973D01*
X4918101Y5534108D01*
X4862858Y5589351D01*
X4853723Y5601924D01*
X4818256Y5671533D01*
X4815212Y5680901D01*
X4778334Y5731299D01*
X4720107Y5750000D01*
X3915528Y5750000D01*
X3909496Y5750365D01*
X3774912Y5766706D01*
X3763259Y5769578D01*
X3633666Y5818726D01*
X3633368Y5817939D01*
X3611685Y5825129D01*
X3527568Y5838452D01*
X3512782Y5843256D01*
X3443174Y5878723D01*
X3430601Y5887858D01*
X3375358Y5943101D01*
X3366223Y5955674D01*
X3330756Y6025282D01*
X3325952Y6040069D01*
X3313115Y6121118D01*
X3312500Y6128931D01*
X3312500Y6571069D01*
X3313115Y6578882D01*
X3325952Y6659931D01*
X3330756Y6674718D01*
X3366223Y6744326D01*
X3375358Y6756899D01*
X3430601Y6812142D01*
X3443174Y6821277D01*
X3512782Y6856744D01*
X3527568Y6861548D01*
X3611685Y6874871D01*
X3633368Y6882061D01*
X3633666Y6881274D01*
X3763259Y6930422D01*
X3774912Y6933294D01*
X3909496Y6949635D01*
X3915528Y6950000D01*
X4550003Y6950000D01*
X4609330Y6969500D01*
X4645519Y7020395D01*
X4644457Y7082836D01*
X4608781Y7130900D01*
X4590599Y7144110D01*
X4535358Y7199351D01*
X4526223Y7211924D01*
X4490756Y7281532D01*
X4485952Y7296319D01*
X4473115Y7377368D01*
X4472500Y7385181D01*
X4472500Y8327319D01*
X4473115Y8335132D01*
X4485952Y8416181D01*
X4490756Y8430968D01*
X4526223Y8500576D01*
X4535358Y8513149D01*
X4590601Y8568392D01*
X4603174Y8577527D01*
X4672782Y8612994D01*
X4687569Y8617798D01*
X4768618Y8630635D01*
X4776431Y8631250D01*
X4776431Y8831250D01*
X4768618Y8831865D01*
X4687569Y8844702D01*
X4672782Y8849506D01*
X4603174Y8884973D01*
X4590601Y8894108D01*
X4535358Y8949351D01*
X4526223Y8961924D01*
X4490756Y9031532D01*
X4485952Y9046319D01*
X4473115Y9127368D01*
X4472500Y9135181D01*
X4472500Y9440232D01*
X4474066Y9444997D01*
X4488513Y9452296D01*
X4488513Y9756255D01*
X4483748Y9757821D01*
X4472500Y9780083D01*
X4472500Y10077319D01*
X4473115Y10085132D01*
X4485952Y10166181D01*
X4490756Y10180968D01*
X4526223Y10250576D01*
X4535358Y10263149D01*
X4590601Y10318392D01*
X4603174Y10327527D01*
X4672782Y10362994D01*
X4687569Y10367798D01*
X4768618Y10380635D01*
X4776431Y10381250D01*
X5231482Y10381250D01*
X5236247Y10379684D01*
X5247495Y10357422D01*
X5247495Y10081250D01*
X4772500Y10081250D01*
X4772500Y9756255D01*
X4488513Y9756255D01*
X4488513Y9452296D01*
X4496328Y9456245D01*
X4772500Y9456245D01*
X4772500Y9131250D01*
X5247495Y9131250D01*
X5247495Y8847263D01*
X5245929Y8842498D01*
X5223667Y8831250D01*
X4776431Y8831250D01*
X4776431Y8631250D01*
X5563518Y8631250D01*
X5563518Y8831250D01*
X5558753Y8832816D01*
X5547505Y8855078D01*
X5547505Y9131250D01*
X6022500Y9131250D01*
X6022500Y9456245D01*
X6022500Y9756255D01*
X6022500Y10081250D01*
X5547505Y10081250D01*
X5547505Y10365237D01*
X5549071Y10370002D01*
X5571333Y10381250D01*
X6018569Y10381250D01*
X6026382Y10380635D01*
X6107431Y10367798D01*
X6122218Y10362994D01*
X6191826Y10327527D01*
X6204399Y10318392D01*
X6259642Y10263149D01*
X6268777Y10250576D01*
X6304244Y10180968D01*
X6309048Y10166181D01*
X6321885Y10085132D01*
X6322500Y10077319D01*
X6322500Y9772268D01*
X6320934Y9767503D01*
X6298672Y9756255D01*
X6022500Y9756255D01*
X6022500Y9456245D01*
X6306487Y9456245D01*
X6311252Y9454679D01*
X6322500Y9432417D01*
X6322500Y9135181D01*
X6321885Y9127368D01*
X6309048Y9046319D01*
X6304244Y9031532D01*
X6268777Y8961924D01*
X6259642Y8949351D01*
X6204399Y8894108D01*
X6191826Y8884973D01*
X6122218Y8849506D01*
X6107431Y8844702D01*
X6026382Y8831865D01*
X6018569Y8831250D01*
X5563518Y8831250D01*
X5563518Y8631250D01*
X6018569Y8631250D01*
X6026382Y8630635D01*
X6107431Y8617798D01*
X6122218Y8612994D01*
X6191826Y8577527D01*
X6204399Y8568392D01*
X6259642Y8513149D01*
X6268777Y8500576D01*
X6304244Y8430968D01*
X6309048Y8416181D01*
X6321885Y8335132D01*
X6322500Y8327319D01*
X6322500Y7385181D01*
X6321885Y7377368D01*
X6307817Y7288545D01*
X6310991Y7288042D01*
X6311157Y7239696D01*
X6348381Y7189553D01*
X6406048Y7171250D01*
X6600001Y7171250D01*
X6659328Y7190750D01*
X6700000Y7271249D01*
X6700000Y7670721D01*
X6700365Y7676748D01*
X6701097Y7682779D01*
X6701643Y7700874D01*
X6701457Y7703941D01*
X6702183Y7715924D01*
X6710346Y7760471D01*
X6711255Y7766442D01*
X6716706Y7811337D01*
X6719580Y7822994D01*
X6720660Y7825843D01*
X6725523Y7843285D01*
X6726076Y7846306D01*
X6729649Y7857770D01*
X6748230Y7899055D01*
X6750542Y7904636D01*
X6766581Y7946927D01*
X6767917Y7949473D01*
X6778143Y7980307D01*
X6790952Y8061181D01*
X6795756Y8075968D01*
X6831223Y8145576D01*
X6840358Y8158149D01*
X6895601Y8213392D01*
X6908174Y8222527D01*
X6977782Y8257994D01*
X6992569Y8262798D01*
X7073618Y8275635D01*
X7081431Y8276250D01*
X7081431Y9186250D01*
X7073618Y9186865D01*
X6992569Y9199702D01*
X6977782Y9204506D01*
X6908174Y9239973D01*
X6895601Y9249108D01*
X6840358Y9304351D01*
X6831223Y9316924D01*
X6795756Y9386532D01*
X6790952Y9401319D01*
X6778115Y9482368D01*
X6777500Y9490181D01*
X6777500Y9620232D01*
X6779066Y9624997D01*
X6793513Y9632296D01*
X6793513Y9936255D01*
X6788748Y9937821D01*
X6777500Y9960083D01*
X6777500Y10082319D01*
X6778115Y10090132D01*
X6790952Y10171181D01*
X6795756Y10185968D01*
X6831223Y10255576D01*
X6840358Y10268149D01*
X6895601Y10323392D01*
X6908174Y10332527D01*
X6977782Y10367994D01*
X6992569Y10372798D01*
X7073618Y10385635D01*
X7081431Y10386250D01*
X7136482Y10386250D01*
X7141247Y10384684D01*
X7152495Y10362422D01*
X7152495Y10086250D01*
X7077500Y10086250D01*
X7077500Y9936255D01*
X6793513Y9936255D01*
X6793513Y9632296D01*
X6801328Y9636245D01*
X7077500Y9636245D01*
X7077500Y9486250D01*
X7152495Y9486250D01*
X7152495Y9202263D01*
X7150929Y9197498D01*
X7128667Y9186250D01*
X7081431Y9186250D01*
X7081431Y8276250D01*
X7468518Y8276250D01*
X7468518Y9186250D01*
X7463753Y9187816D01*
X7452505Y9210078D01*
X7452505Y9486250D01*
X7527500Y9486250D01*
X7527500Y9636245D01*
X7527500Y9936255D01*
X7527500Y10086250D01*
X7452505Y10086250D01*
X7452505Y10370237D01*
X7454071Y10375002D01*
X7476333Y10386250D01*
X7523569Y10386250D01*
X7531382Y10385635D01*
X7612431Y10372798D01*
X7627218Y10367994D01*
X7696826Y10332527D01*
X7709399Y10323392D01*
X7764642Y10268149D01*
X7773777Y10255576D01*
X7809244Y10185968D01*
X7814048Y10171181D01*
X7826885Y10090132D01*
X7827500Y10082319D01*
X7827500Y9952268D01*
X7825934Y9947503D01*
X7803672Y9936255D01*
X7527500Y9936255D01*
X7527500Y9636245D01*
X7811487Y9636245D01*
X7816252Y9634679D01*
X7827500Y9612417D01*
X7827500Y9490181D01*
X7826885Y9482368D01*
X7814048Y9401319D01*
X7809244Y9386532D01*
X7773777Y9316924D01*
X7764642Y9304351D01*
X7709399Y9249108D01*
X7696826Y9239973D01*
X7627218Y9204506D01*
X7612431Y9199702D01*
X7531382Y9186865D01*
X7523569Y9186250D01*
X7468518Y9186250D01*
X7468518Y8276250D01*
X7523569Y8276250D01*
X7531382Y8275635D01*
X7612431Y8262798D01*
X7627218Y8257994D01*
X7696826Y8222527D01*
X7709399Y8213392D01*
X7764642Y8158149D01*
X7773777Y8145576D01*
X7809244Y8075968D01*
X7814048Y8061181D01*
X7827500Y7976250D01*
X7828246Y7976368D01*
X7840948Y7936877D01*
X7846509Y7927677D01*
X7851441Y7916719D01*
X7879866Y7825499D01*
X7879839Y7825361D01*
X7880625Y7822176D01*
X7881176Y7821296D01*
X7881691Y7819644D01*
X7882126Y7819779D01*
X7883922Y7816911D01*
X7882665Y7816519D01*
X7890874Y7790174D01*
X7893037Y7778371D01*
X7898554Y7687173D01*
X7899101Y7681161D01*
X7899635Y7676764D01*
X7900000Y7670724D01*
X7900000Y7666295D01*
X7900182Y7660257D01*
X7901041Y7646055D01*
X7900183Y7631871D01*
X7900000Y7625832D01*
X7900000Y7049999D01*
X7919500Y6990672D01*
X7999999Y6950000D01*
X8540565Y6950000D01*
X8611275Y6979289D01*
X8870887Y7238901D01*
X8877882Y7244721D01*
X8955881Y7298378D01*
X8973623Y7306009D01*
X9081116Y7328906D01*
X9091501Y7330000D01*
X9290181Y7330000D01*
X9290181Y7647500D01*
X9282368Y7648115D01*
X9201319Y7660952D01*
X9186532Y7665756D01*
X9116924Y7701223D01*
X9104351Y7710358D01*
X9049108Y7765601D01*
X9039973Y7778174D01*
X9004506Y7847782D01*
X8999702Y7862569D01*
X8986865Y7943618D01*
X8986250Y7951431D01*
X8986250Y8406482D01*
X8987816Y8411247D01*
X9002263Y8418546D01*
X9002263Y8722505D01*
X8997498Y8724071D01*
X8986250Y8746333D01*
X8986250Y9193569D01*
X8986865Y9201382D01*
X8999702Y9282431D01*
X9004506Y9297218D01*
X9039973Y9366826D01*
X9049108Y9379399D01*
X9104351Y9434642D01*
X9116924Y9443777D01*
X9186532Y9479244D01*
X9201319Y9484048D01*
X9282368Y9496885D01*
X9290181Y9497500D01*
X9595232Y9497500D01*
X9599997Y9495934D01*
X9611245Y9473672D01*
X9611245Y9197500D01*
X9286250Y9197500D01*
X9286250Y8722505D01*
X9002263Y8722505D01*
X9002263Y8418546D01*
X9010078Y8422495D01*
X9286250Y8422495D01*
X9286250Y7947500D01*
X9611245Y7947500D01*
X9611245Y7663513D01*
X9609679Y7658748D01*
X9587417Y7647500D01*
X9290181Y7647500D01*
X9290181Y7330000D01*
X9927268Y7330000D01*
X9927268Y7647500D01*
X9922503Y7649066D01*
X9911255Y7671328D01*
X9911255Y7947500D01*
X10236250Y7947500D01*
X10236250Y8422495D01*
X10236250Y8722505D01*
X10236250Y9197500D01*
X9911255Y9197500D01*
X9911255Y9481487D01*
X9912821Y9486252D01*
X9935083Y9497500D01*
X10232319Y9497500D01*
X10240132Y9496885D01*
X10321181Y9484048D01*
X10335968Y9479244D01*
X10405576Y9443777D01*
X10418149Y9434642D01*
X10473392Y9379399D01*
X10482527Y9366826D01*
X10517994Y9297218D01*
X10522798Y9282431D01*
X10535635Y9201382D01*
X10536250Y9193569D01*
X10536250Y8738518D01*
X10534684Y8733753D01*
X10512422Y8722505D01*
X10236250Y8722505D01*
X10236250Y8422495D01*
X10520237Y8422495D01*
X10525002Y8420929D01*
X10536250Y8398667D01*
X10536250Y7951431D01*
X10535635Y7943618D01*
X10522798Y7862569D01*
X10517994Y7847782D01*
X10482527Y7778174D01*
X10473392Y7765601D01*
X10418149Y7710358D01*
X10405576Y7701223D01*
X10335968Y7665756D01*
X10321181Y7660952D01*
X10240132Y7648115D01*
X10232319Y7647500D01*
X9927268Y7647500D01*
X9927268Y7330000D01*
X9981678Y7330000D01*
X9990748Y7329168D01*
X10084503Y7311834D01*
X10101342Y7305387D01*
X10178784Y7258068D01*
X10192201Y7246028D01*
X10246769Y7175231D01*
X10255671Y7156650D01*
X10284859Y7035760D01*
X10286250Y7024074D01*
X10286250Y3134572D01*
X10285418Y3125502D01*
X10268084Y3031747D01*
X10261637Y3014908D01*
X10214318Y2937466D01*
X10202278Y2924049D01*
X10131481Y2869481D01*
X10112900Y2860579D01*
X9992010Y2831391D01*
X9980324Y2830000D01*
X9886249Y2830000D01*
X9826922Y2810500D01*
X9786250Y2730001D01*
X9786250Y1908028D01*
X9785885Y1901996D01*
X9782604Y1874973D01*
X9781875Y1862919D01*
X9781875Y1838730D01*
X9780427Y1826805D01*
X9774638Y1803316D01*
X9772462Y1791443D01*
X9769544Y1767413D01*
X9766670Y1755756D01*
X9758091Y1733133D01*
X9754499Y1721606D01*
X9748709Y1698114D01*
X9744447Y1686879D01*
X9733208Y1665465D01*
X9728251Y1654451D01*
X9719669Y1631822D01*
X9714088Y1621188D01*
X9700341Y1601273D01*
X9694091Y1590935D01*
X9682850Y1569517D01*
X9676028Y1559634D01*
X9659986Y1541526D01*
X9652538Y1532020D01*
X9638789Y1512102D01*
X9630829Y1503115D01*
X9612720Y1487074D01*
X9604176Y1478530D01*
X9588135Y1460421D01*
X9579146Y1452459D01*
X9559234Y1438714D01*
X9549748Y1431284D01*
X9548447Y1430132D01*
X9525640Y1400663D01*
X9492527Y1335674D01*
X9483392Y1323101D01*
X9428149Y1267858D01*
X9415576Y1258723D01*
X9345968Y1223256D01*
X9331181Y1218452D01*
X9250132Y1205615D01*
X9242319Y1205000D01*
X8400181Y1205000D01*
X8392368Y1205615D01*
X8311319Y1218452D01*
X8296532Y1223256D01*
X8226924Y1258723D01*
X8214351Y1267858D01*
X8166960Y1315249D01*
X8111221Y1343411D01*
X8025540Y1315249D01*
X7978149Y1267858D01*
X7965576Y1258723D01*
X7895968Y1223256D01*
X7881181Y1218452D01*
X7800132Y1205615D01*
X7792319Y1205000D01*
X6950181Y1205000D01*
X6950181Y-4345000D01*
X7019194Y-4345000D01*
X7027009Y-4345615D01*
X7074366Y-4353115D01*
X7136013Y-4343135D01*
X7179718Y-4298528D01*
X7183508Y-4218886D01*
X7149782Y-4129961D01*
X7146909Y-4118304D01*
X7129479Y-3974754D01*
X7129479Y-3962746D01*
X7146909Y-3819196D01*
X7149781Y-3807543D01*
X7194214Y-3690384D01*
X7197019Y-3627997D01*
X7171423Y-3584214D01*
X7141608Y-3554399D01*
X7132473Y-3541826D01*
X7097006Y-3472218D01*
X7092202Y-3457431D01*
X7079365Y-3376382D01*
X7078750Y-3368569D01*
X7078750Y-2626431D01*
X7079365Y-2618618D01*
X7092202Y-2537569D01*
X7097006Y-2522782D01*
X7132473Y-2453174D01*
X7141608Y-2440601D01*
X7196851Y-2385358D01*
X7209424Y-2376223D01*
X7279032Y-2340756D01*
X7293819Y-2335952D01*
X7374868Y-2323115D01*
X7382681Y-2322500D01*
X7382681Y-2122500D01*
X7374868Y-2121885D01*
X7293819Y-2109048D01*
X7279032Y-2104244D01*
X7209424Y-2068777D01*
X7196851Y-2059642D01*
X7141608Y-2004399D01*
X7132473Y-1991826D01*
X7097006Y-1922218D01*
X7092202Y-1907431D01*
X7079365Y-1826382D01*
X7078750Y-1818569D01*
X7078750Y-1613518D01*
X7080316Y-1608753D01*
X7094763Y-1601453D01*
X7094763Y-1297495D01*
X7089998Y-1295929D01*
X7078750Y-1273667D01*
X7078750Y-1076431D01*
X7079365Y-1068618D01*
X7092202Y-987569D01*
X7097006Y-972782D01*
X7132473Y-903174D01*
X7141608Y-890601D01*
X7196851Y-835358D01*
X7209424Y-826223D01*
X7279032Y-790756D01*
X7293819Y-785952D01*
X7374868Y-773115D01*
X7382681Y-772500D01*
X7612732Y-772500D01*
X7617497Y-774066D01*
X7628745Y-796328D01*
X7628745Y-1072500D01*
X7378750Y-1072500D01*
X7378750Y-1297495D01*
X7094763Y-1297495D01*
X7094763Y-1601453D01*
X7102578Y-1597505D01*
X7378750Y-1597505D01*
X7378750Y-1822500D01*
X7628745Y-1822500D01*
X7628745Y-2106487D01*
X7627179Y-2111252D01*
X7604917Y-2122500D01*
X7382681Y-2122500D01*
X7382681Y-2322500D01*
X8174819Y-2322500D01*
X8182632Y-2323115D01*
X8263681Y-2335952D01*
X8278465Y-2340755D01*
X8344602Y-2374454D01*
X8406316Y-2384013D01*
X8461667Y-2355095D01*
X8490000Y-2285354D01*
X8490000Y-2159646D01*
X8470500Y-2100319D01*
X8419605Y-2064130D01*
X8344602Y-2070546D01*
X8278465Y-2104245D01*
X8263681Y-2109048D01*
X8182632Y-2121885D01*
X8174819Y-2122500D01*
X7944768Y-2122500D01*
X7940003Y-2120934D01*
X7928755Y-2098672D01*
X7928755Y-1822500D01*
X8178750Y-1822500D01*
X8178750Y-1072500D01*
X7928755Y-1072500D01*
X7928755Y-788513D01*
X7930321Y-783748D01*
X7952583Y-772500D01*
X8174819Y-772500D01*
X8182632Y-773115D01*
X8263681Y-785952D01*
X8278468Y-790756D01*
X8348076Y-826223D01*
X8367019Y-839986D01*
X8367991Y-838648D01*
X8415541Y-862673D01*
X8477119Y-852275D01*
X8519605Y-809212D01*
X8520288Y-807872D01*
X8526300Y-793362D01*
X8531165Y-778389D01*
X8538222Y-764539D01*
X8547476Y-751802D01*
X8555675Y-738423D01*
X8562821Y-724397D01*
X8571960Y-711819D01*
X8583087Y-700692D01*
X8593278Y-688760D01*
X8604849Y-672833D01*
X8609934Y-666880D01*
X9960950Y684136D01*
X9989510Y766898D01*
X9986979Y787745D01*
X9986979Y799754D01*
X10004409Y943304D01*
X10007281Y954957D01*
X10058560Y1090167D01*
X10064138Y1100795D01*
X10146284Y1219805D01*
X10154244Y1228790D01*
X10205868Y1274525D01*
X10237344Y1328462D01*
X10230682Y1390556D01*
X10205868Y1424225D01*
X10154244Y1469960D01*
X10146284Y1478945D01*
X10064138Y1597955D01*
X10058560Y1608583D01*
X10007281Y1743793D01*
X10004409Y1755446D01*
X9986979Y1898996D01*
X9986979Y1911004D01*
X10004409Y2054554D01*
X10007281Y2066207D01*
X10058560Y2201417D01*
X10064138Y2212045D01*
X10146284Y2331055D01*
X10154244Y2340040D01*
X10262480Y2435928D01*
X10272363Y2442751D01*
X10400399Y2509949D01*
X10411635Y2514210D01*
X10552024Y2548812D01*
X10563953Y2550261D01*
X10708547Y2550261D01*
X10720476Y2548812D01*
X10860865Y2514210D01*
X10872101Y2509949D01*
X11000137Y2442751D01*
X11010020Y2435928D01*
X11118256Y2340040D01*
X11126216Y2331055D01*
X11208362Y2212045D01*
X11213940Y2201417D01*
X11265219Y2066207D01*
X11268091Y2054554D01*
X11285521Y1911004D01*
X11285521Y1898994D01*
X11282990Y1878147D01*
X11311550Y1795385D01*
X13529291Y-422356D01*
X13585030Y-450518D01*
X13646608Y-440120D01*
X13690009Y-395216D01*
X13700000Y-351646D01*
X13700000Y7954563D01*
X13680500Y8013890D01*
X13629605Y8050079D01*
X13545662Y8037236D01*
X13545492Y8037560D01*
X13544550Y8037066D01*
X13543192Y8036858D01*
X13540139Y8034751D01*
X13412101Y7967551D01*
X13400865Y7963290D01*
X13260476Y7928688D01*
X13248547Y7927239D01*
X13103953Y7927239D01*
X13092024Y7928688D01*
X12951631Y7963291D01*
X12944483Y7966002D01*
X12909024Y7972500D01*
X12375617Y7972500D01*
X12316290Y7953000D01*
X12276849Y7888144D01*
X12272798Y7862569D01*
X12267994Y7847782D01*
X12232527Y7778174D01*
X12223392Y7765601D01*
X12168148Y7710357D01*
X12152469Y7698965D01*
X12111250Y7618066D01*
X12111250Y7427071D01*
X12130750Y7367744D01*
X12193069Y7328739D01*
X12283830Y7311958D01*
X12301783Y7304805D01*
X12393978Y7244989D01*
X12402094Y7238420D01*
X13095151Y6545363D01*
X13100971Y6538368D01*
X13154628Y6460369D01*
X13162259Y6442627D01*
X13185156Y6335134D01*
X13186250Y6324749D01*
X13186250Y3834572D01*
X13185418Y3825502D01*
X13168208Y3732419D01*
X13161055Y3714467D01*
X13101239Y3622272D01*
X13094670Y3614156D01*
X12401613Y2921099D01*
X12394618Y2915279D01*
X12316619Y2861622D01*
X12298877Y2853991D01*
X12191384Y2831094D01*
X12180999Y2830000D01*
X11290822Y2830000D01*
X11281752Y2830832D01*
X11187997Y2848166D01*
X11171158Y2854613D01*
X11093716Y2901932D01*
X11080299Y2913972D01*
X11025731Y2984769D01*
X11016829Y3003350D01*
X10987641Y3124240D01*
X10986250Y3135926D01*
X10986250Y5341297D01*
X10979751Y5376758D01*
X10961777Y5424150D01*
X10959467Y5429728D01*
X10940899Y5470986D01*
X10937327Y5482450D01*
X10936774Y5485464D01*
X10931916Y5502890D01*
X10930830Y5505753D01*
X10927956Y5517414D01*
X10922500Y5562348D01*
X10921591Y5568319D01*
X10913436Y5612819D01*
X10912711Y5624813D01*
X10912895Y5627854D01*
X10912348Y5645956D01*
X10911615Y5651990D01*
X10911250Y5658026D01*
X10911250Y7618066D01*
X10870031Y7698965D01*
X10854352Y7710357D01*
X10799108Y7765601D01*
X10789973Y7778174D01*
X10754506Y7847782D01*
X10749702Y7862569D01*
X10736865Y7943618D01*
X10736250Y7951431D01*
X10736250Y9193569D01*
X10736865Y9201382D01*
X10749702Y9282431D01*
X10754506Y9297218D01*
X10789973Y9366826D01*
X10799108Y9379399D01*
X10854351Y9434642D01*
X10866924Y9443777D01*
X10936532Y9479244D01*
X10951319Y9484048D01*
X11032368Y9496885D01*
X11040181Y9497500D01*
X11982319Y9497500D01*
X11990132Y9496885D01*
X12071181Y9484048D01*
X12085968Y9479244D01*
X12155576Y9443777D01*
X12168149Y9434642D01*
X12223392Y9379399D01*
X12232527Y9366826D01*
X12267994Y9297218D01*
X12272798Y9282431D01*
X12276849Y9256856D01*
X12305390Y9201309D01*
X12375617Y9172500D01*
X12909024Y9172500D01*
X12944483Y9178998D01*
X12951631Y9181709D01*
X13092024Y9216312D01*
X13103953Y9217761D01*
X13248547Y9217761D01*
X13260476Y9216312D01*
X13400865Y9181710D01*
X13412101Y9177449D01*
X13540139Y9110249D01*
X13543192Y9108142D01*
X13545387Y9107495D01*
X13545492Y9107440D01*
X13545503Y9107461D01*
X13603094Y9090486D01*
X13661789Y9111811D01*
X13700000Y9190437D01*
X13700000Y10600001D01*
X13680500Y10659328D01*
X13600001Y10700000D01*
X-13600001Y10700000D01*
X-13659328Y10680500D01*
X-13700000Y10600001D01*
X-13700000Y-4564391D01*
G37*
G36*
X-9505000Y-11886250D02*
X-7005000Y-11886250D01*
X-7005000Y-9386250D01*
X-9505000Y-9386250D01*
X-9505000Y-11886250D01*
G37*
G36*
X-5415000Y-8178750D02*
X-4565000Y-8178750D01*
X-4565000Y-7378750D01*
X-4839995Y-7378750D01*
X-4839995Y-7067500D01*
X-4565000Y-7067500D01*
X-4565000Y-6267500D01*
X-5415000Y-6267500D01*
X-5415000Y-7067500D01*
X-5140005Y-7067500D01*
X-5140005Y-7378750D01*
X-5415000Y-7378750D01*
X-5415000Y-8178750D01*
G37*
G36*
X-5180000Y-5888341D02*
X-5169443Y-5933062D01*
X-5169441Y-5933066D01*
X-5125468Y-5977409D01*
X-5063761Y-5987017D01*
X-5008388Y-5958142D01*
X-4980000Y-5888345D01*
X-4980000Y-5443518D01*
X-4978434Y-5438753D01*
X-4956172Y-5427505D01*
X-4680000Y-5427505D01*
X-4680000Y-5927500D01*
X-3580000Y-5927500D01*
X-3580000Y-5427505D01*
X-3296013Y-5427505D01*
X-3287400Y-5430336D01*
X-3249725Y-5468010D01*
X-3204631Y-5478755D01*
X-3178125Y-5478755D01*
X-3178125Y-5753750D01*
X-2928130Y-5753750D01*
X-2928130Y-6037737D01*
X-2929696Y-6042502D01*
X-2951958Y-6053750D01*
X-3174194Y-6053750D01*
X-3182007Y-6053135D01*
X-3230036Y-6045528D01*
X-3291683Y-6055507D01*
X-3327527Y-6091597D01*
X-3329096Y-6090457D01*
X-3342858Y-6109399D01*
X-3398100Y-6164641D01*
X-3410340Y-6173534D01*
X-3446874Y-6224181D01*
X-3446236Y-6286628D01*
X-3410338Y-6335336D01*
X-3393097Y-6347862D01*
X-3337858Y-6403101D01*
X-3328723Y-6415674D01*
X-3293256Y-6485282D01*
X-3288452Y-6500069D01*
X-3275615Y-6581118D01*
X-3275000Y-6588931D01*
X-3275000Y-7381069D01*
X-3275615Y-7388882D01*
X-3288452Y-7469931D01*
X-3293256Y-7484718D01*
X-3328721Y-7554322D01*
X-3333735Y-7561223D01*
X-3352830Y-7620682D01*
X-3333735Y-7678777D01*
X-3328721Y-7685678D01*
X-3293256Y-7755282D01*
X-3288452Y-7770069D01*
X-3275615Y-7851118D01*
X-3275000Y-7858931D01*
X-3275000Y-8548751D01*
X-3255500Y-8608078D01*
X-3175001Y-8648750D01*
X-3174999Y-8648750D01*
X-3115672Y-8629250D01*
X-3075000Y-8548751D01*
X-3075000Y-7858931D01*
X-3074385Y-7851118D01*
X-3061548Y-7770069D01*
X-3056744Y-7755282D01*
X-3021279Y-7685678D01*
X-3016265Y-7678777D01*
X-2997170Y-7619318D01*
X-3016265Y-7561223D01*
X-3021279Y-7554322D01*
X-3056744Y-7484718D01*
X-3061548Y-7469931D01*
X-3074385Y-7388882D01*
X-3075000Y-7381069D01*
X-3075000Y-6588931D01*
X-3074385Y-6581118D01*
X-3061548Y-6500069D01*
X-3056744Y-6485282D01*
X-3021277Y-6415674D01*
X-3012142Y-6403101D01*
X-2956899Y-6347858D01*
X-2944326Y-6338723D01*
X-2874718Y-6303256D01*
X-2859931Y-6298452D01*
X-2797377Y-6288544D01*
X-2741830Y-6260003D01*
X-2713021Y-6189776D01*
X-2713021Y-6185246D01*
X-2695591Y-6041696D01*
X-2692719Y-6030043D01*
X-2641440Y-5894834D01*
X-2639575Y-5891280D01*
X-2628120Y-5844807D01*
X-2628120Y-5753750D01*
X-2378125Y-5753750D01*
X-2378125Y-4903750D01*
X-3178125Y-4903750D01*
X-3178125Y-5178745D01*
X-3462112Y-5178745D01*
X-3470725Y-5175914D01*
X-3508400Y-5138240D01*
X-3553494Y-5127495D01*
X-3580000Y-5127495D01*
X-3580000Y-4627500D01*
X-4680000Y-4627500D01*
X-4680000Y-5127495D01*
X-4963987Y-5127495D01*
X-4968752Y-5125929D01*
X-4980000Y-5103667D01*
X-4980000Y-5003745D01*
X-4999500Y-4944418D01*
X-5050395Y-4908229D01*
X-5112836Y-4909291D01*
X-5150709Y-4933035D01*
X-5150711Y-4933037D01*
X-5180000Y-5003747D01*
X-5180000Y-5888341D01*
G37*
G36*
X-3192500Y-11353750D02*
X-2342500Y-11353750D01*
X-2342500Y-10553750D01*
X-3192500Y-10553750D01*
X-3192500Y-11353750D01*
G37*
G36*
X-2120330Y-14129432D02*
X-2101235Y-14187527D01*
X-2096221Y-14194428D01*
X-2060756Y-14264032D01*
X-2055952Y-14278819D01*
X-2043115Y-14359868D01*
X-2042500Y-14367681D01*
X-2042500Y-15159819D01*
X-2043115Y-15167632D01*
X-2055952Y-15248681D01*
X-2060755Y-15263465D01*
X-2066111Y-15273976D01*
X-2066111Y-15364774D01*
X-2060755Y-15375285D01*
X-2053520Y-15397553D01*
X-2050309Y-15396510D01*
X-2028457Y-15439048D01*
X-1958223Y-15467864D01*
X-1832703Y-15467864D01*
X-1820774Y-15469312D01*
X-1745492Y-15487868D01*
X-1683223Y-15483133D01*
X-1635905Y-15442378D01*
X-1621993Y-15381497D01*
X-1650851Y-15320065D01*
X-1669017Y-15301899D01*
X-1678152Y-15289326D01*
X-1713619Y-15219718D01*
X-1718423Y-15204931D01*
X-1731260Y-15123882D01*
X-1731875Y-15116069D01*
X-1731875Y-14861018D01*
X-1730309Y-14856253D01*
X-1708047Y-14845005D01*
X-1431875Y-14845005D01*
X-1431875Y-15120000D01*
X-1181880Y-15120000D01*
X-1181880Y-15403987D01*
X-1183446Y-15408752D01*
X-1205708Y-15420000D01*
X-1427944Y-15420000D01*
X-1435760Y-15419385D01*
X-1437370Y-15419130D01*
X-1437903Y-15419216D01*
X-1439673Y-15419077D01*
X-1439707Y-15419508D01*
X-1499017Y-15429113D01*
X-1542719Y-15473723D01*
X-1551434Y-15535562D01*
X-1519319Y-15592749D01*
X-1422994Y-15678085D01*
X-1415034Y-15687070D01*
X-1332888Y-15806080D01*
X-1327310Y-15816708D01*
X-1276031Y-15951918D01*
X-1273159Y-15963571D01*
X-1255729Y-16107121D01*
X-1255729Y-16119129D01*
X-1273159Y-16262679D01*
X-1276031Y-16274332D01*
X-1327310Y-16409542D01*
X-1332888Y-16420170D01*
X-1415034Y-16539180D01*
X-1422994Y-16548165D01*
X-1531230Y-16644053D01*
X-1541113Y-16650876D01*
X-1663685Y-16715206D01*
X-1707154Y-16760043D01*
X-1715546Y-16821926D01*
X-1685588Y-16876721D01*
X-1617213Y-16903750D01*
X-865857Y-16903750D01*
X-865857Y-15420000D01*
X-870622Y-15418434D01*
X-881870Y-15396172D01*
X-881870Y-15120000D01*
X-631875Y-15120000D01*
X-631875Y-14845005D01*
X-161875Y-14845005D01*
X-161875Y-15120000D01*
X88120Y-15120000D01*
X88120Y-15403987D01*
X86554Y-15408752D01*
X64292Y-15420000D01*
X-157944Y-15420000D01*
X-165757Y-15419385D01*
X-246806Y-15406548D01*
X-261593Y-15401744D01*
X-331197Y-15366279D01*
X-338098Y-15361265D01*
X-397557Y-15342170D01*
X-455652Y-15361265D01*
X-462553Y-15366279D01*
X-532157Y-15401744D01*
X-546944Y-15406548D01*
X-627993Y-15419385D01*
X-635806Y-15420000D01*
X-865857Y-15420000D01*
X-865857Y-16903750D01*
X2973126Y-16903750D01*
X3032453Y-16884250D01*
X3073125Y-16803751D01*
X3073125Y-14417102D01*
X3039438Y-14342252D01*
X2931119Y-14246290D01*
X2923159Y-14237305D01*
X2841013Y-14118295D01*
X2835435Y-14107667D01*
X2784156Y-13972457D01*
X2781284Y-13960804D01*
X2763854Y-13817254D01*
X2763854Y-13805246D01*
X2781284Y-13661696D01*
X2784157Y-13650039D01*
X2794350Y-13623164D01*
X2797156Y-13560777D01*
X2762401Y-13508892D01*
X2724781Y-13490610D01*
X2632885Y-13467960D01*
X2621649Y-13463699D01*
X2519596Y-13410137D01*
X2458002Y-13399833D01*
X2402306Y-13428080D01*
X2373125Y-13498682D01*
X2373125Y-13591069D01*
X2372510Y-13598882D01*
X2357226Y-13695385D01*
X2352423Y-13710166D01*
X2332330Y-13749601D01*
X2332330Y-13840399D01*
X2352423Y-13879834D01*
X2353926Y-13884461D01*
X2352613Y-13892574D01*
X2351497Y-13893667D01*
X2345797Y-13894995D01*
X2219809Y-13894995D01*
X2174410Y-13905894D01*
X2138291Y-13924298D01*
X2123507Y-13929101D01*
X2027007Y-13944385D01*
X2019194Y-13945000D01*
X967556Y-13945000D01*
X908229Y-13964500D01*
X872040Y-14015395D01*
X884664Y-14091714D01*
X880831Y-14093667D01*
X891606Y-14114813D01*
X935916Y-14158820D01*
X1011605Y-14164517D01*
X1022740Y-14160899D01*
X1119243Y-14145615D01*
X1123125Y-14145309D01*
X1127056Y-14145000D01*
X2019194Y-14145000D01*
X2027007Y-14145615D01*
X2123507Y-14160899D01*
X2138291Y-14165702D01*
X2174410Y-14184106D01*
X2219809Y-14195005D01*
X2341273Y-14195005D01*
X2354163Y-14199242D01*
X2355069Y-14200516D01*
X2355157Y-14201751D01*
X2352423Y-14210166D01*
X2332330Y-14249601D01*
X2332330Y-14340399D01*
X2352423Y-14379834D01*
X2357226Y-14394615D01*
X2372510Y-14491118D01*
X2373125Y-14498931D01*
X2373125Y-14591069D01*
X2372510Y-14598882D01*
X2357226Y-14695385D01*
X2352423Y-14710166D01*
X2309853Y-14793715D01*
X2300717Y-14806289D01*
X2234414Y-14872592D01*
X2221840Y-14881728D01*
X2138289Y-14924299D01*
X2123510Y-14929101D01*
X2057480Y-14939559D01*
X2001934Y-14968100D01*
X1973125Y-15038327D01*
X1973125Y-15468318D01*
X2006812Y-15543168D01*
X2069506Y-15598710D01*
X2077466Y-15607695D01*
X2159612Y-15726705D01*
X2165190Y-15737333D01*
X2216469Y-15872543D01*
X2219341Y-15884196D01*
X2236771Y-16027746D01*
X2236771Y-16039754D01*
X2219341Y-16183304D01*
X2216469Y-16194957D01*
X2165190Y-16330167D01*
X2159612Y-16340795D01*
X2077466Y-16459805D01*
X2069506Y-16468790D01*
X1961270Y-16564678D01*
X1951387Y-16571501D01*
X1823351Y-16638699D01*
X1812115Y-16642960D01*
X1671726Y-16677562D01*
X1659797Y-16679011D01*
X1515203Y-16679011D01*
X1503274Y-16677562D01*
X1362885Y-16642960D01*
X1351649Y-16638699D01*
X1223613Y-16571501D01*
X1213730Y-16564678D01*
X1105494Y-16468790D01*
X1097534Y-16459805D01*
X1015388Y-16340795D01*
X1009810Y-16330167D01*
X958531Y-16194957D01*
X955659Y-16183304D01*
X938229Y-16039754D01*
X938229Y-16027746D01*
X955659Y-15884196D01*
X958531Y-15872543D01*
X1009810Y-15737333D01*
X1015388Y-15726705D01*
X1097534Y-15607695D01*
X1105494Y-15598710D01*
X1139438Y-15568638D01*
X1173125Y-15493788D01*
X1173125Y-15038327D01*
X1153625Y-14979000D01*
X1088770Y-14939559D01*
X1053768Y-14934015D01*
X992121Y-14943994D01*
X948415Y-14988601D01*
X938125Y-15032783D01*
X938125Y-15116069D01*
X937510Y-15123882D01*
X924673Y-15204931D01*
X919869Y-15219718D01*
X884402Y-15289326D01*
X875267Y-15301899D01*
X820024Y-15357142D01*
X807451Y-15366277D01*
X737843Y-15401744D01*
X723056Y-15406548D01*
X642007Y-15419385D01*
X634194Y-15420000D01*
X404143Y-15420000D01*
X399378Y-15418434D01*
X388130Y-15396172D01*
X388130Y-15120000D01*
X638125Y-15120000D01*
X638125Y-14270000D01*
X-161875Y-14270000D01*
X-161875Y-14544995D01*
X-631875Y-14544995D01*
X-631875Y-14270000D01*
X-1431875Y-14270000D01*
X-1431875Y-14544995D01*
X-1715862Y-14544995D01*
X-1720627Y-14543429D01*
X-1731875Y-14521167D01*
X-1731875Y-14273931D01*
X-1731260Y-14266118D01*
X-1718423Y-14185069D01*
X-1713619Y-14170282D01*
X-1678152Y-14100674D01*
X-1669017Y-14088101D01*
X-1621626Y-14040710D01*
X-1593464Y-13984971D01*
X-1621626Y-13899290D01*
X-1669015Y-13851901D01*
X-1682535Y-13833292D01*
X-1733182Y-13796757D01*
X-1822214Y-13811169D01*
X-1835648Y-13820929D01*
X-1849678Y-13828078D01*
X-1863057Y-13836277D01*
X-1875787Y-13845526D01*
X-1889639Y-13852584D01*
X-1904606Y-13857447D01*
X-1919104Y-13863452D01*
X-1933136Y-13870602D01*
X-1947915Y-13875404D01*
X-1963462Y-13877866D01*
X-1978724Y-13881530D01*
X-1985642Y-13883778D01*
X-2036039Y-13920658D01*
X-2053506Y-13963239D01*
X-2055952Y-13978681D01*
X-2060756Y-13993468D01*
X-2096221Y-14063072D01*
X-2101235Y-14069973D01*
X-2120330Y-14129432D01*
G37*
G36*
X-2120330Y-11589432D02*
X-2101235Y-11647527D01*
X-2096221Y-11654428D01*
X-2060756Y-11724032D01*
X-2055951Y-11738821D01*
X-2055861Y-11739390D01*
X-2055603Y-11739892D01*
X-2053520Y-11746303D01*
X-2052483Y-11745966D01*
X-2027323Y-11794938D01*
X-1957093Y-11823750D01*
X-1635856Y-11823750D01*
X-1565146Y-11794461D01*
X-1277644Y-11506959D01*
X-1249482Y-11451220D01*
X-1259880Y-11389642D01*
X-1304784Y-11346241D01*
X-1348354Y-11336250D01*
X-1939814Y-11336250D01*
X-1946343Y-11335736D01*
X-2007017Y-11350520D01*
X-2052959Y-11419785D01*
X-2055952Y-11438681D01*
X-2060756Y-11453468D01*
X-2096221Y-11523072D01*
X-2101235Y-11529973D01*
X-2120330Y-11589432D01*
G37*
G36*
X765643Y-19585030D02*
X776041Y-19646608D01*
X820945Y-19690009D01*
X864515Y-19700000D01*
X3097271Y-19700000D01*
X3156598Y-19680500D01*
X3192787Y-19629605D01*
X3191725Y-19567164D01*
X3167981Y-19529291D01*
X2403604Y-18764914D01*
X2332894Y-18735625D01*
X2276249Y-18735625D01*
X2216922Y-18755125D01*
X2180073Y-18828057D01*
X2176558Y-18827780D01*
X2175635Y-18839507D01*
X2162798Y-18920556D01*
X2157994Y-18935343D01*
X2122527Y-19004951D01*
X2113392Y-19017524D01*
X2058149Y-19072767D01*
X2045576Y-19081902D01*
X1975968Y-19117369D01*
X1961181Y-19122173D01*
X1880132Y-19135010D01*
X1872319Y-19135625D01*
X1080181Y-19135625D01*
X1072368Y-19135010D01*
X991893Y-19122264D01*
X976250Y-19121033D01*
X976249Y-19121033D01*
X916922Y-19140533D01*
X876250Y-19221032D01*
X876250Y-19284194D01*
X875635Y-19292009D01*
X872557Y-19311444D01*
X871326Y-19327086D01*
X871326Y-19342825D01*
X868892Y-19358189D01*
X864030Y-19373153D01*
X860366Y-19388413D01*
X857904Y-19403960D01*
X853102Y-19418739D01*
X845955Y-19432765D01*
X839950Y-19447263D01*
X835085Y-19462236D01*
X828028Y-19476086D01*
X818774Y-19488823D01*
X810575Y-19502202D01*
X803429Y-19516228D01*
X794290Y-19528806D01*
X793805Y-19529291D01*
X793502Y-19529891D01*
X789665Y-19535172D01*
X790520Y-19535793D01*
X765643Y-19585030D01*
G37*
G36*
X2173679Y-17819392D02*
X2175635Y-17831743D01*
X2176558Y-17843470D01*
X2178771Y-17843296D01*
X2195750Y-17894953D01*
X2276249Y-17935625D01*
X2536069Y-17935625D01*
X2543882Y-17936240D01*
X2563311Y-17939317D01*
X2578954Y-17940548D01*
X2594700Y-17940548D01*
X2610062Y-17942981D01*
X2625033Y-17947846D01*
X2640294Y-17951510D01*
X2655834Y-17953971D01*
X2670616Y-17958774D01*
X2684641Y-17965920D01*
X2699139Y-17971925D01*
X2714113Y-17976790D01*
X2727963Y-17983847D01*
X2740701Y-17993102D01*
X2754080Y-18001301D01*
X2768106Y-18008448D01*
X2780677Y-18017581D01*
X2791810Y-18028714D01*
X2803741Y-18038904D01*
X2819663Y-18050472D01*
X2825620Y-18055560D01*
X3835396Y-19065336D01*
X3891135Y-19093498D01*
X3952713Y-19083100D01*
X3996114Y-19038196D01*
X3999607Y-18959166D01*
X3974781Y-18893706D01*
X3971909Y-18882054D01*
X3954479Y-18738504D01*
X3954479Y-18726496D01*
X3971909Y-18582946D01*
X3974782Y-18571289D01*
X3997388Y-18511685D01*
X4000194Y-18449298D01*
X3974598Y-18405514D01*
X3930983Y-18361899D01*
X3921848Y-18349326D01*
X3886381Y-18279718D01*
X3881577Y-18264931D01*
X3868740Y-18183882D01*
X3868125Y-18176069D01*
X3868125Y-17786484D01*
X3848625Y-17727157D01*
X3797730Y-17690968D01*
X3752466Y-17687719D01*
X3751520Y-17687869D01*
X3736278Y-17691530D01*
X3721312Y-17696393D01*
X3705955Y-17698825D01*
X3690217Y-17698825D01*
X3674574Y-17700056D01*
X3655132Y-17703135D01*
X3647319Y-17703750D01*
X2272447Y-17703750D01*
X2213120Y-17723250D01*
X2176931Y-17774145D01*
X2173679Y-17819392D01*
G37*
G36*
X3414918Y-12463156D02*
X3427579Y-12545935D01*
X3426799Y-12546345D01*
X3427989Y-12548612D01*
X3428134Y-12549562D01*
X3429609Y-12551699D01*
X3435190Y-12562333D01*
X3486469Y-12697543D01*
X3489341Y-12709196D01*
X3506771Y-12852746D01*
X3506771Y-12864754D01*
X3489341Y-13008304D01*
X3486468Y-13019961D01*
X3476275Y-13046836D01*
X3473469Y-13109223D01*
X3508224Y-13161108D01*
X3545844Y-13179390D01*
X3637740Y-13202040D01*
X3648976Y-13206301D01*
X3777012Y-13273499D01*
X3786895Y-13280322D01*
X3895131Y-13376210D01*
X3903091Y-13385195D01*
X3985237Y-13504205D01*
X3990815Y-13514833D01*
X4042094Y-13650043D01*
X4044966Y-13661696D01*
X4062396Y-13805246D01*
X4062396Y-13817254D01*
X4044966Y-13960804D01*
X4042094Y-13972457D01*
X3990815Y-14107667D01*
X3985237Y-14118295D01*
X3903091Y-14237304D01*
X3898274Y-14242742D01*
X3873125Y-14309054D01*
X3873125Y-15089831D01*
X3892625Y-15149158D01*
X3943520Y-15185347D01*
X4005961Y-15184285D01*
X4066625Y-15125291D01*
X4105435Y-15022958D01*
X4111013Y-15012330D01*
X4193159Y-14893320D01*
X4201119Y-14884335D01*
X4309355Y-14788447D01*
X4319238Y-14781624D01*
X4447274Y-14714426D01*
X4458510Y-14710165D01*
X4598899Y-14675563D01*
X4610828Y-14674114D01*
X4755422Y-14674114D01*
X4767351Y-14675563D01*
X4907740Y-14710165D01*
X4918976Y-14714426D01*
X5047012Y-14781624D01*
X5056895Y-14788447D01*
X5165129Y-14884333D01*
X5166328Y-14885687D01*
X5166996Y-14885988D01*
X5169657Y-14888345D01*
X5170392Y-14887516D01*
X5241179Y-14919375D01*
X6425444Y-14919375D01*
X6433259Y-14919990D01*
X6452694Y-14923068D01*
X6468336Y-14924299D01*
X6484080Y-14924299D01*
X6499437Y-14926731D01*
X6514410Y-14931596D01*
X6529666Y-14935259D01*
X6545210Y-14937721D01*
X6559996Y-14942526D01*
X6574013Y-14949668D01*
X6588511Y-14955674D01*
X6603487Y-14960540D01*
X6617339Y-14967598D01*
X6630073Y-14976850D01*
X6643453Y-14985050D01*
X6657481Y-14992198D01*
X6670052Y-15001331D01*
X6681186Y-15012465D01*
X6693117Y-15022655D01*
X6709039Y-15034223D01*
X6714996Y-15039311D01*
X7253190Y-15577505D01*
X7258275Y-15583459D01*
X7269844Y-15599382D01*
X7280035Y-15611314D01*
X7292651Y-15623930D01*
X7379004Y-15651988D01*
X7419243Y-15645615D01*
X7427056Y-15645000D01*
X7473126Y-15645000D01*
X7532453Y-15625500D01*
X7573125Y-15545001D01*
X7573125Y-14854258D01*
X7553625Y-14794931D01*
X7502730Y-14758742D01*
X7449194Y-14757165D01*
X7386724Y-14772563D01*
X7374797Y-14774011D01*
X7230203Y-14774011D01*
X7218274Y-14772562D01*
X7077885Y-14737960D01*
X7066649Y-14733699D01*
X6938613Y-14666501D01*
X6928730Y-14659678D01*
X6820494Y-14563790D01*
X6812534Y-14554805D01*
X6730388Y-14435795D01*
X6724810Y-14425167D01*
X6673531Y-14289957D01*
X6670659Y-14278304D01*
X6653229Y-14134754D01*
X6653229Y-14122747D01*
X6658478Y-14079520D01*
X6640107Y-14008685D01*
X6633223Y-13999210D01*
X6626166Y-13985361D01*
X6621303Y-13970394D01*
X6615298Y-13955896D01*
X6608148Y-13941864D01*
X6603346Y-13927085D01*
X6600884Y-13911538D01*
X6597220Y-13896278D01*
X6592357Y-13881312D01*
X6589925Y-13865955D01*
X6589925Y-13850217D01*
X6588694Y-13834574D01*
X6585615Y-13815132D01*
X6585000Y-13807319D01*
X6585000Y-12015128D01*
X6565500Y-11955801D01*
X6514605Y-11919612D01*
X6452164Y-11920674D01*
X6402703Y-11958322D01*
X6363716Y-12014805D01*
X6355756Y-12023790D01*
X6247520Y-12119678D01*
X6237637Y-12126501D01*
X6109601Y-12193699D01*
X6098365Y-12197960D01*
X5957976Y-12232562D01*
X5946047Y-12234011D01*
X5801453Y-12234011D01*
X5789524Y-12232562D01*
X5649135Y-12197960D01*
X5637899Y-12193699D01*
X5509863Y-12126501D01*
X5499980Y-12119678D01*
X5391744Y-12023790D01*
X5383784Y-12014805D01*
X5301638Y-11895795D01*
X5296060Y-11885167D01*
X5244781Y-11749957D01*
X5241909Y-11738304D01*
X5224479Y-11594754D01*
X5224479Y-11582744D01*
X5227010Y-11561897D01*
X5199016Y-11480776D01*
X5199361Y-11480482D01*
X5198612Y-11479605D01*
X5198450Y-11479135D01*
X5196809Y-11477494D01*
X5191719Y-11471535D01*
X5180156Y-11455619D01*
X5169965Y-11443686D01*
X5158831Y-11432552D01*
X5149695Y-11419979D01*
X5142544Y-11405944D01*
X5134347Y-11392567D01*
X5125098Y-11379836D01*
X5118039Y-11365983D01*
X5113176Y-11351015D01*
X5107171Y-11336517D01*
X5100025Y-11322491D01*
X5095221Y-11307708D01*
X5092758Y-11292160D01*
X5089095Y-11276902D01*
X5084231Y-11261931D01*
X5081799Y-11246577D01*
X5081799Y-11230836D01*
X5080568Y-11215194D01*
X5077490Y-11195759D01*
X5076875Y-11187944D01*
X5076875Y-10474572D01*
X5043188Y-10399722D01*
X4994869Y-10356915D01*
X4986909Y-10347930D01*
X4904763Y-10228920D01*
X4899185Y-10218292D01*
X4847906Y-10083082D01*
X4845034Y-10071429D01*
X4827604Y-9927879D01*
X4827604Y-9915871D01*
X4845034Y-9772321D01*
X4847906Y-9760668D01*
X4899185Y-9625458D01*
X4904763Y-9614830D01*
X4986909Y-9495820D01*
X4994869Y-9486835D01*
X5103105Y-9390947D01*
X5112988Y-9384124D01*
X5241024Y-9316926D01*
X5252260Y-9312665D01*
X5392649Y-9278063D01*
X5404578Y-9276614D01*
X5549172Y-9276614D01*
X5561101Y-9278063D01*
X5701490Y-9312665D01*
X5712726Y-9316926D01*
X5840762Y-9384124D01*
X5850645Y-9390947D01*
X5958881Y-9486835D01*
X5966841Y-9495820D01*
X6048987Y-9614830D01*
X6054565Y-9625458D01*
X6105844Y-9760668D01*
X6108716Y-9772321D01*
X6126146Y-9915871D01*
X6126146Y-9927879D01*
X6108716Y-10071429D01*
X6105844Y-10083082D01*
X6054565Y-10218292D01*
X6048987Y-10228920D01*
X5966841Y-10347930D01*
X5958881Y-10356915D01*
X5910562Y-10399722D01*
X5876875Y-10474572D01*
X5876875Y-10846604D01*
X5896375Y-10905931D01*
X5952943Y-10943697D01*
X6098365Y-10979540D01*
X6109601Y-10983801D01*
X6237637Y-11050999D01*
X6247520Y-11057822D01*
X6355756Y-11153710D01*
X6363716Y-11162695D01*
X6402703Y-11219178D01*
X6452453Y-11256926D01*
X6514896Y-11257798D01*
X6565681Y-11221453D01*
X6585000Y-11162372D01*
X6585000Y-9846431D01*
X6585615Y-9838618D01*
X6588693Y-9819183D01*
X6589924Y-9803540D01*
X6589924Y-9787800D01*
X6592358Y-9772436D01*
X6597220Y-9757472D01*
X6600884Y-9742212D01*
X6603346Y-9726665D01*
X6608148Y-9711886D01*
X6615295Y-9697860D01*
X6621300Y-9683362D01*
X6626165Y-9668389D01*
X6633222Y-9654539D01*
X6642476Y-9641802D01*
X6650675Y-9628423D01*
X6657821Y-9614397D01*
X6666960Y-9601819D01*
X6678087Y-9590692D01*
X6688278Y-9578760D01*
X6699849Y-9562833D01*
X6704934Y-9556880D01*
X6823419Y-9438395D01*
X6851581Y-9382656D01*
X6841183Y-9321078D01*
X6799183Y-9279141D01*
X6779864Y-9269001D01*
X6769980Y-9262178D01*
X6661744Y-9166290D01*
X6653784Y-9157305D01*
X6571638Y-9038295D01*
X6566060Y-9027667D01*
X6514781Y-8892457D01*
X6511909Y-8880804D01*
X6495170Y-8742945D01*
X6468661Y-8686401D01*
X6395900Y-8655000D01*
X6273054Y-8655000D01*
X6202267Y-8686859D01*
X6201532Y-8686030D01*
X6198871Y-8688387D01*
X6198203Y-8688688D01*
X6197004Y-8690042D01*
X6088770Y-8785928D01*
X6078887Y-8792751D01*
X5950851Y-8859949D01*
X5939615Y-8864210D01*
X5799226Y-8898812D01*
X5787297Y-8900261D01*
X5642703Y-8900261D01*
X5630774Y-8898812D01*
X5490385Y-8864210D01*
X5479149Y-8859949D01*
X5461422Y-8850645D01*
X5399828Y-8840341D01*
X5332652Y-8882385D01*
X5252469Y-8998551D01*
X5244506Y-9007540D01*
X5136270Y-9103428D01*
X5126387Y-9110251D01*
X4998351Y-9177449D01*
X4987115Y-9181710D01*
X4846726Y-9216312D01*
X4834797Y-9217761D01*
X4690203Y-9217761D01*
X4678274Y-9216312D01*
X4537885Y-9181710D01*
X4526646Y-9177448D01*
X4519597Y-9173748D01*
X4458003Y-9163443D01*
X4402307Y-9191689D01*
X4373125Y-9262292D01*
X4373125Y-10452229D01*
X4392625Y-10511556D01*
X4426652Y-10540774D01*
X4491387Y-10574749D01*
X4501270Y-10581572D01*
X4609506Y-10677460D01*
X4617466Y-10686445D01*
X4699612Y-10805455D01*
X4705190Y-10816083D01*
X4756469Y-10951293D01*
X4759341Y-10962946D01*
X4776771Y-11106496D01*
X4776771Y-11118504D01*
X4759341Y-11262054D01*
X4756469Y-11273707D01*
X4705190Y-11408917D01*
X4699612Y-11419545D01*
X4617466Y-11538555D01*
X4609506Y-11547540D01*
X4501270Y-11643428D01*
X4491387Y-11650251D01*
X4363351Y-11717449D01*
X4352115Y-11721710D01*
X4206280Y-11757655D01*
X4153343Y-11790786D01*
X4130941Y-11842695D01*
X4124341Y-11897054D01*
X4121469Y-11908707D01*
X4070190Y-12043917D01*
X4064612Y-12054545D01*
X3982466Y-12173555D01*
X3974506Y-12182540D01*
X3866270Y-12278428D01*
X3856387Y-12285251D01*
X3728351Y-12352449D01*
X3717115Y-12356710D01*
X3576726Y-12391312D01*
X3564797Y-12392761D01*
X3510434Y-12392761D01*
X3451107Y-12412261D01*
X3414918Y-12463156D01*
G37*
G36*
X3820000Y0D02*
X3837550Y-155765D01*
X3889322Y-303719D01*
X3972718Y-436443D01*
X4083557Y-547282D01*
X4216281Y-630678D01*
X4364235Y-682450D01*
X4520000Y-700000D01*
X4675765Y-682450D01*
X4823719Y-630678D01*
X4956443Y-547282D01*
X5067282Y-436443D01*
X5150678Y-303719D01*
X5202450Y-155765D01*
X5220000Y0D01*
X5202450Y155765D01*
X5150678Y303719D01*
X5067282Y436443D01*
X4956443Y547282D01*
X4823719Y630678D01*
X4675765Y682450D01*
X4520000Y700000D01*
X4364235Y682450D01*
X4216281Y630678D01*
X4083557Y547282D01*
X3972718Y436443D01*
X3889322Y303719D01*
X3837550Y155765D01*
X3820000Y0D01*
G37*
G36*
X5193094Y-19053177D02*
X5227849Y-19105063D01*
X5289400Y-19126250D01*
X6209143Y-19126250D01*
X6209143Y-18480000D01*
X6204378Y-18478434D01*
X6193130Y-18456172D01*
X6193130Y-18180000D01*
X6468125Y-18180000D01*
X6468125Y-17930005D01*
X6628750Y-17930005D01*
X6628750Y-18180000D01*
X6903745Y-18180000D01*
X6903745Y-18463987D01*
X6902179Y-18468752D01*
X6879917Y-18480000D01*
X6632681Y-18480000D01*
X6624866Y-18479385D01*
X6564080Y-18469758D01*
X6532796Y-18469758D01*
X6472009Y-18479385D01*
X6464194Y-18480000D01*
X6209143Y-18480000D01*
X6209143Y-19126250D01*
X6550393Y-19126250D01*
X6621103Y-19096961D01*
X7174466Y-18543598D01*
X7203755Y-18472888D01*
X7203755Y-18180000D01*
X7478750Y-18180000D01*
X7478750Y-17380000D01*
X6628750Y-17380000D01*
X6628750Y-17629995D01*
X6468125Y-17629995D01*
X6468125Y-17380000D01*
X5618125Y-17380000D01*
X5618125Y-18180000D01*
X5893120Y-18180000D01*
X5893120Y-18463987D01*
X5891554Y-18468752D01*
X5869292Y-18480000D01*
X5622056Y-18480000D01*
X5614243Y-18479385D01*
X5533194Y-18466548D01*
X5518407Y-18461744D01*
X5448799Y-18426277D01*
X5436226Y-18417142D01*
X5388835Y-18369751D01*
X5333096Y-18341589D01*
X5247415Y-18369751D01*
X5227060Y-18390106D01*
X5198898Y-18445845D01*
X5204269Y-18496275D01*
X5232718Y-18571290D01*
X5235591Y-18582946D01*
X5253021Y-18726496D01*
X5253021Y-18738504D01*
X5235591Y-18882054D01*
X5232719Y-18893706D01*
X5195899Y-18990791D01*
X5193094Y-19053177D01*
G37*
G36*
X5373125Y-16895000D02*
X5387770Y-16930355D01*
X5423125Y-16945000D01*
X5523125Y-16945000D01*
X5558480Y-16930355D01*
X5573125Y-16895000D01*
X5573125Y-15995000D01*
X5558480Y-15959645D01*
X5523125Y-15945000D01*
X5423125Y-15945000D01*
X5387770Y-15959645D01*
X5373125Y-15995000D01*
X5373125Y-16895000D01*
G37*
G36*
X7861250Y-12731019D02*
X7890539Y-12801729D01*
X8253190Y-13164380D01*
X8258275Y-13170334D01*
X8269844Y-13186257D01*
X8280035Y-13198189D01*
X8291165Y-13209319D01*
X8300306Y-13221901D01*
X8307449Y-13235920D01*
X8315649Y-13249303D01*
X8324904Y-13262040D01*
X8331959Y-13275887D01*
X8336823Y-13290857D01*
X8342828Y-13305355D01*
X8349978Y-13319387D01*
X8354779Y-13334162D01*
X8357243Y-13349722D01*
X8360906Y-13364980D01*
X8365767Y-13379941D01*
X8368199Y-13395296D01*
X8368199Y-13411027D01*
X8369430Y-13426670D01*
X8372510Y-13446118D01*
X8373125Y-13453931D01*
X8373125Y-14867159D01*
X8392625Y-14926486D01*
X8443520Y-14962675D01*
X8505961Y-14961613D01*
X8555595Y-14923713D01*
X8572394Y-14879213D01*
X8575659Y-14852321D01*
X8578531Y-14840668D01*
X8629810Y-14705458D01*
X8635388Y-14694830D01*
X8717534Y-14575820D01*
X8725494Y-14566835D01*
X8773813Y-14524028D01*
X8807500Y-14449178D01*
X8807500Y-11006246D01*
X8788000Y-10946919D01*
X8737105Y-10910730D01*
X8661029Y-10917701D01*
X8649601Y-10923699D01*
X8638365Y-10927960D01*
X8497976Y-10962562D01*
X8486047Y-10964011D01*
X8341453Y-10964011D01*
X8329524Y-10962562D01*
X8189135Y-10927960D01*
X8177899Y-10923699D01*
X8049863Y-10856501D01*
X8039980Y-10849679D01*
X8027561Y-10838676D01*
X7970224Y-10813931D01*
X7909386Y-10828027D01*
X7868775Y-10875469D01*
X7861250Y-10913526D01*
X7861250Y-12731019D01*
G37*
G36*
X8230657Y-6049007D02*
X8282613Y-6119896D01*
X8301386Y-6129749D01*
X8311270Y-6136572D01*
X8419506Y-6232460D01*
X8427466Y-6241445D01*
X8509612Y-6360455D01*
X8515190Y-6371083D01*
X8566469Y-6506293D01*
X8569341Y-6517946D01*
X8586771Y-6661496D01*
X8586771Y-6673506D01*
X8584240Y-6694353D01*
X8612800Y-6777115D01*
X8693815Y-6858130D01*
X8698900Y-6864084D01*
X8710469Y-6880007D01*
X8720660Y-6891939D01*
X8731790Y-6903069D01*
X8740931Y-6915651D01*
X8748074Y-6929670D01*
X8756274Y-6943053D01*
X8765529Y-6955790D01*
X8772584Y-6969637D01*
X8777448Y-6984607D01*
X8783453Y-6999105D01*
X8790603Y-7013137D01*
X8795404Y-7027912D01*
X8797868Y-7043472D01*
X8801531Y-7058730D01*
X8806392Y-7073691D01*
X8808824Y-7089046D01*
X8808824Y-7104777D01*
X8810055Y-7120420D01*
X8813135Y-7139868D01*
X8813750Y-7147681D01*
X8813750Y-8635395D01*
X8833250Y-8694722D01*
X8884145Y-8730911D01*
X8946586Y-8729849D01*
X8984459Y-8706105D01*
X12111961Y-5578603D01*
X12141250Y-5507893D01*
X12141250Y-5345407D01*
X12121750Y-5286080D01*
X12063298Y-5250535D01*
X12063803Y-5248980D01*
X12057225Y-5246843D01*
X12056890Y-5246639D01*
X12056321Y-5246549D01*
X12041532Y-5241744D01*
X11971924Y-5206277D01*
X11959351Y-5197142D01*
X11904108Y-5141899D01*
X11894973Y-5129326D01*
X11859506Y-5059718D01*
X11854702Y-5044931D01*
X11841865Y-4963882D01*
X11841250Y-4956069D01*
X11841250Y-4113931D01*
X11841865Y-4106118D01*
X11854702Y-4025069D01*
X11861938Y-4002798D01*
X11860250Y-4002250D01*
X11868344Y-3949977D01*
X11839424Y-3894628D01*
X11754042Y-3867529D01*
X11710755Y-3874385D01*
X11702944Y-3875000D01*
X11473124Y-3875000D01*
X11413797Y-3894500D01*
X11373125Y-3974999D01*
X11373125Y-5591069D01*
X11372510Y-5598882D01*
X11357226Y-5695385D01*
X11352423Y-5710166D01*
X11309853Y-5793715D01*
X11300717Y-5806289D01*
X11234414Y-5872592D01*
X11221840Y-5881728D01*
X11138291Y-5924298D01*
X11123510Y-5929101D01*
X11027007Y-5944385D01*
X11019194Y-5945000D01*
X10927056Y-5945000D01*
X10919243Y-5944385D01*
X10822740Y-5929101D01*
X10807959Y-5924298D01*
X10768524Y-5904205D01*
X10677726Y-5904205D01*
X10638291Y-5924298D01*
X10633664Y-5925801D01*
X10625551Y-5924488D01*
X10624458Y-5923372D01*
X10623130Y-5917672D01*
X10623130Y-5791684D01*
X10612231Y-5746285D01*
X10593827Y-5710166D01*
X10589024Y-5695382D01*
X10573740Y-5598882D01*
X10573125Y-5591069D01*
X10573125Y-3909599D01*
X10553625Y-3850272D01*
X10502730Y-3814083D01*
X10427728Y-3820499D01*
X10356593Y-3856744D01*
X10341806Y-3861548D01*
X10260757Y-3874385D01*
X10252944Y-3875000D01*
X10238354Y-3875000D01*
X10179027Y-3894500D01*
X10142838Y-3945395D01*
X10143900Y-4007836D01*
X10167644Y-4045709D01*
X10253190Y-4131255D01*
X10258275Y-4137209D01*
X10269844Y-4153132D01*
X10280035Y-4165064D01*
X10291165Y-4176194D01*
X10300306Y-4188776D01*
X10307449Y-4202795D01*
X10315649Y-4216178D01*
X10324903Y-4228915D01*
X10331959Y-4242762D01*
X10336823Y-4257733D01*
X10342828Y-4272231D01*
X10349977Y-4286261D01*
X10354779Y-4301040D01*
X10357241Y-4316587D01*
X10360905Y-4331847D01*
X10365768Y-4346813D01*
X10368200Y-4362170D01*
X10368200Y-4377908D01*
X10369431Y-4393551D01*
X10372510Y-4412993D01*
X10373125Y-4420806D01*
X10373125Y-5591069D01*
X10372510Y-5598882D01*
X10357226Y-5695382D01*
X10352423Y-5710166D01*
X10334019Y-5746285D01*
X10323120Y-5791684D01*
X10323120Y-5913148D01*
X10318883Y-5926038D01*
X10317609Y-5926944D01*
X10316374Y-5927032D01*
X10307959Y-5924298D01*
X10268524Y-5904205D01*
X10177726Y-5904205D01*
X10138291Y-5924298D01*
X10123510Y-5929101D01*
X10027007Y-5944385D01*
X10019194Y-5945000D01*
X9927056Y-5945000D01*
X9919243Y-5944385D01*
X9822740Y-5929101D01*
X9807959Y-5924298D01*
X9768524Y-5904205D01*
X9677726Y-5904205D01*
X9638291Y-5924298D01*
X9623510Y-5929101D01*
X9527007Y-5944385D01*
X9519194Y-5945000D01*
X9427056Y-5945000D01*
X9419243Y-5944385D01*
X9322740Y-5929101D01*
X9307959Y-5924298D01*
X9268524Y-5904205D01*
X9177726Y-5904205D01*
X9138291Y-5924298D01*
X9123510Y-5929101D01*
X9027007Y-5944385D01*
X9019194Y-5945000D01*
X8927056Y-5945000D01*
X8919243Y-5944385D01*
X8822740Y-5929101D01*
X8807959Y-5924298D01*
X8768524Y-5904205D01*
X8677726Y-5904205D01*
X8638291Y-5924298D01*
X8623510Y-5929101D01*
X8527007Y-5944385D01*
X8519194Y-5945000D01*
X8427056Y-5945000D01*
X8419243Y-5944385D01*
X8344728Y-5932583D01*
X8283081Y-5942562D01*
X8239376Y-5987169D01*
X8230657Y-6049007D01*
G37*
G36*
X9220141Y-18234359D02*
X9230121Y-18296006D01*
X9274728Y-18339711D01*
X9318909Y-18350000D01*
X9756069Y-18350000D01*
X9763882Y-18350615D01*
X9844931Y-18363452D01*
X9859718Y-18368256D01*
X9929326Y-18403723D01*
X9941899Y-18412858D01*
X9997142Y-18468101D01*
X10006277Y-18480674D01*
X10041744Y-18550282D01*
X10046548Y-18565069D01*
X10059385Y-18646118D01*
X10060000Y-18653931D01*
X10060000Y-19446069D01*
X10059385Y-19453882D01*
X10046548Y-19534931D01*
X10041744Y-19549716D01*
X10039254Y-19554604D01*
X10029696Y-19616318D01*
X10058616Y-19671668D01*
X10128355Y-19700000D01*
X10191645Y-19700000D01*
X10250972Y-19680500D01*
X10287161Y-19629605D01*
X10280746Y-19554604D01*
X10278256Y-19549716D01*
X10273452Y-19534931D01*
X10260615Y-19453882D01*
X10260000Y-19446069D01*
X10260000Y-19216018D01*
X10261566Y-19211253D01*
X10283828Y-19200005D01*
X10560000Y-19200005D01*
X10560000Y-19450000D01*
X11310000Y-19450000D01*
X11310000Y-19200005D01*
X11593987Y-19200005D01*
X11598752Y-19201571D01*
X11610000Y-19223833D01*
X11610000Y-19446069D01*
X11609385Y-19453882D01*
X11596548Y-19534931D01*
X11591744Y-19549716D01*
X11589254Y-19554604D01*
X11579696Y-19616318D01*
X11608616Y-19671668D01*
X11678355Y-19700000D01*
X13600001Y-19700000D01*
X13659328Y-19680500D01*
X13700000Y-19600001D01*
X13700000Y-19191687D01*
X13680500Y-19132360D01*
X13629605Y-19096171D01*
X13545662Y-19109014D01*
X13545492Y-19108690D01*
X13544550Y-19109184D01*
X13543192Y-19109392D01*
X13540139Y-19111499D01*
X13412101Y-19178699D01*
X13400865Y-19182960D01*
X13260476Y-19217562D01*
X13248547Y-19219011D01*
X13103953Y-19219011D01*
X13092024Y-19217562D01*
X12951635Y-19182960D01*
X12940399Y-19178699D01*
X12812363Y-19111501D01*
X12802480Y-19104678D01*
X12694244Y-19008790D01*
X12686284Y-18999805D01*
X12604138Y-18880795D01*
X12598560Y-18870167D01*
X12547281Y-18734957D01*
X12544409Y-18723304D01*
X12526979Y-18579754D01*
X12526979Y-18567746D01*
X12544409Y-18424196D01*
X12547281Y-18412543D01*
X12598560Y-18277333D01*
X12604140Y-18266701D01*
X12647567Y-18203785D01*
X12665220Y-18143883D01*
X12635979Y-18076270D01*
X12611960Y-18052251D01*
X12556221Y-18024089D01*
X12470540Y-18052251D01*
X12423149Y-18099642D01*
X12410576Y-18108777D01*
X12340968Y-18144244D01*
X12326181Y-18149048D01*
X12245132Y-18161885D01*
X12237319Y-18162500D01*
X11982268Y-18162500D01*
X11977503Y-18160934D01*
X11966255Y-18138672D01*
X11966255Y-17862500D01*
X12241250Y-17862500D01*
X12241250Y-17062500D01*
X11966255Y-17062500D01*
X11966255Y-16778513D01*
X11967821Y-16773748D01*
X11990083Y-16762500D01*
X12237319Y-16762500D01*
X12245132Y-16763115D01*
X12326181Y-16775952D01*
X12340968Y-16780756D01*
X12410576Y-16816223D01*
X12423149Y-16825358D01*
X12470540Y-16872749D01*
X12526279Y-16900911D01*
X12611960Y-16872749D01*
X12659351Y-16825358D01*
X12671924Y-16816223D01*
X12741533Y-16780756D01*
X12752151Y-16777306D01*
X12802549Y-16740428D01*
X12821250Y-16682201D01*
X12821250Y-15560857D01*
X12791961Y-15490147D01*
X12593059Y-15291245D01*
X12587974Y-15285291D01*
X12576400Y-15269361D01*
X12566209Y-15257429D01*
X12555081Y-15246301D01*
X12545945Y-15233726D01*
X12538802Y-15219707D01*
X12530602Y-15206325D01*
X12521348Y-15193588D01*
X12514290Y-15179737D01*
X12509424Y-15164760D01*
X12503418Y-15150262D01*
X12496276Y-15136245D01*
X12491471Y-15121459D01*
X12489009Y-15105915D01*
X12485346Y-15090659D01*
X12480481Y-15075686D01*
X12478049Y-15060329D01*
X12478049Y-15044585D01*
X12476818Y-15028941D01*
X12475928Y-15023322D01*
X12447387Y-14967776D01*
X12392804Y-14940198D01*
X12322740Y-14929101D01*
X12307961Y-14924299D01*
X12224410Y-14881728D01*
X12211836Y-14872592D01*
X12145533Y-14806289D01*
X12136397Y-14793715D01*
X12093827Y-14710166D01*
X12089024Y-14695385D01*
X12073740Y-14598882D01*
X12073125Y-14591069D01*
X12073125Y-14498931D01*
X12073740Y-14491118D01*
X12089024Y-14394615D01*
X12093827Y-14379834D01*
X12113920Y-14340399D01*
X12113920Y-14249601D01*
X12093827Y-14210166D01*
X12092324Y-14205539D01*
X12093637Y-14197426D01*
X12094753Y-14196333D01*
X12100453Y-14195005D01*
X12226441Y-14195005D01*
X12271840Y-14184106D01*
X12307959Y-14165702D01*
X12322743Y-14160899D01*
X12419243Y-14145615D01*
X12423125Y-14145309D01*
X12427056Y-14145000D01*
X13319194Y-14145000D01*
X13327007Y-14145615D01*
X13423507Y-14160899D01*
X13438291Y-14165702D01*
X13474410Y-14184106D01*
X13519809Y-14195005D01*
X13600001Y-14195005D01*
X13659328Y-14175505D01*
X13700000Y-14095006D01*
X13700000Y-13994994D01*
X13680500Y-13935667D01*
X13600001Y-13894995D01*
X13519809Y-13894995D01*
X13474410Y-13905894D01*
X13438291Y-13924298D01*
X13423507Y-13929101D01*
X13327007Y-13944385D01*
X13319194Y-13945000D01*
X12427056Y-13945000D01*
X12419243Y-13944385D01*
X12322743Y-13929101D01*
X12307959Y-13924298D01*
X12271840Y-13905894D01*
X12226441Y-13894995D01*
X12104977Y-13894995D01*
X12092087Y-13890758D01*
X12091181Y-13889484D01*
X12091093Y-13888249D01*
X12093827Y-13879834D01*
X12113920Y-13840399D01*
X12113920Y-13749601D01*
X12093827Y-13710166D01*
X12089024Y-13695385D01*
X12073740Y-13598882D01*
X12073125Y-13591069D01*
X12073125Y-13498931D01*
X12073740Y-13491118D01*
X12089024Y-13394615D01*
X12093827Y-13379834D01*
X12113920Y-13340399D01*
X12113920Y-13249601D01*
X12093827Y-13210166D01*
X12089024Y-13195385D01*
X12073740Y-13098882D01*
X12073125Y-13091069D01*
X12073125Y-12998931D01*
X12073740Y-12991118D01*
X12089024Y-12894615D01*
X12093827Y-12879834D01*
X12113920Y-12840399D01*
X12113920Y-12749601D01*
X12093827Y-12710166D01*
X12092324Y-12705539D01*
X12093637Y-12697426D01*
X12094753Y-12696333D01*
X12100453Y-12695005D01*
X12226441Y-12695005D01*
X12271840Y-12684106D01*
X12307959Y-12665702D01*
X12322743Y-12660899D01*
X12419243Y-12645615D01*
X12423125Y-12645309D01*
X12427056Y-12645000D01*
X13319194Y-12645000D01*
X13327007Y-12645615D01*
X13423507Y-12660899D01*
X13438291Y-12665702D01*
X13474410Y-12684106D01*
X13519809Y-12695005D01*
X13600001Y-12695005D01*
X13659328Y-12675505D01*
X13700000Y-12595006D01*
X13700000Y-12494994D01*
X13680500Y-12435667D01*
X13600001Y-12394995D01*
X13519809Y-12394995D01*
X13474410Y-12405894D01*
X13438291Y-12424298D01*
X13423507Y-12429101D01*
X13327007Y-12444385D01*
X13319194Y-12445000D01*
X12427056Y-12445000D01*
X12419243Y-12444385D01*
X12322743Y-12429101D01*
X12307959Y-12424298D01*
X12271840Y-12405894D01*
X12226441Y-12394995D01*
X12104977Y-12394995D01*
X12092087Y-12390758D01*
X12091181Y-12389484D01*
X12091093Y-12388249D01*
X12093827Y-12379834D01*
X12113920Y-12340399D01*
X12113920Y-12249601D01*
X12093827Y-12210166D01*
X12089024Y-12195385D01*
X12073740Y-12098882D01*
X12073125Y-12091069D01*
X12073125Y-11998931D01*
X12073740Y-11991118D01*
X12089024Y-11894615D01*
X12093827Y-11879834D01*
X12113920Y-11840399D01*
X12113920Y-11749601D01*
X12093827Y-11710166D01*
X12089024Y-11695385D01*
X12073740Y-11598882D01*
X12073125Y-11591069D01*
X12073125Y-11498931D01*
X12073740Y-11491118D01*
X12089024Y-11394615D01*
X12093827Y-11379834D01*
X12113920Y-11340399D01*
X12113920Y-11249601D01*
X12093827Y-11210166D01*
X12089024Y-11195385D01*
X12073740Y-11098882D01*
X12073125Y-11091069D01*
X12073125Y-10998931D01*
X12073740Y-10991118D01*
X12089024Y-10894615D01*
X12093827Y-10879834D01*
X12113920Y-10840399D01*
X12113920Y-10749601D01*
X12093827Y-10710166D01*
X12089024Y-10695385D01*
X12073740Y-10598882D01*
X12073125Y-10591069D01*
X12073125Y-10498931D01*
X12073740Y-10491118D01*
X12089024Y-10394615D01*
X12093827Y-10379834D01*
X12113920Y-10340399D01*
X12113920Y-10249601D01*
X12093827Y-10210166D01*
X12089024Y-10195385D01*
X12073740Y-10098882D01*
X12073125Y-10091069D01*
X12073125Y-9998931D01*
X12073740Y-9991118D01*
X12089024Y-9894615D01*
X12093827Y-9879834D01*
X12113920Y-9840399D01*
X12113920Y-9749601D01*
X12093827Y-9710166D01*
X12089024Y-9695385D01*
X12073740Y-9598882D01*
X12073125Y-9591069D01*
X12073125Y-9498931D01*
X12073740Y-9491118D01*
X12089024Y-9394615D01*
X12093827Y-9379834D01*
X12113920Y-9340399D01*
X12113920Y-9249601D01*
X12093827Y-9210166D01*
X12089024Y-9195385D01*
X12076062Y-9113543D01*
X12047521Y-9057997D01*
X11991592Y-9030214D01*
X11906584Y-9058476D01*
X11144914Y-9820146D01*
X11115625Y-9890856D01*
X11115625Y-14449178D01*
X11149312Y-14524028D01*
X11197631Y-14566835D01*
X11205591Y-14575820D01*
X11287737Y-14694830D01*
X11293315Y-14705458D01*
X11344594Y-14840668D01*
X11347466Y-14852321D01*
X11364896Y-14995871D01*
X11364896Y-15007879D01*
X11347466Y-15151429D01*
X11344594Y-15163082D01*
X11293315Y-15298292D01*
X11287737Y-15308920D01*
X11205591Y-15427930D01*
X11197631Y-15436915D01*
X11121865Y-15504038D01*
X11090389Y-15557975D01*
X11097051Y-15620068D01*
X11142778Y-15667988D01*
X11221840Y-15708272D01*
X11234414Y-15717408D01*
X11300717Y-15783711D01*
X11309853Y-15796285D01*
X11352423Y-15879834D01*
X11357226Y-15894615D01*
X11372510Y-15991118D01*
X11373125Y-15998931D01*
X11373125Y-16662501D01*
X11392625Y-16721828D01*
X11473124Y-16762500D01*
X11650232Y-16762500D01*
X11654997Y-16764066D01*
X11666245Y-16786328D01*
X11666245Y-17062500D01*
X11391250Y-17062500D01*
X11391250Y-17862500D01*
X11666245Y-17862500D01*
X11666245Y-18146487D01*
X11664679Y-18151252D01*
X11642417Y-18162500D01*
X11396780Y-18162500D01*
X11365127Y-18172904D01*
X11361024Y-18167530D01*
X11320113Y-18151233D01*
X11306319Y-18149048D01*
X11291529Y-18144243D01*
X11278772Y-18137743D01*
X11217059Y-18128184D01*
X11151076Y-18170039D01*
X11135092Y-18193197D01*
X11117440Y-18253100D01*
X11138769Y-18311794D01*
X11217391Y-18350000D01*
X11304470Y-18350000D01*
X11336123Y-18339596D01*
X11340226Y-18344970D01*
X11381137Y-18361267D01*
X11394931Y-18363452D01*
X11409718Y-18368256D01*
X11479326Y-18403723D01*
X11491899Y-18412858D01*
X11547142Y-18468101D01*
X11556277Y-18480674D01*
X11591744Y-18550282D01*
X11596548Y-18565069D01*
X11609385Y-18646118D01*
X11610000Y-18653931D01*
X11610000Y-18883982D01*
X11608434Y-18888747D01*
X11586172Y-18899995D01*
X11310000Y-18899995D01*
X11310000Y-18650000D01*
X10560000Y-18650000D01*
X10560000Y-18899995D01*
X10276013Y-18899995D01*
X10271248Y-18898429D01*
X10260000Y-18876167D01*
X10260000Y-18653931D01*
X10260615Y-18646118D01*
X10273452Y-18565069D01*
X10278256Y-18550282D01*
X10313721Y-18480678D01*
X10320016Y-18472014D01*
X10339112Y-18412556D01*
X10319209Y-18353363D01*
X10285587Y-18324691D01*
X10272363Y-18317751D01*
X10262480Y-18310928D01*
X10154244Y-18215040D01*
X10146284Y-18206055D01*
X10064138Y-18087045D01*
X10058560Y-18076417D01*
X10007281Y-17941207D01*
X10004409Y-17929554D01*
X9986979Y-17786004D01*
X9986979Y-17773996D01*
X10004409Y-17630446D01*
X10007281Y-17618793D01*
X10058560Y-17483583D01*
X10064140Y-17472951D01*
X10113698Y-17401153D01*
X10131351Y-17341251D01*
X10110023Y-17282556D01*
X10058032Y-17247960D01*
X10023557Y-17244657D01*
X10019197Y-17245000D01*
X9927056Y-17245000D01*
X9919243Y-17244385D01*
X9822740Y-17229101D01*
X9807959Y-17224298D01*
X9768524Y-17204205D01*
X9677726Y-17204205D01*
X9638291Y-17224298D01*
X9623510Y-17229101D01*
X9527007Y-17244385D01*
X9519194Y-17245000D01*
X9427056Y-17245000D01*
X9419245Y-17244385D01*
X9337760Y-17231479D01*
X9276112Y-17241458D01*
X9232407Y-17286065D01*
X9223348Y-17345889D01*
X9228135Y-17376115D01*
X9228750Y-17383931D01*
X9228750Y-18176069D01*
X9228135Y-18183884D01*
X9220141Y-18234359D01*
G37*
G36*
X9290000Y-2376427D02*
X9309500Y-2435754D01*
X9360395Y-2471943D01*
X9398982Y-2474720D01*
X9399077Y-2475923D01*
X9410806Y-2475000D01*
X9665857Y-2475000D01*
X9670622Y-2476566D01*
X9681870Y-2498828D01*
X9681870Y-2775000D01*
X9406875Y-2775000D01*
X9406875Y-3575000D01*
X10256875Y-3575000D01*
X10256875Y-2775000D01*
X9981880Y-2775000D01*
X9981880Y-2491013D01*
X9983446Y-2486248D01*
X10005708Y-2475000D01*
X10252944Y-2475000D01*
X10260757Y-2475615D01*
X10341806Y-2488452D01*
X10356593Y-2493256D01*
X10426201Y-2528723D01*
X10438774Y-2537858D01*
X10486165Y-2585249D01*
X10541904Y-2613411D01*
X10627585Y-2585249D01*
X10674976Y-2537858D01*
X10687549Y-2528723D01*
X10757157Y-2493256D01*
X10771944Y-2488452D01*
X10792229Y-2485239D01*
X10847775Y-2456698D01*
X10876583Y-2385802D01*
X10874957Y-2142813D01*
X10841271Y-2068631D01*
X10789244Y-2022539D01*
X10781284Y-2013555D01*
X10699138Y-1894545D01*
X10693560Y-1883917D01*
X10642281Y-1748707D01*
X10639409Y-1737054D01*
X10621979Y-1593504D01*
X10621979Y-1581496D01*
X10639409Y-1437946D01*
X10642281Y-1426293D01*
X10693560Y-1291083D01*
X10699138Y-1280455D01*
X10781284Y-1161445D01*
X10789244Y-1152460D01*
X10897480Y-1056572D01*
X10907363Y-1049749D01*
X11035399Y-982551D01*
X11046635Y-978290D01*
X11187024Y-943688D01*
X11198953Y-942239D01*
X11343547Y-942239D01*
X11355476Y-943688D01*
X11495865Y-978290D01*
X11507101Y-982551D01*
X11635137Y-1049749D01*
X11645020Y-1056572D01*
X11753256Y-1152460D01*
X11761216Y-1161445D01*
X11843362Y-1280455D01*
X11848940Y-1291083D01*
X11900219Y-1426293D01*
X11903091Y-1437946D01*
X11920521Y-1581496D01*
X11920521Y-1593504D01*
X11903091Y-1737054D01*
X11900219Y-1748707D01*
X11848940Y-1883917D01*
X11843362Y-1894545D01*
X11761216Y-2013555D01*
X11753256Y-2022539D01*
X11708627Y-2062077D01*
X11674941Y-2137597D01*
X11676600Y-2385466D01*
X11696497Y-2444662D01*
X11760953Y-2483565D01*
X11791808Y-2488452D01*
X11810473Y-2494517D01*
X11872923Y-2494306D01*
X11912086Y-2470123D01*
X11959351Y-2422858D01*
X11971924Y-2413723D01*
X12041532Y-2378256D01*
X12056319Y-2373452D01*
X12137368Y-2360615D01*
X12145181Y-2360000D01*
X12375232Y-2360000D01*
X12379997Y-2361566D01*
X12391245Y-2383828D01*
X12391245Y-2660000D01*
X12141250Y-2660000D01*
X12141250Y-3510000D01*
X12941250Y-3510000D01*
X12941250Y-2660000D01*
X12691255Y-2660000D01*
X12691255Y-2376013D01*
X12692821Y-2371248D01*
X12715083Y-2360000D01*
X12835001Y-2360000D01*
X12894328Y-2340500D01*
X12935000Y-2260001D01*
X12935000Y-1000856D01*
X12905711Y-930146D01*
X11395977Y579588D01*
X11340238Y607750D01*
X11278660Y597352D01*
X11231766Y544337D01*
X11213941Y497335D01*
X11208362Y486705D01*
X11126216Y367695D01*
X11118256Y358710D01*
X11010020Y262822D01*
X11000137Y255999D01*
X10872101Y188801D01*
X10860865Y184540D01*
X10720476Y149938D01*
X10708547Y148489D01*
X10598096Y148489D01*
X10527386Y119200D01*
X9319289Y-1088897D01*
X9290000Y-1159607D01*
X9290000Y-2376427D01*
G37*
G04 --- BOARD END --- *
G04 #@! TF.MD5,16976933f9166c66065b7a48b99f9cfe*
M02*
