M48
; #@! TF.GenerationSoftware,LibrePCB,LibrePCB,1.0.1-unstable
; #@! TF.CreationDate,2023-09-17T23:29:36
; #@! TF.ProjectId,d0-reader,9220702f-a48e-4216-8865-87f6ea8ca353,v1
; #@! TF.Part,Single
; #@! TF.SameCoordinates
; #@! TF.FileFunction,Plated,1,4,PTH
FMAT,2
METRIC,TZ
; #@! TA.AperFunction,ViaDrill
T1C0.3
; #@! TA.AperFunction,ComponentDrill
T2C0.8
; #@! TA.AperFunction,ComponentDrill
T3C1.0
; #@! TA.AperFunction,ComponentDrill
T4C1.1
%
G90
G05
M71
T1
X-4.683125Y-19.05
X-8.651875Y-10.874375
X3.01625Y10.239375
X8.89Y10.31875
X0.79375Y8.651875
X-13.335Y-14.76375
X-5.23875Y-10.95375
X-0.9525Y-9.2075
X13.17625Y1.5875
X-10.556875Y-7.62
X8.41375Y-10.31875
X-13.335Y-19.288125
X-2.06375Y-6.19125
X2.619375Y-16.51
X-0.47625Y-12.22375
X0.3175Y-12.22375
X-1.905Y-16.113125
X-11.58875Y-16.113125
X2.460625Y-19.288125
X11.985625Y-0.555625
X1.190625Y-3.65125
X-3.095625Y5.953125
X10.63625Y1.905
X-0.47625Y-1.190625
X-10.398125Y8.255
X3.4925Y4.524375
X-10.95375Y-12.22375
X0.0Y1.5875
X3.413125Y-13.81125
X-5.23875Y-13.890625
X-1.74625Y-11.58875
X4.92125Y-12.938125
X6.82625Y-1.42875
X-11.1125Y-11.1125
X5.476875Y-9.921875
X5.87375Y-11.58875
X3.413125Y-18.0975
X7.77875Y-3.96875
X4.1275Y-11.1125
X-10.63625Y-13.81125
X0.3175Y0.0
X-13.0175Y3.65125
X6.35Y10.31875
X7.14375Y-7.77875
X-11.1125Y-10.239375
X4.7625Y-8.5725
X11.27125Y-1.5875
X-11.7475Y-2.69875
X7.699375Y0.238125
X2.06375Y-5.08
X13.255625Y10.31875
X13.17625Y-18.57375
X9.604375Y-17.93875
X3.4925Y-11.7475
X-9.68375Y-13.49375
X12.54125Y-1.5875
X8.175625Y-12.22375
X10.63625Y0.79375
X1.905Y4.28625
X-8.334375Y9.525
X6.35Y-10.00125
X-11.033125Y-9.04875
X5.715Y-8.255
X7.14375Y-8.73125
X0.3175Y-4.60375
X-7.858125Y-10.16
X4.60375Y3.4925
X12.54125Y-19.288125
X-3.175Y-6.19125
X-0.635Y-4.60375
X4.60375Y-18.7325
X6.50875Y-6.6675
X7.3025Y-14.12875
X-8.651875Y-7.77875
X-10.16Y3.01625
X-0.9525Y-16.113125
X0.15875Y-16.113125
X-9.604375Y-7.858125
X-6.50875Y-1.5875
X-5.23875Y-14.9225
X4.683125Y-15.319375
X10.63625Y-17.78
X6.0325Y-18.7325
X7.9375Y-6.6675
X5.55625Y-3.413125
X5.55625Y1.11125
X-6.19125Y-16.430625
X-13.0175Y-2.778125
X-7.381875Y-13.890625
X-2.460625Y-18.811875
X-12.54125Y7.77875
X-6.0325Y-0.714375
X9.2075Y-15.001875
X-10.63625Y-4.445
X2.8575Y-12.85875
X-8.651875Y-13.414375
X11.90625Y-18.57375
X-1.508125Y-18.0975
X1.5875Y-16.03375
X13.17625Y8.5725
X-11.90625Y-4.445
X-8.651875Y-10.16
X6.35Y1.74625
X10.16Y10.31875
X10.715625Y-15.001875
X8.41375Y-19.05
X4.60375Y5.23875
X6.35Y2.54
X9.8425Y-1.5875
X-7.858125Y-10.874375
X6.588125Y-3.889375
T2
X-1.98Y0.0
X-4.52Y0.0
X4.52Y0.0
X1.98Y0.0
T3
G00X-0.2Y4.89
M15
G01X-0.2Y6.99
M16
G05
T4
G00X-6.5Y4.89
M15
G01X-6.5Y6.99
M16
G05
T0
M30
