G04 --- HEADER BEGIN --- *
G04 #@! TF.GenerationSoftware,LibrePCB,LibrePCB,1.0.1-unstable*
G04 #@! TF.CreationDate,2023-09-17T23:29:36*
G04 #@! TF.ProjectId,d0-reader,9220702f-a48e-4216-8865-87f6ea8ca353,v1*
G04 #@! TF.Part,Single*
G04 #@! TF.SameCoordinates*
G04 #@! TF.FileFunction,Legend,Top*
G04 #@! TF.FilePolarity,Positive*
%FSLAX66Y66*%
%MOMM*%
G01*
G75*
G04 --- HEADER END --- *
G04 --- APERTURE LIST BEGIN --- *
%ADD10C,0.2*%
%ADD11C,0.01*%
%ADD12C,0.1*%
%AMROUNDEDRECT13*20,1,1.6,-0.7,0.0,0.7,0.0,0.0*20,1,1.4,-0.8,0.0,0.8,0.0,0.0*1,1,0.2,-0.7,0.7*1,1,0.2,0.7,0.7*1,1,0.2,0.7,-0.7*1,1,0.2,-0.7,-0.7*%
%ADD13ROUNDEDRECT13*%
%ADD14C,1.6*%
%AMROUNDEDRECT15*20,1,0.96,-1.01,0.0,1.01,0.0,90.0*20,1,0.38,-1.3,0.0,1.3,0.0,90.0*1,1,0.58,-0.19,-1.01*1,1,0.58,-0.19,1.01*1,1,0.58,0.19,1.01*1,1,0.58,0.19,-1.01*%
%ADD15ROUNDEDRECT15*%
%ADD16C,1.2*%
%ADD17O,2.2X4.3*%
%AMROUNDEDRECT18*20,1,1.01,-2.0975,0.0,2.0975,0.0,0.0*20,1,0.405,-2.4,0.0,2.4,0.0,0.0*1,1,0.605,-2.0975,0.2025*1,1,0.605,2.0975,0.2025*1,1,0.605,2.0975,-0.2025*1,1,0.605,-2.0975,-0.2025*%
%ADD18ROUNDEDRECT18*%
%AMROUNDEDRECT19*20,1,0.81,-2.1475,0.0,2.1475,0.0,0.0*20,1,0.305,-2.4,0.0,2.4,0.0,0.0*1,1,0.505,-2.1475,0.1525*1,1,0.505,2.1475,0.1525*1,1,0.505,2.1475,-0.1525*1,1,0.505,-2.1475,-0.1525*%
%ADD19ROUNDEDRECT19*%
%AMROUNDEDRECT20*20,1,1.9,-1.7035,0.0,1.7035,0.0,0.0*20,1,1.207,-2.05,0.0,2.05,0.0,0.0*1,1,0.693,-1.7035,0.6035*1,1,0.693,1.7035,0.6035*1,1,0.693,1.7035,-0.6035*1,1,0.693,-1.7035,-0.6035*%
%ADD20ROUNDEDRECT20*%
%ADD21C,3.45*%
G04 --- APERTURE LIST END --- *
G04 --- BOARD BEGIN --- *
D10*
G04 #@! TO.C,J2*
X12090000Y9856250D02*
X12090000Y4396250D01*
X5690000Y4396250D02*
X5690000Y9256250D01*
X12484375Y6507361D02*
X13198819Y6507361D01*
X13341042Y6459583D01*
X13436597Y6364028D01*
X13484375Y6221806D01*
X13484375Y6126250D01*
X12579931Y6955139D02*
X12532153Y7002917D01*
X12484375Y7097361D01*
X12484375Y7336250D01*
X12532153Y7430694D01*
X12579931Y7478472D01*
X12674375Y7526250D01*
X12769931Y7526250D01*
X12913264Y7478472D01*
X13484375Y6907361D01*
X13484375Y7526250D01*
D11*
G04 #@! TO.C,LOGO1*
G36*
X4076250Y3033750D02*
X4496250Y3033750D01*
X4496250Y2833750D01*
X4076250Y2833750D01*
X4076250Y3033750D01*
G37*
G36*
X2916250Y4393750D02*
X3116250Y4393750D01*
X3116250Y4813750D01*
X2916250Y4813750D01*
X2916250Y4393750D01*
G37*
G36*
X2516250Y4393750D02*
X2716250Y4393750D01*
X2716250Y4813750D01*
X2516250Y4813750D01*
X2516250Y4393750D01*
G37*
G36*
X1956250Y3833750D02*
X1536250Y3833750D01*
X1536250Y3633750D01*
X1956250Y3633750D01*
X1956250Y3833750D01*
G37*
G36*
X2916250Y2273750D02*
X3116250Y2273750D01*
X3116250Y1853750D01*
X2916250Y1853750D01*
X2916250Y2273750D01*
G37*
G36*
X2381250Y4180750D02*
X3651250Y4180750D01*
G02*
X3863250Y3968750I0J-212000D01*
G01*
X3863250Y2698750D01*
G02*
X3651250Y2486750I-212000J0D01*
G01*
X2381250Y2486750D01*
G02*
X2169250Y2698750I0J212000D01*
G01*
X2169250Y3798750D01*
X2384250Y3798750D01*
G03*
X2551250Y3631750I167000J0D01*
G01*
G03*
X2718250Y3798750I0J167000D01*
G01*
G03*
X2551250Y3965750I-167000J0D01*
G01*
G03*
X2384250Y3798750I0J-167000D01*
G01*
X2169250Y3798750D01*
X2169250Y3968750D01*
G02*
X2381250Y4180750I212000J0D01*
G01*
G37*
G36*
X4076250Y3833750D02*
X4496250Y3833750D01*
X4496250Y3633750D01*
X4076250Y3633750D01*
X4076250Y3833750D01*
G37*
G36*
X3316250Y4393750D02*
X3516250Y4393750D01*
X3516250Y4813750D01*
X3316250Y4813750D01*
X3316250Y4393750D01*
G37*
G36*
X1956250Y3433750D02*
X1536250Y3433750D01*
X1536250Y3233750D01*
X1956250Y3233750D01*
X1956250Y3433750D01*
G37*
G36*
X2516250Y2273750D02*
X2716250Y2273750D01*
X2716250Y1853750D01*
X2516250Y1853750D01*
X2516250Y2273750D01*
G37*
G36*
X1956250Y3033750D02*
X1536250Y3033750D01*
X1536250Y2833750D01*
X1956250Y2833750D01*
X1956250Y3033750D01*
G37*
G36*
X3316250Y2273750D02*
X3516250Y2273750D01*
X3516250Y1853750D01*
X3316250Y1853750D01*
X3316250Y2273750D01*
G37*
G36*
X4076250Y3433750D02*
X4496250Y3433750D01*
X4496250Y3233750D01*
X4076250Y3233750D01*
X4076250Y3433750D01*
G37*
D10*
X5910000Y1748125D02*
X5910000Y2748125D01*
X6243333Y2033681D01*
X6576667Y2748125D01*
X6576667Y1748125D01*
X7453334Y1748125D02*
X7453334Y2271458D01*
X7405556Y2367014D01*
X7310000Y2414792D01*
X7120000Y2414792D01*
X7024445Y2367014D01*
X7453334Y1795903D02*
X7357778Y1748125D01*
X7120000Y1748125D01*
X7024445Y1795903D01*
X6976667Y1891458D01*
X6976667Y1985903D01*
X7024445Y2081458D01*
X7120000Y2129236D01*
X7357778Y2129236D01*
X7453334Y2177014D01*
X8330001Y1748125D02*
X8330001Y2748125D01*
X8330001Y1795903D02*
X8234445Y1748125D01*
X8043334Y1748125D01*
X7948890Y1795903D01*
X7901112Y1843681D01*
X7853334Y1938125D01*
X7853334Y2224792D01*
X7901112Y2319236D01*
X7948890Y2367014D01*
X8043334Y2414792D01*
X8234445Y2414792D01*
X8330001Y2367014D01*
X9158890Y1795903D02*
X9063334Y1748125D01*
X8873334Y1748125D01*
X8777779Y1795903D01*
X8730001Y1891458D01*
X8730001Y2271458D01*
X8777779Y2367014D01*
X8873334Y2414792D01*
X9063334Y2414792D01*
X9158890Y2367014D01*
X9206668Y2271458D01*
X9206668Y2177014D01*
X8730001Y2081458D01*
X10406667Y2748125D02*
X10644445Y1748125D01*
X10835556Y2462569D01*
X11025556Y1748125D01*
X11263334Y2748125D01*
X11711112Y1748125D02*
X11711112Y2414792D01*
X11711112Y2748125D02*
X11663334Y2700347D01*
X11711112Y2652569D01*
X11758890Y2700347D01*
X11711112Y2748125D01*
X11711112Y2652569D01*
X12158890Y2414792D02*
X12540001Y2414792D01*
X12302223Y2748125D02*
X12302223Y1891458D01*
X12348890Y1795903D01*
X12444446Y1748125D01*
X12540001Y1748125D01*
X12940001Y1748125D02*
X12940001Y2748125D01*
X13368890Y1748125D02*
X13368890Y2271458D01*
X13321112Y2367014D01*
X13225557Y2414792D01*
X13083334Y2414792D01*
X12987779Y2367014D01*
X12940001Y2319236D01*
X6386667Y268125D02*
X5910000Y268125D01*
X5910000Y1268125D01*
X6834445Y268125D02*
X6834445Y934792D01*
X6834445Y1268125D02*
X6786667Y1220347D01*
X6834445Y1172569D01*
X6882223Y1220347D01*
X6834445Y1268125D01*
X6834445Y1172569D01*
X7282223Y268125D02*
X7282223Y1268125D01*
X7282223Y887014D02*
X7377779Y934792D01*
X7567779Y934792D01*
X7663334Y887014D01*
X7711112Y839236D01*
X7758890Y744792D01*
X7758890Y458125D01*
X7711112Y363681D01*
X7663334Y315903D01*
X7567779Y268125D01*
X7377779Y268125D01*
X7282223Y315903D01*
X8158890Y268125D02*
X8158890Y934792D01*
X8158890Y744792D02*
X8206668Y839236D01*
X8254446Y887014D01*
X8348890Y934792D01*
X8444446Y934792D01*
X9273335Y315903D02*
X9177779Y268125D01*
X8987779Y268125D01*
X8892224Y315903D01*
X8844446Y411458D01*
X8844446Y791458D01*
X8892224Y887014D01*
X8987779Y934792D01*
X9177779Y934792D01*
X9273335Y887014D01*
X9321113Y791458D01*
X9321113Y697014D01*
X8844446Y601458D01*
X9721113Y268125D02*
X9721113Y1268125D01*
X10102224Y1268125D01*
X10197780Y1220347D01*
X10244446Y1172569D01*
X10292224Y1078125D01*
X10292224Y934792D01*
X10244446Y839236D01*
X10197780Y791458D01*
X10102224Y744792D01*
X9721113Y744792D01*
X11311113Y363681D02*
X11263335Y315903D01*
X11121113Y268125D01*
X11025557Y268125D01*
X10882224Y315903D01*
X10787780Y411458D01*
X10740002Y505903D01*
X10692224Y697014D01*
X10692224Y839236D01*
X10740002Y1030347D01*
X10787780Y1124792D01*
X10882224Y1220347D01*
X11025557Y1268125D01*
X11121113Y1268125D01*
X11263335Y1220347D01*
X11311113Y1172569D01*
X12044446Y791458D02*
X12187780Y744792D01*
X12234446Y697014D01*
X12282224Y601458D01*
X12282224Y458125D01*
X12234446Y363681D01*
X12187780Y315903D01*
X12092224Y268125D01*
X11711113Y268125D01*
X11711113Y1268125D01*
X12044446Y1268125D01*
X12140002Y1220347D01*
X12187780Y1172569D01*
X12234446Y1078125D01*
X12234446Y982569D01*
X12187780Y887014D01*
X12140002Y839236D01*
X12044446Y791458D01*
X11711113Y791458D01*
D12*
G04 #@! TO.C,TP1*
X2655000Y9604375D02*
G02*
X1155000Y9604375I-750000J0D01*
G01*
G02*
X2655000Y9604375I750000J0D01*
G01*
D10*
X1301875Y5966459D02*
X1301875Y6537570D01*
X2301875Y6252015D02*
X1301875Y6252015D01*
X2301875Y6937570D02*
X1301875Y6937570D01*
X1301875Y7318681D01*
X1349653Y7414237D01*
X1397431Y7460903D01*
X1491875Y7508681D01*
X1635208Y7508681D01*
X1730764Y7460903D01*
X1778542Y7414237D01*
X1825208Y7318681D01*
X1825208Y6937570D01*
X2301875Y8479792D02*
X2301875Y7908681D01*
X2301875Y8194237D02*
X1301875Y8194237D01*
X1445208Y8098681D01*
X1539653Y8004237D01*
X1587431Y7908681D01*
G04 #@! TO.C,J1*
X100000Y1390000D02*
X-14100000Y1390000D01*
X-14100000Y10490000D01*
X100000Y10490000D01*
X100000Y1390000D01*
X-12921250Y88750D02*
X-12206806Y88750D01*
X-12064583Y40972D01*
X-11969028Y-54583D01*
X-11921250Y-196805D01*
X-11921250Y-292361D01*
X-11921250Y1059861D02*
X-11921250Y488750D01*
X-11921250Y774306D02*
X-12921250Y774306D01*
X-12777917Y678750D01*
X-12683472Y584306D01*
X-12635694Y488750D01*
D12*
G04 #@! TO.C,TP2*
X4956875Y9604375D02*
G02*
X3456875Y9604375I-750000J0D01*
G01*
G02*
X4956875Y9604375I750000J0D01*
G01*
D10*
X3683125Y5942570D02*
X3683125Y6513681D01*
X4683125Y6228126D02*
X3683125Y6228126D01*
X4683125Y6913681D02*
X3683125Y6913681D01*
X3683125Y7294792D01*
X3730903Y7390348D01*
X3778681Y7437014D01*
X3873125Y7484792D01*
X4016458Y7484792D01*
X4112014Y7437014D01*
X4159792Y7390348D01*
X4206458Y7294792D01*
X4206458Y6913681D01*
X3778681Y7932570D02*
X3730903Y7980348D01*
X3683125Y8074792D01*
X3683125Y8313681D01*
X3730903Y8408125D01*
X3778681Y8455903D01*
X3873125Y8503681D01*
X3968681Y8503681D01*
X4112014Y8455903D01*
X4683125Y7884792D01*
X4683125Y8503681D01*
G04 #@! TO.C,J3*
X11500000Y-1915000D02*
X11500000Y-1165000D01*
X-6400000Y-1165000D01*
X11500000Y-16715000D02*
X11500000Y-17465000D01*
X-6400000Y-17465000D01*
X-11000000Y-17465000D02*
X-14100000Y-17465000D01*
X-14100000Y-1165000D01*
X-11000000Y-1165000D01*
X-12730000Y-18906389D02*
X-12015556Y-18906389D01*
X-11873333Y-18954167D01*
X-11777778Y-19049722D01*
X-11730000Y-19191944D01*
X-11730000Y-19287500D01*
X-12730000Y-18506389D02*
X-12730000Y-17887500D01*
X-12348889Y-18220833D01*
X-12348889Y-18077500D01*
X-12301111Y-17983056D01*
X-12253333Y-17935278D01*
X-12158889Y-17887500D01*
X-11920000Y-17887500D01*
X-11825556Y-17935278D01*
X-11777778Y-17983056D01*
X-11730000Y-18077500D01*
X-11730000Y-18363056D01*
X-11777778Y-18458611D01*
X-11825556Y-18506389D01*
G04 #@! TD*
X-1983958Y-19050000D02*
X-1983958Y-18050000D01*
X-1983958Y-19002222D02*
X-2079514Y-19050000D01*
X-2270625Y-19050000D01*
X-2365069Y-19002222D01*
X-2412847Y-18954444D01*
X-2460625Y-18860000D01*
X-2460625Y-18573333D01*
X-2412847Y-18478889D01*
X-2365069Y-18431111D01*
X-2270625Y-18383333D01*
X-2079514Y-18383333D01*
X-1983958Y-18431111D01*
X-1346180Y-18050000D02*
X-1250625Y-18050000D01*
X-1155069Y-18097778D01*
X-1107291Y-18145556D01*
X-1060625Y-18240000D01*
X-1012847Y-18431111D01*
X-1012847Y-18668889D01*
X-1060625Y-18860000D01*
X-1107291Y-18954444D01*
X-1155069Y-19002222D01*
X-1250625Y-19050000D01*
X-1346180Y-19050000D01*
X-1440625Y-19002222D01*
X-1488402Y-18954444D01*
X-1536180Y-18860000D01*
X-1583958Y-18668889D01*
X-1583958Y-18431111D01*
X-1536180Y-18240000D01*
X-1488402Y-18145556D01*
X-1440625Y-18097778D01*
X-1346180Y-18050000D01*
X-612847Y-18668889D02*
X149375Y-18668889D01*
X549375Y-19050000D02*
X549375Y-18383333D01*
X549375Y-18573333D02*
X597153Y-18478889D01*
X644931Y-18431111D01*
X739375Y-18383333D01*
X834931Y-18383333D01*
X1663820Y-19002222D02*
X1568264Y-19050000D01*
X1378264Y-19050000D01*
X1282709Y-19002222D01*
X1234931Y-18906667D01*
X1234931Y-18526667D01*
X1282709Y-18431111D01*
X1378264Y-18383333D01*
X1568264Y-18383333D01*
X1663820Y-18431111D01*
X1711598Y-18526667D01*
X1711598Y-18621111D01*
X1234931Y-18716667D01*
X2588265Y-19050000D02*
X2588265Y-18526667D01*
X2540487Y-18431111D01*
X2444931Y-18383333D01*
X2254931Y-18383333D01*
X2159376Y-18431111D01*
X2588265Y-19002222D02*
X2492709Y-19050000D01*
X2254931Y-19050000D01*
X2159376Y-19002222D01*
X2111598Y-18906667D01*
X2111598Y-18812222D01*
X2159376Y-18716667D01*
X2254931Y-18668889D01*
X2492709Y-18668889D01*
X2588265Y-18621111D01*
X3464932Y-19050000D02*
X3464932Y-18050000D01*
X3464932Y-19002222D02*
X3369376Y-19050000D01*
X3178265Y-19050000D01*
X3083821Y-19002222D01*
X3036043Y-18954444D01*
X2988265Y-18860000D01*
X2988265Y-18573333D01*
X3036043Y-18478889D01*
X3083821Y-18431111D01*
X3178265Y-18383333D01*
X3369376Y-18383333D01*
X3464932Y-18431111D01*
X4293821Y-19002222D02*
X4198265Y-19050000D01*
X4008265Y-19050000D01*
X3912710Y-19002222D01*
X3864932Y-18906667D01*
X3864932Y-18526667D01*
X3912710Y-18431111D01*
X4008265Y-18383333D01*
X4198265Y-18383333D01*
X4293821Y-18431111D01*
X4341599Y-18526667D01*
X4341599Y-18621111D01*
X3864932Y-18716667D01*
X4741599Y-19050000D02*
X4741599Y-18383333D01*
X4741599Y-18573333D02*
X4789377Y-18478889D01*
X4837155Y-18431111D01*
X4931599Y-18383333D01*
X5027155Y-18383333D01*
X6227154Y-18383333D02*
X6464932Y-19050000D01*
X6703821Y-18383333D01*
X7674932Y-19050000D02*
X7103821Y-19050000D01*
X7389377Y-19050000D02*
X7389377Y-18050000D01*
X7293821Y-18193333D01*
X7199377Y-18287778D01*
X7103821Y-18335556D01*
%LPC*%
D13*
G04 #@! TO.C,T1*
X1980000Y0D03*
D14*
X4520000Y0D03*
D15*
G04 #@! TO.C,J2*
X8890000Y4871250D03*
X8890000Y8781250D03*
X6350000Y8781250D03*
X10160000Y8781250D03*
X6350000Y4871250D03*
X7620000Y4871250D03*
X7620000Y8781250D03*
X11430000Y8781250D03*
X11430000Y4871250D03*
X10160000Y4871250D03*
D16*
G04 #@! TO.C,TP1*
X1905000Y9604375D03*
D13*
G04 #@! TO.C,LED1*
X-4520000Y0D03*
D14*
X-1980000Y0D03*
D17*
G04 #@! TO.C,J1*
X-6500000Y5940000D03*
X-200000Y5940000D03*
D16*
G04 #@! TO.C,TP2*
X4206875Y9604375D03*
D18*
G04 #@! TO.C,J3*
X11200000Y-15925000D03*
D19*
X11200000Y-5745000D03*
X11200000Y-8805000D03*
X11200000Y-7785000D03*
D18*
X11200000Y-4545000D03*
D19*
X11200000Y-12885000D03*
D20*
X-8720000Y-18385000D03*
D19*
X11200000Y-9825000D03*
D18*
X11200000Y-14085000D03*
D19*
X11200000Y-6765000D03*
D20*
X-8720000Y-245000D03*
D18*
X11200000Y-2705000D03*
D19*
X11200000Y-11865000D03*
X11200000Y-10845000D03*
D21*
G04 #@! TD*
X-8720000Y-2965000D03*
X-8720000Y-15665000D03*
G04 --- BOARD END --- *
G04 #@! TF.MD5,aff6a64e18715a1d780c0e42f9e7177c*
M02*
