G04 --- HEADER BEGIN --- *
G04 #@! TF.GenerationSoftware,LibrePCB,LibrePCB,1.0.1-unstable*
G04 #@! TF.CreationDate,2023-09-17T23:29:36*
G04 #@! TF.ProjectId,d0-reader,9220702f-a48e-4216-8865-87f6ea8ca353,v1*
G04 #@! TF.Part,Single*
G04 #@! TF.SameCoordinates*
G04 #@! TF.FileFunction,Copper,L1,Top*
G04 #@! TF.FilePolarity,Positive*
%FSLAX66Y66*%
%MOMM*%
G01*
G75*
G04 --- HEADER END --- *
G04 --- APERTURE LIST BEGIN --- *
G04 #@! TA.AperFunction,ComponentPad*
%ADD10R,1.4X1.4*%
%ADD11C,1.4*%
G04 #@! TA.AperFunction,SMDPad,CuDef*
%AMROUNDEDRECT12*20,1,0.76,-1.01,0.0,1.01,0.0,90.0*20,1,0.38,-1.2,0.0,1.2,0.0,90.0*1,1,0.38,-0.19,-1.01*1,1,0.38,-0.19,1.01*1,1,0.38,0.19,1.01*1,1,0.38,0.19,-1.01*%
%ADD12ROUNDEDRECT12*%
G04 #@! TA.AperFunction,TestPad*
%ADD13C,1.0*%
G04 #@! TA.AperFunction,ComponentPad*
%ADD14O,2.0X4.1*%
G04 #@! TA.AperFunction,SMDPad,CuDef*
%AMROUNDEDRECT15*20,1,0.81,-2.0975,0.0,2.0975,0.0,0.0*20,1,0.405,-2.3,0.0,2.3,0.0,0.0*1,1,0.405,-2.0975,0.2025*1,1,0.405,2.0975,0.2025*1,1,0.405,2.0975,-0.2025*1,1,0.405,-2.0975,-0.2025*%
%ADD15ROUNDEDRECT15*%
%AMROUNDEDRECT16*20,1,0.61,-2.1475,0.0,2.1475,0.0,0.0*20,1,0.305,-2.3,0.0,2.3,0.0,0.0*1,1,0.305,-2.1475,0.1525*1,1,0.305,2.1475,0.1525*1,1,0.305,2.1475,-0.1525*1,1,0.305,-2.1475,-0.1525*%
%ADD16ROUNDEDRECT16*%
%AMROUNDEDRECT17*20,1,1.7,-1.7035,0.0,1.7035,0.0,0.0*20,1,1.207,-1.95,0.0,1.95,0.0,0.0*1,1,0.493,-1.7035,0.6035*1,1,0.493,1.7035,0.6035*1,1,0.493,1.7035,-0.6035*1,1,0.493,-1.7035,-0.6035*%
%ADD17ROUNDEDRECT17*%
G04 #@! TA.AperFunction,ViaPad*
%ADD18C,0.7*%
G04 #@! TA.AperFunction,Conductor*
%ADD19C,0.2*%
%ADD20C,0.01*%
G04 #@! TD*
G04 --- APERTURE LIST END --- *
G04 --- BOARD BEGIN --- *
D10*
G04 #@! TO.N,IR_RX*
G04 #@! TO.C,T1*
G04 #@! TO.P,T1,C,C*
X1980000Y0D03*
D11*
G04 #@! TO.N,GND*
G04 #@! TO.P,T1,A,E*
X4520000Y0D03*
D12*
G04 #@! TO.N,N/C*
G04 #@! TO.C,J2*
G04 #@! TO.P,J2,6,6*
X8890000Y4871250D03*
G04 #@! TO.N,GND*
G04 #@! TO.P,J2,5,5*
X8890000Y8781250D03*
G04 #@! TO.P,J2,9,9*
X6350000Y8781250D03*
G04 #@! TO.P,J2,3,3*
X10160000Y8781250D03*
G04 #@! TO.N,!RST*
G04 #@! TO.P,J2,10,10*
X6350000Y4871250D03*
G04 #@! TO.N,N/C*
G04 #@! TO.P,J2,8,8*
X7620000Y4871250D03*
G04 #@! TO.P,J2,7,7*
X7620000Y8781250D03*
G04 #@! TO.N,3V3*
G04 #@! TO.P,J2,1,1*
X11430000Y8781250D03*
G04 #@! TO.N,SWDIO*
G04 #@! TO.P,J2,2,2*
X11430000Y4871250D03*
G04 #@! TO.N,SWCLK*
G04 #@! TO.P,J2,4,4*
X10160000Y4871250D03*
D13*
G04 #@! TO.N,TEST1*
G04 #@! TO.C,TP1*
G04 #@! TO.P,TP1,1,1*
X1905000Y9604375D03*
D10*
G04 #@! TO.N,N1*
G04 #@! TO.C,LED1*
G04 #@! TO.P,LED1,C,C*
X-4520000Y0D03*
D11*
G04 #@! TO.N,N7*
G04 #@! TO.P,LED1,A,A*
X-1980000Y0D03*
D14*
G04 #@! TO.N,GND*
G04 #@! TO.C,J1*
G04 #@! TO.P,J1,2,2*
X-6500000Y5940000D03*
G04 #@! TO.N,VIN*
G04 #@! TO.P,J1,1,1*
X-200000Y5940000D03*
D13*
G04 #@! TO.N,TEST2*
G04 #@! TO.C,TP2*
G04 #@! TO.P,TP2,1,1*
X4206875Y9604375D03*
D15*
G04 #@! TO.N,N12*
G04 #@! TO.C,J3*
G04 #@! TO.P,J3,1,LED_Yellow_A*
X11200000Y-15925000D03*
D16*
G04 #@! TO.N,GND*
G04 #@! TO.P,J3,10,CHS_GND*
X11200000Y-5745000D03*
G04 #@! TO.N,RXP*
G04 #@! TO.P,J3,7,RD+*
X11200000Y-8805000D03*
G04 #@! TO.N,RXN*
G04 #@! TO.P,J3,8,RD-*
X11200000Y-7785000D03*
D15*
G04 #@! TO.N,N13*
G04 #@! TO.P,J3,11,LED_Green_C*
X11200000Y-4545000D03*
D16*
G04 #@! TO.N,TXP*
G04 #@! TO.P,J3,3,TD+*
X11200000Y-12885000D03*
D17*
G04 #@! TO.N,GND*
G04 #@! TO.P,J3,SHIELD,SHIELD*
X-8720000Y-18385000D03*
D16*
G04 #@! TO.N,N20*
G04 #@! TO.P,J3,6,RX_CT*
X11200000Y-9825000D03*
D15*
G04 #@! TO.N,N11*
G04 #@! TO.P,J3,2,LED_Yellow_C*
X11200000Y-14085000D03*
D16*
G04 #@! TO.N,N/C*
G04 #@! TO.P,J3,9*
X11200000Y-6765000D03*
D17*
G04 #@! TO.N,GND*
G04 #@! TO.P,J3,SHIELD,SHIELD*
X-8720000Y-245000D03*
D15*
G04 #@! TO.N,N24*
G04 #@! TO.P,J3,12,LED_Green_A*
X11200000Y-2705000D03*
D16*
G04 #@! TO.N,TXN*
G04 #@! TO.P,J3,4,TD-*
X11200000Y-11865000D03*
G04 #@! TO.N,N20*
G04 #@! TO.P,J3,5,TX_CT*
X11200000Y-10845000D03*
D18*
G04 #@! TD.C*
G04 #@! TD.P*
G04 #@! TO.N,GND*
X6588125Y-3889375D03*
X-7858125Y-10874375D03*
X9842500Y-1587500D03*
X6350000Y2540000D03*
X4603750Y5238750D03*
G04 #@! TO.N,N11*
X8413750Y-19050000D03*
D19*
X6667500Y-13493750D02*
X6350000Y-13811250D01*
X8096250Y-13493750D02*
X6667500Y-13493750D01*
X6350000Y-13811250D02*
X6350000Y-16986250D01*
X8687500Y-14085000D02*
X8096250Y-13493750D01*
X8255000Y-18891250D02*
X8413750Y-19050000D01*
X11200000Y-14085000D02*
X8687500Y-14085000D01*
X6350000Y-16986250D02*
X8413750Y-19050000D01*
D18*
G04 #@! TO.N,IR_RX*
X10715625Y-15001875D03*
G04 #@! TO.N,GND*
X10160000Y10318750D03*
D19*
X10160000Y10318750D02*
X10160000Y8781250D01*
D18*
X6350000Y1746250D03*
X-8651875Y-10160000D03*
X-11906250Y-4445000D03*
G04 #@! TO.N,3V3*
X13176250Y8572500D03*
D19*
X12967500Y8781250D02*
X13176250Y8572500D01*
X11430000Y8781250D02*
X12967500Y8781250D01*
D18*
G04 #@! TO.N,!LAN_RST*
X1587500Y-16033750D03*
X-1508125Y-18097500D03*
D19*
X1587500Y-16033750D02*
X-476250Y-18097500D01*
X-1508125Y-18097500D02*
X-476250Y-18097500D01*
D18*
G04 #@! TO.N,GND*
X11906250Y-18573750D03*
G04 #@! TO.N,RMII_TXEN*
X-8651875Y-13414375D03*
X2857500Y-12858750D03*
D19*
X-6905625Y-13255625D02*
X2460625Y-13255625D01*
X2857500Y-12858750D02*
X2857500Y-12858750D01*
X-8413750Y-13176250D02*
X-8651875Y-13414375D01*
X2460625Y-13255625D02*
X2857500Y-12858750D01*
X2857500Y-12858750D02*
X2857500Y-12858750D01*
X-6985000Y-13176250D02*
X-6905625Y-13255625D01*
X-8413750Y-13176250D02*
X-6985000Y-13176250D01*
D18*
G04 #@! TO.N,3V3*
X-10636250Y-4445000D03*
G04 #@! TO.N,IR_TX*
X9207500Y-15001875D03*
X-6032500Y-714375D03*
G04 #@! TO.N,GND*
X-12541250Y7778750D03*
G04 #@! TO.N,N8*
X-2460625Y-18811875D03*
X-7381875Y-13890625D03*
D19*
X-2460625Y-18811875D02*
X-7381875Y-13890625D01*
D18*
G04 #@! TO.N,GND*
X-13017500Y-2778125D03*
X-6191250Y-16430625D03*
G04 #@! TO.N,!RST*
X5556250Y1111250D03*
X5556250Y-3413125D03*
X7937500Y-6667500D03*
D19*
X5556250Y-4286250D02*
X5556250Y-4286250D01*
X5556250Y-3413125D02*
X5556250Y-4286250D01*
X5556250Y2857500D02*
X5556250Y1111250D01*
X6350000Y4871250D02*
X6350000Y3651250D01*
X5556250Y-4286250D02*
X7937500Y-6667500D01*
X6350000Y3651250D02*
X5556250Y2857500D01*
D18*
G04 #@! TO.N,GND*
X6032500Y-18732500D03*
G04 #@! TO.N,3V3*
X10636250Y-17780000D03*
G04 #@! TO.N,RMII_MDC*
X4683125Y-15319375D03*
X-5238750Y-14922500D03*
D19*
X-4841875Y-15319375D02*
X-5238750Y-14922500D01*
X4683125Y-15319375D02*
X-4841875Y-15319375D01*
D18*
G04 #@! TO.N,GND*
X-6508750Y-1587500D03*
G04 #@! TO.N,N24*
X-9604375Y-7858125D03*
D19*
X-9525000Y-7143750D02*
X-9525000Y-7778750D01*
X11200000Y-2705000D02*
X-5086250Y-2705000D01*
X-5086250Y-2705000D02*
X-9525000Y-7143750D01*
X-9525000Y-7778750D02*
X-9604375Y-7858125D01*
D18*
G04 #@! TO.N,GND*
X158750Y-16113125D03*
X-952500Y-16113125D03*
X-10160000Y3016250D03*
G04 #@! TO.N,N12*
X-8651875Y-7778750D03*
X7302500Y-14128750D03*
X6508750Y-6667500D03*
D19*
X-8651875Y-7778750D02*
X-7143750Y-7778750D01*
X-1111250Y-6191250D02*
X6032500Y-6191250D01*
X9098750Y-15925000D02*
X7302500Y-14128750D01*
X-1746250Y-6826250D02*
X-1111250Y-6191250D01*
X-6191250Y-6826250D02*
X-1746250Y-6826250D01*
X6508750Y-6667500D02*
X6032500Y-6191250D01*
X-7143750Y-7778750D02*
X-6191250Y-6826250D01*
X11200000Y-15925000D02*
X9098750Y-15925000D01*
D18*
G04 #@! TO.N,3V3*
X4603750Y-18732500D03*
G04 #@! TO.N,GND*
X-635000Y-4603750D03*
X-3175000Y-6191250D03*
X12541250Y-19288125D03*
G04 #@! TO.N,3V3*
X4603750Y3492500D03*
G04 #@! TO.N,GND*
X-7858125Y-10160000D03*
G04 #@! TO.N,3V3*
X317500Y-4603750D03*
G04 #@! TO.N,RXP*
X7143750Y-8731250D03*
X5715000Y-8255000D03*
X-11033125Y-9048750D03*
D19*
X-6667500Y-9048750D02*
X-5556250Y-7937500D01*
X5397500Y-7937500D02*
X5715000Y-8255000D01*
X10332500Y-8731250D02*
X11200000Y-8805000D01*
X-11033125Y-9048750D02*
X-6667500Y-9048750D01*
X-5556250Y-7937500D02*
X5397500Y-7937500D01*
X7143750Y-8731250D02*
X10332500Y-8731250D01*
D18*
G04 #@! TO.N,GND*
X6350000Y-10001250D03*
X-8334375Y9525000D03*
G04 #@! TO.N,TEST1*
X1905000Y4286250D03*
D19*
X1905000Y4286250D02*
X1905000Y4286250D01*
X1905000Y9604375D02*
X1905000Y4286250D01*
D18*
G04 #@! TO.N,SWDIO*
X10636250Y793750D03*
D19*
X11430000Y1587500D02*
X10636250Y793750D01*
X11430000Y4871250D02*
X11430000Y1587500D01*
D18*
G04 #@! TO.N,GND*
X8175625Y-12223750D03*
X12541250Y-1587500D03*
G04 #@! TO.N,RMII_TXD0*
X-9683750Y-13493750D03*
X3492500Y-11747500D03*
D19*
X-714375Y-11509375D02*
X-2063750Y-12858750D01*
X1746250Y-11747500D02*
X3492500Y-11747500D01*
X1031875Y-11747500D02*
X1031875Y-12700000D01*
X3492500Y-11747500D02*
X3492500Y-11747500D01*
X1587500Y-12700000D02*
X1587500Y-11906250D01*
X1428750Y-12858750D02*
X1587500Y-12700000D01*
X-714375Y-11509375D02*
X793750Y-11509375D01*
X1031875Y-12700000D02*
X1190625Y-12858750D01*
X1587500Y-11906250D02*
X1746250Y-11747500D01*
X1190625Y-12858750D02*
X1428750Y-12858750D01*
X-6746875Y-12858750D02*
X-6826250Y-12779375D01*
X-8969375Y-12779375D02*
X-9683750Y-13493750D01*
X-2063750Y-12858750D02*
X-6746875Y-12858750D01*
X-6826250Y-12779375D02*
X-8969375Y-12779375D01*
X793750Y-11509375D02*
X1031875Y-11747500D01*
D18*
G04 #@! TO.N,GND*
X9604375Y-17938750D03*
G04 #@! TO.N,3V3*
X13176250Y-18573750D03*
G04 #@! TO.N,GND*
X13255625Y10318750D03*
X2063750Y-5080000D03*
X7699375Y238125D03*
X-11747500Y-2698750D03*
G04 #@! TO.N,3V3*
X11271250Y-1587500D03*
G04 #@! TO.N,RXN*
X4762500Y-8572500D03*
X-11112500Y-10239375D03*
X7143750Y-7778750D03*
D19*
X-5397500Y-8572500D02*
X-6350000Y-9525000D01*
X7143750Y-7778750D02*
X10082500Y-7778750D01*
X-9048750Y-9525000D02*
X-9763125Y-10239375D01*
X10082500Y-7778750D02*
X11200000Y-7785000D01*
X4445000Y-8572500D02*
X4762500Y-8572500D01*
X-5397500Y-8572500D02*
X4445000Y-8572500D01*
X-11112500Y-10239375D02*
X-9763125Y-10239375D01*
X-6350000Y-9525000D02*
X-9048750Y-9525000D01*
D18*
G04 #@! TO.N,GND*
X6350000Y10318750D03*
D19*
X6350000Y10318750D02*
X6350000Y8781250D01*
D18*
X-13017500Y3651250D03*
X317500Y0D03*
G04 #@! TO.N,RMII_TXD1*
X-10636250Y-13811250D03*
X4127500Y-11112500D03*
D19*
X-9683750Y-12382500D02*
X-10636250Y-13335000D01*
X-3889375Y-12461875D02*
X-6429375Y-12461875D01*
X-6429375Y-12461875D02*
X-6508750Y-12382500D01*
X-6508750Y-12382500D02*
X-9683750Y-12382500D01*
X-2381250Y-10953750D02*
X3968750Y-10953750D01*
X3968750Y-10953750D02*
X4127500Y-11112500D01*
X-3889375Y-12461875D02*
X-2381250Y-10953750D01*
X-10636250Y-13811250D02*
X-10636250Y-13335000D01*
D18*
G04 #@! TO.N,N13*
X7778750Y-3968750D03*
D19*
X8355000Y-4545000D02*
X7778750Y-3968750D01*
X11200000Y-4545000D02*
X8355000Y-4545000D01*
D18*
G04 #@! TO.N,GND*
X3413125Y-18097500D03*
G04 #@! TO.N,TXP*
X5873750Y-11588750D03*
X5476875Y-9921875D03*
X-11112500Y-11112500D03*
D19*
X7170000Y-12885000D02*
X5873750Y-11588750D01*
X-4683125Y-11588750D02*
X-6032500Y-11588750D01*
X-6032500Y-11588750D02*
X-6111875Y-11509375D01*
X11200000Y-12885000D02*
X7170000Y-12885000D01*
X-4683125Y-11588750D02*
X-3016250Y-9921875D01*
X5476875Y-9921875D02*
X-3016250Y-9921875D01*
X-11112500Y-11112500D02*
X-10239375Y-11112500D01*
X11173750Y-12858750D02*
X11200000Y-12885000D01*
X-6111875Y-11509375D02*
X-9842500Y-11509375D01*
X-9842500Y-11509375D02*
X-10239375Y-11112500D01*
D18*
G04 #@! TO.N,GND*
X6826250Y-1428750D03*
X4921250Y-12938125D03*
X-1746250Y-11588750D03*
G04 #@! TO.N,RMII_MDIO*
X-5238750Y-13890625D03*
X3413125Y-13811250D03*
D19*
X-4841875Y-14287500D02*
X-4524375Y-14287500D01*
X0Y-14287500D02*
X476250Y-13811250D01*
X1508125Y-14287500D02*
X1984375Y-13811250D01*
X-4524375Y-14287500D02*
X-4048125Y-13811250D01*
X-4048125Y-13811250D02*
X-3810000Y-13811250D01*
X2698750Y-14287500D02*
X2936875Y-14287500D01*
X-2619375Y-13811250D02*
X-2301875Y-13811250D01*
X-4841875Y-14287500D02*
X-5238750Y-13890625D01*
X476250Y-13811250D02*
X714375Y-13811250D01*
X-1825625Y-14287500D02*
X-1508125Y-14287500D01*
X2222500Y-13811250D02*
X2698750Y-14287500D01*
X1984375Y-13811250D02*
X2222500Y-13811250D01*
X714375Y-13811250D02*
X1190625Y-14287500D01*
X-3333750Y-14287500D02*
X-3095625Y-14287500D01*
X1190625Y-14287500D02*
X1508125Y-14287500D01*
X-317500Y-14287500D02*
X0Y-14287500D01*
X-2301875Y-13811250D02*
X-1825625Y-14287500D01*
X-1508125Y-14287500D02*
X-1031875Y-13811250D01*
X-1031875Y-13811250D02*
X-793750Y-13811250D01*
X-3810000Y-13811250D02*
X-3333750Y-14287500D01*
X-3095625Y-14287500D02*
X-2619375Y-13811250D01*
X-793750Y-13811250D02*
X-317500Y-14287500D01*
X2936875Y-14287500D02*
X3413125Y-13811250D01*
D18*
G04 #@! TO.N,3V3*
X0Y1587500D03*
G04 #@! TO.N,TXN*
X-10953750Y-12223750D03*
D19*
X-6270625Y-11985625D02*
X-6350000Y-11906250D01*
X7302500Y-11985625D02*
X7540625Y-11747500D01*
X7540625Y-11747500D02*
X7540625Y-11350625D01*
X-10953750Y-12223750D02*
X-10160000Y-12223750D01*
X8731250Y-11826875D02*
X11161875Y-11826875D01*
X6746875Y-11747500D02*
X6985000Y-11985625D01*
X4603750Y-10477500D02*
X4921250Y-10795000D01*
X6985000Y-11985625D02*
X7302500Y-11985625D01*
X-2698750Y-10477500D02*
X4603750Y-10477500D01*
X8413750Y-11191875D02*
X8572500Y-11350625D01*
X-6350000Y-11906250D02*
X-9842500Y-11906250D01*
X4921250Y-10795000D02*
X6508750Y-10795000D01*
X11161875Y-11826875D02*
X11200000Y-11865000D01*
X-4206875Y-11985625D02*
X-2698750Y-10477500D01*
X8572500Y-11668125D02*
X8731250Y-11826875D01*
X8572500Y-11350625D02*
X8572500Y-11668125D01*
X7540625Y-11350625D02*
X7699375Y-11191875D01*
X7699375Y-11191875D02*
X8413750Y-11191875D01*
X-4206875Y-11985625D02*
X-6270625Y-11985625D01*
X6746875Y-11033125D02*
X6508750Y-10795000D01*
X-9842500Y-11906250D02*
X-10160000Y-12223750D01*
X6746875Y-11033125D02*
X6746875Y-11747500D01*
D18*
G04 #@! TO.N,TEST2*
X3492500Y4524375D03*
D19*
X3492500Y4524375D02*
X3492500Y4524375D01*
X3492500Y8890000D02*
X4206875Y9604375D01*
X3492500Y4524375D02*
X3492500Y8890000D01*
D18*
G04 #@! TO.N,STATUS_LED*
X-10398125Y8255000D03*
X-476250Y-1190625D03*
D19*
X-2619375Y2778125D02*
X-7461250Y2778125D01*
X-10398125Y8255000D02*
X-10398125Y5715000D01*
X-476250Y-1190625D02*
X-476250Y635000D01*
X-7461250Y2778125D02*
X-10398125Y5715000D01*
X-476250Y635000D02*
X-2619375Y2778125D01*
D18*
G04 #@! TO.N,SWCLK*
X10636250Y1905000D03*
D19*
X10160000Y2381250D02*
X10636250Y1905000D01*
X10160000Y4871250D02*
X10160000Y2381250D01*
D18*
G04 #@! TO.N,GND*
X-3095625Y5953125D03*
X1190625Y-3651250D03*
X11985625Y-555625D03*
X2460625Y-19288125D03*
X-11588750Y-16113125D03*
G04 #@! TO.N,3V3*
X-1905000Y-16113125D03*
X317500Y-12223750D03*
X-476250Y-12223750D03*
G04 #@! TO.N,GND*
X2619375Y-16510000D03*
G04 #@! TO.N,3V3*
X-2063750Y-6191250D03*
G04 #@! TO.N,GND*
X-13335000Y-19288125D03*
G04 #@! TO.N,N20*
X8413750Y-10318750D03*
X-10556875Y-7620000D03*
D19*
X6350000Y-7620000D02*
X6350000Y-8255000D01*
X-10001250Y-8572500D02*
X-6985000Y-8572500D01*
X8413750Y-9842500D02*
X7302500Y-9842500D01*
X6350000Y-8890000D02*
X7302500Y-9842500D01*
X4603750Y-7302500D02*
X6032500Y-7302500D01*
X-10556875Y-7620000D02*
X-10556875Y-8016875D01*
X8413750Y-9842500D02*
X8413750Y-10318750D01*
X8413750Y-9842500D02*
X11182500Y-9842500D01*
X4603750Y-7302500D02*
X4603750Y-7302500D01*
X-6985000Y-8572500D02*
X-5715000Y-7302500D01*
X11182500Y-9842500D02*
X11200000Y-9825000D01*
X6032500Y-7302500D02*
X6350000Y-7620000D01*
X8940000Y-10845000D02*
X8413750Y-10318750D01*
X11200000Y-10845000D02*
X8940000Y-10845000D01*
X-5715000Y-7302500D02*
X4603750Y-7302500D01*
X6350000Y-8255000D02*
X6350000Y-8890000D01*
X-10556875Y-8016875D02*
X-10001250Y-8572500D01*
D18*
G04 #@! TO.N,GND*
X13176250Y1587500D03*
G04 #@! TO.N,N18*
X-952500Y-9207500D03*
X-5238750Y-10953750D03*
D19*
X-3492500Y-9207500D02*
X-5238750Y-10953750D01*
X-952500Y-9207500D02*
X-3492500Y-9207500D01*
D18*
G04 #@! TO.N,GND*
X-13335000Y-14763750D03*
X793750Y8651875D03*
X8890000Y10318750D03*
D19*
X8890000Y10318750D02*
X8890000Y8781250D01*
D18*
X3016250Y10239375D03*
X-8651875Y-10874375D03*
X-4683125Y-19050000D03*
D20*
G04 #@! TA.AperFunction,Conductor*
G36*
X-13700000Y-19600001D02*
X-13680500Y-19659328D01*
X-13600001Y-19700000D01*
X-10624371Y-19700000D01*
X-10565044Y-19680500D01*
X-10528855Y-19629605D01*
X-10529917Y-19567164D01*
X-10586103Y-19507614D01*
X-10690695Y-19464291D01*
X-10701950Y-19457793D01*
X-10804734Y-19378924D01*
X-10813924Y-19369734D01*
X-10892793Y-19266950D01*
X-10899291Y-19255695D01*
X-10948870Y-19136001D01*
X-10952234Y-19123445D01*
X-10969571Y-18991756D01*
X-10970000Y-18985219D01*
X-10970000Y-18551018D01*
X-10968434Y-18546253D01*
X-10946172Y-18535005D01*
X-10670000Y-18535005D01*
X-10670000Y-18988500D01*
X-10651236Y-19082831D01*
X-10597802Y-19162802D01*
X-10517831Y-19216236D01*
X-10423500Y-19235000D01*
X-7016500Y-19235000D01*
X-6922169Y-19216236D01*
X-6842198Y-19162802D01*
X-6788764Y-19082831D01*
X-6770000Y-18988500D01*
X-6770000Y-18535005D01*
X-6486013Y-18535005D01*
X-6481248Y-18536571D01*
X-6470000Y-18558833D01*
X-6470000Y-18985219D01*
X-6470429Y-18991756D01*
X-6487766Y-19123445D01*
X-6491130Y-19136001D01*
X-6540709Y-19255695D01*
X-6547207Y-19266950D01*
X-6626076Y-19369734D01*
X-6635266Y-19378924D01*
X-6738050Y-19457793D01*
X-6749305Y-19464291D01*
X-6853897Y-19507614D01*
X-6901246Y-19548333D01*
X-6915204Y-19609203D01*
X-6890327Y-19666484D01*
X-6815629Y-19700000D01*
X4531453Y-19700000D01*
X4531453Y-19377761D01*
X4519524Y-19376312D01*
X4379135Y-19341710D01*
X4367899Y-19337449D01*
X4239863Y-19270251D01*
X4229980Y-19263428D01*
X4121744Y-19167540D01*
X4113784Y-19158555D01*
X4031638Y-19039545D01*
X4026060Y-19028917D01*
X3974781Y-18893707D01*
X3971909Y-18882054D01*
X3954479Y-18738504D01*
X3954479Y-18726496D01*
X3971909Y-18582946D01*
X3974781Y-18571293D01*
X4026060Y-18436083D01*
X4031638Y-18425455D01*
X4113784Y-18306445D01*
X4121744Y-18297460D01*
X4229980Y-18201572D01*
X4239863Y-18194749D01*
X4367899Y-18127551D01*
X4379135Y-18123290D01*
X4519524Y-18088688D01*
X4531453Y-18087239D01*
X4676047Y-18087239D01*
X4687976Y-18088688D01*
X4828365Y-18123290D01*
X4839601Y-18127551D01*
X4967637Y-18194749D01*
X4977520Y-18201572D01*
X5085756Y-18297460D01*
X5093716Y-18306445D01*
X5175862Y-18425455D01*
X5181440Y-18436083D01*
X5232719Y-18571293D01*
X5235591Y-18582946D01*
X5253021Y-18726496D01*
X5253021Y-18738504D01*
X5235591Y-18882054D01*
X5232719Y-18893707D01*
X5181440Y-19028917D01*
X5175862Y-19039545D01*
X5093716Y-19158555D01*
X5085756Y-19167540D01*
X4977520Y-19263428D01*
X4967637Y-19270251D01*
X4839601Y-19337449D01*
X4828365Y-19341710D01*
X4687976Y-19376312D01*
X4676047Y-19377761D01*
X4531453Y-19377761D01*
X4531453Y-19700000D01*
X7910708Y-19700000D01*
X7970035Y-19680500D01*
X8006224Y-19629605D01*
X8005162Y-19567164D01*
X7977020Y-19525151D01*
X7931744Y-19485040D01*
X7923784Y-19476055D01*
X7841638Y-19357045D01*
X7836060Y-19346417D01*
X7784781Y-19211207D01*
X7781909Y-19199554D01*
X7764479Y-19056004D01*
X7764479Y-19043994D01*
X7767010Y-19023147D01*
X7738450Y-18940385D01*
X6069935Y-17271870D01*
X6064845Y-17265911D01*
X6053282Y-17249995D01*
X6043091Y-17238062D01*
X6031956Y-17226927D01*
X6022823Y-17214356D01*
X6015672Y-17200322D01*
X6007473Y-17186943D01*
X5998224Y-17174213D01*
X5991166Y-17160361D01*
X5986303Y-17145394D01*
X5980298Y-17130896D01*
X5973148Y-17116864D01*
X5968346Y-17102085D01*
X5965884Y-17086538D01*
X5962220Y-17071278D01*
X5957357Y-17056312D01*
X5954925Y-17040955D01*
X5954925Y-17025217D01*
X5953694Y-17009574D01*
X5950615Y-16990132D01*
X5950000Y-16982319D01*
X5950000Y-13815181D01*
X5950615Y-13807368D01*
X5953695Y-13787920D01*
X5954926Y-13772277D01*
X5954926Y-13756545D01*
X5957358Y-13741190D01*
X5962219Y-13726229D01*
X5965882Y-13710971D01*
X5968345Y-13695417D01*
X5973149Y-13680634D01*
X5980298Y-13666605D01*
X5986304Y-13652104D01*
X5991167Y-13637138D01*
X5998225Y-13623285D01*
X6007474Y-13610555D01*
X6015673Y-13597176D01*
X6022823Y-13583144D01*
X6031956Y-13570573D01*
X6043090Y-13559439D01*
X6053281Y-13547507D01*
X6064850Y-13531584D01*
X6069935Y-13525630D01*
X6381880Y-13213685D01*
X6387834Y-13208600D01*
X6403757Y-13197031D01*
X6415689Y-13186840D01*
X6426819Y-13175710D01*
X6439401Y-13166569D01*
X6453420Y-13159426D01*
X6466803Y-13151226D01*
X6479540Y-13141972D01*
X6493387Y-13134916D01*
X6508358Y-13130052D01*
X6522856Y-13124047D01*
X6536886Y-13116898D01*
X6551665Y-13112096D01*
X6567212Y-13109634D01*
X6582472Y-13105970D01*
X6604926Y-13098674D01*
X6604399Y-13097051D01*
X6651633Y-13072783D01*
X6679418Y-13016855D01*
X6651157Y-12931843D01*
X5982614Y-12263300D01*
X5911904Y-12234011D01*
X5801453Y-12234011D01*
X5789524Y-12232562D01*
X5649135Y-12197960D01*
X5637899Y-12193699D01*
X5509863Y-12126501D01*
X5499980Y-12119678D01*
X5391744Y-12023790D01*
X5383784Y-12014805D01*
X5301638Y-11895795D01*
X5296060Y-11885167D01*
X5244781Y-11749957D01*
X5241909Y-11738304D01*
X5224479Y-11594754D01*
X5224479Y-11582746D01*
X5241909Y-11439196D01*
X5244781Y-11427544D01*
X5281601Y-11330459D01*
X5284406Y-11268073D01*
X5249651Y-11216187D01*
X5188100Y-11195000D01*
X4925181Y-11195000D01*
X4917368Y-11194385D01*
X4897914Y-11191304D01*
X4882271Y-11190073D01*
X4858676Y-11190073D01*
X4858676Y-11192832D01*
X4809532Y-11200794D01*
X4758454Y-11265648D01*
X4756467Y-11273712D01*
X4705190Y-11408917D01*
X4699612Y-11419545D01*
X4617466Y-11538555D01*
X4609506Y-11547540D01*
X4501270Y-11643428D01*
X4491387Y-11650251D01*
X4363351Y-11717449D01*
X4352115Y-11721710D01*
X4206280Y-11757655D01*
X4153343Y-11790786D01*
X4130941Y-11842695D01*
X4124341Y-11897054D01*
X4121469Y-11908707D01*
X4070190Y-12043917D01*
X4064612Y-12054545D01*
X3982466Y-12173555D01*
X3974506Y-12182540D01*
X3866270Y-12278428D01*
X3856387Y-12285251D01*
X3728351Y-12352449D01*
X3717115Y-12356710D01*
X3576726Y-12391312D01*
X3564797Y-12392761D01*
X3510434Y-12392761D01*
X3451107Y-12412261D01*
X3414918Y-12463156D01*
X3427579Y-12545935D01*
X3426799Y-12546345D01*
X3427989Y-12548612D01*
X3428134Y-12549562D01*
X3429609Y-12551699D01*
X3435190Y-12562333D01*
X3486469Y-12697543D01*
X3489341Y-12709196D01*
X3506771Y-12852746D01*
X3506771Y-12864754D01*
X3489341Y-13008304D01*
X3486468Y-13019961D01*
X3476275Y-13046836D01*
X3473469Y-13109223D01*
X3508224Y-13161108D01*
X3545844Y-13179390D01*
X3637740Y-13202040D01*
X3648976Y-13206301D01*
X3777012Y-13273499D01*
X3786895Y-13280322D01*
X3895131Y-13376210D01*
X3903091Y-13385195D01*
X3985237Y-13504205D01*
X3990815Y-13514833D01*
X4042094Y-13650043D01*
X4044966Y-13661696D01*
X4062396Y-13805246D01*
X4062396Y-13817254D01*
X4044966Y-13960804D01*
X4042094Y-13972457D01*
X3990815Y-14107667D01*
X3985237Y-14118295D01*
X3903091Y-14237305D01*
X3895131Y-14246290D01*
X3786895Y-14342178D01*
X3777012Y-14349001D01*
X3648976Y-14416199D01*
X3637740Y-14420460D01*
X3497351Y-14455062D01*
X3485422Y-14456511D01*
X3374970Y-14456511D01*
X3304260Y-14485800D01*
X3222495Y-14567565D01*
X3216542Y-14572650D01*
X3200615Y-14584221D01*
X3188683Y-14594412D01*
X3177551Y-14605544D01*
X3164976Y-14614680D01*
X3150953Y-14621825D01*
X3137571Y-14630025D01*
X3124837Y-14639277D01*
X3110987Y-14646334D01*
X3096017Y-14651198D01*
X3081519Y-14657203D01*
X3067487Y-14664353D01*
X3052712Y-14669154D01*
X3037152Y-14671618D01*
X3021894Y-14675281D01*
X3006933Y-14680142D01*
X2991578Y-14682574D01*
X2975847Y-14682574D01*
X2960204Y-14683805D01*
X2940756Y-14686885D01*
X2932943Y-14687500D01*
X2702681Y-14687500D01*
X2694868Y-14686885D01*
X2675414Y-14683804D01*
X2659771Y-14682573D01*
X2644046Y-14682573D01*
X2628687Y-14680140D01*
X2613733Y-14675282D01*
X2598478Y-14671619D01*
X2582915Y-14669154D01*
X2568133Y-14664350D01*
X2554100Y-14657200D01*
X2539600Y-14651194D01*
X2524635Y-14646332D01*
X2510787Y-14639276D01*
X2498055Y-14630026D01*
X2484677Y-14621827D01*
X2470647Y-14614678D01*
X2458069Y-14605540D01*
X2446939Y-14594410D01*
X2435006Y-14584219D01*
X2419090Y-14572656D01*
X2413130Y-14567565D01*
X2174148Y-14328583D01*
X2118409Y-14300421D01*
X2032728Y-14328583D01*
X1793745Y-14567565D01*
X1787786Y-14572655D01*
X1771870Y-14584218D01*
X1759937Y-14594409D01*
X1748802Y-14605544D01*
X1736231Y-14614677D01*
X1722197Y-14621828D01*
X1708818Y-14630027D01*
X1696088Y-14639276D01*
X1682236Y-14646334D01*
X1667269Y-14651197D01*
X1652771Y-14657202D01*
X1638739Y-14664352D01*
X1623960Y-14669154D01*
X1608413Y-14671616D01*
X1593153Y-14675280D01*
X1578187Y-14680143D01*
X1562830Y-14682575D01*
X1547092Y-14682575D01*
X1531449Y-14683806D01*
X1512007Y-14686885D01*
X1504194Y-14687500D01*
X1194556Y-14687500D01*
X1186743Y-14686885D01*
X1167289Y-14683804D01*
X1151646Y-14682573D01*
X1135921Y-14682573D01*
X1120562Y-14680140D01*
X1105608Y-14675282D01*
X1090353Y-14671619D01*
X1074790Y-14669154D01*
X1060008Y-14664350D01*
X1045975Y-14657200D01*
X1031475Y-14651194D01*
X1016510Y-14646332D01*
X1002662Y-14639276D01*
X989930Y-14630026D01*
X976552Y-14621827D01*
X962522Y-14614678D01*
X949944Y-14605540D01*
X938814Y-14594410D01*
X926881Y-14584219D01*
X910965Y-14572656D01*
X905005Y-14567565D01*
X666023Y-14328583D01*
X610284Y-14300421D01*
X524603Y-14328583D01*
X285620Y-14567565D01*
X279661Y-14572655D01*
X263745Y-14584218D01*
X251812Y-14594409D01*
X240677Y-14605544D01*
X228106Y-14614677D01*
X214072Y-14621828D01*
X200693Y-14630027D01*
X187964Y-14639275D01*
X174109Y-14646335D01*
X159145Y-14651197D01*
X144647Y-14657202D01*
X130617Y-14664351D01*
X115834Y-14669154D01*
X100278Y-14671618D01*
X85022Y-14675281D01*
X70061Y-14680142D01*
X54704Y-14682574D01*
X38973Y-14682574D01*
X23330Y-14683805D01*
X3882Y-14686885D01*
X-3931Y-14687500D01*
X-313569Y-14687500D01*
X-321382Y-14686885D01*
X-340836Y-14683804D01*
X-356479Y-14682573D01*
X-372204Y-14682573D01*
X-387563Y-14680140D01*
X-402517Y-14675282D01*
X-417772Y-14671619D01*
X-433335Y-14669154D01*
X-448117Y-14664350D01*
X-462150Y-14657200D01*
X-476650Y-14651194D01*
X-491615Y-14646332D01*
X-505463Y-14639276D01*
X-518195Y-14630026D01*
X-531573Y-14621827D01*
X-545603Y-14614678D01*
X-558181Y-14605540D01*
X-569311Y-14594410D01*
X-581244Y-14584219D01*
X-597160Y-14572656D01*
X-603120Y-14567565D01*
X-842103Y-14328583D01*
X-897842Y-14300421D01*
X-983523Y-14328583D01*
X-1222505Y-14567565D01*
X-1228464Y-14572655D01*
X-1244380Y-14584218D01*
X-1256313Y-14594409D01*
X-1267448Y-14605544D01*
X-1280019Y-14614677D01*
X-1294053Y-14621828D01*
X-1307432Y-14630027D01*
X-1320161Y-14639275D01*
X-1334016Y-14646335D01*
X-1348980Y-14651197D01*
X-1363478Y-14657202D01*
X-1377508Y-14664351D01*
X-1392291Y-14669154D01*
X-1407847Y-14671618D01*
X-1423103Y-14675281D01*
X-1438064Y-14680142D01*
X-1453421Y-14682574D01*
X-1469152Y-14682574D01*
X-1484795Y-14683805D01*
X-1504243Y-14686885D01*
X-1512056Y-14687500D01*
X-1821694Y-14687500D01*
X-1829507Y-14686885D01*
X-1848961Y-14683804D01*
X-1864604Y-14682573D01*
X-1880329Y-14682573D01*
X-1895688Y-14680140D01*
X-1910642Y-14675282D01*
X-1925897Y-14671619D01*
X-1941460Y-14669154D01*
X-1956242Y-14664350D01*
X-1970275Y-14657200D01*
X-1984775Y-14651194D01*
X-1999740Y-14646332D01*
X-2013588Y-14639276D01*
X-2026320Y-14630026D01*
X-2039698Y-14621827D01*
X-2053728Y-14614678D01*
X-2066306Y-14605540D01*
X-2077436Y-14594410D01*
X-2089369Y-14584219D01*
X-2105285Y-14572656D01*
X-2111245Y-14567565D01*
X-2389915Y-14288895D01*
X-2445654Y-14260733D01*
X-2531335Y-14288895D01*
X-2810005Y-14567565D01*
X-2815964Y-14572655D01*
X-2831880Y-14584218D01*
X-2843813Y-14594409D01*
X-2854948Y-14605544D01*
X-2867519Y-14614677D01*
X-2881553Y-14621828D01*
X-2894932Y-14630027D01*
X-2907661Y-14639275D01*
X-2921516Y-14646335D01*
X-2936480Y-14651197D01*
X-2950978Y-14657202D01*
X-2965008Y-14664351D01*
X-2979791Y-14669154D01*
X-2995347Y-14671618D01*
X-3010603Y-14675281D01*
X-3025564Y-14680142D01*
X-3040921Y-14682574D01*
X-3056652Y-14682574D01*
X-3072295Y-14683805D01*
X-3091743Y-14686885D01*
X-3099556Y-14687500D01*
X-3329818Y-14687500D01*
X-3337631Y-14686885D01*
X-3357085Y-14683804D01*
X-3372728Y-14682573D01*
X-3388453Y-14682573D01*
X-3403808Y-14680141D01*
X-3418763Y-14675282D01*
X-3434021Y-14671619D01*
X-3449587Y-14669154D01*
X-3464362Y-14664353D01*
X-3478400Y-14657200D01*
X-3492898Y-14651195D01*
X-3507862Y-14646333D01*
X-3521713Y-14639276D01*
X-3534442Y-14630027D01*
X-3547824Y-14621827D01*
X-3561851Y-14614680D01*
X-3574426Y-14605544D01*
X-3585561Y-14594409D01*
X-3597494Y-14584218D01*
X-3613415Y-14572651D01*
X-3619369Y-14567566D01*
X-3858353Y-14328583D01*
X-3914092Y-14300421D01*
X-3999773Y-14328583D01*
X-4238755Y-14567565D01*
X-4244714Y-14572655D01*
X-4260630Y-14584218D01*
X-4272563Y-14594409D01*
X-4283698Y-14605544D01*
X-4296269Y-14614677D01*
X-4310303Y-14621828D01*
X-4323682Y-14630027D01*
X-4336411Y-14639275D01*
X-4350266Y-14646335D01*
X-4365230Y-14651197D01*
X-4379728Y-14657202D01*
X-4393758Y-14664351D01*
X-4408541Y-14669154D01*
X-4424097Y-14671618D01*
X-4439353Y-14675281D01*
X-4454314Y-14680142D01*
X-4469671Y-14682574D01*
X-4485402Y-14682574D01*
X-4501043Y-14683805D01*
X-4520278Y-14686851D01*
X-4575825Y-14715390D01*
X-4603907Y-14797673D01*
X-4599808Y-14831430D01*
X-4573299Y-14887974D01*
X-4500538Y-14919375D01*
X4125071Y-14919375D01*
X4195858Y-14887516D01*
X4196593Y-14888345D01*
X4199254Y-14885988D01*
X4199922Y-14885687D01*
X4201121Y-14884333D01*
X4309355Y-14788447D01*
X4319238Y-14781624D01*
X4447274Y-14714426D01*
X4458510Y-14710165D01*
X4598899Y-14675563D01*
X4610828Y-14674114D01*
X4755422Y-14674114D01*
X4767351Y-14675563D01*
X4907740Y-14710165D01*
X4918976Y-14714426D01*
X5047012Y-14781624D01*
X5056895Y-14788447D01*
X5165131Y-14884335D01*
X5173091Y-14893320D01*
X5255237Y-15012330D01*
X5260815Y-15022958D01*
X5312094Y-15158168D01*
X5314966Y-15169821D01*
X5332396Y-15313371D01*
X5332396Y-15325379D01*
X5314966Y-15468929D01*
X5312094Y-15480582D01*
X5260815Y-15615792D01*
X5255237Y-15626420D01*
X5173091Y-15745430D01*
X5165131Y-15754415D01*
X5056895Y-15850303D01*
X5047012Y-15857126D01*
X4918976Y-15924324D01*
X4907740Y-15928585D01*
X4767351Y-15963187D01*
X4755422Y-15964636D01*
X4610828Y-15964636D01*
X4598899Y-15963187D01*
X4458510Y-15928585D01*
X4447274Y-15924324D01*
X4319238Y-15857126D01*
X4309355Y-15850303D01*
X4201121Y-15754417D01*
X4199922Y-15753063D01*
X4199254Y-15752762D01*
X4196593Y-15750405D01*
X4195858Y-15751234D01*
X4125071Y-15719375D01*
X2303253Y-15719375D01*
X2243926Y-15738875D01*
X2207737Y-15789770D01*
X2209753Y-15854835D01*
X2216468Y-15872539D01*
X2219341Y-15884196D01*
X2236771Y-16027746D01*
X2236771Y-16039754D01*
X2219341Y-16183304D01*
X2216469Y-16194957D01*
X2165190Y-16330167D01*
X2159612Y-16340795D01*
X2077466Y-16459805D01*
X2069506Y-16468790D01*
X1961270Y-16564678D01*
X1951387Y-16571501D01*
X1823351Y-16638699D01*
X1812115Y-16642960D01*
X1671726Y-16677562D01*
X1659797Y-16679011D01*
X1549345Y-16679011D01*
X1478635Y-16708300D01*
X-190630Y-18377565D01*
X-196584Y-18382650D01*
X-212507Y-18394219D01*
X-224439Y-18404410D01*
X-235573Y-18415544D01*
X-248144Y-18424677D01*
X-262178Y-18431828D01*
X-275557Y-18440027D01*
X-288286Y-18449275D01*
X-302141Y-18456335D01*
X-317105Y-18461197D01*
X-331603Y-18467202D01*
X-345633Y-18474351D01*
X-360416Y-18479154D01*
X-375972Y-18481618D01*
X-391228Y-18485281D01*
X-406189Y-18490142D01*
X-421546Y-18492574D01*
X-437277Y-18492574D01*
X-452920Y-18493805D01*
X-472368Y-18496885D01*
X-480181Y-18497500D01*
X-950071Y-18497500D01*
X-1020858Y-18529359D01*
X-1021593Y-18528530D01*
X-1024254Y-18530887D01*
X-1024922Y-18531188D01*
X-1026121Y-18532542D01*
X-1134355Y-18628428D01*
X-1144238Y-18635251D01*
X-1272274Y-18702449D01*
X-1283510Y-18706710D01*
X-1423899Y-18741312D01*
X-1435828Y-18742761D01*
X-1580422Y-18742761D01*
X-1592351Y-18741312D01*
X-1687424Y-18717879D01*
X-1749693Y-18722614D01*
X-1797011Y-18763370D01*
X-1810497Y-18811890D01*
X-1810625Y-18811875D01*
X-1810727Y-18812717D01*
X-1811354Y-18814972D01*
X-1811354Y-18817879D01*
X-1828784Y-18961429D01*
X-1831656Y-18973082D01*
X-1882935Y-19108292D01*
X-1888513Y-19118920D01*
X-1970659Y-19237930D01*
X-1978619Y-19246915D01*
X-2086855Y-19342803D01*
X-2096738Y-19349626D01*
X-2224774Y-19416824D01*
X-2236010Y-19421085D01*
X-2376399Y-19455687D01*
X-2388328Y-19457136D01*
X-2532922Y-19457136D01*
X-2544851Y-19455687D01*
X-2685240Y-19421085D01*
X-2696476Y-19416824D01*
X-2824512Y-19349626D01*
X-2834395Y-19342803D01*
X-2942631Y-19246915D01*
X-2950591Y-19237930D01*
X-3032737Y-19118920D01*
X-3038315Y-19108292D01*
X-3089594Y-18973082D01*
X-3092466Y-18961429D01*
X-3109896Y-18817879D01*
X-3109896Y-18805870D01*
X-3107365Y-18785023D01*
X-3135925Y-18702261D01*
X-6675935Y-15162251D01*
X-6731674Y-15134089D01*
X-6793252Y-15144487D01*
X-6836653Y-15189391D01*
X-6844359Y-15254217D01*
X-6815354Y-15387551D01*
X-6814339Y-15394613D01*
X-6795255Y-15661435D01*
X-6795255Y-15668565D01*
X-6814339Y-15935387D01*
X-6815354Y-15942449D01*
X-6872216Y-16203844D01*
X-6874225Y-16210685D01*
X-6967709Y-16461325D01*
X-6970671Y-16467812D01*
X-7098875Y-16702598D01*
X-7102729Y-16708595D01*
X-7263041Y-16922748D01*
X-7267706Y-16928131D01*
X-7403866Y-17064291D01*
X-7432028Y-17120030D01*
X-7421630Y-17181608D01*
X-7376726Y-17225009D01*
X-7333156Y-17235000D01*
X-7019781Y-17235000D01*
X-7013244Y-17235429D01*
X-6881555Y-17252766D01*
X-6868999Y-17256130D01*
X-6749305Y-17305709D01*
X-6738050Y-17312207D01*
X-6635266Y-17391076D01*
X-6626076Y-17400266D01*
X-6547207Y-17503050D01*
X-6540709Y-17514305D01*
X-6491130Y-17633999D01*
X-6487766Y-17646555D01*
X-6470429Y-17778244D01*
X-6470000Y-17784781D01*
X-6470000Y-18218982D01*
X-6471566Y-18223747D01*
X-6493828Y-18234995D01*
X-6770000Y-18234995D01*
X-6770000Y-17781500D01*
X-6788764Y-17687169D01*
X-6842198Y-17607198D01*
X-6922169Y-17553764D01*
X-7016500Y-17535000D01*
X-10423500Y-17535000D01*
X-10517831Y-17553764D01*
X-10597802Y-17607198D01*
X-10651236Y-17687169D01*
X-10670000Y-17781500D01*
X-10670000Y-18234995D01*
X-10953987Y-18234995D01*
X-10958752Y-18233429D01*
X-10970000Y-18211167D01*
X-10970000Y-17784781D01*
X-10969571Y-17778244D01*
X-10952234Y-17646555D01*
X-10948870Y-17633999D01*
X-10899291Y-17514305D01*
X-10892793Y-17503050D01*
X-10813924Y-17400266D01*
X-10804734Y-17391076D01*
X-10701950Y-17312207D01*
X-10690695Y-17305709D01*
X-10571001Y-17256130D01*
X-10558445Y-17252766D01*
X-10426756Y-17235429D01*
X-10420219Y-17235000D01*
X-10106844Y-17235000D01*
X-10047517Y-17215500D01*
X-10011328Y-17164605D01*
X-10012390Y-17102164D01*
X-10036134Y-17064291D01*
X-10172294Y-16928131D01*
X-10176959Y-16922748D01*
X-10337271Y-16708595D01*
X-10341125Y-16702598D01*
X-10469329Y-16467812D01*
X-10472291Y-16461325D01*
X-10565775Y-16210685D01*
X-10567784Y-16203844D01*
X-10624646Y-15942449D01*
X-10625661Y-15935387D01*
X-10644745Y-15668565D01*
X-10644745Y-15661435D01*
X-10625661Y-15394613D01*
X-10624646Y-15387551D01*
X-10567784Y-15126156D01*
X-10565775Y-15119315D01*
X-10472291Y-14868675D01*
X-10469329Y-14862188D01*
X-10341125Y-14627402D01*
X-10337276Y-14621412D01*
X-10303651Y-14576495D01*
X-10283708Y-14517315D01*
X-10302764Y-14457844D01*
X-10353386Y-14421275D01*
X-10407635Y-14419474D01*
X-10552024Y-14455062D01*
X-10563953Y-14456511D01*
X-10708547Y-14456511D01*
X-10720476Y-14455062D01*
X-10860865Y-14420460D01*
X-10872101Y-14416199D01*
X-11000137Y-14349001D01*
X-11010020Y-14342178D01*
X-11118256Y-14246290D01*
X-11126216Y-14237305D01*
X-11208362Y-14118295D01*
X-11213940Y-14107667D01*
X-11265219Y-13972457D01*
X-11268091Y-13960804D01*
X-11285521Y-13817254D01*
X-11285521Y-13805246D01*
X-11268091Y-13661696D01*
X-11265219Y-13650043D01*
X-11213940Y-13514833D01*
X-11208362Y-13504205D01*
X-11126216Y-13385195D01*
X-11118256Y-13376210D01*
X-11061653Y-13326064D01*
X-11032110Y-13272171D01*
X-11031326Y-13272426D01*
X-11029982Y-13268291D01*
X-11029198Y-13266860D01*
X-11028894Y-13264942D01*
X-11024030Y-13249972D01*
X-11020366Y-13234712D01*
X-11017904Y-13219165D01*
X-11013102Y-13204386D01*
X-11005955Y-13190360D01*
X-10999950Y-13175862D01*
X-10995085Y-13160889D01*
X-10988028Y-13147039D01*
X-10978774Y-13134302D01*
X-10970575Y-13120923D01*
X-10963429Y-13106897D01*
X-10954290Y-13094319D01*
X-10943163Y-13083192D01*
X-10932972Y-13071260D01*
X-10921401Y-13055333D01*
X-10916316Y-13049380D01*
X-10906656Y-13039720D01*
X-10878494Y-12983981D01*
X-10888892Y-12922403D01*
X-10933796Y-12879002D01*
X-10977366Y-12869011D01*
X-11026047Y-12869011D01*
X-11037976Y-12867562D01*
X-11178365Y-12832960D01*
X-11189601Y-12828699D01*
X-11317637Y-12761501D01*
X-11327520Y-12754678D01*
X-11435756Y-12658790D01*
X-11443716Y-12649805D01*
X-11525862Y-12530795D01*
X-11531440Y-12520167D01*
X-11582719Y-12384957D01*
X-11585591Y-12373304D01*
X-11603021Y-12229754D01*
X-11603021Y-12217746D01*
X-11585591Y-12074196D01*
X-11582719Y-12062543D01*
X-11531440Y-11927333D01*
X-11525860Y-11916701D01*
X-11441816Y-11794941D01*
X-11424163Y-11735039D01*
X-11445491Y-11676344D01*
X-11471887Y-11654381D01*
X-11471408Y-11653687D01*
X-11486269Y-11643429D01*
X-11594506Y-11547540D01*
X-11602466Y-11538555D01*
X-11684612Y-11419545D01*
X-11690190Y-11408917D01*
X-11741469Y-11273707D01*
X-11744341Y-11262054D01*
X-11761771Y-11118504D01*
X-11761771Y-11106496D01*
X-11744341Y-10962946D01*
X-11741469Y-10951293D01*
X-11690190Y-10816083D01*
X-11684609Y-10805450D01*
X-11634424Y-10732744D01*
X-11616770Y-10672842D01*
X-11634423Y-10619132D01*
X-11684612Y-10546420D01*
X-11690190Y-10535792D01*
X-11741469Y-10400582D01*
X-11744341Y-10388929D01*
X-11761771Y-10245379D01*
X-11761771Y-10233371D01*
X-11744341Y-10089821D01*
X-11741469Y-10078168D01*
X-11690190Y-9942958D01*
X-11684612Y-9932330D01*
X-11602466Y-9813320D01*
X-11594506Y-9804335D01*
X-11486270Y-9708447D01*
X-11476387Y-9701625D01*
X-11474589Y-9700681D01*
X-11473717Y-9699781D01*
X-11471407Y-9698187D01*
X-11471725Y-9697727D01*
X-11431119Y-9655845D01*
X-11422725Y-9593962D01*
X-11454748Y-9537285D01*
X-11515127Y-9483794D01*
X-11523091Y-9474805D01*
X-11605237Y-9355795D01*
X-11610815Y-9345167D01*
X-11662094Y-9209957D01*
X-11664966Y-9198304D01*
X-11682396Y-9054754D01*
X-11682396Y-9042746D01*
X-11664966Y-8899196D01*
X-11662094Y-8887543D01*
X-11610815Y-8752333D01*
X-11605237Y-8741705D01*
X-11523091Y-8622695D01*
X-11515131Y-8613710D01*
X-11406895Y-8517822D01*
X-11397012Y-8510999D01*
X-11268976Y-8443801D01*
X-11257740Y-8439540D01*
X-11117351Y-8404938D01*
X-11105422Y-8403489D01*
X-10965147Y-8403489D01*
X-10905820Y-8383989D01*
X-10869631Y-8333094D01*
X-10882845Y-8253191D01*
X-10880482Y-8251987D01*
X-10891203Y-8230946D01*
X-10899402Y-8217567D01*
X-10908651Y-8204837D01*
X-10915709Y-8190985D01*
X-10919534Y-8179213D01*
X-10948327Y-8135264D01*
X-11038881Y-8055040D01*
X-11046841Y-8046055D01*
X-11128987Y-7927045D01*
X-11134565Y-7916417D01*
X-11185844Y-7781207D01*
X-11188716Y-7769554D01*
X-11206146Y-7626004D01*
X-11206146Y-7613996D01*
X-11188716Y-7470446D01*
X-11185844Y-7458793D01*
X-11134565Y-7323583D01*
X-11128987Y-7312955D01*
X-11046841Y-7193945D01*
X-11038881Y-7184960D01*
X-10930645Y-7089072D01*
X-10920762Y-7082249D01*
X-10792726Y-7015051D01*
X-10781490Y-7010790D01*
X-10641101Y-6976188D01*
X-10629172Y-6974739D01*
X-10484578Y-6974739D01*
X-10472649Y-6976188D01*
X-10332260Y-7010790D01*
X-10321024Y-7015051D01*
X-10192988Y-7082249D01*
X-10183105Y-7089072D01*
X-10086387Y-7174756D01*
X-10029049Y-7199502D01*
X-9968211Y-7185404D01*
X-9927600Y-7137962D01*
X-9920076Y-7099906D01*
X-9920076Y-7089050D01*
X-9917642Y-7073686D01*
X-9912780Y-7058722D01*
X-9909116Y-7043462D01*
X-9906654Y-7027915D01*
X-9901852Y-7013136D01*
X-9894705Y-6999110D01*
X-9888700Y-6984612D01*
X-9883835Y-6969639D01*
X-9876778Y-6955789D01*
X-9867524Y-6943052D01*
X-9859325Y-6929673D01*
X-9852179Y-6915647D01*
X-9843040Y-6903069D01*
X-9831913Y-6891942D01*
X-9821722Y-6880010D01*
X-9810151Y-6864083D01*
X-9805066Y-6858130D01*
X-7834944Y-4888008D01*
X-7806782Y-4832269D01*
X-7817180Y-4770691D01*
X-7862084Y-4727290D01*
X-7940600Y-4723604D01*
X-8174315Y-4810775D01*
X-8181156Y-4812784D01*
X-8442551Y-4869646D01*
X-8449613Y-4870661D01*
X-8716435Y-4889745D01*
X-8723565Y-4889745D01*
X-8990387Y-4870661D01*
X-8997449Y-4869646D01*
X-9258844Y-4812784D01*
X-9265685Y-4810775D01*
X-9516325Y-4717291D01*
X-9522812Y-4714329D01*
X-9757598Y-4586125D01*
X-9763595Y-4582271D01*
X-9844613Y-4521622D01*
X-9903793Y-4501679D01*
X-9963264Y-4520735D01*
X-10003809Y-4589618D01*
X-10004408Y-4594548D01*
X-10007281Y-4606207D01*
X-10058560Y-4741417D01*
X-10064138Y-4752045D01*
X-10146284Y-4871055D01*
X-10154244Y-4880040D01*
X-10262480Y-4975928D01*
X-10272363Y-4982751D01*
X-10400399Y-5049949D01*
X-10411635Y-5054210D01*
X-10552024Y-5088812D01*
X-10563953Y-5090261D01*
X-10708547Y-5090261D01*
X-10720476Y-5088812D01*
X-10860865Y-5054210D01*
X-10872101Y-5049949D01*
X-11000137Y-4982751D01*
X-11010020Y-4975928D01*
X-11118256Y-4880040D01*
X-11126216Y-4871055D01*
X-11208362Y-4752045D01*
X-11213940Y-4741417D01*
X-11265219Y-4606207D01*
X-11268091Y-4594554D01*
X-11285521Y-4451004D01*
X-11285521Y-4438996D01*
X-11268091Y-4295446D01*
X-11265219Y-4283793D01*
X-11213940Y-4148583D01*
X-11208362Y-4137955D01*
X-11126216Y-4018945D01*
X-11118256Y-4009960D01*
X-11010020Y-3914072D01*
X-11000137Y-3907249D01*
X-10872101Y-3840051D01*
X-10860865Y-3835790D01*
X-10720476Y-3801188D01*
X-10708547Y-3799739D01*
X-10601989Y-3799739D01*
X-10542662Y-3780239D01*
X-10506473Y-3729344D01*
X-10508295Y-3664794D01*
X-10565775Y-3510684D01*
X-10567784Y-3503844D01*
X-10624646Y-3242449D01*
X-10625661Y-3235387D01*
X-10644745Y-2968565D01*
X-10644745Y-2961435D01*
X-10625661Y-2694613D01*
X-10624646Y-2687551D01*
X-10567784Y-2426156D01*
X-10565775Y-2419315D01*
X-10472291Y-2168675D01*
X-10469329Y-2162188D01*
X-10341125Y-1927402D01*
X-10337271Y-1921405D01*
X-10176959Y-1707252D01*
X-10172294Y-1701869D01*
X-10036134Y-1565709D01*
X-10007972Y-1509970D01*
X-10018370Y-1448392D01*
X-10063274Y-1404991D01*
X-10106844Y-1395000D01*
X-10420219Y-1395000D01*
X-10426756Y-1394571D01*
X-10558445Y-1377234D01*
X-10571001Y-1373870D01*
X-10690695Y-1324291D01*
X-10701950Y-1317793D01*
X-10804734Y-1238924D01*
X-10813924Y-1229734D01*
X-10892793Y-1126950D01*
X-10899291Y-1115695D01*
X-10948870Y-996001D01*
X-10952234Y-983445D01*
X-10969571Y-851756D01*
X-10970000Y-845219D01*
X-10970000Y-411018D01*
X-10968434Y-406253D01*
X-10953987Y-398953D01*
X-10953987Y-94995D01*
X-10958752Y-93429D01*
X-10970000Y-71167D01*
X-10970000Y355219D01*
X-10969571Y361756D01*
X-10952234Y493445D01*
X-10948870Y506001D01*
X-10899291Y625695D01*
X-10892793Y636950D01*
X-10813924Y739734D01*
X-10804734Y748924D01*
X-10701950Y827793D01*
X-10690695Y834291D01*
X-10571001Y883870D01*
X-10558445Y887234D01*
X-10426756Y904571D01*
X-10420219Y905000D01*
X-8886018Y905000D01*
X-8881253Y903434D01*
X-8870005Y881172D01*
X-8870005Y605000D01*
X-10423500Y605000D01*
X-10517831Y586236D01*
X-10597802Y532802D01*
X-10651236Y452831D01*
X-10670000Y358500D01*
X-10670000Y-94995D01*
X-10953987Y-94995D01*
X-10953987Y-398953D01*
X-10946172Y-395005D01*
X-10670000Y-395005D01*
X-10670000Y-848500D01*
X-10651236Y-942831D01*
X-10597802Y-1022802D01*
X-10517831Y-1076236D01*
X-10423500Y-1095000D01*
X-7016500Y-1095000D01*
X-6922169Y-1076236D01*
X-6842198Y-1022802D01*
X-6788764Y-942831D01*
X-6770000Y-848500D01*
X-6770000Y358500D01*
X-6788764Y452831D01*
X-6842198Y532802D01*
X-6922169Y586236D01*
X-7016500Y605000D01*
X-8569995Y605000D01*
X-8569995Y888987D01*
X-8568429Y893752D01*
X-8546167Y905000D01*
X-7019781Y905000D01*
X-7013244Y904571D01*
X-6881555Y887234D01*
X-6868999Y883870D01*
X-6749305Y834291D01*
X-6738050Y827793D01*
X-6635266Y748924D01*
X-6626076Y739734D01*
X-6547207Y636950D01*
X-6540709Y625695D01*
X-6491130Y506001D01*
X-6487766Y493445D01*
X-6470429Y361756D01*
X-6470000Y355219D01*
X-6470000Y-49841D01*
X-6450500Y-109168D01*
X-6399605Y-145357D01*
X-6323529Y-138386D01*
X-6268351Y-109426D01*
X-6257115Y-105165D01*
X-6116726Y-70563D01*
X-6104797Y-69114D01*
X-5960203Y-69114D01*
X-5948274Y-70563D01*
X-5807885Y-105165D01*
X-5796649Y-109426D01*
X-5666471Y-177749D01*
X-5604877Y-188053D01*
X-5549181Y-159806D01*
X-5520000Y-89204D01*
X-5520000Y696069D01*
X-5519385Y703882D01*
X-5506548Y784931D01*
X-5501744Y799718D01*
X-5466277Y869326D01*
X-5457142Y881899D01*
X-5401899Y937142D01*
X-5389326Y946277D01*
X-5319718Y981744D01*
X-5304931Y986548D01*
X-5223882Y999385D01*
X-5216069Y1000000D01*
X-3823931Y1000000D01*
X-3816118Y999385D01*
X-3735069Y986548D01*
X-3720282Y981744D01*
X-3650674Y946277D01*
X-3638101Y937142D01*
X-3582858Y881899D01*
X-3573723Y869326D01*
X-3538256Y799718D01*
X-3533452Y784931D01*
X-3520615Y703882D01*
X-3520000Y696069D01*
X-3520000Y-696069D01*
X-3520615Y-703882D01*
X-3533452Y-784931D01*
X-3538256Y-799718D01*
X-3573723Y-869326D01*
X-3582858Y-881899D01*
X-3638101Y-937142D01*
X-3650674Y-946277D01*
X-3720282Y-981744D01*
X-3735069Y-986548D01*
X-3816118Y-999385D01*
X-3823931Y-1000000D01*
X-5216069Y-1000000D01*
X-5223882Y-999385D01*
X-5304931Y-986548D01*
X-5319719Y-981743D01*
X-5326245Y-978418D01*
X-5387958Y-968856D01*
X-5455354Y-1017550D01*
X-5456954Y-1016445D01*
X-5460067Y-1020955D01*
X-5460190Y-1021044D01*
X-5460385Y-1021416D01*
X-5542534Y-1140430D01*
X-5550494Y-1149415D01*
X-5658730Y-1245303D01*
X-5668613Y-1252126D01*
X-5796649Y-1319324D01*
X-5807885Y-1323585D01*
X-5948274Y-1358187D01*
X-5960203Y-1359636D01*
X-6104797Y-1359636D01*
X-6116726Y-1358187D01*
X-6257115Y-1323585D01*
X-6268351Y-1319324D01*
X-6396387Y-1252126D01*
X-6406270Y-1245304D01*
X-6463915Y-1194235D01*
X-6521253Y-1169490D01*
X-6582090Y-1183588D01*
X-6609561Y-1208211D01*
X-6626076Y-1229734D01*
X-6635266Y-1238924D01*
X-6738050Y-1317793D01*
X-6749305Y-1324291D01*
X-6868999Y-1373870D01*
X-6881555Y-1377234D01*
X-7013244Y-1394571D01*
X-7019781Y-1395000D01*
X-7333156Y-1395000D01*
X-7392483Y-1414500D01*
X-7428672Y-1465395D01*
X-7427610Y-1527836D01*
X-7403866Y-1565709D01*
X-7267706Y-1701869D01*
X-7263041Y-1707252D01*
X-7102729Y-1921405D01*
X-7098875Y-1927402D01*
X-6970671Y-2162188D01*
X-6967709Y-2168675D01*
X-6874225Y-2419315D01*
X-6872216Y-2426156D01*
X-6815354Y-2687551D01*
X-6814339Y-2694613D01*
X-6795255Y-2961435D01*
X-6795255Y-2968565D01*
X-6814339Y-3235387D01*
X-6815354Y-3242449D01*
X-6872216Y-3503844D01*
X-6874225Y-3510685D01*
X-6961396Y-3744400D01*
X-6963858Y-3806801D01*
X-6928819Y-3858495D01*
X-6869944Y-3879320D01*
X-6796992Y-3850056D01*
X-5371870Y-2424934D01*
X-5365917Y-2419849D01*
X-5349990Y-2408278D01*
X-5338058Y-2398087D01*
X-5326931Y-2386960D01*
X-5314353Y-2377821D01*
X-5300327Y-2370675D01*
X-5286948Y-2362476D01*
X-5274211Y-2353222D01*
X-5260361Y-2346165D01*
X-5245388Y-2341300D01*
X-5230890Y-2335295D01*
X-5216864Y-2328148D01*
X-5202085Y-2323346D01*
X-5186538Y-2320884D01*
X-5171278Y-2317220D01*
X-5156314Y-2312358D01*
X-5140950Y-2309924D01*
X-5125211Y-2309924D01*
X-5109569Y-2308693D01*
X-5090134Y-2305615D01*
X-5082319Y-2305000D01*
X-548547Y-2305000D01*
X-548547Y-1835886D01*
X-560476Y-1834437D01*
X-700865Y-1799835D01*
X-712101Y-1795574D01*
X-840137Y-1728376D01*
X-850020Y-1721553D01*
X-958256Y-1625665D01*
X-966216Y-1616680D01*
X-1048362Y-1497670D01*
X-1053940Y-1487042D01*
X-1105219Y-1351832D01*
X-1108091Y-1340179D01*
X-1125521Y-1196629D01*
X-1125521Y-1184621D01*
X-1108091Y-1041071D01*
X-1105219Y-1029418D01*
X-1053940Y-894208D01*
X-1048362Y-883580D01*
X-966216Y-764570D01*
X-958256Y-755585D01*
X-909937Y-712778D01*
X-876250Y-637928D01*
X-876250Y-445388D01*
X-895750Y-386061D01*
X-946645Y-349872D01*
X-1009086Y-350934D01*
X-1064440Y-398249D01*
X-1146213Y-551236D01*
X-1151647Y-559368D01*
X-1269776Y-703309D01*
X-1276691Y-710224D01*
X-1420632Y-828353D01*
X-1428764Y-833787D01*
X-1592979Y-921561D01*
X-1602023Y-925308D01*
X-1780206Y-979358D01*
X-1789803Y-981267D01*
X-1975106Y-999518D01*
X-1984894Y-999518D01*
X-2170197Y-981267D01*
X-2179794Y-979358D01*
X-2357977Y-925308D01*
X-2367021Y-921561D01*
X-2531236Y-833787D01*
X-2539368Y-828353D01*
X-2683309Y-710224D01*
X-2690224Y-703309D01*
X-2808353Y-559368D01*
X-2813787Y-551236D01*
X-2901561Y-387021D01*
X-2905308Y-377977D01*
X-2959358Y-199794D01*
X-2961267Y-190197D01*
X-2979518Y-4894D01*
X-2979518Y4894D01*
X-2961267Y190197D01*
X-2959358Y199794D01*
X-2905308Y377977D01*
X-2901561Y387021D01*
X-2813787Y551236D01*
X-2808353Y559368D01*
X-2690224Y703309D01*
X-2683309Y710224D01*
X-2539368Y828353D01*
X-2531236Y833787D01*
X-2367021Y921561D01*
X-2357977Y925308D01*
X-2179794Y979358D01*
X-2170197Y981267D01*
X-1984894Y999518D01*
X-1975106Y999518D01*
X-1789803Y981267D01*
X-1780206Y979358D01*
X-1597317Y923880D01*
X-1596606Y926224D01*
X-1543647Y922248D01*
X-1490743Y955431D01*
X-1467842Y1013531D01*
X-1496963Y1090028D01*
X-2755771Y2348836D01*
X-2826481Y2378125D01*
X-7457318Y2378125D01*
X-7465131Y2378740D01*
X-7484579Y2381820D01*
X-7500222Y2383051D01*
X-7515953Y2383051D01*
X-7531310Y2385483D01*
X-7546271Y2390344D01*
X-7561527Y2394007D01*
X-7577083Y2396471D01*
X-7591866Y2401274D01*
X-7605896Y2408423D01*
X-7620394Y2414428D01*
X-7635359Y2419291D01*
X-7649213Y2426349D01*
X-7661947Y2435601D01*
X-7675326Y2443800D01*
X-7689352Y2450946D01*
X-7701930Y2460085D01*
X-7713060Y2471215D01*
X-7724993Y2481406D01*
X-7740914Y2492973D01*
X-7746867Y2498057D01*
X-10678190Y5429380D01*
X-10683275Y5435334D01*
X-10694844Y5451257D01*
X-10705035Y5463189D01*
X-10716165Y5474319D01*
X-10725306Y5486901D01*
X-10732449Y5500920D01*
X-10740649Y5514303D01*
X-10749903Y5527040D01*
X-10756959Y5540887D01*
X-10761823Y5555858D01*
X-10767828Y5570356D01*
X-10774977Y5584386D01*
X-10779779Y5599165D01*
X-10782241Y5614712D01*
X-10785905Y5629972D01*
X-10790768Y5644938D01*
X-10793200Y5660295D01*
X-10793200Y5676033D01*
X-10794431Y5691676D01*
X-10797510Y5711118D01*
X-10798125Y5718931D01*
X-10798125Y7702303D01*
X-10831812Y7777153D01*
X-10880131Y7819960D01*
X-10888091Y7828945D01*
X-10970237Y7947955D01*
X-10975815Y7958583D01*
X-11027094Y8093793D01*
X-11029966Y8105446D01*
X-11047396Y8248996D01*
X-11047396Y8261004D01*
X-11029966Y8404554D01*
X-11027094Y8416207D01*
X-10975815Y8551417D01*
X-10970237Y8562045D01*
X-10888091Y8681055D01*
X-10880131Y8690040D01*
X-10771895Y8785928D01*
X-10762012Y8792751D01*
X-10633976Y8859949D01*
X-10622740Y8864210D01*
X-10482351Y8898812D01*
X-10470422Y8900261D01*
X-10325828Y8900261D01*
X-10313899Y8898812D01*
X-10173510Y8864210D01*
X-10162274Y8859949D01*
X-10034238Y8792751D01*
X-10024355Y8785928D01*
X-9916119Y8690040D01*
X-9908159Y8681055D01*
X-9826013Y8562045D01*
X-9820435Y8551417D01*
X-9769156Y8416207D01*
X-9766284Y8404554D01*
X-9748854Y8261004D01*
X-9748854Y8248996D01*
X-9766284Y8105446D01*
X-9769156Y8093793D01*
X-9820435Y7958583D01*
X-9826013Y7947955D01*
X-9908159Y7828945D01*
X-9916119Y7819960D01*
X-9964438Y7777153D01*
X-9998125Y7702303D01*
X-9998125Y5922106D01*
X-9968836Y5851396D01*
X-7324854Y3207414D01*
X-7254144Y3178125D01*
X-6659697Y3178125D01*
X-6659697Y3603972D01*
X-6721388Y3609369D01*
X-6729960Y3610880D01*
X-6940418Y3667272D01*
X-6948577Y3670243D01*
X-7146040Y3762320D01*
X-7153581Y3766674D01*
X-7332049Y3891638D01*
X-7338709Y3897227D01*
X-7492773Y4051291D01*
X-7498362Y4057951D01*
X-7623326Y4236419D01*
X-7627680Y4243960D01*
X-7719757Y4441423D01*
X-7722728Y4449582D01*
X-7779120Y4660038D01*
X-7780631Y4668613D01*
X-7799808Y4887809D01*
X-7800000Y4892194D01*
X-7800000Y5773982D01*
X-7798434Y5778747D01*
X-7783987Y5786046D01*
X-7783987Y6090005D01*
X-7788752Y6091571D01*
X-7800000Y6113833D01*
X-7800000Y6987806D01*
X-7799808Y6992191D01*
X-7780631Y7211387D01*
X-7779120Y7219962D01*
X-7722728Y7430418D01*
X-7719757Y7438577D01*
X-7627680Y7636040D01*
X-7623326Y7643581D01*
X-7498362Y7822049D01*
X-7492773Y7828709D01*
X-7338709Y7982773D01*
X-7332049Y7988362D01*
X-7153581Y8113326D01*
X-7146040Y8117680D01*
X-6948577Y8209757D01*
X-6940418Y8212728D01*
X-6729960Y8269120D01*
X-6721388Y8270631D01*
X-6665958Y8275480D01*
X-6652746Y8272383D01*
X-6650519Y8269768D01*
X-6650005Y8267150D01*
X-6650005Y7975226D01*
X-6695090Y7970785D01*
X-6882683Y7913880D01*
X-7055570Y7821470D01*
X-7207107Y7697107D01*
X-7331470Y7545570D01*
X-7423880Y7372683D01*
X-7480785Y7185090D01*
X-7500000Y6990000D01*
X-7500000Y6090005D01*
X-7783987Y6090005D01*
X-7783987Y5786046D01*
X-7776172Y5789995D01*
X-7500000Y5789995D01*
X-7500000Y4890000D01*
X-7480785Y4694910D01*
X-7423880Y4507317D01*
X-7331470Y4334430D01*
X-7207107Y4182893D01*
X-7055570Y4058530D01*
X-6882683Y3966120D01*
X-6695090Y3909215D01*
X-6650005Y3904774D01*
X-6650005Y3619137D01*
X-6654242Y3606247D01*
X-6657042Y3604256D01*
X-6659697Y3603972D01*
X-6659697Y3178125D01*
X-6334042Y3178125D01*
X-6334042Y3604520D01*
X-6347254Y3607617D01*
X-6349481Y3610232D01*
X-6349995Y3612850D01*
X-6349995Y3904774D01*
X-6304910Y3909215D01*
X-6117317Y3966120D01*
X-5944430Y4058530D01*
X-5792893Y4182893D01*
X-5668530Y4334430D01*
X-5576120Y4507317D01*
X-5519215Y4694910D01*
X-5500000Y4890000D01*
X-5500000Y5789995D01*
X-5500000Y6090005D01*
X-5500000Y6990000D01*
X-5519215Y7185090D01*
X-5576120Y7372683D01*
X-5668530Y7545570D01*
X-5792893Y7697107D01*
X-5944430Y7821470D01*
X-6117317Y7913880D01*
X-6304910Y7970785D01*
X-6349995Y7975226D01*
X-6349995Y8260863D01*
X-6345758Y8273753D01*
X-6342958Y8275744D01*
X-6340303Y8276028D01*
X-6278612Y8270631D01*
X-6270040Y8269120D01*
X-6059582Y8212728D01*
X-6051423Y8209757D01*
X-5853960Y8117680D01*
X-5846419Y8113326D01*
X-5667951Y7988362D01*
X-5661291Y7982773D01*
X-5507227Y7828709D01*
X-5501638Y7822049D01*
X-5376674Y7643581D01*
X-5372320Y7636040D01*
X-5280243Y7438577D01*
X-5277272Y7430418D01*
X-5220880Y7219962D01*
X-5219369Y7211387D01*
X-5200192Y6992191D01*
X-5200000Y6987806D01*
X-5200000Y6106018D01*
X-5201566Y6101253D01*
X-5223828Y6090005D01*
X-5500000Y6090005D01*
X-5500000Y5789995D01*
X-5216013Y5789995D01*
X-5211248Y5788429D01*
X-5200000Y5766167D01*
X-5200000Y4892194D01*
X-5200192Y4887809D01*
X-5219369Y4668613D01*
X-5220880Y4660038D01*
X-5277272Y4449582D01*
X-5280243Y4441423D01*
X-5372320Y4243960D01*
X-5376674Y4236419D01*
X-5501638Y4057951D01*
X-5507227Y4051291D01*
X-5661291Y3897227D01*
X-5667951Y3891638D01*
X-5846419Y3766674D01*
X-5853960Y3762320D01*
X-6051423Y3670243D01*
X-6059582Y3667272D01*
X-6270040Y3610880D01*
X-6278612Y3609369D01*
X-6334042Y3604520D01*
X-6334042Y3178125D01*
X-2623306Y3178125D01*
X-2615491Y3177510D01*
X-2596056Y3174432D01*
X-2580414Y3173201D01*
X-2564670Y3173201D01*
X-2549313Y3170769D01*
X-2534340Y3165904D01*
X-2519084Y3162241D01*
X-2503540Y3159779D01*
X-2488754Y3154974D01*
X-2474737Y3147832D01*
X-2460239Y3141826D01*
X-2445263Y3136960D01*
X-2431411Y3129902D01*
X-2418677Y3120650D01*
X-2405297Y3112450D01*
X-2391269Y3105302D01*
X-2378698Y3096169D01*
X-2367564Y3085035D01*
X-2355633Y3074845D01*
X-2339711Y3063277D01*
X-2333754Y3058189D01*
X-818294Y1542729D01*
X-762555Y1514567D01*
X-700977Y1524965D01*
X-657576Y1569869D01*
X-648314Y1601385D01*
X-631841Y1737054D01*
X-628969Y1748707D01*
X-577690Y1883917D01*
X-572112Y1894545D01*
X-489966Y2013555D01*
X-482006Y2022540D01*
X-373770Y2118428D01*
X-363887Y2125251D01*
X-235851Y2192449D01*
X-224615Y2196710D01*
X-204355Y2201703D01*
X-204355Y3590381D01*
X-421387Y3609369D01*
X-429962Y3610880D01*
X-640418Y3667272D01*
X-648577Y3670243D01*
X-846040Y3762320D01*
X-853581Y3766674D01*
X-1032049Y3891638D01*
X-1038709Y3897227D01*
X-1192773Y4051291D01*
X-1198362Y4057951D01*
X-1323326Y4236419D01*
X-1327680Y4243960D01*
X-1419757Y4441423D01*
X-1422728Y4449582D01*
X-1479120Y4660038D01*
X-1480631Y4668613D01*
X-1499808Y4887809D01*
X-1500000Y4892194D01*
X-1500000Y6987806D01*
X-1499808Y6992191D01*
X-1480631Y7211387D01*
X-1479120Y7219962D01*
X-1422728Y7430418D01*
X-1419757Y7438577D01*
X-1327680Y7636040D01*
X-1323326Y7643581D01*
X-1198362Y7822049D01*
X-1192773Y7828709D01*
X-1038709Y7982773D01*
X-1032049Y7988362D01*
X-853581Y8113326D01*
X-846040Y8117680D01*
X-648577Y8209757D01*
X-640418Y8212728D01*
X-429962Y8269120D01*
X-421387Y8270631D01*
X-204355Y8289619D01*
X-195645Y8289619D01*
X21387Y8270631D01*
X29962Y8269120D01*
X240418Y8212728D01*
X248577Y8209757D01*
X446040Y8117680D01*
X453581Y8113326D01*
X632049Y7988362D01*
X638709Y7982773D01*
X792773Y7828709D01*
X798362Y7822049D01*
X923326Y7643581D01*
X927680Y7636040D01*
X1019757Y7438577D01*
X1022728Y7430418D01*
X1079120Y7219962D01*
X1080631Y7211387D01*
X1099808Y6992191D01*
X1100000Y6987806D01*
X1100000Y4892194D01*
X1099808Y4887809D01*
X1080631Y4668613D01*
X1079120Y4660038D01*
X1022728Y4449582D01*
X1019757Y4441423D01*
X927680Y4243960D01*
X923326Y4236419D01*
X798362Y4057951D01*
X792773Y4051291D01*
X638709Y3897227D01*
X632049Y3891638D01*
X453581Y3766674D01*
X446040Y3762320D01*
X248577Y3670243D01*
X240418Y3667272D01*
X29962Y3610880D01*
X21387Y3609369D01*
X-195645Y3590381D01*
X-204355Y3590381D01*
X-204355Y2201703D01*
X-84226Y2231312D01*
X-72297Y2232761D01*
X72297Y2232761D01*
X84226Y2231312D01*
X224615Y2196710D01*
X235851Y2192449D01*
X363887Y2125251D01*
X373770Y2118428D01*
X482006Y2022540D01*
X489966Y2013555D01*
X572112Y1894545D01*
X577690Y1883917D01*
X628969Y1748707D01*
X631841Y1737054D01*
X649271Y1593504D01*
X649271Y1581496D01*
X631841Y1437946D01*
X628969Y1426293D01*
X577690Y1291083D01*
X572112Y1280455D01*
X489966Y1161445D01*
X482006Y1152460D01*
X373770Y1056572D01*
X363887Y1049749D01*
X235851Y982551D01*
X224615Y978290D01*
X84226Y943688D01*
X72297Y942239D01*
X-23034Y942239D01*
X-82361Y922739D01*
X-118550Y871844D01*
X-118140Y811343D01*
X-112553Y794145D01*
X-106546Y779641D01*
X-99399Y765614D01*
X-94596Y750835D01*
X-92133Y735284D01*
X-88470Y720028D01*
X-83607Y705061D01*
X-81175Y689704D01*
X-81175Y673967D01*
X-79944Y658324D01*
X-76865Y638882D01*
X-76250Y631069D01*
X-76250Y-637928D01*
X-42563Y-712778D01*
X5756Y-755585D01*
X13716Y-764570D01*
X95862Y-883580D01*
X101440Y-894208D01*
X152719Y-1029418D01*
X155591Y-1041071D01*
X173021Y-1184621D01*
X173021Y-1196629D01*
X155591Y-1340179D01*
X152719Y-1351832D01*
X101440Y-1487042D01*
X95862Y-1497670D01*
X13716Y-1616680D01*
X5756Y-1625665D01*
X-102480Y-1721553D01*
X-112363Y-1728376D01*
X-240399Y-1795574D01*
X-251635Y-1799835D01*
X-392024Y-1834437D01*
X-403953Y-1835886D01*
X-548547Y-1835886D01*
X-548547Y-2305000D01*
X1283931Y-2305000D01*
X1283931Y-1000000D01*
X1276118Y-999385D01*
X1195069Y-986548D01*
X1180282Y-981744D01*
X1110674Y-946277D01*
X1098101Y-937142D01*
X1042858Y-881899D01*
X1033723Y-869326D01*
X998256Y-799718D01*
X993452Y-784931D01*
X980615Y-703882D01*
X980000Y-696069D01*
X980000Y696069D01*
X980615Y703882D01*
X993452Y784931D01*
X998256Y799718D01*
X1033723Y869326D01*
X1042858Y881899D01*
X1098101Y937142D01*
X1110674Y946277D01*
X1180282Y981744D01*
X1195069Y986548D01*
X1276118Y999385D01*
X1283931Y1000000D01*
X1832703Y1000000D01*
X1832703Y3640989D01*
X1820774Y3642438D01*
X1680385Y3677040D01*
X1669149Y3681301D01*
X1541113Y3748499D01*
X1531230Y3755322D01*
X1422994Y3851210D01*
X1415034Y3860195D01*
X1332888Y3979205D01*
X1327310Y3989833D01*
X1276031Y4125043D01*
X1273159Y4136696D01*
X1255729Y4280246D01*
X1255729Y4292254D01*
X1273159Y4435804D01*
X1276031Y4447457D01*
X1327310Y4582667D01*
X1332888Y4593295D01*
X1415034Y4712305D01*
X1422994Y4721290D01*
X1471313Y4764097D01*
X1505000Y4838947D01*
X1505000Y8860603D01*
X1463779Y8941504D01*
X1373934Y9006780D01*
X1366192Y9013750D01*
X1261294Y9130251D01*
X1255164Y9138689D01*
X1176784Y9274448D01*
X1172545Y9283968D01*
X1124099Y9433068D01*
X1121935Y9443254D01*
X1105548Y9599161D01*
X1105548Y9609589D01*
X1121935Y9765496D01*
X1124099Y9775682D01*
X1172545Y9924782D01*
X1176784Y9934302D01*
X1255164Y10070061D01*
X1261294Y10078499D01*
X1366192Y10195000D01*
X1373934Y10201970D01*
X1500757Y10294112D01*
X1509791Y10299328D01*
X1652999Y10363089D01*
X1662912Y10366310D01*
X1816255Y10398904D01*
X1826615Y10399993D01*
X1983385Y10399993D01*
X1993745Y10398904D01*
X2147088Y10366310D01*
X2157001Y10363089D01*
X2300209Y10299328D01*
X2309243Y10294112D01*
X2436066Y10201970D01*
X2443808Y10195000D01*
X2548706Y10078499D01*
X2554836Y10070061D01*
X2633216Y9934302D01*
X2637455Y9924782D01*
X2685901Y9775682D01*
X2688065Y9765496D01*
X2704452Y9609589D01*
X2704452Y9599161D01*
X2688065Y9443254D01*
X2685901Y9433068D01*
X2637455Y9283968D01*
X2633216Y9274448D01*
X2554836Y9138689D01*
X2548706Y9130251D01*
X2443808Y9013750D01*
X2436066Y9006780D01*
X2346221Y8941504D01*
X2305000Y8860603D01*
X2305000Y4838947D01*
X2338687Y4764097D01*
X2387006Y4721290D01*
X2394966Y4712305D01*
X2477112Y4593295D01*
X2482690Y4582667D01*
X2533969Y4447457D01*
X2536841Y4435804D01*
X2554271Y4292254D01*
X2554271Y4280246D01*
X2536841Y4136696D01*
X2533969Y4125043D01*
X2482690Y3989833D01*
X2477112Y3979205D01*
X2394966Y3860195D01*
X2387006Y3851210D01*
X2278770Y3755322D01*
X2268887Y3748499D01*
X2140851Y3681301D01*
X2129615Y3677040D01*
X1989226Y3642438D01*
X1977297Y3640989D01*
X1832703Y3640989D01*
X1832703Y1000000D01*
X2676069Y1000000D01*
X2683882Y999385D01*
X2764931Y986548D01*
X2779718Y981744D01*
X2849326Y946277D01*
X2861899Y937142D01*
X2917142Y881899D01*
X2926277Y869326D01*
X2961744Y799718D01*
X2966548Y784931D01*
X2979385Y703882D01*
X2980000Y696069D01*
X2980000Y-696069D01*
X2979385Y-703882D01*
X2966548Y-784931D01*
X2961744Y-799718D01*
X2926277Y-869326D01*
X2917142Y-881899D01*
X2861899Y-937142D01*
X2849326Y-946277D01*
X2779718Y-981744D01*
X2764931Y-986548D01*
X2683882Y-999385D01*
X2676069Y-1000000D01*
X1283931Y-1000000D01*
X1283931Y-2305000D01*
X3420203Y-2305000D01*
X3420203Y3879114D01*
X3408274Y3880563D01*
X3267885Y3915165D01*
X3256649Y3919426D01*
X3128613Y3986624D01*
X3118730Y3993447D01*
X3010494Y4089335D01*
X3002534Y4098320D01*
X2920388Y4217330D01*
X2914810Y4227958D01*
X2863531Y4363168D01*
X2860659Y4374821D01*
X2843229Y4518371D01*
X2843229Y4530379D01*
X2860659Y4673929D01*
X2863531Y4685582D01*
X2914810Y4820792D01*
X2920388Y4831420D01*
X3002534Y4950430D01*
X3010494Y4959415D01*
X3058813Y5002222D01*
X3092500Y5077072D01*
X3092500Y8886068D01*
X3093115Y8893879D01*
X3096193Y8913314D01*
X3097424Y8928958D01*
X3097424Y8944704D01*
X3099856Y8960061D01*
X3104721Y8975034D01*
X3108384Y8990290D01*
X3110846Y9005834D01*
X3115651Y9020620D01*
X3122793Y9034637D01*
X3128799Y9049135D01*
X3133665Y9064112D01*
X3140723Y9077963D01*
X3149977Y9090700D01*
X3158177Y9104082D01*
X3165320Y9118101D01*
X3174456Y9130676D01*
X3185584Y9141804D01*
X3195775Y9153736D01*
X3207349Y9169666D01*
X3212434Y9175620D01*
X3395433Y9358619D01*
X3424174Y9439781D01*
X3407423Y9599160D01*
X3407423Y9609589D01*
X3423810Y9765496D01*
X3425974Y9775682D01*
X3474420Y9924782D01*
X3478659Y9934302D01*
X3557039Y10070061D01*
X3563169Y10078499D01*
X3668067Y10195000D01*
X3675809Y10201970D01*
X3802632Y10294112D01*
X3811666Y10299328D01*
X3954874Y10363089D01*
X3964787Y10366310D01*
X4118130Y10398904D01*
X4128490Y10399993D01*
X4285260Y10399993D01*
X4295620Y10398904D01*
X4448963Y10366310D01*
X4458876Y10363089D01*
X4602084Y10299328D01*
X4611118Y10294112D01*
X4737941Y10201970D01*
X4745683Y10195000D01*
X4850581Y10078499D01*
X4856711Y10070061D01*
X4935091Y9934302D01*
X4939330Y9924782D01*
X4987776Y9775682D01*
X4989940Y9765496D01*
X5006327Y9609589D01*
X5006327Y9599161D01*
X4989940Y9443254D01*
X4987776Y9433068D01*
X4939330Y9283968D01*
X4935091Y9274448D01*
X4856711Y9138689D01*
X4850581Y9130251D01*
X4745683Y9013750D01*
X4737941Y9006780D01*
X4611118Y8914638D01*
X4602084Y8909422D01*
X4458876Y8845661D01*
X4448963Y8842440D01*
X4295620Y8809846D01*
X4285260Y8808757D01*
X4128488Y8808757D01*
X4118130Y8809846D01*
X4055699Y8823116D01*
X3993614Y8816377D01*
X3964198Y8796012D01*
X3921789Y8753603D01*
X3892500Y8682893D01*
X3892500Y5077072D01*
X3926187Y5002222D01*
X3974506Y4959415D01*
X3982466Y4950430D01*
X4064612Y4831420D01*
X4070190Y4820792D01*
X4121469Y4685582D01*
X4124341Y4673929D01*
X4141771Y4530379D01*
X4141771Y4518371D01*
X4124341Y4374821D01*
X4121469Y4363168D01*
X4070190Y4227958D01*
X4064612Y4217330D01*
X3982466Y4098320D01*
X3974506Y4089335D01*
X3866270Y3993447D01*
X3856387Y3986624D01*
X3728351Y3919426D01*
X3717115Y3915165D01*
X3576726Y3880563D01*
X3564797Y3879114D01*
X3420203Y3879114D01*
X3420203Y-2305000D01*
X3716482Y-2305000D01*
X3716482Y-585386D01*
X3713383Y-584863D01*
X3710926Y-582858D01*
X3691649Y-559371D01*
X3686212Y-551233D01*
X3598439Y-387021D01*
X3594692Y-377977D01*
X3540642Y-199794D01*
X3538733Y-190197D01*
X3520482Y-4894D01*
X3520482Y4894D01*
X3538733Y190197D01*
X3540642Y199794D01*
X3594692Y377977D01*
X3598439Y387021D01*
X3686212Y551233D01*
X3691649Y559371D01*
X3707112Y578211D01*
X3718566Y585488D01*
X3721702Y585271D01*
X3724343Y583518D01*
X3933629Y374232D01*
X3889322Y303719D01*
X3837550Y155765D01*
X3820000Y0D01*
X3837550Y-155765D01*
X3889322Y-303719D01*
X3933629Y-374232D01*
X3728594Y-579267D01*
X3716482Y-585386D01*
X3716482Y-2305000D01*
X4515106Y-2305000D01*
X4515106Y-999518D01*
X4329803Y-981267D01*
X4320206Y-979358D01*
X4142023Y-925308D01*
X4132979Y-921561D01*
X3968767Y-833788D01*
X3960629Y-828351D01*
X3941789Y-812888D01*
X3934512Y-801434D01*
X3934729Y-798298D01*
X3936482Y-795657D01*
X4145768Y-586371D01*
X4216281Y-630678D01*
X4364235Y-682450D01*
X4520000Y-700000D01*
X4675765Y-682450D01*
X4823719Y-630678D01*
X4894232Y-586371D01*
X5099267Y-791406D01*
X5105386Y-803518D01*
X5104863Y-806617D01*
X5102858Y-809074D01*
X5079371Y-828351D01*
X5071233Y-833788D01*
X4907021Y-921561D01*
X4897977Y-925308D01*
X4719794Y-979358D01*
X4710197Y-981267D01*
X4524894Y-999518D01*
X4515106Y-999518D01*
X4515106Y-2305000D01*
X5321434Y-2305000D01*
X5321434Y-585488D01*
X5318298Y-585271D01*
X5315657Y-583518D01*
X5106371Y-374232D01*
X5150678Y-303719D01*
X5202450Y-155765D01*
X5220000Y0D01*
X5202450Y155765D01*
X5150678Y303719D01*
X5067282Y436443D01*
X4956443Y547282D01*
X4823719Y630678D01*
X4675765Y682450D01*
X4520000Y700000D01*
X4364235Y682450D01*
X4216281Y630678D01*
X4145768Y586371D01*
X3940733Y791406D01*
X3934614Y803518D01*
X3935137Y806617D01*
X3937142Y809074D01*
X3960629Y828351D01*
X3968767Y833788D01*
X4132979Y921561D01*
X4142023Y925308D01*
X4320206Y979358D01*
X4329803Y981267D01*
X4515106Y999518D01*
X4524894Y999518D01*
X4710197Y981267D01*
X4719794Y979358D01*
X4783220Y960118D01*
X4845653Y961556D01*
X4895058Y999755D01*
X4911518Y1067865D01*
X4906979Y1105246D01*
X4906979Y1117254D01*
X4924409Y1260804D01*
X4927281Y1272457D01*
X4978560Y1407667D01*
X4984138Y1418295D01*
X5066284Y1537305D01*
X5074244Y1546290D01*
X5122563Y1589097D01*
X5156250Y1663947D01*
X5156250Y2853569D01*
X5156865Y2861384D01*
X5159943Y2880819D01*
X5161174Y2896461D01*
X5161174Y2902086D01*
X5141674Y2961413D01*
X5090779Y2997602D01*
X5028338Y2996540D01*
X4994863Y2976936D01*
X4977520Y2961572D01*
X4967637Y2954749D01*
X4839601Y2887551D01*
X4828365Y2883290D01*
X4687976Y2848688D01*
X4676047Y2847239D01*
X4531453Y2847239D01*
X4519524Y2848688D01*
X4379135Y2883290D01*
X4367899Y2887551D01*
X4239863Y2954749D01*
X4229980Y2961572D01*
X4121744Y3057460D01*
X4113784Y3066445D01*
X4031638Y3185455D01*
X4026060Y3196083D01*
X3974781Y3331293D01*
X3971909Y3342946D01*
X3954479Y3486496D01*
X3954479Y3498504D01*
X3971909Y3642054D01*
X3974781Y3653707D01*
X4026060Y3788917D01*
X4031638Y3799545D01*
X4113784Y3918555D01*
X4121744Y3927540D01*
X4229980Y4023428D01*
X4239863Y4030251D01*
X4367899Y4097449D01*
X4379135Y4101710D01*
X4519524Y4136312D01*
X4531453Y4137761D01*
X4676047Y4137761D01*
X4687976Y4136312D01*
X4828365Y4101710D01*
X4839601Y4097449D01*
X4967637Y4030251D01*
X4977520Y4023428D01*
X5085756Y3927540D01*
X5093716Y3918555D01*
X5175862Y3799545D01*
X5181440Y3788917D01*
X5232719Y3653707D01*
X5235591Y3642054D01*
X5253021Y3498504D01*
X5253021Y3486496D01*
X5237294Y3356974D01*
X5249501Y3295729D01*
X5295662Y3253668D01*
X5357776Y3247197D01*
X5407274Y3274210D01*
X5692404Y3559340D01*
X5720566Y3615079D01*
X5714081Y3668319D01*
X5689202Y3728379D01*
X5685841Y3740923D01*
X5670426Y3858011D01*
X5670000Y3864520D01*
X5670000Y5877980D01*
X5670426Y5884489D01*
X5685841Y6001577D01*
X5689203Y6014124D01*
X5733140Y6120196D01*
X5739637Y6131449D01*
X5809528Y6222532D01*
X5818718Y6231722D01*
X5909801Y6301613D01*
X5921054Y6308110D01*
X6027126Y6352047D01*
X6039673Y6355409D01*
X6156761Y6370824D01*
X6163270Y6371250D01*
X6163270Y7281250D01*
X6156761Y7281676D01*
X6039673Y7297091D01*
X6027126Y7300453D01*
X5921054Y7344390D01*
X5909801Y7350887D01*
X5818718Y7420778D01*
X5809528Y7429968D01*
X5739637Y7521051D01*
X5733140Y7532304D01*
X5689203Y7638376D01*
X5685841Y7650923D01*
X5670426Y7768011D01*
X5670000Y7774520D01*
X5670000Y8615232D01*
X5671566Y8619997D01*
X5686013Y8627296D01*
X5686013Y8931255D01*
X5681248Y8932821D01*
X5670000Y8955083D01*
X5670000Y9787980D01*
X5670426Y9794489D01*
X5685841Y9911577D01*
X5689203Y9924124D01*
X5733140Y10030196D01*
X5739637Y10041449D01*
X5809528Y10132532D01*
X5818718Y10141722D01*
X5909801Y10211613D01*
X5921054Y10218110D01*
X6027126Y10262047D01*
X6039673Y10265409D01*
X6156761Y10280824D01*
X6163270Y10281250D01*
X6183982Y10281250D01*
X6188747Y10279684D01*
X6199995Y10257422D01*
X6199995Y9981250D01*
X6160000Y9981250D01*
X6087290Y9966787D01*
X6025650Y9925600D01*
X5984463Y9863960D01*
X5970000Y9791250D01*
X5970000Y8931255D01*
X5686013Y8931255D01*
X5686013Y8627296D01*
X5693828Y8631245D01*
X5970000Y8631245D01*
X5970000Y7771250D01*
X5984463Y7698540D01*
X6025650Y7636900D01*
X6087290Y7595713D01*
X6160000Y7581250D01*
X6199995Y7581250D01*
X6199995Y7297263D01*
X6198429Y7292498D01*
X6176167Y7281250D01*
X6163270Y7281250D01*
X6163270Y6371250D01*
X6516018Y6371250D01*
X6516018Y7281250D01*
X6511253Y7282816D01*
X6500005Y7305078D01*
X6500005Y7581250D01*
X6540000Y7581250D01*
X6612710Y7595713D01*
X6674350Y7636900D01*
X6715537Y7698540D01*
X6730000Y7771250D01*
X6730000Y9791250D01*
X6715537Y9863960D01*
X6674350Y9925600D01*
X6612710Y9966787D01*
X6540000Y9981250D01*
X6500005Y9981250D01*
X6500005Y10265237D01*
X6501571Y10270002D01*
X6523833Y10281250D01*
X6536730Y10281250D01*
X6543239Y10280824D01*
X6660327Y10265409D01*
X6672874Y10262047D01*
X6778946Y10218110D01*
X6790199Y10211613D01*
X6881282Y10141722D01*
X6890472Y10132532D01*
X6905666Y10112731D01*
X6957252Y10077535D01*
X7019660Y10079807D01*
X7064334Y10112731D01*
X7079528Y10132532D01*
X7088718Y10141722D01*
X7179801Y10211613D01*
X7191054Y10218110D01*
X7297126Y10262047D01*
X7309673Y10265409D01*
X7426761Y10280824D01*
X7433270Y10281250D01*
X7806730Y10281250D01*
X7813239Y10280824D01*
X7930327Y10265409D01*
X7942874Y10262047D01*
X8048946Y10218110D01*
X8060199Y10211613D01*
X8151282Y10141722D01*
X8160472Y10132532D01*
X8175666Y10112731D01*
X8227252Y10077535D01*
X8289660Y10079807D01*
X8334334Y10112731D01*
X8349528Y10132532D01*
X8358718Y10141722D01*
X8449801Y10211613D01*
X8461054Y10218110D01*
X8567126Y10262047D01*
X8579673Y10265409D01*
X8696761Y10280824D01*
X8703270Y10281250D01*
X8723982Y10281250D01*
X8728747Y10279684D01*
X8739995Y10257422D01*
X8739995Y9981250D01*
X8700000Y9981250D01*
X8627290Y9966787D01*
X8565650Y9925600D01*
X8524463Y9863960D01*
X8510000Y9791250D01*
X8510000Y7771250D01*
X8524463Y7698540D01*
X8565650Y7636900D01*
X8627290Y7595713D01*
X8700000Y7581250D01*
X8739995Y7581250D01*
X8739995Y7297263D01*
X8738429Y7292498D01*
X8716167Y7281250D01*
X8703270Y7281250D01*
X8696761Y7281676D01*
X8579673Y7297091D01*
X8567126Y7300453D01*
X8461054Y7344390D01*
X8449801Y7350887D01*
X8358718Y7420778D01*
X8349528Y7429968D01*
X8334334Y7449769D01*
X8282748Y7484965D01*
X8220340Y7482693D01*
X8175666Y7449769D01*
X8160472Y7429968D01*
X8151282Y7420778D01*
X8060199Y7350887D01*
X8048946Y7344390D01*
X7942874Y7300453D01*
X7930327Y7297091D01*
X7813239Y7281676D01*
X7806730Y7281250D01*
X7433270Y7281250D01*
X7426761Y7281676D01*
X7309673Y7297091D01*
X7297126Y7300453D01*
X7191054Y7344390D01*
X7179801Y7350887D01*
X7088718Y7420778D01*
X7079528Y7429968D01*
X7064334Y7449769D01*
X7012748Y7484965D01*
X6950340Y7482693D01*
X6905666Y7449769D01*
X6890472Y7429968D01*
X6881282Y7420778D01*
X6790199Y7350887D01*
X6778946Y7344390D01*
X6672874Y7300453D01*
X6660327Y7297091D01*
X6543239Y7281676D01*
X6536730Y7281250D01*
X6516018Y7281250D01*
X6516018Y6371250D01*
X6536730Y6371250D01*
X6543239Y6370824D01*
X6660327Y6355409D01*
X6672874Y6352047D01*
X6778946Y6308110D01*
X6790199Y6301613D01*
X6881282Y6231722D01*
X6890472Y6222532D01*
X6905666Y6202731D01*
X6957252Y6167535D01*
X7019660Y6169807D01*
X7064334Y6202731D01*
X7079528Y6222532D01*
X7088718Y6231722D01*
X7179801Y6301613D01*
X7191054Y6308110D01*
X7297126Y6352047D01*
X7309673Y6355409D01*
X7426761Y6370824D01*
X7433270Y6371250D01*
X7806730Y6371250D01*
X7813239Y6370824D01*
X7930327Y6355409D01*
X7942874Y6352047D01*
X8048946Y6308110D01*
X8060199Y6301613D01*
X8151282Y6231722D01*
X8160472Y6222532D01*
X8175666Y6202731D01*
X8227252Y6167535D01*
X8289660Y6169807D01*
X8334334Y6202731D01*
X8349528Y6222532D01*
X8358718Y6231722D01*
X8449801Y6301613D01*
X8461054Y6308110D01*
X8567126Y6352047D01*
X8579673Y6355409D01*
X8696761Y6370824D01*
X8703270Y6371250D01*
X9056018Y6371250D01*
X9056018Y7281250D01*
X9051253Y7282816D01*
X9040005Y7305078D01*
X9040005Y7581250D01*
X9080000Y7581250D01*
X9152710Y7595713D01*
X9214350Y7636900D01*
X9255537Y7698540D01*
X9270000Y7771250D01*
X9270000Y8631245D01*
X9270000Y8931255D01*
X9270000Y9791250D01*
X9255537Y9863960D01*
X9214350Y9925600D01*
X9152710Y9966787D01*
X9080000Y9981250D01*
X9040005Y9981250D01*
X9040005Y10265237D01*
X9041571Y10270002D01*
X9063833Y10281250D01*
X9076730Y10281250D01*
X9083239Y10280824D01*
X9200327Y10265409D01*
X9212874Y10262047D01*
X9318946Y10218110D01*
X9330199Y10211613D01*
X9421282Y10141722D01*
X9430472Y10132532D01*
X9445666Y10112731D01*
X9497252Y10077535D01*
X9559660Y10079807D01*
X9604334Y10112731D01*
X9619528Y10132532D01*
X9628718Y10141722D01*
X9719801Y10211613D01*
X9731054Y10218110D01*
X9837126Y10262047D01*
X9849673Y10265409D01*
X9966761Y10280824D01*
X9973270Y10281250D01*
X9993982Y10281250D01*
X9998747Y10279684D01*
X10009995Y10257422D01*
X10009995Y9981250D01*
X9970000Y9981250D01*
X9897290Y9966787D01*
X9835650Y9925600D01*
X9794463Y9863960D01*
X9780000Y9791250D01*
X9780000Y8931255D01*
X9270000Y8931255D01*
X9270000Y8631245D01*
X9780000Y8631245D01*
X9780000Y7771250D01*
X9794463Y7698540D01*
X9835650Y7636900D01*
X9897290Y7595713D01*
X9970000Y7581250D01*
X10009995Y7581250D01*
X10009995Y7297263D01*
X10008429Y7292498D01*
X9986167Y7281250D01*
X9973270Y7281250D01*
X9966761Y7281676D01*
X9849673Y7297091D01*
X9837126Y7300453D01*
X9731054Y7344390D01*
X9719801Y7350887D01*
X9628718Y7420778D01*
X9619528Y7429968D01*
X9604334Y7449769D01*
X9552748Y7484965D01*
X9490340Y7482693D01*
X9445666Y7449769D01*
X9430472Y7429968D01*
X9421282Y7420778D01*
X9330199Y7350887D01*
X9318946Y7344390D01*
X9212874Y7300453D01*
X9200327Y7297091D01*
X9083239Y7281676D01*
X9076730Y7281250D01*
X9056018Y7281250D01*
X9056018Y6371250D01*
X9076730Y6371250D01*
X9083239Y6370824D01*
X9200327Y6355409D01*
X9212874Y6352047D01*
X9318946Y6308110D01*
X9330199Y6301613D01*
X9421282Y6231722D01*
X9430472Y6222532D01*
X9445666Y6202731D01*
X9497252Y6167535D01*
X9559660Y6169807D01*
X9604334Y6202731D01*
X9619528Y6222532D01*
X9628718Y6231722D01*
X9719801Y6301613D01*
X9731054Y6308110D01*
X9837126Y6352047D01*
X9849673Y6355409D01*
X9966761Y6370824D01*
X9973270Y6371250D01*
X10346730Y6371250D01*
X10353239Y6370824D01*
X10470327Y6355409D01*
X10482874Y6352047D01*
X10588946Y6308110D01*
X10600199Y6301613D01*
X10691282Y6231722D01*
X10700472Y6222532D01*
X10715666Y6202731D01*
X10767252Y6167535D01*
X10829660Y6169807D01*
X10874334Y6202731D01*
X10889528Y6222532D01*
X10898718Y6231722D01*
X10989801Y6301613D01*
X11001054Y6308110D01*
X11107126Y6352047D01*
X11119673Y6355409D01*
X11236761Y6370824D01*
X11243270Y6371250D01*
X11616730Y6371250D01*
X11623239Y6370824D01*
X11740327Y6355409D01*
X11752874Y6352047D01*
X11858946Y6308110D01*
X11870199Y6301613D01*
X11961282Y6231722D01*
X11970472Y6222532D01*
X12040363Y6131449D01*
X12046860Y6120196D01*
X12090797Y6014124D01*
X12094159Y6001577D01*
X12109574Y5884489D01*
X12110000Y5877980D01*
X12110000Y3864520D01*
X12109574Y3858011D01*
X12094159Y3740923D01*
X12090797Y3728376D01*
X12046860Y3622304D01*
X12040363Y3611051D01*
X11970472Y3519968D01*
X11961283Y3510779D01*
X11869124Y3440063D01*
X11830000Y3360728D01*
X11830000Y1591431D01*
X11829385Y1583618D01*
X11826307Y1564183D01*
X11825076Y1548540D01*
X11825076Y1532800D01*
X11822642Y1517436D01*
X11817780Y1502472D01*
X11814116Y1487212D01*
X11811654Y1471665D01*
X11806852Y1456886D01*
X11799705Y1442860D01*
X11793700Y1428362D01*
X11788835Y1413389D01*
X11781778Y1399539D01*
X11772524Y1386802D01*
X11764325Y1373423D01*
X11757179Y1359397D01*
X11748040Y1346819D01*
X11736913Y1335692D01*
X11726722Y1323760D01*
X11715151Y1307833D01*
X11710066Y1301880D01*
X11311550Y903364D01*
X11282990Y820602D01*
X11285521Y799755D01*
X11285521Y787746D01*
X11268091Y644196D01*
X11265219Y632543D01*
X11213940Y497333D01*
X11208362Y486705D01*
X11126216Y367695D01*
X11118256Y358710D01*
X11010020Y262822D01*
X11000137Y255999D01*
X10872101Y188801D01*
X10860865Y184540D01*
X10720476Y149938D01*
X10708547Y148489D01*
X10563953Y148489D01*
X10552024Y149938D01*
X10411635Y184540D01*
X10400399Y188801D01*
X10272363Y255999D01*
X10262480Y262822D01*
X10154244Y358710D01*
X10146284Y367695D01*
X10064138Y486705D01*
X10058560Y497333D01*
X10007281Y632543D01*
X10004409Y644196D01*
X9986979Y787746D01*
X9986979Y799754D01*
X10004409Y943304D01*
X10007281Y954957D01*
X10058560Y1090167D01*
X10064138Y1100795D01*
X10146284Y1219805D01*
X10154244Y1228790D01*
X10205868Y1274525D01*
X10237344Y1328462D01*
X10230682Y1390556D01*
X10205868Y1424225D01*
X10154244Y1469960D01*
X10146284Y1478945D01*
X10064138Y1597955D01*
X10058560Y1608583D01*
X10007281Y1743793D01*
X10004409Y1755446D01*
X9986979Y1898996D01*
X9986979Y1911006D01*
X9989510Y1931853D01*
X9960950Y2014615D01*
X9879935Y2095630D01*
X9874850Y2101584D01*
X9863281Y2117507D01*
X9853090Y2129439D01*
X9841960Y2140569D01*
X9832819Y2153151D01*
X9825676Y2167170D01*
X9817476Y2180553D01*
X9808222Y2193290D01*
X9801166Y2207137D01*
X9796302Y2222108D01*
X9790297Y2236606D01*
X9783148Y2250636D01*
X9778346Y2265415D01*
X9775884Y2280962D01*
X9772220Y2296222D01*
X9767357Y2311188D01*
X9764925Y2326545D01*
X9764925Y2342283D01*
X9763694Y2357926D01*
X9760615Y2377368D01*
X9760000Y2385181D01*
X9760000Y3360728D01*
X9720876Y3440063D01*
X9628717Y3510779D01*
X9619528Y3519968D01*
X9604334Y3539769D01*
X9552748Y3574965D01*
X9490340Y3572693D01*
X9445666Y3539769D01*
X9430472Y3519968D01*
X9421282Y3510778D01*
X9330199Y3440887D01*
X9318946Y3434390D01*
X9212874Y3390453D01*
X9200327Y3387091D01*
X9083239Y3371676D01*
X9076730Y3371250D01*
X8703270Y3371250D01*
X8696761Y3371676D01*
X8579673Y3387091D01*
X8567126Y3390453D01*
X8461054Y3434390D01*
X8449801Y3440887D01*
X8358718Y3510778D01*
X8349528Y3519968D01*
X8334334Y3539769D01*
X8282748Y3574965D01*
X8220340Y3572693D01*
X8175666Y3539769D01*
X8160472Y3519968D01*
X8151282Y3510778D01*
X8060199Y3440887D01*
X8048946Y3434390D01*
X7942874Y3390453D01*
X7930327Y3387091D01*
X7813239Y3371676D01*
X7806730Y3371250D01*
X7433270Y3371250D01*
X7426761Y3371676D01*
X7309673Y3387091D01*
X7297126Y3390453D01*
X7191054Y3434390D01*
X7179801Y3440887D01*
X7088718Y3510778D01*
X7079528Y3519968D01*
X7064334Y3539769D01*
X7012748Y3574965D01*
X6950340Y3572693D01*
X6905666Y3539769D01*
X6890472Y3519968D01*
X6881282Y3510778D01*
X6790199Y3440887D01*
X6778946Y3434390D01*
X6666821Y3387946D01*
X6667287Y3386822D01*
X6629360Y3364924D01*
X5985539Y2721103D01*
X5956250Y2650393D01*
X5956250Y1663947D01*
X5989937Y1589097D01*
X6038256Y1546290D01*
X6046216Y1537305D01*
X6128362Y1418295D01*
X6133940Y1407667D01*
X6185219Y1272457D01*
X6188091Y1260804D01*
X6205521Y1117254D01*
X6205521Y1105246D01*
X6188091Y961696D01*
X6185219Y950043D01*
X6133940Y814833D01*
X6128362Y804205D01*
X6046216Y685195D01*
X6038256Y676210D01*
X5930020Y580322D01*
X5920137Y573499D01*
X5792101Y506301D01*
X5780865Y502040D01*
X5640476Y467438D01*
X5628547Y465989D01*
X5553442Y465989D01*
X5494115Y446489D01*
X5457926Y395594D01*
X5457749Y336962D01*
X5499358Y199794D01*
X5501267Y190197D01*
X5519518Y4894D01*
X5519518Y-4894D01*
X5501267Y-190197D01*
X5499358Y-199794D01*
X5445308Y-377977D01*
X5441561Y-387021D01*
X5353788Y-551233D01*
X5348351Y-559371D01*
X5332888Y-578211D01*
X5321434Y-585488D01*
X5321434Y-2305000D01*
X8579543Y-2305000D01*
X8638870Y-2285500D01*
X8666144Y-2255001D01*
X8671311Y-2246051D01*
X8743188Y-2152380D01*
X8752380Y-2143188D01*
X8846051Y-2071311D01*
X8857304Y-2064815D01*
X8966390Y-2019629D01*
X8978937Y-2016267D01*
X9099261Y-2000426D01*
X9105770Y-2000000D01*
X10592711Y-2000000D01*
X10652038Y-1980500D01*
X10688227Y-1929605D01*
X10686212Y-1864541D01*
X10642281Y-1748706D01*
X10639409Y-1737054D01*
X10621979Y-1593504D01*
X10621979Y-1581496D01*
X10639409Y-1437946D01*
X10642281Y-1426293D01*
X10693560Y-1291083D01*
X10699138Y-1280455D01*
X10781284Y-1161445D01*
X10789244Y-1152460D01*
X10897480Y-1056572D01*
X10907363Y-1049749D01*
X11035399Y-982551D01*
X11046635Y-978290D01*
X11187024Y-943688D01*
X11198953Y-942239D01*
X11343547Y-942239D01*
X11355476Y-943688D01*
X11495865Y-978290D01*
X11507101Y-982551D01*
X11635137Y-1049749D01*
X11645020Y-1056572D01*
X11753256Y-1152460D01*
X11761216Y-1161445D01*
X11843362Y-1280455D01*
X11848940Y-1291083D01*
X11900219Y-1426293D01*
X11903091Y-1437946D01*
X11920521Y-1581496D01*
X11920521Y-1593504D01*
X11903091Y-1737054D01*
X11900219Y-1748706D01*
X11856288Y-1864541D01*
X11853483Y-1926927D01*
X11888238Y-1978813D01*
X11949789Y-2000000D01*
X13294230Y-2000000D01*
X13300739Y-2000426D01*
X13421063Y-2016267D01*
X13433610Y-2019629D01*
X13542693Y-2064813D01*
X13550000Y-2069032D01*
X13611129Y-2081809D01*
X13667918Y-2055828D01*
X13700000Y-1982431D01*
X13700000Y7954563D01*
X13680500Y8013890D01*
X13629605Y8050079D01*
X13545662Y8037236D01*
X13545492Y8037560D01*
X13544550Y8037066D01*
X13543192Y8036858D01*
X13540139Y8034751D01*
X13412101Y7967551D01*
X13400865Y7963290D01*
X13260476Y7928688D01*
X13248547Y7927239D01*
X13103953Y7927239D01*
X13092024Y7928688D01*
X12951635Y7963290D01*
X12940399Y7967551D01*
X12812363Y8034749D01*
X12802480Y8041572D01*
X12694244Y8137460D01*
X12686284Y8146445D01*
X12604137Y8265456D01*
X12598557Y8276088D01*
X12583150Y8316712D01*
X12543879Y8365269D01*
X12489650Y8381250D01*
X12209999Y8381250D01*
X12150672Y8361750D01*
X12110000Y8281251D01*
X12110000Y7774520D01*
X12109574Y7768011D01*
X12094159Y7650923D01*
X12090797Y7638376D01*
X12046860Y7532304D01*
X12040363Y7521051D01*
X11970472Y7429968D01*
X11961282Y7420778D01*
X11870199Y7350887D01*
X11858946Y7344390D01*
X11752874Y7300453D01*
X11740327Y7297091D01*
X11623239Y7281676D01*
X11616730Y7281250D01*
X11243270Y7281250D01*
X11236761Y7281676D01*
X11119673Y7297091D01*
X11107126Y7300453D01*
X11001054Y7344390D01*
X10989801Y7350887D01*
X10898718Y7420778D01*
X10889528Y7429968D01*
X10874334Y7449769D01*
X10822748Y7484965D01*
X10760340Y7482693D01*
X10715666Y7449769D01*
X10700472Y7429968D01*
X10691282Y7420778D01*
X10600199Y7350887D01*
X10588946Y7344390D01*
X10482874Y7300453D01*
X10470327Y7297091D01*
X10353239Y7281676D01*
X10346730Y7281250D01*
X10326018Y7281250D01*
X10321253Y7282816D01*
X10310005Y7305078D01*
X10310005Y7581250D01*
X10350000Y7581250D01*
X10422710Y7595713D01*
X10484350Y7636900D01*
X10525537Y7698540D01*
X10540000Y7771250D01*
X10540000Y9791250D01*
X10525537Y9863960D01*
X10484350Y9925600D01*
X10422710Y9966787D01*
X10350000Y9981250D01*
X10310005Y9981250D01*
X10310005Y10265237D01*
X10311571Y10270002D01*
X10333833Y10281250D01*
X10346730Y10281250D01*
X10353239Y10280824D01*
X10470327Y10265409D01*
X10482874Y10262047D01*
X10588946Y10218110D01*
X10600199Y10211613D01*
X10691282Y10141722D01*
X10700472Y10132532D01*
X10715666Y10112731D01*
X10767252Y10077535D01*
X10829660Y10079807D01*
X10874334Y10112731D01*
X10889528Y10132532D01*
X10898718Y10141722D01*
X10989801Y10211613D01*
X11001054Y10218110D01*
X11107126Y10262047D01*
X11119673Y10265409D01*
X11236761Y10280824D01*
X11243270Y10281250D01*
X11616730Y10281250D01*
X11623239Y10280824D01*
X11740327Y10265409D01*
X11752874Y10262047D01*
X11858946Y10218110D01*
X11870199Y10211613D01*
X11961282Y10141722D01*
X11970472Y10132532D01*
X12040363Y10041449D01*
X12046860Y10030196D01*
X12090797Y9924124D01*
X12094159Y9911577D01*
X12109574Y9794489D01*
X12110000Y9787980D01*
X12110000Y9281249D01*
X12129500Y9221922D01*
X12209999Y9181250D01*
X12937629Y9181250D01*
X12961560Y9184156D01*
X13092024Y9216312D01*
X13103953Y9217761D01*
X13248547Y9217761D01*
X13260476Y9216312D01*
X13400865Y9181710D01*
X13412101Y9177449D01*
X13540139Y9110249D01*
X13543192Y9108142D01*
X13545387Y9107495D01*
X13545492Y9107440D01*
X13545503Y9107461D01*
X13603094Y9090486D01*
X13661789Y9111811D01*
X13700000Y9190437D01*
X13700000Y10600001D01*
X13680500Y10659328D01*
X13600001Y10700000D01*
X-13600001Y10700000D01*
X-13659328Y10680500D01*
X-13700000Y10600001D01*
X-13700000Y-19600001D01*
G37*
G36*
X-10006183Y-10709770D02*
X-10005121Y-10772211D01*
X-9969446Y-10820274D01*
X-9959711Y-10827347D01*
X-9953755Y-10832434D01*
X-9706103Y-11080086D01*
X-9635393Y-11109375D01*
X-6115806Y-11109375D01*
X-6107991Y-11109990D01*
X-6088556Y-11113068D01*
X-6072914Y-11114299D01*
X-6057170Y-11114299D01*
X-6041813Y-11116731D01*
X-6026840Y-11121596D01*
X-6011583Y-11125259D01*
X-5995994Y-11127728D01*
X-5934347Y-11117749D01*
X-5890641Y-11073141D01*
X-5881081Y-11016906D01*
X-5888021Y-10959753D01*
X-5888021Y-10947746D01*
X-5870591Y-10804196D01*
X-5867719Y-10792543D01*
X-5816440Y-10657333D01*
X-5810862Y-10646705D01*
X-5728716Y-10527695D01*
X-5720756Y-10518710D01*
X-5612520Y-10422822D01*
X-5602637Y-10415999D01*
X-5474601Y-10348801D01*
X-5463365Y-10344540D01*
X-5322976Y-10309938D01*
X-5311047Y-10308489D01*
X-5200596Y-10308489D01*
X-5129886Y-10279200D01*
X-3993895Y-9143209D01*
X-3965733Y-9087470D01*
X-3976131Y-9025892D01*
X-4021035Y-8982491D01*
X-4064605Y-8972500D01*
X-5190393Y-8972500D01*
X-5261103Y-9001789D01*
X-6064380Y-9805066D01*
X-6070333Y-9810151D01*
X-6086260Y-9821722D01*
X-6098192Y-9831913D01*
X-6109319Y-9843040D01*
X-6121897Y-9852179D01*
X-6135923Y-9859325D01*
X-6149302Y-9867524D01*
X-6162039Y-9876778D01*
X-6175889Y-9883835D01*
X-6190862Y-9888700D01*
X-6205360Y-9894705D01*
X-6219386Y-9901852D01*
X-6234165Y-9906654D01*
X-6249712Y-9909116D01*
X-6264972Y-9912780D01*
X-6279936Y-9917642D01*
X-6295300Y-9920076D01*
X-6311040Y-9920076D01*
X-6326683Y-9921307D01*
X-6346118Y-9924385D01*
X-6353931Y-9925000D01*
X-8841643Y-9925000D01*
X-8912353Y-9954289D01*
X-9477504Y-10519440D01*
X-9483457Y-10524525D01*
X-9499384Y-10536096D01*
X-9511316Y-10546287D01*
X-9522448Y-10557419D01*
X-9535023Y-10566555D01*
X-9549046Y-10573700D01*
X-9562428Y-10581900D01*
X-9575161Y-10591151D01*
X-9589012Y-10598209D01*
X-9603983Y-10603073D01*
X-9618481Y-10609078D01*
X-9632510Y-10616226D01*
X-9647290Y-10621029D01*
X-9662841Y-10623492D01*
X-9678096Y-10627155D01*
X-9693063Y-10632018D01*
X-9708420Y-10634450D01*
X-9724158Y-10634450D01*
X-9739801Y-10635681D01*
X-9759243Y-10638760D01*
X-9767056Y-10639375D01*
X-9910667Y-10639375D01*
X-9969994Y-10658875D01*
X-10006183Y-10709770D01*
G37*
G36*
X-8806506Y-7018519D02*
X-8796108Y-7080097D01*
X-8751204Y-7123498D01*
X-8707634Y-7133489D01*
X-8579578Y-7133489D01*
X-8567649Y-7134938D01*
X-8427260Y-7169540D01*
X-8416024Y-7173801D01*
X-8287988Y-7240999D01*
X-8278105Y-7247822D01*
X-8169871Y-7343708D01*
X-8168672Y-7345062D01*
X-8168004Y-7345363D01*
X-8165343Y-7347720D01*
X-8164608Y-7346891D01*
X-8093821Y-7378750D01*
X-7350857Y-7378750D01*
X-7280147Y-7349461D01*
X-6476870Y-6546184D01*
X-6470917Y-6541099D01*
X-6454990Y-6529528D01*
X-6443058Y-6519337D01*
X-6431931Y-6508210D01*
X-6419353Y-6499071D01*
X-6405327Y-6491925D01*
X-6391948Y-6483726D01*
X-6379211Y-6474472D01*
X-6365361Y-6467415D01*
X-6350388Y-6462550D01*
X-6335890Y-6456545D01*
X-6321864Y-6449398D01*
X-6307085Y-6444596D01*
X-6291538Y-6442134D01*
X-6276278Y-6438470D01*
X-6261314Y-6433608D01*
X-6245950Y-6431174D01*
X-6230211Y-6431174D01*
X-6214569Y-6429943D01*
X-6195134Y-6426865D01*
X-6187319Y-6426250D01*
X-2798091Y-6426250D01*
X-2738764Y-6406750D01*
X-2702575Y-6355855D01*
X-2698821Y-6314197D01*
X-2713021Y-6197254D01*
X-2713021Y-6185246D01*
X-2695591Y-6041696D01*
X-2692719Y-6030043D01*
X-2641440Y-5894833D01*
X-2635862Y-5884205D01*
X-2553716Y-5765195D01*
X-2545756Y-5756210D01*
X-2437520Y-5660322D01*
X-2427637Y-5653499D01*
X-2299601Y-5586301D01*
X-2288365Y-5582040D01*
X-2147976Y-5547438D01*
X-2136047Y-5545989D01*
X-1991453Y-5545989D01*
X-1979524Y-5547438D01*
X-1839135Y-5582040D01*
X-1827899Y-5586301D01*
X-1699863Y-5653499D01*
X-1689980Y-5660322D01*
X-1581744Y-5756210D01*
X-1573781Y-5765199D01*
X-1507238Y-5861604D01*
X-1457488Y-5899353D01*
X-1395045Y-5900225D01*
X-1354230Y-5875509D01*
X-1351931Y-5873210D01*
X-1339349Y-5864069D01*
X-1325330Y-5856926D01*
X-1311947Y-5848726D01*
X-1299210Y-5839471D01*
X-1285363Y-5832416D01*
X-1270393Y-5827552D01*
X-1255895Y-5821547D01*
X-1241863Y-5814397D01*
X-1227088Y-5809596D01*
X-1211528Y-5807132D01*
X-1196270Y-5803469D01*
X-1181309Y-5798608D01*
X-1165954Y-5796176D01*
X-1150223Y-5796176D01*
X-1134580Y-5794945D01*
X-1115132Y-5791865D01*
X-1107319Y-5791250D01*
X245203Y-5791250D01*
X245203Y-5249011D01*
X233274Y-5247562D01*
X92885Y-5212960D01*
X81649Y-5208699D01*
X-46387Y-5141501D01*
X-56270Y-5134678D01*
X-164506Y-5038790D01*
X-172466Y-5029805D01*
X-254612Y-4910795D01*
X-260190Y-4900167D01*
X-311469Y-4764957D01*
X-314341Y-4753304D01*
X-331771Y-4609754D01*
X-331771Y-4597746D01*
X-314341Y-4454196D01*
X-311469Y-4442543D01*
X-260190Y-4307333D01*
X-254612Y-4296705D01*
X-172466Y-4177695D01*
X-164506Y-4168710D01*
X-56270Y-4072822D01*
X-46387Y-4065999D01*
X81649Y-3998801D01*
X92885Y-3994540D01*
X233274Y-3959938D01*
X245203Y-3958489D01*
X389797Y-3958489D01*
X401726Y-3959938D01*
X542115Y-3994540D01*
X553351Y-3998801D01*
X681387Y-4065999D01*
X691270Y-4072822D01*
X799506Y-4168710D01*
X807466Y-4177695D01*
X889612Y-4296705D01*
X895190Y-4307333D01*
X946469Y-4442543D01*
X949341Y-4454196D01*
X966771Y-4597746D01*
X966771Y-4609754D01*
X949341Y-4753304D01*
X946469Y-4764957D01*
X895190Y-4900167D01*
X889612Y-4910795D01*
X807466Y-5029805D01*
X799506Y-5038790D01*
X691270Y-5134678D01*
X681387Y-5141501D01*
X553351Y-5208699D01*
X542115Y-5212960D01*
X401726Y-5247562D01*
X389797Y-5249011D01*
X245203Y-5249011D01*
X245203Y-5791250D01*
X6028569Y-5791250D01*
X6036384Y-5791865D01*
X6055819Y-5794943D01*
X6071461Y-5796174D01*
X6087205Y-5796174D01*
X6102562Y-5798606D01*
X6117535Y-5803471D01*
X6132791Y-5807134D01*
X6148335Y-5809596D01*
X6163121Y-5814401D01*
X6177138Y-5821543D01*
X6191636Y-5827549D01*
X6206612Y-5832415D01*
X6220464Y-5839473D01*
X6233198Y-5848725D01*
X6246578Y-5856925D01*
X6260606Y-5864073D01*
X6273177Y-5873206D01*
X6284311Y-5884340D01*
X6296242Y-5894530D01*
X6312164Y-5906098D01*
X6318121Y-5911186D01*
X6399885Y-5992950D01*
X6470595Y-6022239D01*
X6485134Y-6022239D01*
X6544461Y-6002739D01*
X6580650Y-5951844D01*
X6579588Y-5889403D01*
X6555844Y-5851530D01*
X5276184Y-4571870D01*
X5271099Y-4565917D01*
X5259528Y-4549990D01*
X5249337Y-4538058D01*
X5238210Y-4526931D01*
X5229071Y-4514353D01*
X5221925Y-4500327D01*
X5213726Y-4486948D01*
X5204472Y-4474211D01*
X5197415Y-4460361D01*
X5192550Y-4445388D01*
X5186545Y-4430890D01*
X5179398Y-4416864D01*
X5174596Y-4402085D01*
X5172134Y-4386538D01*
X5168470Y-4371278D01*
X5163608Y-4356314D01*
X5161174Y-4340950D01*
X5161174Y-4325208D01*
X5159943Y-4309563D01*
X5158694Y-4301678D01*
X5156865Y-4290131D01*
X5156250Y-4282318D01*
X5156250Y-3965822D01*
X5122563Y-3890972D01*
X5074244Y-3848165D01*
X5066284Y-3839180D01*
X4984138Y-3720170D01*
X4978560Y-3709542D01*
X4927281Y-3574332D01*
X4924409Y-3562679D01*
X4906979Y-3419129D01*
X4906979Y-3407121D01*
X4924409Y-3263571D01*
X4927283Y-3251912D01*
X4931627Y-3240457D01*
X4934431Y-3178071D01*
X4899676Y-3126186D01*
X4838126Y-3105000D01*
X-4879143Y-3105000D01*
X-4949853Y-3134289D01*
X-8778344Y-6962780D01*
X-8806506Y-7018519D01*
G37*
G36*
X-4841536Y-15789770D02*
X-4840474Y-15852211D01*
X-4816730Y-15890084D01*
X-2569489Y-18137325D01*
X-2498779Y-18166614D01*
X-2388328Y-18166614D01*
X-2376399Y-18168063D01*
X-2281326Y-18191496D01*
X-2219057Y-18186761D01*
X-2171739Y-18146005D01*
X-2158253Y-18097485D01*
X-2158125Y-18097500D01*
X-2158023Y-18096658D01*
X-2157396Y-18094403D01*
X-2157396Y-18091496D01*
X-2139966Y-17947946D01*
X-2137094Y-17936293D01*
X-2085815Y-17801083D01*
X-2080237Y-17790455D01*
X-1998091Y-17671445D01*
X-1990131Y-17662460D01*
X-1881895Y-17566572D01*
X-1872012Y-17559749D01*
X-1743976Y-17492551D01*
X-1732740Y-17488290D01*
X-1592351Y-17453688D01*
X-1580422Y-17452239D01*
X-1435828Y-17452239D01*
X-1423899Y-17453688D01*
X-1283510Y-17488290D01*
X-1272274Y-17492551D01*
X-1144238Y-17559749D01*
X-1134355Y-17566572D01*
X-1026121Y-17662458D01*
X-1024922Y-17663812D01*
X-1024254Y-17664113D01*
X-1021593Y-17666470D01*
X-1020858Y-17665641D01*
X-950071Y-17697500D01*
X-683356Y-17697500D01*
X-612646Y-17668211D01*
X912200Y-16143365D01*
X940760Y-16060603D01*
X938229Y-16039756D01*
X938229Y-16027746D01*
X955659Y-15884196D01*
X958532Y-15872539D01*
X965247Y-15854835D01*
X968053Y-15792449D01*
X933299Y-15740563D01*
X871747Y-15719375D01*
X-1219350Y-15719375D01*
X-1278677Y-15738875D01*
X-1314866Y-15789770D01*
X-1312851Y-15854834D01*
X-1276031Y-15951919D01*
X-1273159Y-15963571D01*
X-1255729Y-16107121D01*
X-1255729Y-16119129D01*
X-1273159Y-16262679D01*
X-1276031Y-16274332D01*
X-1327310Y-16409542D01*
X-1332888Y-16420170D01*
X-1415034Y-16539180D01*
X-1422994Y-16548165D01*
X-1531230Y-16644053D01*
X-1541113Y-16650876D01*
X-1669149Y-16718074D01*
X-1680385Y-16722335D01*
X-1820774Y-16756937D01*
X-1832703Y-16758386D01*
X-1977297Y-16758386D01*
X-1989226Y-16756937D01*
X-2129615Y-16722335D01*
X-2140851Y-16718074D01*
X-2268887Y-16650876D01*
X-2278770Y-16644053D01*
X-2387006Y-16548165D01*
X-2394966Y-16539180D01*
X-2477112Y-16420170D01*
X-2482690Y-16409542D01*
X-2533969Y-16274332D01*
X-2536841Y-16262679D01*
X-2554271Y-16119129D01*
X-2554271Y-16107121D01*
X-2536841Y-15963571D01*
X-2533969Y-15951919D01*
X-2497149Y-15854834D01*
X-2494344Y-15792448D01*
X-2529099Y-15740562D01*
X-2590650Y-15719375D01*
X-4746020Y-15719375D01*
X-4805347Y-15738875D01*
X-4841536Y-15789770D01*
G37*
G36*
X-3178017Y-12343780D02*
X-3167619Y-12405358D01*
X-3122715Y-12448759D01*
X-3079145Y-12458750D01*
X-2270856Y-12458750D01*
X-2200146Y-12429461D01*
X-1295144Y-11524459D01*
X-1266982Y-11468720D01*
X-1277380Y-11407142D01*
X-1322284Y-11363741D01*
X-1365854Y-11353750D01*
X-2174143Y-11353750D01*
X-2244853Y-11383039D01*
X-3149855Y-12288041D01*
X-3178017Y-12343780D01*
G37*
G36*
X-333053Y-9448801D02*
X-298299Y-9500687D01*
X-236747Y-9521875D01*
X4918821Y-9521875D01*
X4989608Y-9490016D01*
X4990343Y-9490845D01*
X4993004Y-9488488D01*
X4993672Y-9488187D01*
X4994871Y-9486833D01*
X5103105Y-9390947D01*
X5112988Y-9384124D01*
X5241024Y-9316926D01*
X5252260Y-9312665D01*
X5392649Y-9278063D01*
X5404578Y-9276614D01*
X5549172Y-9276614D01*
X5561101Y-9278063D01*
X5701490Y-9312665D01*
X5712726Y-9316926D01*
X5840762Y-9384124D01*
X5850645Y-9390947D01*
X5958881Y-9486835D01*
X5966841Y-9495820D01*
X6048987Y-9614830D01*
X6054565Y-9625458D01*
X6105844Y-9760668D01*
X6108716Y-9772321D01*
X6126146Y-9915871D01*
X6126146Y-9927879D01*
X6108716Y-10071429D01*
X6105844Y-10083082D01*
X6054565Y-10218292D01*
X6048987Y-10228920D01*
X6042585Y-10238195D01*
X6024932Y-10298098D01*
X6046260Y-10356793D01*
X6124883Y-10395000D01*
X6504819Y-10395000D01*
X6512634Y-10395615D01*
X6532069Y-10398693D01*
X6547711Y-10399924D01*
X6563450Y-10399924D01*
X6578814Y-10402358D01*
X6593778Y-10407220D01*
X6609038Y-10410884D01*
X6624585Y-10413346D01*
X6639364Y-10418148D01*
X6653390Y-10425295D01*
X6667888Y-10431300D01*
X6682861Y-10436165D01*
X6696711Y-10443222D01*
X6709448Y-10452476D01*
X6722827Y-10460675D01*
X6736853Y-10467821D01*
X6749431Y-10476960D01*
X6760558Y-10488087D01*
X6772490Y-10498278D01*
X6788417Y-10509849D01*
X6794370Y-10514934D01*
X7026940Y-10747504D01*
X7032025Y-10753457D01*
X7043596Y-10769384D01*
X7053787Y-10781316D01*
X7064919Y-10792448D01*
X7074055Y-10805023D01*
X7081200Y-10819046D01*
X7089400Y-10832428D01*
X7098651Y-10845161D01*
X7105709Y-10859012D01*
X7110573Y-10873983D01*
X7116578Y-10888481D01*
X7123726Y-10902510D01*
X7128529Y-10917290D01*
X7130992Y-10932841D01*
X7134655Y-10948096D01*
X7141950Y-10970549D01*
X7143573Y-10970022D01*
X7167842Y-11017258D01*
X7223770Y-11045043D01*
X7308782Y-11016782D01*
X7413755Y-10911809D01*
X7419708Y-10906724D01*
X7435635Y-10895153D01*
X7447567Y-10884962D01*
X7458694Y-10873835D01*
X7471272Y-10864696D01*
X7485298Y-10857550D01*
X7498677Y-10849351D01*
X7511414Y-10840097D01*
X7525264Y-10833040D01*
X7540237Y-10828175D01*
X7554735Y-10822170D01*
X7568761Y-10815023D01*
X7583540Y-10810221D01*
X7599087Y-10807759D01*
X7614347Y-10804095D01*
X7629311Y-10799233D01*
X7644675Y-10796799D01*
X7660414Y-10796799D01*
X7676056Y-10795568D01*
X7695491Y-10792490D01*
X7703306Y-10791875D01*
X7765742Y-10791875D01*
X7825069Y-10772375D01*
X7861258Y-10721480D01*
X7848040Y-10635070D01*
X7841638Y-10625795D01*
X7836060Y-10615167D01*
X7784781Y-10479957D01*
X7781909Y-10468304D01*
X7765170Y-10330445D01*
X7738661Y-10273901D01*
X7665900Y-10242500D01*
X7306431Y-10242500D01*
X7298618Y-10241885D01*
X7279183Y-10238807D01*
X7263540Y-10237576D01*
X7247800Y-10237576D01*
X7232436Y-10235142D01*
X7217472Y-10230280D01*
X7202212Y-10226616D01*
X7186665Y-10224154D01*
X7171886Y-10219352D01*
X7157860Y-10212205D01*
X7143362Y-10206200D01*
X7128389Y-10201335D01*
X7114539Y-10194278D01*
X7101802Y-10185024D01*
X7088423Y-10176825D01*
X7074397Y-10169679D01*
X7061819Y-10160540D01*
X7050692Y-10149413D01*
X7038760Y-10139222D01*
X7022833Y-10127651D01*
X7016880Y-10122566D01*
X6069934Y-9175620D01*
X6064849Y-9169667D01*
X6053278Y-9153740D01*
X6043087Y-9141808D01*
X6031960Y-9130681D01*
X6022821Y-9118103D01*
X6015675Y-9104077D01*
X6007476Y-9090698D01*
X5998222Y-9077961D01*
X5991165Y-9064111D01*
X5986300Y-9049138D01*
X5980295Y-9034640D01*
X5973148Y-9020614D01*
X5968346Y-9005835D01*
X5965884Y-8990288D01*
X5962221Y-8975029D01*
X5955946Y-8955716D01*
X5919068Y-8905318D01*
X5836909Y-8889524D01*
X5799224Y-8898813D01*
X5787297Y-8900261D01*
X5642703Y-8900261D01*
X5630774Y-8898812D01*
X5490385Y-8864210D01*
X5479149Y-8859949D01*
X5461422Y-8850645D01*
X5399828Y-8840341D01*
X5332652Y-8882385D01*
X5252469Y-8998551D01*
X5244506Y-9007540D01*
X5136270Y-9103428D01*
X5126387Y-9110251D01*
X4998351Y-9177449D01*
X4987115Y-9181710D01*
X4846726Y-9216312D01*
X4834797Y-9217761D01*
X4690203Y-9217761D01*
X4678274Y-9216312D01*
X4537885Y-9181710D01*
X4526649Y-9177449D01*
X4398613Y-9110251D01*
X4388730Y-9103428D01*
X4280496Y-9007542D01*
X4279297Y-9006188D01*
X4278629Y-9005887D01*
X4275968Y-9003530D01*
X4275233Y-9004359D01*
X4204446Y-8972500D01*
X-218159Y-8972500D01*
X-277486Y-8992000D01*
X-313675Y-9042895D01*
X-317429Y-9084553D01*
X-303229Y-9201496D01*
X-303229Y-9213504D01*
X-320659Y-9357054D01*
X-323532Y-9368711D01*
X-330247Y-9386415D01*
X-333053Y-9448801D01*
G37*
G36*
X5956250Y-4079143D02*
X5985539Y-4149853D01*
X7828636Y-5992950D01*
X7899346Y-6022239D01*
X8009797Y-6022239D01*
X8021726Y-6023688D01*
X8162115Y-6058290D01*
X8173351Y-6062551D01*
X8301387Y-6129749D01*
X8311270Y-6136572D01*
X8419506Y-6232460D01*
X8427466Y-6241445D01*
X8512477Y-6364606D01*
X8562227Y-6402354D01*
X8624670Y-6403226D01*
X8674110Y-6368675D01*
X8714624Y-6315875D01*
X8735269Y-6256936D01*
X8714624Y-6194125D01*
X8664614Y-6128950D01*
X8658116Y-6117695D01*
X8617927Y-6020672D01*
X8614563Y-6008116D01*
X8601271Y-5907152D01*
X8601566Y-5906253D01*
X8623828Y-5895005D01*
X8900000Y-5895005D01*
X8900000Y-5897500D01*
X8911608Y-5955859D01*
X8944666Y-6005334D01*
X8994141Y-6038392D01*
X9052500Y-6050000D01*
X13347500Y-6050000D01*
X13405859Y-6038392D01*
X13455334Y-6005334D01*
X13488392Y-5955859D01*
X13500000Y-5897500D01*
X13500000Y-5592500D01*
X13488392Y-5534141D01*
X13455334Y-5484666D01*
X13405859Y-5451608D01*
X13347500Y-5440000D01*
X9052500Y-5440000D01*
X8994141Y-5451608D01*
X8944666Y-5484666D01*
X8911608Y-5534141D01*
X8900000Y-5592500D01*
X8900000Y-5594995D01*
X8616013Y-5594995D01*
X8611248Y-5593429D01*
X8602228Y-5575577D01*
X8614563Y-5481884D01*
X8617927Y-5469328D01*
X8658116Y-5372305D01*
X8664614Y-5361050D01*
X8728544Y-5277734D01*
X8737734Y-5268544D01*
X8747069Y-5261381D01*
X8782266Y-5209794D01*
X8779994Y-5147386D01*
X8756904Y-5111336D01*
X8743188Y-5097620D01*
X8671311Y-5003949D01*
X8666144Y-4994999D01*
X8619593Y-4953370D01*
X8579543Y-4945000D01*
X8358931Y-4945000D01*
X8351118Y-4944385D01*
X8331683Y-4941307D01*
X8316040Y-4940076D01*
X8300300Y-4940076D01*
X8284936Y-4937642D01*
X8269972Y-4932780D01*
X8254712Y-4929116D01*
X8239165Y-4926654D01*
X8224386Y-4921852D01*
X8210360Y-4914705D01*
X8195862Y-4908700D01*
X8180889Y-4903835D01*
X8167039Y-4896778D01*
X8154302Y-4887524D01*
X8140923Y-4879325D01*
X8126897Y-4872179D01*
X8114319Y-4863040D01*
X8103192Y-4851913D01*
X8091260Y-4841722D01*
X8075333Y-4830151D01*
X8069380Y-4825066D01*
X7887614Y-4643300D01*
X7816904Y-4614011D01*
X7706453Y-4614011D01*
X7694524Y-4612562D01*
X7554135Y-4577960D01*
X7542899Y-4573699D01*
X7414863Y-4506501D01*
X7404980Y-4499678D01*
X7296744Y-4403790D01*
X7288784Y-4394805D01*
X7206638Y-4275795D01*
X7201060Y-4265167D01*
X7149781Y-4129957D01*
X7146909Y-4118304D01*
X7129479Y-3974754D01*
X7129479Y-3962746D01*
X7146909Y-3819196D01*
X7149781Y-3807543D01*
X7201060Y-3672333D01*
X7206638Y-3661705D01*
X7288784Y-3542695D01*
X7296744Y-3533710D01*
X7404980Y-3437822D01*
X7414863Y-3430999D01*
X7542899Y-3363801D01*
X7554135Y-3359540D01*
X7694524Y-3324938D01*
X7706453Y-3323489D01*
X7851047Y-3323489D01*
X7862976Y-3324938D01*
X8003365Y-3359540D01*
X8014601Y-3363801D01*
X8142637Y-3430999D01*
X8152520Y-3437822D01*
X8260756Y-3533710D01*
X8268716Y-3542695D01*
X8350862Y-3661705D01*
X8356440Y-3672333D01*
X8407719Y-3807543D01*
X8410591Y-3819196D01*
X8428021Y-3962746D01*
X8428021Y-3974755D01*
X8425490Y-3995602D01*
X8454050Y-4078364D01*
X8491397Y-4115711D01*
X8562107Y-4145000D01*
X8579543Y-4145000D01*
X8638870Y-4125500D01*
X8666144Y-4095001D01*
X8671311Y-4086051D01*
X8743188Y-3992380D01*
X8752380Y-3983188D01*
X8846051Y-3911311D01*
X8857304Y-3904815D01*
X8966390Y-3859629D01*
X8978937Y-3856267D01*
X9099261Y-3840426D01*
X9105770Y-3840000D01*
X13294230Y-3840000D01*
X13300739Y-3840426D01*
X13421063Y-3856267D01*
X13433610Y-3859629D01*
X13542693Y-3904813D01*
X13550000Y-3909032D01*
X13611129Y-3921809D01*
X13667918Y-3895828D01*
X13700000Y-3822431D01*
X13700000Y-3427569D01*
X13680500Y-3368242D01*
X13629605Y-3332053D01*
X13550000Y-3340968D01*
X13542693Y-3345187D01*
X13433610Y-3390371D01*
X13421063Y-3393733D01*
X13300739Y-3409574D01*
X13294230Y-3410000D01*
X9105770Y-3410000D01*
X9099261Y-3409574D01*
X8978937Y-3393733D01*
X8966390Y-3390371D01*
X8857304Y-3345185D01*
X8846051Y-3338689D01*
X8752380Y-3266812D01*
X8743188Y-3257620D01*
X8671311Y-3163949D01*
X8666144Y-3154999D01*
X8619593Y-3113370D01*
X8579543Y-3105000D01*
X6274374Y-3105000D01*
X6215047Y-3124500D01*
X6178858Y-3175395D01*
X6180873Y-3240457D01*
X6185217Y-3251912D01*
X6188091Y-3263571D01*
X6205521Y-3407121D01*
X6205521Y-3419129D01*
X6188091Y-3562679D01*
X6185219Y-3574332D01*
X6133940Y-3709542D01*
X6128362Y-3720170D01*
X6046216Y-3839180D01*
X6038256Y-3848165D01*
X5989937Y-3890972D01*
X5956250Y-3965822D01*
X5956250Y-4079143D01*
G37*
G36*
X6750000Y-16779144D02*
X6779289Y-16849854D01*
X8304885Y-18375450D01*
X8375595Y-18404739D01*
X8486047Y-18404739D01*
X8497976Y-18406188D01*
X8638365Y-18440790D01*
X8649601Y-18445051D01*
X8777637Y-18512249D01*
X8787520Y-18519072D01*
X8895756Y-18614960D01*
X8903716Y-18623945D01*
X8985862Y-18742955D01*
X8991440Y-18753583D01*
X9042719Y-18888793D01*
X9045591Y-18900446D01*
X9063021Y-19043996D01*
X9063021Y-19056004D01*
X9045591Y-19199554D01*
X9042719Y-19211207D01*
X8991440Y-19346417D01*
X8985862Y-19357045D01*
X8903716Y-19476055D01*
X8895756Y-19485040D01*
X8850480Y-19525151D01*
X8819004Y-19579088D01*
X8825666Y-19641181D01*
X8867867Y-19687214D01*
X8916792Y-19700000D01*
X10563953Y-19700000D01*
X10563953Y-18425261D01*
X10552024Y-18423812D01*
X10411635Y-18389210D01*
X10400399Y-18384949D01*
X10272363Y-18317751D01*
X10262480Y-18310928D01*
X10154244Y-18215040D01*
X10146284Y-18206055D01*
X10064138Y-18087045D01*
X10058560Y-18076417D01*
X10007281Y-17941207D01*
X10004409Y-17929554D01*
X9986979Y-17786004D01*
X9986979Y-17773996D01*
X10004409Y-17630446D01*
X10007281Y-17618793D01*
X10058560Y-17483583D01*
X10064138Y-17472955D01*
X10146284Y-17353945D01*
X10154244Y-17344960D01*
X10262480Y-17249072D01*
X10272363Y-17242249D01*
X10400399Y-17175051D01*
X10411635Y-17170790D01*
X10552024Y-17136188D01*
X10563953Y-17134739D01*
X10708547Y-17134739D01*
X10720476Y-17136188D01*
X10860865Y-17170790D01*
X10872101Y-17175051D01*
X11000137Y-17242249D01*
X11010020Y-17249072D01*
X11118256Y-17344960D01*
X11126216Y-17353945D01*
X11208362Y-17472955D01*
X11213940Y-17483583D01*
X11265219Y-17618793D01*
X11268091Y-17630446D01*
X11285521Y-17773996D01*
X11285521Y-17786004D01*
X11268091Y-17929554D01*
X11265219Y-17941207D01*
X11213940Y-18076417D01*
X11208362Y-18087045D01*
X11126216Y-18206055D01*
X11118256Y-18215040D01*
X11010020Y-18310928D01*
X11000137Y-18317751D01*
X10872101Y-18384949D01*
X10860865Y-18389210D01*
X10720476Y-18423812D01*
X10708547Y-18425261D01*
X10563953Y-18425261D01*
X10563953Y-19700000D01*
X13600001Y-19700000D01*
X13659328Y-19680500D01*
X13700000Y-19600001D01*
X13700000Y-19191687D01*
X13680500Y-19132360D01*
X13629605Y-19096171D01*
X13545662Y-19109014D01*
X13545492Y-19108690D01*
X13544550Y-19109184D01*
X13543192Y-19109392D01*
X13540139Y-19111499D01*
X13412101Y-19178699D01*
X13400865Y-19182960D01*
X13260476Y-19217562D01*
X13248547Y-19219011D01*
X13103953Y-19219011D01*
X13092024Y-19217562D01*
X12951635Y-19182960D01*
X12940399Y-19178699D01*
X12812363Y-19111501D01*
X12802480Y-19104678D01*
X12694244Y-19008790D01*
X12686284Y-18999805D01*
X12604138Y-18880795D01*
X12598560Y-18870167D01*
X12547281Y-18734957D01*
X12544409Y-18723304D01*
X12526979Y-18579754D01*
X12526979Y-18567746D01*
X12544409Y-18424196D01*
X12547281Y-18412543D01*
X12598560Y-18277333D01*
X12604138Y-18266705D01*
X12686284Y-18147695D01*
X12694244Y-18138710D01*
X12802480Y-18042822D01*
X12812363Y-18035999D01*
X12940399Y-17968801D01*
X12951635Y-17964540D01*
X13092024Y-17929938D01*
X13103953Y-17928489D01*
X13248547Y-17928489D01*
X13260476Y-17929938D01*
X13400865Y-17964540D01*
X13412101Y-17968801D01*
X13540139Y-18036001D01*
X13543192Y-18038108D01*
X13545387Y-18038755D01*
X13545492Y-18038810D01*
X13545503Y-18038789D01*
X13603094Y-18055764D01*
X13661789Y-18034439D01*
X13700000Y-17955813D01*
X13700000Y-16647569D01*
X13680500Y-16588242D01*
X13629605Y-16552053D01*
X13550000Y-16560968D01*
X13542693Y-16565187D01*
X13433610Y-16610371D01*
X13421063Y-16613733D01*
X13300739Y-16629574D01*
X13294230Y-16630000D01*
X9105770Y-16630000D01*
X9099261Y-16629574D01*
X8978937Y-16613733D01*
X8966390Y-16610371D01*
X8857304Y-16565185D01*
X8846051Y-16558689D01*
X8752380Y-16486812D01*
X8743188Y-16477620D01*
X8671311Y-16383949D01*
X8664815Y-16372696D01*
X8619629Y-16263610D01*
X8616267Y-16251063D01*
X8600426Y-16130739D01*
X8600000Y-16124230D01*
X8600000Y-16033356D01*
X8570711Y-15962646D01*
X7411365Y-14803300D01*
X7340655Y-14774011D01*
X7230203Y-14774011D01*
X7218274Y-14772562D01*
X7077885Y-14737960D01*
X7066649Y-14733699D01*
X6938613Y-14666501D01*
X6928730Y-14659679D01*
X6916311Y-14648676D01*
X6858974Y-14623931D01*
X6798136Y-14638027D01*
X6757525Y-14685469D01*
X6750000Y-14723526D01*
X6750000Y-16779144D01*
G37*
G36*
X7506048Y-12354748D02*
X7506686Y-12417195D01*
X7544248Y-12467085D01*
X7601361Y-12485000D01*
X8627615Y-12485000D01*
X8706950Y-12445876D01*
X8714624Y-12435875D01*
X8735269Y-12376937D01*
X8714624Y-12314125D01*
X8660624Y-12243750D01*
X8658309Y-12245526D01*
X8610741Y-12207009D01*
X8600630Y-12203724D01*
X8586610Y-12196580D01*
X8572112Y-12190575D01*
X8557139Y-12185710D01*
X8543289Y-12178653D01*
X8530552Y-12169399D01*
X8517173Y-12161200D01*
X8503147Y-12154054D01*
X8490569Y-12144915D01*
X8479442Y-12133788D01*
X8467510Y-12123597D01*
X8451583Y-12112026D01*
X8445630Y-12106941D01*
X8292434Y-11953745D01*
X8287349Y-11947792D01*
X8275778Y-11931865D01*
X8265587Y-11919933D01*
X8254460Y-11908806D01*
X8245321Y-11896228D01*
X8238175Y-11882202D01*
X8229976Y-11868823D01*
X8220722Y-11856086D01*
X8213665Y-11842236D01*
X8208800Y-11827263D01*
X8202795Y-11812765D01*
X8195648Y-11798739D01*
X8190846Y-11783960D01*
X8188384Y-11768413D01*
X8184720Y-11753153D01*
X8179858Y-11738189D01*
X8177424Y-11722825D01*
X8177424Y-11707086D01*
X8176193Y-11691445D01*
X8173784Y-11676233D01*
X8145245Y-11620686D01*
X8075016Y-11591875D01*
X8040624Y-11591875D01*
X7981297Y-11611375D01*
X7940625Y-11691874D01*
X7940625Y-11743568D01*
X7940010Y-11751381D01*
X7936931Y-11770823D01*
X7935700Y-11786466D01*
X7935700Y-11802204D01*
X7933268Y-11817561D01*
X7928405Y-11832528D01*
X7924742Y-11847783D01*
X7922279Y-11863334D01*
X7917476Y-11878114D01*
X7910328Y-11892143D01*
X7904323Y-11906641D01*
X7899459Y-11921612D01*
X7892401Y-11935463D01*
X7883150Y-11948196D01*
X7874950Y-11961578D01*
X7867805Y-11975601D01*
X7858669Y-11988176D01*
X7847537Y-11999308D01*
X7837346Y-12011240D01*
X7825775Y-12027167D01*
X7820690Y-12033120D01*
X7588120Y-12265690D01*
X7582161Y-12270780D01*
X7566245Y-12282343D01*
X7554312Y-12292534D01*
X7543178Y-12303668D01*
X7542582Y-12304101D01*
X7542160Y-12304686D01*
X7537614Y-12309232D01*
X7538350Y-12309968D01*
X7506048Y-12354748D01*
G37*
G04 --- BOARD END --- *
G04 #@! TF.MD5,058b803e76f80d5f310fc7b190a2602f*
M02*
